<svg width="64" height="64" viewBox="0 0 64 64" fill="none" xmlns="http://www.w3.org/2000/svg">
<g clip-path="url(#clip0)">
<path fill-rule="evenodd" clip-rule="evenodd" d="M32.8427 22.2983C36.5205 28.6656 40.1984 35.0365 43.8728 41.4039L55.732 61.9409H8.30566L20.1613 41.4039C22.5218 37.3134 24.8837 33.2229 27.2453 29.1324C27.6852 28.3705 30.3269 28.1148 30.3269 28.1148C30.3269 28.1148 29.453 25.3079 29.8972 24.5384C30.3274 23.7929 30.7577 23.0474 31.1879 22.3019C31.6379 21.5224 32.3785 21.4939 32.8427 22.2983Z" fill="#F8F8F5"/>
<path fill-rule="evenodd" clip-rule="evenodd" d="M25.0049 33.0168L30.8478 37.1484C31.6628 37.6693 32.4458 37.6728 33.1899 37.1484L39.0326 33.0168C36.9705 29.4451 34.9048 25.8699 32.8426 22.2983C32.3749 21.4939 31.6379 21.5224 31.1879 22.3018C29.1256 25.8734 27.0634 29.4451 25.0049 33.0168Z" fill="#F8F8F5"/>
<path fill-rule="evenodd" clip-rule="evenodd" d="M62.0715 60.1869C62.5783 61.0656 62.0715 61.9408 61.0617 61.9408H39.3807C38.3779 61.9408 37.8712 61.0762 38.3602 60.2046L43.7884 50.8007L49.7339 40.5038C49.9997 40.0468 50.4355 40.0289 50.7083 40.5073C54.496 47.0661 58.2838 53.6282 62.0715 60.1869Z" fill="#F8F8F5"/>
<path fill-rule="evenodd" clip-rule="evenodd" d="M10.715 46.4424C13.3617 51.0274 16.0086 55.6124 18.6553 60.194C19.1515 61.0691 18.6482 61.9409 17.6385 61.9409H2.81709C1.80721 61.9409 1.30059 61.0656 1.80721 60.187C4.45046 55.609 7.09734 51.0275 9.74059 46.446C10.0063 45.9887 10.4386 45.9711 10.715 46.4424Z" fill="#F8F8F5"/>
<path fill-rule="evenodd" clip-rule="evenodd" d="M57.8897 16.1579H41.8883C41.3497 16.0834 40.9211 15.6547 40.8467 15.1161V6.73975H57.8897C58.1979 6.761 58.2829 6.92037 58.1342 7.22875L54.9594 11.4487L58.1342 15.6689C58.2547 15.8319 58.1661 16.1542 57.8897 16.1579Z" fill="#FF8838"/>
<path fill-rule="evenodd" clip-rule="evenodd" d="M40.8467 13.6172V6.73975H51.8413V11.5267C51.6891 12.6075 50.8351 13.465 49.7508 13.6174H40.8467V13.6172Z" fill="#EB792D"/>
<path fill-rule="evenodd" clip-rule="evenodd" d="M48.6313 11.4486H32.1482C31.6096 11.3743 31.1809 10.9456 31.1064 10.407V3.07227C31.1809 2.53364 31.6096 2.10502 32.1482 2.03052H48.6313C49.1699 2.10502 49.5987 2.53364 49.6731 3.07227V10.407C49.5987 10.9455 49.1699 11.3743 48.6313 11.4486Z" fill="#FF8838"/>
<path fill-rule="evenodd" clip-rule="evenodd" d="M45.584 47.6896L49.3575 50.3541C49.9634 50.7473 50.541 50.7651 51.0831 50.3541L54.8566 47.6896C53.4712 45.2943 52.0894 42.8991 50.7075 40.5038C50.431 40.029 49.9989 40.0468 49.7331 40.5073C48.3512 42.899 46.9694 45.2943 45.584 47.6896Z" fill="#F8F8F5"/>
<path fill-rule="evenodd" clip-rule="evenodd" d="M6.87793 51.403L9.61693 53.3377C10.0244 53.6247 10.4319 53.6247 10.8393 53.3377L13.5783 51.403C12.6251 49.7518 11.6686 48.0971 10.7153 46.446C10.4424 45.9711 10.0067 45.9888 9.74093 46.446C8.78768 48.1006 7.83456 49.7518 6.87793 51.403Z" fill="#F8F8F5"/>
<path fill-rule="evenodd" clip-rule="evenodd" d="M19.5236 19.3786C21.8232 19.3786 23.7011 21.2602 23.7011 23.5562C23.7011 25.8557 21.8232 27.7372 19.5236 27.7372H4.97507C2.67545 27.7372 0.793945 25.8557 0.793945 23.5562C0.793945 21.2602 2.67545 19.3786 4.97507 19.3786C4.97507 16.4306 7.3667 14.0388 10.3147 14.0388C12.1714 14.0388 13.8048 14.9848 14.7616 16.4199C15.2506 16.0904 15.8422 15.8956 16.4799 15.8956C18.1737 15.8956 19.5484 17.2703 19.5484 18.9641C19.5484 19.1058 19.5413 19.2439 19.5236 19.3786Z" fill="#F8F8F5"/>
<path fill-rule="evenodd" clip-rule="evenodd" d="M21.4473 21.3026C21.4473 23.6021 19.5658 25.4836 17.2698 25.4836H2.71771C2.15071 25.4836 1.61221 25.3667 1.11621 25.1612C1.74684 26.6706 3.24209 27.7371 4.97484 27.7371H19.5233C21.823 27.7371 23.7008 25.8556 23.7008 23.5561C23.7008 21.8269 22.6343 20.3317 21.125 19.7009C21.3338 20.1936 21.4473 20.7357 21.4473 21.3026Z" fill="#F1F1EA"/>
<path fill-rule="evenodd" clip-rule="evenodd" d="M40.8714 41.4036L45.0418 48.6283L45.5839 47.6895L46.5442 46.0277L43.8725 41.4036L39.0324 33.0166L36.8994 34.5226L40.8714 41.4036Z" fill="#F1F1EA"/>
<path fill-rule="evenodd" clip-rule="evenodd" d="M32.7932 27.4077L36.8998 34.5227L39.0328 33.0167L32.9314 22.447L32.8429 22.2982C32.6126 21.8978 32.3149 21.7065 32.0173 21.7065C31.7162 21.7065 31.4149 21.9084 31.1882 22.3018L31.1067 22.4472L30.5186 23.4675L31.1067 24.4845L32.0173 26.0649L32.7932 27.4077Z" fill="#F1F1EA"/>
<path fill-rule="evenodd" clip-rule="evenodd" d="M52.7236 49.1955C54.839 52.8592 56.9543 56.5229 59.0696 60.1868C59.5763 61.0654 59.0696 61.9407 58.0598 61.9407H61.0609C62.0708 61.9407 62.5774 61.0654 62.0708 60.1868C59.6649 56.0198 57.259 51.8565 54.8568 47.6895L52.7236 49.1955Z" fill="#F1F1EA"/>
<path fill-rule="evenodd" clip-rule="evenodd" d="M48.7197 42.2614C50.052 44.5716 51.3879 46.8854 52.7236 49.1958L54.8531 47.6898C53.4712 45.2945 52.0894 42.8993 50.7076 40.5075C50.7076 40.504 50.7076 40.504 50.7076 40.504C50.4311 40.0292 49.999 40.047 49.7332 40.504L48.7197 42.2614Z" fill="#F1F1EA"/>
<path fill-rule="evenodd" clip-rule="evenodd" d="M12.4833 54.7055L15.6511 60.1941C16.1506 61.0692 15.6476 61.9409 14.6377 61.9409H17.6388C18.6487 61.9409 19.1518 61.0692 18.6557 60.1941L13.9822 52.1047L13.5783 51.4031L11.4453 52.9091L12.4833 54.7055Z" fill="#F1F1EA"/>
<path fill-rule="evenodd" clip-rule="evenodd" d="M8.72754 48.1998L11.4453 52.909L13.5783 51.403L10.7153 46.446C10.4424 45.9711 10.0067 45.9888 9.74091 46.446L8.72754 48.1998Z" fill="#F1F1EA"/>
<path d="M12.4722 51.1195L10.3286 47.4061L8.185 51.1195L10.3286 52.6361L12.4722 51.1195ZM36.8853 60.9913C39.7659 56.0023 42.6501 51.0096 45.5308 46.0208L38.7915 34.349L32.6191 38.7109C32.3144 38.9378 31.8856 38.9554 31.5561 38.7251L25.3626 34.3455C21.9505 40.2594 18.5384 46.1731 15.1226 52.0869C16.8375 55.0528 18.5525 58.0219 20.2674 60.9913H36.8853ZM18.1698 60.9913C16.5718 58.2275 14.9809 55.4636 13.3829 52.6999L10.8671 54.4786C10.5624 54.7054 10.1336 54.723 9.80412 54.4928L7.27075 52.6999C5.67625 55.4636 4.08187 58.2275 2.48738 60.9913H18.1698ZM61.5144 60.9913C59.2041 56.9909 56.8975 52.9904 54.5909 48.9936L50.789 51.6794C50.4843 51.9061 50.0555 51.9239 49.726 51.69L45.9099 48.9936C43.5998 52.9905 41.293 56.9945 38.9829 60.9913H61.5144ZM6.82438 26.8479C7.3275 26.8479 7.735 27.2554 7.735 27.7585C7.735 28.2615 7.3275 28.6691 6.82438 28.6691H5.0845C3.685 28.6691 2.41287 28.0986 1.49162 27.1773C0.5705 26.2561 0 24.9876 0 23.588C0 22.1885 0.5705 20.9164 1.49175 19.9986C2.22163 19.2688 3.17125 18.7585 4.22713 18.5778C4.41488 17.1889 5.05625 15.945 5.99875 15.0025C7.129 13.8723 8.69162 13.1741 10.4136 13.1741C11.4731 13.1741 12.4722 13.4435 13.3545 13.9148C14.0206 14.2726 14.6159 14.7439 15.1085 15.3074C15.2076 15.2719 15.3069 15.2365 15.4061 15.2046C15.7817 15.0913 16.1715 15.0274 16.5683 15.0274C17.6666 15.0274 18.6588 15.4739 19.378 16.1931C20.0053 16.8204 20.4269 17.6565 20.5225 18.5884C21.5571 18.7763 22.4819 19.283 23.1976 19.9986C24.1189 20.9164 24.6894 22.1885 24.6894 23.588C24.6894 24.9876 24.1189 26.2561 23.1976 27.1774C22.2764 28.0986 21.0044 28.6693 19.6084 28.6693H11.0763C10.5731 28.6693 10.1656 28.2616 10.1656 27.7586C10.1656 27.2555 10.5731 26.848 11.0763 26.848H19.6084C20.5013 26.848 21.3163 26.483 21.908 25.8914C22.4996 25.2996 22.8682 24.4846 22.8682 23.5881C22.8682 22.6916 22.4998 21.8768 21.908 21.285C21.0824 20.4595 20.5047 20.4523 19.4844 20.3176C18.9884 20.2504 18.6376 19.7933 18.7049 19.2938C18.7934 18.6346 18.5631 17.9544 18.0919 17.4795C17.7021 17.0898 17.1635 16.8488 16.5683 16.8488C16.1076 16.8488 15.7355 16.9693 15.3529 17.2209C14.9347 17.4973 14.3714 17.3839 14.095 16.9658C13.6911 16.3599 13.1419 15.8603 12.5005 15.513C11.884 15.1835 11.1719 14.9956 10.4136 14.9956C9.19112 14.9956 8.08925 15.4918 7.2885 16.289C6.48762 17.0898 5.99512 18.1953 5.99512 19.4178C5.99512 19.9173 5.58413 20.3284 5.0845 20.3284C4.18812 20.3284 3.37313 20.6933 2.78137 21.285C2.18975 21.8766 1.82113 22.6916 1.82113 23.5881C1.82113 24.4846 2.18962 25.2995 2.78137 25.8914C3.37313 26.483 4.18812 26.848 5.0845 26.848H6.82438V26.8479ZM9.542 45.142C9.79 44.7063 10.3464 44.5574 10.7786 44.8054C10.9275 44.8905 11.0409 45.011 11.1187 45.1491L14.0739 50.2693C18.2939 42.963 22.5104 35.6601 26.7304 28.3539C26.9784 27.9216 27.5311 27.7693 27.967 28.0209C28.3992 28.2689 28.5516 28.8253 28.3001 29.2575L26.277 32.7654L32.0773 36.8684L37.8775 32.7654L32.0773 22.7165L30.4261 25.5759C30.1781 26.0116 29.6219 26.1606 29.1896 25.9125C28.7537 25.6609 28.605 25.1081 28.853 24.6723L31.1667 20.6648V11.5019V2.09788C31.1667 1.59476 31.5742 1.18726 32.0774 1.18726H49.7051C50.2082 1.18726 50.6157 1.59476 50.6157 2.09788V5.88913H58.5173C59.0202 5.88913 59.4277 6.29663 59.4277 6.79976C59.4277 7.03363 59.3392 7.24626 59.1939 7.40926L56.1147 11.5018L59.2435 15.658C59.5446 16.0584 59.4631 16.6254 59.0629 16.9265C58.9034 17.0435 58.7156 17.1108 58.5173 17.1108H40.8926C40.3895 17.1108 39.982 16.7033 39.982 16.2001V12.4125H32.9876V20.6613C37.5194 28.5096 42.0512 36.3546 46.5795 44.203L49.4637 39.2105C49.7118 38.7748 50.2681 38.6259 50.7004 38.874C50.8491 38.959 50.9625 39.0794 51.0405 39.2176C55.3171 46.6266 59.5974 54.0393 63.8776 61.4484C64.1292 61.8806 63.9804 62.437 63.5445 62.6886C63.4027 62.7736 63.2469 62.8126 63.091 62.8126C42.363 62.8126 21.6385 62.8126 0.9105 62.8126C0.4075 62.8125 0 62.4049 0 61.9019C0 61.714 0.05675 61.5404 0.156 61.3951C3.28462 55.9774 6.41325 50.5598 9.542 45.142ZM46.824 47.4096L50.2504 49.8333L53.6768 47.4096L50.2504 41.4746C49.1059 43.4554 47.965 45.4325 46.824 47.4096ZM41.8032 12.4125V15.2896H56.6955L54.2649 12.0581C54.0204 11.7429 54.0026 11.2928 54.2542 10.9563L56.6955 7.71051H50.6152V11.5019C50.6152 12.005 50.2077 12.4125 49.7046 12.4125H41.8032ZM32.9876 10.5913H40.8926H48.794V3.00851H32.9876V10.5913Z" fill="#212121"/>
</g>
<defs>
<clipPath id="clip0">
<rect width="64" height="64" fill="white"/>
</clipPath>
</defs>
</svg>
