<svg width="64" height="64" viewBox="0 0 64 64" fill="none" xmlns="http://www.w3.org/2000/svg">
<g clip-path="url(#clip0)">
<path d="M62.7181 1.25024C62.7181 1.25024 62.4768 7.97898 59.6806 15.8902L48.0781 4.28774C55.9894 1.49149 62.7181 1.25024 62.7181 1.25024Z" fill="#F8F8F5"/>
<path d="M48.0795 4.2876L59.682 15.8901C57.8645 21.0376 54.9632 26.6851 50.3457 31.3025C46.0906 35.5577 40.9716 38.9638 35.6195 41.325L22.6445 28.35C24.2245 24.7688 26.4295 20.9476 29.3433 17.3288C30.3633 16.0626 31.4695 14.8213 32.667 13.6238C37.2845 9.00634 42.932 6.10509 48.0795 4.2876Z" fill="#F8F8F5"/>
<path d="M48.5766 15.3926C50.5291 17.3451 50.5291 20.5113 48.5766 22.4638C46.6241 24.4163 43.4591 24.4163 41.5054 22.4638C39.5529 20.5101 39.5529 17.3451 41.5054 15.3926C43.4579 13.4401 46.6241 13.4401 48.5766 15.3926Z" fill="#FF8838"/>
<path d="M46.8093 34.8375C53.2518 44.5012 41.1918 50.7474 34.4355 50.7474C37.9705 47.2124 36.938 42.6437 36.938 42.6437L35.6193 41.325C39.2005 39.745 43.0218 37.54 46.6405 34.6262L46.8093 34.8375Z" fill="#F8F8F5"/>
<path d="M21.1935 37.5051L20.991 37.3026C20.3935 36.7038 20.0998 35.8363 20.3098 35.0163C20.831 32.9863 21.601 30.7213 22.646 28.3501L35.621 41.3251C33.2497 42.3701 30.9848 43.1401 28.9548 43.6613C28.1348 43.8713 27.2673 43.5776 26.6685 42.9801L26.466 42.7776L21.1935 37.5051Z" fill="#F8F8F5"/>
<path d="M29.1326 17.1601L29.3439 17.3289C26.4301 20.9476 24.2251 24.7688 22.6451 28.3501L21.3264 27.0313C21.3264 27.0313 16.7576 25.9988 13.2227 29.5338C13.2227 22.7776 19.4689 10.7176 29.1326 17.1601Z" fill="#F8F8F5"/>
<path d="M21.1926 37.5051L26.4651 42.7776C26.0864 44.2764 25.1876 45.8539 23.8289 47.2126C20.9001 50.1414 13.2227 50.7476 13.2227 50.7476C13.2227 50.7476 13.8289 43.0701 16.7576 40.1414C18.1164 38.7826 19.6939 37.8839 21.1926 37.5051Z" fill="#F8F8F5"/>
<path d="M33.5816 32.1863C34.0691 31.6976 34.0691 30.9063 33.5816 30.4188C33.0929 29.9301 32.3016 29.9301 31.8129 30.4188C31.3254 30.9063 31.3254 31.6976 31.8129 32.1863C32.3016 32.6738 33.0929 32.6738 33.5816 32.1863Z" fill="#212121"/>
<path d="M49.4904 23.3478C51.9327 20.9056 51.9332 16.9514 49.4904 14.5088C47.0479 12.0665 43.0939 12.0663 40.6513 14.5088C38.2152 16.9449 38.2151 20.9099 40.6517 23.3481C43.0887 25.7836 47.0537 25.7846 49.4904 23.3478ZM42.4192 16.2766C43.8846 14.8112 46.257 14.811 47.7227 16.2766C49.188 17.7418 49.1883 20.1144 47.7227 21.5799C46.261 23.0417 43.8818 23.0417 42.4194 21.5802C40.9576 20.1174 40.9574 17.7382 42.4192 16.2766Z" fill="#212121"/>
<path d="M12.774 30.6886C12.9286 30.7527 13.0911 30.7838 13.2521 30.7838C13.5775 30.7838 13.8971 30.6567 14.1362 30.4177C16.6466 27.9073 19.7429 28.0643 20.7544 28.1973L21.1922 28.6351C20.3307 30.6851 19.6367 32.7236 19.1277 34.7062C18.9439 35.4237 19.0059 36.1829 19.2791 36.8774C18.0756 37.4321 16.9144 38.2464 15.9034 39.2574C12.6858 42.4752 12.0325 50.3169 12.0062 50.6492C11.9775 51.0138 12.1097 51.3728 12.3683 51.6314C12.6037 51.8667 12.9221 51.9975 13.2521 51.9975C13.2848 51.9975 13.3177 51.9963 13.3506 51.9937C13.6828 51.9675 21.5248 51.3142 24.7424 48.0965C25.7531 47.0859 26.5673 45.9249 27.1219 44.7217C27.8572 45.0108 28.6139 45.0464 29.2944 44.8721C31.2762 44.3632 33.3144 43.6694 35.3647 42.8078L35.8024 43.2456C35.9353 44.2572 36.0923 47.3535 33.582 49.8637C33.2247 50.2212 33.1177 50.7588 33.3112 51.2258C33.5045 51.6929 33.9603 51.9974 34.4659 51.9974C39.4134 51.9974 46.3303 49.051 48.8778 44.2909C49.9841 42.2238 50.7374 38.9536 48.3351 34.8724C49.3535 34.0117 50.3344 33.1117 51.2596 32.1865C55.3871 28.059 58.6274 22.7161 60.8906 16.3066C63.7181 8.30687 63.9885 1.57738 63.9986 1.29488C64.0111 0.948011 63.8787 0.611636 63.6334 0.366137C63.3879 0.120762 63.0529 -0.0122377 62.7046 0.000887249C62.422 0.0110122 55.6926 0.281512 47.6933 3.10888C41.2833 5.37213 35.9404 8.6125 31.813 12.74C30.8882 13.6649 29.9882 14.6456 29.127 15.6645C25.0461 13.2622 21.7758 14.0155 19.7084 15.1219C14.9483 17.6694 12.002 24.5863 12.002 29.5338C12.0023 30.0393 12.307 30.4952 12.774 30.6886ZM22.9747 46.3287C21.2559 48.0474 17.2241 48.9539 14.6757 49.324C15.0459 46.7755 15.9526 42.7438 17.6712 41.0252C18.6337 40.0627 19.7497 39.3329 20.8714 38.9219L25.0779 43.1284C24.6669 44.2502 23.9373 45.3662 22.9747 46.3287ZM28.6734 42.4503C28.3117 42.5429 27.8927 42.4069 27.5812 42.0959C21.5136 36.0284 29.3024 43.8173 21.9047 36.4194C21.5929 36.1071 21.4569 35.6882 21.5493 35.3271C21.9497 33.7678 22.4733 32.1681 23.1101 30.553L33.4469 40.8898C31.8315 41.5267 30.232 42.0502 28.6734 42.4503ZM46.6739 43.1113C45.0361 46.1712 40.9126 48.4267 37.1549 49.203C38.353 46.9484 38.6172 44.0783 38.1794 42.3379C38.0778 41.9337 37.814 41.7304 37.7993 41.7066C40.8284 40.2394 43.697 38.4793 46.36 36.4547C47.6609 38.8314 47.768 41.0668 46.6739 43.1113ZM59.1635 13.5734L50.4265 4.83638C55.1866 3.35788 59.3277 2.80426 61.3947 2.60526C61.1956 4.67263 60.6419 8.81375 59.1635 13.5734ZM33.5813 14.5077C37.2844 10.8045 42.0636 7.85725 47.7901 5.73575L58.2641 16.2097C56.1429 21.9361 53.1956 26.7153 49.4921 30.4187C48.3658 31.545 47.1529 32.6331 45.8871 33.6527C42.8444 36.1027 39.4954 38.1779 35.9224 39.8299L24.1699 28.0777C25.8219 24.5045 27.8972 21.1555 30.3469 18.1131C31.3674 16.8465 32.4554 15.6335 33.5813 14.5077ZM20.8886 17.326C22.9334 16.2317 25.1686 16.339 27.5451 17.6399C25.5204 20.3026 23.7603 23.1713 22.2932 26.2007C22.2746 26.1892 22.0496 25.9063 21.6316 25.8121C21.4597 25.7732 18.1523 25.0618 14.7967 26.8452C15.5732 23.0873 17.8286 18.9637 20.8886 17.326Z" fill="#212121"/>
<path d="M26.511 56.9349L30.046 53.3986C30.534 52.9104 30.5339 52.1189 30.0457 51.6309C29.5574 51.1427 28.7659 51.143 28.2779 51.6311L24.7429 55.1674C24.2549 55.6556 24.255 56.4471 24.7431 56.9351C25.2315 57.4231 26.023 57.4231 26.511 56.9349Z" fill="#212121"/>
<path d="M8.83287 39.2566L12.3691 35.7216C12.8574 35.2336 12.8575 34.4421 12.3695 33.9539C11.8815 33.4656 11.0901 33.4656 10.6017 33.9536L7.0655 37.4886C6.57725 37.9766 6.57713 38.7681 7.06512 39.2563C7.553 39.7443 8.34437 39.7448 8.83287 39.2566Z" fill="#212121"/>
<path d="M19.4392 53.3997L10.9717 61.8659C10.4834 62.354 10.4834 63.1455 10.9715 63.6337C11.4594 64.1218 12.251 64.122 12.7393 63.6338L21.2068 55.1675C21.695 54.6794 21.695 53.8879 21.2069 53.3998C20.719 52.9117 19.9274 52.9117 19.4392 53.3997Z" fill="#212121"/>
<path d="M9.43916 53.3997L0.971671 61.8659C0.483422 62.354 0.483422 63.1455 0.971546 63.6337C1.45942 64.1218 2.25104 64.122 2.73929 63.6338L11.2068 55.1675C11.695 54.6794 11.695 53.8879 11.2069 53.3998C10.7189 52.9117 9.92728 52.9117 9.43916 53.3997Z" fill="#212121"/>
<path d="M2.13395 53.0276L10.6002 44.5601C11.0883 44.0719 11.0883 43.2805 10.6001 42.7923C10.1121 42.3043 9.32044 42.3043 8.83231 42.7924L0.366077 51.2599C-0.122047 51.7481 -0.122047 52.5395 0.366202 53.0277C0.854326 53.5158 1.64582 53.5158 2.13395 53.0276Z" fill="#212121"/>
<path d="M37.1183 28.6502L38.8858 26.8827C39.3739 26.3946 39.3739 25.6031 38.8858 25.1149C38.3976 24.6267 37.6063 24.6267 37.118 25.1149L35.3505 26.8824C34.8623 27.3705 34.8623 28.162 35.3505 28.6502C35.8387 29.1384 36.6301 29.1384 37.1183 28.6502Z" fill="#212121"/>
</g>
<defs>
<clipPath id="clip0">
<rect width="64" height="64" fill="white"/>
</clipPath>
</defs>
</svg>
