<svg width="64" height="64" viewBox="0 0 64 64" fill="none" xmlns="http://www.w3.org/2000/svg">
<path d="M4.375 12.6875H59.625C61.3509 12.6875 62.75 14.0866 62.75 15.8125V48.1875C62.75 49.9134 61.3509 51.3125 59.625 51.3125H4.375C2.64912 51.3125 1.25 49.9134 1.25 48.1875V15.8125C1.25 14.0866 2.64912 12.6875 4.375 12.6875Z" fill="#F8F8F5"/>
<path d="M6.25 25H13.75V30H6.25V25Z" fill="#FF8838"/>
<path d="M59.625 52.5625H4.375C3.20625 52.5625 2.1075 52.1074 1.28125 51.2812C0.455 50.455 0 49.3563 0 48.1875V15.8125C0 14.6437 0.455 13.545 1.28125 12.7188C2.1075 11.8925 3.20625 11.4375 4.375 11.4375H59.625C60.7938 11.4375 61.8925 11.8925 62.7188 12.7188C63.545 13.545 64 14.6437 64 15.8125V31.2763C64 31.9663 63.4388 32.5262 62.75 32.5262C62.0612 32.5262 61.5 31.9663 61.5 31.2763V15.8125C61.4975 14.78 60.6562 13.9388 59.625 13.9375H4.375C3.34375 13.9388 2.5025 14.78 2.5 15.8125V48.1875C2.5025 49.22 3.34375 50.0599 4.375 50.0625H59.625C60.6562 50.0599 61.4975 49.22 61.5 48.1875V42.5262C61.5 41.8375 62.0612 41.2775 62.75 41.2775C63.4388 41.2775 64 41.8375 64 42.5262V48.1875C64 49.3563 63.545 50.455 62.7188 51.2812C61.8925 52.1074 60.7938 52.5625 59.625 52.5625ZM62.75 38.1512C62.0612 38.1512 61.5 37.5912 61.5 36.9012C61.5 36.2125 62.0612 35.6512 62.75 35.6512C63.4388 35.6512 64 36.2125 64 36.9012C64 37.5912 63.4388 38.1512 62.75 38.1512Z" fill="#212121"/>
<path d="M50.75 35.8749C50.4313 35.8749 50.1126 35.7538 49.8688 35.5114C49.3791 35.0247 49.3768 34.2333 49.8635 33.7437C54.0395 29.5428 54.0395 23.2072 49.8635 19.0063C49.3768 18.5167 49.3791 17.7252 49.8688 17.2386C50.3584 16.7517 51.1499 16.7542 51.6365 17.2438C54.1279 19.7499 55.5 22.9928 55.5 26.3749C55.5 29.7571 54.1279 32.9999 51.6365 35.5062C51.3923 35.7519 51.0711 35.8749 50.75 35.8749Z" fill="#FF8838"/>
<path d="M46.8125 32.5951C46.4962 32.5951 46.1797 32.4758 45.9363 32.2366C45.444 31.7527 45.4371 30.9612 45.921 30.4688C48.2898 28.0583 48.2898 24.6914 45.921 22.2809C45.4371 21.7886 45.444 20.9971 45.9363 20.5132C46.4287 20.0294 47.2201 20.0362 47.7041 20.5286C49.3054 22.1583 50.1874 24.2344 50.1874 26.3749C50.1874 28.5155 49.3054 30.5916 47.7039 32.2212C47.4593 32.4702 47.136 32.5951 46.8125 32.5951Z" fill="#FF8838"/>
<path d="M43.25 28.7813C42.9266 28.7813 42.6035 28.6565 42.3589 28.4079C41.8748 27.9156 41.8813 27.1243 42.3734 26.6401C42.5063 26.5094 42.5179 26.4233 42.5508 26.375C42.5179 26.3268 42.5063 26.2406 42.3734 26.1099C41.8813 25.6256 41.8748 24.8343 42.3589 24.3421C42.8431 23.85 43.6345 23.8435 44.1266 24.3276C44.8171 25.0069 45.125 25.6384 45.125 26.375C45.125 27.1116 44.8171 27.7431 44.1266 28.4224C43.8831 28.6618 43.5665 28.7813 43.25 28.7813Z" fill="#FF8838"/>
<path d="M13.75 31.25H6.25C5.55963 31.25 5 30.6904 5 30V25C5 24.3096 5.55963 23.75 6.25 23.75H13.75C14.4404 23.75 15 24.3096 15 25V30C15 30.6904 14.4404 31.25 13.75 31.25ZM7.5 28.75H12.5V26.25H7.5V28.75Z" fill="#212121"/>
<path d="M57.75 41.25H50.25C49.5596 41.25 49 40.6904 49 40C49 39.3096 49.5596 38.75 50.25 38.75H57.75C58.4404 38.75 59 39.3096 59 40C59 40.6904 58.4404 41.25 57.75 41.25ZM43.125 41.25H35.625C34.9346 41.25 34.375 40.6904 34.375 40C34.375 39.3096 34.9346 38.75 35.625 38.75H43.125C43.8154 38.75 44.375 39.3096 44.375 40C44.375 40.6904 43.8154 41.25 43.125 41.25ZM28.5 41.25H21C20.3096 41.25 19.75 40.6904 19.75 40C19.75 39.3096 20.3096 38.75 21 38.75H28.5C29.1904 38.75 29.75 39.3096 29.75 40C29.75 40.6904 29.1904 41.25 28.5 41.25ZM13.75 41.25H6.25C5.55963 41.25 5 40.6904 5 40C5 39.3096 5.55963 38.75 6.25 38.75H13.75C14.4404 38.75 15 39.3096 15 40C15 40.6904 14.4404 41.25 13.75 41.25Z" fill="#212121"/>
</svg>
