<svg width="64" height="64" viewBox="0 0 64 64" fill="none" xmlns="http://www.w3.org/2000/svg">
<path d="M63.0638 32.0002C63.0638 29.6888 61.9034 27.649 60.1334 26.4308C58.9482 25.6149 58.5303 24.0557 59.1489 22.7563C60.0726 20.8162 60.0576 18.4695 58.9019 16.4678C57.7463 14.4662 55.7214 13.2798 53.5794 13.1097C52.1449 12.9957 51.0036 11.8543 50.8896 10.4198C50.7194 8.2778 49.5331 6.25305 47.5314 5.0973C45.5298 3.94167 43.1831 3.92667 41.2429 4.8503C39.9437 5.4688 38.3844 5.05105 37.5686 3.8658C36.3503 2.09592 34.3106 0.935547 31.9992 0.935547C29.6878 0.935547 27.6481 2.09592 26.4297 3.86592C25.6138 5.05117 24.0546 5.46905 22.7553 4.85042C20.8152 3.9268 18.4686 3.9418 16.4668 5.09742C14.4652 6.25305 13.2788 8.27792 13.1087 10.4199C12.9947 11.8544 11.8533 12.9958 10.4188 13.1098C8.27682 13.2799 6.25207 14.4663 5.09632 16.4679C3.9407 18.4695 3.9257 20.8163 4.84932 22.7564C5.46782 24.0557 5.05007 25.6149 3.86482 26.4309C2.09495 27.649 0.93457 29.6888 0.93457 32.0002C0.93457 34.3115 2.09495 36.3513 3.86495 37.5697C5.0502 38.3855 5.46807 39.9448 4.84945 41.244C3.92582 43.1842 3.94082 45.5308 5.09645 47.5325C6.25207 49.5342 8.27695 50.7205 10.4189 50.8907C11.8534 51.0047 12.9948 52.146 13.1088 53.5805C13.2789 55.7225 14.4653 57.7473 16.4669 58.903C18.4686 60.0587 20.8153 60.0737 22.7554 59.15C24.0547 58.5315 25.6139 58.9493 26.4298 60.1347C27.6482 61.9045 29.6879 63.065 31.9993 63.065C34.3107 63.065 36.3504 61.9047 37.5688 60.1347C38.3847 58.9494 39.9439 58.5315 41.2433 59.15C43.1834 60.0737 45.5301 60.0587 47.5318 58.903C49.5334 57.7474 50.7198 55.7225 50.8899 53.5805C51.0039 52.146 52.1453 51.0047 53.5798 50.8907C55.7218 50.7205 57.7466 49.5342 58.9023 47.5325C60.0581 45.5309 60.0729 43.1842 59.1493 41.244C58.5308 39.9448 58.9486 38.3855 60.1338 37.5697C61.9034 36.3513 63.0638 34.3115 63.0638 32.0002Z" fill="#F8F8F5"/>
<path d="M60.1343 26.4301C58.9495 25.6145 58.5318 24.0558 59.1504 22.7563C60.0733 20.8159 60.0583 18.4689 58.9035 16.4673C57.8473 14.639 56.0664 13.4905 54.1335 13.1763C55.0464 13.7436 55.8358 14.538 56.4094 15.5319C56.7959 16.2015 57.0648 16.938 57.2036 17.6985C57.4695 19.1553 57.1794 20.5609 56.6144 21.9155C56.4909 22.2116 56.4035 22.5159 56.3304 22.8278C55.9703 24.3619 56.7333 26.1219 57.88 27.1796C58.4568 27.7116 59.0685 28.2135 59.5761 28.8151C60.3919 29.7819 60.6795 30.8684 60.491 32.1286C60.2211 33.9331 59.1364 35.604 57.6404 36.6339C56.4556 37.4495 56.0379 39.0095 56.6565 40.309C57.5794 42.2483 57.5644 44.5953 56.4096 46.5968C54.8825 49.2436 51.425 48.1516 49.5358 50.0919C48.8709 50.7746 48.4723 51.698 48.3973 52.6453C48.3039 53.8245 47.8935 54.9796 47.2248 55.9518C46.8365 56.5159 46.2765 56.9353 45.6476 57.1975C44.3014 57.7591 42.7586 57.3143 41.4005 57.043C39.8226 56.7279 38.2569 56.7488 36.8361 57.5776C36.142 57.9826 35.5321 58.5355 35.0761 59.1984C33.8578 60.9693 31.8175 62.129 29.5068 62.129C29.1389 62.129 28.7785 62.0991 28.4268 62.043C29.4643 62.6903 30.689 63.0644 32.0009 63.0644C34.3118 63.0644 36.3519 61.9046 37.5703 60.1338C38.3859 58.949 39.9459 58.5313 41.2441 59.1498C43.1846 60.0739 45.5316 60.0589 47.5331 58.9029C49.5346 57.7469 50.7206 55.7229 50.8915 53.5804C51.005 52.1463 52.146 51.0039 53.5815 50.8904C55.7228 50.7208 57.748 49.5336 58.904 47.532C60.0588 45.5305 60.0738 43.1834 59.1509 41.2443C58.5324 39.9448 58.9501 38.3848 60.1348 37.5691C61.9056 36.3508 63.0654 34.3118 63.0654 31.9996C63.0649 29.6888 61.9051 27.6486 60.1343 26.4301Z" fill="#F8F8F5"/>
<path d="M32.0004 53.5652C43.9265 53.5652 53.5945 43.8972 53.5945 31.9711C53.5945 20.045 43.9265 10.377 32.0004 10.377C20.0743 10.377 10.4062 20.045 10.4062 31.9711C10.4062 43.8972 20.0743 53.5652 32.0004 53.5652Z" fill="#F8F8F5"/>
<path d="M53.5949 31.9711C53.5949 43.8969 43.9264 53.5655 32.0006 53.5655C28.1658 53.5655 24.5668 52.5666 21.4453 50.8145C23.9269 51.8096 26.6382 52.3571 29.4752 52.3571C41.4009 52.3571 51.0696 42.6897 51.0696 30.764C51.0696 22.668 46.6151 15.6132 40.0229 11.917C47.9768 15.1007 53.5949 22.88 53.5949 31.9711Z" fill="#F8F8F5"/>
<path d="M28.743 42.4873C28.7361 42.4873 28.7296 42.4873 28.7228 42.4871C27.8131 42.4814 26.9506 42.0812 26.3585 41.3905L20.0685 34.052C18.9399 32.7353 19.0924 30.7528 20.4091 29.624C21.7259 28.4951 23.7084 28.6479 24.8371 29.9646L28.7735 34.5571L39.1891 22.5214C40.3346 21.219 42.319 21.0921 43.6211 22.2375C44.9234 23.383 45.0505 25.3674 43.905 26.6695L31.1008 41.4207C30.5044 42.099 29.6453 42.4873 28.743 42.4873Z" fill="#FF8838"/>
<path d="M43.9054 26.6701L31.1017 41.4217C30.5056 42.0989 29.6463 42.488 28.7434 42.488C28.7372 42.488 28.7309 42.488 28.7234 42.4867C27.8143 42.4817 26.9513 42.0815 26.3589 41.3906L25.7217 40.6474C25.9474 40.701 26.1806 40.7296 26.4176 40.7309H26.4376C27.3404 40.7309 28.1997 40.343 28.7958 39.6646L41.6008 24.913C42.4526 23.944 42.5997 22.5985 42.0834 21.501C42.6359 21.5957 43.1709 21.8402 43.6223 22.238C44.9242 23.3827 45.0514 25.3681 43.9054 26.6701Z" fill="#FF8838"/>
<path d="M60.6646 38.3399C62.7531 36.9022 64 34.5321 64 32C64 29.4679 62.7531 27.0978 60.6647 25.6601C59.8524 25.1009 59.5704 24.0486 59.9944 23.1581C61.0841 20.869 60.979 18.193 59.7129 16C58.4468 13.8071 56.182 12.378 53.6545 12.1771C52.6714 12.099 51.901 11.3287 51.8229 10.3456C51.6221 7.81812 50.193 5.55338 48 4.28725C45.807 3.02113 43.131 2.91588 40.8419 4.00575C39.9509 4.42975 38.899 4.14762 38.3399 3.33538C36.9022 1.24688 34.5322 0 32 0C29.4678 0 27.0978 1.24687 25.6601 3.33525C25.1009 4.14775 24.0487 4.42962 23.1581 4.00562C20.869 2.91587 18.193 3.02113 16 4.28713C13.807 5.55325 12.378 7.81812 12.1771 10.3455C12.099 11.3287 11.3287 12.099 10.3455 12.1771C7.818 12.378 5.55325 13.8071 4.28713 16C3.021 18.193 2.91587 20.869 4.00562 23.1581C4.42962 24.0486 4.14762 25.1009 3.33538 25.6601C1.24688 27.0978 0 29.4678 0 32C0 34.5322 1.24688 36.9022 3.33538 38.3399C4.14775 38.8991 4.42962 39.9514 4.00562 40.8419C2.91587 43.131 3.021 45.807 4.28713 48C5.55325 50.193 7.81812 51.6221 10.3455 51.8229C11.3286 51.901 12.099 52.6712 12.1771 53.6544C12.2732 54.8637 12.6589 56.0486 13.2924 57.0809C13.5625 57.5211 14.1385 57.659 14.5787 57.3887C15.019 57.1186 15.1568 56.5426 14.8866 56.1024C14.4068 55.3205 14.1146 54.4229 14.0419 53.5062C13.8905 51.6016 12.3982 50.1094 10.4936 49.9581C8.58 49.8061 6.86538 48.7245 5.90712 47.0648C4.94887 45.405 4.8695 43.3792 5.69462 41.646C6.51587 39.9209 5.96975 37.8825 4.39587 36.7991C2.81463 35.7105 1.87063 33.9165 1.87063 32C1.87063 30.0835 2.81475 28.2895 4.39612 27.201C5.96987 26.1176 6.516 24.0791 5.69475 22.3541C4.8695 20.6207 4.949 18.5951 5.90725 16.9354C6.8655 15.2756 8.58012 14.194 10.4937 14.042C12.3984 13.8907 13.8906 12.3985 14.042 10.4937C14.194 8.58012 15.2756 6.8655 16.9354 5.90725C18.5951 4.94887 20.6207 4.86963 22.3541 5.69475C24.079 6.51587 26.1178 5.96987 27.201 4.396C28.2895 2.81475 30.0836 1.87063 32 1.87063C33.9164 1.87063 35.7105 2.81462 36.799 4.396C37.8824 5.96987 39.9207 6.516 41.6459 5.69475C43.3792 4.8695 45.405 4.94887 47.0646 5.90725C48.7244 6.8655 49.806 8.58012 49.958 10.4939C50.1094 12.3985 51.6016 13.8907 53.5062 14.042C55.42 14.194 57.1346 15.2756 58.0929 16.9354C59.0511 18.5951 59.1305 20.6209 58.3054 22.3541C57.4841 24.0791 58.0304 26.1176 59.6041 27.201C61.1855 28.2895 62.1295 30.0835 62.1295 32C62.1295 33.9165 61.1854 35.7105 59.6041 36.7991C58.0303 37.8825 57.4841 39.9209 58.3054 41.646C59.1306 43.3792 59.0511 45.405 58.0929 47.0648C57.1346 48.7245 55.42 49.8061 53.5064 49.9581C51.6017 50.1094 50.1095 51.6016 49.9581 53.5064C49.8061 55.42 48.7245 57.1346 47.0648 58.0929C45.4051 59.0511 43.3792 59.1306 41.646 58.3054C39.921 57.484 37.8824 58.0304 36.7991 59.6041C35.7106 61.1854 33.9166 62.1295 32.0001 62.1295C30.0836 62.1295 28.2895 61.1855 27.2011 59.6041C26.1177 58.0303 24.0793 57.4841 22.3542 58.3054C20.9169 58.9896 19.245 59.0571 17.768 58.4902C17.2861 58.3052 16.7447 58.546 16.5597 59.0284C16.3746 59.5106 16.6156 60.0516 17.0979 60.2366C19.0511 60.9863 21.2603 60.898 23.1584 59.9944C24.0491 59.5704 25.1011 59.8524 25.6604 60.6647C27.0976 62.7531 29.4678 64 32 64C34.5322 64 36.9024 62.7531 38.3399 60.6647C38.899 59.8522 39.9514 59.5704 40.8419 59.9944C43.1312 61.0842 45.8073 60.979 48.0001 59.7129C50.1931 58.4468 51.6221 56.1819 51.823 53.6545C51.9011 52.6712 52.6714 51.901 53.6546 51.8229C56.1821 51.6221 58.447 50.193 59.713 48C60.9791 45.807 61.0842 43.1311 59.9945 40.8419C59.5704 39.9514 59.8522 38.8991 60.6646 38.3399Z" fill="#212121"/>
<path d="M54.5294 31.9708C54.5294 19.548 44.4228 9.44141 32.0001 9.44141C19.5773 9.44141 9.4707 19.548 9.4707 31.9708C9.4707 44.3935 19.5773 54.5003 32.0001 54.5003C44.4228 54.5003 54.5294 44.3935 54.5294 31.9708ZM11.3413 31.9708C11.3413 20.5795 20.6088 11.3119 32.0001 11.3119C43.3913 11.3119 52.6588 20.5794 52.6588 31.9708C52.6588 43.3622 43.3913 52.6297 32.0001 52.6297C20.6088 52.6297 11.3413 43.3622 11.3413 31.9708Z" fill="#212121"/>
<path d="M44.2388 21.5354C42.5514 20.0513 39.971 20.2164 38.4817 21.9096L35.3876 25.4849C35.0496 25.8756 35.0922 26.4662 35.4829 26.8042C35.8734 27.1422 36.4641 27.0996 36.8021 26.7089L39.8912 23.1392C40.6944 22.2263 42.0904 22.1369 43.0033 22.9399C43.9163 23.7429 44.0056 25.1389 43.1985 26.0566L30.3985 40.8033C29.9799 41.2792 29.3764 41.5521 28.7429 41.5521H28.7285C28.0895 41.5481 27.4845 41.2673 27.0685 40.7821L20.7785 33.4436C20.3951 32.9964 20.209 32.4268 20.2541 31.8396C20.2992 31.2523 20.5705 30.7178 21.0177 30.3344C21.4649 29.9511 22.0345 29.7648 22.6217 29.8101C23.209 29.8553 23.7435 30.1264 24.1269 30.5737L28.0632 35.1662C28.2405 35.3729 28.4989 35.4921 28.7712 35.4928H28.7735C29.045 35.4928 29.3031 35.3749 29.4807 35.1696L33.9485 30.0068C34.2865 29.6162 34.2439 29.0256 33.8532 28.6876C33.4627 28.3496 32.872 28.3922 32.534 28.7828L28.777 33.1243L25.5474 29.3563C24.8389 28.5298 23.8509 28.0286 22.7655 27.9451C21.6797 27.8617 20.6271 28.2057 19.8005 28.9142C18.9739 29.6227 18.4727 30.6107 18.3892 31.6961C18.3057 32.7816 18.65 33.8344 19.3585 34.6609L25.6485 41.9994C26.4172 42.8964 27.5356 43.4152 28.7145 43.4226L28.7431 43.4227C29.9142 43.4227 31.0296 42.9183 31.8074 42.0343L44.6075 27.2877C46.0915 25.6002 45.9263 23.0197 44.2388 21.5354Z" fill="#212121"/>
</svg>
