<svg width="335" height="254" viewBox="0 0 335 254" fill="none" xmlns="http://www.w3.org/2000/svg">
<path d="M145.118 44.1543C145.132 44.6489 145.28 45.1132 145.435 45.5793C145.615 46.1201 143.792 46.6483 143.6 46.0701C143.445 45.6046 143.297 45.1404 143.284 44.6451C143.266 43.9954 145.105 43.6559 145.118 44.1543ZM140.174 50.11C140.843 50.7547 141.707 50.9992 142.62 50.8092C142.938 50.7427 143.543 50.6268 143.685 50.2696C143.82 49.9295 143.065 49.9954 142.933 50.0233C142.907 50.0283 142.895 50.0327 142.88 50.0365C142.866 50.034 142.858 50.0321 142.837 50.0302C142.731 50.0201 142.607 49.965 142.512 49.9188C142.281 49.8035 142.08 49.6325 141.895 49.4552C141.513 49.0878 139.817 49.7668 140.174 50.11ZM143.492 40.4076C142.424 40.4317 141.313 40.9656 140.791 41.9225C140.569 42.3304 140.985 42.6458 141.349 42.6882C141.802 42.742 142.32 42.54 142.545 42.1277C142.737 41.7743 142.997 41.7496 143.327 41.7427C143.727 41.7332 144.284 41.4456 144.339 41.0042C144.397 40.5292 143.848 40.3994 143.492 40.4076ZM222.858 252.568C223.147 253.133 221.36 253.718 221.023 253.059C218.786 248.696 215.498 245.058 213.207 240.778C211.398 237.397 210.692 233.811 209.735 230.136C208.566 225.645 206.82 221.804 204.151 217.989C202 214.915 199.613 211.854 198.172 208.358C194.704 199.95 196.049 192.539 200.394 184.803C202.028 181.893 204.032 178.738 204.47 175.365C205.03 171.041 202.587 168.475 198.837 166.719C198.048 166.349 199.707 165.542 200.283 165.799C199.355 160.508 191.381 160.656 185.435 161.292C185.384 161.788 185.337 162.283 185.285 162.78C185.215 163.454 183.36 163.785 183.444 162.986C183.495 162.494 183.542 162 183.593 161.508C182.927 161.592 182.308 161.675 181.751 161.748C181.753 162.095 181.73 162.451 181.688 162.814C181.615 163.437 180.536 163.734 180.055 163.442C175.376 163.738 170.699 164.033 166.02 164.328C165.728 164.346 165.382 164.394 165.018 164.434C157.432 166.539 150.201 167.886 144.118 173.387C139.064 177.957 134.126 182.029 128.038 185.196C120.788 188.966 113.314 191.748 105.598 193.876C105.553 193.983 105.515 194.085 105.462 194.194C105.223 194.683 103.481 194.837 103.647 194.498C103.666 194.459 103.677 194.424 103.694 194.386C99.7526 195.415 95.7476 196.282 91.6772 197.031C91.5094 197.186 91.265 197.297 90.9648 197.298C83.802 197.306 76.187 197.184 69.3541 199.65C61.7265 202.405 57.2179 207.935 52.4997 214.204C47.9183 220.291 42.0361 223.586 35.9246 227.87C28.3958 233.145 23.1734 240.338 18.0417 247.834C17.618 248.454 15.744 248.467 16.2963 247.66C21.3109 240.334 26.4724 232.875 33.8461 227.708C37.2248 225.34 40.9018 223.41 44.1355 220.829C47.6428 218.029 50.0678 214.764 52.7176 211.191C56.9298 205.512 62.2344 200.738 69.0369 198.463C72.7158 197.232 76.5208 196.626 80.3643 196.324C79.7234 194.859 80.2997 192.58 80.5512 191.26C81.061 188.586 81.8058 185.937 82.1066 183.227C82.1123 183.178 82.1243 183.131 82.1427 183.085C83.8558 172.941 85.7311 162.397 90.8552 153.361C96.5044 143.399 101.482 133.117 103.709 121.843C103.525 121.816 103.342 121.747 103.167 121.616C102.712 121.274 102.406 120.785 102.157 120.259C101.058 121.988 99.5329 123.232 97.2403 122.602C96.3866 123.226 95.2833 123.585 94.3555 123.215C93.3695 123.917 92.2048 123.829 91.4784 122.515C91.4771 122.513 91.4752 122.51 91.474 122.507C91.4511 122.466 91.4265 122.429 91.4043 122.385C91.3473 122.271 91.353 122.162 91.3973 122.061C91.4036 120.262 91.8698 118.657 92.6063 117.17C92.5386 117.157 92.4961 117.137 92.498 117.107C92.7482 113.067 91.0186 110.816 87.1763 109.746C84.2314 108.926 81.2269 108.305 79.0622 105.972C75.9438 102.61 77.8032 97.4788 77.712 93.4395C77.6493 90.6504 77.066 88.3711 75.1047 86.3147C73.6898 84.8309 72.097 83.456 70.8538 81.8176C68.2712 78.4135 67.4555 74.4812 66.7519 70.3615C66.2281 67.2944 65.546 63.1848 61.8171 62.5838C50.1767 60.7066 44.969 72.5933 43.7125 82.0019C43.6561 82.4249 42.2445 82.7808 41.9278 82.5503C36.7428 78.7732 29.2697 74.9011 23.3628 79.4838C18.6275 83.157 15.9828 89.069 14.1607 94.6251C9.84404 107.787 8.60655 122.087 8.56791 135.885C33.7131 135.885 58.8576 135.885 84.0027 135.885C85.2428 135.885 83.9514 136.901 83.282 136.901C55.7341 136.901 28.1861 136.901 0.638805 136.901C-0.601227 136.901 0.690104 135.885 1.35952 135.885C3.1518 135.885 4.94408 135.885 6.73637 135.885C6.79716 120.713 7.96753 103.909 14.2855 89.9531C16.7244 84.5662 20.2317 79.3419 26.0848 77.3901C31.7656 75.4958 37.3768 77.7289 42.126 80.8803C43.4655 73.1348 47.216 64.4749 55.5162 62.4831C58.5245 61.7611 63.7423 60.6439 66.1793 63.3355C68.6765 66.093 68.4922 70.3438 69.3079 73.7738C69.8722 76.1481 70.6613 78.6516 72.1572 80.6231C73.8741 82.8866 76.2554 84.62 77.8874 86.9329C81.4606 91.9981 77.365 97.9766 79.536 103.191C81.3143 107.461 85.3884 107.999 89.3143 109.258C92.3017 110.216 93.8869 111.835 94.2656 114.492C95.1212 113.327 96.0851 112.213 97.0446 111.108C97.1301 111.01 97.2485 110.937 97.3815 110.882C97.3112 110.82 97.2358 110.761 97.1693 110.695C92.6456 106.3 98.474 100.524 100.059 96.0754C100.127 95.8848 100.352 95.7302 100.623 95.6264C95.7362 91.0925 102.665 83.0988 103.809 78.0468C103.796 78.0468 103.782 78.0455 103.768 78.0455C103.565 78.0462 103.18 78.0259 103.231 77.7314C104.116 72.6522 104.418 66.0683 108.565 62.3735C111.041 60.1664 113.464 60.2697 116.257 60.4014C115.107 59.5686 114.647 58.3735 115.834 56.6629C118.503 52.8162 124.439 52.4539 128.521 53.9428C131.607 55.0682 134.287 56.8751 136.942 58.7313C136.898 58.6009 136.935 58.4362 137.104 58.2367C138.869 56.1512 140.187 54.3564 143.109 54.1411C144.7 54.0239 147.754 54.9156 148.002 52.5394C148.117 51.4381 148.033 50.3304 148.022 49.2253C148.018 48.7915 148.573 48.5071 149.078 48.4913C149.111 48.4659 149.146 48.4438 149.179 48.426C149.615 48.1987 150.235 47.7161 150.177 47.1436C150.113 46.5204 149.681 46.5938 149.224 46.7294C148.995 46.7965 148.363 46.8934 148.216 46.5907C148.133 46.5425 148.068 46.4761 148.033 46.3861C147.118 43.9789 146.735 41.438 146.133 38.9447C146.084 38.7445 146.217 38.5615 146.429 38.4203C144.773 38.1682 143.104 37.5761 141.563 36.9909C140.802 38.4412 139.318 39.2195 137.748 39.8414C137.725 39.8598 137.703 39.8763 137.681 39.8927C138.467 42.2506 138.455 44.0929 137.153 46.3722C137.108 46.4507 137.04 46.5204 136.955 46.5812C136.985 46.6692 137.021 46.7477 137.043 46.8446C137.178 47.4254 135.338 47.8959 135.208 47.3355C135.197 47.2899 135.183 47.2424 135.171 47.1949L135.106 47.2481C135.106 47.2481 134.966 46.231 133.655 46.654C133.507 46.8579 133.392 47.0872 133.33 47.2886C133.11 48.0055 133.172 48.7978 133.572 49.4463C133.699 49.6534 133.884 49.8909 134.102 50.0397C134.159 49.9504 134.212 49.8592 134.261 49.7547C134.438 49.383 134.939 49.2272 135.315 49.1733C135.453 49.1537 136.262 49.1271 136.088 49.4925C135.731 50.243 135.025 50.8497 134.228 51.0562C134.214 51.0765 134.206 51.0961 134.189 51.1176C133.285 52.3158 132.339 53.3247 131.177 54.2646C130.885 54.5008 129.757 54.7522 129.665 54.1449C129.084 50.3247 126.206 49.1442 124.362 46.1132C123.016 43.9016 122.436 41.0105 123.178 38.5191C124.267 34.8642 128.48 33.8591 131.862 34.3937C133.29 30.7534 136.807 29.3746 140.731 30.0111C142.224 30.253 142.798 30.7553 144.238 29.7844C145.057 29.2321 146.015 28.4563 147.006 28.2144C148.456 27.8604 150.175 27.7508 151.467 28.6913C154.035 30.5634 155.05 34.7211 152.359 37.0175C151.042 38.1416 149.543 38.5482 147.988 38.5463C148.562 40.9396 148.946 43.3753 149.796 45.6933C150.694 45.5584 151.831 45.6014 151.994 46.5248C152.182 47.5926 151.144 48.4837 150.305 48.9213C150.178 48.9871 150.03 49.0441 149.878 49.0923C149.901 51.0473 150.347 53.6724 148.266 54.7744C146.991 55.4495 145.584 55.5888 144.159 55.5002C141.18 55.3171 140.291 56.7839 138.631 58.7434C138.373 59.0474 137.809 59.1417 137.399 59.0505C139.539 60.5502 141.677 62.0607 144.014 63.2488C144.351 63.4204 144.327 63.6611 144.131 63.8751C148.179 64.618 151.902 66.3951 155.617 68.3691C158.473 69.8859 161.423 71.7472 164.645 72.3223C167.914 72.9062 171.214 72.9208 174.519 72.6719C177.448 72.4508 182.186 70.9778 184.086 74.2159C184.27 74.5306 184.431 74.8676 184.581 75.2134C185.533 73.6611 187.063 72.5294 188.625 71.5306C188.954 71.3204 189.784 71.0601 190.064 71.5091C190.272 71.8416 191.055 73.6541 191.597 74.2121C192.428 64.8992 193.119 55.5711 193.689 46.2373C192.968 46.3108 192.179 45.8199 192.994 45.2544C193.224 45.0948 193.456 44.9428 193.687 44.7914C193.717 44.7724 193.747 44.7515 193.777 44.7319C193.815 44.0967 193.85 43.4615 193.887 42.8269C194.208 37.2803 194.491 31.7325 194.734 26.1834C194.155 26.2606 193.571 26.1688 194.063 25.7369C194.301 25.5272 194.541 25.3341 194.782 25.1498C194.889 22.6463 194.991 20.1422 195.084 17.638C195.104 17.0947 196.93 16.8584 196.918 17.146C196.834 19.4284 196.742 21.7103 196.645 23.9921C200.031 22.3417 203.505 23.1131 206.561 26.2372C210.134 29.8883 214.754 37.9871 220.598 34.0225C220.625 33.9712 220.653 33.9168 220.679 33.8655C221.043 33.1682 222.905 33.1473 222.429 34.0574C220.243 38.236 216.433 46.7047 210.297 45.3342C208.338 44.8966 206.636 43.7509 204.704 43.2265C201.38 42.3234 198.341 43.4564 195.557 45.1746C194.971 54.8472 194.258 64.5129 193.393 74.1633C194.29 74.0322 195.183 73.9271 196.108 74.005C197.136 74.0924 198.298 74.5408 198.602 75.601C198.722 76.0177 198.556 76.4249 198.266 76.7935C198.332 76.8619 198.373 76.9505 198.371 77.0671C198.351 78.1792 198.076 79.2659 197.49 80.1912C197.505 80.228 197.519 80.2647 197.525 80.3084C197.749 81.8473 197.116 82.955 195.947 83.9176C195.88 83.9727 195.804 84.0139 195.725 84.0487C195.673 84.1152 195.604 84.1855 195.503 84.2603C194.409 85.0734 193.272 85.5928 192.102 85.9151C189.938 110.614 188.085 135.34 185.564 160.006C192.165 159.324 201.385 159.171 202.169 165.594C202.215 165.972 201.89 166.27 201.5 166.419C203.853 167.71 206.098 169.606 206.364 172.434C206.641 175.373 205.627 178.156 204.326 180.753C202.302 184.79 199.535 188.477 198.53 192.959C197.454 197.762 197.757 202.415 199.636 206.971C201.433 211.329 204.362 214.876 206.894 218.796C209.099 222.208 210.59 225.697 211.57 229.647C212.608 233.839 213.381 238.34 216.034 241.893C218.58 245.298 220.916 248.779 222.858 252.568ZM195.647 43.6242C199.508 41.5717 203.55 40.8946 207.908 42.8111C209.468 43.4969 211.535 44.7534 213.249 43.8712C216.309 42.2955 218.266 38.5919 219.87 35.4431C219.877 35.4298 219.884 35.4158 219.891 35.4025C219.359 35.6185 218.831 35.773 218.307 35.8731C215.24 36.4595 212.337 35.1156 209.746 32.362C206.17 28.5615 202.025 21.614 196.596 25.0991C196.328 31.2765 196.012 37.4513 195.647 43.6242ZM185.209 77.1608C185.557 78.67 185.647 80.2729 185.492 81.7188C185.359 82.9651 184.955 83.9924 184.357 84.8385C187.845 85.2559 191.302 85.8556 194.335 83.6016C194.363 83.5807 194.396 83.5624 194.428 83.5446C194.45 83.4091 194.542 83.259 194.735 83.0994C195.366 82.5801 195.709 81.9898 195.716 81.233C195.324 81.1862 195.081 80.9873 195.445 80.5972C196.039 79.9626 196.332 79.1007 196.457 78.2337C195.728 78.5737 194.39 78.0905 195.379 77.442C197.001 76.378 196.55 74.9828 194.562 75.1925C193.98 75.2545 193.406 75.3419 192.828 75.4369C192.163 75.5452 191.451 75.7143 190.777 75.5763C189.772 75.3698 189.213 74.0018 188.736 72.9828C187.397 73.9214 186.172 75.0386 185.711 76.6662C185.652 76.8764 185.454 77.0443 185.209 77.1608ZM117.482 91.0602C117.237 93.4763 116.966 101.787 121.839 99.2445C125.762 97.1976 126.427 90.9367 126.963 87.0538C127.452 83.5111 127.522 79.7606 128.517 76.3096C128.439 76.3166 128.364 76.3299 128.285 76.3337C126.682 76.411 125.549 75.9936 124.809 75.2773C124.708 75.2906 124.605 75.2906 124.505 75.271C123.763 75.1234 123.04 75.0082 122.304 75.0031C122.308 75.0861 122.311 75.1703 122.318 75.2501C122.426 76.4984 123.736 79.7485 122.544 80.8043C121.738 81.5186 120.593 81.5845 119.496 81.4845C118.594 84.613 117.81 87.8208 117.482 91.0602ZM128.839 75.0626C133.417 74.4901 134.513 65.162 129.023 65.9537C125.328 67.226 123.421 75.7403 128.839 75.0626ZM128.021 65.0531C124.676 65.7079 122.641 70.3159 122.334 73.7333C122.867 73.7124 123.395 73.7466 123.923 73.8125C123.005 70.9752 124.944 66.5781 128.021 65.0531ZM168.22 86.9373C171.684 87.6821 175.69 88.3433 179.168 87.342C182.744 86.3135 183.797 83.6871 183.643 80.2793C183.512 77.3749 182.703 72.5534 178.716 72.9499C174.232 73.3958 169.752 73.7966 165.252 73.3521C157.223 72.5598 151.075 66.6015 143.382 64.7757C143.288 64.8289 143.179 64.8745 143.045 64.9062C139.879 65.6446 137.342 63.6978 134.213 63.2994C133.045 63.1512 131.89 62.8789 130.731 62.6503C131.094 63.1443 131.38 63.7554 131.661 64.4742C131.708 64.5939 131.671 64.6953 131.586 64.7795C136.072 66.0157 134.984 73.7225 130.414 75.8131C130.43 75.8796 130.432 75.9556 130.406 76.0455C128.917 81.0918 129.226 86.5573 127.95 91.672C126.993 95.5098 125.369 99.9893 120.987 100.802C119.907 101.002 119.024 100.939 118.298 100.68C115.05 100.631 111.335 100.105 107.927 99.1058C107.288 102.063 104.33 107.735 106.587 109.96C109.027 112.363 113.206 112.844 116.464 113.233C120.284 113.689 124.138 113.528 127.948 113.03C129.931 112.771 131.922 112.483 133.862 111.991C134.803 111.753 136.795 111.507 137.415 110.616C137.415 110.609 137.413 110.602 137.413 110.596C137.413 100.4 137.626 90.2483 141.988 80.841C140.595 80.6453 139.183 80.5243 137.747 80.5009C136.847 80.4863 138.562 79.7561 138.94 79.7625C149.263 79.9335 158.308 84.8043 168.22 86.9373ZM119.451 55.1632C118.807 55.4748 118.247 55.9048 117.836 56.4964C115.124 60.4045 122.166 60.9093 123.848 60.9422C126.016 60.9847 128.126 60.7719 130.274 61.1797C132.527 61.6072 134.798 61.9245 137.044 62.3723C138.162 62.5952 139.178 63.1614 140.242 63.5065C140.567 63.5078 140.89 63.5167 141.211 63.5325C138.204 61.7864 135.525 59.5736 132.574 57.7269C130.696 56.5527 128.701 55.3653 126.516 54.8738C125.138 54.5648 123.226 54.3323 121.483 54.5781C120.758 54.6794 120.066 54.8649 119.451 55.1632ZM109.037 77.6396C110.513 77.9613 111.943 78.4901 113.377 78.9601C115.252 79.5756 117.123 80.1 119.08 80.3857C119.739 80.4813 121.054 80.9208 121.097 80.3996C121.266 78.3597 120.288 76.3926 120.511 74.3172C120.745 72.1513 121.371 69.9499 122.606 68.1266C124.286 65.6478 126.653 64.062 129.45 64.0537C129.065 63.2057 128.581 62.5344 127.582 62.2665C126.12 62.2241 124.668 62.3387 123.204 62.2424C122.157 62.174 120.046 61.9517 118.245 61.3583C118.202 61.3659 118.161 61.3704 118.124 61.371C116.727 61.3963 115.381 61.2355 113.991 61.1462C111.132 60.9612 109.109 63.0043 107.976 65.4445C106.467 68.6928 105.933 72.1608 105.359 75.6675C104.999 77.8625 107.389 77.2811 109.037 77.6396ZM103.535 95.8537C107.307 97.8993 112.241 99.2642 116.836 99.6739C113.589 95.9006 116.76 84.6308 117.75 81.2375C113.607 80.5402 109.695 78.6067 105.534 78.1475C104.087 83.2577 96.7444 92.1704 103.535 95.8537ZM99.3511 110.372C100.844 111.426 103.361 112.73 104.545 110.527C104.548 110.52 104.553 110.515 104.556 110.509C104.558 110.505 104.563 110.502 104.565 110.499C104.594 110.445 104.628 110.393 104.674 110.346C102.653 107.087 105.754 102.204 106.182 98.8196C106.193 98.7341 106.238 98.6549 106.304 98.5821C104.67 98.0096 103.139 97.3256 101.818 96.5219C101.765 96.4902 101.722 96.456 101.671 96.4231C100.342 99.6144 97.5994 102.613 97.2865 106.068C97.1206 107.889 97.8502 109.314 99.3511 110.372ZM95.8046 122.596C95.6899 122.618 95.695 122.669 95.8046 122.596V122.596ZM104.079 119.965C104.091 119.942 104.109 119.92 104.125 119.898C104.174 119.739 104.221 119.581 104.259 119.418C104.409 118.759 104.572 118.096 104.618 117.421C104.736 115.707 104.686 113.977 104.587 112.256C102.803 113.217 100.371 112.804 98.5151 111.708C95.8951 114.722 93.2713 117.727 93.2555 121.92C93.3023 122.004 93.3809 122.105 93.4537 122.198C93.4607 122.188 93.4676 122.181 93.4752 122.17C93.8932 121.533 94.22 120.841 94.5246 120.144C95.0338 118.979 95.4189 117.64 96.208 116.625C96.6836 116.012 98.4328 116.192 97.726 117.101C97.1972 117.782 96.9255 118.762 96.593 119.547C96.2289 120.407 95.8673 121.311 95.3587 122.105C95.5031 122.264 95.6773 122.442 95.8755 122.541C95.9008 122.519 95.9262 122.498 95.9578 122.466C96.0484 122.378 96.1351 122.286 96.2181 122.191C96.7102 121.608 97.1022 120.938 97.4544 120.263C98.0079 119.201 98.4385 118.073 99.0167 117.025C99.2707 116.565 100.96 116.458 100.826 116.7C99.9211 118.338 99.3486 120.167 98.189 121.658C98.31 121.663 98.4296 121.678 98.5455 121.715C100.413 122.293 101.677 117.818 102.173 116.565C102.401 115.99 104.219 115.768 104.003 116.315C103.779 116.884 103.532 117.514 103.254 118.15C103.302 118.193 103.345 118.242 103.373 118.305C103.6 118.815 103.789 119.439 104.079 119.965ZM83.959 183.007C83.959 183.029 83.9628 183.048 83.9603 183.071C83.9337 183.31 83.9008 183.546 83.8678 183.783C84.0059 183.815 84.1313 183.873 84.225 183.967C86.9141 186.672 92.391 185.083 95.3435 183.293C95.3473 183.211 95.3676 183.122 95.4182 183.021C100.341 173.243 104.503 163.09 110.449 153.859C113.576 149.003 116.746 144.178 119.557 139.127C121.204 136.168 123.74 132.473 124.092 128.965C121.477 128.463 118.899 127.757 116.387 126.789C115.571 126.475 117.228 125.614 117.833 125.847C120.14 126.735 122.508 127.386 124.912 127.855C125.262 127.774 125.64 127.824 125.845 128.036C133.867 129.433 142.263 128.758 150.215 127.279C150.507 127.225 150.892 127.299 151.021 127.594C154.505 135.527 157.253 143.82 160.09 152.002C160.552 153.336 161.013 154.671 161.471 156.007C161.591 156.36 161.59 156.52 161.57 156.585C161.616 156.558 161.721 156.53 161.95 156.559C165.541 156.998 170.469 156.957 171.178 152.524C165.715 142.093 167.129 129.132 160.99 118.993C156.648 111.822 146.518 111.689 138.881 111.041C138.858 111.054 138.835 111.067 138.812 111.079C137.179 112.866 132.905 113.244 130.961 113.573C126.08 114.4 121.057 114.875 116.119 114.331C113.484 114.041 109.157 113.716 106.455 112.058C106.639 114.754 106.727 117.568 105.838 120.096C103.888 131.324 99.1941 141.666 93.6412 151.542C88.125 161.355 85.8241 171.962 83.959 183.007ZM104.041 193.374C104.99 188.769 96.2757 187.574 92.1902 186.084C89.2212 186.975 85.9413 187.135 83.5613 185.584C83.2434 187.21 82.8406 188.822 82.5303 190.45C82.2567 191.884 81.3156 194.934 82.4783 196.187C85.3669 196.038 88.2681 196.025 91.1453 196.022C91.3068 196.022 91.4391 196.044 91.5474 196.081C95.7292 195.321 99.9097 194.439 104.041 193.374ZM162.668 164.066C162.554 163.971 162.452 163.857 162.367 163.719C161.291 161.976 161.308 159.741 161.544 157.738C161.097 157.683 160.666 157.617 160.256 157.54C160.096 157.51 159.944 157.407 159.89 157.249C156.615 147.618 153.431 137.843 149.365 128.509C141.677 129.893 133.652 130.468 125.911 129.277C125.411 132.8 122.992 136.433 121.324 139.384C118.774 143.897 116.031 148.294 113.193 152.631C106.837 162.346 102.389 172.943 97.1852 183.278C97.1814 183.286 97.1744 183.292 97.17 183.301C97.2853 183.484 97.2346 183.716 96.8723 183.951C96.0364 184.494 95.0376 185.012 93.9578 185.456C98.0908 186.949 106.781 188.125 105.906 192.876C115.33 190.304 124.452 186.713 132.657 181.297C138.421 177.493 142.824 171.829 148.947 168.576C153.27 166.281 157.98 165.263 162.668 164.066ZM169.407 163.086C172.894 162.865 176.382 162.646 179.87 162.425C179.883 162.126 179.873 161.852 179.842 161.601C179.835 161.548 179.826 161.498 179.818 161.447C179.568 159.953 178.486 159.29 176.646 158.77C174.442 158.149 172.324 157.467 170.28 156.453C168.377 157.624 165.788 157.965 163.369 157.881C163.286 159.572 163.283 163.472 164.218 163.413C164.652 163.385 165.086 163.358 165.519 163.331C165.583 163.327 165.647 163.323 165.71 163.318C166.942 163.242 168.175 163.164 169.407 163.086ZM183.723 160.213C186.239 135.594 188.09 110.915 190.249 86.2641C188.052 86.5098 185.759 86.2349 183.424 85.9626C183.396 85.9594 183.376 85.9531 183.35 85.9493C180.262 88.6523 174.576 88.7131 170.749 88.3299C163.861 87.6396 157.464 84.9854 150.914 82.9556C149.266 82.4446 147.607 81.974 145.929 81.5839C145.197 81.4135 144.461 81.259 143.72 81.1228C139.479 90.311 139.278 100.208 139.273 110.149C146.512 110.815 157.809 110.716 162.267 117.609C168.91 127.885 167.398 141.222 172.967 151.943C172.991 151.988 173.012 152.035 173.036 152.081C173.036 152.081 173.036 152.081 173.036 152.081C173.039 152.087 173.037 152.093 173.039 152.098C173.043 152.123 173.041 152.15 173.039 152.177C173.039 152.193 173.042 152.209 173.039 152.226C172.854 153.522 172.347 154.545 171.623 155.345C174.269 156.616 177.197 157.008 179.802 158.304C180.821 158.812 181.357 159.577 181.594 160.48C182.227 160.401 182.942 160.308 183.723 160.213ZM333.083 141.851C297.935 141.851 262.788 141.851 227.641 141.851C226.399 141.851 226.711 140.439 227.786 140.439C233.196 140.439 238.607 140.439 244.018 140.439C244.409 135.846 246.647 132.034 250.11 128.922C252.161 127.079 254.384 125.469 256.646 123.898C257.736 123.141 259.251 121.516 260.74 121.589C263.097 121.706 264.492 123.903 266.612 124.656C270.128 125.907 269.161 118.255 270.213 116.914C273.083 113.258 276.841 110.215 279.916 106.714C281.655 104.733 282.898 102.809 283.208 100.099C283.55 97.0982 283.197 94.0646 283.557 91.0684C284.161 86.0272 287.375 81.4034 292.713 80.8239C297.425 80.3128 301.851 83.9537 304.859 87.1374C308.883 91.3971 312.363 96.4225 314.794 101.766C316.371 105.232 317.086 108.915 317.671 112.665C318.312 116.777 318.416 122.092 320.876 125.58C324.386 130.554 328.079 134.063 326.441 140.439C328.703 140.439 330.966 140.439 333.228 140.439C334.47 140.439 334.157 141.851 333.083 141.851ZM245.823 140.439C272.114 140.439 298.405 140.439 324.695 140.439C325.769 135.94 324.255 132.694 321.333 129.086C318.889 126.069 317.634 123.625 316.914 119.731C316.098 115.317 315.685 110.797 314.506 106.457C312.947 100.721 309.419 95.2274 305.672 90.6846C302.538 86.8835 294.882 78.3179 289.397 82.9094C283.189 88.1064 286.843 95.3598 284.58 101.958C283.061 106.384 278.75 109.825 275.571 113.073C274.366 114.304 271.871 116.055 271.541 117.869C271.162 119.96 271.667 123.115 269.824 124.644C268.514 125.729 266.756 126.248 265.132 125.468C264.109 124.976 263.198 124.347 262.269 123.699C260.654 122.573 260.375 122.506 258.761 123.626C252.677 127.848 246.287 132.471 245.823 140.439ZM306.921 158.696C298.688 158.696 290.455 158.696 282.223 158.696C281.567 158.696 280.257 159.69 281.496 159.69C289.73 159.69 297.962 159.69 306.194 159.69C306.849 159.69 308.16 158.696 306.921 158.696ZM263.209 163.392C255.61 163.392 248.01 163.392 240.411 163.392C239.686 163.392 238.471 164.494 239.713 164.494C247.313 164.494 254.912 164.494 262.512 164.494C263.238 164.494 264.451 163.392 263.209 163.392ZM270.529 175.574C266.413 175.574 262.296 175.574 258.18 175.574C257.098 175.574 256.801 177.011 258.042 177.011C262.159 177.011 266.275 177.011 270.391 177.011C271.474 177.011 271.771 175.574 270.529 175.574ZM301.23 176.778C299.013 176.778 296.797 176.778 294.58 176.778C293.968 176.778 292.601 177.707 293.836 177.707C296.053 177.707 298.269 177.707 300.486 177.707C301.098 177.707 302.465 176.778 301.23 176.778ZM42.1938 156.693C49.7936 156.693 57.3927 156.693 64.9919 156.693C65.3453 156.693 67.0717 155.995 66.1958 155.995C58.596 155.995 50.9969 155.995 43.3977 155.995C43.0443 155.995 41.3179 156.693 42.1938 156.693ZM95.6481 136.017C96.0744 136.017 96.6152 135.891 96.854 135.495C97.0763 135.126 96.6665 134.874 96.3346 134.874C95.068 134.874 93.8014 134.874 92.5348 134.874C92.1085 134.874 91.5677 135 91.3289 135.396C91.1066 135.765 91.5164 136.017 91.8482 136.017C93.1155 136.017 94.3815 136.017 95.6481 136.017ZM52.3769 148.074C42.5605 148.074 32.7447 148.074 22.929 148.074C21.8808 148.074 21.5198 149.414 22.7649 149.414C32.5813 149.414 42.3971 149.414 52.2128 149.414C53.261 149.414 53.622 148.074 52.3769 148.074ZM79.7627 145.621C80.8146 145.621 81.1687 144.269 79.9236 144.269C76.4403 144.269 72.9571 144.269 69.4745 144.269C68.4225 144.269 68.0685 145.621 69.3136 145.621C72.7962 145.621 76.2794 145.621 79.7627 145.621ZM243.681 13.4043C245.674 6.34096 251.892 0.713956 259.391 0.848852C259.415 0.846952 259.437 0.842522 259.462 0.841889C262.404 0.806423 265.449 1.13448 268.151 2.38401C275.697 5.87484 279.824 14.8027 276.732 22.7514C273.16 31.9313 262.319 34.2328 253.589 31.6267C245.321 29.1574 241.347 21.6742 243.681 13.4043ZM258.48 31.0966C263.342 31.5146 268.732 30.918 272.204 27.0808C274.617 24.4139 275.94 20.9097 275.866 17.3017C275.678 8.09144 268.227 2.06229 259.295 2.16932C259.242 2.16995 259.195 2.16488 259.148 2.16109C259.118 2.16235 259.088 2.16678 259.059 2.16552C251.525 1.87039 245.743 9.00659 244.95 16.044C243.979 24.6514 250.17 30.381 258.48 31.0966Z" fill="#212121"/>
</svg>
