<svg width="600" height="600" viewBox="0 0 600 600" fill="none" xmlns="http://www.w3.org/2000/svg">
<g clip-path="url(#clip0)">
<path d="M339.005 262.781C337.821 269.163 335.834 280.633 335.834 285.82C335.834 286.999 335.852 288.402 335.88 289.923C335.432 294.445 335.224 298.977 335.598 303.536C336.289 311.962 338.565 320.305 335.848 328.619C333.643 335.361 326.612 339.37 321.628 343.878C320.384 345.003 323.284 344.919 323.958 344.309C324.719 343.622 325.499 342.957 326.287 342.299C323.625 348.571 325.907 355.803 329.868 361.648C329.385 361.705 328.914 361.838 328.687 362.026C326.512 363.844 324.131 365.24 321.61 366.281C319.523 367.025 317.158 367.724 314.579 368.25C303.642 370.053 291.271 366.942 281.304 362.708L277.135 360.624C277.458 360.086 277.767 359.533 278.062 358.969C279.452 357.288 281.407 354.233 281.407 350.329C281.407 349.552 281.349 348.786 281.255 348.04C281.349 346.443 281.268 344.855 280.973 343.317C281.716 343.926 282.444 344.536 283.136 345.161C283.874 345.83 286.606 344.718 285.851 344.036C283.676 342.068 281.336 340.268 279.117 338.349C278.527 337.341 277.815 336.378 276.952 335.48C276.745 335.265 276.326 335.226 275.874 335.294C274.89 334.265 273.967 333.175 273.146 331.99C267.878 324.395 270.44 313.784 271.484 305.348C272.749 295.117 270.831 284.966 269.445 274.789L269.316 271.038L268.644 259.615L271.044 258.415C271.607 258.388 272.177 258.349 272.751 258.303L272.757 258.355C272.565 258.54 272.439 258.766 272.432 259.033C272.074 273.864 274.807 288.553 274.448 303.382C274.415 304.752 276.749 304.565 277.292 303.572C294.666 303.649 312.027 304.501 329.403 304.561C329.651 305.895 332.365 305.441 332.34 304.172C332.019 288.366 336.995 272.996 336.875 257.208C337.231 257.262 337.578 257.329 337.922 257.405L339.005 257.886C339.058 259.52 339.063 261.152 339.005 262.781ZM329.376 302.608L277.427 301.278C277.426 301.51 277.421 301.746 277.418 301.979C294.742 302.025 312.052 302.872 329.375 302.968C329.376 302.849 329.376 302.729 329.376 302.608ZM333.912 256.826C333.871 256.82 333.829 256.816 333.788 256.81L333.557 265.844C333.817 262.849 333.96 259.846 333.912 256.826Z" fill="#212121"/>
<path d="M293.704 186.373C290.104 187.406 286.646 186.62 283.056 185.992C281.53 185.726 284.223 184.577 284.923 184.699C287.668 185.178 290.665 186.117 293.426 185.326C293.712 185.243 294.893 184.966 295.027 185.459C295.157 185.958 293.991 186.291 293.704 186.373ZM319.19 184.699C318.493 184.577 315.8 185.727 317.324 185.992C320.915 186.62 324.371 187.406 327.971 186.373C328.259 186.291 329.425 185.958 329.293 185.459C329.159 184.966 327.978 185.244 327.69 185.326C324.933 186.116 321.935 185.176 319.19 184.699ZM304.06 203.981C305.552 202.983 307.041 201.984 308.354 200.753C309.626 199.563 306.744 199.463 305.986 200.173C305.38 200.74 304.736 201.244 304.069 201.723C303.128 198.81 303.307 195.726 304.1 192.74C304.408 191.58 301.452 192.005 301.169 193.069C300.221 196.642 300.109 200.464 301.678 203.879C302.064 204.718 303.471 204.376 304.06 203.981ZM314.954 206.476C316.209 205.098 313.421 204.514 312.49 205.537C308.114 210.34 299.69 209.197 295.401 204.843C294.428 203.856 291.672 205.08 292.734 206.16C298.504 212.017 309.22 212.773 314.954 206.476ZM316.595 171.758C318.962 170.971 321.191 171.46 323.1 173.013C323.705 173.504 326.251 172.355 325.856 172.033C322.846 169.587 319.065 169.996 315.6 171.15C315.486 171.188 314.284 171.678 314.719 171.944C315.208 172.243 316.119 171.916 316.595 171.758ZM127.337 326.081C127.104 325.953 126.951 325.743 126.961 325.43C127.389 312.527 133.581 296.714 149.29 301.887C150.106 302.155 149.983 302.881 149.355 303.31C147.187 304.795 144.771 305.62 142.362 306.539C144.992 306.349 147.625 306.486 150.08 307.591C150.322 307.7 150.4 307.888 150.386 308.137C150.365 308.442 150.311 308.72 150.235 308.982C150.329 308.915 150.405 308.839 150.508 308.776C151.397 308.226 153.271 308.628 152.887 309.383C155.219 312.09 158.23 315.268 158.845 318.938C159.435 322.459 158.545 325.899 157.568 329.272C160.836 328.84 164.353 329.164 167.6 329.228C174.803 329.374 182.001 329.634 189.199 329.953C196.519 330.278 203.837 330.637 211.145 331.16C214.17 331.376 217.493 331.37 220.573 331.929C223.956 324.116 227.706 316.467 231.093 308.654C234.82 300.064 237.27 291.104 240.71 282.43C245.506 270.341 253.383 262.543 265.373 257.683C265.381 257.489 265.38 257.294 265.39 257.1C265.434 256.284 267.679 255.717 268.2 256.363C274.395 256.369 281.585 255.514 285.556 250.429C285.697 250.249 285.831 250.059 285.969 249.873C272.52 252.745 255.406 250.184 245.23 240.703C238.486 234.422 235.597 225.695 237.721 216.628C240.116 206.396 246.422 197.827 249.78 187.93C253.418 177.207 255.703 166.158 258.243 155.147C259.424 150.023 260.807 144.727 263 139.852C263.873 137.094 265.488 134.477 267.623 132.079C267.958 131.652 268.306 131.234 268.666 130.825C279.751 118.241 295.71 115.893 311.284 118.933C312.774 119.062 313.657 119.176 313.657 119.176C313.657 119.176 314.507 119.389 316.796 120.049C322.925 119.627 329.187 120.743 333.616 125.418C339.296 131.414 342.005 139.508 345.163 146.971C352.342 163.942 361.269 180.99 365.802 198.938C368.783 210.746 370.485 224.799 364.585 236.05C358.815 247.058 347.84 252.351 336.133 254.713L334.717 255.244C334.864 255.289 335.018 255.322 335.168 255.359C335.694 255.256 336.257 255.327 336.584 255.633C337.51 255.78 338.454 255.914 339.384 256.093C340.185 255.507 341.851 255.34 341.886 256.012C341.9 256.267 341.898 256.521 341.907 256.776C342.041 256.826 342.177 256.87 342.307 256.925C342.349 256.944 342.284 257.008 342.175 257.088C342.325 257.089 342.464 257.109 342.578 257.154C355.519 262.276 363.434 271.172 367.972 284.225C370.876 292.574 373.483 300.919 377.065 309.025C380.598 317.025 384.37 324.917 387.707 333.003C390.976 332.395 394.47 332.314 397.687 332.029C405.058 331.378 412.439 330.842 419.823 330.367C426.854 329.915 433.887 329.499 440.928 329.214C443.816 329.098 446.937 328.747 449.914 328.918C448.972 325.663 448.058 321.967 449.101 318.734C450.228 315.247 452.566 312.478 454.918 309.739C454.921 309.666 455.014 309.567 455.166 309.457C455.345 309.266 455.625 309.127 455.94 309.047C456.584 308.778 457.355 308.6 457.709 308.817C457.838 308.897 457.956 308.983 458.07 309.071C458.201 308.935 458.349 308.815 458.527 308.735C459.851 308.139 461.215 307.817 462.597 307.664C460.266 306.803 458.19 305.675 457.736 303.981C456.732 300.234 464.822 300.831 466.664 301.205C476.39 303.179 481.255 316.049 480.329 324.847C480.327 324.86 480.322 324.87 480.32 324.885C480.417 324.925 480.475 324.98 480.471 325.055C479.796 338.335 459.838 343.261 449.73 346.803C431.32 353.251 412.223 358.807 392.751 360.805C387.311 361.363 381.733 361.769 376.269 361.241C374.142 361.036 370.401 360.929 368.781 359.222C354.695 344.373 351.49 322.087 339.02 306.143C339.133 307.523 339.268 308.91 339.442 310.316C340.322 317.432 341.185 325.801 336.843 332.064C335.478 334.03 333.851 335.737 332.115 337.334C332.196 337.42 332.182 337.541 332.027 337.702C322.909 347.191 330.823 360.105 338.76 367.231C347.251 374.854 353.91 383.087 354.442 394.635C354.722 394.547 354.975 394.496 355.131 394.51C375.832 396.336 397.619 403.422 416.04 412.828C426.783 418.313 442.008 427.067 443.782 440.454C445.769 455.433 430.054 468.695 417.268 472.962C398.521 479.218 378.75 473.389 360.818 467.107C339.538 459.652 317.524 449.379 294.515 449.898C293.714 450.329 292.923 450.776 292.116 451.2C270.019 462.79 245.702 472.835 220.544 474.604C200.674 476.001 172.741 472.616 161.698 453.359C152.486 437.296 159.622 418.171 176.729 411.256C200.472 401.656 226.362 395.077 252.134 395.737C252.726 384.505 259.168 375.038 268.019 368.104C275.755 362.044 281.503 348.885 276.508 339.718C273.765 337.425 271.208 334.94 269.643 331.821C266.117 324.791 267.081 317.04 268.073 309.516C268.168 308.799 268.227 308.084 268.297 307.368C261.611 315.682 258.165 325.881 253.192 335.287C250.646 340.104 248.433 345.137 245.659 349.831C243.753 353.053 241.537 357.327 238.418 359.513C232.459 363.691 221.537 362.013 214.907 361.335C195.385 359.333 176.153 353.967 157.715 347.401C147.588 343.786 128.499 339.151 127.337 326.081ZM255.026 396.978C255.026 397.027 255.021 397.074 255.022 397.122C255.023 397.159 255.011 397.192 255.005 397.227C255.246 397.069 255.369 396.828 255.211 396.45C255.288 396.629 255.201 396.811 255.026 396.978ZM354.477 395.935C354.477 396.002 354.481 396.069 354.481 396.136C355.091 396.362 354.921 397.122 353.71 397.496C353.625 397.522 353.54 397.545 353.456 397.57C353.312 397.621 353.166 397.666 353.016 397.697C332.431 403.938 310.457 404.642 289.146 402.802C280.606 402.066 272.104 400.962 263.663 399.476C261.107 399.025 258.555 398.546 256.005 398.058C255.53 397.967 255.057 397.879 254.581 397.792C253.774 398.348 252.135 398.503 252.102 397.918C238.205 397.47 224.211 399.385 210.713 402.593C204.088 404.169 197.511 405.972 191.061 408.158C184.946 410.231 178.049 412.169 172.659 415.864C153.853 428.755 158.664 454.328 177.552 464.539C200.376 476.874 228.407 473.634 252.164 465.985C275.175 458.575 296.69 447.108 316.977 434.071C316.978 434.055 316.972 434.044 316.974 434.027C317.682 428.796 315.684 423.253 310.934 420.69C310.568 420.807 310.174 420.824 309.852 420.671C293.822 413.181 273.383 419.348 256.599 421.038C239.253 422.782 218.776 422.215 203.817 432.448C202.639 433.255 200.243 432.238 201.88 431.118C204.416 429.383 207.086 427.946 209.855 426.737C199.807 418.94 211.188 410.363 220.237 409.004C224.406 408.378 229.301 411.353 232.835 413.184C237.204 415.45 241.66 418.357 246.442 419.819C249.974 419.541 253.463 419.263 256.859 418.901C274.097 417.066 295.028 410.988 311.539 418.704C311.741 418.799 311.885 418.906 311.984 419.022C312.216 418.996 312.42 419.005 312.551 419.064C314.96 420.138 316.777 421.832 318.021 423.876C321.576 416.454 334.516 413.073 341.26 411.445C346.765 410.116 352.506 409.054 358.196 409.185C361.035 409.251 365.695 409.249 367.74 411.687C378.11 424.063 326.142 432.21 320.403 434.305C320.325 434.472 320.172 434.646 319.902 434.82C312.422 439.655 304.794 444.269 296.987 448.559C319.11 448.408 340.099 457.729 360.598 464.974C380.772 472.106 406.893 481.197 426.154 466.956C438.708 457.673 446.681 442.716 434.982 429.432C424.517 417.549 408.458 410.798 393.843 405.669C381.224 401.245 367.858 397.276 354.477 395.935ZM344.938 427.024C349.545 425.867 368.021 422.422 365.835 414.585C363.805 407.313 347.497 411.354 342.626 412.532C335.874 414.161 322.004 417.327 320.217 425.534C320.145 425.874 319.699 426.154 319.181 426.322C319.917 428.403 320.167 430.697 319.932 433.012C327.933 430.091 336.703 429.092 344.938 427.024ZM241.695 420.205C236.161 418.026 231.073 414.345 225.662 412.087C220.312 409.857 214.388 409.83 210.403 414.959C207.163 419.13 208.852 422.787 212.523 425.658C221.669 422.221 231.76 421.044 241.695 420.205ZM332.791 365.394C332.043 364.557 331.323 363.667 330.638 362.737C315.482 375.012 292.08 370.326 275.795 362.657C275.313 363.33 274.814 363.979 274.297 364.589C270.342 369.246 265.164 372.658 261.469 377.609C257.304 383.192 255.161 389.152 255.048 396.027C256.991 396.057 259.176 396.84 260.795 397.143C268.136 398.518 275.518 399.699 282.944 400.527C305.754 403.073 329.379 403.19 351.567 396.702C351.541 389.716 349.53 383.2 345.107 377.662C341.431 373.063 336.669 369.729 332.791 365.394ZM459.606 312.375C459.652 313.421 459.471 314.524 459.249 315.534C459.178 315.854 458.605 317.921 458.349 319.655C458.624 319.376 458.918 319.109 459.229 318.856C458.513 316.056 459.932 314.291 462.118 313.241C461.197 313.044 460.33 312.766 459.606 312.375ZM341.984 259.394C342.01 266.765 340.95 274.047 339.93 281.359C338.963 288.293 338.53 294.88 338.774 301.616C351.553 315.218 356.021 335.067 365.813 350.682C368.59 355.111 370.748 358.954 375.984 359.705C380.331 360.329 384.77 360.259 389.141 359.949C406.978 358.68 424.645 354.093 441.559 348.463C448.736 346.073 456.184 343.768 463.079 340.595C469.25 337.755 477.174 333.517 477.564 325.838C477.566 325.802 477.58 325.77 477.588 325.736C477.429 325.57 477.341 325.34 477.371 325.037C478.101 318.124 475.237 309.14 469.203 305.135C467.479 303.99 465.426 303.005 463.287 303.13C460.964 303.266 459.709 303.254 462.549 304.526C465.297 305.758 468.222 306.535 470.956 307.789C472.016 308.275 471.617 309.175 470.854 309.647C470.486 310.05 469.898 310.349 469.294 310.263C466.655 309.892 463.787 309.422 461.169 310.12C462.732 311.555 467.398 311.493 468.934 311.735C469.147 311.767 469.312 311.827 469.449 311.896C470.143 311.908 470.789 311.953 471.344 312.022C471.99 312.105 472.059 312.724 471.637 313.116C471.085 313.63 470.292 313.763 469.572 313.67C469.454 313.654 469.327 313.644 469.203 313.632C468.853 313.881 468.405 314.03 467.95 313.957C467.386 313.87 466.634 313.808 465.799 313.733C463.751 314.083 461.969 315.055 462.03 317.14C465.958 315.37 470.78 315.538 473.322 319.314C474.029 320.365 471.201 321.352 470.616 320.486C467.997 316.598 462.857 317.413 460.231 320.75C465.434 321.625 470.411 322.331 473.824 326.874C474.572 327.87 471.755 328.892 471.118 328.045C468.281 324.269 464.335 323.389 460.099 322.68C460.029 322.706 459.959 322.733 459.874 322.762C457.094 323.673 454.64 323.695 455.38 320.168C455.878 317.79 457.454 313.998 456.391 311.482C454.438 313.733 452.358 316.27 451.87 319.181C451.275 322.733 452.277 326.198 453.269 329.589C453.554 330.573 451.575 331.286 450.71 330.803C450.604 330.812 450.503 330.815 450.418 330.8C446.649 330.149 442.275 330.821 438.49 330.991C431.423 331.31 424.36 331.725 417.302 332.196C410.352 332.66 403.404 333.157 396.467 333.793C393.847 334.034 390.989 334.088 388.296 334.525C388.264 335.438 385.923 336.079 385.389 335.162C384.048 335.414 383.694 334.361 384.786 333.775C381.447 325.692 377.639 317.825 374.151 309.807C370.792 302.084 368.254 294.198 365.496 286.26C361.071 273.536 354.214 264.746 341.984 259.394ZM297.454 145.373C298.446 144.905 299.457 144.499 300.483 144.155C299.454 144.391 298.444 144.813 297.454 145.373ZM322.986 158.148C323.977 161.192 325.275 164.051 326.799 166.779C325.287 163.814 324.015 160.835 322.986 158.148ZM355.569 244.392C353.309 246.244 351.055 247.781 349.177 248.949C351.499 247.668 353.643 246.147 355.569 244.392ZM281.924 122.264C283.515 121.595 285.14 121.004 286.784 120.521C289.864 119.617 293.234 119.104 296.517 118.834C291.458 118.915 286.477 119.896 281.924 122.264ZM286.904 248.552C287.436 247.755 287.945 246.914 288.421 246.037C287.788 247.044 287.192 247.947 286.762 248.585C286.809 248.575 286.857 248.563 286.904 248.552ZM275.011 258.059C275.245 258.218 275.398 258.463 275.389 258.815C275.044 273.015 277.53 287.088 277.426 301.278C277.425 301.51 277.42 301.746 277.417 301.979C294.741 302.025 312.051 302.872 329.374 302.968C329.374 302.848 329.374 302.728 329.374 302.608C329.424 290.243 332.478 278.124 333.553 265.843C333.815 262.847 333.957 259.845 333.91 256.825C333.869 256.819 333.828 256.815 333.786 256.809C332.559 256.626 331.372 256.353 330.329 255.755C328.877 254.919 327.501 253.731 326.233 252.42L325.753 252.221C325.753 252.221 325.613 251.963 325.372 251.496C324.385 250.397 323.469 249.254 322.648 248.182C318.152 242.317 313.382 233.852 315.941 226.183C318.258 219.244 324.814 214.632 330.019 209.892C335.987 204.453 340.45 198.738 341.726 190.849C337.885 185.758 333.229 181.016 329.171 175.627C324.325 169.198 320.467 162.404 318.901 154.416C318.492 152.329 318.195 150.234 317.966 148.134C317.52 148.229 317.105 148.232 316.886 148.063C316.121 147.47 315.34 146.965 314.552 146.525C312.084 145.841 308.967 145.057 305.73 144.429C298.791 144.732 292.023 149.187 287.627 155.196C283.498 160.841 282.005 166.587 281.589 172.904C281.598 172.655 281.825 172.369 282.393 172.1C285.753 170.499 289.248 169.879 292.939 170.405C293.581 170.498 293.66 171.105 293.232 171.502C292.686 172.013 291.883 172.157 291.167 172.056C288.466 171.669 286.011 172.225 283.57 173.386C282.656 173.822 281.582 173.463 281.588 172.914C281.445 175.054 281.429 177.259 281.476 179.546C281.578 184.54 282.101 191.894 278.142 195.743C276.577 197.261 274.761 198.158 272.825 198.635C272.81 198.644 272.8 198.651 272.785 198.659C277.115 212.468 296.231 219.706 294.525 235.451C293.734 242.759 290.303 250.498 284.21 254.921C281.792 256.682 278.429 257.597 275.011 258.059ZM271.042 258.414C270.082 258.46 269.152 258.478 268.263 258.48C268.135 263.936 268.704 269.367 269.442 274.789C270.828 284.967 272.746 295.116 271.481 305.347C270.439 313.784 267.877 324.394 273.143 331.99C273.965 333.176 274.887 334.265 275.872 335.294C276.323 335.226 276.743 335.265 276.949 335.48C277.812 336.378 278.525 337.341 279.114 338.349C281.333 340.267 283.671 342.067 285.848 344.036C286.603 344.718 283.872 345.83 283.132 345.16C282.441 344.537 281.716 343.925 280.97 343.317C281.265 344.854 281.347 346.443 281.252 348.04C281.03 351.775 279.835 355.573 278.059 358.97C277.765 359.534 277.455 360.085 277.133 360.625C277.104 360.673 277.072 360.719 277.043 360.767C278.403 361.432 279.825 362.083 281.301 362.71C291.269 366.944 303.64 370.056 314.576 368.252C317.004 367.853 319.362 367.21 321.607 366.283C324.127 365.243 326.507 363.847 328.684 362.028C328.911 361.839 329.382 361.707 329.865 361.65C325.904 355.806 323.624 348.572 326.284 342.301C325.498 342.959 324.716 343.625 323.955 344.311C323.281 344.921 320.382 345.005 321.626 343.88C326.61 339.371 333.641 335.364 335.845 328.621C338.563 320.307 336.286 311.965 335.595 303.538C335.221 298.981 335.429 294.447 335.878 289.925C336.779 280.878 338.671 271.872 339.002 262.782C339.062 261.153 339.056 259.522 338.999 257.887C338.997 257.827 338.996 257.766 338.994 257.707C338.641 257.589 338.285 257.486 337.917 257.407C337.572 257.331 337.223 257.262 336.869 257.21C336.989 272.998 332.012 288.368 332.334 304.173C332.359 305.443 329.646 305.896 329.398 304.563C312.022 304.501 294.661 303.651 277.286 303.574C276.744 304.566 274.409 304.755 274.441 303.384C274.801 288.555 272.068 273.866 272.426 259.035C272.434 258.768 272.56 258.542 272.751 258.356C272.772 258.336 272.795 258.319 272.818 258.298C272.793 258.3 272.769 258.302 272.745 258.304C272.174 258.348 271.602 258.387 271.042 258.414ZM147.077 317.804C146.975 317.884 146.836 317.952 146.672 318.009C147.617 318.306 148.505 318.723 149.278 319.303C149.023 318.274 148.739 317.25 148.522 316.213C148.191 316.842 147.587 317.391 147.077 317.804ZM148.597 311.039C147.299 311.842 145.484 312.159 143.752 312.338C144.329 312.458 144.902 312.591 145.449 312.754C146.315 313.011 147.519 313.353 148.219 314.074C148.146 312.999 148.233 311.963 148.597 311.039ZM130.246 325.335C130.623 332.754 138.686 337.199 144.7 339.855C151.211 342.732 158.056 345.04 164.798 347.283C181.36 352.798 198.493 357.552 215.928 359.206C220.821 359.67 225.798 360.005 230.702 359.532C235.018 359.114 236.821 358.387 239.501 354.677C250.902 338.89 254.714 317.886 268.318 303.681C268.389 303.607 268.477 303.544 268.569 303.487C269.118 288.543 264.95 273.989 265.339 258.996C252.298 264.7 245.67 274.735 241.422 288.233C236.184 304.89 227.974 320.171 221.429 336.301C221.101 337.111 218.268 337.428 218.536 336.768C218.979 335.674 219.437 334.585 219.899 333.499C216.284 332.525 212.107 332.622 208.424 332.373C201.756 331.921 195.079 331.57 188.402 331.273C181.403 330.961 174.398 330.688 167.394 330.536C163.803 330.458 159.791 329.949 156.228 330.578C155.953 330.626 155.744 330.643 155.582 330.637C154.948 330.696 154.422 330.577 154.529 330.206C155.545 326.729 156.912 322.598 155.745 318.983C154.834 316.161 153.035 313.837 151.142 311.603C150.464 314.148 152.306 318.106 152.544 320.215C152.896 323.352 150.193 324.176 147.551 323.309C146.898 323.094 146.847 322.731 147.09 322.386C143.063 323.05 139.361 323.793 136.654 327.398C136.197 328.005 133.339 328.393 133.987 327.532C137.367 323.037 142.343 322.038 147.489 321.168C146.216 319.71 144.223 319.005 142.319 318.824C141.071 318.707 138.04 318.319 137.27 319.671C136.828 320.448 134.081 320.658 134.377 320.141C135.726 317.768 139.692 317.461 142.083 317.409C142.869 317.391 143.687 317.43 144.5 317.533C144.555 317.462 144.622 317.386 144.728 317.303C147.277 315.244 144.09 314.363 142.149 314.022C139.711 313.594 137.087 313.363 134.618 313.677C132.596 313.935 133.584 312.208 135.009 312.024C136.338 311.855 137.758 311.789 139.186 311.827C139.438 311.459 139.954 311.096 140.55 311.007C142.029 310.787 146.281 311.182 147.138 309.722C148.124 308.045 144.308 308.143 143.261 308.159C141.543 308.187 139.849 308.406 138.15 308.646C136.408 308.891 136.901 307.619 137.983 307.137C137.831 306.818 137.996 306.416 138.741 306.081C141.082 305.03 143.568 304.356 145.839 303.192C133.762 300.547 130.335 314.804 129.921 324.663C130.108 324.818 130.232 325.037 130.246 325.335ZM480.601 478.342C364.017 478.342 247.434 478.342 130.85 478.342C129.779 478.342 127.733 479.968 129.706 479.968C246.29 479.968 362.873 479.968 479.457 479.968C480.53 479.969 482.574 478.342 480.601 478.342ZM119.749 464.201C111.195 486.836 75.5672 485.778 65.2743 465.351C64.725 464.26 66.3759 463.366 67.3647 463.627C67.7235 463.454 68.1106 463.329 68.3878 463.329C84.7323 463.329 101.08 463.329 117.423 463.329C118.373 462.706 120.236 462.916 119.749 464.201ZM116.585 464.744C100.499 464.744 84.4138 464.744 68.3273 464.744C77.9076 482.287 108.2 484.546 116.585 464.744ZM91.5913 423.555C92.0136 422.488 94.4165 422.178 94.4669 423.607C94.7239 431.045 98.9401 435.786 102.69 441.742C104.853 445.176 106.676 449.512 105.386 453.624C102.752 462.017 93.5638 464.257 85.964 462.009C68.9089 459.906 88.2268 432.055 91.5913 423.555ZM84.0167 458.695C84.2072 458.706 84.3866 458.747 84.5388 458.829C85.2564 459.22 85.9811 459.538 86.7048 459.796C87.6644 459.978 88.7842 460.036 90.0925 459.948C90.8968 459.892 91.2717 460.213 91.3312 460.619C99.6567 460.658 106.243 452.911 100.579 443.92C97.2236 438.593 93.597 434.178 92.1497 428.383C87.2713 437.474 77.694 453.975 84.0167 458.695ZM534.173 465.294C534.404 465.492 534.502 465.795 534.343 466.217C525.636 489.22 490.26 485.99 480.205 466.022C479.553 464.727 482.004 463.706 482.764 464.573C483.082 464.432 483.412 464.337 483.654 464.337C500.452 464.337 517.251 464.337 534.05 464.337C535.266 464.336 534.872 464.88 534.173 465.294ZM531.622 465.752C515.563 465.752 499.504 465.752 483.442 465.752C493.135 482.836 523.619 486.84 531.55 465.887C531.57 465.84 531.598 465.797 531.622 465.752ZM499.155 461.594C491.755 454.178 503.72 432.652 506.857 424.562C507.273 423.491 509.684 423.189 509.733 424.614C509.974 431.575 513.649 436.331 517.356 441.853C520.06 445.883 521.661 450.064 520.748 454.977C519.348 462.537 512.068 465.054 505.434 464.084C503.36 463.918 501.721 463.412 500.457 462.627C500.155 462.487 499.856 462.343 499.568 462.186C499.248 462.017 499.136 461.808 499.155 461.594ZM503.746 461.338C504.221 461.504 504.7 461.647 505.193 461.761C506.252 461.973 507.463 462.06 508.888 461.964C509.223 461.942 509.479 461.987 509.674 462.073C513.906 461.66 517.64 459.154 518.014 453.985C518.314 449.869 517.003 446.462 514.678 443.138C511.582 438.714 508.772 434.678 507.49 429.766C502.85 439.843 494.566 457.717 503.746 461.338Z" fill="#212121"/>
<circle cx="238.599" cy="587.599" r="11.0991" transform="rotate(-180 238.599 587.599)" stroke="#22201E" stroke-width="3"/>
</g>
<defs>
<clipPath id="clip0">
<rect width="599.998" height="600" fill="white"/>
</clipPath>
</defs>
</svg>
