<svg width="64" height="64" viewBox="0 0 64 64" fill="none" xmlns="http://www.w3.org/2000/svg">
<g clip-path="url(#clip0)">
<path d="M43.007 8.53271H34.4551V13.4673H43.007V8.53271Z" fill="#F8F8F5"/>
<path d="M34.2315 8.53281H43.2316C44.8885 8.53281 46.2317 7.18966 46.2317 5.53276C46.2317 3.87586 44.8885 2.53271 43.2316 2.53271H34.2315C32.5746 2.53271 31.2314 3.87586 31.2314 5.53276C31.2314 7.18966 32.5746 8.53281 34.2315 8.53281Z" fill="#FF8838"/>
<path d="M38.7504 61.468C52.0054 61.468 62.7507 50.7227 62.7507 37.4677C62.7507 24.2126 52.0054 13.4673 38.7504 13.4673C25.4953 13.4673 14.75 24.2126 14.75 37.4677C14.75 50.7227 25.4953 61.468 38.7504 61.468Z" fill="#F8F8F5"/>
<path d="M38.7498 55.609C48.769 55.609 56.8912 47.4868 56.8912 37.4676C56.8912 27.4484 48.769 19.3262 38.7498 19.3262C28.7306 19.3262 20.6084 27.4484 20.6084 37.4676C20.6084 47.4868 28.7306 55.609 38.7498 55.609Z" fill="#F8F8F5"/>
<path d="M38.7505 40.102C40.2053 40.102 41.3847 38.9226 41.3847 37.4677C41.3847 36.0129 40.2053 34.8335 38.7505 34.8335C37.2956 34.8335 36.1162 36.0129 36.1162 37.4677C36.1162 38.9226 37.2956 40.102 38.7505 40.102Z" fill="#FF8838"/>
<path d="M63.8766 34.9562C63.302 29.1764 60.7198 23.7274 56.6055 19.613C53.0895 16.0971 48.7859 13.8377 44.2576 12.833V9.65697C46.1071 9.19684 47.4819 7.52269 47.4819 5.53278C47.4819 3.18924 45.5753 1.28271 43.2318 1.28271H34.2317C31.8881 1.28271 29.9816 3.18924 29.9816 5.53278C29.9816 7.52256 31.3564 9.19671 33.2058 9.65697V12.8419C28.6913 13.8508 24.402 16.1071 20.896 19.6131C20.1287 20.3804 19.4212 21.1853 18.7735 22.0218C18.7422 22.0194 18.7108 22.017 18.6788 22.017H9.77103C9.08077 22.017 8.52101 22.5767 8.52101 23.2671C8.52101 23.9574 9.08077 24.5171 9.77103 24.5171H17.0726C16.1561 26.0515 15.4171 27.6629 14.8546 29.3217H1.25002C0.559759 29.3217 0 29.8813 0 30.5717C0 31.2621 0.559759 31.8217 1.25002 31.8217H14.1482C13.788 33.4031 13.5812 35.0125 13.5278 36.6264H8.00012C7.30986 36.6264 6.75011 37.186 6.75011 37.8764C6.75011 38.5668 7.30986 39.1264 8.00012 39.1264H13.5677C13.6732 40.7445 13.9333 42.354 14.3482 43.9311H6.2501C5.55984 43.9311 5.00008 44.4908 5.00008 45.1812C5.00008 45.8715 5.55984 46.4312 6.2501 46.4312H15.146C16.3723 49.6751 18.2887 52.7155 20.896 55.3228C25.0143 59.4411 30.4688 62.0239 36.2547 62.5955C37.0805 62.677 37.9068 62.7174 38.7321 62.7174C43.6099 62.7174 48.4258 61.3058 52.5121 58.6447C53.0906 58.268 53.2542 57.4936 52.8774 56.9151C52.5007 56.3366 51.7263 56.1729 51.1478 56.5497C42.203 62.3744 30.2237 61.115 22.6637 53.555C13.7933 44.6846 13.7933 30.2515 22.6637 21.381C31.534 12.5108 45.9671 12.5108 54.8376 21.381C62.3876 28.9311 63.6539 40.9002 57.8484 49.8406C57.4724 50.4196 57.637 51.1939 58.2159 51.5698C58.7952 51.9458 59.5692 51.7811 59.9451 51.2021C63.0469 46.4252 64.4431 40.6557 63.8766 34.9562ZM32.4816 5.53291C32.4816 4.56789 33.2666 3.78288 34.2317 3.78288H43.2318C44.1968 3.78288 44.9818 4.56789 44.9818 5.53291C44.9818 6.49792 44.1968 7.28293 43.2318 7.28293H43.0075H34.4558H34.2317C33.2666 7.28293 32.4816 6.4978 32.4816 5.53291ZM35.7058 12.4121V9.78297H41.7575V12.4076C39.748 12.1686 37.715 12.1701 35.7058 12.4121Z" fill="#212121"/>
<path d="M55.7227 53.1885C55.3927 53.1885 55.0714 53.3222 54.839 53.5547C54.6053 53.7872 54.4727 54.1097 54.4727 54.4385C54.4727 54.7672 54.6053 55.0897 54.839 55.3222C55.0714 55.556 55.3928 55.6885 55.7227 55.6885C56.0514 55.6885 56.3727 55.556 56.6064 55.3222C56.8389 55.0897 56.9727 54.7672 56.9727 54.4385C56.9727 54.1097 56.839 53.7872 56.6064 53.5547C56.3727 53.3222 56.0513 53.1885 55.7227 53.1885Z" fill="#212121"/>
<path d="M38.7508 18.0767C28.0584 18.0767 19.3594 26.7755 19.3594 37.4681C19.3594 48.1606 28.0584 56.8595 38.7508 56.8595C49.4432 56.8595 58.1422 48.1606 58.1422 37.4681C58.1422 26.7755 49.4432 18.0767 38.7508 18.0767ZM38.7508 54.3595C29.4368 54.3595 21.8594 46.782 21.8594 37.4681C21.8594 28.1542 29.4368 20.5767 38.7508 20.5767C48.0648 20.5767 55.6422 28.1542 55.6422 37.4681C55.6422 46.782 48.0648 54.3595 38.7508 54.3595Z" fill="#212121"/>
<path d="M46.6577 27.7929L40.4663 33.9841C39.9486 33.7281 39.3662 33.5835 38.7506 33.5835C38.1348 33.5835 37.5526 33.7281 37.0348 33.9841L34.2639 31.2132C33.7756 30.725 32.9844 30.725 32.496 31.2132C32.0078 31.7013 32.0078 32.4928 32.496 32.9809L35.2669 35.7519C35.0108 36.2696 34.8663 36.852 34.8663 37.4676C34.8663 39.6094 36.6087 41.352 38.7506 41.352C40.8925 41.352 42.6349 39.6094 42.6349 37.4676C42.6349 36.852 42.4903 36.2696 42.2343 35.7519L48.2438 29.7423L48.4255 29.5606C48.9136 29.0725 48.9136 28.281 48.4255 27.7929C47.9373 27.3047 47.1461 27.3047 46.6577 27.7929ZM38.7506 38.852C37.9873 38.852 37.3663 38.231 37.3663 37.4678C37.3663 36.7045 37.9873 36.0835 38.7506 36.0835C39.5138 36.0835 40.1348 36.7045 40.1348 37.4678C40.1348 38.231 39.5138 38.852 38.7506 38.852Z" fill="#212121"/>
<path d="M52.1161 36.2329H50.958C50.2678 36.2329 49.708 36.7925 49.708 37.4829C49.708 38.1733 50.2678 38.7329 50.958 38.7329H52.1161C52.8064 38.7329 53.3661 38.1733 53.3661 37.4829C53.3661 36.7925 52.8064 36.2329 52.1161 36.2329Z" fill="#212121"/>
<path d="M26.5437 36.2026H25.3857C24.6955 36.2026 24.1357 36.7623 24.1357 37.4526C24.1357 38.143 24.6955 38.7026 25.3857 38.7026H26.5437C27.234 38.7026 27.7937 38.143 27.7937 37.4526C27.7937 36.7623 27.234 36.2026 26.5437 36.2026Z" fill="#212121"/>
<path d="M38.7656 26.5105C39.4559 26.5105 40.0156 25.9509 40.0156 25.2605V24.1025C40.0156 23.4122 39.4559 22.8525 38.7656 22.8525C38.0754 22.8525 37.5156 23.4122 37.5156 24.1025V25.2605C37.5156 25.9509 38.0754 26.5105 38.7656 26.5105Z" fill="#212121"/>
<path d="M38.7354 48.4248C38.0451 48.4248 37.4854 48.9844 37.4854 49.6748V50.8328C37.4854 51.5232 38.0451 52.0828 38.7354 52.0828C39.4256 52.0828 39.9854 51.5232 39.9854 50.8328V49.6748C39.9854 48.9844 39.4256 48.4248 38.7354 48.4248Z" fill="#212121"/>
<path d="M1.25 43.9307C0.92125 43.9307 0.59875 44.0644 0.36625 44.2969C0.13375 44.5294 0 44.8519 0 45.1807C0 45.5107 0.133625 45.8319 0.36625 46.0644C0.598875 46.2969 0.92125 46.4307 1.25 46.4307C1.57875 46.4307 1.90125 46.2969 2.13363 46.0644C2.36613 45.8319 2.5 45.5094 2.5 45.1807C2.5 44.8519 2.36625 44.5294 2.13363 44.2969C1.90125 44.0644 1.57875 43.9307 1.25 43.9307Z" fill="#212121"/>
</g>
<defs>
<clipPath id="clip0">
<rect width="64" height="64" fill="white"/>
</clipPath>
</defs>
</svg>
