<svg width="64" height="64" viewBox="0 0 64 64" fill="none" xmlns="http://www.w3.org/2000/svg">
<path d="M63.8819 15.1762C63.6617 14.357 63.1242 13.6587 62.389 13.2353C61.6531 12.8099 60.7783 12.6948 59.9576 12.9151C59.138 13.1359 58.4396 13.6728 58.0163 14.4081L57.483 15.336C56.9763 15.0449 56.3291 15.2162 56.0328 15.7203L53.3238 20.3378L52.3959 19.8045C52.1501 19.6624 51.8574 19.6238 51.5835 19.6978C51.3091 19.7722 51.0758 19.9524 50.9347 20.1993C50.6457 20.7091 50.8217 21.3569 51.3294 21.6495L52.2574 22.1828L43.1922 37.8921L40.9525 43.8754L39.886 45.8694C39.2617 46.9556 39.3283 48.3059 40.0568 49.325L37.6572 52.2683L36.9855 50.5837C36.6824 49.8327 35.981 49.3182 35.1743 49.2552C34.3672 49.1917 33.5939 49.5906 33.1778 50.2848L32.794 50.9352L32.4316 46.6692C32.3482 45.66 31.5666 44.8487 30.5616 44.7268C29.556 44.6055 28.6041 45.208 28.2828 46.1683L25.6593 54.0388C25.476 54.5955 25.7759 55.1954 26.331 55.3828C26.4352 55.4313 26.5472 55.4604 26.6617 55.4677C27.12 55.4693 27.5282 55.1771 27.6751 54.7428L30.2877 46.8723L30.661 51.2018C30.7381 52.1256 31.4021 52.8937 32.305 53.103C33.208 53.3124 34.1422 52.9145 34.6177 52.1193L35.0124 51.4684L35.6737 53.1431C35.9544 53.8487 36.5892 54.3523 37.3406 54.4642C38.0921 54.5762 38.8461 54.2799 39.321 53.6868L41.806 50.541C42.081 50.6128 42.3643 50.6488 42.6486 50.6477C43.7916 50.6566 44.8529 50.0546 45.432 49.0688L46.4984 47.2879L50.5618 42.3502L59.7227 26.4487L60.6507 26.982C60.8981 27.1236 61.0782 27.3574 61.1517 27.6329C61.2256 27.9063 61.1871 28.1979 61.0454 28.4432L56.7795 35.8341C56.6186 36.0768 56.5639 36.3746 56.6285 36.659C56.6931 36.9428 56.8706 37.188 57.1206 37.3375C57.3664 37.4802 57.659 37.5187 57.9329 37.4448C58.2074 37.3703 58.4407 37.1901 58.5818 36.9433L62.8477 29.5523C63.2732 28.8165 63.3883 27.9417 63.1675 27.121C62.9467 26.3013 62.4098 25.603 61.6745 25.1797L60.7465 24.6464L63.4127 20.0285C63.7038 19.5218 63.5325 18.875 63.029 18.5782L63.5622 17.6502C63.9991 16.9029 64.1147 16.0104 63.8819 15.1762ZM59.8613 15.4745C60.0024 15.2277 60.2367 15.047 60.5122 14.9736C60.7861 14.9059 61.0756 14.9439 61.3225 15.0803C61.5698 15.2215 61.75 15.4558 61.824 15.7307C61.8916 16.0047 61.8536 16.2942 61.7172 16.541L61.184 17.469L59.328 16.4025L59.8613 15.4745ZM45.3252 45.2512L44.792 44.9419L43.2136 44.0244L44.7279 39.9719L48.0872 41.9127L45.3252 45.2512ZM42.1257 48.333C41.6753 48.019 41.5368 47.4149 41.806 46.9358L42.3393 46.0084L44.1947 47.0749L43.6614 47.9919C43.512 48.2512 43.261 48.4356 42.9688 48.5007C42.6767 48.5653 42.371 48.5048 42.1257 48.333ZM49.3032 40.1641L45.6132 38.0311L54.1451 23.2493L57.835 25.3822L49.3032 40.1641ZM58.9015 23.5372L55.2115 21.4043L57.3445 17.7143L61.0345 19.8472L58.9015 23.5372Z" fill="#212121"/>
<path d="M38.3928 8.54264C38.9817 8.54264 39.4592 8.06564 39.4592 7.47615C39.4592 6.88719 38.9817 6.40967 38.3928 6.40967H10.6641C10.0752 6.40967 9.59766 6.88719 9.59766 7.47615V11.7421C9.59766 12.3316 10.0752 12.8086 10.6641 12.8086H38.3928C38.9817 12.8086 39.4592 12.3316 39.4592 11.7421C39.4592 11.1531 38.9817 10.6756 38.3928 10.6756H11.7306V8.54264H38.3928Z" fill="#212121"/>
<path d="M13.8643 14.9414C13.2754 14.9414 12.7979 15.4189 12.7979 16.0079C12.7979 16.5974 13.2754 17.0744 13.8643 17.0744H35.194C35.783 17.0744 36.2605 16.5974 36.2605 16.0079C36.2605 15.4189 35.783 14.9414 35.194 14.9414H13.8643Z" fill="#212121"/>
<path d="M41.5926 22.4067H18.13C17.541 22.4067 17.0635 22.8843 17.0635 23.4732C17.0635 24.0627 17.541 24.5397 18.13 24.5397H41.5926C42.1816 24.5397 42.6591 24.0627 42.6591 23.4732C42.6591 22.8843 42.1816 22.4067 41.5926 22.4067Z" fill="#212121"/>
<path d="M30.9285 29.8722C30.9285 29.2832 30.451 28.8057 29.862 28.8057H8.53231C7.94334 28.8057 7.46582 29.2832 7.46582 29.8722C7.46582 30.4616 7.94334 30.9386 8.53231 30.9386H29.862C30.451 30.9386 30.9285 30.4616 30.9285 29.8722Z" fill="#212121"/>
<path d="M41.5934 28.8057H34.128C33.539 28.8057 33.0615 29.2832 33.0615 29.8722C33.0615 30.4616 33.539 30.9386 34.128 30.9386H41.5934C42.1824 30.9386 42.6599 30.4616 42.6599 29.8722C42.6599 29.2832 42.1824 28.8057 41.5934 28.8057Z" fill="#212121"/>
<path d="M19.1972 36.2711C19.7861 36.2711 20.2636 35.7941 20.2636 35.2047C20.2636 34.6157 19.7861 34.1382 19.1972 34.1382H8.53231C7.94334 34.1382 7.46582 34.6157 7.46582 35.2047C7.46582 35.7941 7.94334 36.2711 8.53231 36.2711H19.1972Z" fill="#212121"/>
<path d="M23.463 36.2711H30.9284C31.5173 36.2711 31.9948 35.7941 31.9948 35.2047C31.9948 34.6157 31.5173 34.1382 30.9284 34.1382H23.463C22.874 34.1382 22.3965 34.6157 22.3965 35.2047C22.3965 35.7941 22.874 36.2711 23.463 36.2711Z" fill="#212121"/>
<path d="M47.9918 49.0691C47.4029 49.0691 46.9253 49.5466 46.9253 50.1355V60.8004C46.9253 61.3899 46.4478 61.8669 45.8589 61.8669H3.19945C2.61049 61.8669 2.13297 61.3899 2.13297 60.8004V3.2102C2.13297 2.62124 2.61049 2.14371 3.19945 2.14371H45.8589C46.4478 2.14371 46.9253 2.62124 46.9253 3.2102V23.2391C46.9253 23.828 47.4029 24.3056 47.9918 24.3056C48.5808 24.3056 49.0583 23.828 49.0583 23.2391V3.2102C49.0583 1.44331 47.6257 0.0107422 45.8589 0.0107422H3.19945C1.43257 0.0107422 0 1.44331 0 3.2102V60.8004C0 62.5678 1.43257 63.9998 3.19945 63.9998H45.8589C47.6257 63.9998 49.0583 62.5678 49.0583 60.8004V50.1355C49.0583 49.5466 48.5808 49.0691 47.9918 49.0691Z" fill="#212121"/>
<path d="M13.1559 58.974C18.0384 58.974 21.9964 55.016 21.9964 50.1335C21.9964 45.251 18.0384 41.293 13.1559 41.293C8.27346 41.293 4.31543 45.251 4.31543 50.1335C4.31543 55.016 8.27346 58.974 13.1559 58.974Z" fill="#FF8838"/>
<path d="M11.2112 53.7786L8.50742 51.0748C7.89982 50.4976 7.89982 49.5255 8.47704 48.9179C9.05425 48.3103 10.0264 48.3103 10.634 48.8875L10.6644 48.9179L12.3049 50.5584L15.7378 47.1255C16.3454 46.5483 17.2872 46.5483 17.8948 47.1559C18.472 47.7331 18.472 48.6748 17.8948 49.2824L13.3986 53.7786C12.791 54.3559 11.8188 54.3559 11.2112 53.7786Z" fill="#F8F8F5"/>
<path d="M13.1557 59.7332C7.86959 59.7332 3.55566 55.4497 3.55566 50.1332C3.55566 44.8167 7.83921 40.5332 13.1557 40.5332C18.4721 40.5332 22.7557 44.8167 22.7557 50.1332C22.7557 55.4497 18.4721 59.7332 13.1557 59.7332ZM13.1557 42.0522C8.68984 42.0522 5.07465 45.6674 5.07465 50.1332C5.07465 54.599 8.68984 58.2142 13.1557 58.2142C17.6215 58.2142 21.2367 54.599 21.2367 50.1332C21.2367 45.6978 17.6215 42.0826 13.1557 42.0522Z" fill="#212121"/>
<path d="M12.306 54.9638C11.6984 54.9638 11.1212 54.7208 10.6959 54.2954L7.99208 51.5917C7.08069 50.7106 7.08068 49.2828 7.9617 48.3714C8.84271 47.46 10.2706 47.46 11.182 48.341L11.2123 48.3714L12.306 49.4651L15.1921 46.579C16.0731 45.6676 17.5009 45.6676 18.4123 46.5486C19.3237 47.4296 19.3237 48.8575 18.4427 49.7689L18.4123 49.7992L13.9161 54.3258C13.4908 54.7511 12.9136 54.9638 12.306 54.9638ZM11.7592 53.2322C12.063 53.536 12.549 53.536 12.8225 53.2322L17.3187 48.736C17.6225 48.4322 17.6225 47.9461 17.3187 47.6727C17.0149 47.3992 16.5592 47.3992 16.2554 47.6727L12.8225 51.0752C12.5187 51.379 12.0326 51.379 11.7592 51.0752L10.1187 49.4347C9.81486 49.1613 9.35917 49.1613 9.05537 49.4347C8.75157 49.7385 8.75157 50.2246 9.05537 50.498L11.7592 53.2322Z" fill="#212121"/>
</svg>
