<svg width="64" height="64" viewBox="0 0 64 64" fill="none" xmlns="http://www.w3.org/2000/svg">
<g clip-path="url(#clip0)">
<path d="M58.6871 13.1847L14.792 1.42308C12.1246 0.708349 9.38307 2.29132 8.66834 4.95851L1.42162 32.0038C0.706885 34.6711 2.28985 37.4127 4.95704 38.1274L48.8522 49.889C51.5195 50.6038 54.2611 49.0208 54.9758 46.3536L62.2226 19.3083C62.9373 16.641 61.3545 13.8994 58.6871 13.1847Z" fill="#F8F8F5"/>
<path d="M8.21387 6.65088L61.7722 21.0107L59.9452 27.8249L6.38689 13.465L8.21387 6.65088Z" fill="#F8F8F5"/>
<path d="M57.7492 24.751H12.3056C9.54424 24.751 7.30566 26.9896 7.30566 29.7509V57.7503C7.30566 60.5116 9.54424 62.7502 12.3056 62.7502H57.7492C60.5105 62.7502 62.7491 60.5116 62.7491 57.7503V29.7509C62.7491 26.9894 60.5106 24.751 57.7492 24.751Z" fill="#F8F8F5"/>
<path d="M13.751 45H23.7508V50.4999H13.751V45Z" fill="#FF8838"/>
<path d="M29.25 45H40.2498V50.4999H29.25V45Z" fill="#FF8838"/>
<path d="M45.751 45H56.7507V50.4999H45.751V45Z" fill="#FF8838"/>
<path d="M13.3057 31.5005H24.3054V38.5003H13.3057V31.5005Z" fill="#FF8838"/>
<path d="M25.5554 38.5008V31.5009C25.5554 30.8106 24.9958 30.251 24.3054 30.251H13.3056C12.6153 30.251 12.0557 30.8106 12.0557 31.5009V38.5008C12.0557 39.1912 12.6153 39.7508 13.3056 39.7508H24.3054C24.9958 39.7508 25.5554 39.1912 25.5554 38.5008ZM23.0554 37.2508H14.5556V32.7509H23.0554V37.2508Z" fill="#212121"/>
<path d="M24.9988 45.0005C24.9988 44.3101 24.4391 43.7505 23.7488 43.7505H13.749C13.0586 43.7505 12.499 44.3101 12.499 45.0005V50.5003C12.499 51.1907 13.0586 51.7503 13.749 51.7503H23.7488C24.4391 51.7503 24.9988 51.1907 24.9988 50.5003V45.0005ZM22.4988 49.2504H14.999V46.2504H22.4988V49.2504Z" fill="#212121"/>
<path d="M29.25 51.7503H40.2497C40.94 51.7503 41.4997 51.1907 41.4997 50.5003V45.0005C41.4997 44.3101 40.94 43.7505 40.2497 43.7505H29.25C28.5596 43.7505 28 44.3101 28 45.0005V50.5003C28 51.1907 28.5596 51.7503 29.25 51.7503ZM30.4999 46.2504H38.9998V49.2504H30.4999V46.2504Z" fill="#212121"/>
<path d="M44.499 45.0005V50.5003C44.499 51.1907 45.0588 51.7503 45.749 51.7503H56.7488C57.439 51.7503 57.9987 51.1907 57.9987 50.5003V45.0005C57.9987 44.3101 57.439 43.7505 56.7488 43.7505H45.749C45.0588 43.7505 44.499 44.3101 44.499 45.0005ZM46.999 46.2504H55.4988V49.2504H46.999V46.2504Z" fill="#212121"/>
<path d="M56.7625 30.251H46.7627C46.0724 30.251 45.5127 30.8106 45.5127 31.501C45.5127 32.1913 46.0724 32.7509 46.7627 32.7509H56.7625C57.4527 32.7509 58.0124 32.1913 58.0124 31.501C58.0124 30.8106 57.4527 30.251 56.7625 30.251Z" fill="#212121"/>
<path d="M56.7618 36.2505H51.8974C51.2072 36.2505 50.6475 36.8101 50.6475 37.5005C50.6475 38.1908 51.2072 38.7504 51.8974 38.7504H56.7618C57.4521 38.7504 58.0118 38.1908 58.0118 37.5005C58.0118 36.8101 57.4521 36.2505 56.7618 36.2505Z" fill="#212121"/>
<path d="M23.7488 54.75H13.749C13.0586 54.75 12.499 55.3096 12.499 56C12.499 56.6903 13.0586 57.25 13.749 57.25H23.7488C24.4391 57.25 24.9988 56.6903 24.9988 56C24.9988 55.3096 24.4391 54.75 23.7488 54.75Z" fill="#212121"/>
<path d="M40.4997 56C40.4997 55.3096 39.94 54.75 39.2498 54.75H29.25C28.5596 54.75 28 55.3096 28 56C28 56.6903 28.5596 57.25 29.25 57.25H39.2498C39.9401 57.25 40.4997 56.6903 40.4997 56Z" fill="#212121"/>
<path d="M61.9563 25.1331L63.4303 19.6317C63.8624 18.0192 63.6407 16.3349 62.8059 14.8892C61.9712 13.4435 60.6235 12.4092 59.011 11.9772L15.1158 0.215626C13.5035 -0.216365 11.8192 0.00525517 10.3734 0.839862C8.92772 1.67459 7.89349 3.02232 7.4615 4.63478L0.214658 31.6802C-0.677323 35.009 1.30526 38.4428 4.63394 39.3348L6.05578 39.7158V57.7501C6.05578 61.1963 8.85947 64 12.3056 64H29.4025C30.0929 64 30.6525 63.4404 30.6525 62.75C30.6525 62.0597 30.0929 61.5001 29.4025 61.5001H12.3056C10.2379 61.5001 8.55573 59.8178 8.55573 57.7501V29.7507C8.55573 27.683 10.2379 26.0008 12.3056 26.0008H57.7493C59.817 26.0008 61.4992 27.683 61.4992 29.7507V57.7501C61.4992 59.8178 59.817 61.5001 57.7493 61.5001H40.6524C39.9622 61.5001 39.4024 62.0597 39.4024 62.75C39.4024 63.4404 39.9622 64 40.6524 64H57.7492C61.1954 64 63.999 61.1963 63.999 57.7501V29.7507C63.999 27.9234 63.2107 26.2769 61.9563 25.1331ZM11.6234 3.00494C12.4908 2.50408 13.5014 2.37108 14.4689 2.63032L58.364 14.3919C59.3315 14.6512 60.1401 15.2717 60.641 16.1392C61.1418 17.0065 61.2748 18.0171 61.0156 18.9846L60.8862 19.4676L9.7467 5.76488L9.87608 5.28202C10.1354 4.31441 10.7559 3.50581 11.6234 3.00494ZM6.05578 29.7507V37.1276L5.28105 36.92C4.31344 36.6607 3.50484 36.0402 3.0041 35.1727C2.50323 34.3054 2.37024 33.2948 2.62948 32.3272L7.27401 14.9933L39.0246 23.5009H12.3056C8.85935 23.5009 6.05578 26.3046 6.05578 29.7507ZM48.6835 23.5009L7.92099 12.5786L9.09972 8.17971L60.2391 21.8824L59.7196 23.821C59.0996 23.6144 58.4377 23.5009 57.7492 23.5009H48.6835Z" fill="#212121"/>
<path d="M35.0273 61.5C34.6986 61.5 34.3761 61.6338 34.1436 61.8663C33.9112 62.0988 33.7773 62.4212 33.7773 62.75C33.7773 63.0787 33.9111 63.4012 34.1436 63.6337C34.3761 63.8662 34.6986 64 35.0273 64C35.3561 64 35.6786 63.8662 35.9111 63.6337C36.1435 63.4012 36.2773 63.0787 36.2773 62.75C36.2773 62.4212 36.1436 62.0988 35.9111 61.8663C35.6786 61.6338 35.3561 61.5 35.0273 61.5Z" fill="#212121"/>
</g>
<defs>
<clipPath id="clip0">
<rect width="64" height="64" fill="white"/>
</clipPath>
</defs>
</svg>
