<svg width="566" height="566" viewBox="0 0 566 566" fill="none" xmlns="http://www.w3.org/2000/svg">
<path opacity="0.5" d="M464.146 483.295C464.146 483.295 243.44 480.431 113.746 482.288C41.0056 483.33 19.5781 506.315 28.2514 515.705C57.6566 547.477 189.865 517.021 247.942 523.211C285.693 527.218 343.983 550.358 379.427 540.237C392.998 536.353 403.678 528.64 417.34 524.934C436.508 519.753 457.798 523.996 478.305 524.48C538.594 525.89 556.311 486.822 464.146 483.295Z" fill="#EEEEEE"/>
<path fill-rule="evenodd" clip-rule="evenodd" d="M439.24 421.279L439.178 421.157C442.996 424.687 447.085 427.911 451.408 430.801C452.018 431.152 452.693 431.377 453.392 431.462C453.945 431.501 444.585 405.352 443.906 402.53C443.804 401.237 444.736 401.507 449.393 398.945C449.249 398.236 448.853 396.632 448.717 395.738C447.053 395.533 445.377 395.435 443.7 395.447C440.946 395.306 438.185 395.362 435.439 395.613H435.416H435.444H435.427H435.454C435.479 395.603 435.502 395.59 435.524 395.573L435.59 395.517L435.671 395.39C435.71 395.091 435.793 395.051 435.327 395.657L434.843 395.279C434.828 395.168 434.857 395.055 434.924 394.964C434.972 394.904 435.033 394.854 435.101 394.818C435.17 394.782 435.245 394.761 435.322 394.755C436.716 394.458 447.764 393.449 449.727 394.215C450.464 394.536 450.409 395.053 450.498 395.477C451.558 400.426 452.668 399.539 448.132 401.922C447.327 402.343 446.336 402.85 446.246 402.898C454.879 428.835 456.322 431.213 455.039 432.792C454.043 433.909 452.021 433.267 450.73 432.535C448.798 431.258 446.966 429.833 445.253 428.273C441.565 424.972 439.548 422.717 439.352 422.523C438.654 421.828 438.503 421.779 438.408 421.542C438.387 421.476 438.382 421.406 438.394 421.338C438.405 421.27 438.433 421.206 438.474 421.151L439.086 421.057C439.216 421.872 439.154 421.796 439.24 421.279ZM453.626 431.452H453.641H453.626ZM453.626 431.452H453.649L453.624 431.464L453.655 431.452H453.628H453.653H453.626ZM449.476 399.428V399.449V399.415V399.428ZM449.027 395.823H449.015H449.04H449.021H449.04L448.998 395.804L449.027 395.823ZM449.013 395.823H448.998H449.013Z" fill="#212121"/>
<path fill-rule="evenodd" clip-rule="evenodd" d="M364.926 210.252C362.756 211.678 362.473 212.19 361.021 212.959C358.389 214.168 355.654 215.136 352.848 215.852C344.669 218.106 335.95 217.321 328.306 213.642C321.287 210.156 317.842 203.537 320.167 196.017C321.08 193.063 323.619 190.663 323.94 187.493C324.468 182.341 321.782 177.494 322.914 172.258C323.521 169.379 324.706 166.652 326.396 164.243C328.086 161.834 330.246 159.792 332.747 158.24C335.741 156.44 339.488 156.008 342.575 154.378C346.01 152.565 348.633 149.235 351.355 146.575C354.143 143.838 357.642 141.936 361.455 141.083C369.414 139.613 375.154 141.211 376.829 142.275C380.018 144.655 383.337 146.855 386.772 148.864C393.419 151.865 399.499 147.732 410.949 156.631C415.892 160.476 416.508 169.257 414.779 174.851C414.008 177.347 412.638 180.245 412.808 182.939C413.115 187.835 419.232 189.787 420.441 194.396C421.49 198.096 421.376 202.028 420.113 205.66C417.387 212.218 409.099 218.019 402.473 220.015C394.36 222.468 382.851 223.44 375.354 218.682C372.607 216.936 370.522 214.644 367.982 212.742C367.099 212.078 365.983 210.363 364.926 210.252Z" fill="#212121"/>
<path fill-rule="evenodd" clip-rule="evenodd" d="M367.919 139.41C370.974 139.351 374.009 139.906 376.845 141.043C379.088 142.145 384.522 146.964 388.146 148.241C393.096 149.954 397.698 148.164 405.486 151.892C408.394 153.27 411.038 155.146 413.299 157.435C415.71 160.767 416.915 164.822 416.716 168.93C416.581 172.481 415.798 175.978 414.404 179.247C412.599 185.331 415.395 185.929 419.251 190.353C420.858 192.142 421.799 194.43 421.915 196.832C422.375 199.799 422.099 202.834 421.112 205.669C418.529 212.297 410.527 218.059 403.835 220.385C396.423 222.923 386.053 223.798 378.529 220.9C373.986 219.125 371.836 216.484 368.507 213.75C367.683 213.076 367.675 213.124 367.279 212.741C366.538 212.016 365.74 210.952 365.025 210.714C363.713 211.768 362.326 212.724 360.874 213.575C357.07 215.249 353.096 216.507 349.022 217.329C336.738 219.306 319.865 214.644 318.647 201.858C318.1 195.255 321.399 192.2 322.561 189.218C323.14 187.394 323.244 185.453 322.865 183.578C322.003 177.541 320.586 175.149 322.865 168.881C323.825 166.165 325.312 163.666 327.241 161.526C329.169 159.386 331.501 157.647 334.102 156.41C337.31 155.048 340.309 154.652 343.037 152.903C349.977 148.386 352.127 139.41 367.919 139.41ZM356.41 144.138C351.977 146.651 350.484 149.388 346.713 152.731C343.004 155.982 340.943 156.195 336.545 157.699C333.72 158.721 331.167 160.38 329.083 162.545C327 164.711 325.443 167.327 324.531 170.191C323.655 172.533 323.406 175.063 323.809 177.532C324.26 180.903 325.293 184.229 324.861 187.759C324.209 192.517 320.214 194.174 320.309 200.866C320.475 212.509 335.402 217.28 346.743 216.416C350.984 215.892 355.144 214.844 359.127 213.297C361.131 212.426 363.003 211.278 364.687 209.886C364.749 209.848 364.818 209.823 364.891 209.814C364.963 209.805 365.037 209.813 365.106 209.835C366.336 210.09 366.904 211.307 368.866 212.818C372.381 215.573 374.373 218.053 378.746 219.742C385.976 222.521 396.13 221.385 403.009 219.027C409.156 216.861 414.461 212.807 418.166 207.445C419.588 205.18 420.293 202.539 420.189 199.868C420.245 197.537 419.777 195.224 418.819 193.099C416.729 189.653 411.761 187.627 411.761 182.42C411.789 178.711 413.825 175.854 414.403 171.579C415.029 166.691 414.137 160.518 410.284 157.474C400.837 150.167 395.236 152.003 389.355 150.813C384.991 149.898 382.39 147.402 377.271 143.872C375.839 142.802 374.144 142.14 372.366 141.955C366.95 140.942 361.352 141.709 356.408 144.141L356.41 144.138Z" fill="#212121"/>
<path fill-rule="evenodd" clip-rule="evenodd" d="M337.828 267.831C328.406 265.833 281.862 217.244 279.455 206.671C276.927 195.564 283.509 170.447 285.998 158.716C286.957 154.596 288.128 150.528 289.505 146.528L304.848 148.869C304.848 148.869 297.563 178.318 300.391 195.459C301.052 199.455 305.551 200.681 309.447 202.473C317.071 205.981 361.11 209.912 390.861 217.118C403.954 220.289 415.985 227.179 427.085 235.041C434.511 240.305 444.521 249.336 448.404 257.8C454.264 270.542 452.932 285.807 454.126 299.363C454.938 308.547 455.424 313.392 459.709 321.648C460.409 322.999 466.429 331.459 464.192 333.483C461.069 336.313 458.071 329.067 458.071 329.067C458.071 329.067 459.903 334.559 458.037 335.595C454.453 337.583 452.507 330.21 452.507 330.21C452.507 330.21 455.526 341.736 455.496 343.09C455.447 344.777 452.477 346.717 450.762 342.641C449.064 338.615 445.102 329.189 445.102 329.189C445.102 329.189 440.565 331.68 440.044 331.95C438.837 332.576 434.424 330.491 437.01 327.763C437.79 326.942 442.482 325.139 442.408 324.818C440.305 315.07 436.956 305.487 434.022 295.854C433.02 292.564 431.224 283.821 431.224 283.821C431.224 283.821 416.519 275.372 412.169 272.512C394.572 260.967 397.69 259.519 383.395 262.09C377.826 263.086 343.288 268.99 337.828 267.831Z" fill="white"/>
<path fill-rule="evenodd" clip-rule="evenodd" d="M305.148 147.958C305.351 148.025 305.527 148.158 305.646 148.336C305.765 148.514 305.822 148.727 305.806 148.941C305.776 149.13 300.003 172.739 300.842 189.848C300.927 191.823 301.147 193.79 301.499 195.736C302.314 198.681 306.078 199.887 310.038 201.604C318.879 205.33 376.884 210.697 398.471 218.257C413.869 223.715 434.611 236.797 445.185 250.551C457.045 266.182 453.053 284.751 455.939 306.451C457.507 317.983 461.83 322.473 464.25 327.312C465.224 329.286 466.425 332.076 465.278 333.834C464.953 334.282 464.518 334.641 464.017 334.875C463.515 335.11 462.961 335.213 462.409 335.176C461.45 335.034 460.568 334.568 459.911 333.855C459.935 334.408 459.805 334.956 459.535 335.439C459.266 335.921 458.867 336.32 458.384 336.589C457.887 336.855 457.328 336.987 456.763 336.971C456.199 336.955 455.648 336.792 455.166 336.498C455.792 338.732 456.238 341.012 456.502 343.317C456.412 343.996 456.105 344.627 455.626 345.117C455.148 345.607 454.524 345.929 453.848 346.035C453.171 346.141 452.479 346.025 451.873 345.706C451.268 345.386 450.782 344.879 450.489 344.26C449.762 343.128 445.395 332.284 444.625 330.567C440.286 332.936 440.314 333.019 439.459 333.019C436.786 332.972 433.894 330.248 435.999 327.503C436.916 326.325 438.363 325.943 441.282 324.471C441.414 324.403 441.389 324.471 441.308 324.105C437.614 307.41 434.516 303.763 430.524 284.364V284.33C410.971 272.995 410.41 272.322 400.996 265.586C394.77 261.139 393.555 260.951 384.159 262.567C375.116 264.148 349.592 268.299 340.347 268.416C339.476 268.469 338.603 268.415 337.745 268.254C328.365 266.256 281.002 217.772 278.644 206.42C276.742 196.987 280.655 178.939 282.734 169.404C283.974 162.826 285.548 156.315 287.451 149.898C288.701 145.883 288.677 145.994 289.039 145.728C289.52 145.49 288.354 145.407 302.04 147.468C305.395 147.981 304.934 147.915 305.148 147.958ZM431.828 283.296C432.152 283.745 432.377 285.99 434.139 293.09C435.499 298.475 442.238 317.792 443.333 324.727C443.374 325.769 442.48 325.912 439.152 327.557C438.327 327.976 437.199 328.48 437.159 329.401C437.12 330.321 438.901 331.259 439.612 331.086C444.302 328.646 444.568 328.042 445.421 328.256C446.076 328.544 445.697 328.078 450.079 338.444C451.73 342.349 451.73 342.381 451.936 342.772C452.178 343.332 452.626 343.777 453.187 344.017C453.438 344.053 453.695 344.005 453.916 343.88C454.137 343.755 454.311 343.561 454.409 343.326C454.762 342.555 451.992 332.538 451.509 330.467C451.453 330.248 451.47 330.016 451.557 329.808C451.644 329.599 451.798 329.425 451.993 329.312C452.189 329.199 452.416 329.152 452.641 329.18C452.865 329.208 453.074 329.309 453.236 329.467C453.626 329.931 453.458 330.18 454.224 331.935C454.717 333.033 455.779 335.032 456.971 334.872C457.178 334.839 457.376 334.765 457.554 334.655C457.736 334.363 457.83 334.025 457.824 333.682C457.842 333.147 457.806 332.611 457.718 332.084C457.3 329.371 456.519 328.865 457.543 328.148C457.75 328.028 457.992 327.982 458.229 328.019C458.465 328.056 458.682 328.172 458.843 328.35C459.522 329.88 460.443 331.29 461.571 332.527C462.265 333.119 462.805 333.3 463.478 332.691C463.667 332.516 463.878 331.718 462.869 329.374C460.794 324.601 458.79 323.371 456.143 316.336C449.745 299.231 455.922 272.289 445.985 255.553C437.535 241.561 415.936 227.515 400.962 221.491C378.645 212.641 318.75 207.758 308.472 203.162C304.868 201.575 300.838 200.257 299.604 196.559C298.806 192.109 298.528 187.581 298.778 183.067C299.403 171.801 301.037 160.615 303.661 149.641C288.675 147.326 290.149 147.473 290.077 147.696C288.481 152.333 287.189 157.069 286.209 161.874C284.158 171.496 277.644 196.534 280.223 206.65C283.038 217.199 328.41 265.207 337.919 267.386C343.768 268.543 380.354 261.949 385.765 261.019C398.658 258.832 395.966 261.79 414.923 273.355C422.515 277.989 431.528 283 431.828 283.296Z" fill="#212121"/>
<path fill-rule="evenodd" clip-rule="evenodd" d="M171.066 349.222C171.511 349.42 171.526 349.467 172.375 350.901C175.624 356.444 211.514 419.796 211.539 420.47C211.141 432.114 209.841 470.112 209.639 481.975C216.733 480.509 284.419 463.967 285.039 463.348C285.322 463.009 285.249 462.084 284.975 460.979C281.328 446.731 243.182 392.653 243.14 392.421C243.363 392.4 243.987 392.34 243.14 392.421C241.14 371.871 234.443 321.814 226.177 303.797C224.442 300.24 214.016 300.816 210.05 301.108C201.971 301.746 202.305 302.378 196.834 302.176C193.842 301.901 190.832 301.901 187.84 302.176C179.867 303.342 171.815 303.885 163.757 303.799C161.459 303.848 150.605 304.042 148.494 304.763C145.036 306.141 141.674 307.749 138.43 309.574C118.243 320.618 95.5388 338.011 82.1171 357.455C77.9249 363.574 72.4592 373.326 71.7404 380.741C70.5518 393.415 75.1515 416.614 78.0985 429.052C78.3984 430.298 78.4192 428.939 77.5777 436.942L74.5591 465.542C89.6864 463.794 146.543 457.052 161.476 453.404C163.766 452.826 163.251 452.847 163.44 452.847C159.629 447.602 142.702 425.977 138.738 420.913C136.966 418.649 139.508 424.055 124.256 388.219C124.166 388.006 124.147 387.769 124.201 387.544C124.433 386.835 163.387 354.769 163.576 354.614C170.347 349.06 170.177 349.005 171.066 349.222ZM226.689 302.148C228.239 303.821 231.188 314.292 231.783 316.486C237.616 338.147 242.333 373.237 243.991 392.228C250.091 400.783 285.892 451.766 286.541 462.329C286.62 463.982 285.96 464.512 284.973 464.816C278.623 466.731 220.368 481.43 210.197 483.617C209.645 483.8 209.061 483.864 208.482 483.805C207.699 483.462 207.824 483.704 208.075 472.644C208.388 459.03 209.118 434.345 209.55 420.664C209.361 420.664 178.19 364.906 170.422 351.752C169.115 352.801 126.339 388.108 126.552 388.108L139.381 418.214L140.445 419.574C143.819 423.879 162.344 447.538 165.504 452C166.4 453.275 166.602 454.043 164.142 454.9C153.21 458.618 73.612 468.065 72.812 467.672C72.636 467.569 72.4937 467.416 72.402 467.233C72.3103 467.051 72.2732 466.846 72.2951 466.642C75.959 432.041 75.2062 439.156 76.1684 430.077C73.2063 417.74 67.3897 389.182 70.2688 376.873C71.3932 373.068 72.883 369.38 74.7175 365.862C79.0347 357.709 84.4496 350.187 90.8108 343.505C110.243 322.654 139.843 305.363 148.641 302.872C151.307 302.163 167.849 302.101 173.515 301.901C178.472 301.775 183.416 301.316 188.312 300.525C192.038 300.129 195.783 300.748 199.505 300.676C203.092 300.601 221.776 297.093 226.689 302.148Z" fill="#212121"/>
<path fill-rule="evenodd" clip-rule="evenodd" d="M112.475 462.494C112.398 462.82 95.7405 475.457 97.5026 478.719C100.255 483.813 130.395 467.722 135.826 464.475C136.421 466.013 136.877 467.601 137.189 469.22L142.437 468.707C142.437 468.707 142.485 461.658 142.319 458.436" fill="#212121"/>
<path fill-rule="evenodd" clip-rule="evenodd" d="M112.133 462.233L112.116 462.252L112.099 462.273C112.081 462.301 112.066 462.33 112.053 462.36L112.619 462.105L112.874 462.671C112.685 463.156 97.8976 475.383 98.3467 478.24V478.223C98.4655 478.966 100.694 478.694 101.435 478.581C111.785 476.932 135.339 463.631 135.555 463.552C135.81 463.485 136.081 463.515 136.314 463.637C136.547 463.759 136.726 463.965 136.816 464.212C137.256 465.543 137.608 466.901 137.87 468.278C137.916 468.499 137.346 468.488 141.708 468.059C141.708 467.561 141.78 466.518 141.861 462.277C141.934 457.794 141.708 458.669 142.285 458.024C142.938 458.62 142.678 458.371 142.753 458.59C142.968 461.494 143.185 468.427 143.153 468.85C143.131 468.991 143.069 469.122 142.975 469.23C142.881 469.337 142.758 469.415 142.621 469.455C142.432 469.493 137.272 470.112 136.989 470.076C136.83 470.043 136.683 469.965 136.566 469.851C136.448 469.738 136.366 469.593 136.327 469.435C136.123 468.62 135.652 466.824 135.367 465.907C129.535 469.354 104.109 483.066 97.9184 480.375C93.3791 478.33 99.8485 472.418 103.592 469.137C106.222 466.844 112.295 462.069 112.093 462.271L112.133 462.233ZM135.086 465.044L135.097 465.065L135.08 465.033L135.086 465.044Z" fill="#212121"/>
<path fill-rule="evenodd" clip-rule="evenodd" d="M239.607 475.544C239.578 475.544 247.366 490.22 249.968 491.852C251.136 492.584 257.683 490.211 257.752 489.488C258.243 484.422 258.794 475.732 257.679 470.867" fill="#212121"/>
<path fill-rule="evenodd" clip-rule="evenodd" d="M240.011 475.383C241.109 477.223 248.672 489.552 250.474 490.905C252.655 490.683 254.773 490.042 256.711 489.018C257.017 485.892 257.123 484.245 257.277 481.987C258.193 469.391 256.574 472.044 257.572 470.444L258.089 470.776C259.176 475.888 259.508 481.133 259.072 486.341C258.825 489.756 258.955 490.02 258.159 490.641C256.067 491.861 253.762 492.671 251.367 493.027C250.679 493.166 249.965 493.062 249.346 492.731C246.45 490.788 240.509 478.855 239.245 475.825C239.154 475.617 239.067 475.214 239.547 475.114L239.977 475.444L240.011 475.383Z" fill="#212121"/>
<path fill-rule="evenodd" clip-rule="evenodd" d="M75.3687 160.891C95.0882 183.195 145.287 213.539 158.773 211.795C167.959 210.607 176.394 214.557 184.809 212.28C206.703 206.354 254.402 212.731 259.16 242.995C260.041 249.17 259.93 255.446 258.83 261.586C257.168 271.571 250.633 279.302 246.325 287.913C244.039 292.488 240.724 296.969 238.59 301.24C237.813 302.799 240.031 312.292 239.743 312.428C204.192 329.22 187.201 323.999 187.201 323.999C185.414 323.999 175.36 227.992 176.556 223.936C176.83 223.012 167.625 224.111 166.997 223.483C166.865 223.353 164.634 302.331 162.459 321.152C162.338 322.703 162.116 324.245 161.793 325.767C159.382 328.335 104.438 319.465 105.65 316.545C105.774 316.243 124.516 243.286 121.594 241.573C62.7733 207.177 56.2832 171.915 56.2832 171.915C56.2832 171.915 73.133 160.891 75.3687 160.891Z" fill="#212121"/>
<path fill-rule="evenodd" clip-rule="evenodd" d="M163.038 210.818C171.667 210.971 176.914 213.469 185.253 211.324C199.386 207.703 221.774 209.06 238.269 216.852C257.345 225.949 262.984 239.827 260.056 260.313C258.911 267.999 256.226 272.887 252.155 279.745C247.11 288.196 248.03 287.037 246.336 290.122C243.98 294.394 239.544 300.876 239.482 302.135C239.76 305.504 240.207 308.858 240.821 312.183C240.867 313.304 240.444 313.336 235.693 315.436C228.619 318.608 221.296 321.191 213.797 323.16C195.739 327.699 187.166 325.046 186.976 325.046C185.936 324.776 185.774 323.411 185.523 322.201C182.648 307.785 175.063 233.411 175.394 224.66C174.275 224.577 171.492 224.725 169.781 224.766C168.687 224.789 167.83 224.766 168.024 224.766C167.513 236.905 165.585 306.081 163.153 324.152C162.896 325.999 162.983 326.727 161.293 327.093C154.225 328.45 112.643 321.548 106.079 318.301C105.255 317.883 104.538 317.345 104.676 316.415C104.719 316.226 121.831 250.57 121.09 242.44C121.037 241.884 121.656 242.767 112.939 237.179C90.937 223.004 65.6896 200.953 56.977 176.149C56.4418 174.727 56.0468 173.257 55.7979 171.758C55.9639 171.368 70.8006 161.948 74.5419 160.636C75.2192 160.406 75.4852 160.416 75.6871 160.604C75.472 160.793 75.1569 161.072 75.6871 160.604C87.2863 173.547 106.994 187.323 122.067 196.232C130.321 201.087 145.75 209.475 155.193 210.927C158.691 211.469 158.334 210.771 163.038 210.818ZM167.402 222.478C167.402 222.855 175.007 222.144 176.671 222.666C177.013 222.766 177.306 222.991 177.49 223.296C177.572 223.448 177.623 223.615 177.64 223.787C177.657 223.959 177.639 224.133 177.588 224.298C176.771 230.713 185.648 315.047 187.923 323.073C202.043 326.299 225.041 318.167 238.659 311.774C238.046 307.885 237.005 302.993 237.527 301.112C237.965 299.725 242.34 292.884 243.804 290.377C245.493 287.458 245.423 287.219 247.245 284.009C250.477 278.323 254.005 273.24 256.243 267.277C258.801 259.265 259.426 250.762 258.067 242.463C256.548 234.684 252.037 227.812 245.504 223.325C230.292 212.069 202.854 208.501 185.401 212.948C175.779 215.455 168.524 211.361 158.974 212.505C152.322 213.354 139.541 207.131 133.557 204.056C116.388 195.189 94.9575 180.714 80.7679 167.115C74.5419 161.095 75.5135 161.229 74.9664 161.401C71.7308 162.465 59.7014 170.268 56.8544 172.132C57.6977 175.304 58.8444 178.388 60.2787 181.341C72.027 206.056 97.28 226.3 120.975 240.273C122.35 241.08 122.827 240.967 122.686 243.848C121.992 255.304 108.924 308.323 106.706 316.394C112.017 319.447 154.986 326.314 160.902 325.02C162.059 318.209 162.932 299.623 163.296 292.064C166.56 221.985 165.183 223.578 166.36 222.595C166.51 222.489 166.684 222.424 166.866 222.403C167.048 222.383 167.232 222.408 167.402 222.478ZM167.73 222.687L167.664 222.627L167.73 222.687Z" fill="#212121"/>
<path fill-rule="evenodd" clip-rule="evenodd" d="M60.396 172.373H60.3715H60.3847H60.3602H60.3734H60.3488H60.362L60.3375 172.385H60.3507L60.3262 172.396H60.3394L60.3149 172.407H60.3281L60.3054 172.421H60.3168L60.296 172.436H60.3073L60.2885 172.451H60.2998L60.2809 172.468H60.2922L60.2753 172.485L60.2866 172.473L60.2715 172.49L60.2828 172.479L60.2677 172.496L60.279 172.483L60.8941 172.411L60.9658 173.026C60.8402 173.175 60.6635 173.272 60.4702 173.298C60.2769 173.324 60.0809 173.277 59.9206 173.166C58.625 172.035 57.4324 170.792 56.3567 169.451C55.0194 167.971 54.1651 166.118 53.9078 164.14C53.6799 163.26 53.6592 162.339 53.8471 161.45C54.035 160.56 54.4264 159.727 54.9907 159.014C55.5209 158.259 55.9586 157.657 56.4831 157.014C56.8378 156.582 57.2132 156.188 57.2377 155.94V155.961V155.933V155.961C57.0019 153.375 50.8231 144.371 51.523 139.996C51.5621 139.566 51.7082 139.152 51.9481 138.792C52.1879 138.432 52.5139 138.138 52.8963 137.936C53.2787 137.735 53.7055 137.632 54.1378 137.637C54.5702 137.642 54.9944 137.755 55.3718 137.966C57.3959 139.312 59.1162 141.067 60.4224 143.117C62.6864 146.249 65.8938 151.665 66.3447 152.06C68.6476 153.615 70.68 155.537 72.3612 157.75C73.5497 159.917 74.5331 162.191 75.2988 164.542C75.4253 165.117 75.6203 165.675 75.8799 166.204V166.193L75.9082 166.23L75.895 166.217L75.9214 166.245L75.9063 166.23L75.9252 166.249L75.9063 166.234L75.927 166.251L75.912 166.24H75.9214H75.9101H75.9195L75.9082 166.23H75.895H75.9044L76.0761 166.819L75.4893 166.989C74.8309 166.649 74.4592 165.085 74.2083 164.512C73.3027 162.33 72.1888 160.24 70.8821 158.272C69.2445 156.144 65.9334 154.352 64.8448 153.316C63.4411 151.967 56.5434 139.813 53.9983 139.813C52.689 140.462 55.1001 145.869 55.2756 146.275C57.8452 152.133 59.6149 154.886 59.1244 156.561C58.8471 157.403 58.4207 157.674 57.2773 159.072C57.1245 159.261 55.9567 160.723 55.8208 160.995C55.3384 162.54 55.3384 164.196 55.8208 165.742C56.5791 167.628 57.6843 169.356 59.0791 170.836C59.4615 171.39 59.9087 171.897 60.4111 172.345H60.3941L60.43 172.364H60.4205H60.4413H60.43H60.4488H60.4375H60.4526H60.4394H60.4545H60.4394H60.4545H60.413H60.3903L60.396 172.373Z" fill="#212121"/>
<path fill-rule="evenodd" clip-rule="evenodd" d="M151.198 210.769C153.574 211.558 156.073 211.913 158.575 211.818C158.903 213.757 168.455 250.998 171.651 262.165C171.651 262.165 157.879 232.586 156.539 231.241C156.318 231.022 143.838 233.918 143.547 233.628C143.449 233.53 148.192 219.595 151.198 210.769Z" fill="white"/>
<path fill-rule="evenodd" clip-rule="evenodd" d="M159.365 212.627C159.414 212.816 170.155 253.002 172.457 261.067C172.7 261.916 172.964 262.388 172.336 263.003C172.151 263.154 171.921 263.24 171.682 263.246C171.443 263.252 171.208 263.179 171.016 263.037C170.321 262.426 162.326 244.303 156.866 233.816C156.645 233.396 156.3 232.754 156.043 232.318C155.335 232.428 154.345 232.62 153.698 232.743C144.198 234.588 143.449 234.886 142.846 234.135C142.506 233.569 142.544 233.688 144.661 227.687C151.196 209.211 150.798 210.252 151.328 210.358C159.594 212.527 158.669 209.88 159.365 212.627ZM144.736 232.609C157.354 230.188 156.622 229.239 157.964 231.535C158.988 233.298 160.699 236.737 161.595 238.546C168.765 253.059 167.661 252.319 165.803 244.82C165.193 242.31 165.51 243.261 165.006 241.325C163.235 234.367 159.071 217.229 158.09 212.435C155.843 212.385 153.616 212.005 151.479 211.307C150.745 213.616 145.444 230.253 144.736 232.603V232.609ZM144.406 233.769V233.749V233.769Z" fill="#212121"/>
<path fill-rule="evenodd" clip-rule="evenodd" d="M193.436 210.724C194.77 218.031 197.117 237.703 196.889 238.063C196.853 238.12 185.758 236.58 185.758 236.58C185.758 236.58 173.145 260.003 171.883 262.077C170.659 248.617 176.175 225.202 176.549 223.936C176.624 223.681 175.983 223.581 174.998 223.559C175.588 221.295 176.198 217.293 176.902 212.942C184.078 213.361 184.299 211.703 193.436 210.724Z" fill="white"/>
<path fill-rule="evenodd" clip-rule="evenodd" d="M177.439 212.229C183.069 212.586 183.99 211.571 189.634 210.72C189.989 210.669 193.183 210.243 193.534 210.294C193.617 210.312 193.692 210.355 193.75 210.416C193.808 210.477 193.848 210.554 193.863 210.637C193.51 210.701 193.591 210.688 193.863 210.637C195.202 217.308 197.483 233.505 197.779 237.416C197.819 238.018 197.857 238.369 197.466 238.746C196.97 239.111 197.155 239.107 186.32 237.663C185.616 238.984 173.537 261.624 172.705 262.775C172.546 262.96 172.329 263.086 172.09 263.133C171.85 263.179 171.602 263.144 171.385 263.032C170.77 262.654 170.79 262.407 170.687 260.502C170.189 250.125 172.951 234.307 175.435 224.483C174.86 224.438 174.358 224.5 174.115 223.761C174.019 223.151 174.115 224.138 175.39 217.199C176.369 211.761 176.111 212.89 176.245 212.58C176.577 212.075 176.979 212.201 177.439 212.229ZM185.727 235.575C186.063 235.592 193.747 236.726 195.96 237.037C195.677 232.685 194.044 217.491 193.07 211.209C184.727 212.32 184.114 213.873 177.537 213.705L177.464 214.157H177.482C177.277 215.584 176.539 220.74 176.133 222.71C176.376 222.716 176.614 222.78 176.828 222.896C177.041 223.013 177.223 223.178 177.36 223.379C177.626 223.908 177.535 223.642 176.654 227.819C174.411 237.812 173.12 247.995 172.798 258.232C185.918 234.411 184.729 235.696 185.727 235.575ZM176.041 224.587H176.026H176.047H176.024H176.041ZM176.041 224.587H176.015H176.041Z" fill="#212121"/>
<path fill-rule="evenodd" clip-rule="evenodd" d="M243.046 263.115L243.612 263.373L243.348 263.928C234.394 268.078 218.067 266.354 211.514 261.664L211.365 261.064L211.967 260.913C217.87 263.813 235.149 265.226 243.046 263.115Z" fill="#212121"/>
<path fill-rule="evenodd" clip-rule="evenodd" d="M224.573 300.557C223.147 301.963 223.543 305.227 222.168 306.646C221.715 307.112 220.911 306.346 220.272 306.346C218.029 306.346 215.431 305.5 214.438 307.549C212.686 311.164 220.534 310.349 220.127 311.611C218.746 315.885 217.18 320.426 215.749 324.85C215.155 326.69 214.806 329.001 216.042 330.265C217.161 331.42 218.872 327.131 219.106 326.654C220.559 323.654 221.679 320.616 222.898 317.477C223.412 316.025 224.043 314.616 224.785 313.266C224.785 313.266 223.892 315.709 223.326 316.877C222.538 318.505 219.512 324.373 220.847 325.744C221.964 326.895 223.274 324.765 223.764 324.09C226.095 321.128 227.739 317.686 228.577 314.011C228.651 313.777 228.322 315.402 228.286 315.521C228.115 316.053 227.075 319.384 227.556 319.883C228.66 321.015 229.324 320.573 230.764 319.583C232.86 318.141 236.235 307.48 236.016 307.246C234.207 305.374 224.573 300.557 224.573 300.557Z" fill="white"/>
<path fill-rule="evenodd" clip-rule="evenodd" d="M220.28 305.64C220.794 305.722 221.292 305.882 221.757 306.115H221.742H221.761C222.876 304.957 222.659 301.695 224.213 300.199C224.436 300.42 224.415 300.401 224.213 300.199C224.269 300.142 224.337 300.1 224.412 300.075C224.487 300.051 224.567 300.044 224.645 300.057C228.55 301.816 232.327 303.843 235.95 306.125C236.494 306.538 236.767 306.751 236.835 307.157C236.969 308.298 233.771 318.603 231.46 320.399C230.339 321.246 229.222 321.997 227.928 321.49C227.053 321.145 227.309 320.877 227.085 321.275C226.613 322.101 226.213 322.733 225.7 323.499C224.319 325.537 222.721 328.216 220.544 327.072C220.104 326.822 220.583 326.714 219.244 329.174C218.814 330.137 218.104 330.947 217.206 331.5C216.932 331.629 216.628 331.683 216.326 331.658C216.024 331.633 215.734 331.53 215.484 331.359C214.913 330.908 214.492 330.294 214.278 329.599C213.431 326.982 214.359 325.186 218.959 311.906C217.161 311.392 213.622 311.217 213.324 308.776C213.3 308.238 213.41 307.703 213.644 307.218C213.879 306.734 214.23 306.315 214.667 306C216.223 304.938 218.342 305.581 220.28 305.64ZM229.077 312.911C229.278 313.002 229.45 313.146 229.575 313.328C229.7 313.509 229.773 313.721 229.787 313.941C229.721 315.324 228.655 317.884 228.568 319.301C228.623 319.349 228.681 319.391 228.743 319.43L228.789 319.45H228.768H228.792H228.772H228.794H228.773H228.796H228.775H228.798H228.777H228.798H228.777C228.893 319.44 229.006 319.405 229.107 319.348C230.228 318.824 231.1 317.883 231.537 316.726C233.018 313.781 234.229 310.707 235.154 307.544C231.825 305.183 228.332 303.062 224.702 301.197C223.719 302.661 224.096 305.481 222.627 307.104C221.851 307.904 220.785 307.121 220.287 307.049C220.523 307.081 218.282 306.955 217.457 306.946C216.401 306.946 215.571 307.051 215.161 307.981C215.074 308.163 215.034 308.363 215.042 308.564C215.082 308.785 215.301 309.234 217.438 309.645C219.05 309.94 220.316 310.034 220.883 310.777C221.391 311.511 221.248 311.521 218.187 321.041C217.386 323.543 215.876 327.189 216.563 328.893C217.618 327.015 218.55 325.069 219.351 323.069C219.993 321.528 219.857 321.296 221.183 318.418C221.902 316.348 222.788 314.34 223.834 312.415C223.923 312.268 224.04 312.141 224.179 312.042C224.318 311.942 224.477 311.872 224.644 311.836C224.811 311.799 224.984 311.797 225.152 311.83C225.32 311.863 225.48 311.93 225.621 312.026C225.762 312.123 225.883 312.247 225.974 312.391C226.066 312.536 226.127 312.698 226.154 312.867C226.181 313.036 226.173 313.209 226.131 313.375C226.089 313.541 226.014 313.696 225.909 313.832C225.181 315.835 224.332 317.792 223.366 319.692C222.593 321.25 222.05 322.913 221.755 324.627C221.924 324.463 222.08 324.286 222.221 324.097C227.64 317.064 226.717 313.956 227.917 313.004C228.086 312.887 228.283 312.817 228.488 312.8C228.693 312.783 228.899 312.82 229.085 312.907L229.077 312.911ZM219.384 312.062L219.416 312.081L219.38 312.06H219.393L219.421 312.079L219.384 312.062ZM219.384 312.062H219.374H219.384ZM221.693 306.181L221.68 306.195L221.691 306.183L221.678 306.197L221.698 306.178H221.685H221.697L221.681 306.189L221.693 306.181ZM221.693 306.181H221.704H221.693Z" fill="#212121"/>
<path fill-rule="evenodd" clip-rule="evenodd" d="M224.832 290.567C224.832 290.567 221.766 301.367 221.982 302.021C222.087 302.338 236.867 308.006 237.452 307.681C241.084 305.045 244.56 302.201 247.863 299.163C247.772 298.889 227.779 292.056 224.832 290.567Z" fill="white"/>
<path fill-rule="evenodd" clip-rule="evenodd" d="M248.851 298.769C249.13 299.669 248.745 299.901 246.178 302.117C244.261 303.763 240.823 306.645 238.763 308.098C238.365 308.467 237.86 308.699 237.322 308.762C235.522 308.7 224.854 304.38 222.455 303.253C221.615 302.851 221.158 302.687 221.109 302.01C221.983 298.096 223.083 294.235 224.404 290.448C224.592 290.503 224.879 290.582 224.404 290.448C224.63 289.843 225.075 290.239 226.39 290.716C231.805 292.656 248.087 297.561 248.777 298.627L248.851 298.769ZM222.866 301.504C224.211 302.08 235.854 306.385 237.182 306.578C239.138 305.257 244.108 301.065 245.906 299.506C241.789 297.946 229.465 293.344 225.132 291.205C224.702 292.95 223.107 299.733 222.864 301.504H222.866Z" fill="#212121"/>
<path fill-rule="evenodd" clip-rule="evenodd" d="M66.7056 154.518H66.7226H66.7132H66.7358H66.715H66.7396L66.7113 154.535H66.7282L66.6886 154.561H66.6999C66.2727 154.917 65.8723 155.304 65.5019 155.718C64.3378 156.98 61.6267 160.106 62.5229 161.567C62.7115 161.808 63.5436 161.553 63.8435 161.446C65.3944 160.88 65.5283 160.342 66.4075 160.035C67.8999 159.576 68.713 161.706 70.1639 164.097C70.5051 164.602 70.7478 165.167 70.8789 165.763L70.5355 166.274L70.028 165.927L70.0129 165.885V165.898C69.597 165.277 69.1045 164.71 68.547 164.212C67.9527 163.566 67.3282 162.717 66.7811 162.195C66.4425 162.504 66.0651 162.767 65.6585 162.978C65.076 163.375 64.4112 163.635 63.714 163.738C63.0167 163.842 62.3051 163.786 61.6324 163.576C60.223 162.863 59.474 160.672 61.1814 158.052C62.4941 156.256 64.2064 154.791 66.183 153.771C66.483 153.637 66.749 153.582 66.9641 153.771L67.0339 154.388L66.4188 154.458L66.466 154.49L66.5151 154.516L66.5603 154.533L66.6018 154.544H66.6396H66.6754H66.7056V154.518ZM66.3585 161.829L66.4151 161.861L66.3226 161.804L66.3585 161.829ZM65.0378 160.886L65.068 160.865L65.0378 160.886Z" fill="#212121"/>
<path fill-rule="evenodd" clip-rule="evenodd" d="M53.8849 191.399L53.5547 173.853C53.5547 173.853 73.1326 160.893 75.3683 160.893C77.8059 163.649 83.9489 169.455 83.9489 169.455C74.9217 178.042 64.8156 185.419 53.8849 191.399Z" fill="white"/>
<path fill-rule="evenodd" clip-rule="evenodd" d="M75.5307 159.823C76.3212 160.012 75.342 159.614 81.9171 165.998C84.9565 168.959 85.1961 168.906 84.9716 169.8C84.4886 170.911 72.0234 182.267 56.3754 190.597C53.8869 191.917 53.9397 191.9 53.6812 191.778C53.6248 191.747 53.5759 191.705 53.5377 191.653C53.4996 191.602 53.4732 191.543 53.4605 191.48V191.406C53.3982 190.063 52.6077 173.896 52.7926 173.441C59.1824 168.836 65.8354 164.608 72.7177 160.778C73.5693 160.247 74.532 159.921 75.5307 159.823ZM54.5246 174.277C54.3359 174.396 54.4283 173.811 54.5642 181.069C54.3321 181.069 54.4132 180.011 54.3227 190.635C64.406 184.597 73.8115 177.494 82.3774 169.447C80.2681 167.438 76.9683 164.248 75.0005 162.089C71.6555 163.37 58.4469 171.798 54.5246 174.277Z" fill="#212121"/>
<path fill-rule="evenodd" clip-rule="evenodd" d="M181.975 292.545C182.773 292.72 182.601 292.654 182.875 293.299L182.309 293.537H182.297H182.318H182.309H182.326H182.312H182.326H182.312H182.327C182.01 293.524 180.684 293.669 180.494 293.684C175.187 294.142 169.846 294.04 164.561 293.379H164.583H164.564H164.597L164.631 293.367L164.687 293.341L164.719 293.318L164.117 293.215C164.067 293.143 164.04 293.058 164.038 292.971V292.905C164.051 292.811 164.093 292.723 164.159 292.654L164.208 292.611C165.051 292.056 175.12 291.068 181.975 292.545ZM164.715 293.299L164.776 293.256L164.895 293.007C164.797 292.622 164.847 292.533 164.715 293.307V293.299Z" fill="#212121"/>
<path fill-rule="evenodd" clip-rule="evenodd" d="M224.071 264.756C227.541 265.177 231.041 265.291 234.531 265.097C233.08 269.671 229.169 281.8 229.169 281.8C227.137 279.33 224.828 269.271 224.071 264.756Z" fill="white"/>
<path fill-rule="evenodd" clip-rule="evenodd" d="M235.468 264.929C235.53 265.554 232.092 276.249 231.842 277.046C230.066 282.562 230.234 282.328 229.778 282.691C229.58 282.826 229.342 282.891 229.103 282.876C228.864 282.861 228.637 282.768 228.457 282.609C226.093 280.157 224.465 270.752 223.968 267.342C223.699 265.456 223.372 264.299 224.121 264.324C233.758 264.943 235.024 263.282 235.468 264.929ZM224.653 265.343C225.769 269.96 227.168 274.505 228.842 278.951C228.947 279.198 228.595 279.942 231.185 272.067C231.694 270.51 232.658 267.607 233.196 266.058C232.109 266.058 230.191 265.982 228.291 265.79C224.306 265.358 224.608 265.154 224.653 265.343Z" fill="#212121"/>
<path fill-rule="evenodd" clip-rule="evenodd" d="M229.588 281.53C229.286 283.991 228.475 286.362 227.209 288.494C226.819 289.161 226.372 289.792 225.872 290.381C225.464 290.884 225.666 290.737 224.966 290.994C224.71 290.294 224.728 290.541 224.849 289.907C224.97 289.153 225.149 288.409 225.385 287.683C226.096 285.33 227.249 283.134 228.781 281.211L229.347 280.97L229.588 281.53Z" fill="#212121"/>
<path fill-rule="evenodd" clip-rule="evenodd" d="M358.43 177.301C358.43 177.301 346.448 185.018 346.78 184.406C346.78 184.406 345.85 190.874 345.46 192.834C341.837 210.946 351.435 221.727 368.371 215.497C374.727 213.159 377.891 202.705 378.182 202.418C378.312 202.288 379.716 202.349 379.999 202.252C380.71 202.027 381.366 201.653 381.922 201.155C382.477 200.656 382.92 200.045 383.221 199.362C384.219 196.368 383.41 193.53 380.329 192.504C378.867 192.015 377.499 193.019 376.28 191.844C373.956 189.599 373.514 184.169 373.514 184.169C373.514 184.169 359.796 181.267 358.43 177.301Z" fill="white"/>
<path fill-rule="evenodd" clip-rule="evenodd" d="M374.217 183.865C374.466 186.218 375.196 188.494 376.36 190.553C377.226 191.731 377.492 191.529 378.926 191.419C382.279 191.197 385.424 194.159 384.462 198.745C384.273 199.905 383.694 200.965 382.822 201.753C382.197 202.333 381.473 202.798 380.685 203.124C380.173 203.338 379.618 203.426 379.066 203.381C378.811 203.381 379.066 203.132 378.04 205.533C376.698 208.963 374.617 212.055 371.946 214.589C370.169 216.04 368.056 217.02 365.801 217.438C362.518 218.395 359.058 218.574 355.694 217.961C352.92 217.325 350.384 215.915 348.38 213.895C346.377 211.875 344.987 209.327 344.374 206.549C342.887 200.473 344.291 194.621 345.019 190.55C345.885 185.644 346.027 184.369 346.119 184.122C346.173 183.993 346.263 183.882 346.379 183.804C346.494 183.726 346.63 183.684 346.77 183.682C348.555 182.835 356.52 177.947 358.192 176.922L358.224 176.969L358.196 176.926C358.264 176.877 358.346 176.851 358.43 176.851C358.513 176.851 358.595 176.877 358.664 176.926C358.826 177.05 358.803 177.088 358.901 177.303C360.765 181.037 373.517 183.237 373.995 183.569L374.081 183.654C374.137 183.717 374.183 183.788 374.217 183.865ZM347.427 184.944C346.202 194.468 345.512 196.198 345.653 200.994C345.91 209.763 350.651 216.295 359.562 216.191C362.63 216.083 365.655 215.432 368.497 214.269C371.655 212.786 373.949 209.128 375.466 205.983C377.434 201.896 376.866 201.375 378.6 201.275C379.766 201.219 379.615 201.304 380.175 201.036C380.74 200.767 381.248 200.392 381.671 199.932C382.088 199.344 382.372 198.672 382.504 197.963C382.636 197.255 382.614 196.526 382.437 195.827C382.295 195.323 382.039 194.859 381.689 194.47C381.339 194.081 380.904 193.778 380.419 193.583C378.828 192.874 377.674 193.938 376.079 192.863C374.763 191.666 373.851 190.089 373.47 188.352C372.289 184.124 373.48 184.974 371.848 184.548C368.303 183.605 360.048 181.152 358.239 177.954C356.301 179.254 349.525 183.797 347.434 184.944H347.427ZM346.642 183.746L346.612 183.756L346.642 183.746Z" fill="#212121"/>
<path fill-rule="evenodd" clip-rule="evenodd" d="M345.261 195.4L345.036 195.862L344.572 195.638L344.623 195.732L344.67 195.785L344.706 195.815L344.744 195.838H344.734L344.766 195.853H344.753H344.774H344.759H344.774H344.746C344.602 195.842 344.465 195.842 344.404 195.844C343.475 196.394 342.653 197.109 341.98 197.953C341.307 198.9 340.849 199.982 340.635 201.124C340.467 201.766 340.517 202.444 340.777 203.054C341.037 203.664 341.492 204.17 342.07 204.494C342.599 204.868 343.164 205.189 343.755 205.452H343.751C343.766 205.454 343.78 205.454 343.795 205.452H343.815H343.799H343.819H343.802H343.829H343.812C344.274 205.417 345.119 204.803 345.549 204.847L345.889 205.224L345.512 205.562H345.546H345.532H345.555H345.54H345.559H345.544H345.561H345.546H345.559H345.544H345.555L345.532 205.575C344.508 206.233 344.361 206.979 342.657 206.433C341.83 206.277 341.058 205.908 340.416 205.363C339.774 204.819 339.284 204.117 338.995 203.326C338.608 201.914 338.742 200.41 339.372 199.089C339.763 198.083 340.39 197.185 341.199 196.471C342.009 195.758 342.978 195.249 344.025 194.987C344.298 194.893 345.121 195.081 345.261 195.4ZM344.283 195.851H344.325H344.314L344.359 195.84C344.302 195.847 344.344 195.845 344.285 195.851H344.283Z" fill="white"/>
<path fill-rule="evenodd" clip-rule="evenodd" d="M390.273 203.63C390.242 205.266 389.762 206.863 388.884 208.245C388.284 208.915 387.552 209.453 386.733 209.824C385.914 210.196 385.027 210.393 384.128 210.403C383.228 210.413 382.337 210.235 381.51 209.882C380.683 209.529 379.939 209.007 379.324 208.35C377.296 206.037 378.038 203.411 378.726 200.564C378.915 199.766 379.104 199.105 379.196 198.804L379.713 198.46C380.247 199.27 380.011 198.283 379.792 201.992C379.563 203.289 379.659 204.622 380.07 205.873C380.395 206.485 380.858 207.012 381.422 207.414C381.987 207.816 382.637 208.081 383.321 208.188C384.006 208.296 384.706 208.243 385.366 208.033C386.026 207.823 386.629 207.463 387.126 206.98C387.756 205.941 388.127 204.764 388.207 203.55C388.42 202.186 388.104 200.791 387.322 199.652C386.54 198.512 385.352 197.716 384.001 197.424L383.613 196.947L384.096 196.57C384.968 196.619 385.822 196.842 386.607 197.225C387.392 197.608 388.093 198.144 388.668 198.802C389.243 199.459 389.681 200.225 389.957 201.054C390.233 201.883 390.34 202.759 390.273 203.63Z" fill="white"/>
<path d="M350.312 196.755C350.024 196.753 349.747 196.638 349.543 196.434C349.339 196.231 349.224 195.955 349.222 195.666C349.215 195.006 349.244 194.346 349.306 193.689C349.299 193.526 349.328 193.363 349.391 193.212C349.454 193.062 349.55 192.927 349.671 192.817C349.792 192.708 349.936 192.627 350.092 192.579C350.249 192.532 350.414 192.519 350.575 192.543C350.737 192.567 350.891 192.626 351.027 192.716C351.163 192.806 351.278 192.925 351.363 193.065C351.448 193.204 351.501 193.361 351.518 193.523C351.535 193.685 351.516 193.85 351.463 194.004C351.413 194.557 351.393 195.111 351.401 195.666C351.401 195.955 351.286 196.232 351.082 196.436C350.878 196.64 350.601 196.755 350.312 196.755Z" fill="#212121"/>
<path d="M360.893 196.998C360.604 196.998 360.326 196.883 360.122 196.679C359.917 196.474 359.802 196.197 359.802 195.908C359.776 195.038 359.54 193.44 360.746 193.189C360.941 193.15 361.142 193.164 361.33 193.231C361.517 193.298 361.682 193.415 361.808 193.569C361.934 193.722 362.015 193.908 362.043 194.105C362.072 194.301 362.046 194.502 361.968 194.685C361.953 194.976 361.968 195.553 361.985 195.908C361.986 196.051 361.957 196.193 361.903 196.326C361.848 196.458 361.767 196.579 361.666 196.68C361.564 196.781 361.444 196.862 361.311 196.916C361.178 196.971 361.036 196.999 360.893 196.998ZM361.321 195.285C361.277 195.301 361.233 195.313 361.187 195.323C361.235 195.313 361.283 195.3 361.329 195.283L361.321 195.285Z" fill="#212121"/>
<path fill-rule="evenodd" clip-rule="evenodd" d="M355.017 192.366L355.08 192.344L355.146 192.331H355.212L355.642 192.776C355.101 193.298 355.116 193.223 355.387 193.166L355.499 193.091L355.548 193.038L355.568 193.01L355.583 192.985V193.025C355.583 193.055 355.295 194.866 355.289 194.896C354.927 196.56 354.331 198.224 354.174 199.447C354.692 199.738 355.231 199.99 355.785 200.202L356.214 200.643C355.723 201.107 355.948 201.081 354.967 201.158C353.516 201.26 352.28 201.098 352.103 199.687C352.131 198.176 352.474 196.688 353.11 195.317C353.573 194.232 354.219 193.234 355.017 192.366ZM353.902 199.247L353.874 199.23L353.887 199.245C353.925 199.286 353.968 199.322 354.016 199.351L354.052 199.373L354.036 199.351V199.362L354.012 199.326V199.338L353.985 199.306L353.961 199.277V199.289L353.936 199.262V199.273L353.914 199.249V199.26L353.893 199.24L353.861 199.213L353.825 199.189L353.902 199.247Z" fill="#212121"/>
<path fill-rule="evenodd" clip-rule="evenodd" d="M361.989 205.009C361.932 205.549 361.77 206.073 361.512 206.55C361.026 207.307 360.353 207.925 359.557 208.343C358.76 208.761 357.869 208.965 356.971 208.935C356.362 208.868 355.77 208.688 355.227 208.405L354.861 207.905C355.556 207.396 355.139 207.629 355.931 207.401C357.671 206.933 359.306 206.136 360.746 205.052C361.478 204.532 360.772 204.849 361.761 204.437L361.989 205.009Z" fill="#212121"/>
<path fill-rule="evenodd" clip-rule="evenodd" d="M363.471 161.014C366.624 160.85 369.774 161.379 372.7 162.564C375.627 163.749 378.257 165.562 380.407 167.874C382.269 169.717 383.805 171.862 384.95 174.219C385.432 175.234 386.726 178.369 386.384 179.424C386.285 179.658 386.108 179.85 385.883 179.967C385.658 180.084 385.399 180.119 385.15 180.065C384.311 179.803 384.852 179.671 381.83 176.745C374.993 170.191 366.221 166.202 356.737 167.278C350.123 168.059 349.191 169.896 348.564 169.217H348.553C347.876 168.372 350.772 165.506 351.619 164.799C355.001 162.182 359.198 160.842 363.471 161.014ZM361.56 165.542C369.501 165.832 377.049 169.069 382.734 174.622C380.177 169.74 375.896 165.982 370.723 164.08C363.397 161.816 355.024 162.044 350.023 167.895C353.662 166.316 357.592 165.517 361.56 165.548V165.542Z" fill="#212121"/>
<path fill-rule="evenodd" clip-rule="evenodd" d="M437.497 307.383C437.558 307.319 431.575 309.938 432.781 314.73C433.106 315.921 433.753 317 434.652 317.847C435.551 318.694 436.666 319.276 437.875 319.53C441.413 320.226 445.064 320.096 448.544 319.152C452.513 318.508 456.174 316.618 458.998 313.755C460.683 311.868 462.864 307.363 460.818 304.321C459.371 302.171 454.749 302.233 454.541 302.435C454.394 302.582 455.107 307.663 455.107 307.663C453.112 309.774 450.652 311.392 447.922 312.389C445.193 313.385 442.269 313.733 439.382 313.404L437.497 307.383Z" fill="#212121"/>
<path fill-rule="evenodd" clip-rule="evenodd" d="M455.63 301.274C459.643 301.353 462.562 302.902 462.743 306.934C462.756 308.693 462.325 310.426 461.49 311.973C458.785 317.271 453.045 319.422 447.233 320.447C443.408 321.124 438.441 321.443 435.186 319.296C431.224 316.679 430.204 311.045 436.171 307.557C436.589 307.297 437.039 307.093 437.511 306.951C437.606 306.951 437.698 306.982 437.774 307.039C437.85 307.097 437.904 307.178 437.929 307.27C437.929 307.459 438.118 307.823 439.816 312.806C442.441 312.978 445.073 312.577 447.527 311.629C449.982 310.682 452.2 309.211 454.028 307.319C453.908 306.498 453.566 304.025 453.489 302.97C453.366 301.457 454.121 301.259 455.63 301.274ZM455.523 308.685C453.418 310.761 450.863 312.322 448.055 313.248C445.248 314.174 442.265 314.44 439.339 314.024C438.733 313.904 438.905 313.905 437.235 308.011C433.998 309.86 432.16 312.83 434.12 315.992C436.36 319.488 441.59 319.324 445.725 318.633C450.161 317.879 454.536 316.722 457.739 313.519C460.192 311.041 461.879 305.955 459.271 304.299C458.154 303.709 456.91 303.399 455.647 303.397C456.1 308.223 456.462 307.764 455.513 308.685H455.523ZM437.086 307.502V307.481V307.502ZM437.148 307.125V307.14V307.129C437.48 307.372 437.541 307.413 437.141 307.13L437.148 307.125Z" fill="#212121"/>
<path fill-rule="evenodd" clip-rule="evenodd" d="M292.649 148.447C292.053 149.592 287.449 149.456 287.689 147.618C288.016 144.69 288.762 141.824 289.906 139.108C290.235 138.607 290.731 138.238 291.305 138.066C291.879 137.893 292.496 137.928 293.047 138.164C294.298 138.768 294.39 139.426 294.398 140.545C294.168 143.245 293.58 145.902 292.649 148.447Z" fill="white"/>
<path fill-rule="evenodd" clip-rule="evenodd" d="M295.409 139.885C295.188 142.917 294.388 145.878 293.054 148.609C292.283 150.256 287.394 150.448 286.828 148.12C286.594 147.086 287.694 139.97 289.292 138.121C289.722 137.597 290.295 137.21 290.942 137.009C291.589 136.807 292.281 136.8 292.932 136.988C293.583 137.176 294.164 137.55 294.604 138.065C295.045 138.58 295.324 139.213 295.409 139.885ZM293.365 140.34C293.339 139.698 293.279 139.387 292.486 139.098C292.242 139.024 291.982 139.015 291.733 139.071C291.483 139.127 291.253 139.247 291.064 139.419C289.677 140.626 288.515 148.852 288.577 147.741V147.775V147.758V147.777V147.76V147.779V147.752V147.792L288.564 147.758L288.575 147.798L288.56 147.766L288.575 147.805L288.558 147.777L288.577 147.818L288.56 147.792C288.749 148.141 289.368 148.318 289.747 148.415C290.532 148.691 291.392 148.662 292.156 148.334L292.2 148.303L292.188 148.313L292.228 148.283L292.215 148.296L292.249 148.264L292.237 148.281L292.267 148.249L292.254 148.266L292.281 148.234C292.938 145.651 293.302 143.003 293.365 140.34Z" fill="#212121"/>
<path fill-rule="evenodd" clip-rule="evenodd" d="M297.858 149.333C297.205 150.454 292.613 150.143 292.952 148.318C293.428 145.401 294.317 142.566 295.594 139.9C295.947 139.414 296.458 139.066 297.04 138.917C297.622 138.768 298.237 138.827 298.78 139.083C299.999 139.732 300.06 140.404 300.011 141.513C299.641 144.204 298.918 146.833 297.858 149.333Z" fill="white"/>
<path fill-rule="evenodd" clip-rule="evenodd" d="M301.046 140.842C300.684 143.887 299.736 146.834 298.256 149.52C297.429 151.105 292.62 151.164 292.071 148.818C291.864 147.737 293.347 140.73 294.973 138.942C295.412 138.424 295.994 138.047 296.646 137.858C297.298 137.669 297.991 137.676 298.639 137.879C299.287 138.081 299.861 138.471 300.289 138.997C300.717 139.524 300.981 140.166 301.046 140.842ZM298.897 140.54C298.758 140.339 298.571 140.176 298.353 140.065C298.135 139.954 297.893 139.898 297.649 139.903C297.404 139.908 297.165 139.974 296.952 140.094C296.739 140.213 296.559 140.384 296.428 140.591C294.999 142.828 293.732 149.364 293.826 148.484V148.507C293.825 148.514 293.825 148.521 293.826 148.528V148.509V148.53V148.511V148.532V148.503V148.543L293.815 148.507V148.547L293.799 148.515L293.813 148.554L293.798 148.526L293.815 148.567L293.798 148.539C294.175 149.294 296.628 149.632 297.382 149.2L297.371 149.209L297.416 149.181H297.405L297.446 149.152L297.433 149.164C298.401 146.391 298.896 143.476 298.897 140.54Z" fill="#212121"/>
<path fill-rule="evenodd" clip-rule="evenodd" d="M302.874 150.33C302.21 151.303 297.622 150.943 297.969 149.343C298.483 146.761 299.406 144.277 300.701 141.985C301.096 141.553 301.618 141.257 302.191 141.138C302.764 141.02 303.361 141.085 303.895 141.325C304.333 141.465 304.701 141.767 304.924 142.169C305.147 142.571 305.209 143.043 305.097 143.489C304.697 145.866 303.948 148.171 302.874 150.33Z" fill="white"/>
<path fill-rule="evenodd" clip-rule="evenodd" d="M305.152 140.847C305.549 141.161 305.849 141.581 306.018 142.059C306.187 142.536 306.217 143.051 306.106 143.545C305.574 146.026 304.609 148.394 303.256 150.541C302.344 152.011 297.06 152.012 297.041 149.458C297.282 147.82 297.677 146.209 298.22 144.645C298.589 143.029 299.485 141.581 300.769 140.532C301.443 140.126 302.226 139.938 303.01 139.995C303.795 140.051 304.543 140.349 305.152 140.847ZM304.082 142.922C303.997 142.132 302.207 141.709 301.378 142.898C300.291 145.008 299.451 147.238 298.875 149.541C299.522 149.966 300.27 150.212 301.043 150.254C301.495 150.341 301.963 150.304 302.397 150.148L302.443 150.126H302.429L302.471 150.101L302.456 150.113L302.492 150.088L302.478 150.101L302.507 150.079L302.493 150.094L302.52 150.071C303.383 147.773 303.909 145.363 304.082 142.915V142.922ZM298.835 149.473L298.814 149.445L298.835 149.481L298.814 149.456C298.848 149.509 298.814 149.482 298.871 149.541V149.524V149.539V149.513V149.49V149.503V149.471V149.505L298.86 149.464V149.49L298.845 149.45V149.479L298.828 149.443L298.839 149.473L298.82 149.441L298.835 149.473Z" fill="#212121"/>
<path fill-rule="evenodd" clip-rule="evenodd" d="M304.803 146.307C306.037 146.726 306.595 151.326 304.723 151.369C302.993 151.667 301.215 151.511 299.563 150.916C299.015 150.665 298.573 150.228 298.315 149.683C298.057 149.138 298 148.519 298.154 147.935C298.567 146.6 299.213 146.405 300.329 146.226C301.806 145.902 303.339 145.93 304.803 146.307Z" fill="white"/>
<path fill-rule="evenodd" clip-rule="evenodd" d="M305.01 145.913C306.65 146.479 307.812 151.403 305.268 152.269C304.075 152.504 302.857 152.592 301.642 152.531C296.912 152.118 296.086 148.501 297.81 146.341C298.262 145.923 298.801 145.61 299.389 145.427C299.976 145.244 300.597 145.194 301.206 145.281C302.506 145.199 303.807 145.416 305.01 145.913ZM304.727 146.794L304.74 146.805L304.706 146.769H304.721L304.685 146.739L304.702 146.749L304.667 146.722L304.685 146.732L304.652 146.709C302.925 146.555 301.186 146.807 299.575 147.445C299.408 147.624 299.283 147.837 299.208 148.069C299.133 148.302 299.109 148.548 299.139 148.79C299.199 149.076 299.334 149.34 299.53 149.556C299.726 149.772 299.976 149.932 300.254 150.02C301.7 150.442 303.218 150.561 304.712 150.369H304.691H304.712H304.691H304.712H304.691H304.71H304.691H304.708H304.689H304.706H304.687H304.706H304.687H304.704L304.678 150.384L304.712 150.369L304.678 150.39L304.712 150.371L304.682 150.394L304.718 150.371L304.689 150.394L304.706 150.381H304.721C304.853 150.24 304.946 150.069 304.993 149.882C305.125 149.417 305.176 148.932 305.146 148.449C305.196 147.876 305.056 147.302 304.748 146.817L304.727 146.794Z" fill="#212121"/>
<path fill-rule="evenodd" clip-rule="evenodd" d="M410.473 393.268C416.909 387.452 434.385 382.997 434.385 382.997C434.385 382.997 442.196 426.692 439.952 448.485C432.393 443.541 425.584 437.535 419.735 430.652C418.337 431.694 416.935 432.741 415.443 433.645C405.473 439.4 394.186 442.483 382.675 442.597C372.032 442.714 365.923 441.378 355.071 438.397L350.717 457.764C359.339 472.576 361.578 475.085 374.774 491.273C374.774 491.273 310.693 507.244 309.606 507.27C307.342 507.33 312.219 473.706 312.974 467.193C311.849 465.71 310.813 464.16 309.874 462.552C307.48 458.262 305.157 453.924 303.082 449.468C296.447 434.881 293.165 418.993 293.475 402.971C294.375 363.855 303.954 322.28 326.713 290.458C321.204 282.723 315.789 271.148 314.759 261.841C313.227 247.978 321.551 235.577 325.118 222.657C325.873 219.906 327.76 209.073 328.069 206.45L339.548 208.109L341.659 232.349C348.545 233.164 355.407 235.867 359.163 240.554C362.874 238.17 367.025 236.555 371.37 235.803C375.716 235.052 380.168 235.179 384.464 236.179C384.03 232.307 386.048 220.038 386.835 216.18C391.281 217.136 395.64 218.461 399.866 220.142C400.302 240.707 401.136 256.309 396.78 269.933C395.338 273.806 393.692 277.6 391.848 281.298C392.037 281.487 407.722 296.041 411.192 301.401C438.352 343.373 410.473 393.268 410.473 393.268Z" fill="white"/>
<path fill-rule="evenodd" clip-rule="evenodd" d="M387.04 215.269C390.991 216.137 394.877 217.282 398.668 218.695C400.643 219.449 400.756 219.349 400.781 220.608C401.394 253.489 401.801 262.635 392.776 281.145C393.081 281.447 402.552 290.056 409.352 297.927C414.865 304.342 419.129 314.558 421.227 322.788C426.822 344.943 422.138 370.221 412.293 390.657C410.729 393.876 411.837 388.77 433.079 382.82C435.111 382.254 434.737 381.952 435.399 385.859C438.182 402.409 441.814 428.922 440.871 445.597C440.672 448.976 440.631 448.804 440.356 449.042C439.854 449.338 439.739 449.185 437.933 447.964C431.153 443.349 425.001 437.872 419.632 431.671C408.93 439.175 396.212 443.272 383.142 443.427C372.283 443.616 366.549 442.365 355.786 439.516C351.401 459.017 351.663 457.513 351.824 457.788C360.478 472.425 361.551 473.495 375.549 490.645C375.69 490.818 375.768 491.033 375.771 491.257C375.774 491.48 375.702 491.698 375.566 491.875C375 492.492 310.547 508.243 309.645 508.308C308.136 508.308 308.017 506.374 307.981 504.87C307.761 495.493 312.141 467.839 311.711 467.246C309.729 464.523 307.988 461.632 306.506 458.607C292.294 432.124 290.713 411.931 293.648 382.457C297.671 342.709 310.34 311.57 325.182 290.745L325.392 290.452C321.404 284.648 318.23 278.325 315.958 271.659C310.785 256.413 314.5 247.738 320.564 232.484C323.96 223.904 324.605 221.598 326.637 209.011C327.129 205.915 326.976 206.139 327.312 205.724C327.468 205.56 327.671 205.451 327.893 205.411C328.284 205.373 339.681 207.065 339.874 207.109C340.07 207.171 340.243 207.29 340.371 207.451C340.499 207.612 340.577 207.807 340.594 208.012H340.579C342.788 233.369 342.538 231.417 342.781 231.451C348.698 232.326 355.493 234.771 359.384 239.244C366.586 234.87 375.164 233.345 383.433 234.969C383.638 230.708 384.099 226.463 384.812 222.257C385.895 215.44 385.967 215.674 386.335 215.393C386.438 215.327 386.554 215.282 386.675 215.26C386.796 215.239 386.92 215.242 387.04 215.269ZM355.308 437.518C366.44 440.605 376.147 442.735 389.016 441.382C397.506 440.494 405.747 437.986 413.293 433.996C419.121 430.737 419.014 429.656 419.998 429.935C420.542 429.935 426.511 438.614 439.378 447.268C440.837 430.458 436.816 400.202 433.977 383.618C427.449 385.353 415.814 389.123 410.771 393.583C410.717 393.63 410.652 393.663 410.582 393.68C410.512 393.696 410.439 393.694 410.369 393.676C410.3 393.657 410.236 393.622 410.184 393.573C410.132 393.524 410.092 393.462 410.069 393.394C409.912 392.736 414.616 385.789 418.761 370.458C423.772 351.692 424.328 332 416.946 313.858C415.143 309.426 412.891 305.191 410.225 301.218C405.762 295.899 400.983 290.853 395.913 286.109C394.24 284.67 392.644 283.144 391.132 281.536C390.98 280.923 391.106 281.391 393.859 275.17C394.87 272.987 395.724 270.734 396.415 268.429C400.27 255.119 399.434 240.895 398.981 220.755C395.272 219.314 391.46 218.156 387.576 217.291C386.872 221.034 385.059 232.196 385.423 235.96C385.466 236.169 385.44 236.386 385.348 236.579C385.256 236.772 385.104 236.929 384.914 237.028C383.761 237.495 374.424 233.632 362.108 240.024C359.51 241.388 359.553 241.731 358.772 241.463C356.577 238.965 353.837 237.005 350.763 235.733C347.759 234.501 344.599 233.69 341.373 233.322C340.396 232.945 340.787 234.056 338.587 209.011L328.982 207.624C326.88 222.079 325.322 225.992 323.599 230.547C318.52 243.82 313.528 253.16 316.664 266.384C318.19 272.217 320.456 277.832 323.405 283.091C323.594 283.424 325.69 287.041 326.548 288.317C327.752 290.071 327.68 289.849 327.791 290.279C327.874 291.411 326.041 292.473 320.824 301.329C307.127 324.735 299.369 351.993 296.235 378.703C292.554 410.082 295.429 426.247 300.986 441.563C304.054 449.526 307.854 457.187 312.336 464.448C313.8 466.571 313.898 466.499 314.024 466.99C314.336 466.99 309.244 500.129 310.155 506.091C317.171 504.53 365.981 492.422 373.03 490.673C359.278 473.693 358.708 473.006 351.575 461.035C351.416 460.767 349.994 458.373 349.858 458.094C349.713 457.634 349.567 458.637 354.197 438.188C354.225 438.07 354.276 437.96 354.348 437.863C354.419 437.766 354.509 437.684 354.613 437.623C354.717 437.561 354.832 437.521 354.951 437.505C355.071 437.489 355.192 437.497 355.308 437.529V437.518Z" fill="#212121"/>
<path fill-rule="evenodd" clip-rule="evenodd" d="M344.753 372.394C343.223 378.528 342.18 384.774 341.634 391.072C340.18 406.575 341.676 426.904 353.688 436.729C355.452 438.182 355.101 437.505 355.303 438.446C354.565 438.599 354.754 438.603 354.548 438.475C336.938 427.364 337.076 397.723 341.53 377.256C343.921 366.355 347.973 352.341 351.186 341.649C352.894 340.672 352.264 339.813 344.753 372.394Z" fill="#212121"/>
<path fill-rule="evenodd" clip-rule="evenodd" d="M382.14 284.321L381.952 284.904C371.362 291.02 348.876 294.629 332.898 291.163L332.534 290.664L333.034 290.298C347.039 291.724 368.768 288.818 379.714 284.87C382.035 284.026 381.282 284.051 382.14 284.321Z" fill="#212121"/>
<path fill-rule="evenodd" clip-rule="evenodd" d="M359.682 494.843V494.818V494.829V494.809V494.822V494.807V494.82V494.801V494.833V494.814C360.038 498.781 360.115 502.768 359.912 506.746C359.844 507.983 359.467 508.347 359.235 508.536C358.727 508.828 358.181 509.047 357.612 509.187C356.614 509.461 355.592 509.644 354.56 509.732C353.968 509.893 353.338 509.843 352.779 509.591C351.751 508.974 351.683 507.208 351.471 505.666C341.168 509.853 342.195 509.251 337.801 511.298C334.512 512.843 327.818 516.075 323.26 516.466C322.137 516.588 320.092 517.39 318.964 516.454C318.829 516.337 318.717 516.196 318.634 516.037C318.433 515.627 318.393 515.156 318.521 514.717C318.69 514.142 318.958 513.601 319.313 513.119C320.643 511.345 328.711 502.365 328.58 502.553C328.743 502.333 328.811 502.063 329.124 501.955C329.215 501.936 329.311 501.944 329.397 501.98L329.454 502.008C329.877 502.293 329.607 502.467 329.329 502.81H329.363C329.426 502.788 329.482 502.752 329.528 502.704V502.714L329.548 502.689V502.701L329.56 502.684V502.699V502.685V502.701V502.687C328.741 503.98 323.481 510.491 321.355 513.36C320.956 513.829 320.631 514.355 320.39 514.92C320.362 515.003 320.339 514.992 320.579 514.975C320.892 514.944 321.201 514.889 321.505 514.811C323.518 514.512 325.501 514.036 327.43 513.389C330.937 512.156 334.354 510.681 337.657 508.976C341.521 507.181 351.696 503.316 351.93 503.282C352.851 503.282 353.213 504.036 353.462 504.944C353.603 505.51 353.65 506.968 353.869 507.8C353.884 507.857 353.869 507.847 353.939 507.842C355.299 507.798 356.648 507.593 357.96 507.23C358.188 507.157 358.186 507.215 358.25 506.806C358.278 506.617 358.616 503.24 358.784 499.403C358.903 496.51 358.563 494.827 358.988 494.329L359.071 494.269L359.154 494.233C359.205 494.217 359.259 494.21 359.312 494.211H359.392C359.924 494.373 359.692 494.678 359.571 494.965L359.616 494.924L359.652 494.873C359.664 494.854 359.674 494.835 359.682 494.814V494.843ZM320.324 515.249V515.228V515.243V515.264V515.241V515.258V515.236V515.249ZM353.718 507.849H353.707H353.718ZM353.718 507.849H353.696H353.726H353.703H353.72H353.696H353.718ZM358.146 507.229L358.126 507.259L358.144 507.23L358.129 507.257L358.15 507.221L358.139 507.246L358.154 507.215L358.137 507.234L358.152 507.219L358.128 507.249L358.146 507.229ZM351.279 505.04L351.269 505.029L351.279 505.04ZM328.828 502.516C328.841 502.579 328.869 502.639 328.911 502.689L328.979 502.755L329.077 502.814L329.192 502.844H329.26L328.824 502.493L328.828 502.516ZM358.954 494.899V494.886L358.965 494.905V494.894C358.98 494.923 358.999 494.949 359.022 494.973L359.075 495.02L359.139 495.058C359.18 495.076 359.223 495.089 359.267 495.095C359.318 495.102 359.369 495.102 359.42 495.095L358.969 494.907V494.892L358.954 494.899Z" fill="#212121"/>
<path fill-rule="evenodd" clip-rule="evenodd" d="M411.18 392.504L411.054 393.11L411.162 393.008L411.192 392.964L411.203 392.945V392.957C407.815 403.169 402.945 412.828 396.749 421.625L396.151 421.774L396.01 421.174C396.815 419.529 409.69 393.062 410.584 392.366L411.18 392.504Z" fill="#212121"/>
<path fill-rule="evenodd" clip-rule="evenodd" d="M317.834 455.486H306.05C303.461 450.63 301.244 445.585 299.418 440.393L304.431 431.379L317.834 455.486Z" fill="#212121"/>
<path fill-rule="evenodd" clip-rule="evenodd" d="M305.358 455.994C303.673 453.015 302.142 449.951 300.774 446.813C299.849 444.721 299.038 442.579 298.344 440.399C298.38 439.948 297.966 440.776 303.021 431.686C303.551 430.743 303.496 430.801 303.702 430.582C303.879 430.421 304.105 430.323 304.344 430.304C304.584 430.285 304.822 430.347 305.023 430.479C305.755 431.045 318.229 454.985 318.275 455.5C318.271 455.575 318.251 455.648 318.214 455.713L318.171 455.773L318.118 455.826C318.04 455.891 317.942 455.926 317.841 455.926C304.868 456.418 305.772 456.449 305.358 455.994ZM300.642 440.618C302.352 445.4 304.341 450.079 306.598 454.63C310.886 454.63 310.46 454.568 310.46 454.766L317.054 455.019C309.168 442.001 307.937 439.797 304.449 433.597C300.259 441.112 300.561 440.412 300.632 440.618H300.642Z" fill="#212121"/>
<path fill-rule="evenodd" clip-rule="evenodd" d="M422.991 347.019C422.737 352.715 422.014 358.38 420.829 363.957L407.434 354.648L422.991 347.019Z" fill="#212121"/>
<path fill-rule="evenodd" clip-rule="evenodd" d="M423.099 346.597C423.197 346.621 423.283 346.677 423.344 346.757C423.404 346.838 423.435 346.937 423.431 347.037C423.204 347.026 422.58 346.999 423.431 347.037C423.51 352.521 423.031 357.999 422.003 363.387C421.852 364.142 421.87 364.379 421.508 364.749C421.333 364.901 421.113 364.99 420.882 365.003C420.65 365.015 420.421 364.951 420.231 364.819C419.733 364.479 406.947 355.716 406.568 355.265C406.444 355.087 406.378 354.876 406.378 354.66C406.378 354.444 406.444 354.233 406.568 354.055C407.111 353.405 422.74 346.545 423.099 346.597ZM409.515 354.776C413.303 357.395 414.986 358.55 420.152 362.189C421.17 357.433 421.948 352.629 422.484 347.795C420.161 349.073 412.786 353.142 409.515 354.776Z" fill="#212121"/>
<path fill-rule="evenodd" clip-rule="evenodd" d="M344.545 498.78L340.273 486.313L359.027 490.612L354.331 496.354C351.197 497.137 347.888 497.952 344.545 498.78Z" fill="#212121"/>
<path fill-rule="evenodd" clip-rule="evenodd" d="M339.347 486.005C339.402 485.822 339.51 485.66 339.656 485.537C339.803 485.415 339.982 485.338 340.172 485.317C340.823 485.294 357.82 489.233 358.45 489.38C359.31 489.582 359.867 489.588 360.074 490.446C360.121 491.101 360.263 490.824 356.408 495.365C354.771 497.252 355.001 497.04 354.686 497.191C354.418 497.271 344.626 499.319 344.309 499.144C344.229 499.092 344.168 499.014 344.138 498.923C344.349 498.852 344.943 498.648 344.138 498.923C339.034 486.143 339.249 486.447 339.347 486.005ZM344.841 498.242C350.958 496.386 348.426 497.15 353.552 495.625L353.824 495.554L355.237 493.82L355.197 493.767C356.906 491.586 356.467 492.143 357.142 491.297C350.428 489.779 344.285 488.333 341.719 487.713C342.864 491.411 344.113 495.739 344.841 498.238V498.242Z" fill="#212121"/>
<path fill-rule="evenodd" clip-rule="evenodd" d="M325.742 368.238L309.277 370.202L315.858 354.92L325.742 368.238Z" fill="#212121"/>
<path fill-rule="evenodd" clip-rule="evenodd" d="M315.991 353.878C316.604 354.014 316.432 353.833 320.198 359.255C326.613 368.689 326.247 368.092 326.141 368.409C326.111 368.479 326.064 368.539 326.003 368.584C325.943 368.629 325.871 368.657 325.796 368.666C325.768 368.443 325.694 367.821 325.796 368.666C319.768 369.696 314.885 370.487 309.399 371.213C309.205 371.239 309.008 371.209 308.83 371.127C308.653 371.045 308.502 370.914 308.397 370.749C308.02 370.034 308.171 370.109 310.044 365.698C315.151 353.75 314.885 353.814 315.991 353.878ZM310.954 368.992C314.929 368.564 322.183 368.049 324.875 367.86C321.808 364.117 319.281 361.053 316.134 357.003C314.821 360.114 312.297 365.919 310.954 368.992Z" fill="#212121"/>
<path fill-rule="evenodd" clip-rule="evenodd" d="M432.675 417.231L416.21 419.195L422.791 403.913L432.675 417.231Z" fill="#212121"/>
<path fill-rule="evenodd" clip-rule="evenodd" d="M422.923 402.871C423.536 403.007 423.362 402.826 427.128 408.248C433.552 417.682 433.178 417.086 433.073 417.402C433.043 417.472 432.995 417.533 432.934 417.578C432.873 417.623 432.801 417.651 432.726 417.659C432.699 417.436 432.626 416.814 432.726 417.659C426.698 418.689 421.815 419.48 416.329 420.206C416.135 420.232 415.937 420.203 415.76 420.12C415.582 420.038 415.432 419.907 415.327 419.742C414.949 419.027 415.1 419.102 416.972 414.691C422.083 402.749 421.815 402.803 422.923 402.871ZM417.885 417.985C421.86 417.557 429.115 417.042 431.807 416.853C428.737 413.11 426.213 410.046 423.066 405.996C421.753 409.107 419.228 414.912 417.885 417.985Z" fill="#212121"/>
<path fill-rule="evenodd" clip-rule="evenodd" d="M356.215 312.543L339.823 310.036L350.245 297.073L356.215 312.543Z" fill="#212121"/>
<path fill-rule="evenodd" clip-rule="evenodd" d="M350.324 296.018C350.522 296.035 350.711 296.108 350.87 296.229C351.028 296.349 351.149 296.512 351.218 296.699C353.454 302.695 356.58 312.258 356.638 312.462C356.653 312.53 356.65 312.601 356.63 312.668C356.611 312.735 356.576 312.796 356.528 312.846C356.479 312.897 356.419 312.934 356.353 312.956C356.287 312.978 356.216 312.983 356.148 312.972C356.182 312.751 356.278 312.13 356.148 312.972C348.56 312.2 344.862 311.741 341.558 311.308C339.447 311.013 339.258 311.098 338.889 310.483C338.555 309.653 339.077 309.285 339.668 308.532C350.086 295.452 349.599 296.018 350.324 296.018ZM341.76 309.323C345.705 309.97 352.833 311.417 355.478 311.949C353.52 307.523 351.907 303.895 349.956 299.152C347.86 301.797 343.877 306.717 341.76 309.321V309.323Z" fill="#212121"/>
<path fill-rule="evenodd" clip-rule="evenodd" d="M397.741 266.586C397.006 269.518 395.995 272.374 394.722 275.116L386.842 276.059L393.423 260.777L397.741 266.586Z" fill="#212121"/>
<path fill-rule="evenodd" clip-rule="evenodd" d="M393.993 260.202C394.342 260.66 397.955 266.143 398.089 266.333C398.127 266.385 398.154 266.445 398.166 266.508C398.178 266.571 398.177 266.637 398.16 266.699C397.942 266.643 397.334 266.486 398.16 266.699C397.785 268.849 397.229 270.964 396.5 273.021C395.615 275.546 395.529 275.912 394.896 276.057C394.44 276.161 388.212 276.959 387.748 277.017C386.805 277.129 386.731 277.18 386.305 276.98C386.128 276.879 385.984 276.73 385.889 276.55C385.793 276.37 385.751 276.167 385.767 275.965C385.884 275.25 390.933 263.95 391.804 262.041C392.632 260.296 392.608 260.069 393.248 259.928C393.385 259.908 393.525 259.922 393.655 259.97C393.785 260.017 393.901 260.097 393.993 260.202ZM388.57 274.802C391.94 274.425 392.434 274.393 393.995 274.236L394.121 274.221C395.361 271.792 396.407 269.268 397.251 266.675C393.725 262.424 394.363 263.196 393.757 262.452C392.648 265.32 390.042 271.416 388.57 274.802Z" fill="#212121"/>
<path fill-rule="evenodd" clip-rule="evenodd" d="M374.156 235.443C376.045 235.283 377.945 235.289 379.833 235.46L386.121 243.927L369.654 245.891L374.156 235.443Z" fill="#212121"/>
<path fill-rule="evenodd" clip-rule="evenodd" d="M380.367 234.901C380.924 235.484 384.301 239.816 386.293 242.427C387.048 243.45 387.067 243.406 387.156 243.812C387.183 244.027 387.144 244.245 387.042 244.436C386.941 244.627 386.783 244.782 386.59 244.88C385.982 245.129 372.042 246.672 369.836 246.91C369.635 246.941 369.43 246.911 369.246 246.825C369.062 246.739 368.908 246.599 368.804 246.425C368.474 245.746 368.764 245.516 369.506 243.946C374.013 234.632 373.76 235.079 374.111 235.016C374.996 234.877 379.683 234.384 380.367 234.901ZM374.458 235.873C374.387 236.062 371.462 243.986 371.168 244.657C374.858 244.171 380.715 243.471 384.214 243.073C378.962 235.79 379.639 236.192 379.071 236.124C377.542 235.93 376 235.846 374.458 235.873Z" fill="#212121"/>
<path fill-rule="evenodd" clip-rule="evenodd" d="M342.205 269.591L325.74 271.555L332.321 256.273L342.205 269.591Z" fill="#212121"/>
<path fill-rule="evenodd" clip-rule="evenodd" d="M332.454 255.232C333.067 255.37 332.893 255.187 336.659 260.611C343.083 270.033 342.71 269.446 342.604 269.763C342.574 269.833 342.526 269.894 342.465 269.939C342.404 269.985 342.332 270.013 342.257 270.022C342.23 269.797 342.157 269.175 342.257 270.022C336.229 271.05 331.346 271.84 325.86 272.567C325.666 272.593 325.468 272.564 325.291 272.482C325.113 272.399 324.963 272.268 324.858 272.103C324.481 271.388 324.632 271.465 326.505 267.052C331.614 255.111 331.346 255.168 332.454 255.232ZM327.416 270.348C331.392 269.918 338.646 269.405 341.338 269.216C338.27 265.475 335.744 262.409 332.597 258.358C331.284 261.469 328.76 267.273 327.416 270.348Z" fill="#212121"/>
<path fill-rule="evenodd" clip-rule="evenodd" d="M339.547 208.109L340.334 217.135L332.323 218.089L336.793 207.713L339.547 208.109Z" fill="#212121"/>
<path fill-rule="evenodd" clip-rule="evenodd" d="M336.781 207.08C336.96 207.114 339.562 207.671 339.679 207.697C339.761 207.723 339.833 207.773 339.886 207.84C339.939 207.908 339.971 207.989 339.977 208.075C339.994 208.173 340.579 211.824 340.596 211.922C341.432 217.604 341.481 217.451 340.928 217.959C340.774 218.074 340.592 218.146 340.402 218.168C334.781 218.906 333.202 219.057 333.396 219.057C332.453 219.17 331.925 219.376 331.398 218.68C331.048 217.978 331.312 217.706 331.729 216.746C332.195 215.693 335.73 207.82 336.272 207.26C336.339 207.195 336.419 207.145 336.507 207.114C336.595 207.083 336.688 207.072 336.781 207.08ZM337.202 208.441L337.013 208.877L337.032 208.911L335.823 211.741L335.962 211.91C335.355 213.546 335.136 214.174 334.034 216.802C337.053 216.461 337.198 216.472 339.213 216.236L339.236 216.255L339.196 215.789H339.207L339.113 214.718L339.16 214.75C339.09 212.214 339.102 210.946 339.104 208.524L337.168 208.399L337.202 208.441Z" fill="#212121"/>
<path fill-rule="evenodd" clip-rule="evenodd" d="M396.012 329.325L379.541 331.299L386.122 316.017L396.012 329.325Z" fill="#212121"/>
<path fill-rule="evenodd" clip-rule="evenodd" d="M386.253 314.966C386.868 315.104 386.695 314.922 390.46 320.345C396.884 329.769 396.509 329.18 396.403 329.497C396.374 329.567 396.327 329.628 396.266 329.673C396.205 329.718 396.133 329.747 396.058 329.755C396.032 329.533 395.956 328.908 396.058 329.755C390.032 330.786 385.147 331.576 379.661 332.3C379.467 332.327 379.27 332.298 379.093 332.215C378.916 332.133 378.766 332.002 378.661 331.836C378.284 331.121 378.433 331.199 380.306 326.786C385.414 314.845 385.146 314.902 386.253 314.966ZM381.218 330.082C385.193 329.654 392.447 329.138 395.137 328.95C392.07 325.207 389.545 322.143 386.398 318.09C385.085 321.203 382.561 327.007 381.218 330.082Z" fill="#212121"/>
<path fill-rule="evenodd" clip-rule="evenodd" d="M376.967 393.483L396.005 384.855L395.081 403.911L376.967 393.483Z" fill="#212121"/>
<path fill-rule="evenodd" clip-rule="evenodd" d="M396.27 383.85C396.502 383.909 396.707 384.046 396.85 384.239C396.994 384.431 397.066 384.667 397.056 384.906C397.034 385.448 396.243 403.773 396.066 404.318C395.981 404.521 395.835 404.693 395.649 404.809C395.462 404.926 395.244 404.981 395.024 404.967C394.119 404.871 377.514 394.34 376.85 393.921C376.529 393.717 376.444 393.511 376.62 393.225L376.669 393.172C376.704 393.138 376.745 393.11 376.79 393.089C376.882 393.295 377.141 393.866 376.79 393.089C387.84 387.504 392.196 385.495 395.428 383.988C395.679 383.832 395.982 383.783 396.27 383.85ZM378.001 393.536C382.872 396.089 389.03 399.3 394.089 402.149C394.192 399.696 394.502 393.33 394.864 386.489C388.698 389.206 383.88 391.146 378.001 393.536Z" fill="#212121"/>
<path fill-rule="evenodd" clip-rule="evenodd" d="M341.285 414.567C341.852 417.649 342.707 420.671 343.837 423.594L337.472 431.379L330.898 412.186L341.285 414.567Z" fill="#212121"/>
<path fill-rule="evenodd" clip-rule="evenodd" d="M330.953 411.293C331.362 411.374 341.329 414.099 341.518 414.197C341.6 414.247 341.663 414.323 341.695 414.414L341.714 414.484C343.697 422.459 345.18 423.193 344.531 424.162C342.25 427.107 342.28 427.06 339.918 430.011L339.933 430.024C338.062 432.315 338.207 432.239 337.715 432.403C337.487 432.458 337.248 432.436 337.034 432.342C336.82 432.247 336.644 432.084 336.532 431.879C336.109 430.924 331.477 417.178 330.117 412.912C329.942 412.346 329.8 411.986 330.268 411.507C330.361 411.425 330.47 411.364 330.588 411.327C330.706 411.291 330.83 411.279 330.953 411.293ZM337.879 429.241C343.173 422.874 342.89 423.525 342.805 423.27C341.917 420.554 341.277 417.764 340.894 414.933C334.254 413.727 336.177 414.084 332.36 413.359C333.988 417.812 336.369 424.794 337.879 429.243V429.241Z" fill="#212121"/>
<path fill-rule="evenodd" clip-rule="evenodd" d="M41.6673 337.147C39.1279 346.066 37.8336 345.171 39.1298 345.366C41.7907 345.84 44.3992 346.572 46.9179 347.552C47.0486 347.618 47.1616 347.714 47.2476 347.832C47.3336 347.95 47.3901 348.087 47.4122 348.231C47.133 349.058 47.3123 348.826 46.6727 349.277C45.918 349.062 46.167 349.224 45.6293 348.535C45.6573 348.69 45.722 348.837 45.818 348.962L45.9218 349.065L46.0048 349.131L46.0708 349.171L46.1444 349.207H46.1312L46.1972 349.235H46.1802L46.2255 349.252H46.2048H46.2369H46.2123H46.2369H46.1953H46.2123C42.7073 349.927 39.1096 349.967 35.5904 349.371C34.7375 349.256 33.96 348.822 33.4151 348.156C32.5302 346.7 33.1641 345.83 34.0207 344.305C35.6377 341.328 37.6833 338.605 40.092 336.223L41.3504 335.876L41.6673 337.147Z" fill="#212121"/>
<path fill-rule="evenodd" clip-rule="evenodd" d="M52.3036 332.963C49.617 340.811 48.7831 340.111 49.5585 340.223C51.8694 340.527 54.1416 341.074 56.3373 341.856C57.7938 342.339 57.9127 342.39 58.0598 342.939L57.3693 343.949L56.3599 343.258C56.3983 343.461 56.5072 343.643 56.6675 343.773L56.7467 343.828L56.809 343.862L56.875 343.894H56.8599L56.9203 343.919H56.9033L56.9429 343.93H56.9222H56.9505C54.9475 344.25 52.9281 344.457 50.9018 344.551C49.497 344.525 48.0956 344.402 46.7077 344.183C46.1889 344.165 45.681 344.029 45.2231 343.784C44.7652 343.539 44.3695 343.193 44.0664 342.771C43.9853 342.613 43.9171 342.448 43.8627 342.279C43.7799 341.826 43.8018 341.36 43.9267 340.917C44.0516 340.474 44.2762 340.066 44.5834 339.723C46.2752 336.866 48.3802 334.275 50.8301 332.034L52.0376 331.757L52.3036 332.963ZM47.9209 342.575L47.936 342.545L47.9246 342.568L47.9435 342.528L47.9209 342.575Z" fill="#212121"/>
<path fill-rule="evenodd" clip-rule="evenodd" d="M480.632 170.349C480.801 170.405 480.965 170.475 481.122 170.559C482.098 171.213 482.156 171.707 482.632 173.975C483.259 176.857 483.486 179.812 483.307 182.756L482.635 183.797L481.594 183.128C480.362 180.815 479.398 178.369 478.722 175.837C476.518 177.53 474.109 178.939 471.553 180.031C471.395 180.131 471.212 180.184 471.025 180.181C470.838 180.179 470.656 180.123 470.5 180.02L470.289 178.815L471.495 178.603C471.325 178.485 471.119 178.431 470.914 178.45L470.817 178.466L470.749 178.483L470.68 178.507H470.691L470.632 178.533L470.646 178.522L470.608 178.541L470.625 178.526L470.598 178.541L470.615 178.524L470.597 178.535L470.617 178.515L470.602 178.524C472.392 175.915 474.582 173.604 477.09 171.675C477.859 170.987 478.792 170.51 479.8 170.291C480.078 170.263 480.36 170.283 480.632 170.349ZM478.015 173.219V173.194L478.03 173.236L478.013 173.187L478.015 173.219Z" fill="#212121"/>
<path fill-rule="evenodd" clip-rule="evenodd" d="M64.0374 327.884C61.3489 335.732 60.5169 335.032 61.2923 335.144C63.6025 335.448 65.8741 335.996 68.0692 336.777C69.5276 337.26 69.6446 337.311 69.7936 337.86L69.1031 338.87L68.0937 338.179C68.1329 338.382 68.2425 338.565 68.4031 338.694L68.4843 338.749L68.5446 338.783L68.6126 338.815H68.5975L68.6578 338.84H68.639L68.6805 338.851H68.6578H68.688C66.6844 339.171 64.6644 339.378 62.6375 339.472C61.2324 339.443 59.8311 339.317 58.4434 339.094C57.9246 339.077 57.4167 338.94 56.9588 338.696C56.5009 338.451 56.1052 338.105 55.8021 337.683C55.7196 337.525 55.6514 337.361 55.5983 337.191C55.5153 336.738 55.5369 336.272 55.6615 335.829C55.7861 335.386 56.0104 334.977 56.3171 334.634C58.0096 331.777 60.1153 329.187 62.5658 326.946L63.7732 326.669L64.0374 327.884ZM59.6509 337.496L59.6641 337.466V337.489L59.683 337.449L59.6509 337.496Z" fill="#212121"/>
<path fill-rule="evenodd" clip-rule="evenodd" d="M475.364 181.697C475.533 181.752 475.697 181.823 475.853 181.907C476.83 182.561 476.887 183.056 477.362 185.324C477.989 188.206 478.216 191.16 478.036 194.104L477.366 195.146L476.325 194.476C475.095 192.162 474.134 189.716 473.461 187.184C471.256 188.875 468.847 190.284 466.291 191.376C466.134 191.476 465.95 191.529 465.763 191.527C465.576 191.525 465.394 191.468 465.239 191.365L465.027 190.159L466.231 189.948C466.062 189.83 465.856 189.775 465.65 189.795L465.554 189.81L465.486 189.827L465.416 189.852H465.427L465.369 189.878L465.382 189.867L465.344 189.886L465.361 189.87L465.335 189.886L465.352 189.869L465.333 189.88L465.354 189.861H465.339C467.13 187.249 469.322 184.936 471.834 183.007C472.603 182.32 473.535 181.843 474.542 181.622C474.818 181.602 475.096 181.628 475.364 181.697ZM472.748 184.567V184.543L472.763 184.584L472.746 184.533L472.748 184.567Z" fill="#212121"/>
<path fill-rule="evenodd" clip-rule="evenodd" d="M76.3943 321.914C73.7058 329.763 72.8738 329.063 73.6492 329.174C75.9594 329.478 78.231 330.026 80.4261 330.808C81.8845 331.291 82.0014 331.342 82.1505 331.891L81.46 332.9L80.4506 332.21C80.4897 332.413 80.5993 332.595 80.76 332.725L80.8411 332.782L80.9015 332.816L80.9694 332.848H80.9374L80.9977 332.87H80.9789L81.0204 332.882H80.9977H81.0279C79.0243 333.202 77.0043 333.409 74.9774 333.502C73.5732 333.476 72.1724 333.354 70.7852 333.134C70.2664 333.117 69.7585 332.98 69.3006 332.736C68.8427 332.491 68.447 332.145 68.1439 331.723C68.0614 331.565 67.9932 331.401 67.9401 331.231C67.8571 330.778 67.8787 330.312 68.0033 329.869C68.1279 329.426 68.3522 329.017 68.6589 328.674C70.3514 325.817 72.4571 323.227 74.9076 320.986L76.115 320.709L76.3943 321.914ZM72.0078 331.527L72.021 331.497L72.0115 331.521L72.0304 331.48L72.0078 331.527Z" fill="#212121"/>
<path fill-rule="evenodd" clip-rule="evenodd" d="M471.425 193.979C471.594 194.035 471.758 194.105 471.916 194.189C472.893 194.844 472.949 195.338 473.425 197.606C474.052 200.488 474.28 203.442 474.1 206.386L473.429 207.428L472.387 206.758C471.157 204.445 470.197 201.998 469.525 199.466C467.319 201.157 464.911 202.565 462.356 203.658C462.198 203.758 462.015 203.811 461.828 203.809C461.641 203.807 461.459 203.75 461.303 203.647L461.092 202.441L462.297 202.23C462.128 202.112 461.922 202.058 461.716 202.077L461.62 202.092L461.552 202.109L461.482 202.134L461.496 202.124L461.435 202.151L461.45 202.139L461.411 202.158L461.428 202.143L461.401 202.158L461.42 202.141L461.401 202.152L461.42 202.134H461.407C463.196 199.525 465.385 197.214 467.893 195.287C468.662 194.6 469.595 194.123 470.602 193.902C470.879 193.883 471.157 193.909 471.425 193.979ZM468.81 196.849V196.825L468.825 196.866L468.808 196.815L468.81 196.849Z" fill="#212121"/>
<path fill-rule="evenodd" clip-rule="evenodd" d="M30.045 215.555C32.0694 216.14 32.0392 217.819 33.2674 224.689C35.4154 222.983 37.7126 221.474 40.1311 220.18C40.3564 220.117 40.5921 220.099 40.8243 220.128C41.0565 220.157 41.2807 220.231 41.4838 220.348C41.7399 220.514 41.955 220.736 42.1131 220.998C42.2712 221.259 42.3682 221.553 42.397 221.857C42.9083 224.049 43.8478 232.045 43.7931 231.856V231.869L43.7818 231.834L43.7516 231.758L43.6705 231.618C43.3648 231.326 43.346 231.241 43.8006 231.969L43.6969 232.594L43.1667 232.939C41.931 232.75 42.6139 233.694 39.8405 224.43C33.1051 230.036 33.3108 230.309 32.0429 230.537C31.4914 230.586 30.9421 230.422 30.5071 230.08C30.072 229.737 29.784 229.242 29.7016 228.694C29.345 227.268 28.6035 223.034 28.1677 220.853C19.3117 225.909 19.9098 225.77 18.8683 225.745C16.6572 225.411 16.6911 223.744 16.9515 217.269C16.1968 217.735 11.6311 220.597 10.9481 221.085L10.9632 221.072L10.9462 221.083L10.9613 221.07L10.9481 221.081L10.9708 221.057L11.0104 221.014C11.1481 220.825 11.0707 220.94 11.1858 220.676C11.1858 220.099 11.2198 220.053 11.0877 220.9L10.5613 221.3L9.92554 221.198L9.50104 220.672C9.31237 220.014 9.84441 219.687 11.0387 218.627C12.4216 217.404 17.559 212.852 18.3231 212.542C18.6835 212.433 19.0706 212.449 19.4203 212.59C19.7699 212.73 20.0611 212.986 20.2456 213.314C20.4343 213.723 20.4626 213.295 20.7663 219.351C20.821 220.398 20.8135 220.191 20.8135 220.229C28.33 215.646 28.9658 215.316 30.045 215.555ZM30.5638 226.777L30.5978 226.753L30.5638 226.777ZM21.0003 223.225V223.183V223.212L20.989 223.159V223.185V223.151C20.9895 223.173 20.992 223.194 20.9965 223.215L21.0003 223.225ZM39.1953 222.589L39.184 222.572L39.2104 222.623L39.1953 222.598L39.2292 222.662L39.2123 222.627L39.2576 222.702C39.2365 222.645 39.21 222.59 39.1783 222.538L39.1953 222.589Z" fill="#212121"/>
<path fill-rule="evenodd" clip-rule="evenodd" d="M510.797 367.942C512.197 368.328 512.345 369.16 513.046 374.762C513.524 378.618 513.699 379.873 513.635 379.648V379.662L513.624 379.626L513.592 379.55L513.51 379.411C513.205 379.118 513.186 379.033 513.641 379.76L513.537 380.384L513.005 380.731C511.716 380.543 512.456 381.505 509.679 372.222C502.538 378.165 503.128 378.105 501.881 378.328C499.63 378.364 499.508 376.462 499.181 374.824C498.791 372.845 498.33 370.268 498.006 368.645C497.417 368.834 490.214 373.349 489.225 373.517C489.053 373.544 488.878 373.551 488.705 373.537C487.029 373.285 486.776 372.132 486.712 370.466C486.656 368.506 486.712 366.679 486.786 365.061C480.998 368.675 480.609 369.023 480.798 368.864L480.781 368.875L480.796 368.862H480.783L480.807 368.84H480.796L480.835 368.798C480.973 368.609 480.896 368.726 481.011 368.462C481.011 367.885 481.045 367.838 480.913 368.687L480.386 369.087L479.751 368.983L479.326 368.459C479.283 368.278 479.293 368.088 479.357 367.914C479.421 367.739 479.535 367.588 479.685 367.477C480.062 367.1 484.967 362.761 487.652 360.58C487.955 360.354 488.327 360.24 488.705 360.255C489.083 360.271 489.444 360.416 489.727 360.667C490.344 361.31 490.252 361.444 490.382 363.406C490.403 363.721 490.646 367.834 490.646 368.017C497.095 364.07 498.445 363.3 499.423 363.244C499.897 363.246 500.358 363.396 500.742 363.674C501.126 363.952 501.413 364.343 501.562 364.793C502.225 367.308 502.75 369.859 503.134 372.432C504.566 371.343 507.366 369.347 508.971 368.404C509.499 368.023 510.152 367.858 510.797 367.942ZM500.402 374.562L500.436 374.535L500.402 374.562ZM490.823 370.936C490.827 370.961 490.832 370.985 490.838 371.009V370.966V370.996L490.827 370.943V370.97L490.823 370.936ZM509.035 370.37L509.022 370.355L509.049 370.406L509.033 370.381L509.067 370.443L509.054 370.423L509.099 370.5C509.08 370.442 509.054 370.387 509.02 370.336L509.035 370.37Z" fill="#212121"/>
<path fill-rule="evenodd" clip-rule="evenodd" d="M505.438 277.151L506.021 277.423C506.34 278.162 506.308 278.178 506.247 277.764L506.204 277.655L506.185 277.617L506.198 277.629C507.414 278.572 508.539 279.626 509.56 280.777C515.054 287.856 514.749 289.969 515.409 291.301L515.392 291.286L515.403 291.314L515.392 292.545C515.581 292.545 514.351 292.524 514.162 292.52C514.1 292.48 514.02 292.424 513.96 292.38C511.85 291.008 510.064 289.194 508.723 287.064C506.76 284.468 505.351 281.497 504.583 278.334C504.541 278.224 504.521 278.107 504.525 277.989L505.421 277.132L505.438 277.151Z" fill="#212121"/>
<path fill-rule="evenodd" clip-rule="evenodd" d="M516.663 278.936L517.578 279.77L517.348 280.372C516.633 280.749 516.607 280.711 517.024 280.621L517.131 280.57L517.167 280.547V280.56L517.184 280.549C517.161 280.589 516.107 282.019 516.08 282.058C514.863 283.67 513.407 285.086 511.764 286.26C509.98 287.875 507.927 289.163 505.698 290.067C505.67 290.081 504.2 290.696 504.174 290.711L504.187 290.694L504.158 290.707C503.97 290.718 502.742 290.782 502.93 290.782C502.857 289.298 502.815 289.639 503.07 289.222C504.416 286.856 506.281 284.824 508.524 283.281C510.72 281.405 513.273 279.993 516.029 279.13C516.23 279.034 516.443 278.969 516.663 278.936Z" fill="#212121"/>
<path fill-rule="evenodd" clip-rule="evenodd" d="M547.047 196.353C547.721 196.365 548.393 196.425 549.058 196.53C550.528 196.437 551.989 196.82 553.223 197.623C554.458 198.427 555.4 199.607 555.91 200.989C558.19 206.46 554.48 213.529 546.288 212.45C544.594 212.224 543.027 211.429 541.843 210.195C540.775 209.109 539.999 207.77 539.586 206.302C539.174 204.835 539.139 203.288 539.485 201.804C539.681 201.067 539.986 200.364 540.389 199.717C541.108 198.624 542.102 197.738 543.27 197.148C544.438 196.558 545.74 196.284 547.047 196.353ZM548.96 198.274C547.753 198.331 546.574 198.653 545.505 199.217C544.619 199.718 543.919 200.493 543.511 201.426C543.279 202.022 543.175 202.66 543.207 203.298C543.175 204.414 543.529 205.507 544.21 206.392C544.891 207.276 545.858 207.898 546.945 208.152C548.164 208.336 549.41 208.159 550.53 207.643C550.966 207.405 551.342 207.071 551.63 206.666C552.156 205.96 552.515 205.145 552.68 204.281C552.97 202.903 552.728 201.468 552.005 200.26C551.675 199.725 551.232 199.269 550.707 198.924C550.182 198.578 549.587 198.352 548.966 198.26L548.96 198.274Z" fill="#212121"/>
<path fill-rule="evenodd" clip-rule="evenodd" d="M54.4452 264.871C55.1189 264.882 55.791 264.941 56.4564 265.046C57.9265 264.953 59.3876 265.337 60.6222 266.14C61.8568 266.944 62.799 268.124 63.3088 269.507C65.5879 274.978 61.8787 282.047 53.6868 280.968C51.9913 280.739 50.424 279.941 49.2418 278.704C48.1735 277.618 47.3971 276.279 46.9844 274.812C46.5718 273.345 46.5364 271.798 46.8816 270.314C47.0791 269.577 47.3842 268.873 47.7872 268.226C48.5077 267.134 49.5014 266.25 50.6694 265.662C51.8375 265.073 53.1392 264.801 54.4452 264.871ZM56.3583 266.792C55.1516 266.849 53.9723 267.171 52.9038 267.735C52.0172 268.237 51.3173 269.013 50.9096 269.946C50.6774 270.542 50.5739 271.179 50.6058 271.818C50.5731 272.934 50.9271 274.026 51.6079 274.911C52.2887 275.796 53.2544 276.418 54.3414 276.672C55.5604 276.857 56.8069 276.68 57.9261 276.163C58.3635 275.926 58.7405 275.591 59.0279 275.185C59.5535 274.481 59.9128 273.666 60.0788 272.803C60.3679 271.425 60.1267 269.988 59.4034 268.78C59.0731 268.246 58.6299 267.789 58.1049 267.444C57.5799 267.099 56.9857 266.872 56.364 266.78L56.3583 266.792Z" fill="#212121"/>
<path fill-rule="evenodd" clip-rule="evenodd" d="M176.026 93.0635C176.667 93.1239 176.654 93.4786 176.843 93.6673C178.623 96.9415 181.443 99.5301 184.857 101.025C185.734 101.425 186.061 101.438 186.555 102.314C186.738 102.73 186.772 103.196 186.651 103.635C186.112 105.055 185.408 104.61 183.125 106.519C182.154 107.351 181.306 108.317 180.606 109.387C178.08 113.177 178.756 115.271 176.099 115.128C174.671 114.807 174.618 114.185 173.858 112.732C172.933 110.992 171.713 109.427 170.251 108.106C168.801 106.848 167.204 105.771 165.494 104.899C165.141 104.653 164.879 104.299 164.749 103.889C164.619 103.48 164.627 103.039 164.774 102.635C165.377 101.314 165.87 101.701 168.19 100.48C171.155 98.9167 173.595 96.5186 175.211 93.5824H175.222C175.29 93.4265 175.403 93.2942 175.546 93.2019C175.689 93.1096 175.856 93.0615 176.026 93.0635ZM170.571 103.153C172.751 104.512 174.653 106.27 176.178 108.336C177.284 106.385 178.758 104.667 180.518 103.278C181.461 102.557 181.063 103.523 178.405 100.295C177.427 99.0778 176.613 97.7368 175.986 96.3067C174.783 99.0041 172.924 101.358 170.579 103.153H170.571Z" fill="#212121"/>
<path fill-rule="evenodd" clip-rule="evenodd" d="M337.377 131.484C337.34 134.083 334.576 132.921 331.265 137.898C330.626 138.868 330.074 139.892 329.616 140.958C328.938 142.502 328.933 143.198 327.48 143.619C326.999 143.715 326.5 143.646 326.063 143.422C325.627 143.199 325.279 142.833 325.076 142.387C323.525 138.914 320.891 136.037 317.567 134.187C316.011 133.295 316.156 133.476 315.694 132.948C315.437 132.601 315.303 132.178 315.312 131.747C315.321 131.315 315.473 130.899 315.745 130.563C316.311 129.978 316.311 130.097 317.632 129.546C321.138 128.044 324.041 125.411 325.878 122.067H325.889C325.939 121.959 326.01 121.862 326.099 121.783C326.187 121.703 326.291 121.643 326.404 121.605C326.517 121.568 326.637 121.554 326.755 121.565C326.874 121.576 326.989 121.612 327.093 121.669C327.916 122.213 329.019 126.341 335.072 129.31C336.393 129.969 337.147 130.018 337.377 131.484ZM321.237 131.672C323.416 133.031 325.319 134.789 326.844 136.855C327.949 134.903 329.423 133.185 331.183 131.797C332.127 131.076 331.729 132.04 329.07 128.814C328.092 127.597 327.278 126.256 326.652 124.826C325.445 127.521 323.584 129.872 321.237 131.665V131.672Z" fill="#212121"/>
<path fill-rule="evenodd" clip-rule="evenodd" d="M150.72 184.516C149.754 184.305 148.797 183.858 147.89 183.573C146.417 183.079 145.088 182.231 144.018 181.105C141.765 178.966 140.376 176.073 140.117 172.977C139.858 169.88 140.747 166.797 142.615 164.314C145.515 160.499 150.65 157.767 155.299 159.389C155.571 158.527 155.919 157.69 156.338 156.89C157.2 155.417 158.436 154.198 159.922 153.358C161.407 152.518 163.088 152.086 164.794 152.107C166.367 152.071 167.926 152.4 169.351 153.066C170.776 153.733 172.027 154.72 173.007 155.95C173.007 155.95 172.475 145.334 185.318 142.143C187.975 141.498 190.759 141.592 193.366 142.417C195.973 143.242 198.305 144.766 200.107 146.822C201.353 148.604 202.103 150.685 202.28 152.852C202.457 155.018 202.055 157.193 201.115 159.154C199.327 163.194 196.497 166.687 192.915 169.274C189.71 171.248 186.274 172.82 182.684 173.953C178.089 175.687 173.175 176.409 168.275 176.071C165.693 175.8 163.146 175.259 160.676 174.456C161.332 175.966 160.182 181.52 157.316 184.161C155.148 180.788 151.384 181.765 150.72 184.516Z" fill="#212121"/>
<path fill-rule="evenodd" clip-rule="evenodd" d="M172.158 153.614C174.435 140.958 192.213 135.866 200.983 146.181C202.246 147.961 203.045 150.029 203.309 152.196C203.572 154.363 203.292 156.562 202.492 158.593C200.334 164.146 196.281 168.757 191.051 171.611C187.935 173.108 184.715 174.379 181.416 175.413C176.395 176.935 171.101 177.343 165.906 176.609C164.423 176.345 162.966 175.951 161.551 175.432C161.463 177.787 160.797 180.084 159.612 182.122C159.278 182.688 157.997 184.624 157.337 184.718C156.569 184.691 156.561 183.288 154.737 182.661C154.337 182.524 153.912 182.479 153.493 182.529C153.074 182.58 152.671 182.725 152.316 182.954C150.877 183.912 151.443 185.039 150.618 184.929L150.635 184.856L150.616 184.935C149.299 184.574 148.001 184.147 146.726 183.656C144.762 182.639 143.075 181.16 141.809 179.346C140.543 177.533 139.736 175.439 139.459 173.245C138.366 164.108 147.077 156.642 154.676 158.252C155.291 156.589 156.297 155.098 157.609 153.905C158.921 152.712 160.5 151.852 162.214 151.397C163.928 150.942 165.726 150.906 167.457 151.292C169.187 151.678 170.8 152.475 172.158 153.614ZM160.804 173.709C161.151 173.747 161.98 174.073 163.119 174.403C168.203 175.629 173.511 175.587 178.575 174.279C181.646 173.374 184.656 172.27 187.584 170.973C195.851 167.698 203.356 158.095 200.602 149.937C198.473 143.97 188.921 139.938 180.08 145.449C178.237 146.597 176.713 148.192 175.65 150.085C174.586 151.979 174.018 154.11 173.998 156.282C173.937 156.464 173.827 156.625 173.681 156.749C173.535 156.873 173.358 156.955 173.169 156.986C172.98 157.017 172.786 156.995 172.609 156.924C172.431 156.853 172.276 156.735 172.16 156.582C171.213 155.385 169.983 154.443 168.581 153.841C167.179 153.239 165.648 152.997 164.128 153.135C162.609 153.273 161.147 153.789 159.877 154.634C158.606 155.479 157.567 156.628 156.852 157.976C156.084 159.703 156.252 160.259 155.29 160.327C155.095 160.314 154.904 160.268 154.724 160.193C153.188 159.792 151.578 159.769 150.031 160.125C148.484 160.481 147.046 161.205 145.839 162.236C144.259 163.374 142.974 164.874 142.095 166.611C141.215 168.348 140.765 170.271 140.784 172.219C140.802 174.166 141.288 176.08 142.201 177.8C143.114 179.52 144.426 180.996 146.028 182.103C146.862 182.66 147.777 183.084 148.741 183.361C149.418 183.62 149.863 183.805 150.428 183.975C150.692 183.303 151.136 182.718 151.712 182.283C152.288 181.849 152.973 181.582 153.691 181.512C154.409 181.442 155.133 181.572 155.782 181.887C156.431 182.203 156.98 182.691 157.369 183.299C158.656 181.693 159.533 179.797 159.921 177.775C160.154 176.826 160.205 175.841 160.07 174.873C160.005 174.757 159.968 174.627 159.963 174.494C159.957 174.361 159.983 174.228 160.038 174.107C160.108 173.969 160.22 173.857 160.357 173.785C160.495 173.714 160.651 173.687 160.804 173.709Z" fill="#212121"/>
<path fill-rule="evenodd" clip-rule="evenodd" d="M165.838 207.454C163.425 206.326 161.34 204.6 159.782 202.439C157.505 199.165 155.868 195.489 154.958 191.606C145.636 185.014 153.703 178.533 157.314 184.161C160.18 181.52 161.331 175.97 160.674 174.456C163.144 175.259 165.691 175.799 168.274 176.069C173.172 176.409 178.087 175.686 182.68 173.951C184.528 173.5 186.308 172.81 187.976 171.898C188.186 172.333 188.366 172.783 188.514 173.243C188.932 174.627 189.224 176.045 189.387 177.481C190.142 181.254 191.774 199.906 185.673 205.194C183.912 206.652 181.883 207.751 179.699 208.43C179.622 210.301 179.488 211.877 179.488 211.877C179.488 211.877 184.135 211.371 185.108 212.344C185.39 212.626 172.09 262.103 171.681 262.307C171.453 262.422 158.378 211.907 158.567 211.72C159.699 210.588 165.28 210.939 165.28 210.939C165.28 210.939 165.559 209.284 165.838 207.454Z" fill="white"/>
<path fill-rule="evenodd" clip-rule="evenodd" d="M187.58 170.951C188.821 170.534 189.089 171.785 189.584 173.153C189.944 174.379 190.197 175.635 190.338 176.905C191.499 183.286 191.736 194.242 189.718 200.315C188.463 204.307 186.484 207.107 180.748 209.216C180.696 210.258 180.677 210.46 180.664 210.699C182.271 210.611 184.776 210.524 185.946 211.643C186.278 212.133 186.244 212.382 186.071 213.182C184.92 218.414 173.46 261.23 172.545 262.822C172.421 263.027 172.228 263.181 172 263.257C171.773 263.333 171.526 263.325 171.304 263.235C170.708 262.937 170.738 262.99 169.03 256.423C165.798 243.971 157.79 212.097 158.088 211.456C158.693 210.235 163.531 210.375 164.88 210.446C165.031 209.595 165.185 208.686 165.329 207.805C165.357 207.643 165.427 207.748 164.834 207.428C162.698 206.329 160.843 204.754 159.412 202.824C157.526 200.163 156.041 197.238 155.005 194.146C153.935 190.85 155.137 192.889 152.688 190.625C145.936 184.31 152.969 178.292 157.259 182.793C157.39 182.933 157.344 182.929 157.429 182.826C159.19 180.544 160.05 177.695 159.844 174.82C159.793 174.713 159.764 174.597 159.759 174.478C159.753 174.36 159.771 174.241 159.812 174.13C160.523 172.475 162.352 174.751 167.819 175.092C173.218 175.45 178.627 174.584 183.644 172.558C187.774 171.309 186.85 171.309 187.58 170.951ZM182.109 175.236C176.854 176.998 171.261 177.514 165.772 176.745C164.399 176.502 163.048 176.148 161.733 175.686C161.733 179.288 159.169 184.073 157.62 184.901C156.865 185.146 156.661 184.603 156.324 184.163C153.36 180.407 147.868 184.937 154.437 190.389C156.046 191.71 155.209 190.519 156.186 193.768C156.54 194.925 156.965 196.06 157.459 197.164C159.989 202.864 162.442 205.209 166.027 207.062L166.085 207.098C166.346 207.313 166.263 207.513 166.214 207.852C165.734 211.267 165.778 211.314 165.327 211.399C163.255 211.26 161.174 211.446 159.159 211.95C160.127 216.203 169.325 250.249 171.696 258.834C173.939 250.863 182.045 220.814 183.89 212.969C182.529 212.788 181.152 212.774 179.788 212.929C179.587 212.979 179.377 212.973 179.179 212.911C178.981 212.85 178.804 212.735 178.667 212.58C178.258 212.026 178.42 212.063 178.566 209.373C178.618 208.371 178.522 208.035 179.03 207.564L179.186 207.462C180.54 207.015 181.844 206.43 183.078 205.716C185.08 204.656 186.592 202.86 187.297 200.707C190.201 193.059 189.087 177.852 187.472 173.398C186.186 173.992 184.956 174.226 182.116 175.236H182.109Z" fill="#212121"/>
<path fill-rule="evenodd" clip-rule="evenodd" d="M183.854 196.687C183.568 197.623 183.131 198.506 182.561 199.302C181.879 200.305 180.939 201.104 179.839 201.616C178.74 202.128 177.523 202.333 176.316 202.209C175.928 202.149 176.037 202.209 175.786 201.921L176.02 201.717C176.633 201.674 177.236 201.547 177.814 201.339C179.356 200.823 180.725 199.888 181.767 198.64C183.918 196.308 183.04 196.647 183.754 196.387L183.854 196.687Z" fill="#212121"/>
<path fill-rule="evenodd" clip-rule="evenodd" d="M176.46 186.359V186.386V186.403V186.446L176.477 186.516L176.535 186.629L176.567 186.659V186.076C176.586 186.052 176.567 186.057 176.65 185.995L176.696 185.971C176.762 185.937 176.836 185.92 176.911 185.921H176.975C177.411 186.025 177.335 186.372 177.39 186.638V186.62V186.652C177.798 187.35 178.143 188.084 178.418 188.844C178.818 189.988 179.287 191.106 179.824 192.193C180.422 193.304 180.528 194.189 179.513 194.951C178.795 195.444 177.953 195.725 177.082 195.76C176.477 195.847 176.545 195.772 176.098 195.349L176.526 194.908L176.569 194.891H176.552L176.598 194.872H176.592C176.641 194.847 176.758 194.762 176.801 194.732C177.639 194.138 177.384 194.442 178.018 193.768C178.126 193.645 178.148 193.608 178.154 193.602C177.321 192.234 176.757 190.72 176.494 189.14C176.397 188.416 176.365 187.684 176.4 186.953C176.4 186.737 176.318 186.716 176.454 186.37V186.389L176.46 186.359ZM178.286 193.34V193.325L178.26 193.389V193.374L178.239 193.434V193.419L178.23 193.449C178.252 193.416 178.271 193.381 178.286 193.344V193.319V193.304L178.273 193.327V193.3L178.286 193.34ZM177.198 186.659L176.613 186.67L176.656 186.71L176.769 186.765L176.892 186.784L176.994 186.78L177.101 186.74L177.179 186.689L177.22 186.653L177.198 186.659Z" fill="#212121"/>
<path d="M182.776 188.101C182.429 187.75 182.431 187.618 182.452 185.993C182.452 185.661 182.452 185.363 182.452 185.258L183.535 185.169L183.927 184.154C184.986 184.561 184.506 185.673 184.623 187.191L183.548 187.337L182.776 188.101Z" fill="#212121"/>
<path d="M167.347 187.895C167.265 187.279 167.309 186.652 167.477 186.054C167.585 185.786 167.794 185.571 168.06 185.458C168.325 185.345 168.625 185.341 168.893 185.449C169.161 185.557 169.375 185.766 169.489 186.032C169.602 186.297 169.605 186.597 169.498 186.865C169.475 186.995 169.532 187.62 169.532 187.861C169.532 187.925 169.517 188.091 169.511 188.154C170.051 189.785 167.13 190.408 167.347 187.895Z" fill="#212121"/>
</svg>
