<svg width="64" height="64" viewBox="0 0 64 64" fill="none" xmlns="http://www.w3.org/2000/svg">
<g clip-path="url(#clip0)">
<path d="M44.0884 23.7188C43.6089 24.1982 42.9585 24.4678 42.2803 24.4678C41.6021 24.4678 40.9517 24.1982 40.4722 23.7188L33.3604 16.6064C32.3613 15.6079 32.3613 13.9888 33.3604 12.9902C34.3589 11.9917 35.978 11.9917 36.9766 12.9902L41.791 17.8047C42.061 18.0752 42.4995 18.0752 42.7695 17.8047L51.5381 9.03662C49.147 6.11816 45.5156 4.25586 41.4487 4.25586C34.248 4.25586 28.4102 10.0933 28.4102 17.2944C28.4102 24.4956 34.2476 30.333 41.4487 30.333C48.6499 30.333 54.4873 24.4956 54.4873 17.2944C54.4873 16.0825 54.3188 14.9111 54.0093 13.7979L44.0884 23.7188Z" fill="#F8F8F5"/>
<path d="M32.1982 17.2944C32.1982 10.7363 37.0405 5.30957 43.3442 4.39307C42.7256 4.30273 42.0928 4.25586 41.4487 4.25586C34.2476 4.25586 28.4102 10.0933 28.4102 17.2944C28.4102 24.4956 34.2476 30.333 41.4487 30.333C42.0923 30.333 42.7246 30.2856 43.3428 30.1958C37.0396 29.2783 32.1982 23.8521 32.1982 17.2944Z" fill="#F8F8F5"/>
<path d="M56.8334 7.35779C55.8099 6.33386 54.1527 6.33386 53.1288 7.35779L42.726 17.7601C42.4808 18.0057 42.0814 18.0057 41.8358 17.7601L37.0214 12.9457C35.9979 11.9218 34.3407 11.9218 33.3168 12.9457C32.2928 13.9696 32.2928 15.6263 33.3168 16.6503L40.4286 23.7626C41.4506 24.785 43.1102 24.786 44.1332 23.7626L56.8334 11.0624C57.8573 10.0389 57.8573 8.38171 56.8334 7.35779Z" fill="#FF8838"/>
<path d="M43.9598 23.7626L36.848 16.6503C35.8241 15.6264 35.8241 13.9697 36.848 12.9458C36.8759 12.9179 36.9061 12.894 36.9344 12.8676C35.9061 11.9257 34.3129 11.9497 33.3168 12.9458C32.2928 13.9697 32.2928 15.6264 33.3168 16.6503L40.4286 23.7626C41.4227 24.7573 43.0184 24.7822 44.0468 23.8408C44.0179 23.8144 43.9877 23.7905 43.9598 23.7626Z" fill="#FF8838"/>
<path d="M58.4644 43.9105L46.5391 44.7401C46.7939 44.4042 47.1147 44.1093 47.5 43.8812L55.8408 38.9296C57.4365 37.9823 59.4985 38.5077 60.4463 40.1039C61.1714 41.3256 61.0308 42.8187 60.2104 43.8778C59.3442 43.7543 58.5928 43.893 58.4644 43.9105Z" fill="#F8F8F5"/>
<path d="M59.8389 41.2849L50.8159 41.9124L47.5 43.8811C47.1147 44.1096 46.7939 44.4041 46.5391 44.74L58.4644 43.9109C58.5928 43.8928 59.3442 43.7542 60.21 43.8777C60.7964 43.1218 61.0332 42.1438 60.8579 41.2014C60.3281 41.2004 59.9292 41.2722 59.8389 41.2849Z" fill="#F8F8F5"/>
<path d="M21.0522 48.3959L19.1572 49.1762L13.7988 36.164C16.5757 35.0336 19.4473 34.1479 22.3853 33.5502C25.6714 32.8822 26.8335 33.0883 32.9194 34.4169C34.8989 34.8891 35.7168 35.6259 42.8706 40.4994C45.4517 42.2572 43.9072 44.7978 43.9072 44.7978L58.4629 43.7851C58.7554 43.744 62.2788 43.0775 63.0298 46.3065C63.6279 49.3163 60.5776 50.3344 59.9814 50.4901L40.5664 54.3905C40.5664 54.3905 40.5654 54.391 40.564 54.391C37.625 55.1586 35.2134 54.0004 34.1909 53.3734L28.459 49.4687C26.2617 47.9721 23.4829 47.3949 21.0522 48.3959Z" fill="#F8F8F5"/>
<path d="M21.0522 48.3959L19.1572 49.1762L13.7988 36.164C16.5757 35.0336 19.4473 34.1479 22.3853 33.5502C25.6714 32.8822 26.8335 33.0883 32.9194 34.4169C34.8989 34.8891 35.7168 35.6259 42.8706 40.4994C45.4517 42.2572 43.9072 44.7978 43.9072 44.7978L58.4629 43.7851C58.7554 43.744 62.2788 43.0775 63.0298 46.3065C63.6279 49.3163 60.5776 50.3344 59.9814 50.4901L40.5664 54.3905C40.5664 54.3905 40.5654 54.391 40.564 54.391C37.625 55.1586 35.2134 54.0004 34.1909 53.3734L28.459 49.4687C26.2617 47.9721 23.4829 47.3949 21.0522 48.3959Z" fill="#F8F8F5"/>
<path d="M16.8018 35.0527C15.7896 35.3911 14.7881 35.7617 13.7988 36.1646L19.1567 49.1763L21.0518 48.396C21.2207 48.3262 21.3921 48.2646 21.5654 48.2095L16.8018 35.0527Z" fill="#F8F8F5"/>
<path d="M36.5874 53.1469C30.1177 48.3168 29.9409 47.9198 27.3906 47.3202C25.1597 46.7953 23.709 47.4774 22.0742 48.0692C23.9634 47.6278 26.332 48.0199 28.459 49.4686L34.1909 53.3739C35.146 53.9594 37.314 55.0082 39.9912 54.5179C38.4287 54.2523 37.228 53.579 36.5874 53.1469Z" fill="#F8F8F5"/>
<path d="M42.555 47.4164C44.1673 47.4164 45.2992 46.2445 45.7493 45.43C45.7537 45.4227 45.7576 45.4154 45.7616 45.4081L46.1595 44.641L43.9237 44.7962C43.5907 45.2162 42.8284 45.8851 41.6346 45.2958C39.2508 44.1195 33.5662 41.3417 33.5091 41.3138C33.0443 41.0868 32.4827 41.2792 32.2557 41.7445C32.0282 42.2093 32.221 42.7709 32.6859 42.9979C32.743 43.0257 38.4246 45.8021 40.805 46.9769C41.4364 47.2884 42.0218 47.4164 42.555 47.4164Z" fill="#F8F8F5"/>
<path d="M20.0337 50.7844L13.3101 34.4558C13.0288 33.7727 12.2466 33.4465 11.563 33.7283L1.84229 37.7312C1.32324 37.9446 0.984375 38.4509 0.984375 39.0124V58.5163C0.984375 59.2502 1.72852 59.7492 2.40723 59.4704L19.3062 52.5315C19.9893 52.2502 20.3154 51.468 20.0337 50.7844Z" fill="#F8F8F5"/>
<path d="M3.4834 58.4414V37.519C3.4834 37.3452 3.51465 37.1768 3.57129 37.019L1.84229 37.731C1.32324 37.9443 0.984375 38.4507 0.984375 39.0122V58.5161C0.984375 59.25 1.729 59.749 2.40723 59.4702L3.61865 58.9731C3.53271 58.8174 3.4834 58.6372 3.4834 58.4414Z" fill="#F8F8F5"/>
<path d="M58.4624 43.9105L46.5371 44.7401C46.792 44.4042 47.1128 44.1093 47.498 43.8812L55.8389 38.9296C57.4346 37.9823 59.4966 38.5077 60.4443 40.1039C61.1694 41.3256 61.0288 42.8187 60.2085 43.8778C59.3423 43.7543 58.5908 43.893 58.4624 43.9105Z" fill="#F8F8F5"/>
<path d="M59.8369 41.2852L50.814 41.9126L47.498 43.8814C47.1128 44.1099 46.792 44.4043 46.5371 44.7402L58.4624 43.9111C58.5908 43.8931 59.3423 43.7544 60.208 43.8779C60.7944 43.1221 61.0312 42.1441 60.856 41.2017C60.3262 41.2007 59.9272 41.2725 59.8369 41.2852Z" fill="#F8F8F5"/>
<path d="M21.0522 48.3959L19.1572 49.1762L13.7988 36.164C16.5757 35.0336 19.4473 34.1479 22.3853 33.5502C25.6714 32.8822 26.8335 33.0883 32.9194 34.4169C34.8989 34.8891 35.7168 35.6259 42.8706 40.4994C45.4517 42.2572 43.9072 44.7978 43.9072 44.7978L58.4629 43.7851C58.7554 43.744 62.2788 43.0775 63.0298 46.3065C63.6279 49.3163 60.5776 50.3344 59.9814 50.4901L40.5664 54.3905C40.5664 54.3905 40.5654 54.391 40.564 54.391C37.625 55.1586 35.2134 54.0004 34.1909 53.3734L28.459 49.4687C26.2617 47.9721 23.4829 47.3949 21.0522 48.3959Z" fill="#F8F8F5"/>
<path d="M21.0522 48.3959L19.1572 49.1762L13.7988 36.164C16.5757 35.0336 19.4473 34.1479 22.3853 33.5502C25.6714 32.8822 26.8335 33.0883 32.9194 34.4169C34.8989 34.8891 35.7168 35.6259 42.8706 40.4994C45.4517 42.2572 43.9072 44.7978 43.9072 44.7978L58.4629 43.7851C58.7554 43.744 62.2788 43.0775 63.0298 46.3065C63.6279 49.3163 60.5776 50.3344 59.9814 50.4901L40.5664 54.3905C40.5664 54.3905 40.5654 54.391 40.564 54.391C37.625 55.1586 35.2134 54.0004 34.1909 53.3734L28.459 49.4687C26.2617 47.9721 23.4829 47.3949 21.0522 48.3959Z" fill="#F8F8F5"/>
<path d="M16.8018 35.0527C15.7896 35.3911 14.7881 35.7617 13.7988 36.1646L19.1567 49.1763L21.0518 48.396C21.2207 48.3262 21.3921 48.2646 21.5654 48.2095L16.8018 35.0527Z" fill="#F8F8F5"/>
<path d="M36.5874 53.1471C30.1177 48.317 29.9409 47.9201 27.3906 47.3204C25.1597 46.7955 23.709 47.4777 22.0742 48.0695C23.9634 47.6281 26.332 48.0202 28.459 49.4689L34.1909 53.3741C35.146 53.9596 37.314 55.0084 39.9912 54.5182C38.4287 54.2526 37.228 53.5792 36.5874 53.1471Z" fill="#F8F8F5"/>
<path d="M20.0337 50.7844L13.3101 34.4558C13.0288 33.7727 12.2466 33.4465 11.563 33.7283L1.84229 37.7312C1.32324 37.9446 0.984375 38.4509 0.984375 39.0124V58.5163C0.984375 59.2502 1.72852 59.7492 2.40723 59.4704L19.3062 52.5315C19.9893 52.2502 20.3154 51.468 20.0337 50.7844Z" fill="#F8F8F5"/>
<path d="M3.4834 58.4414V37.519C3.4834 37.3452 3.51465 37.1768 3.57129 37.019L1.84229 37.731C1.32324 37.9443 0.984375 38.4507 0.984375 39.0122V58.5161C0.984375 59.25 1.729 59.749 2.40723 59.4702L3.61865 58.9731C3.53271 58.8174 3.4834 58.6372 3.4834 58.4414Z" fill="#F8F8F5"/>
<path d="M57.4067 6.73765C57.4062 6.73717 57.4062 6.73765 57.4067 6.73765C56.0409 5.37193 53.8305 5.37144 52.4643 6.73765L51.5331 7.66881C49.4545 5.48131 46.727 4.01646 43.748 3.51304C43.2372 3.42662 42.7533 3.77086 42.6669 4.28111C42.581 4.79185 42.9247 5.27574 43.4355 5.36217C46.0292 5.80015 48.4052 7.07945 50.2089 8.99302L42.2353 16.9667L37.5946 12.3255C36.2289 10.9598 34.0185 10.9598 32.6522 12.3255C31.2865 13.6913 31.286 15.9017 32.6522 17.2679L39.7641 24.3797C41.1298 25.7455 43.3407 25.746 44.7065 24.3797L53.3979 15.6888C54.3739 22.9623 48.6816 29.3939 41.4037 29.3939C34.7314 29.3939 29.3026 23.9657 29.3026 17.2928C29.3026 11.3656 33.5375 6.34849 39.3725 5.36265C39.8832 5.27623 40.227 4.79234 40.141 4.2816C40.0546 3.77135 39.5702 3.42662 39.06 3.51353C35.8422 4.05699 32.8974 5.73082 30.7675 8.22642C23.0907 17.2225 29.4589 31.2694 41.4037 31.2694C50.3573 31.2694 57.0839 22.8968 55.0043 14.0819L57.4067 11.68C58.7724 10.3143 58.7724 8.10386 57.4067 6.73765ZM56.0805 10.3539L43.3803 23.0541C42.7475 23.6869 41.7231 23.6869 41.0902 23.0541L33.9779 15.9418C33.3451 15.3089 33.3446 14.2845 33.9779 13.6517C34.6107 13.0184 35.6352 13.0184 36.2685 13.6517L41.0829 18.4662C41.7182 19.1014 42.7519 19.1014 43.3876 18.4662C43.6757 18.1781 53.0707 8.78306 53.7904 8.06383C54.4233 7.43101 55.4477 7.43004 56.0805 8.06334L56.081 8.06383C56.7138 8.69615 56.7138 9.72056 56.0805 10.3539Z" fill="#212121"/>
<path d="M63.897 46.0323C63.5742 44.6426 62.7422 43.6436 61.5566 43.1236C61.9951 41.9361 61.8896 40.5992 61.2168 39.4654C60.0112 37.4346 57.3774 36.7632 55.3467 37.9688L47.0425 42.8985C46.6943 43.105 46.3809 43.358 46.106 43.6519L45.292 43.7085C45.4946 42.4585 45.1958 40.8834 43.4404 39.688C36.5542 34.9966 35.3237 33.9561 33.2046 33.4908C27.0635 32.1504 25.7979 31.9205 22.3301 32.6251C19.708 33.1587 17.0728 33.9361 14.4839 34.9356L14.1348 34.0879C13.6558 32.9249 12.3267 32.3707 11.1631 32.8497L1.43896 36.8541C0.564941 37.2144 0 38.0577 0 39.003V58.5142C0 59.9195 1.42773 60.8658 2.71729 60.3365L19.623 53.3941C20.7837 52.9161 21.3389 51.5835 20.8613 50.4224C20.8613 50.4224 20.8613 50.4224 20.8608 50.4224L20.5269 49.6114L21.5474 49.1915C23.6846 48.3111 26.1309 48.8702 28.0366 50.1675L33.7437 54.0557C34.2549 54.4048 34.8589 54.2779 35.1431 53.8047C35.4097 53.3609 35.2661 52.7847 34.8223 52.5181L29.0918 48.6177C26.6763 46.9727 23.583 46.3248 20.833 47.4576L19.813 47.8775L15.1973 36.668C17.6763 35.7134 20.1973 34.9727 22.7041 34.4629C26.4263 33.7061 27.6997 34.3013 32.7876 35.3189C34.5659 35.7432 35.333 36.4336 42.3848 41.2378C43.4448 41.96 43.8096 43.0479 43.1245 44.2881C43.0464 44.4292 42.3223 45.646 40.9478 44.9683C38.7554 43.8863 33.5273 41.3316 33.4751 41.3057C33.0093 41.0787 32.4482 41.2715 32.2212 41.7364C31.9937 42.2017 32.1865 42.7632 32.6519 42.9903C32.7046 43.0162 37.9292 45.5694 40.1182 46.6495C41.8403 47.4991 43.4814 46.9048 44.4648 45.646C63.9614 44.2896 58.6426 44.6255 60.168 44.6392C61.0273 44.7906 61.7915 45.2793 62.0669 46.4419C62.4893 48.6207 60.2559 49.356 59.7363 49.4966C38.3193 53.7989 39.5752 53.6016 38.708 53.608C38.1899 53.6119 37.7734 54.0347 37.7773 54.5528C37.7812 55.0684 38.2002 55.483 38.7148 55.483H38.7217C39.7871 55.4751 38.314 55.7125 60.1338 51.3292C61.2441 51.1055 64.6104 49.6202 63.9033 46.0621C63.9014 46.0523 63.8994 46.042 63.897 46.0323ZM19.1274 51.1368C19.2114 51.3409 19.1138 51.5762 18.9102 51.6597L2.00488 58.6016C1.99219 58.607 1.9585 58.6207 1.91699 58.5928C1.875 58.565 1.875 58.5284 1.875 58.5142V39.003C1.875 38.8204 1.98389 38.6578 2.15283 38.5884L11.8774 34.584C12.082 34.4996 12.3169 34.5972 12.4009 34.8023C12.5933 35.2691 18.8032 50.3492 19.1274 51.1368ZM59.6919 42.7178C59.0483 42.6934 60.2412 42.669 49.8896 43.3887L56.3037 39.5811C57.4463 38.9029 58.9263 39.2808 59.604 40.4229C60.0283 41.1368 60.0513 41.9952 59.6919 42.7178Z" fill="#212121"/>
</g>
<defs>
<clipPath id="clip0">
<rect width="64" height="64" fill="white"/>
</clipPath>
</defs>
</svg>
