<svg width="64" height="64" viewBox="0 0 64 64" fill="none" xmlns="http://www.w3.org/2000/svg">
<g clip-path="url(#clip0)">
<path d="M58.3074 56.3418C58.1751 56.3418 58.0413 56.314 57.9134 56.2554C49.8338 52.5439 36.2098 54.0479 32.471 56.2144C32.0203 56.4756 31.4422 56.3223 31.18 55.8706C30.9188 55.4194 31.0726 54.8413 31.5237 54.5796C33.7918 53.2651 38.5228 52.3027 43.576 52.1279C47.0076 52.0088 53.533 52.1646 58.7019 54.5386C59.1761 54.7564 59.3841 55.3169 59.1663 55.791C59.0071 56.1377 58.6648 56.3418 58.3074 56.3418Z" fill="#212121"/>
<path d="M5.6914 56.3417C5.33398 56.3417 4.99169 56.1376 4.83252 55.7914C4.61474 55.3173 4.82275 54.7563 5.29687 54.5385C10.4639 52.164 16.9902 52.0082 20.4209 52.1279C25.4751 52.3027 30.2056 53.2651 32.4717 54.58C32.9233 54.8417 33.0766 55.4194 32.8149 55.871C32.5532 56.3222 31.9751 56.476 31.5234 56.2138C27.7866 54.0463 14.166 52.5424 6.08544 56.2553C5.95751 56.3139 5.82373 56.3417 5.6914 56.3417Z" fill="#212121"/>
<path fill-rule="evenodd" clip-rule="evenodd" d="M31.9985 62.6807L57.7104 62.6489C61.1538 62.645 63.0557 60.1631 63.0557 57.5464V24.665C63.0557 22.5972 61.3623 20.9048 59.2939 20.9048H4.70361C2.63477 20.9048 0.945312 22.5972 0.945312 24.665V57.5464C0.945312 60.1631 2.84375 62.645 6.29053 62.6489L31.9985 62.6807Z" fill="#F8F8F5"/>
<path fill-rule="evenodd" clip-rule="evenodd" d="M31.998 55.397H58.3086V19.9771C58.3086 18.0933 57.5503 17.8911 55.3149 17.2573C52.7856 16.5386 50.1074 16.188 45.4175 16.0571C38.4282 16.2554 34.0352 17.1899 31.9985 18.3691V55.397H31.998Z" fill="#F8F8F5"/>
<path fill-rule="evenodd" clip-rule="evenodd" d="M31.998 55.397L35.6685 35.0083L31.998 18.3691C29.9614 17.1899 25.5723 16.2554 18.5825 16.0571C13.8887 16.188 11.2144 16.5386 8.68164 17.2573C6.44971 17.8911 5.69141 18.0928 5.69141 19.9771V55.397H31.998Z" fill="#F8F8F5"/>
<path fill-rule="evenodd" clip-rule="evenodd" d="M7.63623 57.911H31.998L33.4541 56.4555L31.998 55.3969C27.8535 52.9926 13.9526 51.601 5.69141 55.3969V55.914C5.69141 57.0116 6.56641 57.911 7.63623 57.911Z" fill="#F8F8F5"/>
<path fill-rule="evenodd" clip-rule="evenodd" d="M58.3086 55.3969C50.0439 51.601 36.1465 52.9926 31.998 55.3969V57.911H56.3599C57.4297 57.911 58.3086 57.0116 58.3086 55.914V55.3969Z" fill="#F8F8F5"/>
<path fill-rule="evenodd" clip-rule="evenodd" d="M41.46 26.5521L44.4072 28.3016L47.3579 26.5521H47.585C47.585 21.4461 52.5303 20.7874 52.523 15.2957C52.5161 10.0618 48.4634 7.48762 44.4072 7.54816C40.3545 7.48762 36.3018 10.0618 36.2949 15.2957C36.2876 20.7874 41.2329 21.4461 41.2329 26.5521H41.46Z" fill="#FF8838"/>
<path fill-rule="evenodd" clip-rule="evenodd" d="M44.4087 26.5522H41.4614C40.1821 26.5522 39.1406 27.5972 39.1406 28.8716C39.1406 30.1465 40.1821 31.1875 41.4614 31.1875H47.3594C48.6348 31.1875 49.6797 30.1465 49.6797 28.8716C49.6797 27.5972 48.6348 26.5522 47.3594 26.5522H44.4087Z" fill="#F8F8F5"/>
<path fill-rule="evenodd" clip-rule="evenodd" d="M49.4609 15.2958C49.4678 20.7875 44.5225 21.4462 44.5225 26.5522H47.5869C47.5869 21.4462 52.5322 20.7875 52.5249 15.2958C52.5181 10.0619 48.4653 7.48773 44.4092 7.54828C43.8989 7.53753 43.3853 7.57269 42.8789 7.65082C46.3647 8.18548 49.457 10.728 49.4609 15.2958Z" fill="#FF8838"/>
<path fill-rule="evenodd" clip-rule="evenodd" d="M49.6792 28.8716C49.6792 27.5972 48.6343 26.5522 47.3589 26.5522H44.2949C44.9854 26.5522 45.6089 26.8569 46.0342 27.3384C46.3955 27.749 46.6152 28.2837 46.6152 28.8716C46.6152 30.1465 45.5737 31.1875 44.2949 31.1875H47.3589C48.6343 31.1875 49.6792 30.1465 49.6792 28.8716Z" fill="#F8F8F5"/>
<path fill-rule="evenodd" clip-rule="evenodd" d="M54.5723 20.9048V54.1011C55.897 54.4409 57.1582 54.8657 58.3096 55.397V19.9771C58.3096 18.0933 57.5513 17.8911 55.3159 17.2573C55.0718 17.1865 54.8237 17.1191 54.5723 17.0557V20.9048Z" fill="#F8F8F5"/>
<path fill-rule="evenodd" clip-rule="evenodd" d="M58.3081 55.397C57.1567 54.8657 55.8955 54.4409 54.5703 54.1011V57.9111H56.3594C57.4292 57.9111 58.3081 57.0117 58.3081 55.9141V55.397Z" fill="#F8F8F5"/>
<path fill-rule="evenodd" clip-rule="evenodd" d="M58.3081 55.9141C58.3081 57.0117 57.4292 57.9111 56.3594 57.9111H54.5703V62.6523L57.709 62.6489C61.1523 62.6455 63.0547 60.1631 63.0547 57.5464V24.665C63.0547 22.5972 61.3613 20.9048 59.2925 20.9048H58.3076V55.9141H58.3081Z" fill="#F8F8F5"/>
<path d="M59.2935 19.9599H59.2529C59.2466 17.3905 57.8027 16.9808 55.6191 16.3617L55.5752 16.349C54.8789 16.1498 54.1782 15.9823 53.4531 15.8397C53.4629 15.6625 53.4683 15.4808 53.4683 15.2943C53.4648 12.8168 52.6226 10.6806 51.0332 9.11659C49.3745 7.48427 46.9658 6.57216 44.4077 6.60341C41.8579 6.56581 39.4443 7.48378 37.7861 9.11561C36.1963 10.6801 35.354 12.8168 35.3506 15.2943C35.3506 15.6024 35.3647 15.8969 35.3911 16.1801C34.0137 16.4926 32.877 16.8676 31.998 17.2997C29.7715 16.2055 25.9351 15.4833 20.8374 15.2059C20.3188 15.1791 19.8711 15.5766 19.8428 16.0975C19.8145 16.6185 20.2139 17.0639 20.7349 17.0922C26.7939 17.4223 29.7095 18.3104 31.0537 18.9418V53.9198C28.5259 52.9501 24.584 52.2719 20.4209 52.1278C17.2808 52.0184 11.5474 52.141 6.63623 53.9833V19.9769C6.63623 19.1259 6.81738 18.9828 6.92578 18.8969C7.23926 18.6488 7.93262 18.452 8.89209 18.1796L8.93945 18.1659C11.0195 17.5756 13.1201 17.2665 16.1899 17.0995C16.7109 17.0712 17.1099 16.6259 17.0815 16.1049C17.0532 15.5839 16.605 15.1825 16.0869 15.2128C12.8677 15.3881 10.6475 15.7172 8.42334 16.3485L8.37598 16.3622C6.19531 16.9813 4.75342 17.3915 4.74707 19.9599H4.70312C2.10986 19.9599 0 22.0707 0 24.6649V57.5463C0 60.5482 2.16016 63.5892 6.28906 63.5932L31.9971 63.6254H31.998H31.999L42.3472 63.6146C42.8687 63.6141 43.291 63.1908 43.2905 62.6688C43.29 62.1474 42.8672 61.7255 42.3462 61.7255C42.3457 61.7255 42.3452 61.7255 42.3452 61.7255L32.9429 61.7348V58.8554H56.3599C57.9551 58.8554 59.2529 57.5355 59.2529 55.9135V21.849H59.293C60.8467 21.849 62.1108 23.1122 62.1108 24.6649V57.5463C62.1108 59.5463 60.7329 61.7011 57.7085 61.704L46.7231 61.7182C46.2012 61.7186 45.7788 62.1425 45.7798 62.664C45.7803 63.1854 46.2031 63.6073 46.7246 63.6073H46.7256L57.7104 63.5932C61.8398 63.5892 64 60.5482 64 57.5463V24.6649C64 22.0707 61.8887 19.9599 59.2935 19.9599ZM39.1108 10.4628C40.4146 9.18007 42.3433 8.45839 44.3936 8.49257H44.4219C46.4731 8.45741 48.4043 9.18055 49.708 10.4633C50.9292 11.6649 51.5762 13.3363 51.5791 15.2968C51.582 17.7523 50.5063 19.0482 49.2612 20.5487C48.1753 21.8568 46.9614 23.3197 46.6943 25.6078H45.3521V19.0624H46.8345C47.356 19.0624 47.7788 18.6395 47.7788 18.1181C47.7788 17.5961 47.356 17.1732 46.8345 17.1732H41.8853C41.3633 17.1732 40.9404 17.5961 40.9404 18.1181C40.9404 18.6395 41.3633 19.0624 41.8853 19.0624H43.4629V25.6078H42.1245C41.8574 23.3197 40.6436 21.8568 39.5576 20.5487C38.312 19.0482 37.2368 17.7523 37.2397 15.2968C37.2427 13.3358 37.8896 11.6644 39.1108 10.4628ZM41.4604 27.497H47.3584C48.1172 27.497 48.7344 28.1137 48.7344 28.8715C48.7344 29.6273 48.1172 30.2426 47.3584 30.2426H41.4604C40.7017 30.2426 40.0845 29.6273 40.0845 28.8715C40.0845 28.1137 40.7017 27.497 41.4604 27.497ZM38.104 21.7553C39.1416 23.0053 40.0522 24.1054 40.2485 25.8417C39.0469 26.3236 38.1953 27.4999 38.1953 28.8715C38.1953 30.6693 39.6602 32.1317 41.4604 32.1317H47.3584C49.1587 32.1317 50.6235 30.6693 50.6235 28.8715C50.6235 27.4999 49.772 26.3236 48.5703 25.8417C48.7666 24.1054 49.6772 23.0048 50.7148 21.7548C51.6328 20.6493 52.6372 19.4379 53.1411 17.7045C53.7944 17.8344 54.4282 17.9857 55.0571 18.1659L55.1035 18.1791C56.0649 18.4516 56.7593 18.6488 57.0742 18.8974C57.1826 18.9828 57.3638 19.1259 57.3638 19.9769V53.9833C52.4507 52.141 46.7178 52.0189 43.5767 52.1278C39.4141 52.2719 35.4712 52.9506 32.9429 53.9198V18.9423C33.5342 18.664 34.4336 18.3368 35.7798 18.0287C36.3091 19.5912 37.2441 20.7196 38.104 21.7553ZM31.0537 55.9696V56.9662H7.63623C7.1167 56.9662 6.68896 56.5468 6.64111 56.0131C14.459 52.744 26.8569 53.9872 31.0537 55.9696ZM1.88916 57.5463V24.6649C1.88916 23.1122 3.15186 21.849 4.70312 21.849H4.74707V55.914C4.74707 57.536 6.04346 58.8554 7.63672 58.8554H31.0537V61.7348L6.29102 61.704C3.26709 61.7011 1.88916 59.5463 1.88916 57.5463ZM56.3599 56.9662H32.9429V55.9701C37.1411 53.9882 49.5415 52.7455 57.3589 56.0131C57.3091 56.539 56.8721 56.9662 56.3599 56.9662Z" fill="#212121"/>
<path d="M27.4019 38.3622C25.9185 37.5014 22.9771 36.8964 19.7247 36.7836C17.5562 36.7089 13.4268 36.8085 10.1383 38.3212C9.66415 38.539 9.45663 39.1 9.6744 39.5741C9.83358 39.9203 10.1759 40.1239 10.5333 40.1239C10.6656 40.1239 10.7994 40.0961 10.9273 40.0375C15.8678 37.7655 24.1773 38.6752 26.4532 39.996C26.9044 40.2582 27.4825 40.1049 27.7447 39.6532C28.0064 39.2025 27.8531 38.6244 27.4019 38.3622Z" fill="#212121"/>
<path d="M27.4019 45.2955C25.9185 44.4346 22.9771 43.8297 19.7247 43.7169C17.5562 43.6417 13.4268 43.7418 10.1383 45.2545C9.66415 45.4722 9.45663 46.0333 9.6744 46.5074C9.83358 46.8536 10.1759 47.0572 10.5333 47.0572C10.6656 47.0572 10.7994 47.0294 10.9273 46.9708C15.8678 44.6988 24.1773 45.6085 26.4532 46.9293C26.9044 47.191 27.4825 47.0382 27.7447 46.5865C28.0064 46.1358 27.8531 45.5577 27.4019 45.2955Z" fill="#212121"/>
<path d="M27.4038 31.4292C25.9199 30.5679 22.978 29.9624 19.7265 29.8496C17.5571 29.7739 13.4272 29.8736 10.1396 31.3882C9.66551 31.6065 9.45848 32.1675 9.67674 32.6416C9.83592 32.9873 10.1782 33.1909 10.5351 33.1909C10.6675 33.1909 10.8017 33.1631 10.9302 33.1045C15.8672 30.8301 24.1777 31.7407 26.4551 33.063C26.9062 33.3247 27.4844 33.1714 27.7466 32.7202C28.0083 32.2691 27.855 31.6909 27.4038 31.4292Z" fill="#212121"/>
<path d="M37.5465 39.9961C39.8204 38.6738 48.1276 37.7637 53.068 40.0376C53.1959 40.0967 53.3302 40.124 53.4625 40.124C53.82 40.124 54.1618 39.9204 54.3214 39.5742C54.5392 39.1006 54.3317 38.5396 53.858 38.3213C50.5714 36.8086 46.4415 36.7085 44.2731 36.7842C41.0197 36.8965 38.0783 37.5015 36.5973 38.3628C36.1461 38.625 35.9928 39.2031 36.255 39.6543C36.5172 40.1055 37.0953 40.2583 37.5465 39.9961Z" fill="#212121"/>
<path d="M53.8577 45.2545C50.571 43.7418 46.4412 43.6417 44.2727 43.7169C41.0193 43.8297 38.0784 44.4346 36.5969 45.296C36.1458 45.5582 35.9929 46.1363 36.2551 46.5875C36.5173 47.0386 37.0955 47.1915 37.5466 46.9293C39.8206 45.607 48.1272 44.6968 53.0681 46.9708C53.196 47.0299 53.3303 47.0577 53.4622 47.0577C53.8201 47.0577 54.1619 46.8536 54.321 46.5074C54.5393 46.0338 54.3318 45.4727 53.8577 45.2545Z" fill="#212121"/>
<path d="M44.415 4.74268C44.937 4.74268 45.3599 4.31982 45.3599 3.79834V1.31982C45.3599 0.797852 44.937 0.375 44.415 0.375C43.8936 0.375 43.4707 0.797852 43.4707 1.31982V3.79834C43.4707 4.31982 43.8936 4.74268 44.415 4.74268Z" fill="#212121"/>
<path d="M35.71 6.67633C35.8945 6.86041 36.1362 6.9527 36.3779 6.9527C36.6196 6.9527 36.8613 6.86041 37.0459 6.67584C37.415 6.3067 37.4146 5.70856 37.0454 5.3399L35.2886 3.58356C34.9194 3.2149 34.3213 3.2149 33.9526 3.58405C33.5835 3.9527 33.5835 4.55084 33.9526 4.91998L35.71 6.67633Z" fill="#212121"/>
<path d="M52.4525 6.9527C52.6946 6.9527 52.9363 6.86041 53.1209 6.67536L54.8743 4.91901C55.243 4.54987 55.2425 3.95172 54.8734 3.58307C54.5042 3.21491 53.9061 3.21491 53.5374 3.58453L51.784 5.34039C51.4153 5.70954 51.4158 6.30768 51.785 6.67633C51.9695 6.86041 52.2112 6.9527 52.4525 6.9527Z" fill="#212121"/>
<path d="M9.6744 25.704C9.83358 26.0502 10.1759 26.2543 10.5333 26.2543C10.6656 26.2543 10.7994 26.2264 10.9273 26.1678C15.8629 23.8978 24.1749 24.807 26.4542 26.1268C26.9054 26.3886 27.4835 26.2343 27.7452 25.7831C28.0064 25.3314 27.8526 24.7533 27.401 24.4921C25.9171 23.6327 22.9757 23.0282 19.7247 22.9154C17.5557 22.8402 13.4259 22.9393 10.1383 24.4511C9.66415 24.6693 9.45663 25.2303 9.6744 25.704Z" fill="#212121"/>
</g>
<defs>
<clipPath id="clip0">
<rect width="64" height="64" fill="white"/>
</clipPath>
</defs>
</svg>
