<svg width="108" height="24" viewBox="0 0 108 24" fill="none" xmlns="http://www.w3.org/2000/svg">
<g clip-path="url(#clip0)">
<path d="M8.57816 13.2357H5.14728V23.3158H1.40926V13.2357H0V10.0492H1.40926V5.79059C1.40926 3.62635 1.99169 2.06354 3.15559 1.10308C4.03328 0.368017 5.12635 0 6.43384 0C7.20975 0 7.92485 0.1536 8.57811 0.459779V3.86073C8.08841 3.49271 7.52594 3.30919 6.89362 3.30919C6.30117 3.30919 5.8514 3.53459 5.54523 3.98339C5.27995 4.41222 5.14728 5.17818 5.14728 6.28126V10.0492H8.57816V13.2357Z" fill="#22201E"/>
<path d="M10.8907 6.02094C10.4518 5.58209 10.2324 5.05554 10.2324 4.44318C10.2324 3.8298 10.4518 3.30421 10.8907 2.86541C11.3305 2.4256 11.8561 2.20618 12.4685 2.20618C13.0818 2.20618 13.6074 2.4256 14.0472 2.86541C14.4861 3.30425 14.7055 3.82985 14.7055 4.44318C14.7055 5.05554 14.4861 5.58214 14.0472 6.02094C13.6074 6.45978 13.0818 6.6792 12.4685 6.6792C11.8561 6.6792 11.3305 6.45978 10.8907 6.02094ZM10.6005 10.0492H14.3375V23.3158H10.6005V10.0492Z" fill="#22201E"/>
<path d="M18.1982 23.3158V10.0492H21.9363V11.7656C22.9575 10.3364 24.3259 9.6203 26.0413 9.6203C27.7777 9.6203 29.0852 10.1618 29.9629 11.2449C30.6571 12.1027 31.0051 13.3483 31.0051 14.982V23.3158H27.2671V16.0851C27.2671 14.8394 27.0317 13.9717 26.563 13.481C26.1331 13.0322 25.5516 12.8068 24.8166 12.8068C23.7943 12.8068 23.0284 13.1958 22.5188 13.9718C22.1298 14.5841 21.9363 15.4418 21.9363 16.5449V23.3159H18.1982V23.3158Z" fill="#22201E"/>
<path d="M44.7319 11.7656V10.0492H48.4689V23.3158H44.7319V21.6004C43.7305 23.0306 42.3721 23.7447 40.6567 23.7447C38.654 23.7447 37.0254 23.0605 35.7697 21.6922C34.5131 20.3238 33.8857 18.6493 33.8857 16.6676C33.8857 14.6659 34.4981 12.9914 35.7238 11.643C36.9496 10.2946 38.5323 9.62042 40.4722 9.62042C42.3921 9.62037 43.8123 10.3364 44.7319 11.7656ZM44.0577 14.0016C43.3625 13.2876 42.4839 12.9295 41.4227 12.9295C40.3605 12.9295 39.4818 13.2876 38.7877 14.0016C38.0925 14.7167 37.7455 15.6054 37.7455 16.6675C37.7455 17.7297 38.0925 18.6233 38.7877 19.3484C39.4818 20.0734 40.3605 20.4365 41.4227 20.4365C42.4838 20.4365 43.3625 20.0735 44.0577 19.3484C44.7518 18.6233 45.0989 17.7297 45.0989 16.6675C45.0989 15.6054 44.7518 14.7167 44.0577 14.0016Z" fill="#22201E"/>
<path d="M52.0234 23.3158V10.0492H55.7603V11.5512C56.7816 10.2646 58.099 9.6203 59.7131 9.6203C61.6934 9.6203 63.0941 10.4281 63.9106 12.0408C64.9109 10.4281 66.331 9.6203 68.1693 9.6203C69.7211 9.6203 70.916 10.1618 71.754 11.2449C72.1416 11.7556 72.3918 12.2862 72.5046 12.8377C72.6164 13.3892 72.6731 14.1043 72.6731 14.982V23.3157H68.9353V16.0851C68.9353 14.8394 68.731 13.9717 68.323 13.481C67.9548 13.0322 67.4442 12.8068 66.7911 12.8068C65.8505 12.8068 65.1662 13.1958 64.7373 13.9718C64.3906 14.5432 64.217 15.4009 64.217 16.5449V23.3159H60.4791V16.0851C60.4791 14.8394 60.2743 13.9717 59.8663 13.481C59.4987 13.0322 58.988 12.8068 58.3344 12.8068C57.3948 12.8068 56.7111 13.1958 56.2822 13.9718C55.9339 14.5432 55.7603 15.4009 55.7603 16.5449V23.3159H52.0234V23.3158Z" fill="#22201E"/>
<path d="M79.965 0.368042V11.7656C80.9862 10.3365 82.4262 9.62035 84.2844 9.62035C86.2254 9.62035 87.7981 10.2846 89.0027 11.612C90.2073 12.9405 90.8109 14.625 90.8109 16.6676C90.8109 18.7101 90.1925 20.4006 88.9568 21.7381C87.721 23.0765 86.1335 23.7447 84.1925 23.7447C82.415 23.7447 81.0061 23.0306 79.965 21.6004V23.3159H76.2266V0.368042H79.965ZM85.9088 14.0017C85.2138 13.2876 84.335 12.9295 83.2739 12.9295C82.2107 12.9295 81.3329 13.2876 80.639 14.0017C79.944 14.7168 79.5968 15.6054 79.5968 16.6676C79.5968 17.7297 79.944 18.6234 80.639 19.3484C81.3329 20.0735 82.2107 20.4365 83.2739 20.4365C84.335 20.4365 85.2138 20.0735 85.9088 19.3484C86.6033 18.6234 86.95 17.7297 86.95 16.6676C86.95 15.6054 86.6033 14.7168 85.9088 14.0017Z" fill="#22201E"/>
<path d="M103.863 11.7656V10.0492H107.6V23.3158H103.863V21.6004C102.862 23.0306 101.503 23.7447 99.7877 23.7447C97.7849 23.7447 96.1565 23.0605 94.9009 21.6922C93.6442 20.3238 93.0166 18.6493 93.0166 16.6676C93.0166 14.6659 93.6289 12.9914 94.8549 11.643C96.0804 10.2946 97.6634 9.62042 99.6033 9.62042C101.523 9.62037 102.943 10.3364 103.863 11.7656ZM103.189 14.0016C102.494 13.2876 101.615 12.9295 100.554 12.9295C99.4915 12.9295 98.6127 13.2876 97.9187 14.0016C97.2232 14.7167 96.8765 15.6054 96.8765 16.6675C96.8765 17.7297 97.2232 18.6233 97.9187 19.3484C98.6127 20.0734 99.4915 20.4365 100.554 20.4365C101.615 20.4365 102.494 20.0735 103.189 19.3484C103.882 18.6233 104.23 17.7297 104.23 16.6675C104.23 15.6054 103.882 14.7167 103.189 14.0016Z" fill="#22201E"/>
</g>
<defs>
<clipPath id="clip0">
<rect width="107.745" height="24" fill="white"/>
</clipPath>
</defs>
</svg>
