<svg width="108" height="24" viewBox="0 0 108 24" fill="none" xmlns="http://www.w3.org/2000/svg">
<g clip-path="url(#clip0)">
<path d="M8.57816 13.2357H5.14728V23.3158H1.40926V13.2357H0V10.0492H1.40926V5.79059C1.40926 3.62635 1.99169 2.06354 3.15559 1.10308C4.03328 0.368017 5.12635 0 6.43384 0C7.20975 0 7.92485 0.1536 8.57811 0.459779V3.86073C8.08841 3.49271 7.52594 3.30919 6.89362 3.30919C6.30117 3.30919 5.8514 3.53459 5.54523 3.98339C5.27995 4.41222 5.14728 5.17818 5.14728 6.28126V10.0492H8.57816V13.2357Z" fill="white"/>
<path d="M10.8907 6.02106C10.4518 5.58222 10.2324 5.05566 10.2324 4.4433C10.2324 3.82992 10.4518 3.30433 10.8907 2.86553C11.3305 2.42572 11.8561 2.2063 12.4685 2.2063C13.0818 2.2063 13.6074 2.42572 14.0472 2.86553C14.4861 3.30438 14.7055 3.82998 14.7055 4.4433C14.7055 5.05566 14.4861 5.58227 14.0472 6.02106C13.6074 6.4599 13.0818 6.67932 12.4685 6.67932C11.8561 6.67932 11.3305 6.4599 10.8907 6.02106ZM10.6005 10.0493H14.3375V23.316H10.6005V10.0493Z" fill="white"/>
<path d="M18.1982 23.3159V10.0492H21.9363V11.7657C22.9575 10.3365 24.3259 9.62036 26.0413 9.62036C27.7777 9.62036 29.0852 10.1619 29.9629 11.245C30.6571 12.1027 31.0051 13.3484 31.0051 14.9821V23.3158H27.2671V16.0851C27.2671 14.8394 27.0317 13.9718 26.563 13.4811C26.1331 13.0323 25.5516 12.8069 24.8166 12.8069C23.7943 12.8069 23.0284 13.1959 22.5188 13.9718C22.1298 14.5842 21.9363 15.4419 21.9363 16.545V23.3159H18.1982V23.3159Z" fill="white"/>
<path d="M44.7319 11.7656V10.0491H48.4689V23.3158H44.7319V21.6003C43.7305 23.0305 42.3721 23.7446 40.6567 23.7446C38.654 23.7446 37.0254 23.0605 35.7697 21.6921C34.5131 20.3237 33.8857 18.6492 33.8857 16.6675C33.8857 14.6659 34.4981 12.9913 35.7238 11.6429C36.9496 10.2946 38.5323 9.62036 40.4722 9.62036C42.3921 9.62031 43.8123 10.3364 44.7319 11.7656ZM44.0577 14.0016C43.3625 13.2875 42.4839 12.9294 41.4227 12.9294C40.3605 12.9294 39.4818 13.2875 38.7877 14.0016C38.0925 14.7167 37.7455 15.6053 37.7455 16.6675C37.7455 17.7297 38.0925 18.6233 38.7877 19.3483C39.4818 20.0734 40.3605 20.4364 41.4227 20.4364C42.4838 20.4364 43.3625 20.0734 44.0577 19.3483C44.7518 18.6233 45.0989 17.7297 45.0989 16.6675C45.0989 15.6053 44.7518 14.7167 44.0577 14.0016Z" fill="white"/>
<path d="M52.0234 23.3159V10.0492H55.7603V11.5512C56.7816 10.2647 58.099 9.62036 59.7131 9.62036C61.6934 9.62036 63.0941 10.4282 63.9106 12.0409C64.9109 10.4282 66.331 9.62036 68.1693 9.62036C69.7211 9.62036 70.916 10.1619 71.754 11.245C72.1416 11.7556 72.3918 12.2863 72.5046 12.8377C72.6164 13.3893 72.6731 14.1044 72.6731 14.982V23.3158H68.9353V16.0851C68.9353 14.8394 68.731 13.9718 68.323 13.4811C67.9548 13.0323 67.4442 12.8069 66.7911 12.8069C65.8505 12.8069 65.1662 13.1959 64.7373 13.9718C64.3906 14.5433 64.217 15.401 64.217 16.545V23.3159H60.4791V16.0851C60.4791 14.8394 60.2743 13.9718 59.8663 13.4811C59.4987 13.0323 58.988 12.8069 58.3344 12.8069C57.3948 12.8069 56.7111 13.1959 56.2822 13.9718C55.9339 14.5433 55.7603 15.401 55.7603 16.545V23.3159H52.0234V23.3159Z" fill="white"/>
<path d="M79.965 0.36792V11.7655C80.9862 10.3363 82.4262 9.62023 84.2844 9.62023C86.2254 9.62023 87.7981 10.2845 89.0027 11.6119C90.2073 12.9404 90.8109 14.6249 90.8109 16.6674C90.8109 18.71 90.1925 20.4005 88.9568 21.7379C87.721 23.0764 86.1335 23.7446 84.1925 23.7446C82.415 23.7446 81.0061 23.0305 79.965 21.6003V23.3158H76.2266V0.36792H79.965ZM85.9088 14.0016C85.2138 13.2875 84.335 12.9294 83.2739 12.9294C82.2107 12.9294 81.3329 13.2875 80.639 14.0016C79.944 14.7167 79.5968 15.6053 79.5968 16.6674C79.5968 17.7296 79.944 18.6232 80.639 19.3483C81.3329 20.0733 82.2107 20.4364 83.2739 20.4364C84.335 20.4364 85.2138 20.0734 85.9088 19.3483C86.6033 18.6232 86.95 17.7296 86.95 16.6674C86.95 15.6053 86.6033 14.7167 85.9088 14.0016Z" fill="white"/>
<path d="M103.863 11.7656V10.0491H107.6V23.3158H103.863V21.6003C102.862 23.0305 101.503 23.7446 99.7877 23.7446C97.7849 23.7446 96.1565 23.0605 94.9009 21.6921C93.6442 20.3237 93.0166 18.6492 93.0166 16.6675C93.0166 14.6659 93.6289 12.9913 94.8549 11.6429C96.0804 10.2946 97.6634 9.62036 99.6033 9.62036C101.523 9.62031 102.943 10.3364 103.863 11.7656ZM103.189 14.0016C102.494 13.2875 101.615 12.9294 100.554 12.9294C99.4915 12.9294 98.6127 13.2875 97.9187 14.0016C97.2232 14.7167 96.8765 15.6053 96.8765 16.6675C96.8765 17.7297 97.2232 18.6233 97.9187 19.3483C98.6127 20.0734 99.4915 20.4364 100.554 20.4364C101.615 20.4364 102.494 20.0734 103.189 19.3483C103.882 18.6233 104.23 17.7297 104.23 16.6675C104.23 15.6053 103.882 14.7167 103.189 14.0016Z" fill="white"/>
</g>
<defs>
<clipPath id="clip0">
<rect width="107.745" height="24" fill="white"/>
</clipPath>
</defs>
</svg>
