<svg width="600" height="600" viewBox="0 0 600 600" fill="none" xmlns="http://www.w3.org/2000/svg">
<path d="M511.778 456.469C510.02 455.016 507.971 453.908 505.868 453.193C477.549 443.578 451.079 455.873 422.983 456.684C397.826 457.41 372.802 453.717 347.779 451.525C336.058 450.5 324.292 450.917 312.581 451.882C291.999 453.574 270.237 455.766 249.143 456.552C227.983 457.327 207.323 454.706 186.262 454.05C172.849 453.633 159.636 454.491 146.189 454.801C145.911 454.813 145.632 454.813 145.354 454.825C133.788 455.075 122.39 452.24 110.902 450.834C99.4145 449.428 87.2368 449.595 77.007 455.361C73.6564 457.255 69.8049 460.365 72.432 464.261C74.5581 467.418 80.3353 469.682 83.6191 470.957C91.8452 474.15 100.851 474.591 109.5 473.852C126.753 472.375 142.393 472.446 159.947 473.256C177.546 474.066 196.77 478.093 214.436 477.736C221.304 477.605 228.127 476.533 234.995 476.509C249.065 476.437 262.958 478.034 276.983 477.152C289.539 476.354 301.929 474.15 314.44 472.875C349.393 469.336 384.457 473.173 419.399 474.96C437.075 475.865 454.819 476.306 472.484 474.96C486.176 473.923 499.845 475.746 513.014 471.243C514.172 470.85 515.374 470.385 516.153 469.396C517.199 468.074 517.222 466.12 516.843 464.428C516.142 461.199 514.25 458.506 511.778 456.469Z" fill="#EEEEEE"/>
<path d="M292.274 318.687C291.981 318.666 291.646 318.642 291.277 318.611C291.547 318.557 291.818 318.503 292.086 318.435C292.114 318.535 292.179 318.618 292.274 318.687ZM366.614 301.286C363.032 295.366 359.905 289.239 357.364 282.803C354.572 275.73 352.023 268.101 347.334 262.006C343.203 256.636 338.214 251.52 333.28 246.879C328.197 242.097 322.927 238.301 316.249 236.155C315.158 235.804 313.783 235.315 312.266 234.819C306.701 233.665 301.941 233.454 298.123 233.849C298.122 233.849 298.121 233.85 298.121 233.85C297.758 234.086 296.656 234.233 296 234.16C286.59 237.206 281.234 249.889 277.499 258.028C271.349 271.426 265.589 285.04 258.083 297.757C258.097 297.776 258.112 297.793 258.118 297.816C259.583 304.033 265.741 308.668 270.984 311.722C276.494 314.933 285.865 319.849 292.528 317.415C294.123 315.031 295.653 312.614 297.127 310.171C297.152 310.064 297.173 309.959 297.204 309.85C297.249 309.691 297.387 309.547 297.578 309.423C305.959 295.383 312.416 280.403 317.336 264.729C317.72 263.507 320.707 263.165 320.292 264.49C315.224 280.631 308.608 296.039 299.915 310.461C299.38 316.605 310.496 319.312 314.603 321.654C322.043 325.899 325.684 334.823 325.89 343.009C348.337 346.933 372.333 345.225 392.494 334.056C388.165 328.753 384.01 323.408 379.846 317.979C375.508 312.324 370.325 307.418 366.614 301.286ZM263.94 246.854C260.864 251.089 260.443 256.083 258.527 260.961C256.627 265.796 254.234 270.37 251.677 274.884C249.551 278.642 243.013 282.782 246.221 287.343C248.9 291.151 252.77 293.332 257.061 294.798C264.161 282.104 269.417 268.557 275.848 255.543C271.071 254.124 267.197 250.868 263.94 246.854Z" fill="white"/>
<path d="M219.371 207.578C220.095 208.636 221.045 209.576 221.495 210.798C221.874 211.826 218.978 212.674 218.574 211.579C218.18 210.512 217.301 209.678 216.666 208.752C215.948 207.702 218.775 206.706 219.371 207.578ZM220.305 199.078C217.977 199.127 215.482 199.964 213.993 201.834C213.576 202.358 214.35 202.485 214.726 202.472C215.342 202.448 216.259 202.246 216.669 201.732C217.325 200.908 218.041 200.478 219.094 200.456C219.732 200.442 220.598 200.216 221.037 199.716C221.492 199.2 220.647 199.071 220.305 199.078ZM436.522 448.67C436.938 449.93 438.756 450.893 436.638 452.181C433.614 454.018 427.814 453.78 424.363 454.046C413.418 454.888 402.454 454.612 391.487 454.592C390.979 454.591 390.739 454.48 390.676 454.318C390.639 454.271 390.609 454.218 390.594 454.158C388.898 447.043 391.234 437.881 387.28 431.479C384.01 426.187 379.023 428.416 373.761 427.79C355.97 425.674 338.181 423.681 320.24 423.611C319.47 423.608 319.335 423.375 319.508 423.094C317.632 423.949 315.764 424.819 313.886 425.666C312.293 426.385 310.699 427.1 309.108 427.822C308.642 428.034 308.175 428.245 307.712 428.462C307.001 428.795 307.238 428.754 307.515 428.458C306.784 429.192 305.125 429.338 304.919 428.289C304.919 428.286 304.919 428.284 304.918 428.281C304.836 427.86 305.041 427.421 305.399 427.182C311.292 423.243 319.011 420.955 325.42 417.991C338.163 412.095 350.865 406.057 363.234 399.407C374.309 393.451 387.531 387.149 393.679 375.521C399.346 364.8 401.519 347.501 394.48 336.456C394.446 336.432 394.411 336.407 394.385 336.377C394.19 336.141 394 335.902 393.806 335.666C383.663 341.301 372.525 344.643 361.083 346.11C360.433 346.192 359.783 346.267 359.132 346.339C348.24 347.533 337.114 347.063 326.342 345.303C311.82 360.793 294.636 373.482 279.697 388.546C275.03 393.252 270.489 398.183 266.415 403.455C266.812 404.178 266.056 404.826 265.22 405.036C262.966 408.065 260.863 411.2 259.002 414.484C255.668 420.37 251.658 427.461 251.673 434.467C251.699 445.277 261.458 451.341 270.61 454.567C284.704 459.534 300.151 460.732 314.984 461.139C330.73 461.572 346.523 460.922 362.199 459.387C371.833 458.443 382.291 457.85 391.563 454.831C392.634 454.482 394.535 454.739 392.546 455.388C383.27 458.406 373.005 459.235 363.363 460.221C347.638 461.828 331.783 462.656 315.974 462.324C301.408 462.017 286.345 461.125 272.298 456.968C263.558 454.382 252.043 449.862 249.38 440.032C247.875 434.478 249.49 429.009 251.712 423.878C254.765 416.822 258.794 410.296 263.433 404.207C255.564 391.26 246.109 375.419 247.219 359.719C245.806 360.357 244.389 360.979 242.973 361.573C231.948 366.202 220.39 369.489 208.659 371.766C202.431 372.976 196.172 373.954 189.876 374.733C183.813 375.484 177.672 375.092 171.736 376.633C171.691 376.737 171.632 376.842 171.544 376.957C167.573 382.072 157.14 386.203 148.731 385.531C147.345 389.33 145.364 392.843 143.544 396.447C143.432 396.668 143.166 396.85 142.835 396.988C158.533 396.955 174.228 396.92 189.927 396.919C190.485 396.919 190.834 397.093 191.021 397.338C191.787 397.178 192.595 397.311 192.593 397.96C192.575 402.834 192.359 407.702 192.341 412.575C192.34 412.826 192.143 413.053 191.855 413.231C191.882 413.829 191.29 414.521 190.341 414.521C187.454 414.521 184.567 414.521 181.681 414.521C181.573 415.959 180.82 417.826 180.629 418.578C179.412 423.379 178.092 428.155 176.766 432.927C175.373 437.94 173.96 442.946 172.567 447.959C171.983 450.062 170.933 452.463 170.792 454.661C170.742 455.451 169.67 455.914 168.83 455.843C168.677 455.886 168.527 455.911 168.394 455.911C148.676 455.911 128.958 455.911 109.24 455.911C108.264 456.407 106.65 456.141 107.085 454.918C107.447 453.899 105.221 448.317 104.717 446.623C103.286 441.82 101.812 437.032 100.349 432.239C98.9843 427.766 97.5853 423.3 96.3435 418.791C96.0472 417.718 95.0866 415.693 95.7015 414.52C93.4256 414.52 91.1507 414.52 88.8758 414.52C88.2317 414.52 87.8608 414.291 87.7056 413.985C87.6058 413.952 87.5443 413.904 87.5443 413.837C87.5443 408.462 87.5443 403.087 87.5443 397.711C87.5443 396.872 90.4653 396.451 90.4653 396.929C90.4653 396.975 90.4653 397.02 90.4653 397.065C103.132 397.062 115.801 397.035 128.467 397.009C123.89 390.192 120.284 383.087 117.519 375.773C103.002 378.754 89.797 370.417 83.314 357.244C83.1175 356.845 84.8894 356.418 85.0638 356.383C94.7943 354.484 106.435 355.403 113.268 361.715C108.945 343.126 109.228 323.567 112.199 304.226C112.157 304.197 112.135 304.162 112.149 304.117C112.2 303.964 112.242 303.81 112.29 303.657C112.329 303.403 112.371 303.149 112.411 302.895C112.207 302.938 112.031 302.958 111.915 302.94C95.1693 300.352 92.6303 282.741 96.3808 268.781C96.5441 268.17 98.7132 267.745 99.197 268.026C106.926 272.528 112.992 279.644 115.339 287.813C117.21 279.572 119.478 271.437 121.987 263.499C113.148 250.165 123.792 236.377 135.85 229.237C136.137 229.067 138.252 228.246 138.415 228.838C142.288 242.871 138.108 258.589 124.62 265.507C124.514 265.561 124.285 265.622 124.011 265.679C120.957 275.63 118.309 285.871 116.367 296.218C116.278 298.435 115.904 300.685 115.21 302.945C113.77 312.157 112.937 321.419 112.918 330.606C116.427 322.043 126.451 316.148 135.934 313.522C136.064 313.486 137.495 313.142 137.497 313.51C137.585 328.78 128.861 342.414 113.669 345.815C115.549 363.795 121.095 381.192 131.923 397.005C134.816 396.999 137.71 396.998 140.603 396.991C140.601 396.95 140.609 396.904 140.634 396.852C142.536 393.088 144.619 389.424 146.009 385.428C146.042 385.332 146.109 385.243 146.193 385.161C143.089 384.49 140.429 383.021 138.74 380.506C138.463 380.093 138.55 379.695 138.822 379.38C135.405 377.985 132.631 375.327 131.221 371.505C131.149 371.312 131.397 371.088 131.774 370.897C129.908 369.543 128.602 367.789 128.397 365.506C125.843 363.942 124.381 361.701 125.15 358.446C125.347 357.615 126.29 357.085 127.128 357.243C135.729 358.865 144.411 359.174 153.126 359.232C150.157 354.675 142.476 343.537 149.7 343.084C150.928 343.007 152.183 343.129 153.429 343.4C153.411 343.365 153.397 343.328 153.395 343.284C153.198 339.389 153.228 335.498 153.38 331.615C153.213 331.571 153.239 331.481 153.389 331.367C153.611 325.935 154.083 320.513 154.587 315.094C139.843 315.366 128.738 303.937 125.208 290.088C125.056 289.492 127.294 289.147 127.629 289.152C138.95 289.316 151.744 293.763 155.58 303.946C155.977 298.976 156.258 294.006 156.256 289.028C143.357 280.637 146.887 264.09 154.713 252.719C155.072 252.196 157.13 251.485 157.608 252.051C166.906 263.053 169.819 278.86 160.632 290.74C160.399 291.041 159.764 291.212 159.15 291.295C158.985 298.869 158.242 306.428 157.536 313.993C157.741 314.02 157.695 314.117 157.514 314.244C157.44 315.033 157.367 315.823 157.294 316.615C162.779 308.819 174.289 305.139 184.278 304.617C184.303 304.616 184.81 304.617 184.778 304.771C181.699 319.083 170.872 330.442 156.277 331.55C156.149 335.197 156.13 338.846 156.315 342.503C156.347 343.127 155.311 343.578 154.464 343.664C157.659 344.58 160.721 346.439 162.99 348.546C167.143 352.403 170.984 358.008 176.643 359.291C176.776 359.204 176.925 359.124 177.105 359.061C193.562 353.314 206.878 341.327 223.09 335.01C230.166 332.253 240.762 333.305 245.665 326.511C247.908 323.406 249.647 319.92 252.078 316.952C254.775 313.658 257.577 310.556 259.629 306.794C259.684 306.693 259.765 306.605 259.857 306.521C257.622 304.23 255.9 301.6 255.193 298.601C255.175 298.524 255.205 298.446 255.269 298.368C255.174 298.25 255.167 298.086 255.299 297.863C255.468 297.576 255.63 297.286 255.798 296.997C253.414 296.22 250.811 295.155 248.531 293.692C245.279 300.021 242.633 308.16 237.16 312.477C231.342 317.066 223.698 317.718 217.639 321.83C207.748 328.542 198.464 337.318 187.113 341.245C187.061 341.734 186.421 342.355 185.587 342.447C184.488 342.57 183.39 342.614 182.306 342.566C181.14 342.805 179.953 342.997 178.739 343.12C177.215 343.275 178.471 342.519 179.411 342.168C178.242 341.877 177.108 341.424 176.032 340.756C173.325 339.076 170.842 336.584 167.636 335.884C166.644 335.667 162.531 334.069 162.85 336.295C163.014 337.441 163.415 338.526 163.964 339.544C165.456 342.303 167.455 344.768 169.641 347.004C170.256 347.633 169.02 348.374 167.976 348.459C167.507 348.778 166.849 348.948 166.34 348.948C165.668 348.948 164.997 348.948 164.324 348.948C163.997 348.948 163.132 348.843 163.597 348.329C164.033 347.844 164.911 347.594 165.541 347.594C165.817 347.594 166.095 347.594 166.37 347.594C163.504 344.517 155.923 335.445 162.394 333.591C165.603 332.672 169.92 333.873 172.729 335.498C177.296 338.138 180.175 341.301 185.938 340.656C186.073 340.64 186.193 340.636 186.302 340.639C198.328 336.654 206.745 325.752 218.083 320.19C224.633 316.975 232.829 316.069 237.189 309.617C240.881 304.152 243.354 298.024 246.671 292.344C245.4 291.29 244.316 290.074 243.55 288.665C241.204 284.35 242.005 284.302 244.331 280.605C248.488 273.995 253.056 268.063 255.712 260.573C257.693 254.988 258.333 249.374 262.358 244.795C260.632 242.406 259.089 239.837 257.675 237.28C250.815 234.877 244.705 235.277 237.831 237.44C234.531 238.478 230.882 239.767 227.371 238.931C220.532 237.304 218.033 230.161 215.545 224.352C215.535 224.328 215.534 224.304 215.526 224.28C215.051 224.464 214.528 224.561 214.041 224.553C211.609 224.509 208.105 224.056 208.545 220.848C208.869 218.492 210.58 216.344 211.973 214.454C208.642 209.46 206.927 203.58 204.457 198.146C204.164 197.499 207.002 196.535 207.378 197.362C209.782 202.651 211.437 208.437 214.655 213.319C214.973 213.337 215.24 213.41 215.086 213.622C215.046 213.677 215.005 213.731 214.966 213.786C215.098 213.977 215.214 214.178 215.351 214.365C215.709 214.857 214.584 215.438 213.654 215.585C212.774 216.835 211.964 218.162 211.587 219.589C210.79 222.61 213.409 223.322 215.936 223.368C215.944 223.368 215.947 223.371 215.954 223.372C216.699 222.858 218.112 222.744 218.465 223.569C221.922 231.642 225.255 239.381 235.571 236.133C242.76 233.871 249.151 232.797 256.157 234.464C255.212 232.671 254.324 230.919 253.474 229.284C246.6 216.061 239.319 201.617 237.423 186.665C220.383 192.288 203.65 198.482 185.972 202.035C182.037 203.944 172.904 206.871 169.655 203.625C165.052 199.025 175.669 195.581 178.439 194.857C182.433 193.812 186.452 192.935 190.43 191.835C193.188 191.072 198.295 190.606 199.057 187.256C199.749 184.218 199.071 180.907 198.609 177.879C197.066 167.744 196.68 158.681 205.905 152.364C215.025 146.119 227.003 142.107 237.611 139.389C247.417 136.876 258.334 136.293 266.651 143.127C270.848 146.575 273.901 150.834 276.195 155.736C277.208 157.9 278.607 161.838 281.327 162.347C281.793 162.435 282.316 162.458 282.875 162.435C283.998 162.102 285.122 161.773 286.243 161.436C286.811 161.266 289.388 160.14 288.301 160.904C288.72 160.608 289.352 160.547 289.867 160.649C291.829 159.874 293.659 158.982 294.941 158.25C295.941 157.68 311.003 149.92 309.19 156.689C307.254 163.916 295.145 167.757 288.443 170.146C296.458 182.991 306.059 194.733 316.5 205.68C325.628 215.249 336.422 223.862 344.408 234.435C347.609 238.673 362.211 264.247 354.524 268.377C354.64 268.612 354.771 268.835 354.882 269.073C358.428 276.581 360.849 284.582 364.732 291.931C368.904 299.827 373.841 306.273 379.516 313.089C383.147 317.449 386.157 322.203 389.804 326.544C391.544 328.615 393.271 330.695 395 332.776C395.293 332.825 395.555 332.947 395.735 333.172C403.772 343.195 403.166 361.128 398.259 372.234C392.659 384.903 381.804 391.645 370.189 398.134C356.929 405.542 343.223 412.148 329.453 418.546C326.864 419.749 324.261 420.922 321.664 422.109C331.526 422.158 341.38 422.719 351.199 423.63C360.263 424.471 369.853 426.732 378.945 426.434C382.706 426.312 386.376 425.799 388.882 428.76C388.883 428.758 388.884 428.758 388.885 428.757C395.79 423.975 401.332 425.259 406.246 431.943C409.544 436.429 412.728 440.527 418.207 442.54C424.03 444.68 430.163 445.526 435.786 448.221C436.147 448.254 436.43 448.392 436.522 448.67ZM157.285 329.825C157.327 330.084 156.875 330.339 156.313 330.521C156.313 330.523 156.313 330.524 156.313 330.526C166.577 330.298 174.148 323.576 178.511 314.627C179.635 312.321 180.621 309.941 181.344 307.476C181.512 306.905 181.674 306.332 181.811 305.752C168.354 306.985 154.756 314.347 157.285 329.825ZM155.412 275.416C155.276 274.41 158.214 273.755 158.333 274.633C158.943 279.156 159.175 283.669 159.179 288.178C159.336 288.279 159.502 288.375 159.665 288.474C166.026 277.687 163.518 264.47 156.053 254.552C150.016 264.642 147.559 277.762 156.206 285.875C156.116 282.391 155.884 278.907 155.412 275.416ZM128.421 290.368C131.847 302.351 141.129 312.695 153.65 313.89C155.424 298.696 141.706 291.404 128.421 290.368ZM123.227 259.653C123.873 257.688 124.53 255.734 125.2 253.795C125.441 253.097 128.223 252.809 128.072 253.248C126.992 256.376 125.94 259.542 124.928 262.74C125.119 263.027 125.318 263.314 125.527 263.601C135.799 256.336 138.726 242.804 135.753 230.689C125.892 237.403 118.298 248.548 123.227 259.653ZM112.632 301.544C112.898 299.949 113.181 298.358 113.48 296.768C113.846 286.231 107.653 276.505 98.7273 270.427C96.019 283.093 98.6214 298.276 112.632 301.544ZM116.062 343.914C116.205 344.271 114.439 344.94 113.579 344.893C113.584 344.942 113.588 344.992 113.594 345.04C113.695 345.007 113.795 344.977 113.892 344.957C127.524 342.069 134.485 327.773 134.571 314.754C121.782 318.868 110.378 329.635 116.062 343.914ZM117.242 375.011C117.237 374.999 117.233 374.988 117.228 374.976C116.62 375.074 116.086 375.061 116.071 374.879C114.791 359.53 99.7725 355.078 86.5061 356.987C92.2927 368.293 104.217 377.444 117.242 375.011ZM178.571 414.521C151.915 414.521 125.257 414.521 98.5993 414.521C98.6154 414.853 98.3221 415.19 97.9068 415.437C97.933 415.434 97.9602 415.432 97.9865 415.43C98.9893 414.596 98.6164 415.62 98.9752 416.953C99.4308 418.643 99.9186 420.325 100.416 422.005C101.815 426.725 103.262 431.43 104.699 436.137C106.056 440.578 107.432 445.015 108.702 449.48C109.048 450.697 109.983 452.735 110 454.305C129.299 454.305 148.598 454.305 167.896 454.305C168.159 452.269 169.071 450.1 169.606 448.18C170.824 443.804 172.057 439.432 173.275 435.055C174.587 430.338 175.904 425.622 177.133 420.883C177.551 419.266 177.98 417.65 178.336 416.02C178.48 415.367 178.431 414.729 178.571 414.521ZM179.291 414.572C179.243 414.556 179.195 414.54 179.15 414.521C179.057 414.521 178.963 414.521 178.872 414.521C178.911 414.544 178.944 414.559 178.992 414.597C179.092 414.589 179.191 414.58 179.291 414.572ZM131.096 399.152C130.642 399.268 130.215 399.302 129.983 399.154C116.811 399.181 103.638 399.209 90.4653 399.212C90.4653 403.6 90.4653 407.985 90.4653 412.374C123.452 412.374 156.438 412.374 189.426 412.374C189.455 407.937 189.627 403.503 189.662 399.067C170.141 399.068 150.618 399.112 131.096 399.152ZM353.883 267.121C353.886 267.126 353.889 267.132 353.892 267.137C353.893 267.118 353.896 267.106 353.896 267.086C353.891 267.097 353.888 267.108 353.883 267.121ZM268.623 175.849C274.147 174.086 279.659 172.245 285.089 170.196C285.1 169.843 286.718 169.134 287.572 169.242C289.36 168.542 291.14 167.819 292.905 167.061C296.692 165.436 304.869 162.511 306.117 157.85C307.447 152.881 299.937 156.877 298.088 157.946C296.333 158.959 294.587 159.653 292.694 160.405C292.079 160.649 291.413 160.932 290.718 161.227C290.759 161.454 290.621 161.728 290.188 162.033C287.633 163.828 283.104 164.279 280.186 165.141C272.552 167.394 264.929 169.711 257.249 171.804C242.404 175.853 227.742 180.455 213.216 185.532C211.457 186.147 211.027 184.362 212.741 183.762C226.827 178.839 241.041 174.325 255.437 170.399C263.1 168.31 270.708 166.027 278.326 163.779C278.602 163.698 278.878 163.615 279.155 163.534C275.212 162.266 274.128 157.818 272.262 154.426C269.536 149.464 265.809 144.737 260.72 142.016C246.909 134.632 229.909 142.257 216.686 147.95C210.948 150.419 203.534 154.15 201.433 160.569C199.05 167.851 201.814 175.137 202.184 182.47C202.638 191.475 193.372 192.52 186.218 194.151C182.828 194.924 172.701 195.798 171.748 199.866C170.505 205.174 179.279 203.322 183.35 201.846C183.643 201.56 184.166 201.265 184.672 201.168C201.131 198.044 216.838 192.64 232.638 187.189C244.535 183.084 256.636 179.675 268.623 175.849ZM285.672 171.155C281.646 172.651 277.587 174.047 273.511 175.38L285.94 171.575C285.851 171.435 285.761 171.295 285.672 171.155ZM257.061 294.799C264.161 282.105 269.417 268.558 275.848 255.544C271.072 254.124 267.197 250.867 263.941 246.854C260.865 251.089 260.443 256.083 258.527 260.961C256.627 265.796 254.235 270.37 251.677 274.884C249.552 278.642 243.013 282.782 246.222 287.343C248.9 291.152 252.77 293.333 257.061 294.799ZM249.935 357.201C256.323 354.028 262.379 350.117 266.843 344.71C273.498 336.649 281.272 328.938 285.357 319.176C285.396 319.084 285.47 318.999 285.568 318.923C281.445 318.597 277.319 317.221 273.659 315.527C269.875 313.775 265.382 311.377 261.733 308.261C259.636 311.69 256.937 314.539 254.513 317.766C251.892 321.254 249.894 325.141 247.122 328.517C242.472 334.18 233.22 334.128 226.817 335.936C210.157 340.638 196.879 353.152 180.928 359.734C181.4 360.158 180.596 361.104 179.523 361.186C168.52 362.038 165.411 351.695 156.979 347.224C155.872 346.638 149.072 343.499 149.515 345.76C149.835 347.401 150.565 348.924 151.37 350.379C153.029 353.38 154.954 356.228 156.586 359.243C156.945 359.243 157.304 359.245 157.662 359.245C159.639 359.245 159.132 361.479 157.428 361.479C147.561 361.477 137.716 361.388 127.972 359.757C128.034 360.852 128.495 361.773 129.235 362.556C130.149 362.12 131.609 362.085 131.454 362.859C131.368 363.286 131.329 363.692 131.316 364.085C136.535 366.851 146.383 366.946 149.975 367.32C151.948 367.527 150.474 369.686 148.988 369.531C145.634 369.18 137.817 369.004 132.001 367.102C134.497 371.77 143.138 373.163 147.692 373.698C149.328 373.889 146.784 375.354 145.895 375.249C142.979 374.906 138.668 374.215 135.051 372.692C137.514 377.094 142.188 379.674 147.42 379.242C149.35 379.083 146.946 380.391 146.166 380.455C144.869 380.561 143.593 380.518 142.36 380.338C148.533 386.549 164.435 382.003 169.08 376.023C169.581 375.378 170.725 375.302 171.365 375.643C181.256 372.878 192.16 373.571 202.277 371.838C214.672 369.715 227.076 366.83 238.765 362.107C241.582 360.969 244.476 359.766 247.337 358.442C247.346 358.361 247.35 358.28 247.36 358.2C247.468 357.259 249.159 356.779 249.935 357.201ZM284.015 326.542C297.745 329.453 311.156 334.13 322.867 341.956C322.085 332.773 317.168 325.068 308.575 321.141C305.354 319.67 299.659 317.609 297.673 314.087C296.801 315.459 295.918 316.827 295.006 318.182C294.519 318.909 292.861 319.108 292.274 318.688C292.179 318.62 292.115 318.537 292.084 318.436C291.816 318.503 291.546 318.558 291.276 318.612C290.234 318.823 289.177 318.95 288.113 318.985C286.972 321.658 285.588 324.159 284.015 326.542ZM324.33 344.956C324.186 344.93 324.043 344.904 323.899 344.878C323.36 345.096 322.73 345.135 322.304 344.835C322.128 344.711 321.947 344.595 321.771 344.472C321.396 344.398 321.021 344.327 320.647 344.249C319.796 344.073 319.625 343.603 319.818 343.156C308.537 335.821 295.684 331.404 282.545 328.657C281.369 330.281 280.117 331.861 278.797 333.408C275.068 337.78 271.619 342.656 267.54 346.698C262.592 351.599 256.565 355.242 250.282 358.286C248.691 373.48 257.665 389.012 265.367 401.714C267.148 399.502 269.005 397.348 270.927 395.252C277.182 388.428 283.951 382.144 290.851 375.998C290.746 375.936 290.655 375.861 290.591 375.759C288.491 372.391 287.938 367.979 285.214 365.007C284.316 364.028 287.101 362.906 287.905 363.783C290.523 366.639 291.143 370.768 293.026 374.071C303.673 364.655 314.532 355.466 324.219 345.046C324.246 345.016 324.285 344.985 324.33 344.956ZM392.492 334.057C388.164 328.754 384.008 323.409 379.845 317.98C375.507 312.325 370.325 307.418 366.614 301.286C363.031 295.366 359.905 289.239 357.364 282.803C354.572 275.73 352.023 268.101 347.334 262.006C343.202 256.636 338.213 251.52 333.279 246.879C328.196 242.097 322.927 238.301 316.248 236.155C315.158 235.804 313.783 235.315 312.266 234.819C306.7 233.665 301.941 233.454 298.123 233.848C298.122 233.848 298.121 233.849 298.121 233.849C297.758 234.086 296.655 234.233 296 234.16C286.59 237.206 281.234 249.889 277.499 258.028C271.348 271.426 265.589 285.04 258.083 297.757C258.097 297.776 258.112 297.793 258.118 297.816C259.583 304.033 265.741 308.668 270.983 311.722C276.494 314.933 285.864 319.849 292.528 317.415C294.122 315.031 295.652 312.614 297.127 310.171C297.151 310.064 297.172 309.959 297.204 309.85C297.249 309.691 297.387 309.547 297.578 309.423C305.959 295.383 312.415 280.403 317.336 264.729C317.72 263.507 320.707 263.165 320.291 264.49C315.223 280.631 308.607 296.039 299.915 310.461C299.38 316.605 310.496 319.312 314.602 321.654C322.043 325.899 325.684 334.823 325.889 343.009C348.337 346.933 372.332 345.226 392.492 334.057ZM433.643 449.596C425.67 445.713 415.506 445.869 408.833 439.52C403.905 434.834 399.838 423.063 391.187 429.054C390.878 429.268 390.03 429.412 389.381 429.404C389.449 429.507 389.523 429.598 389.589 429.707C393.867 436.632 391.747 445.256 393.428 452.945C401.472 452.972 409.53 453.187 417.57 452.855C421.844 452.679 426.136 452.429 430.377 451.832C433.177 451.438 434.37 451.922 433.643 449.596ZM232.272 225.544C232.07 225.631 230.968 226.12 231.435 226.499C231.889 226.867 232.871 226.601 233.335 226.404C236.891 224.888 239 222.164 238.296 218.191C238.162 217.435 235.223 218.117 235.375 218.974C235.863 221.726 234.99 224.386 232.272 225.544ZM477.939 331.756C477.947 331.71 477.96 331.667 477.967 331.622C477.87 331.594 477.774 331.572 477.677 331.544C476.275 333.31 474.924 335.095 473.706 336.942C473.655 337.02 473.576 337.09 473.485 337.157C473.485 343.191 473.485 349.225 473.485 355.259C485.897 355.165 498.31 355.075 510.722 355.07C511.077 355.07 511.346 355.141 511.546 355.255C512.311 355.096 513.115 355.229 513.114 355.877C513.098 364.95 512.878 374.019 512.862 383.092C512.861 383.925 510.712 384.5 510.104 383.866C508.627 383.866 507.149 383.866 505.674 383.866C505.875 386.827 504.528 391.428 504.279 393.448C503.261 401.714 502.168 409.972 501.053 418.225C499.894 426.805 498.718 435.383 497.473 443.951C497.047 446.887 497.307 452.406 495.675 455.015C495.118 455.905 493.738 456.296 492.941 455.491C492.937 455.487 492.934 455.483 492.93 455.48C492.912 455.462 492.905 455.444 492.889 455.426C477.175 455.426 461.462 455.426 445.747 455.426C445.624 455.426 445.502 455.426 445.378 455.426C445.315 455.426 445.251 455.426 445.188 455.426C444.377 455.426 444.252 455.153 444.454 454.834C442.886 452.738 443.062 446.616 442.76 444.49C441.578 436.194 440.471 427.888 439.39 419.578C438.309 411.251 437.241 402.922 436.277 394.58C436.019 392.358 434.245 386.313 435.23 383.865C433.519 383.865 431.807 383.865 430.093 383.865C429.449 383.865 429.077 383.636 428.922 383.33C428.823 383.297 428.761 383.25 428.761 383.183C428.764 374.356 428.8 365.528 428.802 356.702C428.802 356.592 428.855 356.489 428.942 356.393C429.119 355.918 429.643 355.489 430.391 355.488C443.168 355.483 455.944 355.39 468.719 355.293C462.7 351.022 457.348 345.974 452.831 340.321C437.411 348.178 422.968 337 415.566 323.071C415.329 322.624 417.477 322.183 417.675 322.154C427.626 320.65 438.148 322.883 445.441 329.166C442.739 324.158 440.624 318.845 439.183 313.31C438.982 313.331 438.797 313.331 438.663 313.27C423.314 306.368 425.552 288.7 432.786 276.326C433.081 275.822 435.12 275.14 435.602 275.571C446.236 285.046 450.766 300.014 442.533 312.443C442.458 312.555 442.324 312.648 442.159 312.73C446.466 329.06 456.632 343.44 470.551 353.615C470.551 342.471 470.551 331.327 470.551 320.183C470.258 320.27 470.002 320.327 469.871 320.321C452.35 319.595 447.55 301.11 449.117 286.332C449.195 285.593 451.41 285.22 451.958 285.463C460.409 289.188 467.457 295.933 470.55 304.188C470.55 294.985 470.55 285.783 470.55 276.581C458.224 266.757 463.621 250.564 472.828 240.036C473.206 239.603 475.297 238.724 475.724 239.369C483.751 251.472 484.702 267.49 474.134 278.281C474.025 278.394 473.78 278.501 473.483 278.591C473.483 296.849 473.483 315.107 473.483 333.364C475.782 330.333 478.315 327.385 480.693 324.349C481.273 323.422 481.927 322.57 482.639 321.781C485.447 317.924 487.838 313.851 489.038 309.213C489.647 306.86 490.115 304.477 490.537 302.087C490.156 302.081 490.01 301.995 490.475 301.761C490.522 301.738 490.563 301.708 490.609 301.684C490.664 301.375 490.715 301.065 490.768 300.755C480.807 287.024 491.816 272.807 504.245 265.599C504.53 265.434 506.652 264.606 506.811 265.2C510.452 278.892 506.434 294.087 493.726 301.157C493.084 304.901 492.284 308.611 490.908 312.182C490.208 314.002 489.333 315.733 488.347 317.406C496.444 313.129 507.608 313.172 516.473 315.384C516.573 315.408 516.819 315.468 516.698 315.637C508.238 327.603 493.188 335.518 478.715 331.827C478.268 331.852 477.927 331.827 477.939 331.756ZM491.514 296.285C492.501 290.384 493.619 284.531 496.191 279.023C496.598 278.152 499.516 277.802 498.913 279.093C495.877 285.593 495.112 292.635 493.989 299.594C504.024 292.354 506.968 279.027 504.131 267.029C494.091 273.735 486.315 284.996 491.514 296.285ZM480.914 330.71C491.367 333.541 501.144 329.383 508.802 321.883C510.474 320.246 512.085 318.527 513.488 316.65C513.947 316.037 514.06 316.414 512.831 316.167C503.618 314.325 493.003 314.565 486.513 320.27C485.274 322.072 483.93 323.816 482.547 325.538C481.819 327.059 481.266 328.777 480.914 330.71ZM451.862 287.721C451.078 300.561 455.095 316.405 468.874 318.905C471.316 305.637 463.301 293.859 451.862 287.721ZM441.454 309.824C446.675 298.898 442.925 286.578 434.423 278.031C428.732 289.202 427.315 303.607 438.568 310.771C437.435 305.633 436.876 300.322 436.959 294.904C436.973 293.993 439.888 293.56 439.88 294.123C439.8 299.485 440.347 304.739 441.454 309.824ZM449.942 340.624C445.145 327.809 431.912 321.84 418.836 322.922C424.779 333.707 437.088 346.194 449.942 340.624ZM502.362 383.867C480.989 383.867 459.615 383.867 438.243 383.867C438.202 383.99 438.132 384.104 438.042 384.212C437.429 386.358 439.191 393.761 439.461 396.038C440.403 403.957 441.407 411.868 442.439 419.775C443.45 427.517 444.477 435.256 445.578 442.986C445.945 445.567 446.312 448.148 446.724 450.724C446.855 451.544 447.623 454.023 447.011 453.486C447.134 453.594 447.213 453.706 447.27 453.818C462.605 453.818 477.939 453.818 493.275 453.818C494.212 451.198 494.252 445.995 494.619 443.447C495.773 435.442 496.879 427.43 497.962 419.416C499.055 411.329 500.134 403.238 501.137 395.138C501.492 392.267 501.85 389.396 502.151 386.518C502.206 385.997 502.265 384.632 502.362 383.867ZM431.721 357.631C431.715 365.66 431.687 373.69 431.684 381.718C455.683 381.718 479.681 381.718 503.68 381.718C504.037 381.633 504.454 381.598 504.785 381.718C506.507 381.718 508.23 381.718 509.952 381.718C509.989 373.55 510.16 365.386 510.187 357.219C484.031 357.232 457.877 357.606 431.721 357.631ZM473.485 257.398C473.485 263.515 473.485 269.634 473.485 275.751C473.573 275.82 473.665 275.886 473.754 275.954C481.271 265.963 480.147 252.431 473.823 241.783C466.669 251.15 462.761 263.924 470.552 272.967C470.552 267.882 470.552 262.797 470.552 257.712C470.552 256.635 473.485 256.057 473.485 257.398Z" fill="#212121"/>
</svg>
