<svg width="600" height="600" viewBox="0 0 600 600" fill="none" xmlns="http://www.w3.org/2000/svg">
<path d="M243.531 492.559C243.711 492.502 243.882 492.431 244.037 492.347L243.69 492.876L243.531 492.559ZM255.866 353.083C254.401 354.074 251.979 354.127 250.388 354.024C248.887 353.926 247.045 353.685 245.438 353.055C241.066 378.282 238.328 403.823 237.077 429.391C236.453 442.135 236.13 454.904 236.401 467.662C236.523 473.401 236.524 477.217 239.76 482.111C241.636 484.948 244.069 487.954 244.668 491.388L246.786 488.161C247.318 487.193 247.802 486.297 248.152 485.688C250.368 481.828 252.754 477.854 254.222 473.635C255.848 468.956 254.939 463.228 254.976 458.342C255.031 451.151 255.095 443.96 255.166 436.77C255.443 408.874 255.839 380.978 255.866 353.083ZM257.801 471.374V467.404C257.739 469.062 257.583 470.651 257.227 472.249L257.801 471.374ZM242.97 351.569C242.984 351.553 243.003 351.539 243.018 351.524C243.003 351.509 242.993 351.489 242.979 351.474C242.976 351.502 242.973 351.536 242.97 351.569ZM250.333 331.896C249.926 332.067 249.453 332.155 249.048 332.056C247.886 332.552 246.726 333.229 245.615 334.044L242.149 337.222C241.99 337.401 241.833 337.582 241.683 337.765L241.719 338.272C241.95 338.359 242.119 338.511 242.163 338.751C242.96 343.158 243.181 350.443 248.523 351.748C250.539 352.241 253.676 352.99 254.813 350.717C256.232 347.88 257.159 344.9 257.882 341.819C257.977 341.416 258.435 341.103 258.963 340.928C256.725 337.363 253.771 334.398 250.333 331.896Z" fill="#212121"/>
<path d="M232.929 284.704C225.877 283.005 228.876 276.208 230.334 271.276C230.641 270.237 233.589 269.827 233.262 270.937C232.112 274.828 228.754 281.612 234.698 283.044C236.383 283.45 233.919 284.941 232.929 284.704ZM242.432 286.953C242.134 286.396 244.69 285.434 245.282 286.086C248.42 284.924 251.611 283.931 254.89 283.24C255.084 283.199 256.081 283.085 256.103 283.482C256.322 287.266 254.737 290.333 250.927 291.31C247.554 292.174 244.68 290.481 242.913 287.759C242.58 287.666 242.414 287.486 242.606 287.257C242.549 287.156 242.487 287.057 242.432 286.953ZM245.907 287.093C246.982 288.71 248.688 290.37 250.672 290.186C252.778 289.989 253.202 286.619 253.198 284.797C250.719 285.394 248.292 286.192 245.907 287.093ZM250.14 270.464C250.136 268.942 250.248 267.549 250.716 266.088C250.955 265.34 248.084 265.729 247.821 266.55C247.321 268.111 247.214 269.62 247.219 271.247C247.222 271.883 250.144 271.409 250.14 270.464ZM229.311 265.887C229.531 265.377 229.575 264.748 229.67 264.206C229.735 263.836 229.797 263.466 229.862 263.095C229.89 262.933 230.088 262.319 229.879 262.72C229.876 262.72 229.874 262.721 229.871 262.722C229.948 262.596 229.99 262.461 229.982 262.316C229.978 262.236 229.916 262.176 229.873 262.109C229.407 261.374 227.474 262.037 227.157 262.647C226.904 263.134 226.887 263.768 226.795 264.301C226.687 264.926 226.644 265.66 226.389 266.247C226.115 266.878 227.366 266.922 227.653 266.886C228.301 266.806 229.036 266.52 229.311 265.887ZM227.911 256.381C229.254 256.381 230.599 256.381 231.942 256.381C232.638 256.381 233.491 256.194 233.853 255.52C234.176 254.92 233.577 254.418 232.997 254.418C231.653 254.418 230.308 254.418 228.965 254.418C228.269 254.418 227.417 254.605 227.054 255.279C226.731 255.879 227.33 256.381 227.911 256.381ZM249.01 259.188C250.47 259.319 251.351 260.118 252.28 261.179C253.147 262.167 255.923 261.001 254.955 259.898C253.593 258.343 252.15 257.275 250.027 257.085C249.329 257.023 248.451 257.299 248.124 257.975C247.81 258.621 248.398 259.133 249.01 259.188ZM108.239 190.075C98.3595 178.735 101.605 164.734 113.755 156.767C114.047 156.576 114.471 156.489 114.883 156.488C125.932 152.129 140.362 152.026 147.785 162.889C154.487 172.697 151.921 185.235 142.473 192.28C131.904 200.159 117.388 200.577 108.239 190.075ZM110.271 188.128C118.754 197.865 132.4 199.342 142.039 190.098C149.134 183.294 151.218 172.285 145.081 164.063C137.797 154.305 125.619 153.719 115.062 158.217C114.961 158.26 114.858 158.29 114.754 158.316C104.707 165.469 101.645 178.227 110.271 188.128ZM420.697 280.789C410.816 269.449 414.064 255.447 426.213 247.481C426.505 247.289 426.929 247.204 427.34 247.202C438.389 242.842 452.819 242.74 460.242 253.603C466.944 263.41 464.378 275.949 454.93 282.993C444.361 290.872 429.845 291.29 420.697 280.789ZM422.728 278.842C431.211 288.578 444.858 290.056 454.496 280.812C461.591 274.007 463.675 262.999 457.539 254.776C450.255 245.018 438.076 244.433 427.519 248.93C427.418 248.973 427.315 249.004 427.212 249.03C417.165 256.182 414.103 268.941 422.728 278.842ZM61.5691 127.072C57.6492 122.393 59.1672 116.985 64.0022 113.738C64.2139 113.596 64.4961 113.511 64.7914 113.473C69.3432 111.75 75.5551 111.519 78.5113 116.151C81.0947 120.197 79.9759 125.098 76.1185 127.915C71.726 131.122 65.3488 131.583 61.5691 127.072ZM74.9463 126.327C77.2041 123.917 77.8451 120.116 75.8071 117.326C73.2792 113.865 69.2787 113.413 65.4718 114.986C57.0556 121.22 67.9029 133.845 74.9463 126.327ZM339.757 206.698C335.838 202.02 337.355 196.612 342.19 193.364C342.401 193.222 342.683 193.137 342.979 193.099C347.531 191.376 353.743 191.146 356.699 195.777C359.281 199.823 358.163 204.724 354.306 207.542C349.913 210.749 343.537 211.21 339.757 206.698ZM353.134 205.953C355.39 203.543 356.032 199.742 353.994 196.952C351.466 193.491 347.466 193.04 343.659 194.612C335.244 200.845 346.091 213.471 353.134 205.953ZM509.135 200.787C505.215 196.11 506.732 190.701 511.567 187.454C511.779 187.312 512.061 187.227 512.356 187.189C516.908 185.466 523.121 185.235 526.076 189.867C528.658 193.912 527.541 198.814 523.683 201.631C519.291 204.838 512.915 205.299 509.135 200.787ZM522.511 200.043C524.768 197.633 525.41 193.832 523.372 191.042C520.843 187.581 516.844 187.129 513.037 188.701C504.621 194.934 515.469 207.561 522.511 200.043ZM179.123 268.101C179.312 267.974 179.558 267.891 179.819 267.848C183.248 266.554 188.015 266.32 190.248 269.819C192.202 272.88 191.297 276.511 188.399 278.627C185.074 281.055 180.117 281.474 177.244 278.045C174.308 274.541 175.526 270.518 179.123 268.101ZM180.653 269.305C175.096 273.53 182.276 282.275 186.97 277.265C188.535 275.594 188.954 272.922 187.546 270.994C185.847 268.667 183.237 268.256 180.653 269.305ZM468.438 398.832C470.391 401.894 469.486 405.525 466.587 407.641C463.261 410.069 458.306 410.488 455.432 407.059C452.496 403.556 453.714 399.532 457.31 397.115C457.5 396.988 457.748 396.905 458.009 396.862C461.438 395.568 466.205 395.335 468.438 398.832ZM465.733 400.009C464.034 397.682 461.425 397.271 458.839 398.32C453.285 402.545 460.463 411.289 465.157 406.28C466.723 404.609 467.143 401.937 465.733 400.009ZM236.47 152.348C231.24 146.105 233.157 138.85 239.64 134.495C239.881 134.333 240.213 134.243 240.554 134.215C246.602 131.921 254.741 131.695 258.661 137.835C262.081 143.192 260.679 149.79 255.545 153.54C249.731 157.785 241.459 158.303 236.47 152.348ZM254.715 151.65C257.895 148.255 258.833 142.949 255.956 139.011C252.327 134.041 246.471 133.541 241.045 135.799C241.038 135.802 241.03 135.804 241.023 135.807C228.807 144.725 244.552 162.499 254.715 151.65ZM546.663 379.41C545.41 380.76 544.065 382.003 542.65 383.138C542.68 383.832 541.746 384.387 540.923 384.437C528.694 393.135 511.937 393.949 500.532 382.989C500.477 382.935 500.421 382.884 500.366 382.831C500.102 382.573 499.841 382.307 499.583 382.036C499.221 382.408 498.874 382.766 498.577 383.104C495.99 386.044 493.361 388.946 490.698 391.816C488.083 394.631 485.474 397.468 482.718 400.146C481.723 401.113 480.655 402.412 479.241 402.747C478.975 402.811 478.754 402.825 478.555 402.82C479.523 407.611 478.05 412.709 473.914 416.179C473.669 416.385 473.408 416.573 473.154 416.769C473.205 417.511 472.143 418.095 471.281 418.081C464.548 422.293 455.725 423.058 449.664 417.171C449.575 417.085 449.491 416.989 449.403 416.901C449.15 416.644 448.89 416.402 448.648 416.119C441.906 408.286 444 399.153 452.253 393.565C452.424 393.449 452.826 393.339 453.262 393.267C460.371 390.463 469.843 389.627 475.307 396.109C476.739 397.809 477.73 399.742 478.297 401.754C478.465 401.669 478.661 401.589 478.914 401.53C477.701 401.817 479.484 400.749 480.032 400.207C481.049 399.202 482.052 398.184 483.041 397.152C485.378 394.716 487.684 392.25 489.963 389.758C492.126 387.394 494.28 385.024 496.381 382.605C496.898 382.01 497.635 381.321 498.28 380.594C493.189 374.602 490.241 367.288 491.023 359.322C491.765 351.763 496.546 345.746 502.352 341.261C501.368 339.947 499.318 338.602 498.353 337.737C495.33 335.028 492.265 332.364 489.177 329.729C486.085 327.089 482.981 324.46 479.826 321.896C478.895 321.139 477.681 319.845 476.455 318.961C476.29 319.045 476.115 319.109 475.934 319.154C461.993 330.032 443.479 335.401 426.291 331.488C425.171 333.018 423.998 334.502 422.878 335.948C426.202 338.115 427.207 341.085 426.756 344.223C430.319 344.979 431.68 347.396 431.58 350.313C436.631 353.589 435.098 359.149 431.341 363.52C429.856 365.246 428.086 367.235 426.123 368.67C426.121 368.693 426.125 368.715 426.121 368.74C425.025 375.327 421.722 380.928 416.9 385.378C417.047 385.478 417.112 385.628 417.04 385.836C413.56 395.996 411.165 406.43 408.632 416.852C405.504 429.732 400.657 441.808 396.821 454.432C394.112 463.349 391.725 473.101 386.278 480.835C377.946 492.662 362.174 495.669 350.432 486.83C344.463 482.335 339.844 476.272 336.049 469.611C333.477 475.61 330.906 481.611 328.336 487.61C327.951 488.508 325.072 488.837 325.424 488.013C328.448 480.958 331.471 473.902 334.495 466.846C334.501 466.833 334.511 466.822 334.517 466.81C330.821 459.762 327.935 452.214 325.322 445.214C319.859 430.579 316.265 414.295 308.391 400.701C307.758 399.61 310.599 398.68 311.098 399.542C318.702 412.668 322.245 428.219 327.473 442.361C332.95 457.171 339.355 475.292 352.478 485.171C359.137 490.185 368.933 492.61 376.455 487.782C384.948 482.331 388.591 471.872 391.475 462.694C394.941 451.672 399.343 440.888 402.453 429.78C406.444 415.526 409.149 400.943 413.884 386.901C413.788 386.876 413.696 386.848 413.613 386.811C413.275 386.913 412.938 386.946 412.684 386.868C403.139 383.948 393.889 380.297 385.059 375.656C384.992 375.687 384.924 375.717 384.853 375.742C370.474 390.449 362.86 411.365 355.547 430.149C355.204 431.029 352.326 431.379 352.641 430.57C356.161 421.528 359.766 412.05 364.127 402.984C363.936 402.887 363.787 402.74 363.721 402.529C360.544 392.393 358.572 381.985 355.663 371.787C352.893 362.076 349.313 350.792 342.121 343.415C328.241 329.176 306.059 325.458 287.038 324.477C287.028 324.477 287.021 324.474 287.012 324.473C286.886 324.519 286.755 324.559 286.622 324.593C278.163 329.352 269.688 336.239 264.259 344.293C263.8 344.974 262.123 345.207 261.546 344.809C261.233 344.814 260.99 344.748 260.913 344.573C260.745 344.187 260.547 343.825 260.364 343.451C259.87 345.536 259.235 347.92 258.258 349.919C258.574 349.965 258.794 350.098 258.794 350.342C258.784 380.159 258.337 409.973 258.052 439.787C257.979 447.441 257.91 455.095 257.862 462.748C257.851 464.405 257.856 465.931 257.802 467.404C257.74 469.062 257.584 470.651 257.228 472.249C256.928 473.601 256.494 474.961 255.816 476.391C253.88 480.47 251.701 484.434 249.36 488.296C248.219 490.18 247.033 493.014 245.163 494.321C244.7 494.645 243.351 495.03 242.903 494.465C242.892 494.453 242.883 494.441 242.873 494.428C242.552 494.022 242.948 493.595 243.535 493.317C244.328 492.561 245.665 490.199 246.785 488.161C247.317 487.193 247.801 486.298 248.151 485.688C250.367 481.828 252.753 477.854 254.221 473.635C255.847 468.956 254.938 463.228 254.976 458.342C255.03 451.151 255.094 443.96 255.165 436.77C255.443 408.875 255.838 380.979 255.866 353.084C254.4 354.075 251.978 354.128 250.387 354.025C248.886 353.927 247.044 353.686 245.437 353.056C241.065 378.283 238.327 403.824 237.076 429.392C236.452 442.136 236.129 454.905 236.4 467.663C236.522 473.402 236.523 477.218 239.759 482.112C241.635 484.949 244.068 487.956 244.667 491.389C244.67 491.41 244.678 491.431 244.683 491.452C244.743 491.809 244.453 492.122 244.037 492.347C243.882 492.431 243.711 492.502 243.531 492.559C242.752 492.805 241.851 492.767 241.762 492.234C240.973 487.532 237.059 484.009 234.981 479.855C232.801 475.492 233.48 470.061 233.428 465.294C233.3 453.447 233.545 441.595 234.156 429.763C235.503 403.681 238.241 377.655 242.769 351.927C242.792 351.798 242.864 351.678 242.968 351.57C242.982 351.554 243.001 351.54 243.016 351.525C243.001 351.51 242.991 351.49 242.977 351.475C242.761 351.242 242.557 350.997 242.389 350.72C240.627 347.797 240.068 344.375 239.501 341.035C239.156 341.704 238.865 342.378 238.648 343.048C238.263 344.24 235.282 344.587 235.697 343.301C235.712 343.255 235.732 343.211 235.746 343.166C232.379 338.464 231.336 332.782 231.615 327.099C231.544 327.089 231.48 327.075 231.425 327.057C231.716 327.281 229.516 328.191 228.907 328.085C207.598 324.353 188.063 330.98 169.785 341.615C155.24 350.079 141.546 360.13 126.118 366.998C125.938 367.078 123.558 367.644 123.856 367.137C125.171 364.895 124.108 359.233 124.077 356.778C123.987 349.85 123.799 342.925 123.563 336.002C123.33 329.155 123.072 322.307 122.687 315.468C122.549 313.012 123.169 307.973 121.816 305.769C121.769 305.692 121.921 305.556 122.175 305.41C114.163 305.41 106.152 305.41 98.1387 305.41C93.4912 321.025 91.7384 337.943 90.8474 354.116C90.3313 363.485 90.1328 372.952 91.051 382.304C91.7263 389.182 92.5709 397.204 96.2912 403.228C104.719 416.873 125.207 417.493 139.347 416.392C155.734 415.115 173.782 411.303 187.658 402.04C188.072 401.764 189.677 401.558 190.118 401.765C190.372 394.173 191.081 386.603 192.357 379.088C192.566 377.862 195.542 377.438 195.306 378.827C189.227 414.614 195.96 451.561 204.363 486.414C204.673 487.696 201.749 488.466 201.443 487.197C194.796 459.625 189.2 430.706 190.106 402.101C190.06 402.143 190.001 402.19 189.926 402.24C176.343 411.308 158.95 415.54 142.907 417.263C128.48 418.814 107.522 419.628 96.5049 408.07C91.304 402.613 89.6046 394.901 88.6511 387.635C87.3448 377.687 87.2854 367.584 87.7873 357.574C88.6551 340.229 90.3414 322.122 95.3871 305.41C95.2309 305.41 95.0736 305.41 94.9174 305.41C93.4277 305.41 93.4025 304.238 94.1776 303.655C90.9331 295.459 89.7407 286.122 88.4515 277.502C86.9104 267.191 85.5931 256.743 85.5316 246.302C85.5265 245.469 87.6039 245.106 88.1844 245.316C92.327 246.816 95.5695 251.479 97.9291 256.004C97.4876 248.934 97.5723 241.638 101.176 236.065C96.0453 233.424 91.2102 230.057 86.9124 226.104C86.6111 226.026 86.4115 225.873 86.4175 225.636C77.2595 217.031 70.6293 205.753 68.9562 193.232C66.5049 174.895 75.0783 159.434 88.508 148.31C88.2772 148.273 88.0615 148.183 87.8921 148.012C86.0738 146.192 84.3916 144.368 83.2385 142.125C83.2244 142.126 83.2103 142.124 83.1962 142.124C73.4233 148.736 60.0108 149.09 51.7488 139.122C42.9627 128.521 45.9855 116.019 57.0878 108.674C57.2783 108.548 57.7571 108.429 58.2479 108.359C68.0047 104.45 80.7479 103.681 88.1633 112.545C94.5818 120.219 94.6483 131.442 87.3852 138.68C86.8318 139.231 86.2543 139.755 85.6616 140.256C86.6443 142.604 88.3296 144.457 90.1237 146.254C90.294 146.424 90.3888 146.6 90.4311 146.774C92.2192 145.393 94.0788 144.08 96.006 142.848C96.3194 142.648 97.3989 142.465 98.05 142.488C116.334 134.978 137.579 132.018 155.982 140.789C171.61 148.236 183.479 163.186 185.454 180.635C185.534 181.35 185.595 182.061 185.643 182.771C185.766 182.714 185.867 182.667 185.931 182.634C187.439 181.847 188.942 181.048 190.441 180.244C194.721 177.947 198.987 175.625 203.257 173.308C207.156 171.193 211.051 169.064 214.979 167.002C216.562 166.17 218.228 165.091 219.994 164.655C216.876 159.585 215.255 153.815 215.859 147.657C216.729 138.797 223.141 132.048 230.256 127.41C230.481 127.264 231.101 127.127 231.674 127.07C244.622 121.918 260.953 120.939 271.174 132.112C280.388 142.184 280.961 157.548 271.5 167.747C270.247 169.097 268.901 170.34 267.486 171.475C267.517 172.169 266.583 172.724 265.76 172.774C253.531 181.472 236.776 182.286 225.372 171.327C225.315 171.272 225.258 171.221 225.201 171.165C224.651 170.629 224.109 170.074 223.585 169.481C222.501 168.255 221.512 166.966 220.623 165.63C220.378 165.782 220.096 165.908 219.808 165.968C221.082 165.707 218.363 166.806 217.862 167.068C216.354 167.855 214.851 168.654 213.352 169.458C209.072 171.755 204.806 174.077 200.536 176.394C196.637 178.509 192.742 180.638 188.814 182.7C187.819 183.223 186.791 183.843 185.728 184.343C186.323 201.381 177.675 216.793 164.777 227.399C164.668 227.895 164.091 228.289 163.475 228.441C160.726 230.586 157.802 232.518 154.742 234.205C156.225 234.837 157.536 237.359 158.44 238.554C161.052 242.006 163.608 245.5 166.168 248.991C168.778 252.551 171.375 256.122 174.039 259.641C174.684 260.494 175.749 262.465 176.831 263.617C183.68 261.363 192.093 261.134 197.116 267.095C202.172 273.094 201.926 281.961 195.723 287.165C195.477 287.371 195.217 287.559 194.963 287.755C195.015 288.497 193.952 289.081 193.09 289.067C186.357 293.278 177.534 294.044 171.474 288.158C171.385 288.071 171.3 287.976 171.213 287.887C170.96 287.63 170.7 287.388 170.457 287.106C163.715 279.272 165.808 270.139 174.062 264.551C174.063 264.55 174.066 264.549 174.067 264.548C173.166 263.521 172.376 262.131 171.77 261.33C169.158 257.878 166.602 254.383 164.042 250.893C161.432 247.333 158.835 243.762 156.171 240.242C155.317 239.112 153.724 236.019 152.334 235.467C148.569 237.346 144.629 238.861 140.593 239.962C140.997 249.675 135.542 266.325 134.793 269.837C134.645 270.534 131.785 270.979 131.916 270.364C133.231 264.204 135.187 258.205 136.349 252.003C136.727 249.99 137.943 244.892 137.859 240.643C135.105 241.26 132.315 241.682 129.513 241.895C126.818 250.727 125.186 264.312 124.715 266.813C124.586 267.501 121.718 267.973 121.838 267.34C122.106 265.918 122.341 264.492 122.567 263.065C122.125 262.954 121.791 262.664 121.797 262.147C121.846 257.761 122.256 253.388 122.221 248.997C122.208 247.35 122.326 244.663 122.142 241.961C119.646 241.812 117.159 241.483 114.697 240.969C114.246 244.372 114.158 247.817 114.136 248.698C114.006 253.705 114.498 258.986 113.669 263.942C113.448 265.26 110.462 265.64 110.709 264.163C110.795 263.645 110.868 263.126 110.932 262.606C110.818 262.569 110.742 262.512 110.729 262.428C109.458 254.135 107.4 245.362 104.126 237.486C103.796 237.338 103.469 237.186 103.141 237.031C98.7032 245.536 101.462 257.746 101.555 266.685C101.564 267.51 98.6387 267.943 98.6346 267.467C98.6185 265.955 98.5308 264.36 98.4169 262.715C98.0329 262.731 97.7215 262.653 97.6267 262.427C95.7852 258.054 92.7776 251.361 88.504 248.048C88.7448 258.092 90.0138 268.166 91.5802 278.067C92.9036 286.423 94.0556 295.42 97.2739 303.33C106.125 303.33 114.975 303.33 123.826 303.33C123.877 303.22 123.954 303.104 124.083 302.975C129.278 297.78 134.413 292.513 139.3 287.024C142.241 283.719 145.175 280.371 147.783 276.793C148.986 275.144 152.754 270.835 152.055 268.475C149.759 260.736 119.594 281.193 116.424 285.604C115.693 286.621 112.931 286.324 114.004 284.833C118.55 278.506 127.317 273.975 134.026 270.429C138.548 268.039 148.602 261.956 153.799 265.78C161.323 271.316 130.645 299.604 126.503 303.745C126.304 303.945 125.998 304.076 125.663 304.149C125.681 304.56 125.383 305.015 124.874 305.248C126.137 307.733 125.516 312.916 125.651 315.46C126.018 322.381 126.292 329.308 126.518 336.235C126.749 343.33 126.958 350.428 127.015 357.526C127.03 359.41 127.671 363.15 127.133 365.485C144.652 357.179 160.061 345.025 177.387 336.323C194.233 327.862 212.572 323.731 231.325 327.016C231.347 327.021 231.357 327.028 231.373 327.033C231.205 326.955 231.153 326.821 231.304 326.611C231.429 326.438 231.56 326.273 231.687 326.101C231.737 325.841 231.919 325.616 232.181 325.444C234.535 322.393 237.236 319.788 240.739 318.173C240.736 318.14 240.728 318.111 240.729 318.077C240.736 317.867 240.747 317.647 240.759 317.422C240.65 317.203 240.675 316.988 240.796 316.792C241.003 313.578 241.421 309.372 239.478 306.88C237.479 304.318 234.28 303.457 231.422 302.191C226.067 299.819 221.33 296.341 219.483 290.509C214.966 276.24 220.709 260.835 220.907 246.347C220.909 246.201 220.95 246.069 221.012 245.946C212.881 242.578 207.928 237.03 210.911 228.035C221.442 196.271 260.355 219.494 277.574 233.349C277.611 233.342 277.646 233.331 277.683 233.324C291.533 231.22 296.182 245.803 296.485 257.054C296.904 272.582 289.078 288.281 276.382 297.089C276.325 297.128 276.263 297.163 276.196 297.194C276.307 302.263 277.319 307.262 278.008 312.293C278.369 312.245 278.688 312.27 278.859 312.419C282.288 315.383 285.411 318.631 287.515 322.649C287.712 322.586 287.912 322.549 288.101 322.559C306.684 323.518 329.08 327.007 343.076 340.469C358.324 355.138 360.254 379.764 365.924 399.359C370.486 390.452 375.913 382.087 382.862 375.085C382.862 375.079 382.86 375.074 382.86 375.068C382.857 374.815 382.853 374.552 382.849 374.294C382.849 374.244 382.848 374.193 382.847 374.142C382.639 358.877 380.216 334.932 401.396 333.673C402.498 333.607 403.811 333.73 405.135 334.038C407.709 331.614 409.944 328.788 412.177 325.998C407.587 323.485 403.256 320.389 399.367 316.812C399.066 316.735 398.866 316.581 398.873 316.345C391.125 309.063 385.184 299.87 382.528 289.626C380.221 290.515 376.939 290.753 375.38 291.065C372.323 291.674 368.944 292.633 365.711 292.91C365.06 297.998 362.88 302.931 359.079 307.03C357.827 308.381 356.481 309.624 355.066 310.759C355.096 311.453 354.163 312.007 353.339 312.058C341.11 320.755 324.353 321.569 312.95 310.609C312.894 310.556 312.838 310.505 312.782 310.45C312.231 309.913 311.689 309.358 311.165 308.764C305.783 302.673 302.632 295.151 303.439 286.94C304.308 278.081 310.721 271.331 317.835 266.694C318.06 266.548 318.68 266.412 319.252 266.354C332.201 261.202 348.532 260.223 358.753 271.396C363.929 277.052 366.376 284.379 365.854 291.522C368.143 291.381 370.579 290.689 372.756 290.28C374.852 289.885 376.949 289.486 379.024 288.995C379.788 288.815 380.556 288.639 381.31 288.418C381.783 288.279 382.223 287.847 381.87 288.454C381.933 288.344 382.043 288.245 382.178 288.158C381.864 286.769 381.604 285.364 381.413 283.941C379.254 267.793 385.642 253.875 396.37 243.185C394.806 242.497 393.27 241.277 391.93 240.454C388.015 238.045 384.125 235.597 380.234 233.151C376.142 230.579 372.055 227.999 367.944 225.454C366.292 224.432 363.881 222.427 361.964 221.655C361.772 221.711 361.574 221.741 361.384 221.746C351.612 228.358 338.199 228.712 329.938 218.744C321.151 208.142 324.175 195.64 335.277 188.295C335.467 188.169 335.945 188.05 336.435 187.982C346.194 184.072 358.936 183.302 366.353 192.167C372.77 199.84 372.838 211.063 365.575 218.301C364.923 218.949 364.243 219.561 363.538 220.141C365.336 220.723 367.13 222.19 368.668 223.135C372.583 225.544 376.472 227.992 380.364 230.438C384.456 233.01 388.543 235.59 392.654 238.135C394.124 239.046 396.195 240.727 397.986 241.632C401.174 238.664 404.697 235.963 408.464 233.556C408.777 233.357 409.856 233.173 410.508 233.196C428.792 225.687 450.037 222.727 468.441 231.497C471.906 233.149 475.187 235.172 478.216 237.506C478.396 237.402 478.614 237.303 478.912 237.232C477.699 237.519 479.482 236.451 480.03 235.91C481.047 234.905 482.05 233.887 483.039 232.855C485.376 230.419 487.682 227.952 489.961 225.461C492.124 223.097 494.278 220.726 496.379 218.307C497.308 217.237 498.966 215.864 499.478 214.51C499.573 214.26 499.881 214.056 500.262 213.906C499.94 213.561 499.622 213.204 499.314 212.831C490.526 202.23 493.55 189.728 504.653 182.383C504.842 182.257 505.321 182.138 505.811 182.069C515.569 178.16 528.312 177.389 535.728 186.254C542.146 193.928 542.213 205.151 534.95 212.389C534.19 213.146 533.386 213.852 532.551 214.516C532.605 215.236 531.608 215.811 530.76 215.833C521.882 221.838 510.007 222.673 501.712 215.304C500.829 216.581 499.48 217.778 498.576 218.805C495.989 221.745 493.36 224.647 490.697 227.518C488.082 230.333 485.473 233.169 482.717 235.847C481.75 236.787 480.713 238.03 479.36 238.409C489.382 246.574 496.431 258.255 497.912 271.343C499.955 289.395 491.49 305.921 478.231 317.274C479.58 318.055 480.913 319.478 481.956 320.325C485.31 323.052 488.621 325.833 491.906 328.644C495.184 331.45 498.458 334.266 501.653 337.167C502.388 337.836 503.633 338.698 504.576 339.639C504.856 339.447 505.136 339.254 505.42 339.069C505.644 338.923 506.264 338.787 506.837 338.73C519.786 333.577 536.115 332.598 546.337 343.771C555.552 353.848 556.124 369.211 546.663 379.41ZM529.562 215.109C524.839 207.511 516.139 206.671 508.26 209.912C508.139 209.962 508.018 209.994 507.896 210.017C506.401 211.056 505.043 212.263 503.943 213.721C506.767 216.376 510.209 218.403 514.006 219.097C519.331 220.068 525.101 218.425 529.562 215.109ZM502.338 212.074C503.651 210.626 505.163 209.386 506.831 208.321C507.145 208.12 507.547 207.973 507.953 207.931C516.473 204.739 526.344 205.198 531.8 213.193C533.191 211.82 534.388 210.266 535.294 208.554C538.895 201.742 538.337 193.094 532.983 187.276C525.819 179.49 515.455 179.157 506.103 183.119C506.073 183.132 506.04 183.141 506.008 183.153C497.485 189.313 493.769 199.839 500.105 209.212C500.774 210.202 501.524 211.161 502.338 212.074ZM330.727 215.122C331.397 216.112 332.147 217.073 332.961 217.985C334.273 216.536 335.785 215.297 337.453 214.231C337.768 214.031 338.17 213.884 338.575 213.841C347.095 210.649 356.967 211.109 362.423 219.104C363.814 217.731 365.01 216.177 365.916 214.464C369.518 207.653 368.959 199.004 363.606 193.187C356.442 185.4 346.077 185.068 336.726 189.029C336.695 189.042 336.662 189.051 336.631 189.063C328.108 195.224 324.393 205.75 330.727 215.122ZM360.184 221.02C355.462 213.422 346.762 212.581 338.883 215.823C338.762 215.872 338.641 215.904 338.519 215.928C337.024 216.967 335.665 218.173 334.566 219.632C337.39 222.287 340.832 224.314 344.629 225.007C349.954 225.979 355.724 224.336 360.184 221.02ZM352.107 311.356C345.612 300.545 333.061 299.461 322.122 304.044C321.975 304.106 321.823 304.142 321.676 304.165C319.457 305.687 317.447 307.465 315.841 309.639C320.437 313.948 326.259 317.089 332.522 317.582C339.333 318.118 346.494 315.664 352.107 311.356ZM362.857 292.819C362.749 292.715 362.781 292.576 362.9 292.425C363.567 285.85 361.761 279.109 357.244 273.813C347.627 262.537 332.553 261.809 319.551 267.39C319.444 267.437 319.286 267.475 319.11 267.506C306.81 276.12 301.902 291.208 311.147 304.266C312.062 305.558 313.081 306.809 314.188 307.993C316.063 305.79 318.287 303.943 320.75 302.372C321.088 302.156 321.528 302.006 321.962 301.981C333.503 297.535 347.183 298.283 354.373 309.428C356.11 307.803 357.647 305.995 358.893 304.026C361.066 300.59 362.4 296.738 362.857 292.819ZM191.924 288.265C188.596 283.091 182.652 282.449 177.158 284.709C177.058 284.75 176.956 284.78 176.854 284.803C175.902 285.477 175.037 286.253 174.319 287.176C176.327 289.066 178.763 290.509 181.472 290.968C185.004 291.565 188.872 290.435 191.924 288.265ZM177.832 264.391C177.847 264.397 177.862 264.408 177.877 264.413C178.958 264.841 176.287 266.008 175.519 265.703C175.407 265.659 175.298 265.583 175.187 265.518C169.642 269.889 167.039 276.953 171.215 283.427C171.681 284.15 172.206 284.859 172.777 285.538C173.55 284.751 174.404 284.049 175.33 283.428C175.433 283.359 175.529 283.283 175.632 283.217C175.653 283.204 175.67 283.19 175.69 283.177C175.958 283.005 176.294 282.871 176.637 282.808C182.827 280.498 190.062 280.726 194.156 286.342C195.239 285.197 196.115 283.894 196.693 282.484C198.641 277.724 198.057 271.942 194.371 268.11C189.804 263.36 183.792 262.573 177.832 264.391ZM264.524 172.069C258.031 161.258 245.479 160.173 234.54 164.756C234.392 164.819 234.241 164.854 234.093 164.877C231.874 166.399 229.864 168.177 228.257 170.351C232.853 174.66 238.675 177.802 244.938 178.295C251.751 178.83 258.911 176.375 264.524 172.069ZM223.563 164.978C224.479 166.27 225.497 167.521 226.603 168.705C228.479 166.502 230.703 164.655 233.166 163.084C233.504 162.868 233.944 162.718 234.378 162.693C245.919 158.247 259.599 158.996 266.788 170.141C268.524 168.517 270.062 166.708 271.308 164.738C277.199 155.426 276.962 143.087 269.661 134.525C260.043 123.25 244.969 122.521 231.968 128.103C231.86 128.149 231.702 128.187 231.526 128.219C219.226 136.832 214.319 151.919 223.563 164.978ZM52.539 135.496C53.2083 136.486 53.9582 137.446 54.7726 138.358C56.0839 136.91 57.5958 135.67 59.2649 134.606C59.5794 134.405 59.9816 134.258 60.3858 134.216C68.7284 131.09 78.3723 131.45 83.8937 138.969C84.1668 138.932 84.443 138.945 84.6879 139.018C85.8843 137.759 86.9225 136.363 87.7278 134.839C91.3292 128.027 90.7708 119.379 85.4177 113.561C78.2533 105.774 67.8898 105.442 58.5372 109.404C58.507 109.417 58.4737 109.426 58.4425 109.438C49.9194 115.597 46.2052 126.123 52.539 135.496ZM81.9958 141.393C77.2726 133.796 68.5732 132.955 60.6932 136.196C60.5722 136.246 60.4513 136.277 60.3313 136.3C58.8356 137.338 57.4769 138.546 56.3772 140.005C59.2014 142.66 62.6435 144.687 66.4404 145.381C71.7663 146.352 77.5357 144.709 81.9958 141.393ZM111.816 240.271C110.522 239.918 109.236 239.517 107.962 239.055C109.27 242.517 110.365 246.111 111.272 249.746C111.26 246.894 111.314 244.049 111.68 241.239C111.723 240.924 111.768 240.6 111.816 240.271ZM121.993 240.385C121.658 237.571 120.895 234.961 119.184 233.767C116.898 232.17 115.652 235.353 114.968 239.206C117.319 239.774 119.662 240.157 121.993 240.385ZM126.87 242.028C126.222 242.046 125.574 242.051 124.925 242.047C124.976 242.779 125.011 243.449 125.04 243.998C125.117 245.408 125.142 246.813 125.141 248.218C125.364 247.264 125.604 246.313 125.871 245.366C126.17 244.303 126.494 243.166 126.87 242.028ZM137.795 239.414C137.576 236.967 136.806 234.971 135.003 234.303C133.053 233.581 131.365 236.354 129.945 240.549C132.592 240.385 135.209 239.992 137.795 239.414ZM87.9143 223.444C91.6497 218.656 96.26 214.754 101.401 211.475C101.756 211.248 102.258 211.179 102.716 211.224C124.357 202.428 151.01 204.11 164.047 225.745C175.787 215.507 183.677 201.188 182.847 185.179C182.27 185.137 182.385 184.728 182.802 184.347C182.797 184.284 182.796 184.219 182.791 184.156C181.605 168.305 172.844 153.536 159.293 145.114C140.265 133.288 117.363 135.214 97.4796 143.901C97.2891 143.985 96.9585 144.045 96.6077 144.076C83.8282 152.69 73.0312 165.33 71.6171 181.246C70.5084 193.718 74.402 206.222 81.8053 216.277C83.6558 218.792 85.7009 221.195 87.9143 223.444ZM102.408 234.396C102.539 234.239 102.667 234.08 102.806 233.926C103.155 233.541 105.264 232.741 105.588 233.422C106.085 234.462 106.555 235.525 107.004 236.602C108.472 237.22 109.968 237.773 111.489 238.25C111.706 238.319 111.924 238.369 112.141 238.435C112.956 234.507 114.717 230.612 119.519 231.225C123.293 231.707 124.401 236.631 124.804 240.585C125.658 240.62 126.512 240.641 127.363 240.633C128.811 236.804 131.054 233.292 135.451 232.9C138.683 232.612 140.126 235.018 140.509 238.733C146.766 236.982 152.8 234.073 158.463 230.113C159.587 229.328 160.683 228.504 161.756 227.651C149.362 206.272 123.643 204.336 102.595 213.417C102.343 213.526 102.086 213.569 101.841 213.568C97.1469 216.736 92.9278 220.478 89.6056 225.1C93.4519 228.733 97.7598 231.897 102.408 234.396ZM225.504 214.341C227.616 213.975 230.031 213.744 232.807 213.558C230.301 213.387 227.818 213.58 225.504 214.341ZM243.751 316.595C246.694 320.171 248.63 325.039 250.6 329.33C258.777 324.141 266.952 318.944 275.19 313.852C274.35 307.29 272.866 300.81 273.343 294.156L273.255 293.98L273.924 293.395C272.98 293.428 272.112 292.977 273.219 292.155C277.053 289.306 280.674 284.028 277.938 279.202C277.101 277.726 275.526 276.189 273.712 276.158C271.438 276.121 269.891 278.149 268.776 279.885C268.246 280.71 265.299 280.967 266.05 279.798C266.404 279.247 266.823 278.708 267.29 278.197C264.491 269.453 262.682 259.372 265.741 250.462C256.887 251.077 237.269 251.422 223.844 246.992C223.64 254.601 222.162 262.109 221.428 269.673C220.732 276.846 219.61 286.199 223.727 292.629C227.972 299.261 235.045 299.589 240.758 304.049C244.343 306.85 243.962 312.365 243.751 316.595ZM237.203 339.964C239.565 335.877 243.591 332.282 247.827 330.429C246.094 326.685 244.416 322.466 242.017 319.077C241.904 319.081 241.793 319.077 241.686 319.062C238.767 320.553 236.554 323.006 234.589 325.636C234.609 325.714 234.619 325.8 234.612 325.896C234.253 330.768 234.875 335.699 237.203 339.964ZM257.881 341.818C257.976 341.415 258.434 341.102 258.962 340.927C256.724 337.363 253.77 334.398 250.332 331.896C249.925 332.067 249.452 332.155 249.047 332.056C247.885 332.552 246.725 333.229 245.614 334.044C244.365 334.96 243.186 336.043 242.148 337.222C241.989 337.401 241.832 337.582 241.682 337.765C241.566 337.905 241.455 338.047 241.344 338.189C241.481 338.2 241.605 338.23 241.718 338.272C241.949 338.359 242.118 338.511 242.162 338.751C242.959 343.158 243.18 350.443 248.522 351.748C250.538 352.241 253.675 352.99 254.812 350.717C256.23 347.879 257.157 344.899 257.881 341.818ZM284.634 323.504C282.945 320.262 280.578 317.55 277.922 315.076C277.503 315.414 276.799 315.627 276.232 315.631C268.301 320.543 260.424 325.544 252.548 330.541C256.877 333.591 260.51 337.325 262.963 342.016C268.596 334.513 276.559 328.147 284.634 323.504ZM400.372 314.157C404.109 309.37 408.718 305.469 413.859 302.189C414.214 301.963 414.716 301.894 415.173 301.938C436.815 293.144 463.467 294.823 476.504 316.459C488.495 306.003 496.477 291.292 495.25 274.87C494.064 259.02 485.303 244.25 471.752 235.828C452.724 224.002 429.822 225.928 409.94 234.616C409.749 234.699 409.417 234.76 409.068 234.791C405.756 237.024 402.578 239.526 399.661 242.287C400.266 242.608 399.307 243.213 398.435 243.479C390.721 251.176 385.072 260.756 384.076 271.961C382.967 284.434 386.862 296.938 394.264 306.993C396.114 309.505 398.159 311.909 400.372 314.157ZM424.221 330.971C422.341 330.457 420.478 329.834 418.645 329.086C417.024 328.425 415.425 327.686 413.85 326.883C411.696 329.603 409.501 332.279 406.893 334.563C409.786 335.633 412.294 337.67 412.174 340.794C411.93 347.171 403.11 348.931 398.278 349.658C396.277 349.958 397.104 348.002 398.606 347.776C402.222 347.233 413.307 344.046 408.062 338.38C406.908 337.133 405.513 336.356 404.011 335.946C403.39 336.008 402.915 335.968 403.167 335.757C399.833 335.163 396.109 336.252 393.332 338.18C382.722 345.547 385.448 361.814 385.77 373.278C386.418 373.246 386.94 373.39 386.708 373.809C395.445 378.458 404.599 382.115 414.058 385.031C418.604 381.105 421.689 376.027 422.929 370.171C421.396 370.189 420.739 368.558 419.5 367.733C418.077 366.784 420.593 365.224 421.734 365.985C422.771 366.677 422.872 368.073 423.945 367.239C425.731 365.851 427.454 364.341 428.875 362.568C431.128 359.751 433.094 356.076 431.003 353.417C428.577 360.937 419.154 369.032 413.198 361.327C412.678 360.655 415.47 359.686 415.941 360.295C417.606 362.449 419.919 363.723 422.385 361.964C424.442 360.497 426.13 358.442 427.238 356.172C427.932 354.75 428.439 353.137 428.591 351.595C428.027 351.161 428.182 350.568 428.626 350.135C428.51 348.45 427.828 346.98 426.319 346.111C424.295 352.576 416.994 359.201 411.764 360.617C411.253 360.755 410.316 360.824 410.086 360.194C407.242 352.449 411.393 345.635 417.676 341.156C418.67 340.447 421.143 341.014 419.527 342.166C414.042 346.075 410.775 351.921 412.712 358.485C417.155 356.489 422.525 350.68 423.656 345.32C423.002 345.234 423.256 344.921 423.779 344.626C424.136 342.122 423.497 339.761 421.324 337.987C421.231 338.113 421.136 338.24 421.045 338.365C420.549 339.044 418.03 339.103 418.172 338.907C420.103 336.266 422.301 333.695 424.221 330.971ZM427.295 325.773C428.407 323.359 429.525 320.63 429.215 317.906C428.992 315.95 429.104 312.909 425.298 315.203C424.331 315.749 423.422 316.375 422.569 317.081C419.755 319.493 417.425 322.36 415.135 325.258C417.957 326.754 420.901 328.007 423.946 328.964C424.401 329.107 424.856 329.219 425.311 329.349C426.05 328.196 426.726 327.01 427.295 325.773ZM474.212 318.363C461.818 296.983 436.099 295.05 415.05 304.129C414.798 304.238 414.542 304.282 414.298 304.281C409.604 307.449 405.385 311.191 402.063 315.813C405.532 319.09 409.376 321.987 413.507 324.358C417.949 318.911 422.669 313.953 430.332 312.897C430.505 312.873 431.057 312.804 431.148 313.048C433.453 319.212 430.921 324.802 427.408 329.915C442.747 333.626 457.812 329.992 470.92 320.825C472.043 320.04 473.14 319.216 474.212 318.363ZM470.112 417.28C466.785 412.107 460.841 411.464 455.348 413.724C455.246 413.765 455.145 413.795 455.043 413.818C454.092 414.492 453.225 415.269 452.507 416.191C454.514 418.081 456.951 419.524 459.661 419.983C463.192 420.579 467.061 419.45 470.112 417.28ZM472.559 397.125C467.44 391.802 460.509 391.451 453.868 394.172C447.994 398.507 445.107 405.782 449.402 412.441C449.869 413.165 450.393 413.874 450.965 414.553C451.739 413.766 452.592 413.063 453.519 412.441C453.621 412.373 453.717 412.297 453.821 412.231C453.842 412.218 453.859 412.204 453.879 412.191C454.147 412.019 454.483 411.885 454.826 411.822C461.016 409.511 468.249 409.741 472.344 415.355C473.427 414.211 474.305 412.908 474.882 411.498C476.83 406.739 476.244 400.957 472.559 397.125ZM539.687 383.734C533.194 372.922 520.641 371.839 509.704 376.421C509.556 376.484 509.406 376.519 509.258 376.542C507.038 378.064 505.029 379.842 503.423 382.016C508.018 386.325 513.841 389.467 520.103 389.96C526.916 390.495 534.076 388.041 539.687 383.734ZM544.827 346.19C535.209 334.915 520.135 334.186 507.134 339.768C507.026 339.814 506.869 339.852 506.693 339.884C506.283 340.171 505.88 340.465 505.487 340.766C505.587 340.933 505.677 341.101 505.736 341.27C505.944 341.861 504.432 342.483 503.495 342.418C493.612 351.255 490.333 364.785 498.728 376.642C499.131 377.211 499.562 377.769 500.004 378.321C500.916 377.842 502.618 377.758 502.384 378.376C502.176 378.924 501.829 379.462 501.426 379.987C501.541 380.114 501.651 380.244 501.768 380.369C503.644 378.166 505.867 376.319 508.332 374.749C508.67 374.533 509.109 374.383 509.544 374.358C521.084 369.913 534.764 370.661 541.954 381.807C543.69 380.182 545.227 378.374 546.473 376.403C552.365 367.091 552.128 354.751 544.827 346.19ZM533.825 349.5C537.246 354.858 535.846 361.455 530.711 365.205C524.896 369.45 516.624 369.967 511.635 364.014C506.404 357.77 508.322 350.515 514.806 346.16C515.046 345.998 515.378 345.908 515.718 345.88C521.766 343.586 529.905 343.359 533.825 349.5ZM531.122 350.676C527.491 345.707 521.635 345.206 516.21 347.464C516.202 347.467 516.195 347.468 516.188 347.471C503.969 356.39 519.716 374.164 529.88 363.315C533.061 359.92 533.998 354.614 531.122 350.676ZM346.243 277.123C349.664 282.481 348.263 289.078 343.128 292.828C337.313 297.073 329.041 297.591 324.052 291.636C318.822 285.393 320.739 278.138 327.223 273.783C327.465 273.62 327.797 273.531 328.138 273.503C334.187 271.208 342.325 270.984 346.243 277.123ZM343.54 278.298C339.911 273.328 334.055 272.828 328.629 275.087C328.621 275.09 328.612 275.092 328.605 275.095C316.39 284.013 332.133 301.786 342.298 290.938C345.478 287.544 346.416 282.237 343.54 278.298Z" fill="#212121"/>
</svg>
