<svg width="49" height="64" viewBox="0 0 49 64" fill="none" xmlns="http://www.w3.org/2000/svg">
<path d="M42.903 25.2629H42.8127C41.5854 25.2572 40.4001 25.7085 39.488 26.5291C38.7498 24.4843 36.8731 23.0132 34.6739 23.0132C33.3252 23.0227 32.038 23.577 31.1038 24.5505C30.2459 22.812 28.5247 21.6315 26.5435 21.6315H26.4478C25.3892 21.6136 24.3547 21.9525 23.512 22.594V10.2205C23.512 7.22631 21.1808 4.78955 18.3453 4.78955C15.5124 4.78955 13.1938 7.22421 13.1922 10.2158L13.1691 34.7993L11.7774 33.1091C10.5574 31.5907 8.76163 30.6482 6.81979 30.5058C4.9163 30.375 3.04328 31.0375 1.64574 32.3363L0.436297 33.3392C0.045932 33.6624 -0.0654507 34.2145 0.168348 34.6643L11.9371 57.287C14.0891 61.4208 18.184 64 22.6225 64H35.8224C42.5516 64 48.0319 58.1587 48.0393 50.9929C48.0424 47.7444 48.045 45.3302 48.0477 43.38C48.0545 38.2354 48.0566 36.3345 48.0429 30.6545C48.0366 27.6677 45.7307 25.2629 42.903 25.2629ZM45.8962 43.371C45.8936 45.3213 45.8904 47.7412 45.8873 50.9897C45.881 56.9702 41.3663 61.8469 35.8229 61.8469H22.623C18.9894 61.8469 15.6264 59.7117 13.8464 56.2925L2.47849 34.4468L3.03908 33.9786C3.05274 33.9671 3.06692 33.9534 3.08058 33.9413C4.04573 33.0324 5.34502 32.5659 6.66795 32.6531C8.01872 32.7561 9.266 33.4165 10.1114 34.4751L13.405 38.4844C13.6935 38.8359 14.171 38.9677 14.5992 38.8149C15.0269 38.6614 15.3122 38.2564 15.3127 37.8019L15.3316 10.2174C15.3327 8.41106 16.6982 6.94155 18.3463 6.94155C19.9945 6.94155 21.36 8.41264 21.36 10.2205V26.9053C21.36 26.9458 21.3573 26.9857 21.3573 27.0267C21.3573 27.044 21.36 27.0614 21.36 27.0787V34.214C21.36 34.8082 21.8417 35.29 22.436 35.29C23.0302 35.29 23.512 34.8082 23.512 34.214V26.9337C23.512 25.1778 24.8433 23.7835 26.4478 23.7835H26.5435C28.1916 23.7835 29.5644 25.2204 29.5644 27.0277V33.5347C29.5644 34.1294 30.0462 34.6107 30.6404 34.6107C31.2347 34.6107 31.7164 34.1294 31.7164 33.5347V28.4295C31.7164 26.6221 33.0226 25.1516 34.6807 25.1516C36.3288 25.1516 37.6344 26.6221 37.6344 28.4295V33.2457C37.6344 33.8399 38.1162 34.3217 38.7104 34.3217C39.3046 34.3217 39.7864 33.8399 39.7864 33.2457V30.6377C39.7864 28.8303 41.1645 27.4149 42.8127 27.4149H42.903C44.5465 27.4149 45.8873 28.8535 45.8915 30.6561C45.9051 36.3324 45.9025 38.229 45.8962 43.371Z" fill="#212121"/>
<path d="M9.77522 10.6849C10.3694 10.6849 10.8512 10.2031 10.8512 9.60886C10.8512 5.49033 14.1895 2.152 18.3081 2.152C22.4261 2.152 25.7644 5.49033 25.7644 9.60886C25.7644 10.2031 26.2462 10.6849 26.8404 10.6849C27.4351 10.6849 27.9164 10.2031 27.9164 9.60886C27.9164 4.30189 23.6145 0 18.3081 0C13.0011 0 8.69922 4.30189 8.69922 9.60886C8.69922 10.2031 9.181 10.6849 9.77522 10.6849Z" fill="#FF8838"/>
</svg>
