<svg width="538" height="422" viewBox="0 0 538 422" fill="none" xmlns="http://www.w3.org/2000/svg">
<path d="M533.074 391.515C533.044 391.461 533.013 391.405 532.982 391.352C532.97 391.331 532.959 391.309 532.947 391.288C532.895 391.201 532.82 391.133 532.736 391.076C528.338 386.258 523.138 382.179 518.403 377.702C513.865 373.412 508.069 368.056 507.045 361.581C510.138 356.446 512.705 350.796 513.405 345.012C513.69 342.648 508.546 338.622 507.154 337.031C500.732 329.691 494.262 322.39 487.719 315.154C480.971 307.691 473.763 300.612 467.15 293.035C467.125 293.006 467.097 292.977 467.072 292.948C466.893 292.743 466.729 292.528 466.552 292.323C458.026 282.39 451.461 271.018 446.721 258.835C441.889 246.417 440.016 233.28 436.357 220.533C432.576 207.36 427.046 194.586 419.15 183.347C418.525 182.476 417.883 181.615 417.225 180.768C417.205 180.744 417.179 180.727 417.156 180.706C417.141 180.664 417.145 180.628 417.12 180.585C414.479 176.128 412.748 171.323 411.419 166.385C412.843 169.008 414.33 171.595 416.046 174.04C421.946 182.44 428.341 190.644 435.128 198.345C441.186 205.219 448.422 210.71 451.795 219.536C454.757 227.288 455.254 235.778 458.407 243.477C458.676 244.134 459.83 244.074 460.615 243.706C460.93 243.727 461.279 243.692 461.593 243.583C465.583 242.182 465.855 238.177 465.51 234.198C468.007 238.452 470.676 242.585 473.852 246.395C475.957 248.917 479.045 253.54 482.676 250.799C483.222 250.388 483.549 249.856 483.717 249.242C484.792 249.348 485.81 249.226 486.568 248.815C486.568 248.815 486.568 248.815 486.569 248.814C487.661 248.224 488.206 247.029 487.563 245.022C487.563 245.021 487.563 245.021 487.562 245.021C490.131 244.43 490.272 242.392 489.14 239.708C489.09 239.588 489.03 239.473 488.977 239.353C489.075 239.331 489.164 239.306 489.229 239.277C496.497 236.19 485.495 225.819 482.299 223.079C482.268 223.006 482.224 222.934 482.155 222.862C475.928 216.329 469.461 210.021 463.556 203.189C457.52 196.205 454.949 188.191 451.355 179.868C448.287 172.764 444.184 165.7 438.548 160.354C435.431 157.395 431.751 155.281 429.008 151.911C426.248 148.518 424.667 144.223 423.017 140.223C423.01 140.205 422.997 140.194 422.99 140.177C423.664 139.238 424.208 138.205 424.61 137.074C424.716 136.928 424.773 136.767 424.775 136.597C424.788 136.558 424.803 136.522 424.815 136.483C424.933 136.09 424.752 135.848 424.433 135.728C418.057 123.362 412.891 101.606 397.925 97.0566C402.493 96.0185 405.734 93.6367 405.159 89.089C404.578 84.4978 399.679 81.5849 397.697 77.6812C394.917 72.2051 404.144 67.8327 404.298 62.3909C404.477 56.0248 399.009 54.641 396.087 50.1063C394.713 47.9735 394.702 44.4307 394.123 41.9945C393.333 38.6693 392.33 35.3925 391.384 32.1097C390.555 29.2281 388.528 27.3704 386.074 26.1186C384.248 24.777 381.563 23.5887 377.595 23.0031C376.343 22.8176 375.224 22.6523 374.213 22.5042C371.182 21.7371 368.143 20.9953 365.142 20.2021C356.705 17.9735 345.593 18.3061 338.942 24.8456C335.346 28.3814 334.166 32.5724 332.708 37.2713C330.646 43.9206 324.741 46.7832 321.397 52.4124C319.042 56.3786 320.766 61.2288 322.349 65.0831C324.054 69.2328 324.676 72.8744 323.309 76.0968C321.124 78.4624 318.297 80.5347 317.304 82.4981C313.431 86.6982 321.601 90.9687 325.367 92.4897C325.984 92.7387 326.609 92.9544 327.237 93.1519C323.681 92.9675 320.181 92.4786 316.719 91.4899C316.5 91.4274 316.076 91.5029 315.634 91.638C314.995 91.3054 313.851 91.4213 313.407 92.0734C313.243 92.3133 313.091 92.5714 312.932 92.8203C312.876 92.5361 312.604 92.3224 312.007 92.3002C303.844 92.0009 295.364 88.834 287.478 86.6558C284.826 85.9231 282.623 83.1271 280.736 81.2916C277.573 78.2144 274.578 74.985 271.806 71.552C263.931 61.8013 254.678 51.9256 250.92 39.6904C251.429 39.5049 251.839 39.1995 251.849 38.8467C252.114 29.8792 257.106 20.0851 247.631 14.2774C247.621 6.90847 245.802 0.30352 238.25 0.784302C237.794 0.740961 237.26 0.877025 236.955 1.02015C230.301 4.16489 227.665 12.0852 225.776 18.6629C223.577 26.3111 222.31 34.5217 222.071 42.5287C221.285 42.1527 220.501 41.7687 219.717 41.3766C219.033 41.0359 216.864 41.8917 217.123 42.4853C216.673 42.5347 216.233 42.7121 215.971 43.0367C210.523 49.8019 206.521 58.0568 202.191 65.5458C199.488 70.2215 196.805 74.9104 194.078 79.5741C191.698 83.6441 190.816 86.1347 185.879 87.2666C184.123 87.6688 182.341 87.9389 180.543 88.1183C180.22 88.1496 179.898 88.1818 179.573 88.207C160.938 89.6937 140.369 81.1001 122.98 90.3509C121.581 86.4522 120.844 82.1292 124.828 81.1394C128.935 80.1214 132.619 79.3362 136.032 76.6501C148.02 67.2149 137.502 50.8814 134.974 39.5331C134.933 39.3497 134.837 39.2126 134.709 39.1058C134.543 38.8628 134.376 38.6199 134.207 38.379C134.343 38.0595 134.493 37.6967 134.653 37.2965C140.835 31.2933 140.504 19.0752 132.467 14.6262C127.888 12.0902 122.175 12.5176 117.394 14.3641C115.829 14.9689 114.247 15.6654 112.669 16.4304C111.514 16.9394 110.35 17.5522 109.194 18.2326C105.765 20.1083 102.428 22.226 99.4205 24.3588C96.2103 26.6357 93.8023 29.7945 90.7574 32.2569C87.4564 34.9259 83.2644 36.5668 79.6157 38.6996C75.1496 41.3091 72.531 43.327 72.9301 48.7557C74.0368 63.7768 82.4369 78.0904 97.2928 82.9053C97.2928 86.7012 97.2928 90.497 97.2928 94.2929C81.9854 94.9239 68.1264 100.904 59.1729 113.821C54.5929 120.429 51.2577 128.91 50.5098 136.976C50.5037 137.04 50.5108 137.097 50.5188 137.154C50.5078 137.18 50.4926 137.206 50.4886 137.234C48.126 151.505 43.7214 165.759 43.6639 180.315C43.6296 188.924 47.231 195.306 54.6231 197.062C56.1542 197.426 57.8364 197.606 59.694 197.55C61.348 197.501 62.9789 197.258 64.5865 196.885C66.3595 196.474 68.1002 195.889 69.8036 195.168C70.1735 195.013 70.5434 194.856 70.9103 194.688C70.9103 194.696 70.9092 194.705 70.9082 194.713C70.3831 203.012 65.2487 211.408 61.2785 218.466C59.5267 221.582 58.5742 222.771 58.7294 226.281C59.2898 239.051 68.5396 245.107 79.8597 245.58C69.0819 280.837 47.1886 311.488 24.5123 340.074C21.5157 343.852 18.4879 347.605 15.4379 351.337C14.3211 352.704 15.0932 355.048 15.333 356.658C15.451 357.459 15.5941 358.252 15.7554 359.038C15.4348 359.13 15.1637 359.248 15.0287 359.383C5.22352 369.232 -4.70962 382.35 4.89997 395.866C9.06373 401.723 14.2425 406.771 19.6692 411.448C23.8823 415.076 28.5137 418.918 33.6743 421.126C34.2771 421.384 36.1145 421.032 36.307 420.275C39.1655 409.067 36.427 397.26 34.7125 385.97C35.3455 386.355 35.9875 386.73 36.6447 387.085C37.0418 387.299 38.082 387.046 38.72 386.685C38.9146 386.608 39.0768 386.52 39.1706 386.422C60.6243 364.196 80.5763 340.541 97.2999 314.52C112.181 291.362 124.018 266.431 133.07 240.467C135.54 277.194 122.982 314.303 93.9515 338.179C93.8074 338.297 93.763 338.444 93.9001 338.576C102.071 346.472 113.636 351.349 125.069 349.514C122.206 355.815 126.064 362.986 129.412 368.475C134.203 376.328 140.521 383.095 146.475 390.066C131.097 391.187 115.044 384.603 101.47 378.272C99.22 377.222 82.0459 369.474 83.1415 366.983C87.018 358.177 92.994 351.443 100.898 346.053C102.532 344.94 100.176 343.728 98.9236 344.583C90.0549 350.631 83.9902 358.248 79.6742 368.05C79.5049 368.435 79.6127 368.898 79.9655 369.141C90.206 376.211 101.626 381.655 113.259 385.997C124.417 390.159 137 393.707 149.004 392.081C149.688 391.989 151.214 391.187 150.444 390.271C145.439 384.315 140.205 378.578 135.58 372.31C131.451 366.712 123.746 356.346 128.26 349.147C128.421 348.891 128.478 348.664 128.472 348.462C149.015 328.036 164.423 304.142 169.354 275.258C171.711 261.444 171.963 247.398 171.685 233.339C171.611 229.65 171.506 225.96 171.388 222.272C171.555 222.292 171.787 222.286 172.114 222.236C172.192 222.224 172.27 222.209 172.348 222.197C181.44 220.782 190.574 217.031 195.468 208.815C198.112 204.376 197.94 199.345 196.951 194.475C195.292 186.312 193.083 178.265 190.611 170.316C185.297 153.236 178.501 136.141 169.838 120.432C177.605 119.628 185.328 116.676 192.888 115.034C199.925 113.504 204.489 109.364 208.545 103.602C220.739 86.2789 231.583 67.2169 234.87 46.0423C239.048 64.3645 250.987 80.9812 261.365 96.1404C266.177 103.172 270.321 111.28 278.785 114.334C282.934 115.831 287.602 116.13 291.867 117.38C296.829 118.833 301.725 120.433 306.93 120.622C307.211 120.633 307.55 120.534 307.865 120.383C308.038 121.185 308.229 121.977 308.469 122.74C308.659 123.347 309.368 123.509 310.044 123.384C309.925 123.728 310.065 124.06 310.666 124.238C316.168 125.864 321.453 128.056 327.112 129.077C327.1 135.664 329.155 142.153 332.848 148.287C336.46 154.284 340.041 159.729 342.402 166.404C344.505 172.348 345.857 178.557 347.463 184.645C347.45 184.726 347.479 184.802 347.556 184.869C347.76 185.204 348.209 185.324 348.692 185.292C349.66 185.62 350.63 185.947 351.615 186.243C351.232 203.603 342.79 220.493 337.992 236.914C335.073 246.903 333.766 257.675 332.501 267.988C331.22 278.441 330.552 289.169 333.587 299.37C338.041 314.342 349.524 326.298 360.538 336.826C368.265 344.214 376.156 351.439 384.101 358.592C384.197 358.77 384.363 358.938 384.635 359.077C390.774 362.215 397.081 358.677 402.006 354.452C415.324 358.755 410.217 370.81 406.595 380.987C405.017 385.422 401.688 398.583 410.73 397.213C419.116 395.941 425.951 387.272 430.762 381.043C435.575 374.81 444.11 363.473 441.279 354.971C439.153 350.358 435.109 347.467 430.875 344.905C426.456 342.234 420.302 340.294 417.109 336.051C417.071 336.001 417.026 335.96 416.977 335.923C418.704 332.709 420.047 329.379 420.76 326.068C420.813 325.954 420.836 325.835 420.822 325.711C420.843 325.363 420.675 325.128 420.402 324.994C409.632 310.819 397.152 298.26 382.973 287.488C380.41 285.54 373.064 282.412 375.003 278.904C377.05 275.201 378.563 271.2 380.035 267.244C382.814 259.77 385.157 252.157 388.616 244.981C396.128 268.581 407.702 291.119 420.538 312.093C437.392 339.632 457.577 364.219 479.429 387.926C479.662 388.18 480.44 388.044 481.115 387.794C481.336 387.754 481.528 387.703 481.653 387.645C485.457 385.858 488.625 383.712 491.442 381.252C503.867 390.968 501.453 413.244 517.999 418.94C523.959 420.991 529.94 419.48 533.924 414.527C539.36 407.767 537.024 398.307 533.074 391.515ZM487.233 244.085C487.226 244.067 487.22 244.05 487.213 244.032C487.311 244.03 487.434 244.024 487.599 244.015C487.501 244.02 487.374 244.046 487.233 244.085ZM431.245 157.948C439.264 164.249 444.132 171.422 448.433 180.654C452.148 188.63 454.279 196.379 459.933 203.321C465.932 210.687 472.923 217.238 479.467 224.107C479.565 224.21 479.69 224.281 479.828 224.333C482.38 226.636 490.91 235.21 488.452 238.216C486.663 234.599 484.133 231.313 481.882 227.997C481.394 227.277 478.731 228.44 478.961 228.778C480.721 231.37 482.528 233.921 484.152 236.602C485.009 238.016 485.789 239.476 486.432 241C486.68 241.587 486.857 242.192 486.993 242.813C487.063 243.134 487.054 243.371 487.023 243.548C484.988 238.464 481.138 233.883 478.262 229.331C477.725 228.481 474.983 229.548 475.341 230.114C477.509 233.543 479.836 236.866 481.919 240.352C482.866 241.939 483.742 243.572 484.447 245.283C484.701 245.9 484.878 246.536 484.999 247.191C485.039 247.406 485.034 247.623 485.009 247.839C484.616 247.734 484.229 247.612 483.853 247.458C483.833 247.451 483.808 247.449 483.787 247.443C483.022 242.042 474.999 233.237 473.362 230.668C472.81 229.803 470.065 230.862 470.441 231.451C471.484 233.087 481.052 246.212 480.826 249.591C474.156 243.581 469.678 235.785 465.344 227.996C465.197 227.733 464.847 227.641 464.437 227.655C463.61 227.526 461.963 228.012 461.978 228.777C462.037 231.741 464.309 240.062 461.162 242.248C458.326 235.09 457.424 227.308 455.136 219.976C452.502 211.535 446.022 205.631 440.017 199.495C432.551 191.868 426.068 182.985 419.816 174.359C415.619 168.567 412.725 161.945 409.035 155.854C409.032 155.842 409.029 155.831 409.027 155.819C409.001 155.687 408.926 155.586 408.823 155.509C407.465 153.296 405.991 151.159 404.309 149.161C410.313 148.069 416.632 146.229 420.768 142.61C423.272 148.518 426.022 153.842 431.245 157.948ZM341.043 25.0462C340.047 26.3131 339.105 27.7131 338.24 29.1383C339.034 27.4984 339.979 26.1519 341.043 25.0462ZM341.535 45.8357C341.496 46.1925 342.073 46.3346 342.408 46.3346C343.398 46.3346 344.388 46.3346 345.377 46.3346C346.023 46.3346 346.898 46.1038 347.313 45.5636C347.736 45.0142 346.955 44.8086 346.549 44.8086C345.559 44.8086 344.568 44.8086 343.579 44.8086C342.932 44.8086 342.058 45.0394 341.644 45.5797C341.612 45.622 341.599 45.6583 341.581 45.6956C342.262 43.6102 342.866 41.6447 343.263 39.8859C346.25 35.5095 349.609 31.2903 354.436 29.0295C353.944 34.1246 354.499 39.3527 358.701 42.8341C361.47 45.1281 365.119 45.7309 368.536 46.3921C371.688 47.0019 369.625 50.5921 370.001 52.8216C370.15 53.7076 370.515 54.4948 370.997 55.2115C371.011 55.2326 371.022 55.2528 371.036 55.2729C371.908 56.5429 373.178 57.566 374.481 58.4066C374.489 58.4116 374.496 58.4167 374.503 58.4207C374.689 58.5406 374.874 58.6626 375.061 58.7755C376.715 59.7794 378.542 60.4184 380.334 61.135C380.441 61.1774 380.55 61.2207 380.657 61.2641C381.767 61.7156 382.857 62.2085 383.879 62.8475C384.209 63.0541 384.496 63.3082 384.758 63.5843C385.863 65.0861 386.375 66.843 385.911 69.0362C385.828 69.4323 385.718 69.7952 385.588 70.1318C384.16 72.6335 379.565 72.822 377.101 72.8744C376.55 72.8865 375.088 73.1284 375.088 73.9458C375.088 81.0739 375.088 88.203 375.088 95.3311C375.088 96.344 376.751 96.2674 377.574 95.705C378.483 96.0124 379.544 96.3057 380.728 96.5678C378.383 106.731 364.309 113.404 354.701 110.732C347.637 108.77 349.496 98.6381 349.265 92.8899C349.265 92.8818 349.265 92.8737 349.265 92.8667C349.633 92.786 349.996 92.6984 350.362 92.6147C350.822 92.5089 351.287 92.4061 351.742 92.2972C351.16 93.7476 350.568 95.0347 350.215 95.9187C349.604 97.4538 352.537 97.3681 352.997 96.212C354.388 92.7246 358.179 85.541 355.784 81.7039C354.057 78.9371 349.837 78.9542 347.027 78.1711C331.258 73.7745 337.611 57.821 341.535 45.8357ZM352.185 90.9365L352.623 89.8883C352.511 90.237 352.393 90.5817 352.268 90.9234C352.243 90.9254 352.21 90.9335 352.185 90.9365ZM132.345 35.8713C131.414 34.689 130.442 33.5621 129.401 32.5179C130.806 33.4069 131.732 34.6517 132.345 35.8713ZM100.528 55.9442C97.9973 58.3683 93.2651 59.0789 89.9551 61.0625C92.3711 59.1948 96.6921 58.0679 100.528 55.9442ZM89.0671 67.9567C87.5703 62.4988 95.2326 60.8236 98.7059 59.2371C101.15 58.1213 103.108 56.4956 104.591 54.266C104.879 53.8306 105.002 53.1694 105.047 52.4134C106.968 49.9954 106.075 48.1297 105.163 47.0896C105.271 46.7489 105.442 46.514 105.714 46.4475C109.444 45.5374 112.988 45.0737 116.198 42.7555C120.187 39.8758 121.151 35.1779 121.009 30.5636C121.581 30.6523 122.385 30.7762 123.507 30.9496C126.953 33.3999 129.628 36.8137 132.07 40.3889C132.384 41.7788 132.821 43.2846 133.321 44.8671C133.177 44.8288 133.03 44.8086 132.912 44.8086C131.922 44.8086 130.931 44.8086 129.942 44.8086C129.296 44.8086 128.421 45.0394 128.006 45.5797C127.583 46.129 128.364 46.3346 128.77 46.3346C129.76 46.3346 130.751 46.3346 131.741 46.3346C132.344 46.3346 133.132 46.122 133.572 45.6563C137.471 57.7373 144.342 73.8561 128.176 78.3626C125.364 79.1468 121.944 79.1558 119.904 81.5416C116.771 85.2054 120.887 93.031 122.251 96.4539C124.235 100.301 126.685 106.43 122.882 109.948C118.419 114.075 110.354 110.031 106.704 106.915C103.115 103.851 101.088 99.3587 100.23 94.814C100.23 87.7524 100.23 80.6909 100.23 73.6293C100.23 73.1123 99.7945 72.8835 99.3076 72.8734C95.5229 72.7948 90.2554 72.2848 89.0671 67.9567ZM97.4268 96.1505C99.8388 107.427 110.204 115.283 121.772 112.054C129.754 109.826 128.118 101.388 125.173 95.6728C124.842 94.8402 124.32 93.7023 123.79 92.4282C125.333 91.5917 126.952 90.9053 128.633 90.3549C141.284 102.51 147.945 119.118 153.732 135.355C160.857 155.352 165.6 175.9 167.788 197.02C165.689 198.296 163.569 199.543 161.42 200.726C156.644 203.356 151.718 205.679 146.551 207.358C144.041 208.174 141.473 208.84 138.838 209.312C127.167 211.399 115.298 208.682 104.25 204.991C103.997 204.906 103.561 204.969 103.119 205.105C103.069 205.121 103.02 205.138 102.971 205.154C103.039 204.898 103.111 204.644 103.178 204.387C106.634 191.272 108.711 177.668 108.826 164.119C108.856 164.025 108.865 163.93 108.834 163.831C108.436 162.604 108.068 161.356 107.707 160.1C113.789 158.959 123.535 153.863 124.589 147.155C125.177 143.406 124.642 139.039 120.822 137.297C119.355 136.629 117.671 136.794 116.068 137.283C116.997 134.189 117.919 128.1 114.681 126.418C113.165 125.63 111.294 126.295 110.228 127.533C108.43 129.62 107.33 132.168 106.363 134.812C104.777 121.341 98.5436 107.706 91.0537 96.6898C93.1391 96.3864 95.2659 96.2049 97.4268 96.1505ZM112.935 138.607C112.824 138.666 112.712 138.722 112.605 138.78C111.363 139.437 114.314 139.114 114.834 138.839C121.669 135.216 122.672 145.794 121.074 149.435C119.039 154.066 112.792 158.3 107.949 159.119C107.789 159.145 107.625 159.192 107.464 159.252C106.28 155.085 105.143 150.838 103.43 146.887C103.298 146.581 103.164 146.278 103.025 145.977C103.088 145.967 103.153 145.956 103.215 145.944C103.74 145.839 104.236 145.635 104.436 145.364C106.955 141.944 108.303 137.732 109.827 133.813C110.565 131.916 111.305 129.994 112.414 128.278C112.502 128.205 112.566 128.143 112.614 128.091C113.302 128.797 113.466 130.08 113.687 130.969C114.309 133.459 113.752 135.969 112.931 138.318C112.891 138.434 112.899 138.528 112.935 138.607ZM60.9106 196.186C48.5322 197.161 46.212 185.452 46.6907 175.773C47.3388 162.694 51.2063 149.851 53.3541 136.978C53.4056 136.885 53.4449 136.788 53.4549 136.684C54.0506 130.26 56.4051 123.832 59.4068 118.183C65.5239 106.668 75.8672 99.7841 87.909 97.2471C96.3877 109.517 103.522 125.516 103.809 140.592C103.813 140.818 103.898 140.989 104.027 141.12C103.526 142.285 102.958 143.409 102.279 144.464C101.93 143.794 101.566 143.133 101.17 142.489C100.797 141.881 99.3278 142.376 98.9115 142.64C93.0373 146.374 87.1309 150.059 81.2234 153.74C81.8261 148.842 82.4651 143.937 83.3511 139.085C83.5537 137.971 80.6116 138.472 80.4322 139.457C79.4514 144.828 78.7701 150.261 78.1099 155.682C72.3244 159.284 66.5389 162.89 60.7816 166.538C59.1114 167.597 61.6696 167.945 62.5827 167.367C68.463 163.64 74.3725 159.958 80.282 156.28C80.4432 156.203 80.5874 156.115 80.7043 156.015C86.8134 152.213 92.9184 148.403 98.9982 144.551C102.41 150.595 103.748 157.837 105.842 164.388C99.8499 168.646 94.8526 174.511 89.4481 179.45C81.686 186.548 71.8839 195.323 60.9106 196.186ZM64.3597 235.522C62.233 232.101 61.5466 227.734 61.6806 223.764C61.7643 221.286 65.0018 217.27 66.4643 214.516C69.7612 208.311 73.6589 201.111 73.9189 193.929C73.929 193.654 73.8443 193.441 73.7022 193.279C78.3911 190.707 82.7363 187.338 86.5775 184.18C93.2863 178.664 99.0486 171.689 105.881 166.298C105.609 180.654 103.07 194.901 99.2431 208.717C95.9361 220.661 91.5123 233.104 84.1988 243.264C76.5164 243.838 68.714 242.52 64.3597 235.522ZM33.8285 418.837C24.5123 414.119 15.9247 405.257 9.59389 397.441C5.21948 392.04 3.20161 387.006 4.10069 379.984C5.08745 372.271 10.8447 366.179 16.1757 360.822C18.4939 370.037 23.8087 378.022 31.3521 383.684C32.8599 395.134 36.1206 407.298 33.8285 418.837ZM166.465 275.743C161.923 303.922 146.695 327.552 126.891 347.537C126.449 347.59 126.026 347.795 125.787 348.175C125.74 348.251 125.707 348.328 125.662 348.406C121.878 348.945 118.026 348.534 114.302 347.705C112.623 347.333 94.6843 339.553 97.827 336.969C107.767 328.792 115.863 318.532 122.109 307.32C134.525 285.036 138.299 258.553 135.434 233.424C135.433 233.416 135.433 233.406 135.431 233.399C135.431 233.391 135.43 233.383 135.429 233.376C135.421 233.303 135.366 233.248 135.281 233.209C134.707 232.882 132.749 233.273 132.517 233.983C124.506 258.45 114.03 281.923 101.024 304.077C98.6858 308.062 96.2738 312.008 93.7701 315.904C81.3484 335.233 66.9934 353.22 51.6225 370.281C47.0949 375.306 42.4776 380.248 37.7968 385.123C36.5651 384.402 35.3838 383.629 34.2589 382.797C34.2358 382.641 34.0856 382.547 33.8689 382.502C25.0535 375.825 19.5805 365.87 18.0867 354.689C17.6856 351.689 17.5686 351.933 19.268 349.847C22.8955 345.393 26.4848 340.91 30.0367 336.394C51.6427 308.921 72.2165 279.295 82.6224 245.59C83.2725 245.567 83.9246 245.531 84.5818 245.474C85.4275 245.4 85.9818 244.785 86.0715 244.216C93.9989 233.692 98.5487 220.788 102.138 208.244C102.299 207.679 102.442 207.106 102.599 206.54C112.908 209.928 123.437 212.1 134.256 211.243C134.837 211.197 135.42 211.138 136.004 211.075C136.363 211.035 136.722 211.004 137.082 210.958C148.148 209.533 158.371 204.422 167.868 198.753C167.996 224.361 170.563 250.327 166.465 275.743ZM231.56 48.7678C228.406 65.9953 220.311 81.8752 210.646 96.3843C206.543 102.545 202.725 109.705 195.681 112.616C195.1 112.856 194.505 113.078 193.878 113.257C192.856 113.549 191.818 113.79 190.775 114.011C187.975 114.602 185.123 115.035 182.36 115.843C177.777 117.187 173.203 118.779 168.387 118.953C167.954 118.969 167.377 119.249 166.96 119.576C166.547 119.782 166.268 120.017 166.36 120.181C166.385 120.226 166.409 120.272 166.434 120.319C166.441 120.383 166.467 120.445 166.528 120.492C173.275 132.618 178.67 145.614 183.448 158.613C188.051 171.137 191.742 183.993 194.397 197.068C195.52 202.598 194.166 207.271 191.364 211.002C190.49 212.166 189.475 213.24 188.35 214.216C184.117 217.896 178.329 220.241 172.643 221.1C172.172 221.171 171.677 221.41 171.369 221.654C171.096 213.27 170.79 204.901 170.777 196.594C170.777 196.554 170.76 196.52 170.735 196.489C170.734 196.483 170.735 196.477 170.735 196.471C168.554 175.247 163.752 154.676 156.651 134.572C150.931 118.376 144.199 101.692 131.718 89.481C133.912 88.9751 136.182 88.6606 138.486 88.4731C140.188 88.333 141.909 88.2655 143.634 88.2544C149.804 88.2171 156.019 88.8692 161.552 89.347C171.524 90.2078 180.388 91.7459 190.056 88.3028C192.652 87.3785 193.655 85.3375 194.994 83.12C197.663 78.7043 200.205 74.2099 202.783 69.7397C207.712 61.1905 212.213 51.6585 218.426 43.9428C218.598 43.7291 218.677 43.5386 218.698 43.3673C219.842 43.9257 220.989 44.4639 222.151 44.9618C222.29 45.1221 222.53 45.2057 222.81 45.233C225.246 46.2389 227.745 47.0573 230.4 47.4867C230.637 47.525 231.019 47.4413 231.405 47.2972C231.556 47.2418 231.706 47.1772 231.85 47.1067C231.762 47.6631 231.661 48.2154 231.56 48.7678ZM234.134 39.6621C233.929 39.8516 233.804 40.0734 233.836 40.3193C233.84 40.3536 233.847 40.3868 233.852 40.4221C233.431 41.5702 232.976 42.696 232.463 43.7745C232.373 43.8803 232.315 43.9962 232.299 44.1192C232.219 44.7411 232.114 45.3579 232.022 45.9758C229.549 45.5555 227.219 44.7774 224.948 43.8249C225.034 37.1897 225.986 30.5323 227.305 24.0413C228.594 17.6923 230.659 7.34088 236.547 3.13681C239.337 10.1691 238.549 18.2013 237.396 25.5108C236.669 30.117 235.72 35.0892 234.134 39.6621ZM307.584 118.92C302.797 118.659 298.221 117.149 293.655 115.784C289.137 114.432 284.306 114.068 279.892 112.476C272.073 109.654 267.666 100.237 263.274 93.8202C252.19 77.6308 239.556 59.7673 236.805 39.8577C238.34 35.4984 239.274 30.8337 240.101 26.3847C241.515 18.7718 242.416 9.95947 239.546 2.54313C244.063 3.64178 244.918 10.0986 244.679 16.7015C243.766 21.2614 243.363 25.9674 243.298 30.6039C243.28 31.7953 246.146 31.1844 246.216 30.2299C246.435 27.2707 247.262 22.3772 247.54 17.4192C252.901 22.732 249.577 30.8024 249.005 37.9678C248.212 38.124 247.47 38.6895 247.676 39.4293C251.518 53.2641 262.244 64.7969 271.331 75.5091C275.025 79.8634 280.207 86.678 285.806 88.6727C289.295 89.9155 293.066 90.3166 296.602 91.4899C301.308 93.0532 306.036 94.2989 311.011 94.4814C311.29 94.4925 311.57 94.4139 311.829 94.2899C311.944 94.2334 312.058 94.172 312.163 94.0984C312.048 94.301 311.94 94.5126 311.829 94.7193C308.05 101.697 306.314 111.011 307.584 118.92ZM350.33 183.646C347.66 173.509 345.322 163.402 340.181 154.166C336.885 148.247 332.888 143.304 330.937 136.668C328.867 129.631 329.896 122.346 332.942 115.79C333.614 114.343 330.669 114.482 330.174 115.548C328.442 119.273 327.492 123.022 327.205 126.749C322.122 125.702 317.326 123.716 312.349 122.246C312.065 122.162 311.74 122.191 311.421 122.288C311.431 122.183 311.428 122.074 311.393 121.961C308.636 113.159 310.629 100.639 315.798 93.0058C319.926 94.0238 324.113 94.3997 328.381 94.4269C328.673 94.429 329.456 94.1548 330.031 93.8716C335.358 94.94 340.946 94.4663 346.343 93.4593C346.634 98.1845 345.796 103.213 347.49 107.717C349.117 112.044 354.152 112.733 358.148 112.856C367.563 113.144 380.501 106.637 383.393 97.0738C386.526 97.5787 390.087 97.8479 393.416 97.6604C393.393 97.9688 393.625 98.243 394.287 98.3498C403.065 99.7498 408.376 109.21 412.128 116.353C415.663 123.083 418.254 130.263 421.766 136.999C418.847 145.76 404.228 147.377 395.85 148.342C395.853 148.311 395.853 148.279 395.838 148.247C392.418 140.595 388.13 133.132 387.373 124.634C387.317 124.016 384.376 124.572 384.452 125.415C385.209 133.915 389.499 141.378 392.917 149.028C392.97 149.144 393.084 149.218 393.232 149.26C392.787 149.911 392.969 150.712 394.239 150.56C396.242 150.32 398.585 150.057 401.065 149.693C403.006 151.901 404.645 154.303 406.142 156.797C407.854 165.261 409.77 173.644 414.098 181.188C413.146 181.784 412.164 182.349 411.144 182.869C405.956 185.51 399.98 187.176 393.939 188.079C388.912 188.83 383.842 189.059 379.15 188.865C371.003 188.527 362.406 187.266 354.432 184.945C354.312 184.85 354.114 184.801 353.876 184.79C352.678 184.434 351.495 184.053 350.33 183.646ZM438.361 355.755C440.93 363.464 433.504 373.654 429.358 379.451C426.826 382.993 414.871 399.4 409.43 395.252C403.289 390.57 410.963 376.925 412.62 371.626C415.456 362.565 413.202 355.727 403.647 352.984C404.381 352.297 405.072 351.61 405.719 350.947C409.134 347.447 412.65 343.153 415.484 338.518C422 345.516 433.959 346.199 438.361 355.755ZM489.999 380.536C489.27 381.183 488.523 381.806 487.756 382.404C485.85 383.896 483.822 385.231 481.66 386.38C475.935 380.163 470.275 373.874 464.74 367.479C454.559 355.716 444.819 343.584 435.958 330.82C431.559 324.481 427.37 317.991 423.461 311.311C416.253 298.997 409.293 286.436 403.227 273.487C402.055 270.987 400.92 268.47 399.821 265.94C396.288 257.81 393.148 249.518 390.563 241.027C390.568 240.901 390.535 240.794 390.467 240.704C389.509 237.534 388.615 234.341 387.817 231.114C387.675 230.543 384.748 231.297 384.896 231.897C385.686 235.091 386.567 238.265 387.513 241.423C380.568 254.134 378.115 268.785 370.711 281.264C370.506 281.608 370.654 282.013 370.969 282.223C388.975 294.332 404.656 309.037 417.776 326.317C416.219 333.384 411.39 340.07 407.021 345.633C402.75 351.073 394.153 361.011 386.297 356.997C380.809 352.052 375.373 347.046 369.976 342.005C368.289 340.429 366.59 338.866 364.913 337.279C358.901 331.592 352.954 325.667 347.88 319.136C343.068 312.941 339.041 306.203 336.511 298.586C333.02 288.079 334.325 276.506 335.647 265.732C336.947 255.133 338.565 244.285 341.643 234.048C346.237 218.776 353.672 203.177 354.471 187.03C362.902 189.273 371.821 190.413 380.399 190.61C391.737 190.869 405.131 188.507 415.073 182.589C422.68 192.873 427.985 204.51 431.991 216.627C436.018 228.811 437.776 241.552 441.72 253.761C445.499 265.457 451.114 276.426 458.305 286.384C464.412 294.843 471.994 302.035 479.051 309.673C489.734 321.237 500.137 333.066 510.444 344.965C510.858 345.444 510.176 347.627 509.99 348.421C509.056 352.397 507.274 356.158 505.38 359.751C505.106 360.272 504.823 360.79 504.539 361.309C504.239 361.531 504.048 361.814 504.085 362.135C500.314 368.907 495.748 375.421 489.999 380.536ZM530.837 414.706C524.728 422.302 514.883 415.433 510.601 409.637C503.558 400.099 503.518 387.137 493.537 379.536C493.494 379.503 493.442 379.476 493.39 379.453C496.9 376.018 499.915 372.051 503.063 367.624C503.655 366.792 504.246 365.937 504.832 365.064C506.667 370.116 511.071 374.347 514.738 377.96C519.777 382.926 525.5 387.231 530.247 392.488C530.251 392.495 530.252 392.502 530.256 392.509C534.26 399.277 536.18 408.061 530.837 414.706ZM118.635 46.8668C119.918 46.0645 121.3 45.88 122.782 45.879C123.288 45.878 123.963 46.2409 123.597 46.8235C123.21 47.4373 122.347 47.6429 121.675 47.6429C121.331 47.6429 121.183 47.6339 120.875 47.6792C120.802 47.6903 120.763 47.6943 120.738 47.6953C120.714 47.7064 120.678 47.7205 120.603 47.7467C120.765 47.6903 120.414 47.8808 120.475 47.8425C119.912 48.1953 119.027 48.4231 118.401 48.0935C117.781 47.7639 118.21 47.1329 118.635 46.8668ZM121.926 52.8862C121.946 53.4617 122.242 54.1501 122.501 54.6853C122.818 55.3425 121.771 55.9513 121.308 56.0753C120.631 56.2567 119.901 56.1327 119.579 55.4685C119.218 54.7186 118.995 53.9435 118.966 53.1099C118.942 52.3913 120.025 51.974 120.576 51.9317C121.24 51.8813 121.9 52.1574 121.926 52.8862ZM114.66 72.313C117.38 74.0093 120.885 71.6357 122.481 69.519C122.582 69.385 122.5 69.3124 122.35 69.269C122.616 68.8104 122.49 68.2198 121.891 68.0817C119.339 67.4931 116.783 66.4509 115.669 63.8927C115.477 63.4503 114.992 63.2729 114.47 63.2759C114.475 63.2346 114.477 63.1922 114.483 63.1509C114.53 62.8143 111.687 63.0501 111.562 63.9341C111.148 66.8631 111.98 70.6429 114.66 72.313ZM119.77 69.8819C119.712 69.9343 119.647 69.9776 119.6 70.0381C119.22 70.5421 118.849 70.9583 118.389 71.3776C117.827 71.7687 117.727 71.8373 118.081 71.5833C117.843 71.5329 117.621 71.4452 117.413 71.3212C116.518 70.8706 115.92 69.9655 115.453 69.1169C115.163 68.5907 114.943 68.0263 114.772 67.4457C116.144 68.6602 117.899 69.4051 119.77 69.8819ZM128.898 55.6691C128.236 54.5261 131.068 53.5675 131.6 54.4837C132.548 56.1196 134.021 57.9691 134.232 59.9034C134.466 62.0472 132.592 63.0219 130.663 63.0904C128.655 63.163 129.505 61.3749 131.021 61.3205C131.141 61.3165 131.221 61.3165 131.285 61.3175C131.327 61.0988 131.352 60.9093 131.311 60.6855C131.199 60.0556 130.984 59.4518 130.708 58.8753C130.176 57.7645 129.514 56.7324 128.898 55.6691ZM131.164 51.3088C130.882 50.7231 132.057 50.2202 132.412 50.1244C132.963 49.9773 133.795 49.9239 134.085 50.5266C134.413 51.2059 134.647 51.9266 134.976 52.606C135.259 53.1926 134.082 53.6965 133.728 53.7913C133.176 53.9384 132.348 53.9919 132.055 53.3901C131.726 52.7098 131.492 51.9901 131.164 51.3088ZM346.443 55.148C345.85 56.17 342.31 61.2117 345.028 61.3094C345.54 61.3276 346.216 61.6793 345.848 62.277C345.475 62.8858 344.596 63.1277 343.929 63.1025C338.634 62.912 342.299 57.4259 343.702 55.0058C344.226 54.1007 347.179 53.878 346.443 55.148ZM351.723 46.6985C352.109 46.0857 352.974 45.878 353.645 45.879C354.792 45.88 355.925 45.9949 356.919 46.6158C357.504 46.9817 357.142 47.5492 356.686 47.8415C356.162 48.1761 355.195 48.4553 354.612 48.0925C353.941 47.6732 353.311 47.6439 352.537 47.6429C352.032 47.6409 351.357 47.2811 351.723 46.6985ZM352.884 54.9111C353.159 54.3406 353.372 53.749 353.394 53.1099C353.439 51.7946 356.404 51.3602 356.354 52.8852C356.327 53.6935 356.024 54.519 355.676 55.2417C355.357 55.9089 354.469 56.2184 353.774 56.1357C353.166 56.0632 352.568 55.5713 352.884 54.9111ZM353.216 69.766C352.931 69.9323 352.758 70.0885 352.819 70.1701C354.879 72.9016 357.698 73.5406 360.666 71.6901C363.358 70.0109 364.17 66.0679 363.759 63.1499C363.704 62.7608 362.332 62.9191 361.487 63.293C360.784 63.2819 359.961 63.5833 359.719 64.1377C358.664 66.5617 356.463 67.5152 354.022 68.0777C352.81 68.3579 352.66 69.2902 353.216 69.766ZM360.815 66.8601C360.658 67.859 360.347 68.8336 359.888 69.769C359.71 70.1308 358.899 71.6548 358.427 71.5702C357.403 71.3857 356.545 70.4272 355.921 69.6208C357.758 69.0544 359.49 68.1815 360.815 66.8601ZM340.438 52.9345C340.765 52.2552 341 51.5345 341.329 50.8552C341.776 49.9299 344.709 49.6497 344.065 50.9812C343.737 51.6605 343.503 52.3812 343.174 53.0605C342.727 53.9858 339.794 54.268 340.438 52.9345Z" fill="#212121"/>
</svg>
