<svg width="197" height="163" viewBox="0 0 197 163" fill="none" xmlns="http://www.w3.org/2000/svg">
<path d="M63.9483 47.8569L0.869141 66.3862L11.7199 103.325L74.7991 84.7961L63.9483 47.8569Z" fill="white"/>
<path d="M11.7227 103.713C11.6576 103.712 11.5938 103.694 11.5371 103.662C11.4513 103.609 11.3859 103.529 11.3515 103.434L0.500973 66.4951C0.472162 66.3967 0.483503 66.2908 0.532516 66.2007C0.581529 66.1106 0.664225 66.0435 0.762531 66.0142L63.8407 47.4519C63.9391 47.4231 64.045 47.4344 64.1351 47.4834C64.2252 47.5325 64.2923 47.6152 64.3216 47.7135L75.1721 84.6525C75.1926 84.6975 75.2032 84.7464 75.2032 84.7959C75.2032 84.8454 75.1926 84.8943 75.1721 84.9393C75.1506 84.9855 75.1189 85.0261 75.0795 85.0582C75.04 85.0904 74.9938 85.1132 74.9443 85.125L11.8662 103.687L11.7227 103.713ZM1.35315 66.647L11.9843 102.844L74.3284 84.5343L63.6888 48.3294L1.35315 66.647Z" fill="#212121"/>
<path d="M39.406 81.3114C39.3614 81.3194 39.3157 81.3194 39.271 81.3114L0.737356 66.7484C0.686166 66.7334 0.638606 66.7081 0.597642 66.674C0.556677 66.6398 0.523187 66.5976 0.499262 66.5499C0.475336 66.5023 0.461491 66.4502 0.458585 66.397C0.455679 66.3437 0.463774 66.2904 0.48237 66.2405C0.500967 66.1905 0.529666 66.1449 0.566672 66.1065C0.603678 66.0681 0.648199 66.0377 0.697458 66.0173C0.746717 65.9969 0.799657 65.9868 0.852975 65.9877C0.906293 65.9887 0.958845 66.0006 1.00735 66.0228L39.271 80.4676L63.6467 47.6208C63.7124 47.5517 63.8011 47.5092 63.8961 47.5013C63.991 47.4935 64.0855 47.5208 64.1616 47.5781C64.2377 47.6355 64.2901 47.7188 64.3087 47.8122C64.3273 47.9057 64.3109 48.0027 64.2627 48.0848L39.7182 81.1595C39.6815 81.2073 39.6342 81.2459 39.5801 81.2723C39.5259 81.2986 39.4663 81.312 39.406 81.3114Z" fill="#212121"/>
<path d="M74.7172 84.8468C74.6725 84.8548 74.6268 84.8548 74.5822 84.8468L44.9415 73.6588C44.8944 73.641 44.8513 73.6142 44.8146 73.5798C44.7778 73.5454 44.7483 73.5041 44.7275 73.4583C44.7067 73.4124 44.6952 73.363 44.6936 73.3127C44.6919 73.2624 44.7002 73.2122 44.7179 73.1652C44.7357 73.1181 44.7625 73.0749 44.7969 73.0382C44.8313 73.0015 44.8726 72.9719 44.9184 72.9511C44.9643 72.9304 45.0137 72.9188 45.064 72.9172C45.1143 72.9156 45.1644 72.9238 45.2115 72.9416L74.8943 84.1296C74.9423 84.1455 74.9865 84.1711 75.0242 84.2047C75.0619 84.2384 75.0924 84.2794 75.1137 84.3252C75.135 84.371 75.1468 84.4207 75.1482 84.4712C75.1497 84.5217 75.1408 84.572 75.1222 84.6189C75.0894 84.6964 75.0319 84.7608 74.9586 84.8021C74.8853 84.8433 74.8004 84.859 74.7172 84.8468Z" fill="#212121"/>
<path d="M11.6127 103.409C11.5275 103.412 11.4439 103.385 11.3765 103.333C11.2959 103.273 11.2427 103.183 11.2284 103.083C11.2142 102.983 11.2401 102.882 11.3005 102.801L30.175 77.3457C30.205 77.3052 30.2426 77.2711 30.2857 77.2452C30.3288 77.2193 30.3766 77.2021 30.4263 77.1946C30.4761 77.1872 30.5268 77.1896 30.5756 77.2018C30.6244 77.214 30.6704 77.2356 30.7108 77.2655C30.7513 77.2955 30.7854 77.333 30.8113 77.3762C30.8372 77.4193 30.8544 77.4671 30.8619 77.5168C30.8693 77.5666 30.8669 77.6173 30.8547 77.6661C30.8426 77.7149 30.8209 77.7609 30.791 77.8013L11.9418 103.249C11.9055 103.301 11.8561 103.344 11.7984 103.372C11.7407 103.4 11.6768 103.413 11.6127 103.409Z" fill="#212121"/>
<path d="M76.5893 39.7032L19.4873 7.11963L0.40632 40.5585L57.5083 73.1421L76.5893 39.7032Z" fill="white"/>
<path d="M57.5042 73.5236C57.4362 73.524 57.3693 73.5066 57.3101 73.473L0.214138 40.8877C0.169613 40.8639 0.130268 40.8316 0.0983967 40.7925C0.0665253 40.7533 0.0427657 40.7083 0.0285141 40.6599C-0.00950469 40.5651 -0.00950469 40.4593 0.0285141 40.3646L19.1477 6.92707C19.2005 6.83899 19.2854 6.77482 19.3845 6.74807C19.4837 6.72132 19.5893 6.73407 19.6793 6.78363L76.7753 39.3689C76.8194 39.3935 76.8582 39.4266 76.8894 39.4663C76.9206 39.5061 76.9435 39.5516 76.9569 39.6004C76.9702 39.6491 76.9737 39.7 76.9672 39.7501C76.9606 39.8001 76.9441 39.8484 76.9187 39.8921L57.8417 73.3295C57.7896 73.4194 57.7051 73.4859 57.6054 73.5152L57.5042 73.5236ZM0.973507 40.4067L57.403 72.6124L76.1003 39.8499L19.6286 7.64425L0.973507 40.4067Z" fill="#212121"/>
<path d="M35.7358 45.3513C35.6604 45.3497 35.587 45.3266 35.5242 45.2848C35.4614 45.2429 35.4119 45.184 35.3814 45.115L19.131 7.2732C19.0914 7.17914 19.0904 7.07328 19.1283 6.97853C19.1662 6.88378 19.2399 6.80777 19.3335 6.76695C19.3799 6.7462 19.43 6.73498 19.4809 6.73396C19.5317 6.73295 19.5822 6.74215 19.6294 6.76104C19.6767 6.77993 19.7196 6.80811 19.7557 6.84391C19.7918 6.87971 19.8204 6.9224 19.8397 6.96945L35.9805 44.5413L76.5813 39.327C76.6314 39.3186 76.6827 39.3206 76.7319 39.3329C76.7812 39.3452 76.8274 39.3674 76.8678 39.3983C76.9081 39.4291 76.9417 39.4679 76.9664 39.5122C76.9912 39.5566 77.0066 39.6055 77.0116 39.656C77.0187 39.7059 77.0158 39.7568 77.0031 39.8056C76.9903 39.8544 76.968 39.9001 76.9373 39.9402C76.9067 39.9802 76.8684 40.0138 76.8247 40.0389C76.7809 40.064 76.7326 40.0801 76.6826 40.0863L35.8286 45.3428L35.7358 45.3513Z" fill="#212121"/>
<path d="M57.6644 73.2537C57.5887 73.2531 57.5149 73.2305 57.4519 73.1885C57.389 73.1465 57.3396 73.0871 57.31 73.0174L44.8058 43.8999C44.7662 43.8058 44.7653 43.7 44.8032 43.6052C44.8411 43.5105 44.9147 43.4345 45.0083 43.3937C45.1023 43.3541 45.2082 43.3531 45.3029 43.391C45.3977 43.4289 45.4737 43.5026 45.5145 43.5962L58.0188 72.7137C58.0583 72.8077 58.0593 72.9136 58.0214 73.0083C57.9835 73.1031 57.9098 73.1791 57.8163 73.2199C57.7691 73.2432 57.717 73.2547 57.6644 73.2537Z" fill="#212121"/>
<path d="M0.560637 40.6682C0.466768 40.662 0.378357 40.6219 0.311851 40.5553C0.245345 40.4888 0.205273 40.4004 0.199084 40.3065C0.192894 40.2126 0.22101 40.1197 0.278204 40.045C0.335397 39.9703 0.41777 39.9189 0.510009 39.9004L31.9394 35.8505C31.9893 35.8434 32.0401 35.8463 32.0889 35.859C32.1377 35.8718 32.1835 35.8941 32.2235 35.9248C32.2636 35.9554 32.2972 35.9937 32.3223 36.0374C32.3473 36.0812 32.3635 36.1295 32.3697 36.1795C32.3819 36.281 32.3545 36.3832 32.2932 36.465C32.2319 36.5467 32.1414 36.6016 32.0406 36.6183L0.64501 40.6598L0.560637 40.6682Z" fill="#212121"/>
<path d="M173.89 28.4341H87.1787V96.2878H196.612V49.4095C196.612 37.8418 186.436 28.4341 173.89 28.4341Z" fill="#212121"/>
<path d="M196.612 96.6591H87.1707C87.0692 96.6569 86.9727 96.615 86.9017 96.5425C86.8307 96.4699 86.791 96.3724 86.791 96.271V28.4341C86.791 28.3334 86.831 28.2369 86.9022 28.1656C86.9734 28.0944 87.07 28.0544 87.1707 28.0544H173.89C186.631 28.0544 197.001 37.6478 197.001 49.4349V96.2878C196.994 96.3871 196.951 96.4804 196.879 96.5492C196.807 96.6179 196.712 96.6572 196.612 96.6591ZM87.5504 95.8997H196.224V49.4095C196.224 38.0443 186.209 28.7969 173.89 28.7969H87.5504V95.8997Z" fill="#212121"/>
<path d="M64.4567 96.2878H109.892V136.551C109.892 142.043 107.711 147.309 103.828 151.192C99.9447 155.075 94.6782 157.257 89.1868 157.257H85.1537C79.6622 157.257 74.3957 155.075 70.5127 151.192C66.6297 147.309 64.4482 142.043 64.4482 136.551V96.2878H64.4567Z" fill="white"/>
<path d="M89.1866 157.645H85.1619C79.5675 157.645 74.2023 155.422 70.2465 151.467C66.2907 147.511 64.0684 142.145 64.0684 136.551V96.2878C64.0705 96.1855 64.1121 96.088 64.1844 96.0157C64.2567 95.9434 64.3542 95.9018 64.4565 95.8997H109.892C109.994 95.9018 110.092 95.9434 110.164 96.0157C110.236 96.088 110.278 96.1855 110.28 96.2878V136.551C110.28 142.145 108.058 147.511 104.102 151.467C100.146 155.422 94.7809 157.645 89.1866 157.645ZM64.8446 96.659V136.534C64.8491 141.921 66.9911 147.087 70.8003 150.896C74.6096 154.705 79.7748 156.847 85.1619 156.852H89.1866C94.5678 156.843 99.7261 154.701 103.531 150.896C107.336 147.091 109.478 141.932 109.487 136.551V96.659H64.8446Z" fill="#212121"/>
<path d="M98.4002 133.185H75.9482C75.8364 133.185 75.7291 133.14 75.6499 133.061C75.5708 132.982 75.5264 132.875 75.5264 132.763C75.5264 132.651 75.5708 132.544 75.6499 132.464C75.7291 132.385 75.8364 132.341 75.9482 132.341H98.4002C98.5121 132.341 98.6194 132.385 98.6985 132.464C98.7776 132.544 98.8221 132.651 98.8221 132.763C98.8221 132.875 98.7776 132.982 98.6985 133.061C98.6194 133.14 98.5121 133.185 98.4002 133.185Z" fill="#D1D3D4"/>
<path d="M134.285 62.5719C136.685 62.5719 138.63 60.6264 138.63 58.2266C138.63 55.8268 136.685 53.8813 134.285 53.8813C131.885 53.8813 129.939 55.8268 129.939 58.2266C129.939 60.6264 131.885 62.5719 134.285 62.5719Z" fill="white"/>
<path d="M134.285 62.9516C133.348 62.9533 132.432 62.6769 131.652 62.1574C130.872 61.638 130.264 60.8988 129.905 60.0335C129.546 59.1683 129.451 58.2159 129.634 57.2969C129.816 56.3779 130.267 55.5337 130.929 54.8712C131.592 54.2088 132.436 53.7578 133.355 53.5754C134.274 53.393 135.226 53.4875 136.092 53.8468C136.957 54.2061 137.696 54.8141 138.216 55.5938C138.735 56.3735 139.011 57.2898 139.01 58.2267C139.008 59.4791 138.509 60.6796 137.623 61.5653C136.738 62.4509 135.537 62.9494 134.285 62.9516ZM134.285 54.2695C133.502 54.2695 132.737 54.5016 132.086 54.9364C131.436 55.3713 130.928 55.9893 130.629 56.7123C130.329 57.4354 130.251 58.2311 130.404 58.9987C130.556 59.7663 130.933 60.4714 131.487 61.0248C132.04 61.5782 132.745 61.9551 133.513 62.1078C134.28 62.2605 135.076 62.1821 135.799 61.8826C136.522 61.5831 137.14 61.0759 137.575 60.4252C138.01 59.7744 138.242 59.0093 138.242 58.2267C138.242 57.707 138.14 57.1925 137.941 56.7123C137.742 56.2322 137.45 55.796 137.083 55.4286C136.715 55.0611 136.279 54.7696 135.799 54.5708C135.319 54.3719 134.804 54.2695 134.285 54.2695Z" fill="#212121"/>
<path d="M134.285 54.2695C134.182 54.2674 134.085 54.2258 134.013 54.1535C133.94 54.0811 133.899 53.9837 133.896 53.8814V0.421917C133.899 0.320451 133.941 0.223887 134.013 0.152915C134.086 0.0819431 134.183 0.0422124 134.285 0.0422363C134.385 0.0422363 134.482 0.0822383 134.553 0.153443C134.624 0.224647 134.664 0.321219 134.664 0.421917V53.8814C134.664 53.9829 134.625 54.0803 134.554 54.1529C134.483 54.2254 134.386 54.2673 134.285 54.2695Z" fill="#212121"/>
<path d="M150.257 4.4634L134.285 11.6521V0.421875H150.257V4.4634Z" fill="white"/>
<path d="M134.284 12.0739C134.203 12.0737 134.124 12.0503 134.056 12.0064C133.996 11.9695 133.946 11.9174 133.912 11.8552C133.878 11.793 133.861 11.723 133.862 11.6521V0.421871C133.862 0.309984 133.907 0.202679 133.986 0.123563C134.065 0.0444467 134.172 0 134.284 0H150.256C150.368 0.00216004 150.474 0.0473015 150.552 0.125954C150.631 0.204607 150.676 0.31066 150.678 0.421871V4.45496C150.677 4.53706 150.653 4.61723 150.608 4.686C150.563 4.75477 150.5 4.80927 150.425 4.84308L134.453 12.0318C134.401 12.0584 134.343 12.0728 134.284 12.0739ZM134.706 0.843742V10.9686L149.834 4.15965V0.78468L134.706 0.843742Z" fill="#212121"/>
<path d="M143.372 96.2878H125.062V100.658H143.372V96.2878Z" fill="white"/>
<path d="M143.372 101.038H125.063C124.961 101.038 124.864 100.998 124.791 100.927C124.719 100.856 124.677 100.76 124.675 100.658V96.2878C124.677 96.1855 124.719 96.088 124.791 96.0157C124.863 95.9434 124.961 95.9018 125.063 95.8997H143.372C143.474 95.9018 143.572 95.9434 143.644 96.0157C143.716 96.088 143.758 96.1855 143.76 96.2878V100.658C143.758 100.76 143.716 100.856 143.644 100.927C143.571 100.998 143.474 101.038 143.372 101.038ZM125.451 100.27H142.984V96.659H125.451V100.27Z" fill="#212121"/>
<path d="M128.007 161.821V100.658H139.026V161.821" fill="white"/>
<path d="M139.018 162.209C138.917 162.207 138.82 162.165 138.749 162.093C138.678 162.02 138.639 161.923 138.639 161.821V101.072H128.387V161.821C128.395 161.876 128.392 161.933 128.376 161.986C128.361 162.04 128.334 162.09 128.297 162.132C128.261 162.174 128.216 162.208 128.165 162.231C128.114 162.254 128.059 162.267 128.003 162.267C127.948 162.267 127.892 162.254 127.842 162.231C127.791 162.208 127.746 162.174 127.709 162.132C127.673 162.09 127.646 162.04 127.631 161.986C127.615 161.933 127.611 161.876 127.619 161.821V100.658C127.618 100.607 127.628 100.556 127.647 100.509C127.666 100.461 127.694 100.418 127.731 100.381C127.767 100.345 127.81 100.317 127.858 100.298C127.905 100.278 127.956 100.269 128.008 100.27H139.018C139.07 100.269 139.121 100.278 139.168 100.298C139.216 100.317 139.259 100.345 139.295 100.381C139.332 100.418 139.36 100.461 139.379 100.509C139.398 100.556 139.408 100.607 139.407 100.658V161.821C139.407 161.924 139.366 162.023 139.293 162.096C139.22 162.169 139.121 162.209 139.018 162.209Z" fill="#212121"/>
<path d="M102.147 52.9699L102.071 53.2653L99.9277 61.5592L97.8099 69.7351L97.1265 72.3591L95.4475 78.8475L92.5872 89.9174L92.5787 89.9511L92.5028 90.238L52.6107 79.9191L50.0457 79.2609L40.2161 76.7213L28.8594 73.7766L28.9353 73.4644L38.4949 36.5085L49.067 39.2423L59.6222 41.9676L71.7468 45.1147L96.5696 51.5271L102.079 52.9531L102.147 52.9699Z" fill="white"/>
<path d="M92.5024 90.6263H92.4096L28.7577 74.1648C28.6594 74.1371 28.5755 74.0725 28.5237 73.9845C28.4718 73.8965 28.4559 73.7918 28.4793 73.6924L28.5637 73.3802L38.1148 36.4158C38.1454 36.3193 38.2079 36.236 38.292 36.1796C38.3385 36.1589 38.3888 36.1482 38.4397 36.1482C38.4905 36.1482 38.5408 36.1589 38.5873 36.1796L102.172 52.6241C102.281 52.6525 102.376 52.7182 102.442 52.8097C102.509 52.8959 102.539 53.0051 102.526 53.1135L95.8183 78.9404L92.8736 90.3309C92.8545 90.415 92.8073 90.49 92.7398 90.5437C92.6723 90.5974 92.5886 90.6265 92.5024 90.6263ZM29.3315 73.5067L92.2324 89.7741L101.691 53.2485L38.7645 36.9727L29.3315 73.5067Z" fill="#212121"/>
<path d="M64.1106 69.1447C64.0525 69.1451 63.995 69.1324 63.9424 69.1076C63.8899 69.0827 63.8435 69.0464 63.8069 69.0013L38.1909 36.7535C38.1343 36.6724 38.1108 36.5728 38.1252 36.475C38.1396 36.3771 38.1908 36.2885 38.2683 36.2271C38.3458 36.1658 38.4438 36.1363 38.5424 36.1447C38.6409 36.1532 38.7324 36.1989 38.7984 36.2726L64.2288 68.3347L102.003 52.6496C102.097 52.6152 102.201 52.6186 102.293 52.659C102.384 52.6994 102.457 52.7737 102.495 52.8664C102.533 52.9591 102.534 53.0629 102.497 53.1561C102.461 53.2494 102.389 53.3249 102.298 53.3668L64.2541 69.1616C64.2056 69.1648 64.157 69.1591 64.1106 69.1447Z" fill="#212121"/>
<path d="M92.6129 90.3141C92.5562 90.3133 92.5004 90.3 92.4493 90.2752C92.3983 90.2504 92.3534 90.2147 92.3176 90.1707L72.5825 65.3563C72.5259 65.2752 72.5024 65.1755 72.5168 65.0777C72.5312 64.9799 72.5824 64.8913 72.6599 64.8299C72.7374 64.7685 72.8355 64.7391 72.934 64.7475C73.0325 64.756 73.124 64.8017 73.19 64.8753L92.8914 89.6898C92.9237 89.7296 92.9479 89.7754 92.9625 89.8245C92.977 89.8737 92.9817 89.9253 92.9762 89.9763C92.9707 90.0273 92.9552 90.0767 92.9305 90.1217C92.9058 90.1666 92.8724 90.2062 92.8323 90.2382C92.7673 90.2828 92.6915 90.309 92.6129 90.3141Z" fill="#212121"/>
<path d="M28.9348 73.878C28.8455 73.8797 28.7585 73.8499 28.689 73.7938C28.6195 73.7377 28.572 73.6589 28.5549 73.5712C28.5378 73.4836 28.5521 73.3927 28.5954 73.3145C28.6386 73.2364 28.708 73.176 28.7914 73.144L58.0186 60.9603C58.0661 60.9385 58.1176 60.9264 58.1698 60.925C58.2221 60.9235 58.2742 60.9326 58.3228 60.9517C58.3715 60.9708 58.4158 60.9996 58.4531 61.0363C58.4904 61.073 58.5198 61.1168 58.5398 61.1651C58.5597 61.2135 58.5696 61.2654 58.569 61.3177C58.5683 61.37 58.5571 61.4216 58.536 61.4695C58.5149 61.5173 58.4844 61.5604 58.4462 61.5962C58.4081 61.6319 58.3631 61.6596 58.3139 61.6775L29.053 73.8274C29.016 73.8495 28.9763 73.8665 28.9348 73.878Z" fill="#212121"/>
<path d="M109.892 50.2533V71.9544L108.601 71.7097L98.9321 69.7944L89.1025 67.8369L79.8719 66.0313L69.6036 63.9979L67.5533 63.5929L67.0133 63.4832L64.4821 62.9685L54.3572 60.9604L51.2354 60.3445L53.1169 50.8102L54.5597 43.5456L58.7193 22.5786L88.2503 28.4342L96.2405 30.0035C99.023 31.129 101.544 32.8157 103.646 34.9583C105.748 37.1009 107.386 39.6536 108.458 42.4572C108.779 43.282 109.044 44.1277 109.251 44.9884H109.327V45.2921C109.708 46.9182 109.898 48.5832 109.892 50.2533Z" fill="white"/>
<path d="M109.892 72.3678H109.824L108.533 72.1231L51.1081 60.7326C51.0078 60.7102 50.92 60.6497 50.8634 60.5638C50.8332 60.5232 50.8122 60.4765 50.802 60.4269C50.7918 60.3774 50.7926 60.3262 50.8044 60.2769L58.2884 22.5111C58.3087 22.4105 58.3681 22.3221 58.4535 22.2651C58.5388 22.2082 58.6433 22.1874 58.744 22.2073L96.3158 29.6575C99.1583 30.7938 101.736 32.5043 103.887 34.6819C106.039 36.8596 107.718 39.4576 108.82 42.3137C109.123 43.1052 109.379 43.9138 109.588 44.7352C109.659 44.801 109.701 44.8918 109.706 44.9883V45.2415C110.095 46.8808 110.29 48.56 110.288 50.2448V71.9459C110.289 72.0029 110.277 72.0594 110.252 72.1107C110.227 72.162 110.19 72.2067 110.145 72.2412C110.08 72.3151 109.989 72.3606 109.892 72.3678ZM51.6734 60.0407L109.487 71.5156V50.2533C109.487 48.6108 109.295 46.974 108.913 45.3765C108.909 45.3428 108.909 45.3088 108.913 45.2752V45.1908C108.888 45.1542 108.868 45.1145 108.854 45.0727C108.653 44.2325 108.397 43.4066 108.086 42.6005C107.034 39.8451 105.425 37.3364 103.359 35.2313C101.293 33.1262 98.8147 31.47 96.0795 30.3663L58.9549 23.0089L51.6734 60.0407Z" fill="#212121"/>
<path d="M86.0893 53.7043C86.034 53.7049 85.9791 53.694 85.9283 53.6722C85.8774 53.6504 85.8317 53.6182 85.794 53.5777L58.3809 22.8317C58.3476 22.7941 58.3221 22.7502 58.3058 22.7027C58.2895 22.6552 58.2828 22.6049 58.2859 22.5548C58.289 22.5046 58.302 22.4556 58.3241 22.4105C58.3462 22.3653 58.3769 22.325 58.4146 22.2918C58.4523 22.2585 58.4961 22.233 58.5437 22.2167C58.5912 22.2004 58.6414 22.1937 58.6916 22.1968C58.7417 22.1999 58.7908 22.2129 58.8359 22.235C58.881 22.2571 58.9214 22.2878 58.9546 22.3255L86.1821 52.8436L108.288 42.1366C108.382 42.0944 108.488 42.0893 108.585 42.1221C108.682 42.155 108.763 42.2235 108.811 42.3137C108.855 42.4079 108.86 42.5154 108.825 42.6132C108.791 42.711 108.719 42.7913 108.626 42.8369L86.2496 53.6283C86.203 53.6659 86.148 53.6919 86.0893 53.7043Z" fill="#212121"/>
<path d="M109.892 66.6641C109.837 66.6625 109.783 66.6497 109.734 66.6265C109.685 66.6033 109.641 66.5701 109.605 66.5291L94.3498 49.4095C94.2952 49.3318 94.271 49.2368 94.2818 49.1425C94.2926 49.0481 94.3376 48.961 94.4083 48.8976C94.4789 48.8341 94.5704 48.7988 94.6654 48.7983C94.7604 48.7978 94.8522 48.8322 94.9236 48.8949L110.178 65.9975C110.214 66.0328 110.242 66.0749 110.262 66.1212C110.281 66.1676 110.291 66.2173 110.291 66.2675C110.291 66.3177 110.281 66.3674 110.262 66.4138C110.242 66.4601 110.214 66.5022 110.178 66.5375C110.142 66.577 110.097 66.6086 110.048 66.6303C109.999 66.6521 109.945 66.6636 109.892 66.6641Z" fill="#212121"/>
<path d="M51.2696 60.4203C51.197 60.4207 51.1258 60.4002 51.0645 60.3613C51.0032 60.3224 50.9543 60.2668 50.9236 60.201C50.8797 60.1091 50.8737 60.0036 50.9069 59.9074C50.94 59.8111 51.0097 59.7317 51.1008 59.6863L79.6193 45.8827C79.6654 45.8523 79.7174 45.8321 79.7719 45.8234C79.8264 45.8148 79.8821 45.8178 79.9353 45.8324C79.9886 45.8469 80.0381 45.8727 80.0806 45.9079C80.1231 45.9431 80.1575 45.987 80.1817 46.0366C80.2059 46.0862 80.2193 46.1403 80.2209 46.1955C80.2224 46.2507 80.2123 46.3055 80.191 46.3564C80.1697 46.4074 80.1378 46.4531 80.0974 46.4908C80.057 46.5284 80.0091 46.5569 79.9568 46.5745L51.413 60.3782C51.3693 60.4036 51.3201 60.4181 51.2696 60.4203Z" fill="#212121"/>
<path d="M109.901 53.8813H54.3066V92.3813H109.901V53.8813Z" fill="white"/>
<path d="M109.892 92.7694H54.3061C54.2038 92.7673 54.1064 92.7257 54.034 92.6534C53.9617 92.581 53.9201 92.4836 53.918 92.3813V53.8814C53.918 53.7785 53.9589 53.6797 54.0317 53.6069C54.1044 53.5342 54.2032 53.4933 54.3061 53.4933H109.892C109.943 53.4921 109.994 53.5014 110.042 53.5205C110.089 53.5396 110.133 53.5681 110.169 53.6044C110.205 53.6406 110.234 53.6839 110.253 53.7315C110.272 53.7791 110.281 53.8301 110.28 53.8814V92.3813C110.28 92.4323 110.27 92.4828 110.25 92.5298C110.231 92.5769 110.202 92.6197 110.166 92.6558C110.13 92.6918 110.087 92.7204 110.04 92.7399C109.993 92.7594 109.943 92.7694 109.892 92.7694ZM54.6858 91.9932H109.529V54.2611H54.6858V91.9932Z" fill="#212121"/>
<path d="M87.1707 79.0755C87.0859 79.0761 87.0031 79.0495 86.9345 78.9996L54.0286 54.1936C53.9756 54.1516 53.9349 54.0963 53.9104 54.0333C53.8836 53.9871 53.8691 53.9348 53.8683 53.8814C53.8671 53.8301 53.8764 53.7791 53.8955 53.7315C53.9145 53.6839 53.9431 53.6406 53.9794 53.6044C54.0156 53.5681 54.0589 53.5396 54.1065 53.5205C54.1541 53.5014 54.2051 53.4921 54.2564 53.4933C54.3103 53.4937 54.3635 53.5052 54.4129 53.527C54.4622 53.5487 54.5066 53.5803 54.5433 53.6198L87.1201 78.2065L109.665 61.2219C109.705 61.1843 109.752 61.1554 109.803 61.1372C109.855 61.119 109.91 61.112 109.964 61.1165C110.019 61.121 110.072 61.137 110.12 61.1634C110.168 61.1898 110.209 61.226 110.242 61.2697C110.275 61.3134 110.298 61.3636 110.311 61.4169C110.323 61.4702 110.324 61.5255 110.313 61.5792C110.302 61.6328 110.28 61.6836 110.249 61.7282C110.217 61.7728 110.176 61.8101 110.129 61.8379L87.3986 78.9911C87.3336 79.0429 87.2537 79.0725 87.1707 79.0755Z" fill="#212121"/>
<path d="M109.892 84.7792C109.81 84.7786 109.73 84.752 109.664 84.7033L94.4768 73.279C94.3957 73.217 94.3422 73.1256 94.328 73.0246C94.3138 72.9235 94.34 72.8209 94.4008 72.739C94.4308 72.6979 94.4687 72.6632 94.5124 72.6371C94.556 72.6109 94.6044 72.5938 94.6548 72.5867C94.7051 72.5796 94.7564 72.5827 94.8056 72.5958C94.8547 72.609 94.9007 72.6318 94.9408 72.6631L110.086 84.0873C110.149 84.1372 110.194 84.2052 110.217 84.282C110.239 84.3588 110.238 84.4408 110.212 84.5165C110.186 84.5923 110.137 84.6582 110.072 84.7052C110.008 84.7523 109.93 84.7781 109.85 84.7792H109.892Z" fill="#212121"/>
<path d="M54.2975 92.4403C54.2181 92.4376 54.1415 92.4105 54.078 92.3629C54.0145 92.3152 53.9672 92.2493 53.9423 92.1738C53.9175 92.0984 53.9164 92.0172 53.9392 91.9412C53.9619 91.8651 54.0075 91.7978 54.0697 91.7485L79.3819 72.6546C79.464 72.6063 79.5611 72.5899 79.6545 72.6086C79.7479 72.6272 79.8313 72.6796 79.8886 72.7556C79.9459 72.8317 79.9733 72.9263 79.9654 73.0212C79.9575 73.1162 79.915 73.2049 79.846 73.2705L54.5337 92.3644C54.4646 92.4133 54.3821 92.4398 54.2975 92.4403Z" fill="#212121"/>
<path d="M85.7676 57.2768L26.4971 85.7253L43.1566 120.434L102.427 91.9856L85.7676 57.2768Z" fill="white"/>
<path d="M43.1432 120.832C43.0708 120.832 43.0001 120.811 42.9389 120.772C42.8778 120.733 42.8287 120.678 42.7973 120.613L26.1418 85.9015C26.1038 85.8067 26.1038 85.7009 26.1418 85.6062C26.1775 85.5118 26.2466 85.4338 26.3359 85.3868L85.6087 56.9443C85.7016 56.901 85.8079 56.8962 85.9043 56.931C86.0007 56.9658 86.0795 57.0373 86.1234 57.1299L102.737 91.833C102.775 91.9278 102.775 92.0335 102.737 92.1283C102.72 92.1759 102.695 92.2198 102.662 92.2575C102.628 92.2951 102.588 92.3258 102.543 92.3477L43.3119 120.79C43.2593 120.816 43.2018 120.83 43.1432 120.832ZM27.0024 85.9184L43.3204 119.93L101.893 91.8161L85.5834 57.8471L27.0024 85.9184Z" fill="#212121"/>
<path d="M66.8615 94.2713H66.7856L26.4125 86.1208C26.3631 86.1117 26.3159 86.0928 26.2738 86.0654C26.2317 86.0379 26.1954 86.0023 26.1672 85.9607C26.1389 85.9191 26.1192 85.8723 26.1092 85.823C26.0992 85.7737 26.099 85.7229 26.1088 85.6736C26.1178 85.6232 26.1369 85.5753 26.165 85.5325C26.193 85.4897 26.2294 85.453 26.2719 85.4247C26.3145 85.3963 26.3623 85.3768 26.4126 85.3674C26.4628 85.358 26.5145 85.3588 26.5644 85.3698L66.6506 93.4613L85.4238 57.1214C85.4776 57.0439 85.5578 56.9887 85.6493 56.966C85.7409 56.9433 85.8376 56.9547 85.9213 56.9982C86.005 57.0416 86.0701 57.114 86.1043 57.2019C86.1385 57.2898 86.1396 57.3871 86.1073 57.4757L67.2075 94.0688C67.1744 94.1315 67.1245 94.1837 67.0634 94.2194C67.0023 94.2552 66.9323 94.2732 66.8615 94.2713Z" fill="#212121"/>
<path d="M102.282 92.103H102.206L71.148 85.834C71.0474 85.8136 70.959 85.7542 70.9021 85.6689C70.8452 85.5835 70.8244 85.479 70.8443 85.3784C70.8533 85.328 70.8724 85.28 70.9004 85.2373C70.9285 85.1945 70.9648 85.1578 71.0074 85.1294C71.0499 85.1011 71.0978 85.0816 71.148 85.0722C71.1983 85.0627 71.25 85.0636 71.2999 85.0746L102.358 91.3436C102.452 91.3634 102.534 91.417 102.591 91.4941C102.647 91.5712 102.673 91.6664 102.664 91.7615C102.654 91.8566 102.61 91.9449 102.54 92.0095C102.469 92.074 102.378 92.1103 102.282 92.1114V92.103Z" fill="#212121"/>
<path d="M43.009 120.545C42.9477 120.543 42.8874 120.529 42.8318 120.503C42.7863 120.48 42.7459 120.448 42.7128 120.409C42.6797 120.37 42.6545 120.325 42.6389 120.277C42.6232 120.228 42.6173 120.177 42.6214 120.126C42.6256 120.075 42.6397 120.026 42.663 119.98L57.1754 91.8329C57.2239 91.7426 57.3055 91.6746 57.403 91.6432C57.5005 91.6117 57.6064 91.6192 57.6985 91.6641C57.7888 91.7126 57.8568 91.7942 57.8882 91.8917C57.9197 91.9892 57.9122 92.0951 57.8673 92.1873L43.3212 120.334C43.292 120.394 43.2478 120.444 43.1931 120.481C43.1383 120.518 43.0749 120.54 43.009 120.545Z" fill="#212121"/>
<path d="M128.007 110.21L139.026 118.318V100.658H128.007V110.21Z" fill="#212121"/>
<path d="M139.018 118.74C138.931 118.74 138.845 118.714 138.774 118.664L127.746 110.556C127.694 110.516 127.652 110.465 127.623 110.406C127.593 110.348 127.578 110.283 127.577 110.218V100.658C127.577 100.547 127.622 100.439 127.701 100.36C127.78 100.281 127.887 100.237 127.999 100.237H139.018C139.13 100.237 139.237 100.281 139.317 100.36C139.396 100.439 139.44 100.547 139.44 100.658V118.318C139.442 118.396 139.422 118.474 139.381 118.541C139.341 118.608 139.282 118.662 139.212 118.698C139.152 118.728 139.086 118.743 139.018 118.74ZM128.421 109.999L138.596 117.491V101.08H128.429L128.421 109.999Z" fill="#212121"/>
</svg>
