<svg width="52" height="66" viewBox="0 0 52 66" fill="none" xmlns="http://www.w3.org/2000/svg">
<path d="M14.0969 63.7616C10.3057 63.8572 6.51378 63.6685 4.42316 61.6304C2.96691 60.211 2.25879 57.8716 2.25879 54.4797C2.25879 43.2416 10.0563 26.3866 19.93 21.271C20.0001 21.365 20.0752 21.4551 20.155 21.541C21.2063 22.6616 23.1732 23.2285 26 23.2285C28.8269 23.2285 30.7938 22.6597 31.845 21.541C32.2841 21.0969 32.5548 20.5137 32.6106 19.8916L36.3119 2.45411C36.3619 2.21879 36.3328 1.97356 36.2293 1.7564C36.1258 1.53924 35.9536 1.36226 35.7394 1.25286C33.0649 0.0168491 30.0508 -0.277881 27.1875 0.416606C27.1719 0.416606 27.1563 0.424106 27.1406 0.427856C26.3919 0.626779 25.6656 0.902186 24.9731 1.24973C23.7755 1.83344 22.4611 2.13815 21.1288 2.14096C19.7964 2.14378 18.4808 1.84462 17.2807 1.26598C17.097 1.16614 16.8887 1.121 16.6802 1.1359C16.4717 1.1508 16.2719 1.22512 16.1043 1.35005C15.9368 1.47499 15.8086 1.64532 15.7348 1.84087C15.661 2.03642 15.6449 2.24902 15.6882 2.45348L19.2375 19.1754C8.38066 24.541 0.0712891 42.2647 0.0712891 54.4797C0.0712891 58.4929 0.995664 61.3441 2.89629 63.1966C5.16254 65.4054 8.45878 65.9685 12.6813 65.9685C13.16 65.9685 13.6504 65.9618 14.1525 65.9485C14.2962 65.9448 14.4377 65.9129 14.569 65.8546C14.7003 65.7962 14.8188 65.7126 14.9178 65.6085C15.0168 65.5043 15.0943 65.3817 15.1459 65.2476C15.1974 65.1135 15.2221 64.9706 15.2185 64.8269C15.2148 64.6833 15.1829 64.5418 15.1246 64.4105C15.0662 64.2792 14.9826 64.1606 14.8785 64.0617C14.7743 63.9627 14.6517 63.8852 14.5176 63.8336C14.3835 63.782 14.2405 63.7573 14.0969 63.761V63.7616ZM25.9563 3.20286C26.0707 3.14473 26.1857 3.09723 26.3 3.04536V9.31786C26.3 9.60794 26.4153 9.88614 26.6204 10.0913C26.8255 10.2964 27.1037 10.4116 27.3938 10.4116C27.6839 10.4116 27.9621 10.2964 28.1672 10.0913C28.3723 9.88614 28.4875 9.60794 28.4875 9.31786V2.37473C30.3337 2.0838 32.2234 2.2622 33.9825 2.89348L30.4506 19.531C30.42 19.6747 30.3963 19.6716 30.4194 19.7854C30.3238 20.1097 29.5594 20.8372 27.0938 21.0066V16.6247C27.0938 16.3347 26.9785 16.0565 26.7734 15.8513C26.5683 15.6462 26.2901 15.531 26 15.531C25.7099 15.531 25.4317 15.6462 25.2266 15.8513C25.0215 16.0565 24.9063 16.3347 24.9063 16.6247V21.0079C22.4757 20.841 21.6994 20.1329 21.5863 19.8016C21.5863 19.786 21.5863 19.771 21.5863 19.7554C21.5933 19.7077 21.5879 19.6591 21.5707 19.6141C21.5639 19.5757 21.5549 19.5377 21.5438 19.5004L18.24 3.94036C20.8147 4.65824 23.5642 4.39545 25.9563 3.20286Z" fill="#212121"/>
<path d="M19.5921 63.5024L19.0208 63.5331C18.7307 63.5409 18.4556 63.6636 18.256 63.8742C18.0564 64.0848 17.9487 64.3661 17.9564 64.6562C17.9642 64.9463 18.0869 65.2214 18.2976 65.421C18.5082 65.6206 18.7895 65.7283 19.0796 65.7206H19.1421L19.7127 65.6899C19.8561 65.6821 19.9966 65.6462 20.1261 65.5841C20.2557 65.522 20.3717 65.435 20.4676 65.3281C20.5635 65.2211 20.6374 65.0963 20.6851 64.9609C20.7328 64.8254 20.7533 64.6818 20.7455 64.5384C20.7377 64.3949 20.7017 64.2545 20.6397 64.1249C20.5776 63.9954 20.4906 63.8794 20.3836 63.7835C20.2767 63.6876 20.1519 63.6137 20.0164 63.566C19.8809 63.5183 19.7374 63.4978 19.594 63.5056L19.5921 63.5024Z" fill="#212121"/>
<path d="M35.9759 21.1456C35.743 20.9727 35.4509 20.8995 35.1639 20.942C34.8769 20.9845 34.6185 21.1392 34.4456 21.3722C34.2727 21.6052 34.1995 21.8973 34.242 22.1843C34.2845 22.4713 34.4392 22.7296 34.6722 22.9025C43.6859 29.59 49.7409 44.6294 49.7409 54.4794C49.7409 57.9125 49.0147 60.2694 47.5209 61.6838C44.8834 64.1838 39.8622 63.9081 33.5072 63.5619C31.1066 63.4313 28.6241 63.2963 25.9997 63.2963C25.3422 63.2963 24.6912 63.304 24.0466 63.3194C23.9029 63.3227 23.7614 63.3542 23.6299 63.4122C23.4985 63.4702 23.3797 63.5535 23.2805 63.6574C23.1813 63.7613 23.1034 63.8837 23.0515 64.0177C22.9996 64.1516 22.9745 64.2945 22.9778 64.4381C22.9811 64.5818 23.0126 64.7233 23.0706 64.8548C23.1286 64.9862 23.212 65.105 23.3159 65.2042C23.4197 65.3034 23.5422 65.3813 23.6761 65.4332C23.8101 65.4851 23.9529 65.5102 24.0966 65.5069C24.7249 65.4927 25.3593 65.4852 25.9997 65.4844C28.5622 65.4844 31.0166 65.6175 33.3878 65.7469C35.4434 65.8588 37.4103 65.9656 39.2466 65.9656C43.3153 65.9656 46.7372 65.4394 49.0247 63.2731C50.9784 61.4225 51.9284 58.5463 51.9284 54.48C51.9284 44.0981 45.5184 28.2269 35.9759 21.1456Z" fill="#212121"/>
<path d="M39.4375 44.9785C39.4378 42.5127 38.7596 40.0943 37.4771 37.9882C36.1946 35.8821 34.3573 34.1695 32.1664 33.0379C29.9755 31.9064 27.5154 31.3995 25.0557 31.5728C22.5959 31.7461 20.2312 32.5929 18.2206 34.0204C17.9842 34.1885 17.8242 34.4436 17.7758 34.7297C17.7275 35.0157 17.7947 35.3093 17.9628 35.5457C18.1309 35.7822 18.386 35.9422 18.6721 35.9905C18.9581 36.0389 19.2517 35.9716 19.4881 35.8036C21.7779 34.18 24.5922 33.4716 27.3778 33.8175C30.1634 34.1635 32.7189 35.5388 34.5419 37.6732C36.365 39.8076 37.3239 42.5467 37.23 45.3521C37.1361 48.1576 35.9964 50.8264 34.0347 52.8342C32.0731 54.842 29.4314 56.0435 26.6289 56.2025C23.8264 56.3615 21.0658 55.4666 18.8896 53.6936C16.7134 51.9206 15.2791 49.3978 14.8685 46.621C14.4579 43.8442 15.1007 41.0142 16.6706 38.6873C16.7534 38.5684 16.8117 38.4342 16.8421 38.2925C16.8726 38.1508 16.8746 38.0045 16.848 37.8621C16.8214 37.7196 16.7668 37.5839 16.6874 37.4627C16.6079 37.3416 16.5051 37.2374 16.385 37.1563C16.265 37.0752 16.13 37.0188 15.9879 36.9903C15.8458 36.9618 15.6995 36.9618 15.5575 36.9903C15.4154 37.0188 15.2804 37.0753 15.1604 37.1564C15.0403 37.2376 14.9376 37.3417 14.8581 37.4629C13.684 39.2046 12.9344 41.1972 12.6697 43.2809C12.4049 45.3646 12.6323 47.4814 13.3337 49.4613C14.035 51.4412 15.1907 53.2292 16.7081 54.6816C18.2254 56.1341 20.0621 57.2106 22.0708 57.8248C24.0795 58.439 26.2042 58.5737 28.2743 58.2182C30.3445 57.8627 32.3025 57.0269 33.9912 55.7777C35.6798 54.5286 37.0522 52.901 37.998 51.0255C38.9439 49.1501 39.4369 47.079 39.4375 44.9785Z" fill="#212121"/>
<path d="M23.7813 48.3006C23.7813 48.0106 23.666 47.7324 23.4609 47.5272C23.2558 47.3221 22.9776 47.2069 22.6875 47.2069C22.3974 47.2069 22.1192 47.3221 21.9141 47.5272C21.709 47.7324 21.5938 48.0106 21.5938 48.3006C21.5956 49.2787 21.9218 50.2284 22.5212 51.0012C23.1206 51.774 23.9594 52.3262 24.9063 52.5713V53.9681C24.9063 54.2582 25.0215 54.5364 25.2266 54.7415C25.4317 54.9467 25.7099 55.0619 26 55.0619C26.2901 55.0619 26.5683 54.9467 26.7734 54.7415C26.9785 54.5364 27.0938 54.2582 27.0938 53.9681V52.5763C28.0459 52.3363 28.8906 51.7853 29.4941 51.0108C30.0976 50.2363 30.4254 49.2825 30.4254 48.3006C30.4254 47.3188 30.0976 46.365 29.4941 45.5905C28.8906 44.8159 28.0459 44.265 27.0938 44.025V39.7219C27.4397 39.9137 27.7282 40.1945 27.9294 40.5351C28.1305 40.8757 28.2371 41.2638 28.2381 41.6594C28.2381 41.9495 28.3534 42.2277 28.5585 42.4328C28.7636 42.6379 29.0418 42.7531 29.3319 42.7531C29.622 42.7531 29.9002 42.6379 30.1053 42.4328C30.3104 42.2277 30.4256 41.9495 30.4256 41.6594C30.4238 40.6779 30.0954 39.7249 29.4921 38.9506C28.8888 38.1763 28.0451 37.6249 27.0938 37.3831V35.9888C27.0938 35.6987 26.9785 35.4205 26.7734 35.2154C26.5683 35.0103 26.2901 34.895 26 34.895C25.7099 34.895 25.4317 35.0103 25.2266 35.2154C25.0215 35.4205 24.9063 35.6987 24.9063 35.9888V37.3856C23.9586 37.6292 23.1189 38.1809 22.5193 38.9541C21.9197 39.7272 21.5943 40.6779 21.5943 41.6563C21.5943 42.6347 21.9197 43.5853 22.5193 44.3585C23.1189 45.1316 23.9586 45.6834 24.9063 45.9269V50.2244C24.5658 50.0313 24.2825 49.7517 24.085 49.4139C23.8874 49.076 23.7826 48.692 23.7813 48.3006ZM28.2381 48.3006C28.2366 48.6957 28.1298 49.0832 27.9287 49.4233C27.7275 49.7633 27.4393 50.0435 27.0938 50.235V46.3656C27.4393 46.5573 27.7275 46.8377 27.9286 47.1778C28.1298 47.5179 28.2366 47.9055 28.2381 48.3006ZM23.7813 41.6569C23.7825 41.2654 23.8872 40.8813 24.0848 40.5433C24.2824 40.2054 24.5658 39.9257 24.9063 39.7325V43.5806C24.5658 43.3876 24.2825 43.1079 24.085 42.7701C23.8874 42.4323 23.7826 42.0482 23.7813 41.6569Z" fill="#FF8838"/>
</svg>
