<svg width="64" height="64" viewBox="0 0 64 64" fill="none" xmlns="http://www.w3.org/2000/svg">
<g clip-path="url(#clip0)">
<path d="M18.5252 55.4667H10.6855L16.019 9.6001L18.5252 55.4667Z" fill="#FF8838"/>
<path d="M18.5262 56.5723H10.6865C10.3712 56.5723 10.0706 56.4373 9.8609 56.2023C9.65121 55.9667 9.55215 55.653 9.5884 55.3395L14.9218 9.47264C14.9884 8.90264 15.4915 8.49139 16.0537 8.49514C16.6275 8.51264 17.0922 8.9667 17.1237 9.53952L19.63 55.4061C19.6465 55.7095 19.5378 56.0061 19.329 56.2264C19.1203 56.447 18.8297 56.5723 18.5262 56.5723ZM11.9284 54.3611H17.3587L15.6228 22.588L11.9284 54.3611Z" fill="#212121"/>
<path d="M53.3524 62.9334H16.019L10.6855 55.4666H53.3524V62.9334Z" fill="#FF8838"/>
<path d="M53.3532 63.8255H16.0198C15.7313 63.8255 15.4613 63.6865 15.2935 63.4518L9.96009 55.9852C9.76603 55.7134 9.73978 55.3552 9.8929 55.0584C10.046 54.7609 10.352 54.574 10.6867 54.574H53.3532C53.846 54.574 54.2454 54.9734 54.2454 55.4662V62.9327C54.2454 63.4262 53.846 63.8255 53.3532 63.8255ZM16.4795 62.0409H52.4613V56.3593H12.421L16.4795 62.0409Z" fill="#212121"/>
<path d="M53.3549 9.6001H16.0215V62.9335H53.3549V9.6001Z" fill="#F8F8F5"/>
<path d="M53.3531 64H16.0197C15.4309 64 14.9531 63.5222 14.9531 62.9334V9.60001C14.9531 9.01126 15.4309 8.53345 16.0197 8.53345H53.3531C53.9419 8.53345 54.4197 9.01126 54.4197 9.60001V62.9334C54.4197 63.5222 53.9425 64 53.3531 64ZM17.0862 61.8666H52.2862V10.6666H17.0862V61.8666Z" fill="#212121"/>
<path d="M43.7523 19.2C43.1635 19.2 42.6857 18.7222 42.6857 18.1334V9.6C42.6857 5.48281 39.3363 2.13344 35.2191 2.13344C31.102 2.13344 27.7523 5.48281 27.7523 9.6V18.1334C27.7523 18.7222 27.2745 19.2 26.6857 19.2C26.097 19.2 25.6191 18.7222 25.6191 18.1334V9.6C25.6188 4.30656 29.9254 0 35.2188 0C40.5123 0 44.8188 4.30656 44.8188 9.6V18.1334C44.8188 18.7222 44.3416 19.2 43.7523 19.2Z" fill="#212121"/>
</g>
<defs>
<clipPath id="clip0">
<rect width="64" height="64" fill="white"/>
</clipPath>
</defs>
</svg>
