<svg width="600" height="600" viewBox="0 0 600 600" fill="none" xmlns="http://www.w3.org/2000/svg">
<path d="M381.903 254.604C381.713 254.583 381.499 254.593 381.264 254.645C370.367 257.062 359.262 259.582 348.122 260.479C347.281 260.547 346.72 261.147 346.628 261.704C346.575 261.785 346.539 261.87 346.537 261.961C346.422 270.212 344.773 278.438 343.366 286.64C339.18 279.032 336.195 270.697 335.406 262.655C335.321 261.789 332.384 262.407 332.486 263.436C333.399 272.743 337.168 282.622 342.595 291.381C341.274 300.049 340.61 308.687 342.696 317.29C338.234 316.635 331.803 318.106 329.757 318.489C329.635 318.512 329.513 318.538 329.391 318.561C328.932 318.148 327.254 318.521 326.733 319.094C323.437 319.786 320.135 320.584 316.826 321.443L313.779 322.073L307.657 323.923C292.206 328.198 276.6 332.631 260.793 331.764C255.678 331.484 249.264 330.281 245.577 326.323C244.535 325.205 247.963 315.066 248.496 312.883C250.426 304.96 252.165 296.624 255.465 289.132C260.562 277.559 265.376 265.863 270.599 254.344C272.738 249.627 274.898 244.859 277.594 240.428C277.876 239.965 275.165 240.148 274.703 240.907C273.435 242.989 272.259 245.135 271.14 247.317C263.23 244.384 256.91 239.606 252.169 232.555C252.88 229.051 253.9 225.513 255.261 222.092C255.554 221.833 255.712 221.516 255.625 221.202C258.649 213.965 263.218 207.355 269.582 202.908C269.981 202.777 270.372 202.598 270.67 202.431C279.306 210.464 292.055 210.671 302.207 215.949C302.936 216.412 303.687 216.845 304.465 217.239C304.874 217.497 305.281 217.762 305.679 218.042C305.909 218.205 306.249 218.245 306.609 218.197C306.891 218.31 307.172 218.427 307.461 218.53C307.479 218.565 307.49 218.601 307.515 218.636C313.373 226.953 323.507 224.707 331.963 222.42C332.487 222.278 332.795 222.029 332.954 221.763C333.064 221.664 333.14 221.556 333.17 221.442C334.255 220.372 335.553 219.504 336.993 218.792L342.933 216.803C348.993 215.486 355.905 215.588 360.878 215.426C369.575 215.142 378.385 215.396 387.031 216.425C387.376 216.467 387.785 216.691 388.214 216.993C380.215 227.214 381.753 242.27 381.903 254.604ZM340.16 318.602C336.627 318.312 333.159 318.968 329.701 319.629C330.531 323.257 331.302 326.898 332.041 330.545C332.324 330.459 332.578 330.405 332.731 330.419C336.898 330.777 344.786 327.982 344.291 322.466C344.01 321.728 343.758 320.988 343.522 320.249C342.817 319.277 341.664 318.725 340.16 318.602Z" fill="white"/>
<path d="M309.957 162.455C309.875 162.491 310.075 162.458 310.105 162.446C310.113 162.452 310.262 162.482 310.304 162.498C310.31 162.5 310.311 162.5 310.317 162.503C310.327 162.51 310.333 162.515 310.349 162.526C310.406 162.562 310.456 162.605 310.507 162.648C311.405 163.715 314.101 162.534 313.142 161.297C311.733 159.477 309.134 160.197 307.506 161.23C306.944 161.587 306.816 162.427 307.375 162.837C308.025 163.317 308.862 163.076 309.475 162.688C309.623 162.592 309.796 162.526 309.957 162.455ZM310.103 162.438C310.123 162.443 310.154 162.449 310.202 162.456C310.144 162.447 310.121 162.445 310.109 162.445C310.116 162.441 310.098 162.441 310.027 162.449C310.062 162.445 310.081 162.441 310.103 162.438ZM337.532 165.136C338.042 165.398 336.786 165.991 336.678 166.03C336.127 166.235 335.346 166.446 334.787 166.158C334.062 165.785 333.464 165.134 332.744 164.794C332.233 164.555 330.364 165.095 329.63 165.221C329.45 165.25 328.217 165.393 328.444 164.872C328.676 164.335 329.648 164.123 330.145 164.037C331.553 163.797 333.711 163.087 335.14 163.62C336.008 163.943 336.702 164.707 337.532 165.136ZM311.567 155.612C312.007 155.464 312.446 155.309 312.89 155.177C312.935 155.163 312.968 155.156 313.002 155.147C313.498 155.354 313.785 156.023 314.039 156.449C314.449 157.137 317.165 156.009 316.959 155.666C316.464 154.837 316.063 154.081 315.02 153.996C313.532 153.876 311.956 154.562 310.578 155.024C310.472 155.061 309.263 155.55 309.694 155.806C310.183 156.096 311.092 155.771 311.567 155.612ZM313.026 155.14C313.297 155.075 313.18 155.167 313.026 155.14V155.14ZM326.055 156.93C331.263 155.094 335.433 155.049 339.93 158.566C340.406 158.938 337.832 160.085 337.181 159.576C333.877 156.992 331.09 156.234 327.079 157.649C325.948 158.048 324.092 157.624 326.055 156.93ZM319.81 161.986C317.744 165.993 315.077 169.54 311.966 172.776C312.575 173.466 313.352 173.854 313.904 174.67C314.568 175.655 311.735 176.615 311.191 175.81C310.564 174.883 309.613 174.536 308.977 173.596C308.762 173.277 308.92 173.04 309.165 172.792C312.347 169.56 315.013 165.966 317.092 161.932C317.525 161.092 320.449 160.747 319.81 161.986ZM325.209 184.808C325.615 184.229 326.477 184.027 327.138 184.016C328.862 183.985 330.743 183.589 332.04 182.387C332.546 181.918 333.436 181.701 334.105 181.833C334.721 181.955 334.821 182.438 334.377 182.849C332.181 184.885 328.909 185.6 325.997 185.649C325.54 185.657 324.816 185.369 325.209 184.808ZM146.544 265.854C145.501 277.924 157.613 291.292 167.495 296.189C168.292 296.583 170.987 295.407 169.836 294.836C161.568 290.74 155.156 282.927 151.478 274.591C150.398 272.142 149.736 269.59 149.603 266.995C152.152 267.538 154.97 267.225 157.035 265.709C159.748 263.718 161.939 260.336 159.664 257.208C158.161 255.141 154.966 255.213 152.813 255.872C149.332 256.94 147.674 260.087 146.931 263.388C144.84 261.899 143.05 259.872 141.609 257.896C136.428 250.793 139.712 240.465 139.874 232.404C139.89 231.6 136.975 232.108 136.954 233.185C136.807 240.472 134.713 248.184 136.954 255.32C138.381 259.871 142.467 263.608 146.544 265.854ZM150.019 262.038C150.747 258.832 153.927 255.189 156.941 258.319C157.674 259.079 157.775 260.219 157.674 261.201C157.296 264.88 153.281 266.148 150.172 265.1C149.984 265.037 149.806 264.948 149.622 264.874C149.682 263.93 149.804 262.985 150.019 262.038ZM181.554 292.67C178.154 300.627 179.412 307.215 186.732 312.62C195.53 319.118 202.861 314.826 211.387 310.457C211.942 310.173 212.49 309.491 212.055 308.87C206.434 300.868 197.596 287.864 186.087 291.492C185.45 291.693 185.115 292.097 185.025 292.506C184.939 292.392 184.851 292.277 184.765 292.162C184.786 292.116 184.805 292.07 184.827 292.023C185.221 291.189 184.552 290.777 183.756 290.765C181.409 287.404 179.38 283.776 177.381 280.118C176.769 278.996 173.978 280.062 174.704 281.392C176.833 285.288 179.011 289.132 181.554 292.67ZM191.885 302.984C192.936 303.685 195.513 302.236 194.142 301.321C190.937 299.182 188.289 296.584 185.97 293.714C186.173 293.731 186.401 293.708 186.659 293.628C196.055 290.667 203.942 302.361 208.756 309.285C206.618 310.41 204.502 311.574 202.323 312.621C197.487 314.949 193.314 313.687 188.964 310.867C182.816 306.883 181.668 301.317 183.553 295.283C185.927 298.185 188.631 300.81 191.885 302.984ZM440.007 312.709C438.337 313.777 440.84 314.384 441.862 313.731C446.359 310.854 450.215 307.585 453.597 303.938C453.584 304.319 453.921 304.621 454.783 304.546C462.17 303.898 469.594 301.689 473.323 294.764C477.327 287.33 475.358 277.162 474.124 269.295C473.934 268.087 471.672 269.03 471.288 269.599C467.32 275.454 437.396 295.165 452.63 301.743C449.081 305.879 444.956 309.543 440.007 312.709ZM471.567 272.451C472.462 278.42 473.122 284.518 471.968 290.478C470.32 298.992 463.033 302.015 455.123 302.711C454.94 302.727 454.767 302.771 454.608 302.829C454.793 302.622 454.969 302.408 455.15 302.197C455.957 301.916 456.697 301.267 456.303 300.818C460.056 296.184 463.177 291 465.918 285.258C466.568 283.896 463.631 284.147 463.173 285.107C460.588 290.524 457.672 295.443 454.18 299.862C444.32 294.717 463.961 279.699 471.567 272.451ZM451.688 118.602C461.822 119.055 472 112.831 472.936 102.08C473.971 90.1844 465.037 82.4244 453.538 83.2338C453.499 83.2368 453.455 83.2448 453.411 83.2529C432.96 83.5492 429.629 117.617 451.688 118.602ZM451.913 84.5017C452.018 84.5098 452.138 84.5108 452.296 84.4997C474.286 82.9525 476.191 116.26 454.287 117.333C445.5 117.763 439.87 111.082 439.275 102.851C438.736 95.3843 443.152 84.4725 451.913 84.5017ZM453.856 69.5007C453.856 64.828 453.856 60.1562 453.856 55.4825C453.856 54.4614 456.776 53.9585 456.776 54.7013C456.776 59.3741 456.776 64.0458 456.776 68.7196C456.777 69.7396 453.856 70.2426 453.856 69.5007ZM456.777 133.63C456.777 138.303 456.777 142.975 456.777 147.648C456.777 148.67 453.857 149.172 453.857 148.43C453.857 143.757 453.857 139.085 453.857 134.411C453.856 133.391 456.777 132.888 456.777 133.63ZM409.417 100.759C414.089 100.759 418.762 100.759 423.435 100.759C425.408 100.759 423.35 102.373 422.287 102.373C417.614 102.373 412.941 102.373 408.269 102.373C406.296 102.372 408.354 100.759 409.417 100.759ZM487.911 100.53C492.584 100.53 497.257 100.53 501.929 100.53C503.914 100.53 503.296 102.601 501.652 102.601C496.979 102.601 492.307 102.601 487.634 102.601C485.648 102.601 486.266 100.53 487.911 100.53ZM421.108 69.3112C420.203 68.4081 422.976 67.2742 423.802 68.0987C427.107 71.4017 430.41 74.7067 433.715 78.0097C434.619 78.9128 431.846 80.0467 431.021 79.2222C427.716 75.9182 424.413 72.6132 421.108 69.3112ZM479.617 123.917C482.92 127.222 486.225 130.526 489.529 133.831C490.396 134.698 487.624 135.817 486.828 135.022C483.525 131.718 480.22 128.413 476.917 125.108C476.05 124.241 478.822 123.122 479.617 123.917ZM433.534 124.737C430.23 128.041 426.927 131.346 423.622 134.649C422.965 135.305 420.09 135.404 421.29 134.205C424.595 130.903 427.898 127.597 431.202 124.293C431.859 123.636 434.734 123.537 433.534 124.737ZM477.051 78.2123C480.355 74.9073 483.658 71.6013 486.963 68.2983C487.85 67.4113 490.682 67.8225 489.394 69.1117C486.089 72.4146 482.786 75.7196 479.482 79.0236C478.595 79.9106 475.763 79.4994 477.051 78.2123ZM122.454 526.686C113.115 528.374 104.281 530.832 96.376 535.514C96.9747 530.806 98.1005 526.179 99.6034 521.67C107.255 526.664 118.045 520.149 121.957 513.025C122.218 512.549 121.896 512.142 121.437 511.996C115.199 510.003 108.014 511.74 102.179 514.836C102.749 513.479 103.337 512.132 103.958 510.804C104.614 509.398 105.329 507.963 106.097 506.527C106.423 506.328 106.676 506.052 106.758 505.708C106.808 505.497 106.853 505.278 106.902 505.062C109.514 500.423 112.745 495.894 116.77 492.523C116.482 493.65 116.543 494.821 117.189 495.967C118.569 498.416 121.679 499.359 124.295 499.634C127.191 499.94 130.556 499.273 132.681 497.162C135.333 494.526 133.913 490.7 132.254 487.959C132.252 487.955 132.248 487.953 132.246 487.948C132.398 487.856 132.552 487.764 132.698 487.665C135.319 489.913 138.545 491.474 142.056 490.43C144.967 489.565 146.917 487.099 147.776 484.279C148.574 481.662 148.166 478.518 146.225 476.502C144.651 474.869 142.464 474.363 140.246 474.412C141.558 473.268 142.57 471.849 142.721 470.081C142.922 467.702 141.255 465.702 139.356 464.504C137.188 463.135 134.38 462.766 131.972 463.667C131.232 463.944 130.612 464.341 130.09 464.82C129.723 463.987 129.183 463.234 128.413 462.613C126.103 460.749 122.612 461.368 120.099 462.382C117.579 463.399 114.973 465.41 113.977 468.017C113.184 470.094 113.835 471.924 115.172 473.326C114.537 473.366 113.896 473.45 113.243 473.636C110.387 474.444 108.207 476.658 107.221 479.417C106.327 481.921 106.864 484.796 108.771 486.671C111.308 489.17 115.353 489.317 118.806 488.908C118.459 489.321 118.127 489.757 117.832 490.212C113.779 492.722 110.467 496.23 107.659 500.127C108.059 494.804 106.919 489.453 101.689 486.795C101.08 486.485 100.001 486.787 99.6235 487.349C95.5515 493.398 93.1637 505.893 102.579 508.119C102.621 508.129 102.663 508.131 102.706 508.137C97.8385 517.112 94.3833 527.333 93.2947 537.496C91.6135 538.66 89.9746 539.928 88.3932 541.342C87.7955 541.876 90.5209 541.55 91.0299 541.096C99.9219 533.148 110.36 529.798 121.898 527.714C123.038 527.508 124.509 526.315 122.454 526.686ZM129.556 489.158C130.749 491.13 132.205 494.305 130.425 496.395C129.168 497.87 126.934 497.96 125.156 497.773C123.173 497.564 121.057 496.67 119.973 494.926C118.84 493.103 119.942 491.047 121.247 489.479C121.746 489.213 122.256 488.97 122.776 488.742C124.788 489.734 127.27 489.781 129.543 489.129C129.549 489.138 129.55 489.148 129.556 489.158ZM127.337 473.763C127.551 474.005 127.985 474.087 128.45 474.041C132.218 475.495 134.167 481.844 132.251 485.569C130.005 489.933 124.459 488.162 122.298 484.777C120.631 482.165 121.003 479.106 122.667 476.776C122.778 476.679 122.858 476.577 122.896 476.475C123.255 476.017 123.663 475.586 124.12 475.201C124.547 474.843 123.675 474.801 122.799 474.93C122.799 474.922 122.801 474.915 122.801 474.909C123.275 474.849 123.728 474.748 123.92 474.632C125.142 473.893 126.292 473.646 127.337 473.763ZM133.037 465.148C133.315 465.034 134.052 464.975 134.778 465.117C135.656 465.289 136.457 465.653 137.21 466.129C138.586 466.997 139.802 468.529 139.79 470.224C139.775 472.595 137.584 474.183 135.675 475.189C135.298 475.323 135.032 475.512 134.883 475.728C134.61 476.038 134.634 476.339 134.837 476.566C135.046 476.91 135.55 477.122 136.31 476.91C138.792 476.216 141.744 475.874 143.702 477.906C145.198 479.461 145.399 481.806 145.014 483.826C144.663 485.661 143.598 487.656 141.867 488.514C139.433 489.721 136.512 487.492 134.836 485.946C134.786 485.899 134.729 485.862 134.667 485.829C137.145 482.582 136.098 477.805 133.639 474.89C132.665 473.735 131.487 473.045 130.216 472.708C130.368 472.014 130.506 471.28 130.605 470.528C130.783 470.366 130.895 470.173 130.898 469.96C130.918 468.131 131.358 465.846 133.037 465.148ZM120.303 464.505C122.093 463.526 124.15 462.929 125.915 464.078C128.465 465.737 127.93 469.812 127.366 472.494C125.49 472.653 123.594 473.341 121.974 474.268C119.69 473.53 116.388 472.106 116.571 469.236C116.707 467.108 118.685 465.39 120.303 464.505ZM111.679 485.683C110.007 484.311 109.51 482.126 109.883 480.071C110.215 478.245 111.376 476.331 113.058 475.461C115.362 474.269 118.013 475.645 119.873 477.09C117.725 480.159 117.893 484.176 120.5 487.002C117.568 487.475 114.115 487.681 111.679 485.683ZM101.293 489.657C106.011 493.237 105.021 500.73 103.789 505.9C103.784 505.922 103.786 505.942 103.782 505.963C103.712 505.938 103.644 505.912 103.561 505.893C96.8215 504.298 98.6912 494.675 101.293 489.657ZM118.739 513.556C115.19 519.197 107.017 524.204 101.055 519.497C100.89 519.367 100.671 519.306 100.429 519.294C100.605 518.809 100.786 518.325 100.97 517.844C105.93 514.52 112.752 512.107 118.739 513.556ZM156.672 525.179C153.68 531.402 149.799 537.103 144.782 541.598C143.897 542.391 141.033 542.033 142.366 540.84C146.938 536.744 150.524 531.615 153.348 526.008C141.405 528.637 131.053 532.646 122.875 542.426C122.738 542.59 122.48 542.715 122.174 542.809C121.854 542.967 121.473 543.031 121.115 543.005C120.479 543.068 119.938 543.038 120.002 542.963C120.077 542.873 120.157 542.792 120.234 542.701C119.916 542.443 119.819 542.036 120.21 541.501C127.928 530.907 137.523 522.065 147.762 513.958C148.932 513.033 151.272 514.119 149.716 515.352C142.116 521.368 134.898 527.796 128.551 535.064C135.957 529.803 144.507 527.054 153.851 525.022C157.571 517.32 159.881 508.78 161.284 500.767C161.497 499.544 164.475 499.121 164.233 500.505C162.853 508.389 160.59 516.762 157.03 524.402C157.767 524.378 157.335 524.841 156.672 525.179ZM187.343 525.124C175.35 527.794 165.866 533.745 156.579 541.562C156.155 541.919 155.231 542.03 154.572 541.915C153.499 542.352 151.861 542.125 152.513 541.068C159.648 529.477 169.388 519.679 180.983 512.541C182.151 511.822 184.589 512.781 182.905 513.819C172.696 520.102 163.936 528.473 157.235 538.383C166.158 531.301 175.445 525.916 186.874 523.37C188.657 522.972 189.153 524.721 187.343 525.124ZM115.502 538.021C113.946 540.355 112.356 542.621 110.02 544.241C109.459 544.631 108.634 544.839 107.955 544.796C107.382 544.759 107.309 544.416 107.768 544.098C109.834 542.663 111.239 540.578 112.615 538.514C112.962 537.992 113.738 537.787 114.319 537.689C114.423 537.67 115.817 537.55 115.502 538.021ZM91.9209 524.109C90.9916 531.403 87.4749 537.834 85.2807 544.77C84.9158 545.923 81.9424 546.288 82.3355 545.046C84.5258 538.124 88.0495 531.658 88.9758 524.384C89.128 523.191 92.0963 522.729 91.9209 524.109ZM195.847 540.131C193.876 540.44 194.438 538.134 196.076 537.879C210.837 535.574 222.935 527.544 230.884 514.922C231.643 513.716 234.353 514.277 233.35 515.868C224.81 529.43 211.606 537.672 195.847 540.131ZM264.081 517.016C247.803 520.236 234.07 529.782 220.514 538.834C219.439 539.551 216.98 538.805 218.631 537.702C232.607 528.37 246.829 518.569 263.607 515.249C265.394 514.895 265.908 516.655 264.081 517.016ZM263.361 530.676C259.371 534.533 254.7 537.612 249.322 539.142C247.545 539.648 247.086 537.894 248.852 537.392C252.227 536.432 255.293 534.728 258.058 532.574C251.613 534.593 244.981 535.627 238.931 535.418C236.954 535.351 238.939 533.697 240.06 533.737C246.769 533.968 254.227 532.504 261.227 529.782C264.3 526.766 266.93 523.245 269.106 519.718C269.695 518.764 272.663 518.633 271.864 519.925C270.243 522.553 268.402 525.13 266.343 527.52C272.083 524.661 277.271 520.952 281.116 516.618C281.772 515.88 284.613 515.825 283.464 517.12C278.406 522.821 271.198 527.48 263.361 530.676ZM308.977 515.115C293.301 519.03 282.995 532.48 270.13 541.267C269.608 541.624 266.676 541.999 267.889 541.168C281.508 531.866 292.109 518.343 308.73 514.193C310.436 513.769 310.693 514.688 308.977 515.115ZM319.389 522.061C309.053 524.468 299.815 529.72 291.586 536.319C290.826 536.928 287.909 536.849 289.23 535.79C298.033 528.731 307.923 523.105 318.979 520.532C320.742 520.12 321.173 521.647 319.389 522.061ZM327.214 519.223C323.908 526.719 320.735 534.259 313.176 538.336C311.749 539.106 310.156 537.671 311.911 536.723C318.712 533.053 321.488 525.632 324.436 518.944C324.929 517.827 327.871 517.73 327.214 519.223ZM375.68 521.482C376.94 520.433 374.021 520.563 373.367 521.11C365.004 528.085 357.785 535.709 348.046 538.911C347.079 535.994 346.287 533.02 345.659 530.009C354.459 531.392 361.162 522.08 361.859 513.966C370.215 512.735 378.313 510.612 386.155 507.438C386.532 507.287 387.332 506.857 386.957 506.353C386.744 506.04 386.53 505.726 386.318 505.412C379.24 493.337 374.57 479.662 369.792 466.569C363.37 448.972 357.531 431.158 351.987 413.266C347.855 399.932 343.716 386.526 340.537 372.925C337.356 359.314 335.04 345.489 332.291 331.762C338.467 331.765 346.408 328.585 347.169 321.938C347.224 321.851 347.242 321.764 347.211 321.682C347.321 320.386 346.937 319.435 346.224 318.744C343.856 310.842 343.963 302.898 344.925 294.925C349.147 300.988 354.143 306.348 359.473 310.367C364.151 313.893 369.987 316.304 375.876 316.194C376.591 317.468 377.546 318.636 378.713 319.617C388.72 328.034 406.767 327.252 418.875 326.012C423.545 325.533 428.834 324.843 432.969 322.445C434.672 321.457 432.065 321.193 431.189 321.701C422.566 326.703 386.787 327.11 378.711 315.94C379.253 315.852 379.794 315.748 380.333 315.611C385.647 314.266 392.876 310.084 388.063 303.997C384.65 299.682 378.238 301.334 375.81 305.612C374.147 308.542 374.059 311.756 375.133 314.605C367.323 314.211 360.43 308.445 355.307 303.066C351.799 299.383 348.469 295.057 345.555 290.369C346.976 281.111 349.109 271.819 349.42 262.508C360.305 261.493 371.164 259.052 381.811 256.69C382.021 256.644 382.194 256.574 382.343 256.492C383.159 256.895 384.854 256.373 384.851 255.519C384.845 253.908 384.803 252.226 384.753 250.5C384.756 250.5 384.758 250.499 384.761 250.498C407.476 242.595 428.813 230.486 452.967 228.104C453.096 228.183 453.311 228.231 453.652 228.225C461.369 228.088 469.148 225.853 476.355 223.251C482.251 221.126 490.709 217.72 492.94 211.216C493.02 210.983 492.827 210.776 492.639 210.682C491.871 210.298 491.461 210.159 490.91 210.143C491.751 209.479 492.539 208.718 493.256 207.83C493.601 207.403 495.561 204.924 494.509 204.36C493.661 203.905 492.537 204.116 491.491 204.486C491.586 204.369 491.695 204.268 491.785 204.147C492.481 203.212 493.364 201.68 492.651 200.545C492.086 199.645 490.82 199.54 489.66 199.626C490.711 198.448 491.405 197.11 490.898 195.781C489.434 191.953 480.594 196.389 475.951 198.778C478.603 194.601 480.164 190.689 476.95 190.124C471.764 189.211 464.676 194.645 460.755 197.368C454.571 201.66 448.702 207.258 441.604 209.904C443.795 207.77 445.371 205.107 445.966 202.021C446.522 199.128 444.156 194.777 440.903 194.896C439.882 194.932 438.943 195.365 438.039 195.791C434.726 197.352 431.904 198.409 428.109 198.083C422.918 197.638 420.712 194.116 418.295 190.034C415.687 185.624 412.681 181.974 408.144 179.425C403.394 176.758 397.667 176.081 392.566 174.309C388.647 172.949 383.132 171.059 381.999 166.551C381.047 162.765 381.73 158.658 380.798 154.779C375.745 133.737 352.722 128.187 333.814 128.066C333.295 128.062 332.347 128.505 331.979 128.889C331.964 128.889 331.955 128.886 331.938 128.886C309.43 128.527 289.664 143.605 285.491 166.021C282.876 180.066 286.011 199.934 296.613 211.277C288.082 208.567 278.975 206.973 272.575 200.461C271.883 199.757 269.82 200.444 269.715 201.23C269.658 201.263 269.604 201.299 269.547 201.333C263.867 198.516 259.436 193.675 254.918 189.316C249.891 184.465 244.679 181.674 238.35 178.858C232.06 176.06 226.11 172.861 222.514 166.739C220.142 162.697 220.699 156.453 220.289 151.948C219.903 147.701 217.441 136.788 210.793 142.267C209.397 143.418 208.786 144.976 208.614 146.747C205.234 143.337 201.331 140.507 197.335 137.833C196.761 137.448 194.703 137.804 194.519 138.588C194.268 139.659 194.214 140.663 194.307 141.616C193.468 140.93 192.586 140.342 191.622 140.367C189.69 140.416 188.055 141.103 187.692 143.13C187.456 144.45 187.549 145.698 187.851 146.893C187.137 146.71 186.404 146.652 185.667 146.826C184.079 147.201 183.346 148.307 183.401 149.875C183.452 151.348 183.987 152.899 184.8 154.375C174.321 163.006 196.014 173.118 201.321 177.578C218.65 192.141 234.318 208.654 252.584 222.116C251.208 225.452 250.159 228.922 249.412 232.418C249.119 232.689 248.996 233.026 249.209 233.375C249.183 233.509 249.15 233.643 249.125 233.776C249.076 234.033 249.352 234.151 249.75 234.169C254.839 241.547 261.668 246.369 270.136 249.343C267.002 255.728 264.32 262.385 261.526 268.85C257.467 278.241 252.834 287.564 249.861 297.372C247.433 305.384 245.509 313.562 243.623 321.715C242.941 324.663 241.575 326.472 244.022 328.445C245.117 329.328 246.332 330.042 247.62 330.624C243.596 353.412 239.879 376.28 239.069 399.444C238.235 423.318 238.994 447.313 240.837 471.125C239.662 470.978 238.461 471.019 237.406 471.173C234.402 471.612 231.135 472.964 229.396 475.578C228.483 476.95 228.371 478.377 228.743 479.725C228.168 479.573 227.574 479.46 226.94 479.441C224.081 479.35 221.361 480.777 219.595 482.971C217.965 484.994 217.599 487.855 218.819 490.158C220.52 493.364 224.349 494.739 227.775 495.435C227.381 495.675 226.995 495.933 226.629 496.212C221.362 497.414 216.32 499.852 211.664 503.093C214.287 497.853 215.359 491.76 210.875 487.09C210.254 486.443 209.252 486.506 208.559 487.03C202.702 491.469 198.606 501.864 206.18 506.682C206.364 506.799 206.586 506.852 206.819 506.864C199.06 513.547 192.715 522.242 188.691 530.44C184.27 533.028 179.163 534.462 175.106 537.732C173.562 538.977 175.975 539.617 176.975 538.811C182.47 534.381 189.72 533.173 194.943 528.267C196.1 527.179 193.902 526.911 192.86 527.415C194.608 524.249 196.629 521.247 198.847 518.392C204.296 525.474 216.431 524.391 222.665 518.852C223.063 518.499 222.996 517.997 222.602 517.7C216.995 513.475 208.828 513.115 202.03 514.542C203.141 513.275 204.278 512.032 205.453 510.825C210.819 505.314 217.658 499.65 225.289 497.436C224.289 498.558 223.667 499.921 223.854 501.567C224.161 504.283 226.925 506.315 229.215 507.345C231.982 508.59 235.351 508.927 238.082 507.41C240.352 506.148 241.063 503.877 241.054 501.522C242.239 503.098 243.742 504.399 245.584 504.988C245.59 505.033 245.59 505.076 245.604 505.122C245.939 506.251 246.405 507.287 246.875 508.362C246.848 508.501 246.923 508.626 247.134 508.723C247.391 508.972 247.751 509.077 248.125 509.062C256.964 511.948 267.653 510.356 276.587 509.161C286.635 507.819 297.822 506.053 306.829 501.127C307.371 500.83 307.492 500.57 307.371 500.368C307.376 500.329 307.379 500.289 307.369 500.249C302.171 479.921 297.752 459.581 295.84 438.828C296.361 441.112 296.893 443.393 297.449 445.669C300.955 460.052 305.3 474.221 310.293 488.155C311.55 491.663 312.876 495.146 314.226 498.62C315.277 501.328 316.138 505.221 317.856 507.56C320.451 511.09 326.81 512.647 331.046 513.417C333.187 516.791 336.481 518.944 340.934 517.742C341.076 520.325 341.336 522.92 341.72 525.504C334.704 529.18 327.236 532.128 321.698 538.008C320.509 539.272 323.366 539.258 324.052 538.53C329.014 533.259 335.623 530.422 341.987 527.212C342.705 531.461 343.756 535.658 345.123 539.713C342.744 540.244 340.214 540.518 337.481 540.457C336.468 540.433 334.339 541.939 336.309 541.983C339.522 542.053 342.608 541.776 345.605 541.157C346.046 542.39 346.517 543.607 347.019 544.806C347.282 545.435 350.123 544.462 349.939 544.025C349.441 542.837 348.985 541.635 348.554 540.422C351.407 539.584 354.18 538.413 356.882 536.835C363.852 532.764 369.521 526.62 375.68 521.482ZM378.986 304.767C381.53 300.284 386.092 305.196 386.709 307.951C387.723 312.477 381.963 314.144 377.875 314.538C376.61 311.878 376.783 308.648 378.986 304.767ZM219.51 518.721C214.11 522.773 205.105 522.311 201.157 516.648C207.064 515.177 214.291 515.307 219.51 518.721ZM209.2 489.623C212.449 494.21 210.683 499.915 207.857 504.545C202.829 500.766 205.212 493.607 209.2 489.623ZM344.565 523.7C344.263 521.499 344.03 519.291 343.867 517.085C343.825 516.512 343.787 515.933 343.756 515.35C346.459 515.449 349.165 515.577 351.869 515.581C348.961 517.799 346.464 520.681 344.565 523.7ZM346.425 528.018C346.051 527.949 345.65 528.049 345.308 528.233C345.24 527.863 345.164 527.495 345.1 527.124C345.44 526.987 345.725 526.783 345.857 526.524C346.206 525.834 346.594 525.138 347.015 524.445C347.146 524.324 347.212 524.214 347.222 524.114C349.309 520.772 352.187 517.546 355.589 515.49C356.185 515.455 356.633 515.149 356.881 514.778C357.549 514.447 358.233 514.169 358.932 513.94C358.443 520.417 353.736 529.36 346.425 528.018ZM383.398 506.196C383.544 506.448 383.669 506.651 383.803 506.851C376.72 509.603 369.447 511.459 361.919 512.546C361.919 512.51 361.921 512.473 361.921 512.438C361.912 511.531 360.866 511.554 360.207 511.676C358.589 511.98 357.028 512.54 355.538 513.282C351.648 513.485 347.76 513.249 343.87 513.122C343.849 513.122 343.828 513.126 343.806 513.126C343.804 513.049 343.795 512.97 343.773 512.89C343.738 512.762 343.696 512.636 343.659 512.509C343.548 506.194 344.262 499.579 346.887 493.896C346.814 495.823 347.35 497.672 349.286 498.615C351.973 499.925 355.453 498.936 357.964 497.684C360.699 496.319 363.297 494.119 364.253 491.129C364.997 488.802 364.022 486.781 362.478 485.196C364.548 485.086 366.536 484.456 368.17 482.973C370.084 481.236 370.498 478.447 369.995 476.012C373.779 486.37 377.871 496.768 383.398 506.196ZM337.997 480.318C339.515 480.402 341.088 480.174 342.476 479.896C341.529 483.842 343.479 487.94 347.283 489.335C347.136 489.407 347.014 489.49 346.937 489.588C346.474 490.187 346.055 490.807 345.656 491.438C343.7 492.76 341.348 493.823 339.085 492.988C337.027 492.228 335.829 490.224 335.32 488.192C334.812 486.164 335.106 483.927 336.158 482.124C336.644 481.292 337.278 480.717 337.997 480.318ZM335.521 476.392C334.59 474.428 335.358 472.036 336.336 470.218C336.898 469.173 337.619 468.26 338.495 467.436C339.2 466.773 340.053 466.323 340.774 466.149C340.795 466.143 340.803 466.141 340.818 466.137C340.835 466.135 340.843 466.135 340.868 466.131C340.991 466.113 341.115 466.107 341.239 466.1C341.276 466.098 341.402 466.099 341.73 466.145C341.986 466.182 342.514 466.403 342.942 466.683C344.159 467.482 344.972 468.883 345.561 470.177C346.002 471.141 346.331 472.155 346.623 473.173C346.709 473.479 346.943 473.663 347.239 473.756C345.33 474.623 343.684 476.12 342.583 477.939C342.536 477.939 342.49 477.937 342.445 477.939C341.346 477.919 340.273 478.028 339.259 478.275C337.678 478.245 336.187 477.795 335.521 476.392ZM349.057 470.415C348.111 468.639 347.45 466.513 348.684 464.716C349.523 463.492 351.239 463.192 352.609 463.275C354.222 463.373 355.906 464.2 356.606 465.72C357.691 468.072 356.18 470.777 354.885 472.692C354.75 472.89 354.725 473.049 354.765 473.177C354.588 473.337 354.416 473.497 354.248 473.66C354.002 473.555 353.755 473.457 353.507 473.374C352.134 472.909 350.746 472.838 349.422 473.071C349.557 472.871 349.613 472.641 349.543 472.391C349.4 471.893 349.236 471.384 349.06 470.874C349.129 470.727 349.141 470.572 349.057 470.415ZM345.011 477.954C345.164 477.863 345.287 477.763 345.355 477.646C346.152 476.267 347.379 474.483 349.125 474.305C350.616 474.153 352.129 474.87 353.338 475.659C355.689 477.192 357.205 479.853 357.204 482.655C357.204 483 357.159 483.34 357.086 483.673C356.972 483.817 356.923 483.966 356.954 484.112C356.954 484.128 356.952 484.145 356.953 484.161C356.659 485.075 356.135 485.924 355.533 486.646C353.752 488.782 351.251 488.935 348.91 487.749C345.356 485.948 344.344 481.809 345.711 478.294C345.802 478.058 345.475 477.953 345.011 477.954ZM350.48 490.079C350.509 489.987 350.51 489.908 350.5 489.835C353.753 489.782 357.122 488.25 358.891 485.576C360.545 486.864 361.826 488.593 361.463 490.833C361.082 493.19 359.007 494.97 357.065 496.112C355.51 497.026 353.171 497.87 351.423 497.018C348.933 495.803 349.854 492.093 350.48 490.079ZM356.161 474.73C356.301 474.665 356.426 474.587 356.521 474.494C358.274 472.775 360.607 470.952 363.194 471.769C365.076 472.365 366.323 474.269 366.899 476.051C367.505 477.922 367.396 480.021 366.292 481.681C364.958 483.689 362.108 483.449 359.973 482.989C360.009 482.815 360.053 482.646 360.077 482.466C360.508 479.352 358.664 476.489 356.161 474.73ZM260.791 331.765C255.677 331.485 249.263 330.282 245.576 326.324C244.533 325.206 247.961 315.068 248.495 312.884C250.425 304.961 252.163 296.625 255.463 289.133C260.561 277.56 265.374 265.864 270.597 254.345C272.736 249.628 274.896 244.86 277.593 240.429C277.875 239.966 275.163 240.149 274.702 240.908C273.434 242.991 272.258 245.136 271.139 247.318C263.229 244.385 256.909 239.607 252.168 232.556C252.879 229.052 253.899 225.514 255.26 222.093C255.553 221.834 255.71 221.517 255.624 221.203C258.647 213.966 263.216 207.356 269.58 202.909C269.98 202.778 270.371 202.599 270.669 202.432C279.305 210.465 292.054 210.672 302.206 215.95C302.935 216.413 303.686 216.846 304.464 217.24C304.873 217.498 305.279 217.763 305.677 218.043C305.908 218.207 306.248 218.246 306.608 218.198C306.89 218.311 307.171 218.428 307.459 218.531C307.478 218.566 307.489 218.602 307.514 218.637C313.372 226.954 323.506 224.708 331.962 222.421C332.485 222.279 332.794 222.03 332.953 221.765C333.063 221.665 333.138 221.557 333.169 221.443C334.254 220.373 335.551 219.505 336.992 218.793L342.932 216.805C348.992 215.487 355.904 215.589 360.877 215.427C369.574 215.143 378.383 215.397 387.029 216.427C387.375 216.468 387.783 216.692 388.213 216.994C380.217 227.213 381.756 242.269 381.905 254.603C381.715 254.582 381.501 254.592 381.266 254.644C370.368 257.061 359.264 259.581 348.123 260.478C347.283 260.546 346.721 261.146 346.63 261.703C346.577 261.784 346.541 261.869 346.539 261.96C346.424 270.211 344.775 278.437 343.368 286.639C339.182 279.031 336.197 270.696 335.407 262.654C335.323 261.788 332.386 262.406 332.487 263.435C333.401 272.742 337.17 282.621 342.597 291.38C341.276 300.048 340.612 308.686 342.698 317.289C338.236 316.634 331.805 318.105 329.759 318.488C329.637 318.511 329.515 318.537 329.393 318.56C328.933 318.147 327.256 318.52 326.735 319.093C323.439 319.785 320.137 320.583 316.828 321.442C313.778 322.234 310.721 323.076 307.659 323.922C292.204 328.199 276.599 332.632 260.791 331.765ZM311.041 217.79C313.374 212.015 317.284 206.608 317.441 200.192C317.592 194.015 310.869 192.009 306.411 189.901C290.826 182.53 303.15 162.005 310.397 152.934C310.647 152.822 310.856 152.674 310.983 152.494C316.024 145.323 322.709 145.222 330.648 145.244C333.203 148.97 335.726 153.058 339.721 155.369C342.691 157.087 346.33 157.121 349.759 156.736C347.3 163.391 342.518 173.951 351.224 177.396C351.583 177.539 352.279 177.389 352.866 177.139C353.154 177.078 353.404 176.995 353.547 176.894C359.618 172.57 360.754 181.163 360.347 184.173C359.853 187.821 355.901 187.357 353.311 187.495C349.62 187.691 347.014 189.816 344.42 192.28C336.842 199.476 331.498 210.638 330.364 221.036C323.364 222.89 315.733 224.359 310.74 218.107C310.883 218.013 310.993 217.908 311.041 217.79ZM332.732 330.418C332.579 330.404 332.325 330.458 332.042 330.544C331.303 326.897 330.532 323.256 329.701 319.628C333.16 318.968 336.628 318.311 340.161 318.601C341.665 318.724 342.818 319.276 343.523 320.248C343.759 320.987 344.01 321.727 344.292 322.465C344.787 327.981 336.899 330.777 332.732 330.418ZM469.626 194.565C470.566 194.101 476.743 190.897 475.903 193.418C475.294 195.242 473.998 196.895 472.912 198.448C470.434 201.996 467.646 205.324 465.363 209.006C464.499 210.4 467.478 210.459 468.16 209.359C468.758 208.394 471.513 205.135 474.063 201.563C474.288 201.553 474.521 201.508 474.747 201.413C477.002 200.458 479.164 199.281 481.406 198.293C482.406 197.852 488.571 194.872 488.054 197.533C487.577 199.979 483.51 202.101 481.64 203.321C479.737 204.562 477.744 205.649 475.789 206.802C474.084 207.807 476.595 208.501 477.656 207.874C480.517 206.187 483.4 204.574 486.093 202.619C486.606 202.246 487.3 201.752 488.007 201.175C491.288 200.855 489.54 203.88 488.088 205.397C485.36 208.249 481.089 209.584 477.689 211.43C475.965 212.368 478.612 212.548 479.446 212.095C482.986 210.173 487.172 208.673 490.187 205.881C490.597 205.835 491.002 205.751 491.207 205.654C492.377 205.1 491.773 206.138 491.386 206.879C490.775 208.05 489.833 209.075 488.898 209.988C485.883 212.93 481.143 213.684 477.333 215.15C475.387 215.9 477.242 216.169 478.326 215.751C481.771 214.425 485.367 213.469 488.505 211.727C488.685 211.834 488.982 211.89 489.439 211.844C490.508 211.739 487.648 215.188 487.805 215.022C486.772 216.107 485.498 216.95 484.249 217.759C481.111 219.795 477.544 221.177 474.042 222.441C469.165 224.201 463.829 225.7 458.555 226.282C457.293 226.342 456.041 226.433 454.796 226.544C454.791 226.544 454.787 226.545 454.782 226.545C454.78 226.545 454.777 226.546 454.774 226.546C429.886 228.751 408.037 240.843 384.713 249.09C384.405 238.677 384.123 226.841 389.994 218.487C390.507 218.949 390.987 219.374 391.364 219.604C392.561 220.336 393.206 220.206 394.518 220.013C397.846 219.524 400.934 218.746 404.367 218.688C407.445 218.636 410.515 218.395 413.532 217.772C420.682 216.294 429.723 216.618 436.621 213.34C449.655 211.459 458.237 200.183 469.626 194.565ZM210.474 182.056C205.363 177.44 200.344 173.654 194.676 169.806C190.843 167.203 181.947 161.254 186.12 156.401C187.393 158.094 188.942 159.561 190.391 160.506C191.295 161.095 193.956 159.814 192.687 158.988C190.066 157.279 188.099 154.381 186.936 151.519C186.587 150.658 186.234 149.635 186.357 148.684C186.504 148.737 186.647 148.798 186.777 148.853C187.693 149.241 188.537 149.809 189.353 150.379C191.042 153.183 193.568 155.698 195.356 158.128C196.011 159.018 198.826 157.984 198.055 156.937C195.907 154.018 193.217 151.438 191.543 148.196C190.675 146.515 190.456 144.672 190.626 142.807C190.718 141.799 192.297 143.512 192.533 143.716C193.142 144.237 193.754 144.654 194.484 144.987C194.701 145.086 195.009 145.089 195.334 145.034C196.521 147.386 198.526 149.434 200.5 151.412C201.091 152.004 203.803 150.935 203.24 150.371C200.43 147.556 197.446 144.555 197.198 140.653C201.077 143.371 204.782 146.321 207.878 149.937C208.022 150.106 208.338 150.148 208.704 150.114C209.238 154.594 211.015 159.62 210.023 162.964C209.866 163.493 212.688 163.141 212.9 162.431C214.665 156.483 210.654 149.818 212.323 143.666C213.592 138.987 216.775 148.284 216.973 149.454C217.769 154.166 217.697 158.986 218.435 163.709C219.999 173.716 231.358 177.927 239.406 181.528C250.419 186.456 256.704 197.76 267.527 202.641C261.453 206.894 256.889 212.857 253.715 219.548C238.444 208.15 224.589 194.81 210.474 182.056ZM245.409 480.858C245.949 479.381 246.963 477.481 248.654 477.583C250.237 477.679 251.662 478.909 252.598 480.089C253.614 481.368 254.178 483.038 253.775 484.651C253.208 486.924 250.405 487.58 248.431 487.854C247.92 487.923 247.157 488.159 246.883 488.674C246.825 488.25 246.748 487.83 246.639 487.418C246.153 485.581 245.135 484.281 243.825 483.424C244.211 482.795 244.608 482.105 244.97 481.373C245.178 481.229 245.337 481.055 245.409 480.858ZM232.958 493.884C231.523 491.201 232.068 487.891 234.017 485.774C234.363 485.608 234.647 485.381 234.76 485.122C235.063 484.985 235.325 484.798 235.493 484.585C235.809 484.398 236.136 484.227 236.49 484.093C237.164 483.837 237.377 483.61 237.327 483.441C243.434 483.252 245.964 491.028 242.54 495.86C239.87 499.628 234.746 497.23 232.958 493.884ZM231.739 476.624C232.626 474.548 234.968 473.643 236.992 473.226C238.739 472.866 241.286 472.964 242.621 474.645C244.36 476.834 242.824 480.141 241.485 482.421C239.906 482.023 238.154 482.037 236.464 482.393C235.863 482.519 235.226 482.932 234.997 483.258C233.042 481.735 230.611 479.265 231.739 476.624ZM221.681 484.075C222.474 482.539 224.032 481.2 225.827 481.187C228.504 481.164 230.541 483.439 231.879 485.523C229.652 487.644 228.648 490.651 229.721 493.796C225.145 492.779 218.806 489.646 221.681 484.075ZM236.376 506.271C234.994 507.114 232.418 506.287 230.923 505.546C229.116 504.652 227.327 503.158 226.833 501.123C226.344 499.108 227.805 497.621 229.43 496.609C229.701 496.579 229.969 496.536 230.241 496.516C230.426 496.502 230.741 496.41 231.066 496.285C232.689 498.274 235.224 499.106 237.785 499.049C237.772 499.131 237.769 499.214 237.787 499.301C238.256 501.514 238.663 504.876 236.376 506.271ZM242.377 498.135C242.354 498.09 242.321 498.054 242.29 498.018C242.421 497.957 242.557 497.901 242.684 497.835C245.327 496.481 246.708 493.784 246.943 490.963C249.484 491.153 252.484 491.83 253.708 494.328C254.662 496.275 254.114 498.535 253.055 500.311C252.146 501.837 250.438 503.399 248.554 503.388C245.611 503.371 243.605 500.444 242.377 498.135ZM324.06 508.553C320.341 506.562 319.305 503.277 317.829 499.575C315.301 493.234 312.97 486.818 310.752 480.362C306.349 467.538 302.655 454.476 299.5 441.292C297.733 433.904 296.194 426.463 294.836 418.989C294.834 418.742 294.825 418.497 294.824 418.25C294.824 418.166 294.764 418.103 294.667 418.058C293.66 412.451 292.751 406.824 291.936 401.187C290.951 394.36 290.317 387.493 289.407 380.658C288.339 372.63 286.662 364.783 287.763 356.655C287.969 355.132 284.983 355.508 284.8 356.861C283.851 363.87 284.852 370.713 285.922 377.651C287.073 385.109 287.738 392.639 288.757 400.119C289.653 406.698 290.716 413.255 291.917 419.785C292.117 447.315 297.536 473.92 304.315 500.5C296.491 504.563 286.795 505.961 278.232 507.243C269.452 508.558 258.319 510.433 249.693 507.342C249.391 506.65 249.109 505.959 248.852 505.258C251.436 504.917 253.755 503.392 255.304 501.295C256.876 499.169 257.716 496.292 256.717 493.742C255.661 491.046 252.932 489.824 250.196 489.305C252.737 488.71 255.319 487.558 256.43 485.141C257.437 482.95 256.585 480.508 255.167 478.722C253.613 476.767 251.279 475.667 248.796 475.723C247.871 475.744 247.041 475.981 246.299 476.366C246.266 475.318 245.981 474.302 245.307 473.387C244.897 472.832 244.38 472.402 243.802 472.063C243.845 471.988 243.874 471.911 243.867 471.831C241.987 448.128 241.405 424.361 241.937 400.592C242.457 377.387 246.23 354.413 250.248 331.597C253.465 332.581 256.939 332.949 260.117 333.124C271.812 333.765 283.712 330.696 295.033 328.143C305.507 325.781 315.825 321.966 326.416 320.23C326.52 320.212 326.626 320.193 326.731 320.175C330.772 337.755 333.54 355.601 337.5 373.183C340.522 386.598 344.683 399.805 348.727 412.937C354.237 430.838 360.107 448.636 366.474 466.251C367.349 468.671 368.221 471.112 369.107 473.56C368.118 471.779 366.496 470.374 364.495 469.829C362.633 469.321 360.793 469.61 359.087 470.329C359.919 468.482 360.315 466.433 359.362 464.595C358.247 462.445 355.782 461.548 353.49 461.408C350.994 461.257 348.245 462.052 346.476 463.872C346.041 464.32 345.727 464.808 345.503 465.319C345.036 464.965 344.537 464.645 343.966 464.416C341.521 463.44 338.695 464.48 336.759 466.05C333.644 468.575 329.888 475.125 333.622 478.654C334.231 479.229 334.934 479.625 335.689 479.89C333.039 481.77 331.522 484.911 332.404 488.979C333.02 491.821 335.077 494.084 337.892 494.822C340.002 495.373 342.148 494.995 344.16 494.168C342.36 497.973 341.461 502.181 341.064 506.438C338.649 502.449 334.992 499.545 329.732 499.775C329.07 499.803 328.203 500.259 328.134 500.997C327.861 503.904 328.373 507.542 329.666 510.716C327.733 510.208 325.895 509.534 324.06 508.553ZM340.508 515.582C337.402 516.468 335.143 514.795 333.611 512.199C333.624 511.95 333.523 511.717 333.252 511.552C331.747 508.64 331.058 504.837 331.047 502.103C336.487 502.807 339.378 508.503 340.786 513.448C340.79 514.016 340.799 514.579 340.812 515.139C340.815 515.264 340.826 515.391 340.829 515.515C340.727 515.529 340.619 515.551 340.508 515.582ZM392.606 538.284C392.111 538.6 389.182 539.017 390.384 538.251C401.55 531.134 411.322 521.563 414.87 508.524C399.686 512.83 387.53 526.652 377.175 537.785C376.797 538.19 375.743 538.379 375.089 538.245C375.033 538.295 374.983 538.347 374.927 538.394C374.352 538.893 371.447 539.18 372.645 538.14C380.393 531.416 383.301 521.726 384.881 511.929C385.013 511.11 387.924 510.573 387.778 511.479C386.742 517.905 385.104 524.126 382.04 529.593C391.751 519.517 402.912 509.572 416.38 506.526C417.095 506.363 417.575 506.521 417.791 506.784C417.955 506.825 418.047 506.898 418.02 507.011C414.632 520.86 404.275 530.847 392.606 538.284ZM437.14 511.05C424.996 517.724 416.063 528.435 405.735 537.423C404.664 538.353 402.321 537.46 403.816 536.159C414.376 526.97 423.447 516.231 435.867 509.406C437.3 508.619 438.885 510.092 437.14 511.05ZM433.353 526.92C427.175 528.984 420.973 531.092 417.183 536.747C416.738 537.412 413.851 537.807 414.504 536.834C418.619 530.694 425.558 528.246 432.275 526.003C433.484 525.6 435.314 526.266 433.353 526.92ZM446.247 524.349C444.858 525.685 443.372 526.876 441.827 527.977C443.098 523.895 444.955 520.036 447.172 516.38C453.429 522.723 465.206 521.416 470.561 514.41C470.823 514.067 471.019 513.51 470.497 513.258C463.717 509.987 455.086 511.368 448.4 514.439C449.641 512.528 450.956 510.663 452.324 508.854C456.537 503.281 462.153 496.895 468.635 493.082C468.095 494.191 467.893 495.407 468.305 496.706C469.148 499.368 472.19 500.838 474.689 501.463C477.527 502.173 481.03 502.004 483.417 500.141C485.311 498.665 485.738 496.582 485.458 494.471C487.329 495.853 489.53 496.635 492.008 496.153C495.045 495.562 497.395 493.235 498.605 490.468C499.745 487.863 499.863 484.806 498.364 482.327C497.228 480.449 495.252 479.57 493.136 479.24C495.055 478.212 496.734 476.761 497.262 474.587C497.808 472.339 496.428 470.072 494.76 468.687C492.778 467.043 490.301 466.356 487.769 466.842C486.922 467.006 486.197 467.347 485.565 467.799C485.343 466.923 484.94 466.104 484.286 465.393C482.293 463.226 478.938 463.243 476.292 463.881C473.512 464.549 470.709 466.184 469.192 468.663C468.005 470.6 468.411 472.559 469.558 474.177C468.953 474.149 468.339 474.161 467.706 474.27C464.861 474.758 462.352 476.541 460.986 479.087C459.725 481.437 459.727 484.219 461.264 486.429C463.329 489.398 467.554 490.052 471.039 490.093C470.557 490.526 470.093 490.992 469.68 491.491C464.5 493.959 459.954 497.744 455.979 501.869C457.686 496.008 458.157 489.137 452.799 485.343C452.069 484.826 451.007 485.119 450.447 485.742C445.738 490.985 441.559 503.093 450.356 506.549C450.868 506.749 451.497 506.583 451.972 506.268C451.976 506.274 451.982 506.277 451.987 506.282C446.007 513.276 440.816 521.31 438.455 530.193C435.155 532.21 431.686 533.975 428.279 535.848C426.58 536.784 429.275 536.644 429.97 536.262C433.517 534.31 437.133 532.469 440.576 530.371C440.869 530.264 441.104 530.131 441.207 529.979C443.933 528.28 446.544 526.408 448.895 524.146C449.535 523.53 446.759 523.856 446.247 524.349ZM481.571 499.056C480.261 500.373 477.857 500.082 476.22 499.672C474.278 499.186 472.093 498.034 471.284 496.09C470.455 494.095 471.713 492.273 473.195 490.918C473.571 490.783 473.947 490.645 474.327 490.53C474.458 490.49 474.558 490.448 474.666 490.406C476.522 491.791 479.104 492.189 481.54 491.799C482.459 493.952 483.491 497.127 481.571 499.056ZM481.863 476.562C481.941 476.593 482.017 476.628 482.093 476.664C485.758 478.331 487.274 484.234 485.264 488.063C482.978 492.418 477.392 490.451 475.333 487.008C473.754 484.368 474.167 481.294 475.891 479.056C476.495 478.819 476.96 478.423 476.832 478.037C477.175 477.726 477.546 477.442 477.947 477.191C478.514 476.835 478.235 476.69 477.704 476.669C479.274 476.064 480.676 476.092 481.863 476.562ZM495.532 483.343C496.867 485.158 496.68 487.69 496.04 489.72C495.481 491.494 494.111 493.559 492.27 494.185C489.57 495.103 486.984 492.502 485.458 490.638C485.407 490.576 485.347 490.526 485.281 490.48C485.76 490.195 486.203 489.871 486.596 489.51C488.96 487.339 489.61 484.08 488.882 481.102C491.368 480.874 493.944 481.185 495.532 483.343ZM488.223 468.537C489.34 468.279 491.28 469.206 492.343 470.128C493.607 471.226 494.584 472.832 494.385 474.555C494.114 476.9 491.613 478.161 489.637 478.843C489.428 478.914 489.133 479.033 488.88 479.2C488.738 479.216 488.594 479.231 488.455 479.249C488.384 479.259 488.314 479.275 488.246 479.292C488.068 478.906 487.872 478.527 487.645 478.167C486.82 476.851 485.732 475.995 484.507 475.484C484.755 474.813 485.001 474.09 485.211 473.338C485.409 473.176 485.548 472.983 485.583 472.765C485.854 470.993 486.628 468.905 488.223 468.537ZM471.469 470.206C471.82 468.052 474.064 466.743 475.905 466.035C477.55 465.402 479.845 465.169 481.504 466.545C483.766 468.421 482.729 472.395 481.837 474.9C480.021 474.81 478.109 475.242 476.396 475.971C476.372 475.981 476.355 475.991 476.333 476.001C474.11 474.926 470.998 473.09 471.469 470.206ZM463.328 480.151C463.878 478.337 465.368 476.585 467.214 476.034C469.633 475.312 472.046 477.023 473.691 478.677C471.24 481.372 470.767 485.177 472.795 488.337C467.897 488.297 461.457 486.317 463.328 480.151ZM451.771 488.148C455.778 492.329 454.038 499.489 452.139 504.552C452.097 504.532 452.065 504.511 452.02 504.493C445.441 501.909 448.423 492.93 451.771 488.148ZM467.448 514.511C463.078 519.244 455.23 519.92 450.379 515.639C455.604 513.423 462.154 512.343 467.448 514.511ZM443.365 534.665C441.591 535.056 441.12 533.412 442.923 533.015C456.095 530.116 467.269 524.112 475.897 513.611C476.592 512.765 479.405 512.847 478.274 514.223C469.206 525.262 457.197 531.62 443.365 534.665ZM492.04 517.407C483.935 523.467 477.076 531.713 467.364 535.294C465.959 535.813 464.246 534.561 466.148 533.861C475.583 530.38 482.279 522.232 490.172 516.33C491.191 515.569 493.63 516.218 492.04 517.407ZM505.2 523.691C503.063 528.342 500.074 532.562 495.957 535.523C495.252 536.03 492.31 536.056 493.631 535.105C497.309 532.461 500.014 528.767 502.002 524.669C495.684 526.72 489.737 529.496 485.054 534.485C484.559 535.012 481.753 535.358 482.4 534.67C487.882 528.829 495.097 525.723 502.585 523.418C504.122 519.939 505.176 516.223 505.881 512.637C506.068 511.689 509.004 511.19 508.796 512.247C508.126 515.651 507.128 519.163 505.721 522.496C505.971 522.426 506.221 522.354 506.471 522.285C508.177 521.813 508.433 522.789 506.732 523.259C506.219 523.4 505.708 523.544 505.2 523.691ZM517.58 522.171C514.563 527.983 509.852 532.155 504.603 535.927C503.493 536.726 501.081 535.86 502.694 534.7C507.604 531.171 511.979 527.337 514.805 521.897C515.362 520.824 518.321 520.743 517.58 522.171Z" fill="#212121"/>
</svg>
