<svg width="779" height="550" viewBox="0 0 779 550" fill="none" xmlns="http://www.w3.org/2000/svg">
<g filter="url(#filter0_dd)">
<rect x="84" y="66" width="611" height="382" fill="white"/>
</g>
<path opacity="0.24" d="M459.375 153.382L444.486 138.5L347.384 149.783C338.773 149.783 331.804 156.756 331.804 165.344L319.591 374.667L336.347 391.403C339.166 394.242 343.078 396 347.395 396H449.421C458.031 396 465 389.028 465 380.44V165.355C465 160.545 462.812 156.233 459.375 153.382Z" fill="url(#paint0_linear)"/>
<path d="M432.617 379.205H330.579C321.969 379.205 315 372.232 315 363.645V148.56C315 139.972 321.981 133 330.579 133H432.617C441.227 133 448.196 139.972 448.196 148.56V363.633C448.196 372.244 441.215 379.205 432.617 379.205Z" fill="#212121"/>
<path d="M330.579 374.632C324.514 374.632 319.578 369.702 319.578 363.645V148.56C319.59 142.502 324.514 137.585 330.579 137.585H432.604C438.67 137.585 443.605 142.514 443.605 148.572V363.645C443.605 369.702 438.67 374.632 432.604 374.632H330.579Z" fill="#F8F8F5"/>
<path d="M443.606 156.411V148.572C443.606 142.514 438.67 137.585 432.605 137.585H330.579C324.514 137.585 319.591 142.502 319.591 148.56V156.399H443.606V156.411Z" fill="white"/>
<path d="M331.126 145.412H341.615" stroke="#463D3D" stroke-width="0.8351" stroke-miterlimit="10"/>
<path d="M331.126 147.895H341.615" stroke="#463D3D" stroke-width="0.8351" stroke-miterlimit="10"/>
<path d="M331.126 150.377H341.615" stroke="#463D3D" stroke-width="0.8351" stroke-miterlimit="10"/>
<path d="M424.827 148.774C424.898 149.011 425.005 149.249 425.124 149.475L424.767 149.926C424.648 150.068 424.66 150.282 424.791 150.413L425.409 151.019C425.54 151.149 425.754 151.161 425.909 151.042L426.361 150.686C426.599 150.817 426.837 150.924 427.098 150.995L427.17 151.565C427.193 151.755 427.348 151.898 427.55 151.898H428.418C428.609 151.898 428.775 151.755 428.787 151.565L428.846 151.019C429.12 150.947 429.393 150.841 429.643 150.71L430.083 151.054C430.238 151.173 430.44 151.161 430.583 151.031L431.201 150.425C431.332 150.294 431.356 150.08 431.237 149.926L430.904 149.51C431.046 149.273 431.153 149.011 431.225 148.75L431.748 148.691C431.938 148.667 432.081 148.512 432.081 148.322V147.467C432.081 147.277 431.938 147.123 431.748 147.099L431.237 147.04C431.165 146.778 431.058 146.517 430.928 146.279L431.249 145.887C431.368 145.745 431.356 145.531 431.225 145.4L430.606 144.795C430.476 144.664 430.262 144.652 430.107 144.771L429.714 145.08C429.465 144.937 429.191 144.818 428.906 144.747L428.846 144.26C428.823 144.07 428.668 143.928 428.466 143.928H427.598C427.407 143.928 427.241 144.07 427.217 144.26L427.146 144.723C426.848 144.795 426.575 144.913 426.313 145.068L425.909 144.747C425.754 144.628 425.552 144.64 425.409 144.771L424.791 145.377C424.66 145.507 424.648 145.721 424.767 145.864L425.1 146.279C424.969 146.517 424.862 146.778 424.791 147.04L424.256 147.099C424.066 147.123 423.923 147.277 423.923 147.467V148.322C423.923 148.512 424.066 148.667 424.256 148.691L424.827 148.774ZM427.943 146.327C428.751 146.327 429.417 146.98 429.417 147.776C429.417 148.572 428.763 149.225 427.943 149.225C427.122 149.225 426.468 148.572 426.468 147.776C426.468 146.968 427.134 146.327 427.943 146.327Z" fill="#463D3D"/>
<path d="M398.937 147.444H364.259C360.346 147.444 357.171 144.272 357.171 140.364V136.825H406.025V140.364C406.025 144.272 402.85 147.444 398.937 147.444Z" fill="#212121"/>
<path d="M337.465 227.334V217.737H347.086" stroke="#463D3D" stroke-miterlimit="10"/>
<path d="M425.73 227.334V217.737H416.109" stroke="#463D3D" stroke-miterlimit="10"/>
<path d="M337.465 295.857V305.455H347.086" stroke="#463D3D" stroke-miterlimit="10"/>
<path d="M425.73 295.857V305.455H416.109" stroke="#463D3D" stroke-miterlimit="10"/>
<path d="M421.366 222.179H341.829V301.072H421.366V222.179Z" fill="white"/>
<path d="M412.059 273.208H414.699V265.63H412.059V273.208Z" fill="#212121"/>
<path d="M409.44 257.425H412.08V249.419H409.44V257.425Z" fill="#212121"/>
<path d="M409.446 262.767H412.086V254.761H409.446V262.767Z" fill="#212121"/>
<path d="M414.708 252.061V249.425H401.507V252.061H414.708Z" fill="#212121"/>
<path d="M398.864 252.052V249.415H385.664V252.052H398.864Z" fill="#212121"/>
<path d="M396.212 254.678V252.041H388.232V254.678H396.212Z" fill="#212121"/>
<path d="M393.537 257.326V254.689H388.221V257.326H393.537Z" fill="#212121"/>
<path d="M404.164 273.161V254.691H401.536V273.161H404.164Z" fill="#212121"/>
<path d="M372.464 294.3V275.83H369.836V294.3H372.464Z" fill="#212121"/>
<path d="M404.165 257.364V254.691H396.161V257.364H404.165Z" fill="#212121"/>
<path d="M409.455 273.159V270.688H401.535V273.159H409.455Z" fill="#212121"/>
<path d="M398.88 273.149V270.679H390.959V273.149H398.88Z" fill="#212121"/>
<path d="M380.325 273.153V281.123H385.724V273.153H380.325Z" fill="#212121"/>
<path d="M383.068 281.126V270.685H380.333V281.126H383.068Z" fill="#212121"/>
<path d="M383.069 278.508V275.836H375.113V278.508H383.069Z" fill="#212121"/>
<path d="M404.14 267.882V265.412H385.659V267.882H404.14Z" fill="#212121"/>
<path d="M380.364 267.884V265.318H367.14V267.884H380.364Z" fill="#212121"/>
<path d="M364.496 267.876V265.311H356.576V267.876H364.496Z" fill="#212121"/>
<path d="M364.495 267.874V262.375H361.843V267.874H364.495Z" fill="#212121"/>
<path d="M359.188 270.468V262.38H356.535V270.468H359.188Z" fill="#212121"/>
<path d="M406.73 270.469V278.486H409.287V270.469H406.73Z" fill="#212121"/>
<path d="M406.737 275.824V278.485H414.598V275.824H406.737Z" fill="#212121"/>
<path d="M406.73 283.765V286.426H414.591V283.765H406.73Z" fill="#212121"/>
<path d="M351.283 270.469V265.243H348.631V270.469H351.283Z" fill="#212121"/>
<path d="M414.638 294.354V281.122H411.986V294.354H414.638Z" fill="#212121"/>
<path d="M411.978 294.36V291.687H398.741V294.36H411.978Z" fill="#212121"/>
<path d="M401.407 289.141V281.123H398.755V289.141H401.407Z" fill="#212121"/>
<path d="M398.744 289.144V291.686H406.7V289.144H398.744Z" fill="#212121"/>
<path d="M382.955 289.136V291.678H388.235V289.136H382.955Z" fill="#212121"/>
<path d="M372.447 289.141V291.683H377.728V289.141H372.447Z" fill="#212121"/>
<path d="M385.646 289.136V294.327H388.203V289.136H385.646Z" fill="#212121"/>
<path d="M385.584 289.14V286.515H377.675V289.14H385.584Z" fill="#212121"/>
<path d="M353.929 267.926V259.98H351.277V267.926H353.929Z" fill="#212121"/>
<path d="M361.844 267.88V270.493H367.148V267.88H361.844Z" fill="#212121"/>
<path d="M398.832 262.426V259.956H388.26V262.426H398.832Z" fill="#212121"/>
<path d="M369.812 262.428V259.957H364.485V262.428H369.812Z" fill="#212121"/>
<path d="M353.89 262.427V259.957H348.562V262.427H353.89Z" fill="#212121"/>
<path d="M356.544 264.85V262.379H351.276V264.85H356.544Z" fill="#212121"/>
<path d="M388.263 267.891V262.427H385.646V267.891H388.263Z" fill="#212121"/>
<path d="M382.944 254.736V262.421H385.644V254.736H382.944Z" fill="#212121"/>
<path d="M372.404 254.733V262.418H375.104V254.733H372.404Z" fill="#212121"/>
<path d="M364.438 257.314V262.421H367.137V257.314H364.438Z" fill="#212121"/>
<path d="M359.168 257.312V262.419H361.868V257.312H359.168Z" fill="#212121"/>
<path d="M359.172 257.319V254.741H356.591V257.319H359.172Z" fill="#212121"/>
<path d="M369.751 252.077V249.5H367.17V252.077H369.751Z" fill="#212121"/>
<path d="M377.717 252.079V249.502H375.136V252.079H377.717Z" fill="#212121"/>
<path d="M380.377 249.501V246.852H377.725V249.501H380.377Z" fill="#212121"/>
<path d="M377.726 246.849V241.54H375.145V246.849H377.726Z" fill="#212121"/>
<path d="M369.759 244.165V249.51H372.47V244.165H369.759Z" fill="#212121"/>
<path d="M380.363 244.156V241.483H372.467V244.156H380.363Z" fill="#212121"/>
<path d="M380.361 244.16V252.106H382.966V244.16H380.361Z" fill="#212121"/>
<path d="M369.792 238.876V241.489H372.468V238.876H369.792Z" fill="#212121"/>
<path d="M377.733 238.874V241.487H383.014V238.874H377.733Z" fill="#212121"/>
<path d="M385.627 238.872V230.95H383.011V238.872H385.627Z" fill="#212121"/>
<path d="M393.601 246.817V241.508H390.984V246.817H393.601Z" fill="#212121"/>
<path d="M388.318 246.823V238.865H385.631V246.823H388.318Z" fill="#212121"/>
<path d="M390.931 233.636V228.398H388.314V233.636H390.931Z" fill="#212121"/>
<path d="M385.634 233.632V230.948H377.832V233.632H385.634Z" fill="#212121"/>
<path d="M375.147 233.629V230.945H369.808V233.629H375.147Z" fill="#212121"/>
<path d="M375.125 233.629V228.367H372.485V233.629H375.125Z" fill="#212121"/>
<path d="M388.285 233.636V236.237H390.937V233.636H388.285Z" fill="#212121"/>
<path d="M388.319 231.039V233.64H393.623V231.039H388.319Z" fill="#212121"/>
<path d="M388.324 236.248V238.873H393.628V236.248H388.324Z" fill="#212121"/>
<path d="M372.462 236.254V238.867H375.138V236.254H372.462Z" fill="#212121"/>
<path d="M375.146 233.641V236.254H377.822V233.641H375.146Z" fill="#212121"/>
<path d="M380.385 228.345V230.958H383.061V228.345H380.385Z" fill="#212121"/>
<path d="M361.83 249.46V257.347H364.53V249.46H361.83Z" fill="#212121"/>
<path d="M348.621 249.464V257.351H351.321V249.464H348.621Z" fill="#212121"/>
<path d="M353.934 262.648V254.738H351.282V262.648H353.934Z" fill="#212121"/>
<path d="M382.944 265.319V262.421H375.083V265.319H382.944Z" fill="#212121"/>
<path d="M372.418 265.32V262.422H369.79V265.32H372.418Z" fill="#212121"/>
<path d="M380.419 254.752V257.318H385.652V254.752H380.419Z" fill="#212121"/>
<path d="M380.371 267.881V273.155H383.071V267.881H380.371Z" fill="#212121"/>
<path d="M377.845 267.887V270.452H383.077V267.887H377.845Z" fill="#212121"/>
<path d="M404.089 273.136V270.451H385.43V273.136H404.089Z" fill="#212121"/>
<path d="M404.09 273.138V283.828H406.742V273.138H404.09Z" fill="#212121"/>
<path d="M390.844 273.128V283.818H393.496V273.128H390.844Z" fill="#212121"/>
<path d="M401.435 273.135V283.825H404.087V273.135H401.435Z" fill="#212121"/>
<path d="M388.169 281.112V283.82H404.093V281.112H388.169Z" fill="#212121"/>
<path d="M377.732 286.505V283.821H369.86V286.505H377.732Z" fill="#212121"/>
<path d="M367.138 254.757V257.322H375.07V254.757H367.138Z" fill="#212121"/>
<path d="M393.544 267.89V259.956H390.928V267.89H393.544Z" fill="#212121"/>
<path d="M388.339 294.346V281.125H385.723V294.346H388.339Z" fill="#212121"/>
<path d="M388.344 291.694V289.033H380.388V291.694H388.344Z" fill="#212121"/>
<path d="M382.971 294.34V286.394H380.354V294.34H382.971Z" fill="#212121"/>
<path d="M406.774 270.699V268.228H401.542V270.699H406.774Z" fill="#212121"/>
<path d="M404.167 259.951V257.315H398.827V259.951H404.167Z" fill="#212121"/>
<path d="M390.927 259.956V257.319H382.959V259.956H390.927Z" fill="#212121"/>
<path d="M377.746 259.959V257.323H369.778V259.959H377.746Z" fill="#212121"/>
<path d="M414.705 257.44V254.803H406.82V257.44H414.705Z" fill="#212121"/>
<path d="M351.201 228.367H348.561V246.825H351.201V228.367Z" fill="#212121"/>
<path d="M367.042 228.367H364.401V246.826H367.042V228.367Z" fill="#212121"/>
<path d="M367.038 231.002V228.365H348.557V231.002H367.038Z" fill="#212121"/>
<path d="M367.041 246.825V244.189H348.56V246.825H367.041Z" fill="#212121"/>
<path d="M361.761 233.546H353.793V241.504H361.761V233.546Z" fill="#212121"/>
<path d="M351.201 275.902H348.561V294.361H351.201V275.902Z" fill="#212121"/>
<path d="M367.042 275.903H364.401V294.361H367.042V275.903Z" fill="#212121"/>
<path d="M367.039 278.538V275.901H348.558V278.538H367.039Z" fill="#212121"/>
<path d="M367.042 294.362V291.725H348.561V294.362H367.042Z" fill="#212121"/>
<path d="M361.761 281.093H353.793V289.051H361.761V281.093Z" fill="#212121"/>
<path d="M398.723 228.367H396.083V246.826H398.723V228.367Z" fill="#212121"/>
<path d="M414.576 228.367H411.936V246.826H414.576V228.367Z" fill="#212121"/>
<path d="M414.567 231.007V228.37H396.086V231.007H414.567Z" fill="#212121"/>
<path d="M414.57 246.831V244.194H396.089V246.831H414.57Z" fill="#212121"/>
<path d="M409.295 233.546H401.327V241.504H409.295V233.546Z" fill="#212121"/>
<path d="M372.435 281.122V278.545H369.854V281.122H372.435Z" fill="#212121"/>
<path d="M398.726 278.466V275.888H396.145V278.466H398.726Z" fill="#212121"/>
<path d="M406.704 289.117V286.54H404.123V289.117H406.704Z" fill="#212121"/>
<path d="M425.719 180.987H337.465V201.084H425.719V180.987Z" fill="#212121"/>
<path d="M346.057 188.551C346.057 189.315 345.936 189.974 345.693 190.529C345.45 191.079 345.11 191.51 344.672 191.822L346.084 192.93L345.372 193.588L343.704 192.262C343.444 192.327 343.168 192.36 342.878 192.36C342.255 192.36 341.703 192.208 341.221 191.903C340.739 191.595 340.365 191.159 340.096 190.594C339.832 190.025 339.696 189.368 339.689 188.621V188.051C339.689 187.29 339.821 186.618 340.086 186.035C340.35 185.452 340.723 185.006 341.205 184.698C341.69 184.387 342.245 184.231 342.868 184.231C343.505 184.231 344.065 184.385 344.547 184.693C345.032 185.001 345.405 185.445 345.666 186.024C345.927 186.6 346.057 187.274 346.057 188.045V188.551ZM345.014 188.04C345.014 187.109 344.827 186.392 344.454 185.888C344.085 185.381 343.556 185.128 342.868 185.128C342.212 185.128 341.694 185.379 341.314 185.883C340.937 186.383 340.743 187.078 340.732 187.969V188.551C340.732 189.456 340.921 190.17 341.297 190.692C341.678 191.213 342.205 191.474 342.878 191.474C343.552 191.474 344.074 191.23 344.443 190.741C344.813 190.248 345.003 189.543 345.014 188.627V188.04ZM350.567 189.051H348.709V192.251H347.66V184.34H350.279C351.17 184.34 351.855 184.543 352.333 184.948C352.815 185.354 353.056 185.945 353.056 186.72C353.056 187.212 352.922 187.642 352.653 188.007C352.389 188.373 352.02 188.647 351.545 188.828L353.403 192.186V192.251H352.284L350.567 189.051ZM348.709 188.198H350.312C350.83 188.198 351.241 188.064 351.545 187.796C351.853 187.527 352.007 187.169 352.007 186.72C352.007 186.231 351.86 185.856 351.567 185.595C351.277 185.334 350.857 185.202 350.306 185.198H348.709V188.198ZM359.614 188.725C358.719 188.468 358.067 188.152 357.658 187.779C357.252 187.403 357.049 186.939 357.049 186.388C357.049 185.765 357.297 185.251 357.794 184.845C358.294 184.436 358.942 184.231 359.739 184.231C360.282 184.231 360.766 184.336 361.19 184.546C361.617 184.756 361.947 185.046 362.179 185.416C362.414 185.785 362.532 186.189 362.532 186.627H361.483C361.483 186.149 361.331 185.774 361.027 185.503C360.722 185.227 360.293 185.09 359.739 185.09C359.225 185.09 358.822 185.204 358.533 185.432C358.246 185.657 358.103 185.97 358.103 186.372C358.103 186.694 358.239 186.968 358.511 187.192C358.786 187.413 359.252 187.616 359.907 187.801C360.567 187.986 361.081 188.19 361.45 188.415C361.824 188.636 362.099 188.895 362.276 189.192C362.458 189.489 362.548 189.839 362.548 190.241C362.548 190.882 362.298 191.396 361.798 191.784C361.298 192.168 360.63 192.36 359.793 192.36C359.25 192.36 358.743 192.257 358.272 192.05C357.801 191.84 357.437 191.554 357.18 191.192C356.926 190.829 356.799 190.418 356.799 189.958H357.848C357.848 190.436 358.024 190.815 358.375 191.094C358.73 191.369 359.203 191.507 359.793 191.507C360.344 191.507 360.766 191.394 361.059 191.17C361.353 190.945 361.499 190.639 361.499 190.252C361.499 189.864 361.364 189.565 361.092 189.355C360.82 189.141 360.328 188.931 359.614 188.725ZM369.71 189.741C369.612 190.578 369.302 191.224 368.78 191.681C368.262 192.133 367.572 192.36 366.71 192.36C365.776 192.36 365.026 192.025 364.461 191.355C363.899 190.684 363.618 189.788 363.618 188.665V187.904C363.618 187.169 363.749 186.522 364.01 185.964C364.274 185.407 364.647 184.979 365.129 184.682C365.611 184.381 366.169 184.231 366.803 184.231C367.643 184.231 368.317 184.467 368.824 184.937C369.331 185.405 369.626 186.053 369.71 186.883H368.661C368.57 186.252 368.373 185.796 368.069 185.513C367.768 185.231 367.346 185.09 366.803 185.09C366.136 185.09 365.613 185.336 365.232 185.829C364.856 186.321 364.667 187.022 364.667 187.931V188.698C364.667 189.556 364.846 190.239 365.205 190.746C365.564 191.253 366.065 191.507 366.71 191.507C367.29 191.507 367.734 191.376 368.041 191.115C368.353 190.851 368.559 190.393 368.661 189.741H369.71ZM375.507 190.186H372.193L371.448 192.251H370.372L373.394 184.34H374.306L377.333 192.251H376.262L375.507 190.186ZM372.508 189.328H375.197L373.85 185.628L372.508 189.328ZM384.478 192.251H383.429L379.447 186.155V192.251H378.398V184.34H379.447L383.44 190.463V184.34H384.478V192.251ZM392.411 192.251H391.362L387.38 186.155V192.251H386.331V184.34H387.38L391.373 190.463V184.34H392.411V192.251ZM395.383 192.251H394.34V184.34H395.383V192.251ZM403.376 192.251H402.327L398.345 186.155V192.251H397.296V184.34H398.345L402.338 190.463V184.34H403.376V192.251ZM411.07 191.213C410.802 191.597 410.427 191.885 409.945 192.077C409.467 192.266 408.909 192.36 408.272 192.36C407.627 192.36 407.055 192.209 406.555 191.909C406.055 191.605 405.667 191.173 405.392 190.616C405.12 190.058 404.981 189.411 404.974 188.676V187.986C404.974 186.794 405.251 185.87 405.805 185.215C406.363 184.559 407.145 184.231 408.152 184.231C408.978 184.231 409.643 184.443 410.146 184.867C410.65 185.287 410.958 185.885 411.07 186.66H410.027C409.831 185.613 409.208 185.09 408.158 185.09C407.459 185.09 406.928 185.336 406.566 185.829C406.207 186.318 406.026 187.028 406.022 187.959V188.605C406.022 189.493 406.225 190.199 406.631 190.724C407.037 191.246 407.585 191.507 408.277 191.507C408.668 191.507 409.011 191.463 409.304 191.376C409.598 191.289 409.84 191.143 410.032 190.936V189.159H408.201V188.312H411.07V191.213Z" fill="white"/>
<path d="M425.719 327.952H337.465V348.049H425.719V327.952Z" fill="#212121"/>
<path d="M368.283 335.683C367.389 335.426 366.737 335.11 366.327 334.737C365.922 334.361 365.719 333.897 365.719 333.346C365.719 332.723 365.967 332.209 366.463 331.803C366.963 331.394 367.612 331.189 368.408 331.189C368.952 331.189 369.435 331.294 369.859 331.504C370.287 331.714 370.616 332.004 370.848 332.374C371.084 332.743 371.201 333.147 371.201 333.585H370.153C370.153 333.107 370 332.732 369.696 332.461C369.392 332.185 368.963 332.048 368.408 332.048C367.894 332.048 367.492 332.162 367.202 332.39C366.916 332.615 366.773 332.928 366.773 333.33C366.773 333.652 366.909 333.926 367.18 334.151C367.456 334.372 367.921 334.574 368.577 334.759C369.236 334.944 369.751 335.149 370.12 335.373C370.493 335.594 370.768 335.853 370.946 336.15C371.127 336.447 371.218 336.797 371.218 337.199C371.218 337.84 370.968 338.354 370.468 338.742C369.968 339.126 369.3 339.318 368.463 339.318C367.919 339.318 367.412 339.215 366.941 339.008C366.47 338.798 366.106 338.512 365.849 338.15C365.596 337.787 365.469 337.376 365.469 336.916H366.518C366.518 337.394 366.693 337.773 367.045 338.052C367.4 338.327 367.872 338.465 368.463 338.465C369.013 338.465 369.435 338.353 369.729 338.128C370.022 337.903 370.169 337.597 370.169 337.21C370.169 336.822 370.033 336.523 369.761 336.313C369.49 336.099 368.997 335.889 368.283 335.683ZM378.379 336.699C378.281 337.536 377.972 338.182 377.45 338.639C376.932 339.092 376.242 339.318 375.38 339.318C374.445 339.318 373.695 338.983 373.13 338.313C372.569 337.643 372.288 336.746 372.288 335.623V334.862C372.288 334.127 372.418 333.48 372.679 332.923C372.944 332.365 373.317 331.937 373.799 331.64C374.28 331.34 374.838 331.189 375.472 331.189C376.313 331.189 376.986 331.425 377.493 331.896C378.001 332.363 378.296 333.011 378.379 333.841H377.33C377.24 333.211 377.042 332.754 376.738 332.472C376.437 332.189 376.015 332.048 375.472 332.048C374.806 332.048 374.282 332.294 373.902 332.787C373.525 333.279 373.337 333.98 373.337 334.89V335.656C373.337 336.514 373.516 337.197 373.875 337.704C374.233 338.211 374.735 338.465 375.38 338.465C375.959 338.465 376.403 338.334 376.711 338.074C377.022 337.809 377.229 337.351 377.33 336.699H378.379ZM384.177 337.144H380.862L380.118 339.209H379.042L382.063 331.298H382.976L386.002 339.209H384.932L384.177 337.144ZM381.177 336.286H383.867L382.519 332.586L381.177 336.286ZM393.148 339.209H392.099L388.116 333.113V339.209H387.067V331.298H388.116L392.11 337.422V331.298H393.148V339.209Z" fill="white"/>
<path d="M443.618 255.877H319.591V305.455H443.618V255.877Z" fill="url(#paint1_linear)"/>
<path d="M443.618 254.154H319.591V255.995H443.618V254.154Z" fill="#FF8838"/>
<defs>
<filter id="filter0_dd" x="0" y="0" width="779" height="550" filterUnits="userSpaceOnUse" color-interpolation-filters="sRGB">
<feFlood flood-opacity="0" result="BackgroundImageFix"/>
<feColorMatrix in="SourceAlpha" type="matrix" values="0 0 0 0 0 0 0 0 0 0 0 0 0 0 0 0 0 0 127 0"/>
<feMorphology radius="4" operator="erode" in="SourceAlpha" result="effect1_dropShadow"/>
<feOffset dy="18"/>
<feGaussianBlur stdDeviation="44"/>
<feColorMatrix type="matrix" values="0 0 0 0 0.0941176 0 0 0 0 0.152941 0 0 0 0 0.294118 0 0 0 0.14 0"/>
<feBlend mode="normal" in2="BackgroundImageFix" result="effect1_dropShadow"/>
<feColorMatrix in="SourceAlpha" type="matrix" values="0 0 0 0 0 0 0 0 0 0 0 0 0 0 0 0 0 0 127 0"/>
<feMorphology radius="6" operator="erode" in="SourceAlpha" result="effect2_dropShadow"/>
<feOffset dy="8"/>
<feGaussianBlur stdDeviation="14"/>
<feColorMatrix type="matrix" values="0 0 0 0 0.0941176 0 0 0 0 0.152941 0 0 0 0 0.294118 0 0 0 0.12 0"/>
<feBlend mode="normal" in2="effect1_dropShadow" result="effect2_dropShadow"/>
<feBlend mode="normal" in="SourceGraphic" in2="effect2_dropShadow" result="shape"/>
</filter>
<linearGradient id="paint0_linear" x1="290.265" y1="199.596" x2="538.362" y2="362.395" gradientUnits="userSpaceOnUse">
<stop stop-color="#B6B6B6"/>
<stop offset="1" stop-color="#F8F8F5" stop-opacity="0.5"/>
</linearGradient>
<linearGradient id="paint1_linear" x1="381.598" y1="192.706" x2="381.598" y2="316.169" gradientUnits="userSpaceOnUse">
<stop stop-color="#FFA938"/>
<stop offset="1" stop-color="#FFA938" stop-opacity="0"/>
</linearGradient>
</defs>
</svg>
