<svg width="305" height="305" viewBox="0 0 305 305" fill="none" xmlns="http://www.w3.org/2000/svg">
<path d="M49.9508 197.08C50.062 196.975 50.1783 196.874 50.2859 196.766L50.1978 196.946L49.9508 197.08ZM44.0648 170.618C44.0023 170.594 43.9531 170.567 43.9106 170.538C43.6113 170.758 43.306 170.97 43.015 171.199C41.7141 172.22 40.4501 173.389 39.3311 174.683C41.7361 177.458 42.3494 182.01 42.4416 185.486C42.5195 188.411 42.3607 192.15 40.3619 194.525C40.2543 194.851 40.1734 195.088 40.1396 195.186C41.6408 195.272 44.1278 197.561 45.4615 198.93C56.7729 193.45 55.9598 175.153 44.0648 170.618ZM121.871 121.031C122.214 121.127 121.855 121.429 121.712 121.506C121.409 121.667 121.006 121.767 120.668 121.672C120.216 121.545 119.807 121.369 119.441 121.158C119.893 122.74 122.218 123.614 125.076 123.997C125.29 123.978 125.476 123.994 125.549 124.055C130.124 124.574 135.81 123.916 137.358 122.934C137.665 122.738 138.101 122.778 138.38 122.93C139.854 122.373 141.318 121.696 142.55 120.754C143.202 120.257 144.248 119.377 143.989 118.421C143.842 117.879 143.483 117.476 143.048 117.153C141.433 119.409 137.686 120.162 134.981 120.195C133.977 120.207 134.914 119.261 135.531 119.253C137.832 119.226 140.902 118.57 141.963 116.524C141.88 116.483 141.796 116.443 141.715 116.404C141.617 116.357 141.851 116.188 142.164 116.049C142.275 115.716 142.339 115.354 142.344 114.956C139.747 116.589 136.496 117.209 133.538 116.27C132.721 116.011 132.112 115.633 131.662 115.174C131.245 115.666 130.681 115.977 129.973 115.991C129.906 115.993 129.825 115.989 129.741 115.978C126.953 117.164 122.907 117.408 119.498 116.422C118.354 118.493 119.66 120.411 121.871 121.031ZM138.889 123.311C138.797 123.344 138.706 123.379 138.614 123.412C138.606 123.428 138.6 123.444 138.589 123.461L138.889 123.311ZM157.463 121.606C155.357 120.648 153.147 119.865 150.957 119.635C152.471 120.082 155.025 120.843 157.463 121.606ZM178.705 118.026C177.45 116.204 176.609 114.1 176.9 112.037C173.92 114.163 170.116 113.536 166.454 112.034C159.808 109.308 152.498 106.846 146.579 111.261C145.829 112.238 144.969 113.154 143.982 113.981C143.939 114.016 143.88 114.048 143.812 114.075C143.889 114.844 143.803 115.523 143.588 116.124C144.517 116.603 145.505 117.286 145.497 118.404C145.493 118.958 145.172 119.457 144.779 119.879L144.796 119.877C152.242 116.142 159.774 122.092 166.656 124.971C171.755 127.105 183.278 130.056 183.625 121.545C181.631 121.525 179.711 119.484 178.705 118.026ZM100.957 101.903C98.5245 101.987 96.1753 102.549 93.8194 103.136C92.9341 103.358 92.7496 102.69 93.6401 102.468C96.0846 101.857 98.5239 101.289 101.038 101.147C101.21 99.7711 101.535 98.3821 102.024 96.9952C98.4005 96.4474 94.2734 95.9202 91.8243 99.2583C91.7684 99.3346 91.6721 99.3997 91.5558 99.4524C91.5537 99.4632 91.5553 99.4729 91.5522 99.4847C90.5598 103.459 90.6776 107.386 91.5271 111.381C92.4709 115.818 93.4485 120.553 95.3463 124.693C97.2149 128.769 99.7367 132.553 102.673 135.94C103.685 137.108 104.724 138.262 105.856 139.317C105.945 139.399 106.036 139.481 106.124 139.563C106.337 138.845 106.617 137.857 106.938 136.624C107.758 130.826 109.39 124.18 113.463 121.169C105.174 117.986 100.242 110.273 100.957 101.903ZM90.3266 99.2716C90.3553 99.2526 90.3845 99.2347 90.4163 99.2178C90.4224 99.2086 90.425 99.2009 90.4317 99.1906C90.5095 99.0846 90.5946 98.9939 90.675 98.8935C90.465 99.0103 90.3338 99.0846 90.3338 99.0846L90.3266 99.2716ZM143.474 131.01C143.471 131.102 143.439 131.206 143.358 131.325C139.942 136.333 138.766 142.733 138.085 148.651C137.823 150.933 137.632 153.221 137.51 155.515C137.565 157.295 137.594 159.008 137.486 160.492C137.519 161.759 137.504 163.027 137.219 164.127C136.501 166.892 131.388 165.934 129.569 165.549C128.265 165.273 126.921 164.949 125.589 164.553C125.588 165.627 125.576 166.72 125.258 167.754C125.125 168.188 123.656 168.395 123.784 167.979C124.099 166.952 124.104 165.877 124.104 164.813C124.104 164.572 124.445 164.392 124.8 164.305C122.81 163.664 120.879 162.839 119.172 161.733C119.253 163.428 118.921 165.182 118.435 166.81C118.303 167.254 117.281 167.47 117.001 167.22L116.957 167.414C122.992 168.903 129.206 169.745 135.407 169.953C141.759 170.165 147.881 169.823 153.753 167.36C154.136 167.142 154.474 166.943 154.743 166.781C157.306 157.914 161.835 121.426 143.474 131.01ZM128.269 170.132C131.34 170.605 134.124 170.94 135.252 170.816C135.831 170.751 136.606 170.687 137.496 170.62C137.469 170.62 137.442 170.62 137.414 170.62C134.365 170.597 131.31 170.436 128.269 170.132ZM149.256 169.45C149.734 169.313 150.267 169.106 150.813 168.866C149.33 169.306 147.839 169.655 146.331 169.921C147.586 169.783 148.632 169.627 149.256 169.45Z" fill="#212121"/>
<path d="M124.148 113.145C123.896 113.033 124.549 112.731 124.588 112.717C124.87 112.614 125.257 112.507 125.546 112.637C125.599 112.661 125.645 112.672 125.681 112.678C125.683 112.677 125.684 112.676 125.686 112.675C125.845 112.561 125.986 112.43 126.125 112.295C126.367 112.06 126.796 111.964 127.118 111.938C127.257 111.927 127.714 111.952 127.471 112.189C126.633 113.002 125.304 113.662 124.148 113.145ZM267.04 206.579C257.134 206.579 247.229 206.579 237.323 206.579C236.74 206.579 235.752 207.464 236.757 207.464C246.663 207.464 256.569 207.464 266.474 207.464C267.057 207.464 268.045 206.579 267.04 206.579ZM235.75 219.825C229.281 219.826 222.816 219.882 216.388 220.612C215.809 222.275 214.037 223.912 212.583 224.806C212.561 224.819 212.538 224.831 212.516 224.845C212.324 225.007 212.13 225.17 211.917 225.33C209.11 227.435 202.24 228.797 200.491 228.797C198.771 228.797 192.17 227.152 191.89 227.082L175.981 221.099C169.365 218.76 162.777 216.339 156.279 213.69L154.999 213.209C144.616 213.099 134.311 214.349 123.954 214.847C114.648 215.296 105.347 214.802 96.0641 214.09C79.8222 212.844 63.3646 210.414 48.5383 203.422C50.2742 207.035 50.9008 211.391 47.5541 214.031C43.6524 217.109 40.2549 212.013 39.6262 208.689C39.1728 206.289 38.663 203.889 38.3751 201.462C38.2044 200.028 37.7894 198.021 38.496 196.659C38.5078 196.636 38.5257 196.614 38.5441 196.592C35.1805 192.739 32.8215 187.507 34.0025 182.314C34.6199 179.598 35.8809 177.119 37.5701 174.954C35.5253 174.651 31.9188 170.766 31.5268 170.269C28.5715 166.523 25.7432 159.725 30.3099 156.123C34.2116 153.044 37.6091 158.14 38.2377 161.465C38.6912 163.865 39.201 166.264 39.4889 168.691C39.6273 169.853 39.9152 171.384 39.6488 172.651C40.4045 171.919 41.2069 171.235 42.0523 170.609C51.2876 163.759 63.3477 160.953 74.695 161.191C74.8154 161.194 74.9076 161.21 74.9773 161.238C81.179 159.119 85.9557 153.658 92.9285 153.77C93.2887 153.777 93.6437 153.795 93.9973 153.817C93.5136 149.16 97.6622 143.106 102.369 142.679C103.503 142.576 104.87 142.623 106.241 142.853C106.282 142.434 106.325 141.993 106.371 141.529C104.918 141.019 103.192 138.685 102.47 137.889C99.3668 134.465 96.6698 130.706 94.5701 126.585C92.2558 122.044 91.0317 116.755 90.0423 111.779C89.2246 107.668 89.0299 103.709 90.0531 99.6156C90.0869 99.4778 90.1909 99.3635 90.3262 99.2723C90.3549 99.2534 90.3841 99.2354 90.4158 99.2185C90.422 99.2093 90.4246 99.2016 90.4312 99.1914C90.5091 99.0853 90.5942 98.9946 90.6746 98.8942C90.7315 98.824 90.7883 98.7533 90.8462 98.6857C90.5234 98.7815 90.1689 98.7641 90.0352 98.5545C87.6086 94.7543 85.6334 89.2792 86.0146 84.7115C86.1356 83.262 86.5306 81.8935 87.9765 81.3078C88.7097 81.0112 89.3573 81.2274 89.9173 81.6608C89.8323 80.7437 89.9347 79.8681 90.4671 79.1303C91.5779 77.5901 93.1452 77.7858 94.4128 78.6645C94.6721 77.7341 95.1731 76.9338 96.1118 76.426C98.0864 75.3572 99.4493 76.5833 100.1 78.2347C100.658 77.3857 101.497 76.8062 102.761 76.7708C106.45 76.6663 104.658 83.5228 104.839 85.997C106.414 84.6961 108.078 83.7872 110.34 84.9574C110.439 85.0091 110.527 85.1039 110.492 85.2264C109.234 89.6455 105.167 92.0823 103.417 96.2053C103.414 96.2115 103.409 96.2161 103.406 96.2217C103.556 96.2694 103.597 96.3493 103.567 96.442C103.574 96.4564 103.575 96.4728 103.569 96.4912C99.9361 106.405 104.803 116.678 114.477 120.518C115.48 119.979 116.611 119.641 117.891 119.556C117.431 118.576 117.504 117.385 118.309 116.17C118.334 116.134 118.375 116.099 118.424 116.066C115.46 114.924 113.2 112.73 113.084 109.266C112.511 109.347 111.953 109.277 111.462 108.998C110.173 109.518 108.784 109.467 107.957 108.096C105.961 104.785 108.827 94.9859 113.458 94.8368C113.77 94.1082 114.075 93.332 114.398 92.5609C114.385 92.4476 114.44 92.3216 114.544 92.2114C115.088 90.9464 115.702 89.7214 116.533 88.7858C118.528 86.5406 121.019 84.8155 123.931 83.9844C129.166 82.4883 136.512 82.4683 141.395 85.2192C150.158 90.1558 152.481 101.335 147.814 109.412C151.059 107.795 154.808 107.393 158.608 108.131C161.602 108.713 164.211 109.873 167.011 111.022C170.71 112.539 174.756 113.788 177.494 109.928C177.548 109.852 177.64 109.787 177.751 109.734C177.777 109.694 177.797 109.654 177.824 109.614C178.107 109.186 179.609 109.073 179.213 109.672C177.676 111.994 178.289 114.838 179.8 117.028C180.51 118.059 182.695 121.109 184.267 120.629C184.853 120.449 185.132 120.733 185.012 121.024C185.079 121.081 185.12 121.157 185.117 121.262C184.908 128.389 176.92 128.682 171.565 127.563C168.131 126.845 165.161 125.593 162.08 123.949C160.639 123.181 159.081 122.343 157.461 121.607C155.355 120.649 153.145 119.866 150.955 119.637C148.897 119.422 146.859 119.702 144.94 120.783C145.12 120.741 145.284 120.73 145.39 120.78C148.089 122.084 150.523 124.171 152.588 126.318C154.499 128.304 156.608 130.602 157.169 133.386C157.194 133.509 156.994 133.636 156.734 133.731C157.477 135.345 157.926 137.127 158.218 138.823C158.536 140.669 158.742 142.564 158.855 144.483C158.895 144.48 158.931 144.48 158.96 144.486C159.297 144.55 159.627 144.631 159.949 144.727C160.061 144.694 160.172 144.676 160.268 144.686C164.541 145.093 169.828 148.172 172.593 152.284C175.477 152.284 178.361 152.284 181.245 152.284C182.249 152.284 181.238 153.143 180.672 153.143C178.157 153.143 175.641 153.143 173.125 153.143C173.246 153.358 173.362 153.574 173.469 153.794C176.625 156.978 181.626 158.816 185.553 160.061C191.265 161.872 197.363 163.146 203.394 163.063C212.303 158.58 213.025 145.236 224.098 143.819C227.787 143.347 235.326 143.824 236.108 148.546C236.605 151.547 236.773 154.527 236.686 157.497C241.69 157.497 246.692 157.497 251.696 157.497C252.689 157.497 251.525 158.177 251.075 158.177C246.27 158.177 241.465 158.177 236.66 158.177C236.518 161.548 236.053 164.907 235.367 168.272C240.959 169.683 245.232 174.972 249.599 178.354C249.77 178.356 249.896 178.393 249.911 178.482C250.455 181.728 243.966 182.38 242.039 182.144C239.529 181.837 236.856 180.539 234.504 179.681C234.099 179.533 233.156 179.216 231.948 178.778C230.213 182.545 227.786 185.518 224.769 188.202C224.789 188.245 224.755 188.308 224.63 188.399C224.47 188.516 224.304 188.623 224.143 188.739C223.877 188.967 223.616 189.197 223.341 189.421C223.265 189.483 223.118 189.537 222.951 189.573C215.425 194.814 207.308 199.069 198.803 202.513C198.565 202.609 198.268 202.63 198.07 202.594C200.594 204.727 203.048 206.936 205.519 209.128C208.602 211.185 211.806 213.502 213.648 215.993C214.092 216.339 214.537 216.683 214.988 217.021C215.044 217.063 215.068 217.11 215.069 217.159C216.166 217.862 216.59 218.711 216.575 219.597C223.118 218.857 229.696 218.815 236.28 218.814C237.285 218.811 236.417 219.825 235.75 219.825ZM213.864 222.615C214.245 222.029 214.491 221.433 214.607 220.828C214.545 220.836 214.483 220.841 214.421 220.85C213.406 220.989 213.782 219.944 214.572 219.836C214.61 219.831 214.649 219.827 214.688 219.822C214.661 219.255 214.525 218.692 214.299 218.133C214.068 217.92 213.793 217.715 213.454 217.519C213.439 217.51 213.438 217.497 213.443 217.48C209.114 214.213 205.18 210.474 201.154 206.85C200.457 206.374 199.823 205.923 199.297 205.505C194.181 201.451 186.711 195.671 180.87 191.465C177.064 189.012 173.041 186.99 168.536 186.272C161.931 185.219 154.905 185.98 148.371 187.172C147.41 187.347 146.412 187.532 145.398 187.734C142.317 188.482 139.078 189.336 136.373 190.226C134.096 191.135 131.975 192.297 130.214 193.838C130.211 193.841 130.207 193.843 130.204 193.845C129.095 195.931 130.664 198.112 132.23 199.594C134.394 201.64 136.903 203.357 139.557 204.87L142.558 206.473C145.123 207.768 147.75 208.927 150.273 210.048C152.265 210.934 154.269 211.791 156.283 212.624C156.288 212.624 156.294 212.624 156.299 212.624C156.468 212.627 156.518 212.661 156.497 212.711C162.436 215.162 168.459 217.412 174.506 219.577C180.108 221.583 185.785 223.406 191.352 225.507C197.236 227.728 203.723 228.666 209.615 225.792C210.797 225.215 212.631 224.008 213.864 222.615ZM160.798 184.912C159.352 184.922 158.076 184.996 157.016 185.132C158.276 185.021 159.538 184.947 160.798 184.912ZM173.45 186.544C173.019 186.317 172.667 186.16 172.415 186.091C171.791 185.921 171.027 185.762 170.17 185.619C171.294 185.863 172.385 186.174 173.45 186.544ZM231.332 178.55C229.669 177.936 227.635 177.131 225.79 176.236C223.561 177.756 220.99 178.887 218.582 180.065C214.359 182.132 210.09 184.11 205.789 186.01C201.352 187.971 196.887 189.895 192.336 191.578C190.371 192.305 188.255 193.209 186.13 193.62C187.737 194.753 189.331 195.91 190.938 197.034C193.346 198.719 195.634 200.539 197.867 202.419C197.897 202.346 198.019 202.253 198.284 202.146C206.735 198.724 214.786 194.453 222.241 189.208C225.792 186.299 228.569 183.158 230.496 178.953C230.591 178.745 230.977 178.602 231.332 178.55ZM234.339 169.119C230.925 168.425 225.439 168.839 222.382 170.922C222.388 170.933 222.389 170.945 222.38 170.958C220.675 173.647 230.911 177.255 232.335 177.813C234.706 178.743 237.102 179.606 239.515 180.419C240.278 180.675 241.042 180.928 241.806 181.178C243.699 181.8 248.555 181.712 248.456 179.157C245.955 177.223 243.803 174.875 241.208 173.063C239.089 171.585 236.946 169.65 234.339 169.119ZM163.139 146.362C165.016 147.816 166.302 149.918 166.682 152.282C167.934 152.282 169.187 152.282 170.439 152.282C170.273 152.02 170.113 151.755 169.971 151.478C169.96 151.456 169.964 151.432 169.977 151.406C168.176 149.179 165.728 147.377 163.139 146.362ZM158.903 145.361C159.205 152.324 158.24 159.576 156.363 166.097C160.031 164.052 164.116 160.573 164.999 156.513C165.249 155.364 165.296 154.23 165.178 153.141C165.126 153.141 165.075 153.141 165.023 153.141C164.294 153.141 164.628 152.689 165.081 152.441C164.488 149.163 162.268 146.434 158.903 145.361ZM135.408 169.952C141.759 170.164 147.882 169.822 153.753 167.359C154.068 167.227 154.383 167.084 154.698 166.94C154.713 166.888 154.728 166.833 154.744 166.78C157.305 157.913 161.835 121.425 143.474 131.01C143.471 131.101 143.439 131.205 143.358 131.324C139.942 136.333 138.766 142.733 138.085 148.651C137.823 150.932 137.632 153.221 137.51 155.515C137.478 156.106 137.448 156.699 137.426 157.291C137.39 158.284 137.456 159.388 137.486 160.492C137.52 161.759 137.504 163.026 137.219 164.127C136.501 166.892 131.388 165.934 129.569 165.549C128.265 165.273 126.921 164.949 125.589 164.553C125.588 165.627 125.576 166.72 125.258 167.754C125.125 168.188 123.656 168.395 123.784 167.978C124.099 166.952 124.104 165.877 124.104 164.813C124.104 164.572 124.445 164.391 124.8 164.305C122.81 163.664 120.879 162.838 119.172 161.733C119.253 163.427 118.921 165.181 118.435 166.81C118.303 167.253 117.281 167.47 117.001 167.219C116.938 167.163 116.912 167.082 116.945 166.974C118.537 161.63 117.361 155.525 110.579 155.638C109.908 155.649 106.244 155.544 106.953 157.11C107.285 157.843 107.958 158.424 108.621 158.853C110.361 159.978 112.317 160.728 114.391 160.904C115.396 160.989 114.449 161.871 113.832 161.818C112.576 161.712 111.102 161.413 109.722 160.889C109.023 160.724 108.12 160.599 107.975 161.374C107.851 162.034 108.158 162.739 108.518 163.279C109.609 164.919 111.4 166.008 113.309 166.403C113.371 166.416 113.404 166.438 113.426 166.463C114.595 166.807 115.773 167.122 116.959 167.414C122.993 168.903 129.207 169.744 135.408 169.952ZM106.868 160.95C107.207 160.573 107.722 160.354 108.31 160.247C107.375 159.741 106.549 159.108 105.961 158.328C104.523 156.421 106.368 155.342 108.163 154.958C108.164 154.957 108.165 154.957 108.166 154.957C108.168 153.502 108.299 151.7 107.598 150.378C106.928 149.112 104.697 147.883 103.251 148.349C101.288 148.981 100.289 152.692 100.521 154.565C100.552 154.815 100.276 155.02 99.955 155.128C102.769 156.287 105.139 158.206 106.868 160.95ZM144.071 121.314C143.751 121.459 143.242 121.436 143.052 121.278C141.777 122.124 140.332 122.771 138.889 123.31C138.797 123.344 138.705 123.379 138.613 123.412C138.605 123.428 138.6 123.444 138.589 123.461C138.542 123.531 138.468 123.601 138.358 123.672C136.55 124.821 130.259 125.733 125.11 125.226C124.736 125.904 124.262 126.561 123.908 127.186C122.658 129.396 121.467 131.642 120.424 133.957C119.561 135.874 118.78 137.824 118.097 139.801C123.615 141.86 129.39 143.079 135.405 143.14C136.162 143.148 134.802 143.803 134.456 143.799C128.681 143.742 123.114 142.627 117.78 140.736C116.226 145.478 115.264 150.385 115.186 155.427C116.08 155.809 116.878 156.345 117.483 157.082C118.358 158.146 118.841 159.351 119.052 160.614C119.336 160.493 119.674 160.461 119.889 160.609C122.924 162.71 127.019 163.969 130.625 164.582C131.55 164.74 135.653 165.605 135.782 163.983C135.937 162.034 135.824 160.044 135.897 158.088C136.231 149.058 136.862 138.599 142.116 130.894C142.213 130.754 142.372 130.662 142.55 130.615C145.652 128.988 149.978 127.402 153.257 129.505C153.511 129.667 153.748 129.847 153.978 130.033C153.028 128.662 151.839 127.422 150.721 126.343C148.735 124.426 146.568 122.539 144.071 121.314ZM120.866 109.705C121.342 110.311 121.807 110.519 122.25 110.463C122.141 110.34 122.039 110.201 121.945 110.045C120.325 107.356 121.909 100.384 125.042 97.7783C121.621 97.0784 119.01 107.346 120.866 109.705ZM125.577 98.6647C123.316 101.13 122.029 107.78 123.446 109.671C124.567 108.33 125.376 105.699 125.53 104.83C125.877 102.878 126.153 100.624 125.577 98.6647ZM124.069 110.271C126.105 111.558 127.834 106.347 128.117 104.907C128.007 104.847 127.95 104.748 128.063 104.601C128.097 104.557 128.145 104.524 128.189 104.488C128.538 102.433 128.776 100.092 128.008 98.1272C127.979 98.0524 127.996 97.9781 128.041 97.9079C127.654 97.7332 127.276 97.7009 126.912 97.7901C128.116 100.961 127.343 106.064 125.51 108.834C125.179 109.335 124.665 109.845 124.069 110.271ZM129.834 104.21C130.555 104.21 131.278 104.21 132 104.21C132.24 100.921 131.375 97.6481 128.386 95.5638C125.797 93.7588 122.715 93.0983 119.594 92.899C119.204 93.5795 118.709 94.205 118.388 94.9213C118.319 95.074 118.112 95.1929 117.876 95.2615C117.904 95.2749 117.93 95.2836 117.958 95.2979C118.155 95.4014 118.14 95.5357 118.019 95.6622C118.057 95.694 118.09 95.7304 118.108 95.778C118.873 97.7368 118.867 100.454 118.316 102.903C118.661 102.928 119.006 102.961 119.349 103.012C120.499 99.2283 123.08 95.8026 126.266 97.0364C127.206 96.6593 128.241 96.6705 129.343 97.2495C129.54 97.353 129.525 97.4873 129.404 97.6138C129.442 97.6456 129.475 97.6819 129.493 97.7296C130.192 99.5172 130.248 101.939 129.834 104.21ZM116.751 102.852C117.127 100.725 117.429 98.2415 116.623 96.1761C116.594 96.1013 116.611 96.027 116.656 95.9568C116.269 95.7816 115.891 95.7498 115.525 95.839C116.282 97.831 116.258 100.583 115.682 103.043C115.953 102.922 116.264 102.85 116.55 102.85C116.618 102.849 116.684 102.852 116.751 102.852ZM114.191 96.7141C111.931 99.1796 110.644 105.827 112.06 107.72C113.182 106.378 113.99 103.747 114.144 102.879C114.49 100.926 114.767 98.6729 114.191 96.7141ZM119.497 116.422C118.355 118.493 119.66 120.41 121.871 121.031C122.214 121.127 121.855 121.429 121.712 121.505C121.409 121.667 121.007 121.767 120.668 121.671C120.216 121.545 119.807 121.369 119.441 121.157C119.893 122.74 122.218 123.614 125.076 123.997C125.29 123.978 125.476 123.994 125.549 124.055C130.124 124.573 135.81 123.916 137.358 122.933C137.665 122.738 138.101 122.778 138.38 122.93C139.854 122.373 141.318 121.695 142.55 120.754C143.202 120.257 144.248 119.377 143.989 118.42C143.842 117.878 143.483 117.476 143.048 117.153C141.433 119.409 137.686 120.162 134.981 120.195C133.978 120.206 134.914 119.261 135.532 119.253C137.832 119.225 140.902 118.57 141.963 116.524C141.88 116.483 141.796 116.443 141.715 116.404C141.617 116.357 141.852 116.188 142.164 116.049C142.275 115.716 142.339 115.354 142.344 114.955C139.747 116.589 136.496 117.209 133.538 116.269C132.721 116.01 132.112 115.633 131.662 115.174C131.245 115.665 130.681 115.977 129.973 115.991C129.906 115.992 129.825 115.989 129.741 115.977C126.952 117.164 122.906 117.407 119.497 116.422ZM166.656 124.97C171.755 127.104 183.278 130.056 183.625 121.545C181.631 121.524 179.711 119.484 178.705 118.025C177.449 116.204 176.609 114.1 176.899 112.036C173.92 114.163 170.115 113.536 166.453 112.034C159.807 109.308 152.497 106.846 146.578 111.261C145.829 112.238 144.969 113.154 143.981 113.981C143.939 114.016 143.88 114.047 143.811 114.075C143.889 114.844 143.802 115.523 143.588 116.123C144.516 116.603 145.504 117.286 145.497 118.404C145.492 118.957 145.171 119.457 144.778 119.879C144.775 119.883 144.773 119.886 144.77 119.889C144.778 119.885 144.786 119.881 144.795 119.878C152.241 116.141 159.774 122.091 166.656 124.97ZM116.24 91.9143C122.269 91.8133 130.21 92.4635 132.77 98.8327C133.58 100.848 133.672 102.566 133.453 104.291C133.559 104.352 133.614 104.449 133.503 104.595C133.474 104.631 133.434 104.658 133.399 104.689C133.17 106.183 132.733 107.698 132.345 109.431C131.874 111.535 131.566 114.117 133.977 115.185C136.953 116.504 140.454 115.519 142.784 113.385C142.836 113.337 142.906 113.298 142.987 113.266C143.007 113.206 143.044 113.139 143.109 113.064C143.855 112.207 144.664 111.458 145.526 110.813C150.653 103.72 149.674 93.0855 142.4 87.3881C138.068 83.9947 131.347 83.1744 126.047 84.2298C122.722 84.8923 118.989 86.6195 117.314 89.7552C116.935 90.4648 116.584 91.1883 116.24 91.9143ZM114.771 95.0443C114.807 95.0571 114.844 95.0709 114.88 95.0853C115.537 94.8209 116.241 94.7502 116.981 94.928C116.988 94.908 116.991 94.8901 117 94.8691C117.322 94.1492 117.82 93.5216 118.211 92.8381C117.404 92.8181 116.599 92.8206 115.804 92.837C115.462 93.5738 115.12 94.3106 114.771 95.0443ZM110.865 108.512C110.757 108.389 110.655 108.25 110.56 108.094C108.973 105.459 110.464 98.72 113.471 95.9973C113.217 96.005 113.02 95.9502 113.026 95.819C109.927 96.379 107.742 105.543 109.481 107.754C109.957 108.359 110.423 108.568 110.865 108.512ZM113.117 108.501C113.263 108.226 113.931 108.07 114.309 108.088C115.419 107.107 116.283 104.715 116.62 103.435C116.277 103.422 115.933 103.415 115.586 103.415C115.243 104.728 114.747 105.941 114.124 106.882C113.793 107.383 113.28 107.894 112.683 108.319C112.83 108.411 112.974 108.472 113.117 108.501ZM128.968 115.701C129.045 115.667 129.168 115.641 129.303 115.624C129.303 115.604 129.299 115.588 129.303 115.566C129.357 115.227 129.825 115.007 130.13 115.001C130.172 115 130.215 114.996 130.258 114.993C130.258 114.988 130.294 114.977 130.31 114.977C130.46 114.822 130.534 114.685 130.649 114.459C130.716 114.329 130.837 114.236 130.973 114.165C130.13 112.313 130.777 109.759 131.375 107.663C131.623 106.793 131.81 105.893 131.922 104.986C131.172 104.986 130.421 104.986 129.671 104.986C129.329 106.445 128.794 107.802 128.111 108.834C127.126 110.321 124.561 111.925 122.849 110.947C121.559 111.467 120.17 111.416 119.343 110.045C118.518 108.674 118.527 106.191 119.147 103.74C119.107 103.737 119.065 103.74 119.028 103.731C118.735 103.661 118.443 103.607 118.151 103.564C117.809 104.82 117.326 105.977 116.727 106.882C116.55 107.149 116.318 107.418 116.054 107.677C116.138 107.728 116.182 107.805 116.155 107.917C116.052 108.351 115.946 108.867 116.177 109.282C116.374 109.637 116.8 109.792 117.169 109.89C117.462 109.967 117.554 110.191 117.308 110.408C117.054 110.63 116.593 110.777 116.258 110.689C115.671 110.534 115.043 110.312 114.732 109.751C114.692 109.679 114.661 109.606 114.636 109.53C115.489 115.519 123.975 117.884 128.968 115.701ZM117.833 120.566C112.879 120.82 110.693 126.873 109.638 130.975C109.231 132.553 108.909 134.145 108.641 135.747C108.89 135.674 109.138 135.647 109.279 135.724C111.747 137.087 114.276 138.297 116.862 139.327C117.412 137.801 118.021 136.295 118.688 134.814C119.822 132.298 121.075 129.84 122.442 127.442C122.868 126.694 123.467 125.893 123.854 125.068C120.273 124.524 117.547 123.174 117.833 120.566ZM91.4529 98.0473C94.2842 95.3799 98.3001 95.5065 102.105 96.0229C103.838 92.3795 107.705 89.9842 108.823 86.0559C109.387 84.0777 105.928 86.163 105.497 86.5401C104.868 87.0909 104.268 87.678 103.625 88.213C102.622 89.0481 101.603 89.7326 100.336 90.0846C99.4447 90.3321 99.2464 89.581 100.134 89.334C101.535 88.9446 102.713 87.8707 103.884 86.825C103.628 86.8578 103.417 86.8393 103.396 86.7363C103.121 85.357 103.371 83.8789 103.452 82.4904C103.524 81.2504 103.832 79.3347 103.122 78.2121C102.002 76.4398 101.217 78.2762 100.931 79.4695C100.641 80.6797 100.501 81.9227 100.49 83.1667C100.486 83.5699 99.0036 83.7667 99.0051 83.5648C99.0143 82.5954 99.0646 81.4467 99.2864 80.3712C99.1322 80.3446 99.021 80.2749 99.0051 80.1494C98.878 79.1518 97.6351 75.3439 96.2799 77.5322C95.8618 78.2075 95.6911 79.0063 95.643 79.8476C95.725 79.9685 95.7101 80.091 95.6312 80.1991C95.6051 81.5409 95.8402 82.9597 95.8546 84.1427C95.8613 84.7099 94.3749 84.9933 94.3698 84.5408C94.3559 83.3286 94.1238 81.7802 94.1776 80.3256C93.6304 79.6483 92.0949 78.021 91.6594 79.6314C91.4375 80.4496 91.4508 81.2812 91.5805 82.1168C91.7664 83.3168 92.2101 84.5219 92.2727 85.7352C92.3039 86.3515 90.815 86.6702 90.7878 86.1333C90.7648 85.6834 90.6705 85.1936 90.5527 84.6848C90.4584 84.6551 90.38 84.6069 90.3323 84.5306C89.4183 83.0714 87.7792 81.3068 87.5461 84.1002C87.4149 85.6701 87.5943 87.2553 87.9263 88.7929C88.6123 91.9686 89.6478 95.1893 91.4073 97.9438C91.4278 97.9786 91.4431 98.0135 91.4529 98.0473ZM106.534 139.928C106.645 138.884 106.777 137.77 106.939 136.624C107.758 130.826 109.39 124.18 113.464 121.169C105.174 117.986 100.242 110.273 100.957 101.903C98.524 101.987 96.1748 102.549 93.819 103.136C92.9336 103.357 92.7492 102.69 93.6396 102.467C96.0841 101.857 98.5235 101.289 101.037 101.147C101.21 99.7709 101.535 98.3818 102.023 96.9949C98.4 96.4472 94.2729 95.9199 91.8238 99.258C91.768 99.3343 91.6717 99.3994 91.5553 99.4522C91.5533 99.4629 91.5548 99.4727 91.5518 99.4844C90.5593 103.458 90.6772 107.386 91.5267 111.381C92.4704 115.818 93.448 120.552 95.3458 124.692C97.2144 128.769 99.7363 132.552 102.673 135.94C103.685 137.108 104.724 138.262 105.856 139.317C105.945 139.399 106.035 139.481 106.124 139.563C106.259 139.688 106.395 139.808 106.534 139.928ZM107.683 143.169C109.401 143.636 111 144.422 112.002 145.611C113.598 147.503 113.848 150.033 113.88 152.483C114.252 148.322 115.178 144.23 116.529 140.275C113.79 139.235 111.115 137.993 108.506 136.585C108.17 138.738 107.923 140.906 107.706 143.078C107.702 143.11 107.693 143.139 107.683 143.169ZM95.5159 153.708C95.5287 153.796 95.5 153.878 95.4468 153.952C96.6959 154.116 97.8897 154.393 99.0215 154.781C98.792 152.204 100.273 148.154 103.049 147.597C104.723 147.261 107.107 147.657 108.346 148.941C109.791 150.437 109.645 152.724 109.65 154.655C109.65 154.682 109.644 154.707 109.638 154.732C110.524 154.644 111.464 154.635 112.395 154.733C112.404 152.249 112.627 148.915 111.105 146.809C109.433 144.497 105.825 143.415 103.069 143.461C98.6977 143.533 94.8862 149.45 95.5159 153.708ZM45.0553 169.73C53.2469 172.929 56.3601 181.936 54.3598 189.531C54.4766 189.546 54.5775 189.583 54.6452 189.651C55.6924 190.707 57.6661 191.066 59.0377 191.43C61.7112 192.14 64.4282 192.684 67.1489 193.175C75.0577 194.603 83.0373 195.656 91.0189 196.578C99.2044 197.525 107.408 198.341 115.628 198.924C120.415 199.263 125.368 199.774 130.195 199.512C128.621 197.832 127.63 195.85 128.872 193.896C128.821 193.817 128.851 193.708 129.015 193.565C129.345 193.276 129.689 193.003 130.041 192.738C130.122 192.651 130.207 192.567 130.297 192.485C130.764 192.065 131.485 191.64 132.389 191.216C136.659 188.816 141.864 187.619 146.441 186.713C147.996 186.405 149.577 186.119 151.174 185.865C151.492 185.794 151.803 185.725 152.099 185.658C153.509 185.342 154.624 185.092 155.342 184.912C156.688 184.576 158.682 184.398 161.109 184.398C165.19 184.398 170.002 184.902 172.55 185.597C173.256 185.79 174.625 186.578 176.382 187.729C179.409 189.122 182.247 190.926 185.025 192.85C187.738 192.612 190.556 191.299 193.04 190.341C197.308 188.694 201.52 186.9 205.698 185.038C209.817 183.204 213.915 181.318 217.962 179.329C220.236 178.21 222.662 177.151 224.776 175.723C222.1 174.31 220.128 172.729 220.859 171.33C220.659 171.203 220.615 170.979 220.959 170.7C224.109 168.144 230.059 167.479 234.002 168.011C234.647 164.757 235.106 161.471 235.234 158.176C234.708 158.176 234.182 158.176 233.656 158.176C232.662 158.176 233.827 157.495 234.276 157.495C234.602 157.495 234.928 157.495 235.253 157.495C235.319 154.884 235.175 152.269 234.743 149.66C234.24 146.624 232.099 145.335 229.199 144.762C226.066 144.142 222.344 143.927 219.623 145.897C213.315 150.465 211.734 159.156 204.807 163.019C204.826 163.018 204.845 163.018 204.863 163.017C205.846 162.966 204.616 163.6 204.222 163.62C197.555 163.961 190.651 162.721 184.335 160.638C181.141 159.585 177.333 158.252 174.29 156.146C174.431 156.813 174.501 157.489 174.48 158.174C174.262 165.358 167.726 170.05 161.753 172.792C155.507 175.66 148.21 176.581 141.421 177.053C134.849 177.51 127.901 177.716 121.463 176.071C120.627 175.858 121.915 175.161 122.376 175.278C127.968 176.706 133.991 176.688 139.719 176.369C146.105 176.014 152.848 175.342 158.896 173.13C164.467 171.092 171.763 166.853 172.801 160.43C173.175 158.113 172.634 155.793 171.504 153.693C171.346 153.512 171.189 153.33 171.043 153.141C169.622 153.141 168.2 153.141 166.779 153.141C166.846 154.151 166.749 155.197 166.464 156.252C165.197 160.942 160.399 164.881 156.126 166.873C155.988 167.084 155.592 167.229 155.247 167.264C153.771 167.895 152.296 168.427 150.813 168.866C149.33 169.306 147.839 169.655 146.331 169.921C143.47 170.426 140.547 170.64 137.496 170.621C137.469 170.62 137.442 170.621 137.414 170.621C134.365 170.597 131.31 170.436 128.269 170.132C122.825 169.589 117.427 168.579 112.185 167.038C112.158 167.035 112.13 167.036 112.104 167.03C110.418 166.68 108.014 165.479 106.975 163.752C106.776 163.739 106.608 163.67 106.54 163.518C103.631 156.985 96.2686 153.004 89.136 155.056C83.6316 156.641 79.4917 160.986 73.8803 162.399C73.4305 162.512 73.1543 162.373 73.1041 162.178C63.5839 162.144 53.0886 164.337 45.0553 169.73ZM40.5383 195.698C40.4778 195.859 40.2529 195.986 39.9962 196.064C40.0264 196.098 40.0546 196.133 40.0848 196.167C40.2206 196.137 40.4122 196.035 40.5383 195.698ZM44.0643 170.617C44.0018 170.593 43.9526 170.566 43.9101 170.538C43.6109 170.757 43.3055 170.969 43.0145 171.199C41.7136 172.22 40.4496 173.389 39.3306 174.683C41.7356 177.458 42.3489 182.01 42.4412 185.485C42.5191 188.411 42.3602 192.15 40.3615 194.525C40.133 194.796 39.8747 195.046 39.596 195.279C39.7564 195.204 39.9383 195.174 40.1396 195.186C41.6409 195.272 44.1279 197.561 45.4616 198.93C56.7725 193.45 55.9594 175.153 44.0643 170.617ZM38.3592 174.004C38.3899 173.97 38.4196 173.936 38.4499 173.902C38.0958 173.94 37.7981 173.883 37.8904 173.704C39.0094 171.546 37.8463 167.729 37.4369 165.486C36.9563 162.852 36.8221 159.117 34.6553 157.245C31.2337 154.288 28.987 158.936 29.4738 161.935C29.8006 163.948 30.5031 165.786 31.4781 167.573C32.4347 169.325 33.7807 170.862 35.3127 172.14C35.8993 172.629 36.4921 173.127 37.1418 173.533C38.5928 174.44 37.6864 173.492 37.3262 174.456C37.4256 174.192 37.959 174.02 38.3592 174.004ZM38.7055 194.462C41.2945 192.121 41.1741 187.096 40.8221 183.972C40.5208 181.306 40.0156 178.135 38.3802 175.864C36.8293 177.941 35.6918 180.298 35.3757 182.884C34.8515 187.172 36.238 191.1 38.7055 194.462ZM46.2091 202.275C45.9534 202.144 45.6967 202.016 45.4416 201.882C45.3755 201.847 45.5446 201.72 45.7905 201.598C45.4739 201.117 45.1306 200.653 44.7606 200.211C44.2831 200.201 43.906 199.856 44.1868 199.557C43.6755 199.008 43.1272 198.493 42.5529 198.013C41.9662 197.524 41.3734 197.026 40.7237 196.62C40.4716 196.462 40.2944 196.363 40.1694 196.298C40.2452 196.5 40.0705 196.697 39.8117 196.826C38.9868 199.029 40.0423 202.549 40.4291 204.667C40.9097 207.301 41.044 211.036 43.2107 212.907C46.6323 215.864 48.879 211.217 48.3923 208.218C48.0654 206.205 47.3629 204.366 46.3879 202.58C46.3305 202.477 46.268 202.376 46.2091 202.275ZM153.441 212.623L151.898 212.043L150.481 211.285C144.935 208.925 139.419 206.328 134.471 202.957C134.074 202.686 133.602 202.364 133.099 201.998L132.018 201.42L131.989 201.389C131.953 201.351 131.679 201.053 131.315 200.588C131.208 200.493 131.102 200.399 130.997 200.302C125.729 200.715 120.305 200.172 115.059 199.794C106.458 199.174 97.8707 198.33 89.3076 197.315C81.3101 196.367 73.3024 195.334 65.3843 193.845C62.5827 193.319 59.7591 192.775 57.0277 191.946C56.0578 191.652 54.8911 191.355 53.9735 190.786C53.2034 193.007 51.9752 195.064 50.286 196.764C50.1784 196.873 50.0616 196.973 49.9509 197.079C48.8662 198.105 47.6089 198.991 46.1696 199.685C46.2465 199.773 46.3049 199.841 46.3382 199.884C46.7917 200.459 47.242 201.106 47.6632 201.802C63.7248 209.992 81.9157 212.513 99.7132 213.692C109.341 214.33 118.883 214.687 128.523 214.042C136.826 213.486 145.117 212.691 153.441 212.623ZM201.595 228.19C200.976 228.225 200.357 228.236 199.74 228.223C200.044 228.261 200.303 228.285 200.492 228.285C200.748 228.285 201.127 228.252 201.595 228.19ZM204.558 206.678C204.104 206.678 202.946 207.366 203.94 207.366C208.722 207.366 213.504 207.366 218.286 207.366C218.74 207.366 219.898 206.678 218.904 206.678C214.123 206.678 209.341 206.678 204.558 206.678ZM280.374 136.943C277.872 136.943 275.37 136.943 272.87 136.943C275.127 133.502 275.653 129.553 271.324 126.969C269.254 125.734 266.594 125.082 263.949 125.058C264.136 124.939 264.265 124.777 264.249 124.588C263.712 118.282 259.221 112.301 252.654 111.476C251.172 111.29 249.79 111.376 248.52 111.688C244.927 101.842 231.202 103.144 226.398 109.65C222.109 108.463 217.608 108.724 213.762 111.201C209.716 113.807 208.296 118.47 208.616 123.026C204.821 122.201 200.803 122.41 197.334 124.298C192.274 127.051 192.025 132.623 193.871 137.477C187.815 137.477 181.758 137.477 175.702 137.477C175.038 137.477 174.165 138.485 175.169 138.485C181.613 138.485 188.057 138.485 194.501 138.485C194.933 138.485 195.451 138.058 195.485 137.76C195.537 137.673 195.552 137.577 195.511 137.476C193.742 133.131 193.413 128.127 197.709 125.205C200.834 123.08 205.05 123.158 208.729 124.153C208.739 124.225 208.744 124.299 208.755 124.372C208.799 124.67 209.38 124.655 209.803 124.472C210.454 124.686 211.085 124.923 211.679 125.182C212.192 125.405 213.527 124.69 212.842 124.391C211.979 124.016 211.085 123.691 210.171 123.421C209.707 119.432 210.523 115.508 213.476 112.593C216.758 109.355 221.66 109.261 225.82 110.533C224.373 113.056 224.211 116.229 226.247 119.768C226.452 120.126 227.843 119.565 227.731 119.37C225.986 116.336 225.852 113.216 227.059 110.635C227.534 110.469 227.975 110.145 227.582 110.01C227.525 109.99 227.468 109.975 227.411 109.956C228.491 108.103 230.308 106.582 232.754 105.655C238.766 103.377 244.951 106.404 247.06 112.163C243.379 113.677 240.825 117.231 239.747 121.492C239.593 122.099 241.098 121.883 241.238 121.33C242.186 117.584 244.306 114.434 247.348 113.067C247.372 113.153 247.398 113.237 247.421 113.324C247.501 113.638 248.988 113.249 248.905 112.926C248.874 112.805 248.838 112.69 248.804 112.572C250.265 112.222 251.896 112.253 253.677 112.769C259.06 114.327 262.311 119.653 262.764 124.986C262.767 125.023 262.778 125.056 262.794 125.085C260.839 125.205 258.942 125.673 257.356 126.525C256.462 127.005 257.273 127.733 257.998 127.344C261.5 125.464 266.316 125.886 269.803 127.595C274.236 129.769 273.57 133.693 271.336 136.963C270.819 137.078 270.084 137.666 270.774 137.73C270.512 138.065 270.236 138.391 269.95 138.704C269.323 139.389 270.756 139.565 271.18 139.1C271.582 138.662 271.96 138.206 272.312 137.737C274.803 137.737 277.294 137.737 279.785 137.737C280.308 137.738 281.376 136.943 280.374 136.943ZM49.0947 141.739C49.127 141.735 49.1588 141.732 49.1911 141.728C49.5589 141.684 50.8096 141.034 49.8397 141.15C49.6348 141.174 49.4288 141.192 49.2238 141.215C47.9342 138.066 47.7764 134.713 50.161 132.044C52.7069 129.195 56.9083 129.57 60.1059 131.042C60.0977 131.067 60.0875 131.09 60.0793 131.114C59.8764 131.734 60.6982 131.851 61.1834 131.599C61.2024 131.61 61.2234 131.62 61.2424 131.631C61.827 131.974 63.1151 131.185 62.3813 130.752C62.1938 130.642 62.0017 130.537 61.8085 130.434C65.5191 121.578 79.5542 120.56 85.7252 127.416C85.7457 127.439 85.7702 127.457 85.7943 127.475C82.7171 129.794 80.6394 133.052 80.5318 137.401C80.5129 138.16 82.0167 137.925 82.0331 137.279C82.1827 131.266 86.2222 127.439 91.6614 125.535C92.5411 125.226 92.2993 124.237 91.398 124.552C89.8184 125.105 88.3269 125.807 86.9774 126.657C80.2152 119.33 64.8935 120.439 60.5835 129.851C57.4201 128.51 53.7542 128.235 50.7199 130.138C46.6825 132.669 46.0236 137.183 47.6524 141.381C40.26 142.123 32.8338 142.167 25.4056 142.168C25.1048 142.168 23.7173 142.758 24.4388 142.758C32.283 142.758 40.1273 142.708 47.9317 141.862C48.2483 142.085 48.8124 141.993 49.0947 141.739Z" fill="#212121"/>
</svg>
