<svg width="863" height="724" viewBox="0 0 863 724" fill="none" xmlns="http://www.w3.org/2000/svg">
<path d="M397.042 449.328H379.683C379.648 449.328 379.613 449.321 379.58 449.307C379.547 449.294 379.518 449.274 379.492 449.249C379.467 449.224 379.447 449.194 379.434 449.161C379.42 449.128 379.413 449.093 379.413 449.058V441.208C378.412 440.926 377.348 440.957 376.365 441.298L376.259 441.368C375.011 441.988 373.63 442.292 372.237 442.254C369.275 442.254 366.955 441.122 366.955 439.679C366.955 438.234 369.275 437.103 372.237 437.103C373.634 437.067 375.019 437.373 376.272 437.995L376.396 438.077C377.371 438.408 378.423 438.435 379.413 438.155V436.146C379.413 436.111 379.42 436.075 379.433 436.042C379.447 436.009 379.467 435.979 379.492 435.954C379.517 435.929 379.547 435.909 379.58 435.895C379.613 435.881 379.648 435.874 379.683 435.874C379.719 435.874 379.754 435.881 379.787 435.895C379.82 435.909 379.85 435.929 379.875 435.954C379.9 435.979 379.92 436.009 379.933 436.042C379.947 436.075 379.954 436.111 379.954 436.146V438.322C379.953 438.371 379.94 438.418 379.916 438.46C379.891 438.501 379.856 438.536 379.814 438.559C378.646 438.984 377.366 438.991 376.193 438.578C376.171 438.571 376.149 438.56 376.129 438.547L375.99 438.455C374.823 437.885 373.535 437.606 372.237 437.642C369.4 437.642 367.495 438.695 367.495 439.679C367.495 440.662 369.4 441.714 372.237 441.714C373.535 441.754 374.824 441.474 375.989 440.9L376.142 440.81C377.326 440.37 378.63 440.369 379.815 440.807C379.857 440.831 379.892 440.865 379.916 440.906C379.941 440.947 379.954 440.995 379.954 441.043V448.788H397.042C397.114 448.788 397.183 448.816 397.233 448.867C397.284 448.918 397.312 448.986 397.312 449.058C397.312 449.129 397.284 449.198 397.233 449.249C397.183 449.299 397.114 449.328 397.042 449.328L397.042 449.328Z" fill="black"/>
<path d="M420.509 449.328H402.633C402.562 449.328 402.493 449.299 402.442 449.249C402.392 449.198 402.363 449.129 402.363 449.058C402.363 448.986 402.392 448.917 402.442 448.867C402.493 448.816 402.562 448.788 402.633 448.788H420.239V430.568H408.641C408.569 430.568 408.501 430.54 408.45 430.489C408.399 430.439 408.371 430.37 408.371 430.298C408.371 430.227 408.399 430.158 408.45 430.107C408.501 430.057 408.569 430.028 408.641 430.028H420.509C420.544 430.028 420.579 430.035 420.612 430.049C420.645 430.062 420.675 430.082 420.7 430.107C420.725 430.132 420.745 430.162 420.758 430.195C420.772 430.228 420.779 430.263 420.779 430.298V449.058C420.779 449.093 420.772 449.128 420.758 449.161C420.745 449.194 420.725 449.224 420.7 449.249C420.675 449.274 420.645 449.294 420.612 449.307C420.579 449.321 420.544 449.328 420.509 449.328Z" fill="black"/>
<path d="M448.914 439.678C448.914 440.954 451.166 441.981 453.932 441.981C455.277 442.02 456.61 441.73 457.818 441.139L457.976 441.047C459.062 440.667 460.243 440.658 461.335 441.02V449.063H420.503V441.047C419.404 440.654 418.204 440.654 417.105 441.047L416.947 441.139C415.739 441.73 414.406 442.02 413.061 441.981C410.295 441.981 408.043 440.954 408.043 439.678C408.043 438.414 410.295 437.374 413.061 437.374C414.411 437.338 415.749 437.632 416.96 438.229L417.105 438.322C418.205 438.707 419.403 438.707 420.503 438.322V430.305H437.968C439.51 429.713 437.968 428.739 437.968 428.739L437.758 428.659C436.625 428.238 435.914 427.593 435.914 426.882C435.914 425.605 438.153 424.579 440.919 424.579C443.685 424.579 445.937 425.605 445.937 426.882C445.937 427.606 445.213 428.251 444.067 428.673L443.882 428.738C443.882 428.738 442.328 429.713 443.882 430.305H461.335V438.335C460.245 438.706 459.063 438.701 457.976 438.322L457.831 438.229C456.62 437.633 455.282 437.339 453.932 437.374C451.166 437.374 448.914 438.4 448.914 439.678Z" fill="black"/>
<path d="M420.503 449.195V467.953H402.972C401.549 467.36 403.051 466.426 403.051 466.426L403.248 466.36C404.381 465.939 405.106 465.294 405.106 464.57C405.106 463.293 402.866 462.266 400.1 462.266C397.334 462.266 395.082 463.293 395.082 464.57C395.082 465.294 395.807 465.926 396.926 466.36L397.137 466.426C397.137 466.426 398.625 467.36 397.229 467.953H379.685V459.936C378.58 459.55 377.378 459.55 376.273 459.936L376.128 460.028C374.921 460.62 373.587 460.909 372.243 460.871C369.464 460.871 367.225 459.844 367.225 458.567C367.225 457.303 369.464 456.263 372.243 456.263C373.594 456.226 374.934 456.525 376.142 457.132L376.273 457.211C377.378 457.597 378.58 457.597 379.685 457.211V449.195H397.137L397.269 449.142C398.52 449.734 397.084 450.629 397.084 450.629L396.9 450.695C395.767 451.117 395.043 451.762 395.043 452.486C395.043 453.762 397.282 454.789 400.048 454.789C402.814 454.789 405.066 453.762 405.066 452.486C405.066 451.762 404.342 451.117 403.222 450.695L403.011 450.629C403.011 450.629 401.549 449.708 402.88 449.116L403.051 449.195H420.503Z" fill="black"/>
<path d="M484.577 449.116C483.24 449.709 484.704 450.627 484.704 450.627L484.911 450.7C486.041 451.12 486.757 451.764 486.757 452.484C486.757 453.757 484.513 454.788 481.744 454.788C478.974 454.788 476.73 453.757 476.73 452.484C476.73 451.76 477.454 451.113 478.592 450.692L478.783 450.627C478.783 450.627 480.216 449.734 478.958 449.138L478.833 449.193H461.38V457.215C460.277 457.602 459.075 457.602 457.972 457.215L457.832 457.126C456.622 456.524 455.282 456.229 453.931 456.269C451.163 456.269 448.918 457.301 448.918 458.573C448.918 459.846 451.163 460.877 453.931 460.877C455.277 460.916 456.612 460.625 457.818 460.029L457.972 459.933C459.075 459.546 460.277 459.546 461.38 459.933V467.954H502.203V449.193H484.748L484.577 449.116Z" fill="black"/>
<path d="M420.503 487.02H379.685C379.65 487.02 379.615 487.013 379.582 487C379.549 486.986 379.519 486.966 379.494 486.941C379.469 486.916 379.449 486.886 379.436 486.854C379.422 486.821 379.415 486.786 379.415 486.75V478.901C378.411 478.619 377.345 478.65 376.36 478.99L376.273 479.054C375.022 479.672 373.639 479.975 372.244 479.938C369.278 479.938 366.955 478.807 366.955 477.365C366.955 475.922 369.278 474.791 372.244 474.791C373.639 474.756 375.023 475.062 376.273 475.682L376.394 475.763C377.37 476.094 378.423 476.122 379.415 475.841V467.992C379.415 467.957 379.422 467.921 379.436 467.889C379.449 467.856 379.469 467.826 379.494 467.801C379.519 467.776 379.549 467.756 379.582 467.743C379.615 467.729 379.65 467.722 379.685 467.722H397.085C397.152 467.695 397.226 467.693 397.294 467.718C397.363 467.742 397.419 467.791 397.453 467.854C397.469 467.884 397.479 467.916 397.482 467.949C397.485 467.982 397.482 468.016 397.472 468.047C397.462 468.079 397.446 468.109 397.425 468.134C397.404 468.16 397.377 468.181 397.348 468.196L397.282 468.223C397.236 468.242 397.187 468.255 397.138 468.262H379.955V476.008C379.955 476.057 379.942 476.104 379.917 476.146C379.893 476.187 379.858 476.222 379.815 476.245C378.645 476.671 377.363 476.678 376.189 476.264C376.164 476.256 376.141 476.245 376.12 476.23L375.989 476.138C374.823 475.573 373.539 475.296 372.244 475.331C369.403 475.331 367.495 476.383 367.495 477.365C367.495 478.347 369.403 479.398 372.244 479.398C373.542 479.436 374.83 479.159 375.998 478.591L376.129 478.506C377.318 478.067 378.624 478.063 379.815 478.497C379.858 478.521 379.893 478.555 379.917 478.596C379.942 478.638 379.955 478.685 379.955 478.734V486.48H420.233V468.262H403.051C403.01 468.261 402.97 468.252 402.933 468.235L402.852 468.195C402.788 468.163 402.739 468.107 402.716 468.039C402.694 467.971 402.699 467.897 402.731 467.833C402.763 467.769 402.819 467.72 402.887 467.697C402.955 467.675 403.029 467.68 403.094 467.712L403.114 467.722H420.503C420.539 467.722 420.574 467.729 420.607 467.743C420.639 467.756 420.669 467.776 420.694 467.801C420.719 467.826 420.739 467.856 420.753 467.889C420.766 467.921 420.773 467.957 420.773 467.992V486.75C420.773 486.786 420.766 486.821 420.753 486.854C420.739 486.886 420.719 486.916 420.694 486.941C420.669 486.966 420.639 486.986 420.607 487C420.574 487.013 420.539 487.02 420.503 487.02Z" fill="black"/>
<path d="M448.914 477.405C448.914 478.681 451.166 479.721 453.932 479.721C455.278 479.756 456.611 479.462 457.818 478.866L457.976 478.774C459.063 478.395 460.245 478.39 461.335 478.76V486.751H420.503V478.734C419.403 478.349 418.205 478.349 417.105 478.734L416.947 478.826C415.739 479.418 414.406 479.707 413.061 479.669C410.295 479.669 408.043 478.642 408.043 477.365C408.043 476.101 410.295 475.061 413.061 475.061C414.411 475.025 415.749 475.319 416.96 475.917L417.105 476.009C418.205 476.394 419.403 476.394 420.503 476.009V467.992H437.968C439.51 467.4 437.968 466.426 437.968 466.426L437.758 466.36C436.625 465.926 435.914 465.294 435.914 464.57C435.914 463.293 438.153 462.266 440.919 462.266C443.685 462.266 445.937 463.293 445.937 464.57C445.937 465.294 445.213 465.939 444.067 466.36L443.882 466.426C443.882 466.426 442.328 467.4 443.882 467.992H461.335V476.062C460.245 476.432 459.063 476.427 457.976 476.049L457.831 475.97C456.624 475.361 455.284 475.062 453.932 475.101C451.166 475.101 448.914 476.141 448.914 477.405Z" fill="black"/>
<path d="M502.206 487.06H461.374C461.339 487.06 461.304 487.053 461.271 487.04C461.238 487.026 461.209 487.006 461.183 486.981C461.158 486.956 461.138 486.926 461.125 486.893C461.111 486.861 461.104 486.826 461.104 486.79V478.898C461.079 478.856 461.066 478.808 461.066 478.76C461.066 478.688 461.095 478.62 461.145 478.57C461.195 478.519 461.263 478.491 461.335 478.491C461.417 478.495 461.496 478.526 461.56 478.578C461.587 478.604 461.608 478.634 461.622 478.667C461.637 478.701 461.644 478.737 461.645 478.774V486.52H501.936V468.302H461.645V476.048C461.644 476.085 461.637 476.121 461.622 476.155C461.608 476.188 461.587 476.219 461.56 476.244C461.496 476.296 461.417 476.327 461.335 476.331C461.287 476.331 461.239 476.318 461.198 476.294C461.157 476.27 461.122 476.235 461.099 476.193C461.075 476.151 461.064 476.104 461.065 476.056C461.065 476.008 461.079 475.961 461.104 475.92V468.032C461.104 467.996 461.111 467.961 461.125 467.929C461.138 467.896 461.158 467.866 461.183 467.841C461.209 467.816 461.238 467.796 461.271 467.782C461.304 467.769 461.339 467.762 461.374 467.762H502.206C502.241 467.762 502.277 467.769 502.309 467.782C502.342 467.796 502.372 467.816 502.397 467.841C502.422 467.866 502.442 467.896 502.455 467.929C502.469 467.961 502.476 467.996 502.476 468.032V486.79C502.476 486.826 502.469 486.861 502.455 486.893C502.442 486.926 502.422 486.956 502.397 486.981C502.372 487.006 502.342 487.026 502.309 487.039C502.277 487.053 502.241 487.06 502.206 487.06Z" fill="black"/>
<path d="M478.734 449.333H461.388C461.352 449.333 461.317 449.326 461.284 449.312C461.251 449.299 461.222 449.279 461.197 449.254C461.171 449.229 461.152 449.199 461.138 449.166C461.124 449.133 461.117 449.098 461.117 449.063V441.217C460.114 440.94 459.05 440.97 458.063 441.302L457.955 441.371C456.705 441.986 455.325 442.288 453.933 442.251C450.968 442.251 448.645 441.12 448.645 439.677C448.645 438.235 450.968 437.104 453.933 437.104C455.329 437.069 456.712 437.375 457.963 437.994L458.12 438.092C459.092 438.406 460.135 438.423 461.118 438.142V430.305C461.118 430.269 461.125 430.234 461.138 430.201C461.152 430.169 461.172 430.139 461.197 430.114C461.222 430.089 461.251 430.069 461.284 430.055C461.317 430.042 461.352 430.035 461.388 430.035H473.808C473.844 430.034 473.879 430.041 473.912 430.055C473.945 430.068 473.975 430.088 474 430.113C474.025 430.138 474.045 430.168 474.059 430.201C474.073 430.234 474.08 430.269 474.08 430.305C474.08 430.34 474.073 430.375 474.059 430.408C474.045 430.441 474.025 430.471 474 430.496C473.975 430.521 473.945 430.541 473.912 430.555C473.879 430.568 473.844 430.575 473.808 430.575H461.658V438.321C461.657 438.37 461.644 438.418 461.619 438.46C461.594 438.502 461.558 438.536 461.515 438.559C461.489 438.572 461.461 438.581 461.433 438.588C460.285 438.984 459.036 438.98 457.89 438.577L457.688 438.457C456.52 437.887 455.232 437.608 453.933 437.644C451.359 437.644 449.185 438.574 449.185 439.677C449.185 440.78 451.359 441.711 453.933 441.711C455.231 441.748 456.519 441.471 457.687 440.904L457.84 440.814C459.005 440.389 460.281 440.376 461.455 440.778C461.473 440.785 461.491 440.794 461.507 440.805C461.552 440.827 461.59 440.861 461.617 440.904C461.644 440.947 461.658 440.996 461.658 441.046V448.793H478.734C478.77 448.793 478.805 448.799 478.838 448.813C478.871 448.826 478.901 448.846 478.926 448.871C478.952 448.896 478.972 448.926 478.985 448.959C478.999 448.992 479.006 449.027 479.006 449.063C479.006 449.098 478.999 449.134 478.985 449.167C478.972 449.199 478.952 449.229 478.926 449.254C478.901 449.279 478.871 449.299 478.838 449.313C478.805 449.326 478.77 449.333 478.734 449.333V449.333Z" fill="black"/>
<path d="M501.183 449.328H484.323C484.251 449.328 484.182 449.299 484.132 449.249C484.081 449.198 484.053 449.129 484.053 449.058C484.053 448.986 484.081 448.918 484.132 448.867C484.182 448.816 484.251 448.788 484.323 448.788H501.183C501.255 448.788 501.324 448.816 501.374 448.867C501.425 448.918 501.453 448.986 501.453 449.058C501.453 449.129 501.425 449.198 501.374 449.249C501.324 449.299 501.255 449.328 501.183 449.328H501.183Z" fill="black"/>
<path d="M415.818 410.748C422.672 410.54 429.525 410.45 436.378 410.298L456.938 410.042C470.645 409.89 484.352 409.904 498.058 409.827C511.765 409.899 525.471 409.892 539.178 410.038L559.738 410.296C566.591 410.449 573.445 410.539 580.298 410.748C573.445 410.957 566.591 411.047 559.738 411.2L539.178 411.457C525.471 411.604 511.765 411.597 498.058 411.669C484.352 411.592 470.645 411.606 456.938 411.454L436.378 411.197C429.525 411.045 422.672 410.956 415.818 410.748Z" fill="black"/>
<path d="M299.358 297.664C296.351 297.646 293.349 297.424 290.372 297C290.287 296.988 290.206 296.96 290.131 296.918C288.697 296.088 281.497 291.854 280.57 290.002C279.379 288.577 277.768 287.565 275.968 287.11C272.49 285.975 266.664 285.493 258.649 289.627C258.543 289.682 258.424 289.707 258.305 289.7C258.186 289.692 258.071 289.653 257.973 289.585C257.874 289.517 257.796 289.425 257.747 289.316C257.697 289.208 257.678 289.088 257.692 288.969C257.757 288.39 259.42 274.761 270.368 272.025C270.489 272.006 274.268 271.43 276.315 263.858C278.516 255.72 282.713 253.037 285.779 251.079L286.118 250.86C288.92 249.061 292.25 241.327 292.909 236.495C293.634 231.186 301.992 217.361 317.433 216.226C330.607 215.261 348.2 224.668 350.548 230.475C350.834 231.045 350.922 231.695 350.799 232.321C350.675 232.947 350.346 233.514 349.863 233.933C341.769 244.528 332.031 253.761 321.019 261.282V281.296C321.162 283.289 320.871 285.289 320.167 287.158C319.463 289.028 318.363 290.723 316.941 292.128C313.21 295.813 307.315 297.664 299.358 297.664ZM290.679 295.713C302.792 297.355 311.317 295.833 316.015 291.192C317.293 289.913 318.284 288.375 318.92 286.683C319.557 284.991 319.825 283.182 319.707 281.378L319.702 260.932C319.702 260.825 319.729 260.719 319.779 260.624C319.83 260.529 319.903 260.447 319.992 260.387C331.019 252.91 340.76 243.697 348.836 233.105C348.869 233.058 348.909 233.015 348.953 232.979C349.25 232.746 349.451 232.414 349.52 232.043C349.588 231.673 349.52 231.29 349.326 230.967C347.162 225.613 329.982 216.628 317.53 217.54C303.046 218.604 294.876 231.826 294.215 236.672C293.586 241.277 290.321 249.725 286.831 251.968L286.488 252.187C283.443 254.133 279.655 256.555 277.587 264.203C275.281 272.729 270.787 273.299 270.597 273.318C262.455 275.358 259.887 284.521 259.211 287.88C267.037 284.165 272.834 284.705 276.376 285.858C278.516 286.405 280.409 287.657 281.748 289.413C282.322 290.561 287.481 293.856 290.679 295.713H290.679Z" fill="black"/>
<path d="M339.709 409.912L339.692 409.926C339.535 410.2 339.389 410.471 339.227 410.748L339.709 409.912Z" fill="black"/>
<path d="M381.595 353.785C379.935 351.468 378.947 334.526 378.947 334.526C376.616 294.351 347.836 287.822 347.836 287.822C347.41 288.338 346.924 288.802 346.387 289.204C340.566 293.522 329.106 291.534 329.106 291.534C329.106 291.534 323.798 293.193 321.968 300.498C320.137 307.804 323.298 329.05 318.978 327.892C314.657 326.734 305.003 326.878 304.265 296.997C304.265 296.997 304.278 296.891 304.318 296.707C299.703 297.176 295.047 297.057 290.461 296.352C290.461 296.352 282.045 291.481 281.162 289.704C280.267 287.94 272.074 281.964 258.35 289.046C258.35 289.046 244.401 290.323 229.609 306.422C214.818 322.521 199.21 353.456 195.891 412.771L207.376 416.154C207.429 409.967 207.758 403.793 208.259 397.633C208.929 389.254 210.134 380.926 211.868 372.701C213.698 364.539 215.951 356.273 220.258 349.033C218.465 352.806 217.036 356.743 215.99 360.788C214.871 364.803 213.988 368.883 213.251 372.977C211.802 381.191 210.788 389.484 210.089 397.791C209.365 406.11 208.97 414.456 208.825 422.802C208.759 426.974 208.799 431.148 209.023 435.32C209.115 437.4 209.233 439.48 209.497 441.547C209.619 442.582 209.795 443.61 210.024 444.627C210.133 445.134 210.282 445.631 210.471 446.114C210.582 446.384 210.714 446.643 210.867 446.891L210.932 446.957C211.07 447.095 211.225 447.214 211.393 447.312C211.393 447.312 251.619 431.305 280.491 417.207C280.425 413.903 280.464 410.612 280.451 407.334L280.306 397.475C280.056 390.906 279.872 384.351 279.279 377.821C278.805 371.292 278.014 364.776 276.934 358.313C276.408 355.088 275.753 351.88 274.972 348.69C274.248 345.488 273.28 342.345 272.074 339.291C274.992 345.235 277.096 351.545 278.331 358.049C279.068 361.275 279.556 364.553 280.069 367.817C280.464 371.095 280.886 374.386 281.123 377.677C281.413 380.968 281.531 384.272 281.663 387.563C281.768 390.867 281.755 394.171 281.729 397.462L281.347 407.348C281.057 410.638 280.833 413.929 280.491 417.207C280.491 417.207 283.546 422.13 315.777 416.049C315.777 416.049 339.051 410.704 339.696 409.928C354.132 384.68 347.836 366.409 347.836 366.409C347.228 363.24 346.788 360.041 346.519 356.825C346.203 353.614 346.058 350.402 345.979 347.177C345.926 343.951 345.979 340.726 346.229 337.501C346.401 334.261 346.94 331.05 347.836 327.931C347.625 331.156 347.652 334.342 347.665 337.541C347.705 340.739 347.744 343.938 347.823 347.137C347.915 353.548 348.073 359.945 347.836 366.408C356.595 368.067 381.595 353.785 381.595 353.785ZM264.83 322.6C264.366 322.027 263.845 321.502 263.276 321.034L261.629 319.599C261.05 319.151 260.417 318.783 259.812 318.375C257.358 316.81 254.618 315.75 251.751 315.255C248.88 314.724 245.947 314.613 243.044 314.926C240.116 315.208 237.228 315.808 234.43 316.716C237.137 315.468 240.013 314.625 242.965 314.215C245.94 313.798 248.961 313.842 251.922 314.347C254.896 314.898 257.72 316.073 260.207 317.795C262.656 319.509 264.735 321.698 266.318 324.232L264.83 322.6Z" fill="black"/>
<path d="M304.321 296.708L307.359 296.107C308.341 295.794 309.338 295.529 310.294 295.164C312.199 294.433 313.967 293.387 315.525 292.07C317.023 290.724 318.19 289.05 318.934 287.179C319.668 285.335 319.961 283.344 319.789 281.366C319.787 281.345 319.786 281.316 319.785 281.296C319.633 274.507 319.592 267.72 319.49 260.932C319.488 260.796 319.519 260.662 319.58 260.54C319.641 260.419 319.73 260.314 319.84 260.234L319.874 260.211C322.576 258.285 325.25 256.32 327.789 254.184C330.36 252.089 332.803 249.844 335.204 247.56C337.614 245.284 339.915 242.895 342.131 240.435C344.347 237.996 346.437 235.444 348.391 232.792C348.417 232.756 348.445 232.723 348.476 232.691L348.604 232.561C348.707 232.476 348.792 232.371 348.853 232.252C348.913 232.133 348.949 232.003 348.958 231.87C348.931 231.477 348.81 231.097 348.604 230.762C348.025 229.847 347.311 229.024 346.488 228.32C344.705 226.799 342.767 225.47 340.705 224.357C336.536 222.068 332.086 220.331 327.467 219.193C325.185 218.621 322.854 218.263 320.505 218.124C319.348 218.059 318.188 218.088 317.036 218.209C315.883 218.309 314.739 218.5 313.616 218.779C312.489 219.043 311.381 219.384 310.3 219.798C309.227 220.24 308.184 220.751 307.176 221.326C305.139 222.469 303.266 223.883 301.608 225.529C299.925 227.159 298.44 228.982 297.185 230.96C295.898 232.855 295.014 234.995 294.587 237.245C294.123 239.723 293.37 242.139 292.345 244.442C291.385 246.805 290.06 249.002 288.417 250.953C288.192 251.199 287.929 251.429 287.685 251.664C287.41 251.872 287.091 252.121 286.835 252.278L285.313 253.243C284.333 253.872 283.414 254.592 282.569 255.394C280.905 257.029 279.595 258.989 278.719 261.151C278.263 262.25 277.871 263.373 277.545 264.517C277.193 265.724 276.739 266.899 276.189 268.03C275.62 269.178 274.884 270.235 274.007 271.169C273.104 272.18 271.905 272.88 270.581 273.171L270.651 273.159C268.954 273.575 267.351 274.307 265.926 275.317C264.513 276.379 263.28 277.662 262.274 279.115C261.284 280.603 260.458 282.194 259.809 283.859C259.146 285.532 258.656 287.269 258.346 289.042C258.556 287.245 258.949 285.473 259.52 283.755C260.084 282.021 260.85 280.36 261.803 278.806C262.788 277.246 264.018 275.854 265.446 274.686C266.924 273.54 268.606 272.686 270.403 272.167L270.474 272.154C271.522 271.833 272.452 271.211 273.147 270.364C273.899 269.486 274.521 268.505 274.996 267.451C275.482 266.379 275.877 265.268 276.178 264.13C276.488 262.925 276.868 261.738 277.316 260.577C278.216 258.191 279.596 256.014 281.37 254.181C282.269 253.282 283.25 252.47 284.301 251.755L285.837 250.725C286.094 250.555 286.244 250.412 286.455 250.255C286.64 250.06 286.836 249.886 287.016 249.679C288.456 247.853 289.606 245.815 290.423 243.638C291.311 241.462 291.966 239.199 292.377 236.885C292.47 236.236 292.607 235.594 292.787 234.964C292.969 234.337 293.195 233.723 293.46 233.127C293.966 231.957 294.557 230.826 295.23 229.744C296.566 227.598 298.151 225.616 299.952 223.841C301.74 222.039 303.763 220.486 305.966 219.224C307.066 218.583 308.207 218.013 309.381 217.519C310.568 217.05 311.786 216.664 313.027 216.361C314.264 216.044 315.524 215.823 316.795 215.701C318.064 215.558 319.342 215.516 320.617 215.575C323.133 215.701 325.631 216.062 328.08 216.652C332.931 217.845 337.595 219.696 341.943 222.153C344.157 223.375 346.235 224.828 348.141 226.49C349.161 227.381 350.037 228.425 350.736 229.585C351.153 230.301 351.375 231.114 351.377 231.943C351.353 232.416 351.231 232.88 351.019 233.304C350.807 233.728 350.509 234.104 350.144 234.407L350.356 234.178C348.324 236.892 346.152 239.5 343.851 241.991C341.571 244.478 339.209 246.888 336.738 249.182C334.267 251.476 331.702 253.661 329.042 255.739C326.408 257.841 323.639 259.77 320.847 261.652L321.23 260.932C321.128 267.72 321.088 274.507 320.935 281.295L320.931 281.225C321.043 283.387 320.64 285.544 319.755 287.52C318.886 289.468 317.578 291.188 315.933 292.547C314.278 293.842 312.41 294.839 310.413 295.493C309.421 295.809 308.399 296.02 307.397 296.278L304.321 296.708Z" fill="black"/>
<path d="M349.377 233.577C349.373 233.711 349.202 233.88 349.096 234.058L348.734 234.572L347.999 235.591C347.51 236.273 346.985 236.925 346.474 237.589C345.431 238.901 344.37 240.199 343.273 241.467C341.091 244.015 338.767 246.441 336.361 248.783C333.947 251.115 331.488 253.413 328.86 255.512C326.273 257.661 323.549 259.639 320.795 261.574L321.137 260.932C321.148 264.326 321.209 267.72 321.18 271.114L321.124 281.296L321.118 281.202C321.25 283.398 320.853 285.594 319.958 287.604C319.083 289.588 317.759 291.343 316.091 292.731C314.416 294.049 312.526 295.069 310.505 295.748C309.506 296.078 308.475 296.303 307.463 296.573L304.364 297.061L304.67 296.778L304.611 297.068L304.617 296.994L304.803 301.842C304.904 303.455 305.069 305.064 305.198 306.675C305.558 309.882 306.215 313.048 307.16 316.133C308.005 319.213 309.626 322.025 311.867 324.301C313.03 325.346 314.406 326.125 315.901 326.582C316.661 326.815 317.433 327.007 318.214 327.158L318.821 327.294L319.123 327.361C319.179 327.359 319.235 327.363 319.29 327.373C319.477 327.366 319.626 327.255 319.805 327.008C320.372 325.597 320.654 324.088 320.635 322.567C320.704 320.972 320.703 319.361 320.687 317.747C320.648 314.517 320.518 311.274 320.511 308.008C320.514 306.374 320.553 304.734 320.696 303.074C320.816 301.372 321.193 299.697 321.813 298.107C322.401 296.444 323.328 294.92 324.535 293.633C325.742 292.346 327.203 291.323 328.826 290.628C328.937 290.584 329.058 290.569 329.177 290.586L329.272 290.599C332.22 291.022 335.207 291.117 338.177 290.882C341.059 290.771 343.844 289.811 346.182 288.122C347.238 287.192 348.081 286.046 348.654 284.762C349.294 283.44 349.792 282.055 350.142 280.63C350.879 277.732 351.302 274.763 351.401 271.775C351.408 271.596 351.469 271.423 351.576 271.28C351.684 271.136 351.833 271.029 352.004 270.974L352.022 270.968C352.452 270.888 352.84 270.659 353.118 270.323C353.397 269.986 353.548 269.563 353.547 269.126C353.601 268.063 353.414 267.002 352.999 266.022L352.982 265.979C352.94 265.87 352.925 265.753 352.938 265.636L353.913 257.307C354.362 254.584 354.568 251.827 354.528 249.067C354.376 246.314 353.853 243.594 352.974 240.98C352.525 239.669 351.998 238.386 351.396 237.138C351.085 236.517 350.766 235.9 350.418 235.299L349.881 234.406L349.598 233.968L349.451 233.753L349.377 233.646C349.366 233.633 349.379 233.615 349.377 233.577ZM349.372 233.392C352.864 237.905 354.997 243.319 355.521 248.999C355.667 251.823 355.561 254.653 355.204 257.458L354.449 265.793L354.388 265.408C354.645 266.007 354.844 266.629 354.981 267.266C355.133 267.922 355.186 268.598 355.139 269.271C355.122 270.042 354.85 270.786 354.365 271.386C353.88 271.986 353.21 272.409 352.459 272.588L353.08 271.781C353.061 274.918 352.678 278.042 351.937 281.091C351.563 282.641 351.028 284.148 350.339 285.587C349.659 287.106 348.662 288.463 347.414 289.564C344.788 291.527 341.635 292.658 338.361 292.814C335.221 293.092 332.058 292.975 328.947 292.467L329.392 292.438C328.036 292.989 326.823 293.84 325.844 294.927C324.823 296.048 324.016 297.348 323.464 298.76C322.257 301.578 322.265 304.805 322.161 308.024C322.097 311.245 322.156 314.489 322.125 317.746C322.109 319.376 322.071 321.01 321.939 322.653C321.864 323.476 321.783 324.299 321.628 325.13C321.499 326.017 321.203 326.871 320.756 327.647C320.596 327.895 320.379 328.101 320.121 328.246C319.864 328.391 319.576 328.47 319.28 328.478C319.134 328.464 318.987 328.444 318.843 328.42L318.553 328.345L317.977 328.196C317.17 328.01 316.373 327.784 315.588 327.519C313.984 326.976 312.517 326.09 311.29 324.922C309.034 322.485 307.405 319.535 306.544 316.328C305.631 313.194 304.992 309.987 304.634 306.742C304.48 305.123 304.291 303.505 304.167 301.883L303.911 297.011C303.909 296.989 303.911 296.967 303.915 296.946L303.917 296.936L303.973 296.638C303.986 296.569 304.02 296.506 304.07 296.456C304.12 296.406 304.184 296.373 304.253 296.36L304.279 296.355L307.294 295.812C308.266 295.512 309.255 295.26 310.203 294.91C312.084 294.203 313.831 293.181 315.368 291.886C316.836 290.581 317.982 288.955 318.717 287.134C319.452 285.313 319.755 283.347 319.603 281.389L319.6 281.349L319.598 281.296L319.542 271.114C319.513 267.72 319.573 264.326 319.585 260.932C319.586 260.805 319.618 260.681 319.677 260.569C319.737 260.457 319.822 260.361 319.927 260.289C322.668 258.416 325.386 256.5 327.972 254.41C330.576 252.346 333.125 250.205 335.582 247.959C338.057 245.731 340.397 243.358 342.711 240.959C343.866 239.757 344.987 238.522 346.092 237.272C347.212 235.992 348.201 234.785 349.372 233.392Z" fill="black"/>
<path d="M331.246 252.631C333.822 252.217 336.442 252.163 339.033 252.47C341.638 252.711 344.182 253.403 346.551 254.513C343.988 254.045 341.48 253.657 338.931 253.386C336.386 253.096 333.836 252.902 331.246 252.631Z" fill="black"/>
<path d="M340.072 261.374C340.43 261.362 340.77 261.211 341.02 260.953C341.269 260.694 341.409 260.35 341.409 259.991C341.409 259.632 341.269 259.287 341.02 259.029C340.77 258.771 340.43 258.62 340.072 258.607C339.713 258.62 339.373 258.771 339.123 259.029C338.874 259.287 338.734 259.632 338.734 259.991C338.734 260.35 338.874 260.694 339.123 260.953C339.373 261.211 339.713 261.362 340.072 261.374Z" fill="black"/>
<path d="M357.182 254.513C356.144 254.494 355.106 254.529 354.072 254.617L350.977 254.846L351.325 254.612C350.969 255.547 350.75 256.528 350.676 257.526C350.59 258.528 350.648 259.538 350.851 260.523C351.087 261.519 351.424 262.488 351.858 263.415C352.066 263.886 352.303 264.344 352.568 264.786C352.849 265.181 353.156 265.707 353.694 265.715C353.128 265.851 352.674 265.336 352.319 264.978C351.958 264.577 351.638 264.139 351.365 263.673C350.787 262.755 350.342 261.76 350.042 260.717C349.763 259.652 349.667 258.547 349.758 257.449C349.846 256.346 350.124 255.265 350.581 254.256L350.584 254.249C350.615 254.183 350.664 254.127 350.725 254.087C350.786 254.047 350.856 254.025 350.929 254.023C351.98 253.992 353.023 254.007 354.07 254.068C355.12 254.108 356.163 254.257 357.182 254.513Z" fill="black"/>
<path d="M352.945 261.623C353.303 261.611 353.643 261.46 353.893 261.202C354.142 260.944 354.282 260.599 354.282 260.24C354.282 259.881 354.142 259.536 353.893 259.278C353.643 259.02 353.303 258.869 352.945 258.856C352.586 258.869 352.246 259.02 351.996 259.278C351.747 259.536 351.607 259.881 351.607 260.24C351.607 260.599 351.747 260.944 351.996 261.202C352.246 261.46 352.586 261.611 352.945 261.623Z" fill="black"/>
<path d="M340.736 276.426L343.646 277.995C344.587 278.502 345.572 278.924 346.588 279.257C347.015 279.461 347.489 279.548 347.961 279.509C348.433 279.47 348.886 279.306 349.274 279.034C349.865 278.167 350.181 277.143 350.18 276.094C350.364 276.655 350.427 277.248 350.366 277.835C350.304 278.422 350.119 278.989 349.823 279.499C349.614 279.756 349.355 279.966 349.06 280.116C348.765 280.266 348.442 280.352 348.112 280.37C347.507 280.399 346.901 280.321 346.323 280.14C345.238 279.783 344.212 279.268 343.278 278.61C342.35 277.982 341.497 277.249 340.736 276.426Z" fill="black"/>
<path d="M343.81 267.213C343.764 267.932 343.769 268.653 343.825 269.372C343.923 270.069 344.143 270.742 344.475 271.363C344.057 271.26 343.684 271.022 343.416 270.685C343.133 270.341 342.957 269.923 342.909 269.481C342.855 269.057 342.909 268.627 343.067 268.231C343.225 267.834 343.48 267.484 343.81 267.213Z" fill="black"/>
<path d="M320.361 281.296C321.2 282.095 321.969 282.963 322.661 283.891L323.687 285.233C324.029 285.694 324.397 286.135 324.791 286.553C324.192 286.423 323.636 286.143 323.175 285.739C322.712 285.361 322.295 284.931 321.932 284.456C321.192 283.525 320.657 282.448 320.361 281.296Z" fill="black"/>
<path d="M353.68 270.924C354.294 274.584 354.655 278.225 355.117 281.846C355.346 283.653 355.572 285.462 355.899 287.243C356.054 288.132 356.255 289.013 356.499 289.881C356.707 290.766 357.08 291.604 357.597 292.351C356.242 291.025 355.305 289.332 354.899 287.481C354.394 285.688 354.03 283.858 353.81 282.009C353.343 278.331 353.299 274.612 353.68 270.924Z" fill="black"/>
<path d="M199.919 413.961C199.942 416.519 199.792 419.076 199.469 421.613C199.188 424.156 198.732 426.676 198.104 429.157C198.079 426.598 198.229 424.042 198.554 421.504C198.837 418.962 199.293 416.442 199.919 413.961Z" fill="black"/>
<path d="M208.308 430.93C204.147 430.491 199.992 430.003 195.845 429.466L196.163 429.308C194.447 432.827 192.918 436.434 191.582 440.114C190.255 443.8 189.032 447.525 187.951 451.294C186.917 455.074 185.937 458.873 185.143 462.716C184.315 466.553 183.67 470.427 183.043 474.312C183.385 470.394 183.831 466.476 184.55 462.601C185.183 458.71 186.117 454.875 187.129 451.065C188.151 447.254 189.369 443.499 190.776 439.813C192.138 436.104 193.755 432.493 195.615 429.006C195.645 428.95 195.692 428.905 195.749 428.877C195.806 428.849 195.87 428.838 195.933 428.847C200.064 429.498 204.189 430.192 208.308 430.93Z" fill="black"/>
<path d="M213.857 447.006C214.492 450.544 215.398 454.027 216.569 457.424C217.659 460.834 219.141 464.107 220.985 467.176C222.835 470.221 225.113 472.984 227.749 475.382C230.394 477.755 233.345 479.763 236.524 481.353C242.936 484.449 250.092 485.677 257.17 484.897C258.043 484.765 258.933 484.738 259.792 484.522L262.381 483.959L267.574 482.534C271.025 481.535 274.462 480.487 277.873 479.362C284.692 477.099 291.432 474.617 298.095 471.914C304.752 469.203 311.294 466.217 317.791 463.137C324.288 460.052 330.682 456.747 337.006 453.312C343.344 449.9 349.575 446.29 355.749 442.586L355.72 442.606C359.642 440.025 364.005 438.185 368.591 437.178C373.143 436.124 377.82 435.715 382.485 435.962C387.149 436.191 391.764 437.018 396.216 438.424C397.3 438.787 398.407 439.078 399.53 439.292C400.625 439.47 401.745 439.409 402.814 439.115C403.318 438.964 403.782 438.701 404.172 438.347C404.561 437.993 404.866 437.556 405.064 437.068C405.425 436.032 405.551 434.929 405.432 433.839L405.431 433.826C405.43 433.765 405.441 433.705 405.464 433.648C405.487 433.591 405.521 433.54 405.564 433.497C406.31 432.75 406.99 431.94 407.594 431.074C408.209 430.224 408.717 429.301 409.107 428.327C409.502 427.387 409.699 426.376 409.689 425.356C409.627 424.367 409.304 423.412 408.752 422.589C408.675 422.471 408.648 422.328 408.677 422.191C408.706 422.054 408.789 421.934 408.906 421.857L408.956 421.829C410.297 421.149 411.539 420.289 412.648 419.274C413.755 418.322 414.585 417.089 415.05 415.705C415.139 415.369 415.2 415.027 415.233 414.681C415.218 414.324 415.251 414.021 415.201 413.607C415.128 412.825 415.081 412.04 415.044 411.254C414.949 409.65 415.005 408.041 415.211 406.448C415.226 406.347 415.271 406.252 415.34 406.176L415.382 406.129C418.077 403.257 420.052 399.788 421.146 396.006C421.657 394.159 421.716 392.217 421.32 390.343C421.254 389.876 421.125 389.42 420.937 388.987C420.781 388.543 420.601 388.107 420.398 387.682C419.982 386.865 419.456 386.108 418.835 385.433C418.203 384.846 417.421 384.445 416.576 384.276C415.73 384.107 414.854 384.175 414.045 384.474C413.243 384.781 412.543 385.307 412.024 385.991C411.462 386.779 410.949 387.602 410.489 388.454C409.535 390.206 408.671 392.006 407.9 393.846C407.051 395.938 405.45 397.638 403.413 398.613C401.385 399.478 399.154 399.748 396.978 399.392C394.839 399.125 392.779 398.416 390.929 397.31C387.221 395.053 384.536 391.444 383.442 387.245C383.304 386.727 383.221 386.195 383.111 385.671L382.933 384.072L382.724 381.074C382.558 379.08 382.34 377.093 382.018 375.135C381.739 373.205 381.259 371.309 380.587 369.477C380.306 368.665 379.847 367.925 379.245 367.31C379.015 367.096 378.717 366.971 378.404 366.957C378.091 366.943 377.783 367.04 377.535 367.233L377.251 367.34C377.082 367.402 376.919 367.48 376.765 367.571C376.563 367.689 376.37 367.819 376.185 367.962C375.801 368.28 375.446 368.63 375.122 369.009C374.461 369.822 373.891 370.705 373.425 371.643C372.483 373.602 371.777 375.666 371.324 377.792C370.835 379.944 370.471 382.123 370.234 384.317C370.016 385.463 369.868 386.63 369.58 387.759L369.047 389.429C368.891 389.991 368.682 390.538 368.423 391.061C366.487 395.281 363.609 399.001 360.009 401.934C356.494 404.882 352.549 407.275 348.31 409.033C348.289 409.041 348.267 409.049 348.245 409.055C337.084 412.031 325.854 414.672 314.505 416.797C308.83 417.842 303.122 418.758 297.362 419.248C294.481 419.514 291.588 419.606 288.696 419.523C287.972 419.502 287.25 419.459 286.529 419.369C285.806 419.303 285.088 419.195 284.378 419.045C282.922 418.829 281.556 418.214 280.429 417.269C280.412 417.252 280.402 417.228 280.402 417.204C280.402 417.179 280.412 417.156 280.429 417.138C280.447 417.122 280.47 417.112 280.495 417.113C280.519 417.113 280.543 417.122 280.561 417.139C281.679 418.023 283.02 418.581 284.436 418.752C285.139 418.882 285.849 418.969 286.562 419.015C287.275 419.085 287.99 419.109 288.708 419.111C291.579 419.117 294.448 418.95 297.299 418.61C303.008 417.945 308.677 416.951 314.32 415.839C325.597 413.563 336.782 410.765 347.847 407.646L347.782 407.667C351.831 405.914 355.59 403.557 358.932 400.678C362.286 397.871 364.953 394.333 366.726 390.336C366.966 389.854 367.157 389.348 367.298 388.828L367.787 387.289C368.049 386.247 368.177 385.174 368.383 384.119C368.623 381.848 368.994 379.593 369.495 377.365C369.976 375.094 370.727 372.888 371.731 370.795C372.263 369.72 372.914 368.709 373.672 367.779C374.076 367.303 374.522 366.863 375.004 366.466C375.554 366.014 376.187 365.675 376.869 365.469L376.585 365.576C377.176 365.225 377.852 365.043 378.539 365.05C379.262 365.088 379.95 365.372 380.49 365.853C381.334 366.661 381.977 367.654 382.371 368.753C383.102 370.715 383.625 372.748 383.932 374.818C384.27 376.847 384.497 378.879 384.671 380.911C384.757 381.927 384.83 382.943 384.889 383.959L385.038 385.372C385.136 385.835 385.203 386.306 385.322 386.764C386.27 390.485 388.624 393.693 391.891 395.712C393.516 396.698 395.329 397.334 397.214 397.58C399.05 397.903 400.941 397.697 402.665 396.988C404.318 396.205 405.617 394.828 406.301 393.132C407.105 391.249 408.003 389.409 408.993 387.617C409.499 386.694 410.063 385.805 410.684 384.955C411.216 384.258 411.89 383.683 412.661 383.266C413.433 382.849 414.283 382.599 415.158 382.534C416.032 382.468 416.91 382.589 417.735 382.887C418.56 383.185 419.312 383.654 419.942 384.263C421.367 385.894 422.354 387.861 422.81 389.978C423.266 392.096 423.175 394.294 422.547 396.367C421.344 400.368 419.201 404.024 416.295 407.029L416.467 406.71C416.263 408.201 416.195 409.707 416.263 411.21C416.289 411.977 416.324 412.744 416.385 413.511C416.412 413.929 416.417 414.348 416.402 414.766C416.358 415.193 416.277 415.616 416.16 416.029C415.619 417.605 414.661 419.004 413.387 420.079C412.185 421.152 410.841 422.054 409.393 422.761L409.597 422.001C410.249 422.992 410.62 424.14 410.673 425.325C410.673 426.478 410.436 427.62 409.977 428.678C409.545 429.713 408.989 430.691 408.32 431.59C407.67 432.494 406.94 433.338 406.141 434.113L406.273 433.771C406.388 434.995 406.224 436.229 405.793 437.38C405.544 437.966 405.167 438.489 404.691 438.911C404.214 439.334 403.65 439.645 403.038 439.823C401.861 440.136 400.629 440.188 399.429 439.978C398.275 439.75 397.137 439.447 396.024 439.068C391.627 437.654 387.066 436.811 382.454 436.56C377.845 436.272 373.219 436.674 368.729 437.752C364.239 438.773 359.972 440.603 356.139 443.154L356.118 443.169L356.109 443.175C343.81 450.691 331.339 457.969 318.399 464.38C305.496 470.892 292.113 476.408 278.368 480.879C274.928 481.986 271.465 483.017 267.988 483.998L262.75 485.397L260.055 485.964C259.161 486.181 258.235 486.207 257.328 486.336C253.674 486.745 249.98 486.607 246.368 485.926C242.767 485.23 239.277 484.05 235.994 482.416C229.447 479.08 224 473.93 220.304 467.581C218.522 464.419 217.113 461.061 216.104 457.575C215.024 454.128 214.212 450.603 213.675 447.032C213.671 447.007 213.678 446.983 213.692 446.963C213.707 446.944 213.729 446.931 213.753 446.927C213.777 446.925 213.802 446.931 213.821 446.946C213.84 446.961 213.853 446.982 213.857 447.006Z" fill="black"/>
<path d="M406.516 411.559C408.22 411.039 409.87 410.353 411.442 409.513C412.998 408.734 414.373 407.637 415.477 406.292L415.486 406.279C415.523 406.231 415.568 406.19 415.621 406.159C415.673 406.129 415.731 406.108 415.791 406.1C415.851 406.091 415.912 406.095 415.971 406.11C416.03 406.125 416.085 406.152 416.133 406.188C416.182 406.224 416.223 406.27 416.253 406.322C416.284 406.375 416.305 406.432 416.313 406.492C416.322 406.552 416.318 406.614 416.303 406.672C416.288 406.731 416.261 406.786 416.225 406.835L416.199 406.866C414.915 408.198 413.363 409.241 411.645 409.927C409.992 410.636 408.274 411.183 406.516 411.559Z" fill="black"/>
<path d="M347.424 389.66C347.896 391.017 348.438 392.332 348.995 393.628C349.558 394.916 350.19 396.173 350.887 397.394C351.592 398.601 352.391 399.75 353.277 400.831C354.201 401.9 355.233 402.872 356.356 403.732C355.015 403.158 353.792 402.341 352.75 401.321C351.722 400.282 350.828 399.118 350.089 397.857C348.636 395.341 347.728 392.549 347.424 389.66Z" fill="black"/>
<path d="M379.764 354.798C380.659 356.444 381.502 358.102 382.385 359.748L381.845 359.958C381.12 358.247 380.422 356.536 379.764 354.798Z" fill="black"/>
<path d="M402.998 397.83C402.115 397.285 401.349 396.569 400.746 395.724C400.101 394.934 399.495 394.092 398.902 393.249C398.217 392.236 397.572 391.209 396.939 390.169L397.743 389.84C398.296 390.867 398.862 391.893 399.455 392.907C399.956 393.789 400.469 394.671 401.023 395.527C401.545 396.401 402.213 397.18 402.998 397.83Z" fill="black"/>
<path d="M584.882 326.408C584.154 322.646 582.759 319.046 580.764 315.774C579.921 314.164 578.51 312.923 576.805 312.292C575.03 311.85 573.177 311.823 571.39 312.215C569.529 312.521 567.661 313.024 565.723 313.388C564.734 313.592 563.73 313.715 562.721 313.756C561.615 313.825 560.509 313.599 559.518 313.102C558.515 312.569 557.695 311.747 557.165 310.742C556.682 309.807 556.351 308.801 556.185 307.762C556.095 307.278 556.03 306.747 555.948 306.371C555.842 305.983 555.678 305.613 555.462 305.274C554.986 304.506 554.421 303.796 553.778 303.16L554.244 301.971C554.24 301.967 554.236 301.964 554.231 301.963C554.226 301.961 554.221 301.96 554.216 301.961C554.211 301.961 554.206 301.962 554.202 301.965C554.197 301.967 554.193 301.97 554.19 301.974C554.198 301.974 554.248 301.941 554.276 301.929C554.363 301.882 554.446 301.826 554.523 301.764C554.714 301.614 554.896 301.454 555.069 301.283C555.433 300.933 555.788 300.548 556.133 300.154C556.825 299.367 557.493 298.535 558.132 297.701L558.879 298.43C558.762 298.497 558.638 298.552 558.51 298.594L558.25 298.644C558.075 298.676 557.934 298.676 557.775 298.693C557.473 298.708 557.178 298.714 556.886 298.71C556.303 298.704 555.727 298.68 555.153 298.645C554.004 298.58 552.866 298.474 551.723 298.367C551.655 298.361 551.591 298.336 551.536 298.296C551.482 298.255 551.44 298.2 551.415 298.137C551.241 297.673 551.041 297.22 550.816 296.778C550.592 296.363 550.325 295.877 550.026 295.76C549.136 295.42 548.101 295.197 547.128 294.924C546.113 294.678 545.114 294.373 544.135 294.011C543.988 293.935 543.859 293.826 543.758 293.694C543.658 293.562 543.587 293.409 543.553 293.246C543.494 292.959 543.493 292.662 543.549 292.374C543.65 291.848 543.816 291.337 544.044 290.852C544.957 289.004 546.025 287.237 547.236 285.568C547.811 284.769 548.262 283.887 548.573 282.953C548.883 282.073 548.96 281.128 548.799 280.208L548.814 280.252C548.185 278.593 547.744 276.869 547.498 275.112C547.23 273.379 547.063 271.631 547 269.879C546.86 266.385 546.944 262.885 547.251 259.402C547.268 259.211 547.348 259.033 547.479 258.894C547.611 258.755 547.785 258.665 547.974 258.638C548.163 258.611 548.355 258.648 548.52 258.744C548.685 258.839 548.813 258.988 548.883 259.166L548.898 259.203C549.921 261.782 551.135 264.281 552.53 266.679C553.903 269.072 555.508 271.323 557.322 273.402C559.057 275.457 561.208 277.12 563.634 278.282C566.029 279.359 568.739 279.501 571.233 278.683L570.638 279.395C570.85 278.218 571.192 277.068 571.656 275.966C572.112 274.782 572.857 273.731 573.825 272.91C574.109 272.712 574.408 272.535 574.719 272.382C575.055 272.266 575.399 272.176 575.749 272.114C576.096 272.102 576.444 272.116 576.789 272.155C577.114 272.213 577.432 272.307 577.737 272.434C578.042 272.525 578.33 272.664 578.591 272.847L579.379 273.334C579.842 273.713 580.284 274.11 580.729 274.503C580.794 274.561 580.846 274.634 580.879 274.715C581.465 276.184 581.949 277.691 582.328 279.227C582.729 280.766 582.948 282.346 582.982 283.935C583.04 284.756 582.93 285.579 582.658 286.356C582.386 287.132 581.958 287.845 581.4 288.45C580.753 288.934 580.007 289.267 579.214 289.423C578.422 289.58 577.605 289.557 576.823 289.356C576.811 289.354 576.799 289.35 576.789 289.343C576.779 289.337 576.77 289.329 576.763 289.319C576.755 289.309 576.75 289.298 576.748 289.286C576.745 289.274 576.744 289.262 576.746 289.25C576.751 289.227 576.763 289.207 576.781 289.192C576.8 289.178 576.823 289.171 576.846 289.173C577.581 289.298 578.335 289.262 579.056 289.07C579.776 288.877 580.447 288.531 581.021 288.055C581.47 287.481 581.798 286.821 581.987 286.117C582.176 285.413 582.221 284.678 582.119 283.956C582.008 282.448 581.722 280.958 581.266 279.516C580.827 278.062 580.289 276.641 579.656 275.261L579.805 275.472L578.563 274.482L577.902 274.106C577.701 273.966 577.475 273.864 577.237 273.807C576.84 273.622 576.399 273.556 575.966 273.615C575.533 273.674 575.126 273.857 574.795 274.142C574.071 274.82 573.525 275.665 573.204 276.603C572.827 277.588 572.557 278.611 572.399 279.654C572.375 279.814 572.308 279.964 572.205 280.089C572.102 280.214 571.968 280.309 571.816 280.363L571.804 280.368C568.895 281.406 565.7 281.296 562.869 280.061C560.159 278.823 557.762 276.993 555.853 274.707C553.958 272.52 552.305 270.136 550.921 267.595C549.519 265.086 548.308 262.474 547.297 259.783L548.944 259.585C548.573 262.991 548.397 266.415 548.414 269.842C548.417 271.55 548.505 273.256 548.679 274.956C548.831 276.639 549.176 278.299 549.706 279.904L549.718 279.939L549.721 279.949C549.83 281.03 549.717 282.122 549.389 283.159C549.062 284.195 548.526 285.154 547.816 285.977C546.594 287.587 545.517 289.301 544.598 291.1C544.384 291.536 544.225 291.996 544.125 292.47C544.031 292.932 544.086 293.368 544.411 293.523C545.348 293.859 546.304 294.14 547.275 294.363C548.269 294.626 549.236 294.833 550.268 295.18C550.776 295.474 551.176 295.921 551.411 296.458C551.664 296.918 551.89 297.392 552.089 297.878L551.781 297.648C552.912 297.715 554.051 297.75 555.182 297.761C555.748 297.767 556.313 297.762 556.87 297.739C557.148 297.729 557.423 297.709 557.689 297.683C557.813 297.663 557.959 297.653 558.063 297.626L558.222 297.589C558.24 297.576 558.23 297.576 558.245 297.585L558.924 297.996C558.975 298.027 559.011 298.077 559.025 298.135C559.039 298.192 559.03 298.253 558.999 298.304L558.992 298.315C558.376 299.211 557.746 300.08 557.066 300.933C556.726 301.361 556.376 301.781 555.989 302.192C555.791 302.407 555.581 302.61 555.359 302.8C555.233 302.912 555.097 303.011 554.953 303.099C554.743 303.243 554.498 303.327 554.244 303.341L554.709 302.152C555.477 302.841 556.16 303.619 556.743 304.47C557.06 304.939 557.301 305.454 557.457 305.998C557.592 306.563 557.647 306.993 557.748 307.457C557.828 308.299 558.098 309.112 558.537 309.836C558.976 310.559 559.573 311.173 560.284 311.633C561.939 312.248 563.747 312.325 565.449 311.851C567.319 311.538 569.202 311.068 571.165 310.782C573.177 310.371 575.261 310.473 577.224 311.08C577.721 311.263 578.199 311.495 578.65 311.774C579.085 312.072 579.488 312.415 579.853 312.797C580.211 313.164 580.534 313.563 580.818 313.989C581.117 314.39 581.367 314.82 581.625 315.244C582.611 316.948 583.38 318.77 583.914 320.665C584.476 322.531 584.862 324.446 585.065 326.384C585.066 326.396 585.065 326.408 585.062 326.42C585.058 326.431 585.052 326.442 585.045 326.451C585.037 326.461 585.028 326.468 585.017 326.474C585.006 326.48 584.994 326.483 584.982 326.484C584.959 326.486 584.936 326.479 584.918 326.464C584.9 326.45 584.887 326.43 584.882 326.408Z" fill="black"/>
<path d="M621.684 283.228C620.183 278.91 609.554 267.128 606.406 265.72C606.406 265.72 606.076 252.517 601.256 249.2C601.256 249.2 612.886 239.406 599.596 231.1C599.596 231.1 588.124 225.795 587.794 240.235C587.794 240.235 560.556 237.247 548.096 259.494C548.096 259.494 556.012 284.11 571.514 279.529C571.514 279.529 573.069 268.511 580.273 274.987C580.273 274.987 586.688 288.045 578.271 290.152C576.774 292.926 576.343 296.152 577.06 299.221C578.271 304.316 576.269 311.463 576.269 311.463C576.269 311.463 571.185 329.55 586.135 326.391C601.084 323.245 624.674 315.11 628.823 298.668C628.823 298.668 623.173 287.545 621.684 283.228ZM595.263 242.723C596.003 243.177 596.68 243.726 597.278 244.355C597.943 244.969 598.352 245.81 598.424 246.712C597.916 246.082 597.3 245.547 596.606 245.132C595.934 244.697 595.276 244.263 594.578 243.855C593.141 243.021 591.763 242.088 590.455 241.064C592.16 241.258 593.801 241.824 595.263 242.723V242.723ZM604.14 271.973C602.802 274.139 601.141 276.087 599.214 277.751C597.294 279.39 595.195 280.807 592.958 281.977C590.746 283.164 588.403 284.087 585.977 284.728C588.216 283.636 590.35 282.385 592.444 281.095C594.52 279.8 596.497 278.352 598.358 276.764C600.19 275.171 601.838 273.379 603.271 271.42C604.638 269.383 605.678 267.144 606.353 264.785C606.163 267.316 605.407 269.772 604.14 271.972L604.14 271.973Z" fill="black"/>
<path d="M550.09 279.58C550.8 278.507 551.789 277.647 552.952 277.094C553.539 276.809 554.165 276.617 554.811 276.525C555.461 276.434 556.124 276.514 556.734 276.758C555.558 276.984 554.42 277.376 553.354 277.924C552.282 278.435 551.252 279.037 550.09 279.58Z" fill="black"/>
<path d="M554.243 284.45C554.602 284.438 554.942 284.286 555.192 284.028C555.441 283.77 555.581 283.425 555.581 283.067C555.581 282.708 555.441 282.363 555.192 282.105C554.942 281.847 554.602 281.696 554.243 281.683C553.885 281.696 553.545 281.847 553.295 282.105C553.046 282.363 552.906 282.708 552.906 283.067C552.906 283.425 553.046 283.77 553.295 284.028C553.545 284.286 553.885 284.438 554.243 284.45Z" fill="black"/>
<path d="M628.828 298.625C635.184 299.039 641.432 300.479 647.328 302.888C653.257 305.22 658.883 308.256 664.088 311.929C674.394 319.441 683.114 328.914 689.746 339.804L692.209 343.875L694.498 348.045C695.297 349.416 695.967 350.854 696.674 352.274C697.353 353.706 698.129 355.095 698.729 356.564C700.002 359.469 701.296 362.367 702.378 365.35C703.572 368.292 704.555 371.309 705.557 374.32C706.087 375.817 706.525 377.342 706.957 378.868L708.275 383.443C709.074 386.516 709.786 389.616 710.518 392.707L713.519 411.484C713.538 411.605 713.511 411.729 713.442 411.83C713.373 411.931 713.268 412.002 713.148 412.028L699.606 414.998L686.044 417.876L672.481 420.754L658.903 423.557C658.891 423.56 658.878 423.557 658.868 423.551C658.858 423.544 658.851 423.534 658.848 423.522C658.846 423.51 658.848 423.498 658.854 423.487C658.861 423.477 658.871 423.47 658.883 423.467L672.38 420.294L685.893 417.196L699.407 414.097L712.941 411.09L712.57 411.634L709.64 392.87C708.938 389.794 708.243 386.715 707.486 383.649L706.245 379.073C705.838 377.545 705.425 376.019 704.922 374.52C701.357 362.363 696.145 350.75 689.43 340.005C686.003 334.691 682.124 329.682 677.835 325.036C673.53 320.416 668.772 316.24 663.633 312.57C658.518 308.862 652.976 305.781 647.126 303.394C644.199 302.206 641.2 301.205 638.146 300.396C635.098 299.547 631.978 298.986 628.826 298.718C628.814 298.718 628.802 298.713 628.793 298.704C628.784 298.696 628.779 298.684 628.779 298.672C628.78 298.659 628.785 298.648 628.794 298.639C628.803 298.63 628.815 298.626 628.828 298.625Z" fill="black"/>
<path d="M708.082 412.655C708.891 414.65 709.537 416.708 710.015 418.807C710.533 420.897 710.879 423.026 711.05 425.172C710.239 423.178 709.593 421.12 709.117 419.02C708.602 416.93 708.255 414.801 708.082 412.655Z" fill="black"/>
<path d="M625.006 336.522C626.156 333.914 627.588 331.439 629.276 329.142C630.958 326.821 632.897 324.697 635.057 322.812C637.245 320.927 639.745 319.438 642.444 318.411C643.807 317.943 645.215 317.621 646.646 317.449C648.071 317.327 649.506 317.377 650.919 317.597C648.105 317.499 645.302 318.002 642.698 319.073C640.127 320.166 637.749 321.665 635.654 323.513C633.519 325.334 631.57 327.363 629.838 329.57C628.071 331.775 626.457 334.098 625.006 336.522Z" fill="black"/>
<path d="M674.506 330.546C676.092 331.731 677.524 333.109 678.77 334.648C680.037 336.181 681.131 337.849 682.034 339.622C682.951 341.393 683.63 343.278 684.051 345.227C684.487 347.163 684.629 349.153 684.473 351.131C684.29 350.156 684.291 349.177 684.037 348.229L683.762 346.801L683.364 345.403C682.818 343.551 682.098 341.755 681.211 340.039C680.332 338.315 679.329 336.657 678.209 335.078C677.075 333.488 675.838 331.974 674.506 330.546Z" fill="black"/>
<path d="M622.432 346.522C621.067 349.86 619.676 353.187 618.23 356.487C616.772 359.782 615.376 363.106 613.863 366.375L609.392 376.215C607.879 379.485 606.337 382.74 604.734 385.968L604.496 385.071L615.996 393.68C619.838 396.538 623.754 399.291 627.685 402.024C631.604 404.773 635.59 407.429 639.554 410.114C643.533 412.779 647.468 415.506 651.409 418.224L650.296 418.341C653.78 414.315 657.047 410.107 660.083 405.735C663.136 401.372 666.049 396.909 668.664 392.274C671.294 387.649 673.585 382.84 675.519 377.884C677.396 372.891 678.697 367.701 679.398 362.414C679.399 362.402 679.402 362.39 679.408 362.38C679.414 362.369 679.421 362.359 679.431 362.352C679.44 362.344 679.451 362.338 679.462 362.334C679.474 362.331 679.486 362.329 679.498 362.331C679.521 362.333 679.543 362.345 679.558 362.362C679.574 362.38 679.582 362.402 679.582 362.425C679.338 367.821 678.365 373.159 676.689 378.294C674.948 383.41 672.797 388.378 670.258 393.15C667.691 397.899 664.828 402.481 661.685 406.87C658.543 411.262 655.157 415.474 651.542 419.485C651.403 419.637 651.213 419.733 651.008 419.755C650.803 419.777 650.597 419.722 650.429 419.602C646.563 416.779 642.691 413.964 638.862 411.087C635.02 408.23 631.198 405.344 627.311 402.55C623.434 399.742 619.543 396.953 615.578 394.269L603.656 386.252C603.52 386.161 603.42 386.024 603.374 385.866C603.328 385.708 603.339 385.539 603.404 385.389L603.419 385.355C604.861 382.053 606.364 378.779 607.897 375.518L612.562 365.769C614.094 362.508 615.743 359.303 617.331 356.068C618.929 352.838 620.584 349.635 622.265 346.444C622.276 346.423 622.294 346.407 622.317 346.4C622.339 346.392 622.364 346.393 622.385 346.403C622.407 346.413 622.424 346.431 622.432 346.453C622.441 346.475 622.441 346.5 622.432 346.522V346.522Z" fill="black"/>
<path d="M566.929 312.377C565.654 319.617 564.297 326.842 562.857 334.051C561.405 341.257 559.933 348.46 558.256 355.622C557.409 359.197 556.51 362.779 555.394 366.288L552.019 376.787C550.875 380.274 549.965 383.833 549.295 387.441C548.966 389.239 548.797 391.063 548.792 392.891C548.813 394.7 549.162 396.491 549.822 398.177L549.358 398.182C551.086 394.517 553.51 391.224 556.497 388.484C559.458 385.71 562.907 383.508 566.67 381.989C567.605 381.603 568.586 381.339 569.543 381.008C570.027 380.861 570.5 380.669 570.993 380.56L572.48 380.255C573.474 380.074 574.457 379.8 575.462 379.696L578.484 379.432C579.49 379.332 580.502 379.314 581.51 379.379L584.538 379.462C586.544 379.654 588.538 379.97 590.537 380.22L589.995 380.78C588.603 374.198 587.514 367.568 586.559 360.915C585.519 354.273 584.973 347.562 584.926 340.839C584.926 340.832 584.927 340.826 584.93 340.821C584.932 340.815 584.936 340.81 584.94 340.806C584.944 340.802 584.949 340.799 584.955 340.796C584.961 340.794 584.967 340.793 584.973 340.793C584.985 340.793 584.996 340.798 585.005 340.807C585.013 340.815 585.018 340.827 585.018 340.839C585.09 344.193 585.427 347.532 585.803 350.861C586.168 354.193 586.66 357.511 587.183 360.822C587.707 364.133 588.302 367.433 588.93 370.726C589.57 374.016 590.223 377.308 590.913 380.582C590.926 380.643 590.926 380.705 590.915 380.766C590.904 380.826 590.88 380.884 590.847 380.936C590.813 380.988 590.769 381.032 590.718 381.067C590.667 381.102 590.61 381.127 590.549 381.139C590.5 381.15 590.449 381.152 590.398 381.146L590.37 381.143C588.403 380.906 586.44 380.601 584.47 380.418L581.503 380.346C580.516 380.286 579.525 380.306 578.541 380.408L575.587 380.648C574.604 380.74 573.647 381.001 572.675 381.169L571.222 381.454C570.739 381.556 570.278 381.74 569.806 381.879C568.872 382.193 567.912 382.442 566.998 382.81C563.321 384.272 559.932 386.374 556.988 389.018C554.018 391.645 551.585 394.823 549.824 398.375L549.814 398.396C549.793 398.439 549.76 398.475 549.719 398.5C549.678 398.525 549.63 398.537 549.582 398.536C549.534 398.534 549.487 398.518 549.448 398.491C549.408 398.463 549.378 398.425 549.36 398.38C548.707 396.625 548.38 394.765 548.395 392.893C548.443 391.045 548.637 389.203 548.975 387.386C549.693 383.775 550.607 380.205 551.713 376.693C552.783 373.175 553.901 369.673 554.902 366.142C555.932 362.619 556.727 359.043 557.51 355.452L566.838 312.359C566.841 312.347 566.848 312.337 566.858 312.33C566.868 312.323 566.88 312.321 566.892 312.323C566.904 312.325 566.915 312.332 566.922 312.342C566.929 312.353 566.931 312.365 566.929 312.377H566.929Z" fill="black"/>
<path d="M550.943 395.746C551.273 397.176 551.67 398.573 552.088 399.953C552.499 401.326 553.009 402.667 553.615 403.966C554.185 405.263 554.933 406.474 555.838 407.563C556.765 408.655 557.923 409.528 559.227 410.12C557.744 409.842 556.38 409.122 555.313 408.056C554.248 406.989 553.389 405.735 552.779 404.356C552.155 403.007 551.69 401.59 551.394 400.133C551.078 398.693 550.926 397.221 550.943 395.746Z" fill="black"/>
<path d="M590.455 380.681C592.425 381.62 594.316 382.713 596.112 383.952C597.931 385.156 599.65 386.505 601.252 387.986C599.282 387.049 597.39 385.955 595.595 384.715C593.777 383.509 592.059 382.16 590.455 380.681Z" fill="black"/>
<path d="M485.584 438.011C486.223 437.345 486.961 436.782 487.772 436.341C488.603 435.846 489.587 435.673 490.536 435.856C491.489 436.155 492.286 436.815 492.756 437.695C492.979 438.117 493.181 438.555 493.364 438.995L493.787 440.351C493.824 440.468 493.812 440.594 493.755 440.703C493.699 440.811 493.601 440.893 493.484 440.929C493.367 440.966 493.24 440.954 493.131 440.897C493.023 440.84 492.941 440.743 492.905 440.626L492.895 440.589L492.884 440.541L492.597 439.248C492.464 438.835 492.314 438.422 492.146 438.023C491.815 437.244 491.191 436.625 490.408 436.3C489.56 436.071 488.658 436.159 487.871 436.549C487.038 436.916 486.267 437.409 485.584 438.011Z" fill="black"/>
<path d="M475.026 439.283C476.468 437.46 477.809 435.558 479.044 433.589C479.663 432.604 480.229 431.586 480.737 430.54C481.28 429.507 481.646 428.391 481.818 427.237C481.72 428.409 481.426 429.557 480.949 430.633C480.506 431.721 480.003 432.785 479.444 433.818C478.328 435.89 477.1 437.899 475.765 439.837C475.73 439.887 475.686 439.929 475.636 439.962C475.585 439.995 475.528 440.018 475.468 440.029C475.409 440.04 475.348 440.04 475.288 440.027C475.229 440.015 475.173 439.991 475.123 439.956C475.073 439.922 475.03 439.878 474.997 439.828C474.964 439.777 474.941 439.72 474.93 439.66C474.919 439.601 474.919 439.54 474.932 439.48C474.944 439.421 474.968 439.365 475.003 439.315L475.02 439.291L475.026 439.283Z" fill="black"/>
<path d="M473.018 435.726L481.82 420.959L473.823 436.177C473.766 436.285 473.668 436.366 473.551 436.402C473.435 436.438 473.308 436.426 473.2 436.37C473.092 436.313 473.011 436.216 472.974 436.099C472.938 435.982 472.949 435.856 473.005 435.748L473.018 435.726Z" fill="black"/>
<path d="M477.327 423.26L483.147 415.211L478.099 423.765C478.068 423.817 478.028 423.863 477.979 423.9C477.931 423.936 477.875 423.963 477.816 423.978C477.758 423.994 477.696 423.997 477.636 423.989C477.576 423.98 477.518 423.96 477.465 423.929C477.413 423.898 477.367 423.857 477.331 423.809C477.294 423.76 477.268 423.705 477.253 423.646C477.238 423.587 477.234 423.526 477.243 423.466C477.252 423.405 477.272 423.348 477.303 423.295L477.327 423.26Z" fill="black"/>
<path d="M216.735 458.608C205.09 464.676 193.366 470.582 181.68 476.566L164.095 485.426L146.496 494.259L145.834 491.398L165.531 491.153L185.229 491.001L224.625 490.788C250.888 490.677 277.152 490.706 303.416 491.079L342.813 491.525L362.511 491.752L382.209 491.883C408.473 492.004 434.736 491.831 461 491.647L539.79 490.721L579.186 490.377L618.581 490.161C671.108 489.783 723.636 489.775 776.164 490.137L775.102 494.057L743.934 475.479C733.531 469.31 723.192 463.032 712.829 456.796L681.77 438.032L650.803 419.113C650.751 419.081 650.714 419.031 650.699 418.972C650.685 418.913 650.694 418.851 650.724 418.799C650.755 418.747 650.805 418.709 650.863 418.693C650.921 418.677 650.984 418.685 651.036 418.715L682.693 436.459L714.257 454.359C724.768 460.344 735.303 466.287 745.775 472.339L777.23 490.426C777.63 490.655 777.943 491.01 778.12 491.434C778.298 491.859 778.332 492.331 778.215 492.776C778.099 493.222 777.839 493.616 777.476 493.9C777.113 494.184 776.667 494.34 776.206 494.345H776.169C723.641 494.843 671.114 494.946 618.586 494.653L579.19 494.52L539.794 494.26L461.002 493.5C434.738 493.371 408.474 493.253 382.21 493.429L362.513 493.602L342.815 493.87L303.42 494.399C277.157 494.828 250.893 494.912 224.629 494.856L185.233 494.727L165.535 494.616L145.837 494.412L145.802 494.411C145.462 494.408 145.133 494.289 144.869 494.075C144.605 493.86 144.422 493.563 144.349 493.231C144.276 492.899 144.318 492.552 144.468 492.247C144.618 491.942 144.867 491.697 145.175 491.551L162.976 483.132L180.789 474.74C192.703 469.222 204.579 463.627 216.533 458.193C216.588 458.168 216.65 458.166 216.707 458.186C216.764 458.206 216.81 458.248 216.836 458.302C216.863 458.356 216.867 458.418 216.848 458.475C216.829 458.532 216.789 458.58 216.735 458.608L216.735 458.608Z" fill="black"/>
<path d="M145.834 507.182L224.625 506.509L303.417 506.122L461 505.801L618.583 506.118L697.374 506.505L776.166 507.182L697.374 507.858L618.583 508.247L461 508.564L303.417 508.241L224.625 507.854L145.834 507.182Z" fill="black"/>
<path d="M604.884 386.235C600.189 393.585 594.433 400.201 587.803 405.869C581.228 411.721 573.585 416.249 565.293 419.206C561.118 420.633 556.8 421.599 552.415 422.086C550.223 422.318 548.02 422.434 545.816 422.436L542.538 422.333L539.286 422.344L513.273 422.445C513.145 422.445 513.017 422.418 512.899 422.367C505.878 419.301 498.849 416.239 491.799 413.256C490.054 412.529 488.232 411.74 486.548 411.12L486.264 411.022C486.22 411.027 486.243 411.05 486.229 411.03C486.091 411.059 485.959 411.105 485.834 411.169C485.468 411.346 485.125 411.566 484.811 411.825C484.112 412.383 483.474 413.013 482.908 413.706C480.536 416.51 479.049 419.954 478.633 423.602C478.617 423.749 478.567 423.891 478.488 424.015C477.69 425.258 476.905 426.504 476.169 427.77C475.437 429.005 474.803 430.296 474.273 431.631C474.037 432.248 473.875 432.891 473.793 433.546C473.753 434.137 473.86 434.728 474.105 435.267C474.887 436.546 475.604 437.865 476.253 439.217C476.325 439.405 476.337 439.611 476.286 439.806L476.284 439.813C476.077 440.65 475.987 441.512 476.017 442.373C476.032 443.199 476.224 444.013 476.58 444.758C476.922 445.46 477.488 446.03 478.188 446.377C478.932 446.753 479.743 446.983 480.574 447.053L480.391 447.054C481.619 446.887 482.833 446.626 484.02 446.271C485.211 445.929 486.369 445.478 487.477 444.925C488.559 444.386 489.565 443.706 490.469 442.904C491.317 442.106 492.001 441.152 492.484 440.093C492.561 439.92 492.69 439.775 492.852 439.677C493.014 439.579 493.202 439.533 493.391 439.545C493.581 439.556 493.762 439.625 493.911 439.742C494.06 439.859 494.169 440.019 494.225 440.2L494.232 440.222C494.797 442.038 495.757 443.707 497.042 445.11C498.332 446.516 499.932 447.602 501.716 448.282C503.549 448.896 505.477 449.178 507.41 449.115C508.385 449.092 509.364 448.922 510.341 448.837L513.245 448.189L513.279 448.182C513.441 448.146 513.609 448.152 513.769 448.198C519.593 449.876 525.51 451.213 531.49 452.204C537.475 453.227 543.508 453.948 549.566 454.363C561.674 455.257 573.847 454.659 585.809 452.584C591.757 451.469 597.607 449.88 603.302 447.834L607.527 446.192L611.652 444.32C613.06 443.761 614.365 442.997 615.72 442.327C617.08 441.668 618.406 440.939 619.692 440.144C624.938 437.096 629.825 433.469 634.261 429.331L637.546 426.17C638.577 425.055 639.573 423.905 640.59 422.772L642.107 421.064L643.489 419.246L646.257 415.604L643.637 419.356L642.325 421.236L640.873 423.008C639.899 424.185 638.945 425.382 637.952 426.546L634.774 429.862C630.451 434.231 625.651 438.102 620.465 441.401C615.302 444.774 609.753 447.515 603.937 449.566C598.144 451.648 592.194 453.264 586.144 454.397C574.03 456.501 561.703 457.108 549.44 456.204C543.321 455.783 537.226 455.055 531.18 454.022C525.117 453.018 519.118 451.661 513.214 449.958L513.737 449.967L510.645 450.656C509.584 450.755 508.533 450.933 507.464 450.958C505.294 451.029 503.129 450.708 501.073 450.011C499.014 449.228 497.166 447.975 495.677 446.352C494.183 444.726 493.077 442.783 492.441 440.669L494.189 440.798C493.605 442.102 492.767 443.278 491.725 444.256C490.694 445.176 489.546 445.955 488.309 446.572C487.101 447.175 485.841 447.666 484.543 448.04C483.25 448.426 481.928 448.71 480.591 448.888L480.571 448.891C480.517 448.897 480.461 448.897 480.407 448.89C479.324 448.798 478.27 448.494 477.304 447.997C476.28 447.471 475.45 446.631 474.938 445.6C474.458 444.615 474.197 443.539 474.173 442.444C474.134 441.387 474.247 440.331 474.509 439.307L474.54 439.903C474.047 438.597 473.195 437.578 472.422 436.024C472.051 435.202 471.89 434.301 471.953 433.401C472.047 432.579 472.245 431.771 472.54 430.998C473.104 429.564 473.783 428.177 474.569 426.851C475.329 425.543 476.13 424.272 476.941 423.009L476.796 423.422C477.247 419.402 478.883 415.607 481.496 412.518C482.145 411.727 482.876 411.007 483.676 410.37C484.105 410.021 484.573 409.725 485.072 409.488C485.377 409.341 485.703 409.242 486.038 409.195C486.266 409.185 486.494 409.198 486.719 409.234L487.116 409.366C489.029 410.068 490.723 410.813 492.516 411.557C499.585 414.548 506.612 417.609 513.64 420.678L513.266 420.6L539.333 420.5L542.591 420.49L545.821 420.591C547.957 420.59 550.091 420.477 552.215 420.253C556.465 419.786 560.649 418.845 564.689 417.447C572.819 414.623 580.399 410.418 587.098 405.018C590.48 402.328 593.668 399.402 596.637 396.263C599.637 393.135 602.394 389.782 604.884 386.235Z" fill="black"/>
<path d="M381.861 360.001C380.948 360.466 380.029 360.917 379.096 361.333L379.242 360.995C379.834 362.267 380.378 363.56 380.915 364.854C381.47 366.142 381.974 367.45 382.428 368.778C382.891 370.103 383.316 371.442 383.802 372.757C384.291 374.071 384.833 375.364 385.39 376.651C387.705 381.764 389.907 386.922 391.773 392.214L391.28 392.001C393.143 391.332 395.022 390.703 396.922 390.126C396.933 390.123 396.945 390.124 396.955 390.129C396.966 390.134 396.974 390.143 396.978 390.153C396.982 390.164 396.983 390.176 396.978 390.187C396.974 390.198 396.966 390.207 396.956 390.212C395.176 391.092 393.378 391.924 391.56 392.707C391.471 392.746 391.371 392.748 391.28 392.712C391.19 392.677 391.117 392.608 391.078 392.519L391.067 392.494C388.792 387.365 386.855 382.102 385.029 376.794C384.551 375.476 384.058 374.163 383.512 372.872C382.963 371.582 382.353 370.316 381.781 369.035C381.198 367.758 380.667 366.461 380.188 365.143C379.691 363.832 379.2 362.519 378.757 361.187L378.749 361.163C378.728 361.101 378.733 361.033 378.762 360.974C378.791 360.916 378.841 360.87 378.903 360.849C379.866 360.509 380.844 360.206 381.827 359.916C381.838 359.912 381.85 359.913 381.861 359.918C381.871 359.924 381.879 359.932 381.884 359.943C381.888 359.954 381.888 359.966 381.884 359.977C381.88 359.987 381.872 359.996 381.861 360.002V360.001Z" fill="black"/>
<path d="M397.726 389.797C400.337 388.691 402.934 387.548 405.557 386.471L413.423 383.233C418.675 381.096 423.935 378.977 429.237 376.966L429.038 377.426L426.062 369.562L423.027 361.722C420.956 356.513 418.809 351.336 416.669 346.155L417.058 346.323C411.68 348.547 406.291 350.744 400.891 352.913L400.872 352.921C400.79 352.953 400.7 352.958 400.616 352.933C400.276 352.859 399.959 352.704 399.692 352.481C399.422 352.24 399.227 351.926 399.13 351.577C399.048 351.262 399.022 350.934 399.053 350.61C399.078 350.299 399.14 349.992 399.239 349.697C399.253 349.654 399.274 349.615 399.301 349.579L399.31 349.568C399.829 348.908 400.117 348.097 400.129 347.258C400.126 346.852 400.04 346.451 399.875 346.08C399.71 345.709 399.47 345.375 399.171 345.101C398.506 344.562 397.705 344.218 396.856 344.106C396.007 343.993 395.144 344.117 394.362 344.464C393.55 344.749 392.831 345.249 392.282 345.911C391.733 346.572 391.373 347.371 391.243 348.22C391.207 348.636 391.256 349.054 391.387 349.45C391.519 349.846 391.73 350.21 392.008 350.521C392.599 351.155 393.387 351.572 394.244 351.704L394.261 351.707C394.29 351.712 394.318 351.722 394.344 351.737C394.885 352.02 395.335 352.45 395.641 352.978C395.795 353.274 395.859 353.608 395.827 353.939C395.785 354.258 395.666 354.562 395.48 354.824C395.45 354.874 395.405 354.912 395.35 354.933L395.34 354.937C391.042 356.592 386.73 358.21 382.403 359.791C382.391 359.794 382.379 359.794 382.368 359.789C382.358 359.784 382.349 359.775 382.345 359.764C382.341 359.753 382.341 359.741 382.345 359.73C382.349 359.719 382.358 359.71 382.368 359.705C386.6 357.884 390.849 356.105 395.115 354.37L394.975 354.482C395.103 354.312 395.18 354.109 395.195 353.896C395.211 353.684 395.165 353.471 395.064 353.284C394.81 352.887 394.453 352.567 394.031 352.358L394.13 352.39C393.107 352.255 392.16 351.781 391.44 351.043C391.08 350.659 390.802 350.206 390.623 349.711C390.444 349.217 390.368 348.691 390.399 348.165C390.51 347.141 390.909 346.168 391.549 345.36C392.189 344.551 393.044 343.94 394.017 343.595C394.964 343.177 396.009 343.031 397.035 343.173C398.061 343.314 399.027 343.739 399.825 344.398C400.221 344.76 400.539 345.2 400.759 345.69C400.979 346.18 401.096 346.71 401.103 347.247C401.102 348.305 400.74 349.332 400.076 350.156L400.146 350.028C399.997 350.444 399.961 350.892 400.044 351.327C400.093 351.506 400.192 351.668 400.33 351.793C400.469 351.918 400.64 352 400.824 352.029L400.549 352.05C405.965 349.923 411.395 347.829 416.837 345.766L416.845 345.763C416.918 345.736 416.999 345.738 417.07 345.77C417.142 345.802 417.198 345.861 417.226 345.934C419.226 351.17 421.219 356.409 423.288 361.618L426.463 369.403L429.698 377.164C429.733 377.249 429.733 377.345 429.698 377.431C429.663 377.516 429.595 377.584 429.51 377.62L429.509 377.62L429.499 377.625C424.26 379.795 418.978 381.858 413.689 383.902L405.742 386.936C403.094 387.951 400.42 388.898 397.76 389.883C397.749 389.887 397.737 389.887 397.726 389.882C397.714 389.877 397.706 389.868 397.701 389.857C397.697 389.845 397.697 389.833 397.702 389.822C397.706 389.811 397.715 389.802 397.726 389.797L397.726 389.797Z" fill="black"/>
<path d="M723.675 462.027L670.936 430.485L715.37 423.512C715.37 423.512 726.333 436.793 723.675 462.027Z" fill="black"/>
</svg>
