<svg width="64" height="64" viewBox="0 0 64 64" fill="none" xmlns="http://www.w3.org/2000/svg">
<g clip-path="url(#clip0)">
<path fill-rule="evenodd" clip-rule="evenodd" d="M15.6974 20.9926C17.5647 20.9926 19.0919 22.5197 19.0919 24.3871C19.0919 30.3789 20.7112 34.3225 20.7112 38.904C20.7112 43.3155 19.2337 47.0642 17.1749 48.4461V51.8619L11.5481 54.3209L5.97083 51.8619C4.58558 45.4981 0.939453 42.9186 0.939453 32.7527C0.939453 22.1264 5.10295 13.5161 10.2372 13.5161C10.9493 13.5161 11.6405 13.6791 12.3066 13.9909V24.3869C12.3065 22.5197 13.8336 20.9926 15.6974 20.9926Z" fill="#F8F8F5"/>
<path fill-rule="evenodd" clip-rule="evenodd" d="M8.60023 8.01712H11.4525C11.7927 7.95687 12.062 7.6875 12.1222 7.3475V4.495C12.1222 2.63475 13.6422 1.11475 15.5025 1.11475C17.3629 1.11475 18.8829 2.63487 18.8829 4.495V7.3475C18.9431 7.68762 19.2125 7.95687 19.5561 8.01712H22.405C24.2652 8.01712 25.7889 9.54062 25.7889 11.3974V14.923H29.311C31.1712 14.923 32.6914 16.4431 32.6914 18.3032C32.6914 20.16 31.1712 21.6835 29.311 21.6835H25.7889V25.2055C25.7889 27.0657 24.2652 28.5857 22.405 28.5857H8.60023C6.73985 28.5857 5.21973 27.0657 5.21973 25.2055V11.3975C5.21973 9.54075 6.73985 8.01712 8.60023 8.01712Z" fill="#FF8838"/>
<path fill-rule="evenodd" clip-rule="evenodd" d="M15.6976 20.9927C17.5649 20.9927 19.0921 22.5198 19.0921 24.3872C19.0921 30.3789 20.7114 34.3226 20.7114 38.9041C20.7114 43.3156 19.2339 47.0643 17.1751 48.4462V51.8619H12.3066V24.3872C12.3066 22.5198 13.8338 20.9927 15.6976 20.9927Z" fill="#F8F8F5"/>
<path fill-rule="evenodd" clip-rule="evenodd" d="M48.3039 20.9926C46.4367 20.9926 44.9093 22.5197 44.9093 24.3871C44.9093 30.3789 43.29 34.3225 43.29 38.904C43.29 43.3155 44.7675 47.0642 46.8298 48.4461V51.8619L52.6834 54.4131L58.0339 51.8619C59.4194 45.4981 63.0654 42.9186 63.0654 32.7527C63.0654 22.1264 58.902 13.5161 53.7642 13.5161C53.0555 13.5161 52.3645 13.6791 51.6984 13.9909V24.3869C51.6983 22.5197 50.1712 20.9926 48.3039 20.9926Z" fill="#F8F8F5"/>
<path fill-rule="evenodd" clip-rule="evenodd" d="M54.4019 8.01712H51.5495C51.2094 7.95687 50.9402 7.6875 50.8799 7.3475V4.495C50.8799 2.63475 49.3599 1.11475 47.4997 1.11475C45.6394 1.11475 44.1192 2.63487 44.1192 4.495V7.3475C44.059 7.68762 43.7897 7.95687 43.4459 8.01712H40.597C38.7368 8.01712 37.2168 9.54062 37.2168 11.3974V14.2497C37.2769 14.5934 37.5463 14.8627 37.8864 14.923H40.7388C42.599 14.923 44.119 16.4431 44.119 18.3032C44.119 20.16 42.599 21.6835 40.7388 21.6835H37.8864C37.5462 21.7437 37.2769 22.013 37.2168 22.3531V25.2055C37.2168 27.0657 38.7368 28.5857 40.597 28.5857H54.4019C56.2623 28.5857 57.7823 27.0657 57.7823 25.2055V11.3975C57.7823 9.54075 56.2623 8.01712 54.4019 8.01712Z" fill="#F8F8F5"/>
<path fill-rule="evenodd" clip-rule="evenodd" d="M48.3039 20.9927C46.4367 20.9927 44.9093 22.5198 44.9093 24.3872C44.9093 30.3789 43.29 34.3226 43.29 38.9041C43.29 42.6742 44.3813 45.9553 45.9724 47.7021C46.7732 48.5773 46.8405 49.1654 46.8298 49.8812V51.8619H51.6983V24.3872C51.6983 22.5198 50.1712 20.9927 48.3039 20.9927Z" fill="#F8F8F5"/>
<path fill-rule="evenodd" clip-rule="evenodd" d="M20.4557 61.8823V55.1429C20.4557 53.3393 18.9782 51.8618 17.1746 51.8618H5.97058C4.16695 51.8618 2.68945 53.3393 2.68945 55.1429V61.8823C2.76033 62.4032 3.17133 62.8142 3.6922 62.8851H19.4531C19.9703 62.8142 20.3815 62.4032 20.4557 61.8823Z" fill="#F8F8F5"/>
<path fill-rule="evenodd" clip-rule="evenodd" d="M43.5488 61.8823V55.1429C43.5488 53.3393 45.0263 51.8618 46.83 51.8618H58.0306C59.8342 51.8618 61.3117 53.3393 61.3117 55.1429V61.8823C61.2408 62.4032 60.8298 62.8142 60.3125 62.8851H44.548C44.0306 62.8142 43.6196 62.4032 43.5488 61.8823Z" fill="#F8F8F5"/>
<path d="M12.3066 34.5777C12.3066 35.0808 11.8991 35.4883 11.396 35.4883C10.8929 35.4883 10.4854 35.0808 10.4854 34.5777V28.5859H12.3066V34.5777Z" fill="#F8F8F5"/>
<path d="M53.5195 34.5777C53.5195 35.0808 53.112 35.4883 52.6089 35.4883C52.1057 35.4883 51.6982 35.0808 51.6982 34.5777V28.5859H53.5195V34.5777Z" fill="#F8F8F5"/>
<path fill-rule="evenodd" clip-rule="evenodd" d="M17.7987 36.9622C17.7987 40.7571 16.7074 44.0595 15.088 45.7886C14.1597 46.7842 14.2589 48.1023 14.2625 48.6091V51.8618H17.1752V49.9591C17.1752 48.4461 17.6004 48.5985 18.8123 46.6603C19.9744 44.8072 20.7114 42.0222 20.7114 38.904C20.7114 34.3225 19.0922 30.3788 19.0922 24.3871C19.0922 22.573 17.65 21.0776 15.8535 20.9961C16.0625 21.4355 16.1795 21.928 16.1795 22.4453C16.1794 28.4371 17.7987 32.3807 17.7987 36.9622Z" fill="#F8F8F5"/>
<path fill-rule="evenodd" clip-rule="evenodd" d="M22.7519 14.4305V25.2057C22.7519 27.066 21.2318 28.586 19.3715 28.586H22.4046C24.2649 28.586 25.7885 27.066 25.7885 25.2057V21.6837H29.3106C31.1709 21.6837 32.691 20.1601 32.691 18.3035C32.691 16.4432 31.1709 14.9232 29.3106 14.9232H25.7885V11.3975C25.7885 9.54075 24.2649 8.01725 22.4046 8.01725H19.5558C19.2121 7.957 18.9429 7.68762 18.8825 7.34762V4.495C18.8825 2.63475 17.3625 1.11475 15.5021 1.11475C13.7553 1.11475 12.3061 2.45775 12.1396 4.162C12.2459 4.15137 12.3593 4.14787 12.4691 4.14787C14.3294 4.14787 15.8495 5.668 15.8495 7.52812V10.3805C15.9096 10.7206 16.1791 10.9899 16.5228 11.0502H19.3716C21.2318 11.0502 22.7519 12.5737 22.7519 14.4305Z" fill="#FF8838"/>
<path fill-rule="evenodd" clip-rule="evenodd" d="M54.7486 14.4305V25.2057C54.7486 26.9526 53.4057 28.4054 51.6978 28.5719V28.586H53.5191H54.4014C56.2618 28.586 57.7818 27.066 57.7818 25.2057V20.89V15.3979V11.3975C57.7818 9.54075 56.2618 8.01725 54.4014 8.01725H51.5491C51.2089 7.957 50.9397 7.68762 50.8794 7.34762V4.495C50.8794 2.63475 49.3594 1.11475 47.4992 1.11475C45.7522 1.11475 44.3029 2.45775 44.1328 4.162C44.2427 4.15137 44.3526 4.14787 44.4659 4.14787C46.3263 4.14787 47.8463 5.668 47.8463 7.52812V10.3805C47.9066 10.7206 48.1759 10.9899 48.5159 11.0502H51.3683C52.9416 11.0502 54.2703 12.138 54.6459 13.6014C54.6991 13.8175 54.7344 14.0407 54.7451 14.2746C54.7486 14.3242 54.7486 14.3774 54.7486 14.4305Z" fill="#F8F8F5"/>
<path fill-rule="evenodd" clip-rule="evenodd" d="M60.0321 32.7531C60.0321 42.9188 56.3826 45.4983 54.9971 51.8622H58.0337C59.4192 45.4984 63.0652 42.9189 63.0652 32.7531C63.0652 25.1067 60.9073 18.5019 57.7821 15.3979V20.2133C59.1853 23.5796 60.0321 27.9626 60.0321 32.7531Z" fill="#F8F8F5"/>
<path fill-rule="evenodd" clip-rule="evenodd" d="M58.2782 55.1429V61.8823C58.2074 62.4032 57.7963 62.8142 57.2789 62.8851H60.3121C60.8294 62.8142 61.2404 62.4032 61.3113 61.8823V55.1429C61.3113 53.3393 59.8338 51.8618 58.0302 51.8618H54.9971C55.6773 51.8618 56.3117 52.0744 56.8396 52.4323C57.7042 53.0241 58.2782 54.0197 58.2782 55.1429Z" fill="#F8F8F5"/>
<path fill-rule="evenodd" clip-rule="evenodd" d="M17.4192 55.1429V61.8823C17.3485 62.4032 16.9375 62.8142 16.4201 62.8851H19.4532C19.9705 62.8142 20.3816 62.4032 20.4559 61.8823V55.1429C20.4559 53.3393 18.9784 51.8618 17.1747 51.8618H14.1416C14.8219 51.8618 15.4562 52.0744 15.9806 52.4323C16.8489 53.0241 17.4192 54.0197 17.4192 55.1429Z" fill="#F8F8F5"/>
<path d="M11.367 24.3873C11.367 23.1968 11.8525 22.1125 12.6391 21.3294C13.4222 20.5428 14.5066 20.0574 15.6971 20.0574C16.8913 20.0574 17.9719 20.5428 18.7585 21.3294C19.5416 22.1125 20.0306 23.1967 20.0306 24.3873C20.0306 25.5424 20.0909 26.6232 20.1936 27.6472H22.4046C23.0779 27.6472 23.6874 27.3743 24.1303 26.9314C24.5733 26.4885 24.8496 25.8755 24.8496 25.2058V21.6838C24.8496 21.1664 25.2677 20.7448 25.7886 20.7448H29.3107C29.9804 20.7448 30.5935 20.4719 31.0364 20.0255C31.4794 19.5827 31.7558 18.9732 31.7558 18.3035C31.7558 17.6303 31.4794 17.0209 31.0364 16.5779C30.5935 16.1349 29.9805 15.8587 29.3107 15.8587H25.7886C25.2677 15.8587 24.8496 15.4405 24.8496 14.9233V11.3975C24.8496 10.7278 24.5733 10.1184 24.1303 9.67541C23.6874 9.23253 23.0779 8.95616 22.4046 8.95616H18.8825C18.3651 8.95616 17.9471 8.53453 17.9471 8.01716V4.49503C17.9471 3.82178 17.6707 3.21241 17.2279 2.76941C16.7849 2.32653 16.172 2.05016 15.5021 2.05016C14.8325 2.05016 14.223 2.32653 13.7765 2.76941C13.3336 3.21228 13.0608 3.82178 13.0608 4.49503V8.01716C13.0608 8.53453 12.639 8.95616 12.1217 8.95616H8.59975C7.93 8.95616 7.317 9.23253 6.874 9.67541C6.43113 10.1184 6.15462 10.7278 6.15462 11.3975V25.2058C6.15462 25.8755 6.43113 26.4885 6.874 26.9314C7.317 27.3743 7.92987 27.6472 8.59975 27.6472H11.367V24.3873ZM52.6328 34.5778C52.6328 35.0952 52.2146 35.5132 51.6974 35.5132C51.1801 35.5132 50.7584 35.095 50.7584 34.5778V28.586V24.3873C50.7584 23.714 50.482 23.0975 50.0356 22.6547C49.5928 22.2082 48.9761 21.9318 48.303 21.9318C47.6298 21.9318 47.0132 22.2082 46.5704 22.6547C46.1239 23.0977 45.8475 23.7142 45.8475 24.3873C45.8475 27.3318 45.4505 29.9113 44.9403 32.7955C44.5718 34.8862 44.2281 36.8455 44.2281 38.9042C44.2281 41.4448 44.9439 46.0545 47.3462 47.6703C47.6085 47.8439 47.7609 48.1344 47.7609 48.4462L47.7644 50.9265H57.2889C57.8063 48.8927 58.5325 47.2415 59.273 45.5549C60.6726 42.373 62.1254 39.0672 62.1254 32.7529C62.1254 29.0857 61.6186 25.6734 60.7435 22.7998C60.1978 21.0033 59.5104 19.423 58.7202 18.1297V25.2057C58.7202 26.3927 58.2349 27.4734 57.4519 28.2565C56.6687 29.0395 55.5916 29.525 54.401 29.525H52.6328V34.5778ZM52.6328 24.3873V27.6472H54.401C55.0744 27.6472 55.6838 27.3743 56.1268 26.9314C56.5696 26.4885 56.846 25.8755 56.846 25.2058V11.3975C56.846 10.7278 56.5696 10.1184 56.1268 9.67541C55.6838 9.23253 55.0744 8.95616 54.401 8.95616H50.8789C50.3615 8.95616 49.9399 8.53453 49.9399 8.01716V4.49503C49.9399 3.82178 49.667 3.21241 49.2241 2.76941C48.7811 2.32653 48.1683 2.05016 47.4985 2.05016C46.8288 2.05016 46.2158 2.32653 45.7728 2.76941C45.3298 3.21228 45.0534 3.82178 45.0534 4.49503V8.01716C45.0534 8.53453 44.6353 8.95616 44.118 8.95616H40.5959C39.9226 8.95616 39.3133 9.23253 38.8703 9.67541C38.4274 10.1184 38.151 10.7278 38.151 11.3975V13.9842H40.7376C41.928 13.9842 43.0054 14.4695 43.7884 15.2527C44.5714 16.0358 45.0568 17.1129 45.0568 18.3034C45.0568 19.4904 44.5713 20.5712 43.7884 21.3542C43.0052 22.1337 41.928 22.6192 40.7376 22.6192H38.1512V25.2058C38.1512 25.8755 38.4276 26.4885 38.8705 26.9314C39.3135 27.3743 39.9229 27.6472 40.5961 27.6472H43.81C43.9091 26.6232 43.973 25.5424 43.973 24.3873C43.973 23.1968 44.4585 22.1125 45.2451 21.3294C46.0283 20.5428 47.1125 20.0574 48.3031 20.0574C49.4972 20.0574 50.5779 20.5428 51.3645 21.3294C52.1475 22.1124 52.6328 23.1967 52.6328 24.3873ZM11.367 29.525H8.59975C7.40925 29.525 6.33187 29.0395 5.54887 28.2565C4.76575 27.4734 4.28038 26.3927 4.28038 25.2057V19.9368C3.77012 21.0458 3.32725 22.2965 2.96575 23.6608C2.26425 26.3218 1.8745 29.4115 1.8745 32.7529C1.8745 39.0672 3.32725 42.373 4.72687 45.5549C5.46737 47.2415 6.19375 48.8927 6.71112 50.9265H16.2356V48.4463C16.2356 48.1452 16.3844 47.851 16.6537 47.6704C19.0597 46.0547 19.7755 41.4448 19.7755 38.9043C19.7755 36.8457 19.4282 34.8862 19.0597 32.7957C18.553 29.9114 18.1561 27.3319 18.1561 24.3874C18.1561 23.7142 17.8798 23.0977 17.4333 22.6548C16.9869 22.2083 16.3737 21.9319 15.697 21.9319C15.0236 21.9319 14.4107 22.2083 13.9642 22.6548C13.5179 23.0978 13.2415 23.7143 13.2415 24.3874V28.5862V34.5779C13.2415 35.0953 12.8234 35.5133 12.3061 35.5133C11.7852 35.5133 11.367 35.0952 11.367 34.5779V29.525ZM50.305 61.9463C50.8224 61.9463 51.244 62.368 51.244 62.8853C51.244 63.4025 50.8224 63.8243 50.305 63.8243H43.5477C43.0304 63.8243 42.6087 63.4025 42.6087 62.8853V55.1432C42.6087 53.9844 43.0835 52.9285 43.8489 52.1633C44.4016 51.6105 45.1031 51.2102 45.8899 51.0329V48.9105C43.2216 46.703 42.3536 42.1144 42.3536 38.9042C42.3536 36.6897 42.7115 34.6487 43.0941 32.4767C43.2642 31.527 43.4344 30.5492 43.5831 29.5252H40.5961C39.4058 29.5252 38.3284 29.0397 37.5454 28.2567C36.7622 27.4735 36.2769 26.3928 36.2769 25.2058V21.6838C36.2769 21.1664 36.695 20.7448 37.216 20.7448H40.7381C41.4077 20.7448 42.0207 20.4719 42.4637 20.0255C42.9066 19.5827 43.183 18.9732 43.183 18.3035C43.183 17.6303 42.9066 17.0209 42.4637 16.5779C42.0207 16.1349 41.4079 15.8587 40.7381 15.8587H37.216C36.695 15.8587 36.2769 15.4405 36.2769 14.9233V11.3975C36.2769 10.2105 36.7624 9.12978 37.5454 8.35028C38.3285 7.56728 39.4058 7.08178 40.5961 7.08178H43.1792V4.49503C43.1792 3.30453 43.6647 2.22728 44.4476 1.44428C45.2309 0.661156 46.3116 0.175781 47.4986 0.175781C48.6856 0.175781 49.7664 0.661156 50.5494 1.44428C51.3325 2.22741 51.8177 3.30453 51.8177 4.49503V7.08166H54.4009C55.5915 7.08166 56.6688 7.56703 57.4518 8.35016C58.2349 9.12966 58.7201 10.2104 58.7201 11.3974V15.0258C60.2899 16.7159 61.608 19.2245 62.5327 22.2577C63.4613 25.3155 64 28.9155 64 32.7529C64 39.4534 62.4658 42.947 60.9881 46.3097C60.3185 47.8333 59.6593 49.325 59.1845 51.086C59.8825 51.288 60.5098 51.6637 61.0094 52.1633C61.7747 52.9285 62.2495 53.9845 62.2495 55.1432V62.8853C62.2495 63.4025 61.8279 63.8243 61.3105 63.8243H54.5532C54.0359 63.8243 53.6143 63.4025 53.6143 62.8853C53.6143 62.3679 54.0359 61.9463 54.5532 61.9463H60.375V55.1432C60.375 54.5018 60.1092 53.9137 59.6841 53.4884C59.2589 53.0667 58.6743 52.8009 58.0329 52.8009H46.8288C46.184 52.8009 45.5991 53.0632 45.174 53.4884C44.7489 53.9135 44.4866 54.5018 44.4866 55.1432V61.9463H50.305ZM13.695 63.8243C13.1777 63.8243 12.7596 63.4025 12.7596 62.8853C12.7596 62.3679 13.1779 61.9463 13.695 61.9463H19.5168V55.1432C19.5168 54.5018 19.251 53.9137 18.8259 53.4884C18.4007 53.0632 17.816 52.8009 17.1746 52.8009H5.9705C5.34688 52.8009 4.75513 53.0489 4.31588 53.4884C3.89062 53.9135 3.62838 54.5018 3.62838 55.1432V61.9463H9.45012C9.9675 61.9463 10.3855 62.368 10.3855 62.8853C10.3855 63.4025 9.96737 63.8243 9.45012 63.8243H2.68937C2.172 63.8243 1.754 63.4025 1.754 62.8853V55.1432C1.754 53.9844 2.22875 52.9285 2.99075 52.1633C3.49375 51.6637 4.1175 51.2882 4.8155 51.086C4.34075 49.325 3.68525 47.8333 3.01562 46.3097C1.53412 42.9472 0 39.4534 0 32.7529C0 29.2557 0.411 26.0065 1.15863 23.1825C1.89213 20.4045 2.95862 18.0305 4.28038 16.2448V11.3975C4.28038 10.2105 4.76587 9.12978 5.54887 8.35028C6.332 7.56728 7.40925 7.08178 8.59975 7.08178H11.1862V4.49503C11.1862 3.30453 11.6718 2.22728 12.4513 1.44428C13.2344 0.661156 14.315 0.175781 15.502 0.175781C16.6926 0.175781 17.7699 0.661156 18.5529 1.44428C19.336 2.22741 19.8214 3.30453 19.8214 4.49503V7.08166H22.4045C23.595 7.08166 24.6758 7.56703 25.4554 8.35016C26.2385 9.12966 26.7237 10.2104 26.7237 11.3974V13.984H29.3104C30.4974 13.984 31.5783 14.4694 32.3611 15.2525C33.1443 16.0357 33.6296 17.1128 33.6296 18.3033C33.6296 19.4903 33.1441 20.571 32.3611 21.354C31.5781 22.1335 30.4974 22.619 29.3104 22.619H26.7237V25.2057C26.7237 26.3927 26.2384 27.4734 25.4554 28.2565C24.6758 29.0395 23.595 29.525 22.4045 29.525H20.4202C20.5655 30.549 20.7393 31.527 20.9058 32.4765C21.2885 34.6485 21.6499 36.6895 21.6499 38.904C21.6499 42.1143 20.7781 46.7029 18.11 48.9104V51.0328C18.8966 51.2099 19.6019 51.6103 20.1545 52.1632C20.9164 52.9284 21.3913 53.9844 21.3913 55.143V62.8852C21.3913 63.4024 20.973 63.8242 20.4557 63.8242H13.695V63.8243Z" fill="#212121"/>
</g>
<defs>
<clipPath id="clip0">
<rect width="64" height="64" fill="white"/>
</clipPath>
</defs>
</svg>
