<svg width="291" height="291" viewBox="0 0 291 291" fill="none" xmlns="http://www.w3.org/2000/svg">
<path d="M92.8883 171.565C93.6924 168.339 94.7395 165.243 94.8016 161.877C94.805 161.702 94.7273 161.58 94.6085 161.501C94.3832 160.972 94.1989 160.451 94.0351 159.934V159.67C95.4537 162.302 96.5585 165.049 97.3729 167.981C98.3233 171.403 97.5861 174.608 96.9154 177.905C96.0144 175.479 94.9238 172.797 92.8883 171.565ZM84.2332 177.03C86.1241 178.432 88.0624 179.786 90.0603 181.038C89.1994 177.962 89.4223 174.534 90.6073 171.59C87.9959 170.213 85.077 169.37 82.6709 167.644C79.6831 165.5 76.7681 163.166 74.4221 160.32C74.3952 160.287 74.3815 160.254 74.3727 160.221C72.9775 161.578 72.8382 163.729 73.4664 165.511C75.4521 170.336 80.1621 174.01 84.2332 177.03ZM121.215 231.499C120.909 222.713 119.382 214.318 116.523 205.998C112.079 193.07 105.6 181.195 99.1079 169.264C99.5884 173.04 98.4284 176.52 97.8466 180.339C98.0221 180.879 96.8029 181.25 96.4661 180.76C96.4583 180.75 96.4529 180.739 96.4471 180.728C96.4388 180.714 96.4285 180.701 96.4216 180.686C95.3545 178.197 94.4496 174.267 92.089 172.558C91.9262 172.594 91.7629 172.597 91.6275 172.566C90.666 175.57 90.7481 178.984 91.89 181.903C91.9433 182.04 91.8915 182.168 91.7815 182.274C91.7551 182.651 90.9138 183.044 90.4915 182.794C87.4591 181.008 84.53 178.982 81.7685 176.803C80.4139 175.735 79.0153 174.603 77.691 173.384C83.9204 184.52 90.2138 195.565 94.1847 207.822C96.3263 214.432 97.7361 221.277 98.5809 228.2C98.6004 228.276 98.6117 228.318 98.6117 228.318L98.6136 228.471C99.3674 234.764 99.6583 241.118 99.5894 247.422C102.721 249.242 107.118 248.893 110.562 248.515C114.007 248.138 117.534 247.566 120.78 246.306C121.266 245.191 121.057 242.411 121.105 241.502C121.28 238.173 121.331 234.833 121.215 231.499ZM92.1379 169.039L91.5552 170.809C91.5884 170.827 91.6221 170.842 91.6549 170.86C91.8138 170.251 91.9771 169.645 92.1379 169.039ZM133.63 152.838C133.588 152.807 133.559 152.769 133.547 152.722C129.306 146.932 121.929 141.493 114.672 143.137C114.634 143.146 114.603 143.142 114.569 143.146C114.503 143.162 114.438 143.177 114.376 143.194C112.358 145.178 110.515 147.319 108.734 149.516L104.952 154.457C105.078 154.515 105.085 154.617 105.01 154.734C105.142 154.738 105.258 154.767 105.332 154.836C112.534 161.507 118.164 170.104 122.639 178.864C127.88 171.621 133.282 163.272 134.712 154.448C134.38 153.912 134.018 153.374 133.63 152.838ZM56.9351 224.34C56.9341 224.353 56.9248 224.371 56.9219 224.385C57.2802 224.401 57.5916 224.415 57.8433 224.425C57.8419 224.359 57.8399 224.293 57.8385 224.227C57.5364 224.267 57.2338 224.309 56.9351 224.34ZM59.458 223.536L60.1087 222.886C60.0432 222.82 59.9772 222.757 59.9131 222.686C59.7621 222.97 59.6095 223.253 59.458 223.536ZM70.5871 196.221C70.1989 194.56 69.7321 192.91 69.2032 191.275L67.6037 186.925C66.7188 184.792 65.7108 182.713 64.5591 180.73C63.9784 179.728 63.1874 178.335 62.2337 176.974L59.8349 174.163C59.3925 173.762 58.9315 173.407 58.4534 173.128C57.8727 173.563 57.3134 174.032 56.7708 174.523C55.5893 175.792 53.956 177.578 52.316 179.481C51.0205 181.187 49.8302 182.965 48.7053 184.688C46.5935 187.925 44.4905 191.298 42.8475 194.834C42.4217 195.815 42.0013 196.812 41.5951 197.799C39.142 204.232 37.8319 211.225 36.6543 217.985C36.7486 218.008 36.8239 218.049 36.8674 218.113C36.8674 218.113 36.8674 218.113 36.8679 218.113C43.4791 222.041 50.1738 224.639 57.9064 223.685C61.016 217.779 64.3269 211.981 67.4345 206.074C67.7484 205.477 69.1865 205.538 68.7994 206.275C65.9768 211.641 62.9924 216.919 60.1375 222.268C60.4826 222.073 61.0531 221.96 61.2345 222.157C62.6272 223.677 64.3103 223.868 65.9528 223.299C66.3811 223.113 66.8381 222.9 67.3035 222.661C69.7922 221.179 71.9593 218.221 72.5439 215.918C73.4004 212.54 72.7429 208.673 72.17 205.291C71.6586 202.277 71.2842 199.2 70.5871 196.221Z" fill="#212121"/>
<path d="M69.4056 147.763C68.425 147.226 67.5074 147.363 66.627 148.028C66.3469 148.241 65.9802 148.375 65.6253 148.297C65.3535 148.238 65.2362 147.966 65.486 147.777C66.9486 146.671 68.8356 146.138 70.5289 147.064C71.1268 147.391 69.8245 147.993 69.4056 147.763ZM256.086 62.837C249.027 72.4829 241.967 82.1288 234.908 91.7747C234.774 92.111 233.579 92.3857 233.503 92.0606C232.576 88.0936 231.649 84.1267 230.721 80.1597C218.536 82.8826 206.351 85.6054 194.165 88.3283C194.165 90.8732 194.164 93.4181 194.164 95.9626C194.413 95.77 194.805 95.6331 195.061 95.7133C200.747 97.4946 206.434 99.2755 212.12 101.057C212.518 98.6688 212.916 96.2813 213.315 93.8933C213.126 93.532 214.43 93.076 214.711 93.4876C214.724 93.4949 214.732 93.5032 214.731 93.5135C218.139 100.04 221.546 106.565 224.954 113.091C224.971 113.124 224.972 113.158 224.966 113.191C224.982 113.277 224.908 113.384 224.689 113.505C219.798 116.203 214.907 118.901 210.015 121.599C209.869 121.68 209.649 121.711 209.439 121.704C209.137 121.741 208.872 121.693 208.87 121.515C208.836 121.464 208.841 121.403 208.894 121.335C209.327 118.738 209.759 116.144 210.193 113.548C204.848 109.779 199.505 106.01 194.161 102.242C194.155 150.578 194.139 198.916 194.082 247.252C194.082 247.798 192.656 248.067 192.657 247.396C192.665 241.036 192.671 234.676 192.678 228.315C192.739 169.094 192.742 109.872 192.742 50.6511C189.587 50.6467 186.418 50.6149 183.267 50.7801C183.278 55.4212 183.288 60.0618 183.298 64.7019C183.452 64.8271 183.425 64.984 183.299 65.1263C183.301 66.189 183.304 67.2518 183.307 68.3145C183.31 69.9683 183.311 71.6225 183.314 73.2758C183.346 73.3183 183.345 73.3662 183.314 73.4166C183.426 131.385 183.405 189.355 183.266 247.324C183.265 247.861 181.848 248.122 181.85 247.703C181.864 241.651 181.878 235.598 181.89 229.546C181.982 184.999 181.993 140.452 181.934 95.9059C175.81 99.9789 169.685 104.052 163.561 108.125C164.08 111.055 164.598 113.985 165.117 116.915C165.135 116.953 165.134 116.993 165.123 117.033C165.066 117.446 164.059 117.712 163.778 117.452C157.955 114.423 152.133 111.393 146.31 108.365C146.103 108.305 145.991 108.163 146.124 107.921C150.217 100.53 154.309 93.1385 158.402 85.7472C158.406 85.7394 158.413 85.7325 158.418 85.7247C158.659 85.3243 159.566 85.1469 159.75 85.5267C159.783 85.5697 159.798 85.6225 159.792 85.6851C160.31 88.6108 160.828 91.5371 161.345 94.4633C168.203 92.437 175.063 90.4113 181.922 88.3855C181.914 83.5215 181.903 78.6575 181.894 73.7935C169.695 71.0672 157.497 68.3419 145.299 65.6161C144.406 69.434 143.514 73.2518 142.622 77.0692C142.629 77.4916 141.591 77.8299 141.279 77.5004C141.248 77.4784 141.226 77.45 141.211 77.4183C134.061 67.6487 126.911 57.8782 119.761 48.1081C119.45 47.6843 120.368 47.2663 120.852 47.3988C130.76 43.4993 140.667 39.5998 150.573 35.7002C150.785 35.2231 152.101 35.0452 151.971 35.6005C151.042 39.5743 150.113 43.5477 149.184 47.5215C160.082 53.0044 170.979 58.4882 181.875 63.9706C181.866 59.4977 181.862 55.0248 181.851 50.5514C181.851 50.4678 181.888 50.3915 181.946 50.3226C182.049 50.1212 182.309 49.93 182.639 49.9085C186.32 49.6724 190.03 49.7379 193.716 49.7374C193.958 49.7374 194.168 49.8723 194.168 50.1217C194.168 56.4629 194.168 62.8042 194.168 69.1455C194.168 72.3788 194.167 75.6125 194.166 78.8457C205.081 73.3535 215.996 67.8609 226.911 62.3692C225.995 58.4486 225.078 54.5286 224.162 50.6085C224.14 50.5606 224.136 50.5108 224.142 50.4599C224.143 50.4546 224.143 50.4497 224.144 50.4438C224.147 50.4243 224.153 50.4047 224.159 50.3851C224.164 50.371 224.169 50.3568 224.175 50.3431C224.323 50.0268 224.887 49.7364 225.265 49.8855C235.547 53.9327 245.829 57.9803 256.111 62.0275C256.611 62.2264 256.435 62.6097 256.086 62.837ZM181.892 72.8999C181.888 70.3799 181.883 67.8599 181.878 65.3399C170.544 59.637 159.211 53.9342 147.876 48.2308C147.638 48.1115 147.628 47.9468 147.736 47.7928C148.635 43.9475 149.534 40.1028 150.434 36.257C140.698 40.0891 130.964 43.9207 121.229 47.7522C128.017 57.0285 134.805 66.3039 141.594 75.5797C142.408 72.0982 143.222 68.6161 144.036 65.1346C144.129 64.7371 145.103 64.5152 145.384 64.742C157.553 67.4615 169.723 70.1804 181.892 72.8999ZM181.933 94.5884C181.93 92.7284 181.925 90.8688 181.922 89.0083C175.051 91.038 168.18 93.0676 161.309 95.0968C161.003 95.4835 160.066 95.6228 159.983 95.1579C159.548 92.6951 159.113 90.2323 158.677 87.7695C154.988 94.4315 151.3 101.094 147.611 107.756C152.898 110.506 158.185 113.257 163.472 116.008C163.01 113.393 162.546 110.778 162.085 108.164C162.084 108.156 162.085 108.15 162.085 108.143C162.002 107.994 162.043 107.808 162.317 107.626C168.835 103.291 175.354 98.9558 181.873 94.6207C181.891 94.6085 181.913 94.5992 181.933 94.5884ZM194.164 96.5648C194.164 98.2245 194.163 99.8841 194.162 101.544C194.456 101.334 194.934 101.225 195.191 101.406C200.619 105.234 206.046 109.062 211.474 112.889C211.675 113.031 211.689 113.194 211.599 113.341C211.204 115.708 210.809 118.076 210.414 120.444C214.752 118.051 219.091 115.657 223.43 113.264C220.4 107.462 217.37 101.66 214.341 95.858C214.021 97.7733 213.702 99.6886 213.383 101.604C213.437 101.93 212.669 102.366 212.254 102.236C206.243 100.353 200.232 98.4708 194.221 96.5883C194.199 96.5815 194.184 96.5722 194.164 96.5648ZM254.854 62.8086C245.186 59.0025 235.518 55.1968 225.85 51.3912C226.701 55.0326 227.553 58.6745 228.405 62.3159C228.426 62.4083 228.4 62.4948 228.348 62.5735C228.298 62.6786 228.191 62.7866 227.999 62.882C216.722 68.5565 205.444 74.231 194.167 79.9055C194.167 82.5237 194.166 85.1415 194.166 87.7598C206.531 84.9963 218.896 82.2334 231.262 79.4704C231.63 79.3653 232.039 79.3541 232.082 79.5398C232.932 83.1749 233.782 86.809 234.631 90.443C241.372 81.2313 248.113 72.0204 254.854 62.8086ZM50.9599 55.5327C50.9472 55.498 50.9384 55.4603 50.9384 55.4163C50.9643 45.8311 65.2064 41.9936 72.4526 45.4923C77.2149 47.7913 80.6119 53.6643 77.5576 58.6496C76.1448 60.9559 74.2471 62.9538 72.3773 64.8887C69.6466 67.7137 68.2636 70.2757 69.4075 74.2559C69.4354 74.3527 69.408 74.4446 69.344 74.5267C70.0953 74.604 69.2628 75.4184 68.6987 75.4184C66.1631 75.4184 63.6274 75.4184 61.0913 75.4184C60.3844 75.4184 60.6841 74.93 61.1279 74.6734C60.7941 74.7668 60.4494 74.7912 60.3839 74.6353C59.6614 72.9131 59.8521 70.6781 60.3888 68.9402C61.1167 66.583 62.3828 64.5885 63.9584 62.705C65.1023 61.3377 66.472 60.0833 67.152 58.3914C69.605 52.2911 59.6536 51.551 60.2265 55.4046C60.269 55.6901 59.2997 55.9443 58.9413 55.8729C58.8499 55.9003 58.7649 55.9179 58.6969 55.9179C56.1613 55.9179 53.6256 55.9179 51.0895 55.9179C50.5552 55.9169 50.6764 55.7116 50.9599 55.5327ZM52.3536 55.2707C54.4958 55.2707 56.6379 55.2707 58.78 55.2707C58.8485 51.4454 66.6309 51.6439 68.3873 54.1365C70.9797 57.8146 65.4547 61.8823 63.7917 64.4732C62.0582 67.1731 60.4509 71.0379 61.8001 74.2549C61.8329 74.3336 61.7072 74.4358 61.5195 74.5267C61.5523 74.5219 61.5855 74.5175 61.6168 74.5175C63.7311 74.5175 65.8458 74.5175 67.9605 74.5175C66.3161 68.5736 70.4615 66.0585 73.7964 61.8696C75.1388 60.1835 76.7979 58.4252 77.1753 56.2205C77.6925 53.1984 76.3809 50.018 74.0843 48.004C67.6848 42.3906 52.3849 45.1985 52.358 55.2477C52.3576 55.2565 52.3546 55.2628 52.3536 55.2707ZM69.3587 86.3431C69.4374 86.6457 69.1397 87.0465 68.6357 87.0465C65.7563 87.0465 62.877 87.0465 59.9977 87.0465C59.5123 87.0465 59.3437 86.7826 59.3994 86.521C59.3549 86.4604 59.328 86.3856 59.328 86.2923C59.328 83.8485 59.328 81.4048 59.328 78.9615C59.328 78.5812 59.9508 78.3441 60.3741 78.4263C60.4568 78.3984 60.5496 78.3823 60.6499 78.3823C63.3542 78.3823 66.0584 78.3823 68.7632 78.3823C69.2291 78.3823 69.4002 78.6228 69.364 78.8706C69.5415 78.8682 69.6696 78.8975 69.6696 78.9669C69.6696 81.3231 69.6696 83.6799 69.6696 86.0361C69.67 86.1593 69.539 86.2634 69.3587 86.3431ZM68.2529 79.4083C65.7544 79.4083 63.2554 79.4083 60.7569 79.4083C60.7569 81.6096 60.7569 83.8114 60.7569 86.0121C63.2554 86.0121 65.7544 86.0121 68.2529 86.0121C68.2529 83.8114 68.2529 81.6101 68.2529 79.4083ZM86.8188 139.928C85.9046 140.683 85.0086 141.522 84.6864 142.701C84.3921 143.776 84.9793 144.807 85.5932 145.64C85.8342 145.967 87.094 145.375 87.0094 145.261C86.4213 144.463 85.9789 143.641 86.0488 142.625C86.131 141.44 87.2573 140.487 88.0937 139.796C88.3718 139.567 87.0691 139.721 86.8188 139.928ZM93.4915 127.346C94.3534 128.102 95.357 128.702 96.1333 129.552C97.503 131.05 95.8527 132.414 94.6247 133.301C93.845 133.864 94.9908 134.4 95.5726 133.98C96.8729 133.041 98.6391 131.607 97.9747 129.791C97.4409 128.334 95.6806 127.476 94.5787 126.51C94.0865 126.079 92.8643 126.796 93.4915 127.346ZM77.4173 131.394C77.6798 131.746 79.0476 131.274 78.7382 130.859C78.1447 130.062 77.5903 129.238 76.9969 128.441C76.7344 128.089 75.3666 128.561 75.676 128.976C76.27 129.772 76.8238 130.597 77.4173 131.394ZM92.0695 123.772C92.2958 124.205 93.6592 123.723 93.4857 123.393C92.945 122.36 92.0988 121.461 91.8417 120.299C91.7493 119.88 90.3272 120.237 90.426 120.678C90.6821 121.84 91.5288 122.741 92.0695 123.772ZM74.2813 121.359C73.9338 121.345 73.5803 121.461 73.2797 121.627C71.7711 122.461 70.9122 123.715 70.416 125.35C70.3285 125.639 71.7041 125.461 71.8132 125.102C72.2648 123.613 72.981 122.435 74.3649 121.67C74.6103 121.536 74.5385 121.37 74.2813 121.359ZM89.064 116.74C89.1819 116.709 89.7719 116.548 89.7142 116.334C89.6565 116.118 89.066 116.276 88.9482 116.307C87.8801 116.586 86.4121 116.024 85.7086 115.219C85.4779 114.955 84.158 115.453 84.3736 115.699C85.4642 116.949 87.5462 117.137 89.064 116.74ZM142.478 132.26C142.209 139.512 137.287 145.652 135.015 152.33C135.392 152.857 135.747 153.39 136.074 153.923C136.178 154.094 136.16 154.257 136.074 154.394C134.512 163.653 128.61 172.381 123.14 179.852C123.387 180.348 123.634 180.842 123.874 181.338C129.687 193.307 133.749 206.361 133.903 219.751C134.149 219.631 134.528 219.569 134.792 219.595C134.926 219.598 135.024 219.629 135.058 219.692C135.08 219.718 135.089 219.748 135.086 219.784C135.915 223.54 136.128 227.501 136.099 231.336C136.067 235.639 135.791 240.082 134.288 244.154C134.154 244.519 132.791 244.67 132.891 244.401C135.446 237.476 135.348 228.565 133.891 221.234C133.02 222.161 132.035 222.98 130.843 223.46C129.135 224.147 127.326 224.337 125.506 224.507C124.523 224.599 125.012 223.794 125.702 223.73C127.21 223.59 128.887 223.531 130.285 222.885C131.394 222.373 132.261 221.579 133.047 220.682C132.752 220.718 132.496 220.663 132.494 220.482C132.411 207.276 128.533 194.227 122.794 182.41C122.514 181.833 122.228 181.255 121.939 180.678C121.6 180.718 121.303 180.694 121.359 180.618C121.466 180.472 121.575 180.322 121.683 180.174C117.116 171.147 111.444 162.267 104.013 155.385C103.963 155.339 103.946 155.289 103.951 155.239C100.66 155.282 97.2195 155.682 94.2859 157.263C95.2861 158.889 96.1753 160.57 96.9369 162.307C96.9609 162.324 96.9814 162.343 96.9946 162.368C104.986 177.266 113.67 191.828 118.743 208.071C121.384 216.525 122.643 225.067 122.685 233.923C122.7 237.074 122.636 240.235 122.367 243.377C122.304 244.115 122.434 245.888 121.886 246.503C121.854 246.538 121.813 246.572 121.766 246.604C121.7 246.655 121.609 246.706 121.48 246.757C117.566 248.308 113.258 248.991 109.084 249.34C105.793 249.615 101.69 249.832 98.6606 248.187C98.382 248.163 98.1483 248.019 98.1522 247.717C98.3111 234.453 96.9643 220.825 92.768 208.203C87.7173 193.011 79.3277 179.686 71.8058 165.686C71.7071 165.502 71.7428 165.33 71.8488 165.187C71.8273 165.093 71.8083 164.998 71.7911 164.904C67.4942 166.553 61.1333 168.262 57.2822 171.752C61.4828 172.184 64.5523 177.716 66.2985 180.926C69.8504 187.455 71.7247 194.221 72.9922 201.491C74.1513 208.135 76.0182 215.448 70.7651 220.764C68.0075 223.554 63.4221 226.206 60.1087 222.888C60.0432 222.823 59.9772 222.759 59.9132 222.689C59.7621 222.973 59.6101 223.255 59.458 223.538C59.3906 223.665 59.3226 223.79 59.2562 223.916C59.351 227.715 59.4458 231.515 59.5402 235.314L59.5407 235.314C64.0791 237.92 68.7466 241.191 74.2085 239.334C74.4686 239.246 74.7956 239.254 74.9838 239.32C78.3182 238.755 83.0693 238.675 85.4432 241.223C87.5017 243.433 83.6413 243.356 81.4605 243.23C82.8308 244.041 84.3897 244.328 86.0058 244.401C87.0373 244.447 88.5117 244.551 88.7649 245.785C88.8289 246.097 88.5894 246.343 88.2887 246.461C86.5499 248.149 84.1003 247.345 81.8726 247.329C80.914 247.322 81.8599 246.486 82.4138 246.49C83.853 246.499 86.2131 247.365 87.2744 246.074C87.2832 246.064 87.2949 246.055 87.3052 246.044C86.9366 245.157 84.7514 245.539 83.9522 245.403C82.3365 245.131 80.7282 244.504 79.4729 243.451C78.8271 242.909 80.0399 242.167 80.5562 242.6C80.6065 242.642 80.6603 242.676 80.7111 242.716C80.8798 242.654 81.0328 242.608 81.1086 242.605C81.5138 242.588 84.8433 242.717 84.575 242.296C84.0588 241.489 83.2013 240.924 82.3243 240.568C79.664 239.491 76.8429 239.381 74.0477 239.934C70.0254 241.097 66.2726 240.337 62.5583 238.315C61.1495 237.548 59.7523 236.692 58.3342 235.895C58.2384 235.878 58.1675 235.842 58.1391 235.784C56.9351 235.115 55.714 234.496 54.4562 234.021C54.2245 234.031 54.0255 233.981 53.9654 233.848C51.9635 233.156 49.8659 232.845 47.5884 233.298C46.6009 233.494 47.2442 232.818 47.8318 232.7C50.0404 232.262 52.1258 232.42 54.134 232.965C54.7255 230.184 54.2396 226.99 55.5355 224.442C48.7919 224.795 42.7747 222.703 36.8337 219.355C36.5311 223.698 35.9983 228.058 36.1919 232.411C36.3723 236.454 37.0542 241.154 40.2493 244.014C44.1904 247.541 50.6544 248.946 55.6675 250.084C60.8151 251.252 66.0374 252.025 71.3082 252.333C71.6034 252.35 71.7115 252.433 71.7056 252.54C76.2641 254.122 82.3199 257.161 84.6199 251.284C83.743 251.891 82.7051 252.296 81.6605 252.541C80.7913 252.747 80.5444 251.859 81.4224 251.653C82.7995 251.328 84.0539 250.717 84.813 249.561C83.7948 249.746 82.6621 249.699 81.724 249.884C80.868 250.053 80.6422 249.294 81.5197 249.121C82.7878 248.871 85.0976 249.325 85.7883 247.99C86.0156 247.55 87.4406 247.416 87.1145 248.047C86.961 248.343 86.7709 248.579 86.5577 248.776C86.568 248.842 86.5577 248.918 86.5206 249.007C86.3138 249.506 86.0332 249.947 85.6983 250.333C86.0239 250.306 86.2938 250.388 86.2175 250.622C85.3635 253.217 83.6198 255.243 80.7962 255.651C77.1342 256.178 73.7896 254.329 70.418 253.176C70.3373 253.149 70.2938 253.113 70.2752 253.072C64.5352 252.711 58.7942 251.88 53.2223 250.448C50.3503 249.71 47.4901 248.872 44.734 247.77C42.7004 246.957 40.5177 246.138 38.9324 244.559C32.4664 238.115 34.9727 226.781 35.4826 218.64C35.312 218.631 35.1961 218.584 35.2132 218.484C36.4964 211.105 37.7924 203.148 40.9137 196.298C43.0978 191.506 45.8417 186.91 48.8843 182.616C50.4349 180.428 52.0716 178.197 53.9331 176.207C53.5005 176.331 52.9657 176.326 53.0385 176.115C53.542 174.653 54.4537 173.42 55.5693 172.364C55.4774 172.227 55.8543 171.945 56.1994 171.806C57.4836 170.728 58.9628 169.846 60.3839 169.1C63.9075 167.25 67.6399 165.918 71.3448 164.49C71.4631 164.444 71.5956 164.42 71.7222 164.412C71.5477 162.69 72.0981 160.951 73.5031 159.803C73.6669 159.67 74.1122 159.59 74.4309 159.61C74.2266 158.861 73.9827 158.118 73.705 157.391C73.6233 157.424 73.5354 157.448 73.442 157.457C65.2826 158.305 59.2249 154.529 54.7725 148.835C52.689 151.058 50.0961 153.616 47.4759 154.909C46.4968 155.392 45.3191 155.606 44.2319 155.572C41.3429 155.485 39.2335 153.739 39.4193 150.687C39.5952 147.787 40.9591 145.007 42.3836 142.53C43.8003 140.068 45.3714 137.591 47.122 135.281C43.814 130.355 39.0815 123.141 41.6635 116.981C43.9856 111.442 49.5863 109.68 53.9634 106.242C58.2804 101.144 63.4822 96.0819 70.5725 95.528C77.5537 94.9829 82.9202 99.4573 86.5098 105.039C87.8023 104.512 89.1046 104.006 90.4162 103.522C95.6591 101.587 100.702 100.076 106.35 101.059C107.939 101.336 110.368 102.097 110.716 103.973C111.173 106.447 109.216 108.875 107.624 110.549C106.213 112.034 104.668 113.406 103.046 114.687C112.829 116.395 122.836 118.329 132.204 121.653C137.165 123.416 142.707 126.117 142.478 132.26ZM58.0947 234.529C58.0106 231.161 57.927 227.793 57.8429 224.425C57.8414 224.358 57.8395 224.292 57.838 224.226C57.5364 224.266 57.2338 224.309 56.9351 224.339C56.9341 224.353 56.9248 224.369 56.9219 224.384C56.9151 224.419 56.9107 224.454 56.8887 224.496C55.5355 227.114 56.1974 230.55 55.426 233.368C56.3289 233.69 57.2162 234.083 58.0947 234.529ZM59.8345 174.163C59.3921 173.761 58.9311 173.406 58.453 173.127C57.8722 173.563 57.313 174.032 56.7704 174.522C55.1376 175.999 53.6681 177.698 52.3155 179.48C51.0201 181.186 49.8297 182.964 48.7049 184.687C46.5931 187.924 44.4901 191.298 42.847 194.832C42.5293 195.517 42.2223 196.206 41.9422 196.902C41.8229 197.198 41.7095 197.498 41.5956 197.798C39.1426 204.232 37.8325 211.224 36.6548 217.985C36.7492 218.008 36.8245 218.049 36.868 218.112C36.868 218.112 36.868 218.112 36.8685 218.112C43.4796 222.04 50.1744 224.638 57.9069 223.684C61.0165 217.777 64.3274 211.98 67.435 206.073C67.7489 205.476 69.1871 205.537 68.7999 206.273C65.9773 211.639 62.9929 216.918 60.138 222.267C60.4832 222.071 61.0536 221.959 61.235 222.156C62.6277 223.676 64.3108 223.867 65.9534 223.298C66.4094 223.14 66.8616 222.923 67.304 222.66C69.7927 221.178 71.9598 218.22 72.5445 215.916C73.4009 212.539 72.7434 208.672 72.1705 205.29C71.6596 202.275 71.2847 199.198 70.5881 196.219C70.2 194.559 69.7331 192.908 69.2042 191.273C68.7285 189.803 68.1962 188.351 67.6047 186.924C66.7199 184.791 65.7119 182.711 64.5601 180.728C63.9794 179.727 63.1884 178.333 62.2347 176.973C61.5205 175.957 60.7158 174.962 59.8345 174.163ZM56.5592 172.464C55.7091 173.37 55.0262 174.388 54.573 175.542C55.5688 174.537 56.6306 173.607 57.7779 172.789C57.3814 172.622 56.9747 172.511 56.5592 172.464ZM77.0741 115.92C82.4309 112.809 88.0399 109.999 93.9031 107.971C96.8465 106.952 100.659 105.415 103.847 106.089C104.662 106.261 103.457 106.981 102.986 106.882C99.8519 106.22 95.6874 108.094 92.8536 109.175C91.783 109.583 90.7217 110.018 89.6658 110.466C89.9337 110.399 90.1908 110.394 90.2945 110.53C92.3017 113.189 94.0244 116.015 95.6664 118.892C99.3352 116.706 102.999 114.113 105.932 111.028C107.384 109.501 110.038 106.749 109.298 104.356C108.692 102.397 106.423 101.782 104.597 101.571C98.8366 100.901 93.8929 102.736 88.5967 104.823C81.9445 107.444 75.609 110.602 69.8284 114.835C69.5459 115.042 68.1219 115.171 68.7261 114.728C73.8355 110.986 79.3976 108.039 85.1992 105.585C82.2647 100.96 77.4539 96.0442 71.5228 96.1522C64.4839 96.2803 59.6091 101.095 55.3723 106.084C55.4407 106.157 55.4221 106.263 55.2457 106.403C51.2513 109.592 44.8943 111.482 43.0822 116.817C41.0104 122.916 44.7193 129.137 48.0317 134.114C48.7567 133.215 49.511 132.347 50.298 131.523C54.4987 127.123 58.954 122.797 63.5932 118.86C63.8968 118.602 65.3105 118.512 64.7097 119.021C60.5584 122.544 56.6037 126.414 52.7828 130.288C51.2738 131.818 49.8923 133.451 48.5969 135.155C48.5714 135.23 48.5157 135.301 48.439 135.364C47.6842 136.365 46.9573 137.39 46.2519 138.432C44.2911 141.332 42.2746 144.441 41.3086 147.845C40.5358 150.569 40.5617 154.286 44.0843 154.791C44.9061 154.908 45.9659 154.938 46.7236 154.525C49.3815 153.075 52.0818 150.362 54.1174 148.158C54.1389 148.134 54.1702 148.112 54.2049 148.09C52.8259 146.219 51.6082 144.164 50.5376 142.012C49.9788 143.069 49.4631 144.149 48.9997 145.258C48.7997 145.736 47.3826 145.901 47.581 145.427C48.2586 143.805 49.0412 142.236 49.9138 140.72C49.9104 140.712 49.9065 140.705 49.9031 140.697C49.8234 140.525 49.972 140.356 50.1998 140.239C56.3739 129.819 66.8245 121.873 77.0741 115.92ZM75.0322 156.362L75.0796 156.416C75.0796 156.416 75.0669 156.418 75.0532 156.42C75.543 157.775 75.8593 159.171 76.0774 160.143C76.0788 160.149 76.0774 160.155 76.0788 160.162C78.1677 162.603 80.675 164.715 83.2805 166.584C85.8313 168.414 88.8054 169.364 91.5547 170.809C91.588 170.826 91.6217 170.842 91.6544 170.86C91.8133 170.251 91.9766 169.645 92.1374 169.039C92.7431 166.756 93.3014 164.484 93.3595 162.074C93.2979 162.054 93.251 162.023 93.2295 161.973C91.6686 158.359 91.2648 154.607 93.6054 151.239C95.6918 148.236 98.6894 145.918 100.472 142.696C101.668 140.533 102.622 137.89 102.193 135.385C101.705 132.531 100.365 130.013 98.9065 127.543C95.6068 121.953 92.8042 116.112 88.8768 110.91C88.8494 110.874 88.9027 110.813 89.0015 110.746C84.8512 112.544 80.8236 114.635 76.9529 116.966C73.594 118.988 70.2127 121.218 66.9824 123.681C67.7073 124.729 68.3507 125.82 68.8263 126.945C69.2589 127.727 69.5654 128.586 69.5596 129.443C69.7903 130.941 69.6241 132.481 68.8791 134.041C71.5878 136.662 73.1462 139.639 71.4353 143.394C71.4348 143.396 71.4338 143.397 71.4328 143.399C71.4323 143.401 71.4318 143.402 71.4309 143.404C71.4309 143.404 71.4299 143.405 71.4299 143.405C71.3223 143.706 70.6844 144.049 70.3085 143.951C67.369 143.177 62.8457 145.167 62.6937 148.642C62.6194 150.34 63.6377 151.945 65.1859 152.694C66.8812 153.515 68.6894 152.533 70.3608 152.211C72.7464 151.751 74.1611 153.981 75.0322 156.362ZM68.3844 135.424C68.1742 135.19 67.9571 134.96 67.7269 134.732C67.6399 135.042 67.6144 135.188 67.6144 135.188C67.6144 135.188 67.9307 135.258 68.3844 135.424ZM94.0351 159.671C93.9696 159.55 93.9075 159.426 93.8406 159.306C93.8963 159.513 93.9691 159.724 94.0351 159.933C94.1989 160.451 94.3832 160.972 94.6085 161.501C94.7268 161.579 94.8046 161.7 94.8016 161.876C94.7396 165.243 93.692 168.339 92.8883 171.564C94.9243 172.797 96.015 175.479 96.9159 177.904C97.5861 174.608 98.3233 171.404 97.373 167.982C96.5586 165.049 95.4538 162.301 94.0351 159.671ZM90.6073 171.589C87.9959 170.213 85.077 169.369 82.6709 167.643C79.6831 165.5 76.7681 163.167 74.4221 160.319C74.3952 160.287 74.3815 160.253 74.3727 160.22C72.9776 161.578 72.8383 163.729 73.4669 165.511C75.4521 170.336 80.1622 174.01 84.2328 177.03C86.1236 178.432 88.0619 179.786 90.0598 181.038C89.199 177.961 89.4224 174.534 90.6073 171.589ZM98.6142 228.472C99.368 234.764 99.6588 241.119 99.5899 247.422C102.721 249.243 107.118 248.893 110.563 248.515C114.008 248.139 117.534 247.567 120.781 246.307C121.266 245.192 121.057 242.412 121.105 241.502C121.281 238.172 121.331 234.832 121.215 231.499C120.91 222.714 119.382 214.318 116.523 205.998C112.079 193.07 105.6 181.195 99.1084 169.264C99.5889 173.04 98.4289 176.519 97.8472 180.339C98.0227 180.879 96.8035 181.25 96.4667 180.76C96.4588 180.75 96.4535 180.739 96.4476 180.728C96.4393 180.714 96.429 180.701 96.4222 180.686C95.355 178.197 94.4502 174.267 92.0895 172.558C91.9267 172.594 91.7635 172.597 91.6281 172.566C90.6665 175.57 90.7486 178.985 91.8906 181.902C91.9438 182.04 91.892 182.168 91.782 182.274C91.7556 182.651 90.9143 183.043 90.492 182.794C87.4597 181.008 84.5305 178.982 81.769 176.803C80.4144 175.734 79.0158 174.604 77.6915 173.384C83.9209 184.519 90.2143 195.564 94.1852 207.821C96.3268 214.432 97.7367 221.277 98.5814 228.199C98.5931 228.289 98.6029 228.381 98.6142 228.472ZM113.966 142.215C114.045 142.142 114.176 142.086 114.325 142.048C116.936 139.473 119.793 137.091 122.02 134.161C114.34 132.891 106.783 130.096 99.9184 126.455C100.054 126.691 100.187 126.928 100.324 127.163C102.996 131.746 104.939 136.462 102.354 141.538C100.631 144.923 97.7381 147.26 95.5207 150.27C94.1334 152.154 93.4876 154.065 93.4319 156.038C93.4969 156.061 93.5497 156.095 93.582 156.144C93.6744 156.286 93.7619 156.431 93.8528 156.573C96.8304 155.079 100.171 154.553 103.488 154.433C106.799 150.208 110.049 145.909 113.966 142.215ZM114.569 143.146C114.515 143.152 114.459 143.162 114.41 143.16C114.399 143.17 114.388 143.182 114.377 143.193C112.358 145.178 110.515 147.319 108.734 149.516C107.422 151.136 106.142 152.782 104.857 154.424C104.898 154.431 104.924 154.445 104.952 154.457C105.077 154.515 105.085 154.618 105.009 154.733C105.142 154.737 105.258 154.768 105.331 154.836C112.534 161.506 118.163 170.104 122.639 178.863C127.879 171.621 133.281 163.272 134.711 154.448C134.379 153.912 134.018 153.374 133.63 152.838C133.588 152.807 133.559 152.769 133.547 152.722C129.306 146.932 121.929 141.494 114.672 143.137C114.634 143.145 114.604 143.141 114.569 143.146ZM129.443 121.875C120.503 119.047 111.217 117.122 101.984 115.512C100.064 116.95 98.0471 118.263 96.0013 119.461C95.9983 119.463 95.9939 119.465 95.991 119.466C96.9628 121.182 97.9146 122.911 98.8811 124.633C106.206 128.798 114.443 132.049 122.824 133.455C123.079 133.403 123.359 133.443 123.523 133.566C124.365 133.697 125.206 133.815 126.05 133.907C126.817 133.991 125.545 134.64 125.161 134.599C124.562 134.533 123.963 134.458 123.365 134.374C121.291 137.165 118.637 139.452 116.139 141.858C123.036 141.192 129.781 145.702 134.096 151.112C136.398 145.313 140.474 139.783 140.988 133.509C141.576 126.311 135.226 123.704 129.443 121.875ZM89.9005 229.708C85.7458 230.268 81.5588 230.602 77.3699 230.757C73.1614 230.915 68.4724 231.134 64.4345 229.731C64.0454 229.596 63.031 230.172 63.0951 230.195C67.0704 231.576 71.621 231.412 75.7664 231.309C77.0326 231.278 88.9018 230.229 88.9384 230.413C89.5881 233.667 89.1159 237.412 89.0147 240.698C88.9174 243.853 89.1877 247.589 88.3098 250.655C88.2443 250.884 89.6076 250.719 89.7025 250.388C90.5941 247.272 90.3248 243.522 90.4314 240.317C90.5394 237.064 91.1739 232.96 90.2945 229.772C90.2632 229.658 89.9709 229.699 89.9005 229.708Z" fill="#212121"/>
</svg>
