<svg width="56" height="56" viewBox="0 0 56 56" fill="none" xmlns="http://www.w3.org/2000/svg">
<rect width="56" height="56" rx="28" fill="#F8F8F5"/>
<g clip-path="url(#clip0)">
<path d="M39.0712 16.1943L24.5809 30.6846C24.1903 31.0752 23.5571 31.0752 23.1665 30.6846L16.9288 24.447L12 29.3758L21.4092 38.7851C22.0628 39.4387 22.9493 39.8059 23.8736 39.8059C24.7979 39.8059 25.6844 39.4386 26.338 38.7851L44 21.1231L39.0712 16.1943Z" fill="#FF8838"/>
<g opacity="0.1">
<path opacity="0.1" d="M42.3705 19.4929L23.7248 38.1387C23.2089 38.6545 22.5602 39.0063 21.8594 39.1631C22.4446 39.5778 23.1474 39.8056 23.8741 39.8056C24.7983 39.8056 25.6849 39.4384 26.3384 38.7848L44.0004 21.1228L42.3705 19.4929Z" fill="black"/>
</g>
</g>
<defs>
<clipPath id="clip0">
<rect width="32" height="32" fill="white" transform="translate(12 12)"/>
</clipPath>
</defs>
</svg>
