<svg width="64" height="64" viewBox="0 0 64 64" fill="none" xmlns="http://www.w3.org/2000/svg">
<g clip-path="url(#clip0)">
<path d="M39.2256 11.8643C39.2256 11.8643 45.3581 3.90507 43.5947 1.6217C42.9937 0.843574 42.4812 1.90032 41.2383 1.90032C39.7779 1.90032 39.7779 0.944824 38.3174 0.944824C36.8572 0.944824 36.8572 1.90032 35.3969 1.90032C33.9368 1.90032 33.9368 0.944824 32.4767 0.944824C31.0166 0.944824 31.0166 1.90032 29.5563 1.90032C28.3119 1.90032 27.8016 0.829824 27.1966 1.60832C25.4323 3.87907 31.4752 11.8642 31.4752 11.8642C4.78707 29.409 13.3922 53.2691 29.1493 53.2691H41.6459C57.4506 53.2691 66.0024 29.4672 39.2256 11.8643Z" fill="#F8F8F5"/>
<path d="M39.225 11.8643C39.225 11.8643 45.3575 3.90507 43.5941 1.6217C42.9931 0.843574 42.4806 1.90032 41.2378 1.90032C39.7774 1.90032 39.7774 0.944824 38.3169 0.944824C36.8566 0.944824 36.8566 1.90032 35.3964 1.90032C35.3245 1.90032 35.2588 1.89632 35.1936 1.89182C34.6069 4.40682 31.9629 8.32507 30.4499 10.4229C31.0458 11.2973 31.4746 11.8642 31.4746 11.8642C31.1186 12.0982 30.7703 12.3336 30.4268 12.5698C55.9255 30.0962 47.3935 53.269 31.799 53.269H41.6454C57.45 53.2691 66.0019 29.4672 39.225 11.8643Z" fill="#F1F1EA"/>
<path d="M40.3659 14.6948C36.8026 15.5947 33.2821 15.5948 29.7181 14.6948C28.4776 14.3816 27.7744 12.9867 28.2208 11.7188C28.2258 11.7047 28.2308 11.6904 28.2358 11.6763C28.6101 10.6133 29.6716 10.0168 30.7119 10.2779C33.6298 11.0106 36.4534 11.0107 39.3722 10.2779C40.4126 10.0167 41.4739 10.6133 41.8483 11.6763C41.8533 11.6904 41.8583 11.7047 41.8633 11.7188C42.3096 12.9868 41.6064 14.3816 40.3659 14.6948Z" fill="#F8F8F5"/>
<path d="M6.86035 57.3631L20.4311 62.4143C21.5837 62.8433 22.8036 63.0629 24.0334 63.0629H38.0191C39.9764 63.0629 41.8932 62.5067 43.5465 61.4592L61.058 50.3628C62.2134 49.3369 62.4275 47.6128 61.5582 46.3354C60.6072 44.9378 59.034 44.6948 57.3029 45.5134L40.2537 53.0203L40.2739 50.2542C40.0481 47.9838 38.3 46.1617 36.0409 45.8419L25.6585 44.6466C23.2635 44.3077 22.0666 43.5051 19.9787 42.2837C17.1282 40.6162 13.8852 39.7373 10.5829 39.7373H6.86035V57.3631Z" fill="#F8F8F5"/>
<path d="M6.86035 57.3631L20.4311 62.4143C21.5837 62.8433 22.8036 63.0629 24.0334 63.0629H38.0191C39.9764 63.0629 41.8932 62.5067 43.5465 61.4592L61.058 50.3628C62.2134 49.3369 62.4275 47.6128 61.5582 46.3354C60.6072 44.9378 59.034 44.6948 57.3029 45.5134L40.2537 53.0203L40.2739 50.2542C40.0481 47.9838 38.3 46.1617 36.0409 45.8419L25.6585 44.6466C23.2635 44.3077 22.0666 43.5051 19.9787 42.2837C17.1282 40.6162 13.8852 39.7373 10.5829 39.7373H6.86035V57.3631Z" fill="#F8F8F5"/>
<path d="M61.5582 46.3352C60.6072 44.9375 59.034 44.6945 57.3029 45.5132L52.6134 47.578C52.8405 47.9375 53.0211 48.2244 53.0211 48.2244C53.8902 49.5018 53.6761 51.2258 52.5209 52.2518L42.3172 58.7174C40.9734 59.3327 39.5081 59.6554 38.0191 59.6554H24.0334C22.8036 59.6554 21.5836 59.4358 20.4311 59.0068L6.86035 53.9555V57.3628L20.4311 62.414C21.5837 62.843 22.8036 63.0627 24.0334 63.0627H35.4599H38.0191C39.9764 63.0627 41.8932 62.5064 43.5465 61.4589L61.058 50.3627C62.2132 49.3367 62.4275 47.6125 61.5582 46.3352Z" fill="#F1F1EA"/>
<path d="M39.0005 47.4048L39 47.4715L39.044 47.4522C39.0299 47.436 39.015 47.4205 39.0005 47.4048Z" fill="#F5DBCC"/>
<path d="M9.78074 60.066C9.78074 61.0506 8.98248 61.8489 7.99786 61.8489H3.69498C2.71036 61.8489 1.91211 61.0506 1.91211 60.066V38.2355C1.91211 37.2509 2.71036 36.4526 3.69498 36.4526H7.99786C8.98248 36.4526 9.78074 37.2509 9.78074 38.2355V60.066Z" fill="#F8F8F5"/>
<path d="M62.3334 45.8081C61.1395 44.0536 59.1144 43.6253 56.9144 44.6605L55.7484 45.1739C57.5869 41.2551 57.815 36.8868 56.8997 32.7605C55.8486 28.0214 53.3097 23.4304 49.3537 19.115C49.004 18.7334 48.4111 18.7076 48.0294 19.0575C47.6477 19.4073 47.622 20.0001 47.9719 20.3819C51.7026 24.4514 54.0906 28.7528 55.0696 33.1664C56.1007 37.8155 55.5009 42.61 52.8695 46.4414L41.2017 51.5788L41.2114 50.261C41.2116 50.2278 41.2101 50.1945 41.2067 50.1614C40.9374 47.453 38.8671 45.2951 36.1722 44.9139C36.1642 44.9126 36.1562 44.9116 36.1481 44.9108L25.778 43.7168C21.7904 43.1491 20.7634 40.7595 15.3629 39.3969C14.9897 36.2306 15.4871 32.8595 16.8504 29.4799C18.9035 24.3901 22.9201 19.4451 28.4884 15.141C30.5637 16.6125 39.8229 16.7956 41.8949 14.8974C42.9564 15.7035 43.9695 16.5343 44.9132 17.3751C45.0919 17.5344 45.3146 17.6126 45.5365 17.6126C45.7945 17.6126 46.0515 17.5068 46.2366 17.2989C46.581 16.9124 46.5467 16.3199 46.1602 15.9755C45.1257 15.0539 44.013 14.1445 42.8459 13.2656C43.1194 12.1059 42.7366 10.7485 41.7266 9.94051C44.6615 5.48901 45.5151 2.57538 44.336 1.04888C43.5261 0.000258923 42.5186 0.492384 42.0884 0.702634C41.3591 1.05863 40.9615 1.07738 40.2905 0.638384C39.0104 -0.199241 37.6649 -0.226241 36.3435 0.638384C35.664 1.08301 35.1289 1.08301 34.4496 0.638384C33.1694 -0.199241 31.8244 -0.226241 30.5027 0.638384C29.824 1.08263 29.4249 1.05513 28.7071 0.698384C28.2774 0.484759 27.271 -0.0154911 26.456 1.03326C25.3034 2.51676 26.0745 5.33851 28.8114 9.63863C28.6437 9.72926 28.484 9.83563 28.3349 9.95713C27.2464 8.80763 25.463 7.60876 22.884 7.89676C20.7449 8.13613 19.1675 7.42926 18.2207 6.79426C17.7907 6.50626 17.2085 6.62101 16.9202 7.05076C16.632 7.48076 16.7469 8.06301 17.1767 8.35126C18.3836 9.16038 20.3894 10.0611 23.092 9.75976C25.0845 9.53626 26.4365 10.5545 27.2781 11.5908C27.2666 11.6308 27.256 11.671 27.2461 11.7113C26.5282 11.7225 25.4554 11.7895 24.2739 12.0353C21.4324 12.6264 19.3231 13.9768 18.174 15.9408C17.9126 16.3875 18.0629 16.9618 18.5096 17.2233C18.9565 17.4846 19.5306 17.3343 19.792 16.8875C21.5012 13.9664 25.6734 13.6091 27.3305 13.5868C27.3376 13.6074 27.346 13.6278 27.3535 13.6483C21.44 18.2099 17.323 23.297 15.112 28.7783C13.7145 32.2429 13.1562 35.7139 13.4396 39.0125C12.5407 38.8795 11.6315 38.8081 10.7179 38.8019V38.235C10.7179 36.7351 9.49761 35.515 7.99773 35.515H3.69473C2.19486 35.515 0.974609 36.7353 0.974609 38.235V60.0655C0.974609 61.5655 2.19486 62.7856 3.69473 62.7856H7.99761C9.49748 62.7856 10.7177 61.5654 10.7177 60.0655V59.7985L20.1041 63.2921C21.3655 63.7615 22.6875 63.9996 24.0334 63.9996H38.0191C40.1574 63.9996 42.2422 63.3946 44.0482 62.2503C62.7056 50.4228 61.5726 51.1586 61.6804 51.0631C63.1832 49.7291 63.464 47.4699 62.3334 45.8081ZM40.1359 13.7866C36.7081 14.6521 33.3754 14.6521 29.9469 13.7866C28.4757 13.4148 28.902 10.791 30.483 11.1875C33.5502 11.9575 36.5322 11.9575 39.5997 11.1875C41.1532 10.7975 41.6306 13.4089 40.1359 13.7866ZM27.851 2.36651C27.8584 2.37013 27.8657 2.37388 27.8727 2.37738C29.1414 3.00788 30.253 3.04213 31.5291 2.20726C33.1261 1.16188 33.2995 2.83801 35.3964 2.83801C36.4059 2.83801 36.963 2.47351 37.3697 2.20726C38.0494 1.76251 38.5846 1.76276 39.2641 2.20726C40.5459 3.04601 41.6306 3.00463 42.9361 2.37501C43.129 3.07026 42.6925 5.14288 39.913 9.28113C38.5327 9.25763 36.5297 10.6133 30.8595 9.35138C28.086 5.15963 27.6571 3.06688 27.851 2.36651ZM60.4866 49.6153L43.0449 60.6674C41.5395 61.6213 39.8016 62.1256 38.0192 62.1256H24.0335C22.9116 62.1256 21.8096 61.9271 20.7581 61.5358L10.7177 57.7986V47.7043C10.7177 47.1865 10.2981 46.7669 9.78049 46.7669C9.26286 46.7669 8.84323 47.1865 8.84323 47.7043V60.066C8.84323 60.5323 8.46386 60.9115 7.99773 60.9115H3.69473C3.22848 60.9115 2.84923 60.5321 2.84923 60.066V38.2355C2.84923 37.7693 3.22848 37.3901 3.69473 37.3901H7.99761C8.46386 37.3901 8.84311 37.7694 8.84311 38.2355V43.3223C8.84311 43.84 9.26273 44.2596 9.78036 44.2596C10.298 44.2596 10.7176 43.84 10.7176 43.3223V40.677C18.4715 40.7364 20.2149 44.8233 25.5271 45.5746C25.5351 45.5759 25.5431 45.5769 25.5511 45.5778L35.9207 46.7716C37.7365 47.0338 39.1339 48.4796 39.3361 50.3L39.3231 52.083H29.6525C29.1349 52.083 28.7151 52.5026 28.7151 53.0204C28.7151 53.5381 29.1347 53.9578 29.6525 53.9578H40.2536C40.372 53.9578 40.5087 53.9315 40.6277 53.8796C40.6469 53.8711 57.6606 46.3803 57.6805 46.3715C58.9069 45.8265 60.025 45.7486 60.7832 46.8629C61.3727 47.7288 61.2422 48.8994 60.4866 49.6153Z" fill="#212121"/>
<path d="M35.2885 42.5275C35.8062 42.5275 36.2259 42.1079 36.2259 41.5901V40.0364C38.8573 39.6094 40.3927 37.4795 40.7267 35.4925C41.1439 33.0104 39.8438 30.8518 37.4145 29.9931C36.9853 29.8414 36.5903 29.6963 36.2258 29.5561V23.5796C37.3347 23.7635 38.0004 24.3374 38.0489 24.3803C38.4297 24.7265 39.0189 24.7009 39.3683 24.3221C39.7193 23.9416 39.6953 23.3486 39.3148 22.9976C39.2487 22.9366 38.1007 21.903 36.2258 21.6869V20.3539C36.2258 19.8361 35.8062 19.4165 35.2884 19.4165C34.7708 19.4165 34.3512 19.8361 34.3512 20.3539V21.7626C34.1252 21.8059 33.8936 21.8609 33.6558 21.9325C32.0658 22.4114 30.8773 23.7748 30.5539 25.4904C30.2605 27.0473 30.7541 28.5445 31.842 29.3978C32.4666 29.8876 33.2529 30.3361 34.3512 30.8156V38.2283C33.2672 38.1824 32.5999 37.9789 31.4359 37.2174C31.0028 36.9341 30.4218 37.0553 30.1384 37.4886C29.855 37.9218 29.9764 38.5028 30.4096 38.7861C31.9398 39.7871 32.9627 40.0483 34.3512 40.1023V41.5901C34.3512 42.1079 34.7708 42.5275 35.2885 42.5275ZM32.999 27.9228C32.4639 27.503 32.2328 26.704 32.3961 25.8376C32.5476 25.0341 33.1 24.0579 34.1965 23.7276C34.2487 23.7119 34.2999 23.6984 34.3512 23.6846V28.7478C33.7899 28.4675 33.3498 28.1979 32.999 27.9228ZM36.7898 31.7606C39.1223 32.585 38.9778 34.5878 38.8779 35.1819C38.6712 36.412 37.7682 37.7253 36.2258 38.1205V31.5575C36.4083 31.6243 36.5947 31.6916 36.7898 31.7606Z" fill="#FF8838"/>
</g>
<defs>
<clipPath id="clip0">
<rect width="64" height="64" fill="white"/>
</clipPath>
</defs>
</svg>
