<svg width="65" height="65" viewBox="0 0 65 65" fill="none" xmlns="http://www.w3.org/2000/svg">
<g clip-path="url(#clip0)">
<path d="M53.0233 63.7331H17.55C14.7513 63.7331 12.4824 61.4642 12.4824 58.6655V32.3139C12.4824 29.5152 14.7513 27.2463 17.55 27.2463H53.0233C55.822 27.2463 58.0909 29.5152 58.0909 32.3139V58.6655C58.0909 61.4643 55.822 63.7331 53.0233 63.7331Z" fill="#F1F1EA"/>
<path d="M47.449 63.7331H11.9758C9.1771 63.7331 6.9082 61.4642 6.9082 58.6655V32.3139C6.9082 29.5152 9.1771 27.2463 11.9758 27.2463H47.449C50.2477 27.2463 52.5166 29.5152 52.5166 32.3139V58.6655C52.5166 61.4643 50.2477 63.7331 47.449 63.7331Z" fill="#F8F8F5"/>
<path d="M58.0905 40.4221H38.0735C35.2748 40.4221 33.0059 42.691 33.0059 45.4897C33.0059 48.2884 35.2748 50.5573 38.0735 50.5573H58.0905V40.4221Z" fill="#F1F1EA"/>
<path d="M41.7171 16.1734C45.0638 16.1734 47.7769 13.4603 47.7769 10.1136C47.7769 6.76679 45.0638 4.05371 41.7171 4.05371C38.3703 4.05371 35.6572 6.76679 35.6572 10.1136C35.6572 13.4603 38.3703 16.1734 41.7171 16.1734Z" fill="#FF8838"/>
<path d="M23.2835 27.2379C26.6302 27.2379 29.3433 24.5248 29.3433 21.178C29.3433 17.8312 26.6302 15.1182 23.2835 15.1182C19.9367 15.1182 17.2236 17.8312 17.2236 21.178C17.2236 24.5248 19.9367 27.2379 23.2835 27.2379Z" fill="#FF8838"/>
<path d="M53.0237 25.9794H28.8098C29.9295 24.6923 30.6098 23.0134 30.6098 21.1776C30.6098 17.1376 27.3231 13.8508 23.2831 13.8508C19.2431 13.8508 15.9563 17.1376 15.9563 21.1776C15.9563 23.0134 16.6367 24.6923 17.7562 25.9794H11.9761C8.48326 25.9794 5.6416 28.821 5.6416 32.3139V39.7885C5.6416 40.4882 6.20879 41.0554 6.9085 41.0554C7.60821 41.0554 8.1754 40.4882 8.1754 39.7885V32.3139C8.1754 30.2182 9.8804 28.5132 11.9761 28.5132H47.4493C49.545 28.5132 51.25 30.2182 51.25 32.3139V39.1552H38.0743C34.5814 39.1552 31.7398 41.9968 31.7398 45.4897C31.7398 48.9825 34.5814 51.8242 38.0743 51.8242H51.25V58.6654C51.25 60.7612 49.545 62.4662 47.4493 62.4662H11.9761C9.8804 62.4662 8.1754 60.7612 8.1754 58.6654V51.1808C8.1754 50.4811 7.60821 49.9139 6.9085 49.9139C6.20879 49.9139 5.6416 50.4811 5.6416 51.1808V58.6654C5.6416 62.1583 8.48326 65 11.9761 65H53.0237C56.5165 65 59.3582 62.1583 59.3582 58.6654V32.3139C59.3582 28.821 56.5165 25.9794 53.0237 25.9794ZM23.2831 16.3848C25.926 16.3848 28.076 18.5348 28.076 21.1777C28.076 23.8206 25.926 25.9706 23.2831 25.9706C20.6403 25.9706 18.4901 23.8206 18.4901 21.1777C18.4901 18.5348 20.6402 16.3848 23.2831 16.3848ZM52.5135 28.5132H53.0237C55.1194 28.5132 56.8244 30.2182 56.8244 32.3139V39.1552H53.7838V32.3139C53.7838 30.889 53.3106 29.5727 52.5135 28.5132ZM34.2736 45.4897C34.2736 43.394 35.9786 41.689 38.0743 41.689H56.8244V49.2904H38.0743C35.9786 49.2904 34.2736 47.5854 34.2736 45.4897ZM53.0237 62.4662H52.5135C53.3106 61.4066 53.7838 60.0905 53.7838 58.6654V51.8242H56.8244V58.6654C56.8244 60.7612 55.1194 62.4662 53.0237 62.4662Z" fill="#212121"/>
<path d="M37.7503 44.2227C37.4158 44.2227 37.089 44.3582 36.8533 44.5939C36.6177 44.8295 36.4834 45.1564 36.4834 45.4896C36.4834 45.8228 36.6177 46.1496 36.8533 46.3853C37.0902 46.6209 37.4158 46.7565 37.7503 46.7565C38.0835 46.7565 38.4091 46.6209 38.646 46.3853C38.8816 46.1496 39.0172 45.8228 39.0172 45.4896C39.0172 45.1564 38.8816 44.8295 38.646 44.5939C38.4104 44.3581 38.0835 44.2227 37.7503 44.2227Z" fill="#212121"/>
<path d="M41.7164 17.4401C45.7564 17.4401 49.0431 14.1534 49.0431 10.1134C49.0431 6.07347 45.7564 2.78662 41.7164 2.78662C37.6764 2.78662 34.3896 6.07334 34.3896 10.1134C34.3896 14.1534 37.6764 17.4401 41.7164 17.4401ZM41.7164 5.32055C44.3591 5.32055 46.5093 7.47061 46.5093 10.1135C46.5093 12.7564 44.3593 14.9064 41.7164 14.9064C39.0735 14.9064 36.9234 12.7564 36.9234 10.1135C36.9234 7.47061 39.0735 5.32055 41.7164 5.32055Z" fill="#212121"/>
<path d="M29.3431 12.4892C30.0428 12.4892 30.61 11.922 30.61 11.2223V1.2669C30.61 0.567192 30.0428 0 29.3431 0C28.6434 0 28.0762 0.567192 28.0762 1.2669V11.2223C28.0762 11.922 28.6434 12.4892 29.3431 12.4892Z" fill="#212121"/>
<path d="M23.262 8.10817C23.9617 8.10817 24.5289 7.54097 24.5289 6.84126V1.2669C24.5289 0.567192 23.9617 0 23.262 0C22.5623 0 21.9951 0.567192 21.9951 1.2669V6.84126C21.9951 7.54097 22.5623 8.10817 23.262 8.10817Z" fill="#212121"/>
<path d="M6.9085 46.7565C7.2417 46.7565 7.56856 46.6209 7.8042 46.3853C8.03985 46.1496 8.1754 45.8228 8.1754 45.4896C8.1754 45.1564 8.03985 44.8295 7.8042 44.5939C7.56856 44.3582 7.24297 44.2227 6.9085 44.2227C6.57531 44.2227 6.24845 44.3582 6.0128 44.5939C5.77716 44.8295 5.6416 45.1564 5.6416 45.4896C5.6416 45.8228 5.77716 46.1496 6.0128 46.3853C6.24845 46.6209 6.57518 46.7565 6.9085 46.7565Z" fill="#212121"/>
</g>
<defs>
<clipPath id="clip0">
<rect width="65" height="65" fill="white"/>
</clipPath>
</defs>
</svg>
