<svg width="445" height="470" viewBox="0 0 445 470" fill="none" xmlns="http://www.w3.org/2000/svg">
<path d="M149.579 19.4479C149.205 20.6269 145.865 20.6073 142.583 18.4851C139.302 16.3825 137.887 13.3367 138.811 12.5114C139.754 11.6468 142.289 12.9241 145.04 14.6729C147.751 16.4611 149.972 18.2493 149.579 19.4479Z" fill="#F68832"/>
<path d="M141.66 31.8667C141.759 33.1243 139.695 34.2837 137.082 34.4605C134.468 34.6374 132.268 33.7924 132.169 32.5348C132.071 31.2772 134.134 30.1179 136.748 29.941C139.361 29.7642 141.562 30.6288 141.66 31.8667Z" fill="#F68832"/>
<path d="M146.868 44.0498C147.811 44.8751 147.379 46.9187 145.905 48.6282C144.431 50.3378 142.447 51.0452 141.503 50.2199C140.56 49.3946 140.992 47.351 142.466 45.6414C143.96 43.9319 145.925 43.2245 146.868 44.0498Z" fill="#F68832"/>
<path d="M158.344 50.1413C159.582 50.4164 160.053 53.0102 159.935 55.997C159.798 58.9838 159.11 61.5383 157.872 61.7152C156.634 61.892 155.258 59.2589 155.416 55.8202C155.534 52.3814 157.125 49.8662 158.344 50.1413Z" fill="#F68832"/>
<path d="M169.622 49.3748C170.604 48.5888 172.766 49.6695 174.475 51.7918C176.185 53.914 176.775 56.272 175.792 57.058C174.81 57.844 172.648 56.7632 170.938 54.641C169.229 52.5188 168.659 50.1608 169.622 49.3748Z" fill="#F68832"/>
<path d="M178.819 38.6067C179.31 37.4474 181.157 37.1133 183.063 37.526C184.95 37.9386 186.522 38.9997 186.482 40.2573C186.463 41.4953 184.478 42.4778 182.1 41.9669C179.742 41.456 178.328 39.7661 178.819 38.6067Z" fill="#F68832"/>
<path d="M177.286 24.2031C177.03 22.9848 179.369 21.4914 182.532 21.3342C185.696 21.1574 188.172 22.415 188.054 23.6529C187.936 24.9105 185.578 25.7162 182.768 25.8734C179.978 25.9913 177.541 25.4411 177.286 24.2031Z" fill="#F68832"/>
<path d="M172.728 16.4218C171.745 15.6358 172.178 13.4743 173.691 11.5879C175.204 9.70151 177.228 8.79761 178.21 9.58361C179.193 10.3696 178.76 12.5311 177.228 14.4175C175.734 16.3039 173.71 17.2078 172.728 16.4218Z" fill="#F68832"/>
<path d="M160.446 9.42639C159.208 9.56394 157.989 7.79544 157.714 5.45708C157.459 3.11873 158.264 1.13407 159.502 0.996522C160.74 0.858972 161.959 2.62748 162.234 4.96583C162.509 7.28454 161.703 9.28884 160.446 9.42639Z" fill="#F68832"/>
<path d="M173.198 32.2008C173.198 39.2355 167.48 44.9536 160.445 44.9536C153.411 44.9536 147.692 39.2355 147.692 32.2008C147.692 25.166 153.411 19.4479 160.445 19.4479C167.5 19.4479 173.198 25.166 173.198 32.2008Z" fill="#F68832"/>
<path d="M418.077 257.508C385.105 245.816 348.516 257.999 313.814 253.499C295.461 251.122 278.051 244.107 259.973 240.039C233.072 233.987 205.228 236.954 178.092 241.867C135.49 249.609 115.86 253.834 91.8476 255.445C82.0422 256.113 70.8221 257.96 65.6934 266.351C60.9774 274.053 63.2961 284.645 58.3639 292.21C53.8248 299.166 44.8447 301.288 36.9257 303.863C19.1032 309.64 1.20197 323.473 0.926867 342.219C0.750017 354.481 8.31529 365.642 17.4919 373.777C26.6684 381.912 37.5742 387.847 47.1634 395.471C49.1677 397.063 51.172 398.812 52.2135 401.13C54.2178 405.571 52.2135 410.7 50.5629 415.278C44.3927 432.256 44.6089 454.775 59.877 464.423C65.0646 467.705 71.274 468.942 77.3852 469.532C133.368 474.916 183.672 430.939 239.911 429.642C258.283 429.21 276.401 433.415 294.538 436.363C312.675 439.31 331.598 441 349.184 435.695C366.791 430.389 382.884 416.693 386.264 398.635C388.111 388.77 386.107 378.552 387.6 368.629C391.746 340.981 420.082 324.829 437.276 302.801C439.751 299.638 442.051 296.219 443.21 292.367C447.769 277.217 433.012 262.814 418.077 257.508Z" fill="#F6F6F6"/>
<path d="M317.097 340.942L350.266 233.81H408.155L419.749 340.942" stroke="#212121" stroke-width="0.887" stroke-miterlimit="10"/>
<path d="M419.749 227.443H334.703V240.059H419.749V227.443Z" fill="white" stroke="#212121" stroke-miterlimit="10"/>
<path d="M339.439 82.7603H321.42C321.42 82.7603 316.33 41.6131 342.013 44.423L339.439 82.7603Z" fill="#212121"/>
<path d="M344.587 82.7603H369.956C369.956 82.7603 361.388 46.2898 341.424 44.3445L344.587 82.7603Z" fill="#212121"/>
<path d="M324.269 58.3942C325.154 51.1827 330.852 45.3073 338.103 44.6982C347.987 43.8925 351.033 54.2481 351.583 58.4139C352.624 66.3918 352.919 81.1686 352.821 96.3778C352.782 103.688 337.808 105.436 333.701 95.8472C332.994 94.177 332.738 92.3495 332.778 90.5417L332.915 80.6577C323.601 78.0443 323.267 66.49 324.269 58.3942Z" fill="white" stroke="#212121" stroke-width="0.5" stroke-miterlimit="10"/>
<path d="M332.896 80.6773C332.896 80.6773 337.219 82.2297 343.291 78.2407C343.291 78.2407 339.872 85.1968 332.817 87.6531L332.896 80.6773Z" fill="#212121"/>
<path d="M357.32 64.368C356.593 67.6102 353.763 69.7324 350.993 69.1233C348.242 68.4945 346.591 65.3701 347.318 62.1279C348.045 58.8856 350.875 56.7634 353.645 57.3726C356.396 57.9817 358.047 61.1257 357.32 64.368Z" fill="white" stroke="#212121" stroke-width="0.5" stroke-miterlimit="10"/>
<path d="M353.842 62.5405C353.881 62.4029 353.646 62.1868 353.154 62.0492C352.683 61.9117 351.936 61.951 351.248 62.2654C350.541 62.5798 350.05 63.13 349.834 63.5623C349.617 64.0142 349.637 64.3483 349.755 64.3876C350.03 64.5055 350.62 63.6802 351.681 63.2086C352.742 62.7173 353.744 62.8156 353.842 62.5405Z" fill="#131313"/>
<path d="M342.269 60.477C342.151 60.3984 341.738 60.8111 341.09 61.4399C340.756 61.7543 340.363 62.108 339.911 62.4027C339.675 62.5599 339.439 62.6582 339.203 62.7368C338.967 62.7761 338.771 62.7761 338.575 62.6975C338.398 62.5992 338.24 62.442 338.123 62.2062C338.024 61.9704 337.946 61.715 337.906 61.4399C337.828 60.8897 337.828 60.3591 337.828 59.9072C337.847 59.0033 337.887 58.4334 337.749 58.3941C337.612 58.3548 337.297 58.8854 337.081 59.8089C336.983 60.2805 336.885 60.8504 336.924 61.5381C336.944 61.8722 337.022 62.2455 337.16 62.6385C337.337 63.0315 337.651 63.4049 338.083 63.6407C338.555 63.8568 339.066 63.8568 339.478 63.7193C339.871 63.5817 340.205 63.3852 340.461 63.1691C340.991 62.7564 341.365 62.2848 341.64 61.8918C342.21 61.1451 342.387 60.5556 342.269 60.477Z" fill="#212121"/>
<path d="M330.164 57.3528C330.027 57.2742 329.673 57.6868 329.103 58.3156C328.828 58.63 328.474 59.0034 328.081 59.3571C327.708 59.7108 327.158 60.0055 327.001 59.8876C326.784 59.8287 326.608 59.2588 326.588 58.7479C326.549 58.2174 326.588 57.7261 326.608 57.2938C326.667 56.4489 326.686 55.8987 326.549 55.8594C326.411 55.8201 326.116 56.3113 325.861 57.1759C325.743 57.6082 325.625 58.1388 325.605 58.7676C325.605 59.082 325.605 59.416 325.704 59.809C325.802 60.1824 326.038 60.654 326.568 60.8898C326.706 60.9291 326.843 60.9684 326.961 60.988C327.099 60.988 327.217 60.9684 327.335 60.9684C327.551 60.9094 327.787 60.8308 327.924 60.7326C328.278 60.5361 328.494 60.3003 328.73 60.0841C329.162 59.6322 329.437 59.1606 329.673 58.7872C330.145 57.9816 330.282 57.4314 330.164 57.3528Z" fill="#212121"/>
<path d="M332.542 65.1144C332.64 64.8983 331.442 64.2498 329.929 63.1298L330.066 63.7979C330.42 63.2673 330.793 62.6778 331.147 62.049C332.621 59.4552 333.328 57.1169 333.053 57.0186C332.778 56.9007 331.658 59.0033 330.223 61.5185C329.889 62.0883 329.575 62.6582 329.221 63.2673L328.985 63.6996L329.359 63.9354C331.068 64.9965 332.463 65.3109 332.542 65.1144Z" fill="#212121"/>
<path d="M339.125 65.1931C338.83 65.0948 338.083 67.0205 335.98 68.1995C333.917 69.4375 331.874 69.1624 331.815 69.4571C331.775 69.575 332.267 69.8698 333.171 69.9287C334.055 70.0073 335.332 69.7912 336.511 69.1034C337.69 68.4157 338.515 67.3939 338.869 66.5882C339.242 65.8022 339.242 65.2324 339.125 65.1931Z" fill="#212121"/>
<path d="M345.236 74.3303C348.296 74.3303 350.777 71.8494 350.777 68.789C350.777 65.7286 348.296 63.2477 345.236 63.2477C342.175 63.2477 339.694 65.7286 339.694 68.789C339.694 71.8494 342.175 74.3303 345.236 74.3303Z" fill="#CACACA"/>
<path d="M323.955 61.9115C323.759 65.4682 323.955 69.2803 325.036 72.5815C327.178 71.8151 328.73 69.7912 328.73 67.3742C328.73 64.5839 326.647 62.2848 323.955 61.9115Z" fill="#CACACA"/>
<path d="M332.661 46.0345C332.661 46.0345 329.851 50.1806 335.491 54.484C340.953 58.6301 342.054 52.7548 348.872 59.0624C348.872 59.0624 352.252 55.2503 356.182 59.0035C356.202 58.9838 348.774 39.2355 332.661 46.0345Z" fill="#212121"/>
<path d="M325.056 54.2678C324.958 54.5625 331.58 51.8901 333.132 46.2702L332.68 46.0344C332.66 46.0344 326.864 48.7854 325.056 54.2678Z" fill="#212121"/>
<path d="M352.565 69.182C350.148 69.9484 347.869 76.8848 348.989 82.937L358.067 82.7405L352.565 69.182Z" fill="#212121"/>
<path d="M246.965 109.229C261.565 116.617 277.226 121.923 293.3 124.909C295.973 125.401 298.802 125.833 301.337 124.87C303.715 123.986 305.503 122.041 307.153 120.115C312.42 114.063 317.391 107.735 322.029 101.172L339.655 114.357C330.812 127.425 317.843 137.662 303.066 143.243C301.199 143.95 299.234 144.599 297.23 144.501C295.914 144.442 294.617 144.049 293.359 143.656C278.523 138.979 264.572 131.885 251.033 124.222C248.026 122.512 244.843 120.586 243.428 117.423C242.053 114.279 243.546 109.661 246.965 109.229Z" fill="white" stroke="#212121" stroke-width="0.5" stroke-miterlimit="10"/>
<path d="M226.785 81.6977C225.763 81.4619 224.702 81.5601 223.681 81.8156C220.772 82.5426 218.257 84.6845 217.098 87.4551C215.958 90.2258 216.233 93.5467 217.864 96.0619C219.259 98.2234 221.971 99.7954 224.427 99.029L231.541 86.846C230.892 84.4683 229.163 82.2282 226.785 81.6977Z" fill="white" stroke="#212121" stroke-miterlimit="10"/>
<path d="M220.281 98.3819C219.947 98.1657 220.693 96.0435 221.538 93.2925C221.99 91.917 222.521 90.679 223.012 89.8341C223.523 89.0874 223.405 88.8123 223.484 88.5961C223.523 88.5175 223.778 88.5175 223.975 88.8712C224.152 89.2053 224.132 89.7358 223.995 90.2271C223.759 91.131 223.405 92.3689 222.953 93.7641C222.108 96.574 220.654 98.6177 220.281 98.3819Z" fill="#212121"/>
<path d="M216.842 88.1638C217.058 87.8494 218.63 88.2031 220.811 88.3406C222.953 88.5175 224.781 88.8515 224.761 89.2838C224.741 89.6768 222.953 90.0109 220.674 89.834C219.534 89.7161 218.493 89.4607 217.785 89.107C217.078 88.7533 216.744 88.3406 216.842 88.1638Z" fill="#212121"/>
<path d="M225.979 81.5024C226.332 81.6989 225.802 83.5264 225.193 85.8451C224.544 88.1441 223.955 90.0305 223.542 89.9716C223.129 89.9126 223.09 87.869 223.758 85.4521C224.387 83.0351 225.605 81.2863 225.979 81.5024Z" fill="#212121"/>
<path d="M246.985 83.4676C246.985 83.4479 246.946 83.4086 246.926 83.389C246.926 83.3693 246.926 83.3497 246.926 83.33H246.887C246.475 82.8977 244.274 82.7209 242.859 82.8388C226.923 84.175 223.464 88.0854 223.405 88.8714H223.386C223.386 88.891 223.386 88.891 223.386 88.9106V88.9303C224.761 103.786 225.901 117.384 229.556 128.938C230.067 130.529 234.252 129.96 235.431 129.901C239.165 129.704 242.859 129.016 246.416 127.837C246.848 127.7 248.341 127.071 248.302 126.442C247.516 112.412 247.398 99.4234 246.907 83.6444C246.946 83.6051 246.985 83.5265 246.985 83.4676Z" fill="white" stroke="#CACACA" stroke-miterlimit="10"/>
<path d="M241.248 123.495C241.032 123.495 240.698 119.82 240.324 113.866C239.931 107.912 239.519 99.6788 239.126 90.6005C238.949 86.0417 238.752 81.7383 238.674 77.769C238.654 75.7647 238.792 73.8194 239.244 72.0509C239.695 70.2627 240.462 68.73 241.287 67.4528C242.977 64.8786 244.765 63.2084 245.964 62.049C247.202 60.9093 247.929 60.3395 248.007 60.4181C248.086 60.4967 247.477 61.204 246.396 62.4616C245.315 63.7193 243.684 65.5074 242.191 68.003C238.674 72.9548 240.521 81.5222 240.619 90.5416C240.992 99.6395 241.248 107.873 241.366 113.827C241.484 119.781 241.464 123.475 241.248 123.495Z" fill="#212121"/>
<g opacity="0.56">
<path opacity="0.56" d="M242.879 82.8387C225.508 84.2928 222.954 88.8319 223.465 89.0088C231.914 91.917 247.221 86.4346 246.986 83.4675C246.946 82.9369 244.411 82.7208 242.879 82.8387Z" fill="#CACACA"/>
</g>
<g opacity="0.56">
<path opacity="0.56" d="M227.276 99.5414C228.357 108.246 230.42 118.012 232.346 126.56C232.68 128.093 245.649 125.637 245.571 124.477C245.04 116.165 244.922 105.574 244.352 97.2816C244.333 96.9868 231.678 98.5392 227.276 99.5414Z" fill="#CACACA"/>
</g>
<path d="M221.793 330.115C222.422 329.29 223.483 328.956 224.466 328.622C230.204 326.637 235.214 322.786 238.968 318.011C242.21 313.884 244.528 309.129 246.808 304.413C256.731 283.957 266.694 263.364 272.707 241.454C275.713 230.47 277.894 218.817 284.791 209.739C290.824 201.781 299.863 196.672 308.941 192.525C320.358 187.299 332.443 183.172 344.96 182.288C357.477 181.404 370.525 183.997 380.782 191.229C384.162 193.606 387.286 196.613 388.819 200.444C390.351 204.296 389.919 209.11 386.952 211.999C385.203 213.708 382.825 214.553 380.507 215.3C355.374 223.415 328.591 224.516 302.201 225.557C302.142 234.026 298.252 241.926 294.42 249.471C281.746 274.368 268.6 299.186 251.661 321.41C251.74 323.965 251.583 326.283 249.461 327.364C247.908 328.15 246.042 327.659 244.312 327.698C237.553 327.796 234.31 332.277 227.551 332.06C224.819 331.942 220.143 332.277 221.793 330.115Z" fill="white" stroke="#212121" stroke-width="0.5" stroke-miterlimit="10"/>
<path d="M251.662 321.39C251.662 321.39 240.894 327.954 235.49 321.803C235.49 321.803 227.492 326.932 224.643 327.305C221.794 327.678 219.573 332.041 219.573 332.041H241.856L245.177 330.056L244.234 332.041H251.367C251.387 332.041 254.157 322.157 251.662 321.39Z" fill="#212121"/>
<path d="M327.178 95.1201C328.474 93.3909 330.498 92.6835 332.601 92.153C341.424 89.9325 350.797 89.9718 359.6 92.2709C363.137 93.1944 366.713 94.5699 369.288 97.1834C372.864 100.799 373.925 106.144 374.514 111.174C376.617 129.429 374.613 148.568 381.49 165.605C384.85 173.917 390.274 181.482 392.023 190.285L351.21 200.543C348.93 181.738 341.365 164.897 336.217 146.662C332.149 132.259 332.11 122.532 328.592 107.991C327.708 104.356 326.568 95.9258 327.178 95.1201Z" fill="white"/>
<path d="M300.807 209.739C302.32 207.459 304.619 205.809 306.859 204.256C318.669 196.043 331.068 187.967 345.137 184.94C351.661 183.545 358.362 183.251 365.023 183.27C379.741 183.309 396.483 185.943 404.323 198.617C406.406 201.977 407.546 205.907 407.035 209.798C405.974 217.972 399.195 220.664 392.828 222.334C371.704 227.895 349.46 226.677 327.629 225.4C327.629 225.4 341.148 239.116 345.019 257.194C347.751 270.005 348.36 286.826 349.48 299.874C349.617 301.544 351.111 308.52 352.192 312.194C352.565 313.118 352.82 313.845 352.899 314.179C354.884 315.79 356.534 317.441 355.945 319.759C355.512 321.449 353.921 322.53 352.801 323.866C348.438 329.034 349.696 334.418 345.098 339.37C343.251 341.374 340.441 345.108 339.871 342.455C339.655 341.433 340.107 340.412 340.5 339.449C342.76 333.809 343.153 327.501 341.993 321.548C341.875 320.899 341.718 320.251 341.561 319.602C341.522 319.465 341.482 319.327 341.463 319.19C341.286 318.541 341.109 317.912 340.932 317.283L340.952 317.264C338.044 307.223 331.107 293.664 326.195 283.859C317.293 266.134 309.197 248.017 301.907 229.585C299.333 223.179 296.995 215.516 300.807 209.739Z" fill="white" stroke="#212121" stroke-width="0.5" stroke-miterlimit="10"/>
<path d="M352.899 314.198C352.899 314.198 350.777 326.774 342.603 326.932C342.603 326.932 341.502 336.875 339.95 339.272C338.397 341.689 340.284 346.208 340.284 346.208L354.668 329.191L355.296 325.36L356.22 327.364L360.838 321.901C360.838 321.901 355.1 312.784 352.899 314.198Z" fill="#212121"/>
<path d="M398.153 176.746C395.166 172.247 382.748 160.162 379.761 155.642L339.419 157.155C340.736 164.505 342.229 171.795 344.253 178.947C344.253 178.947 289.764 195.159 280.469 212.431C271.175 229.703 245.178 289.518 245.178 289.518C245.178 289.518 261.723 292.937 287.484 298.989C313.245 305.061 355.316 289.518 355.316 289.518L341.679 231.531C341.679 231.531 401.553 228.013 407.153 228.013C422.834 228.033 398.153 176.746 398.153 176.746Z" fill="#212121"/>
<g opacity="0.27">
<path opacity="0.27" d="M297.153 207.067C297.074 206.772 311.124 202.252 328.573 196.966C346.022 191.681 360.21 187.633 360.308 187.908C360.386 188.203 346.337 192.722 328.887 198.008C311.458 203.313 297.251 207.361 297.153 207.067Z" fill="white"/>
</g>
<g opacity="0.27">
<path opacity="0.27" d="M328.926 286.944C328.867 286.983 328.239 286.237 327.177 284.861C326.097 283.486 324.623 281.422 322.874 278.828C319.376 273.641 314.955 266.174 310.947 257.489C306.958 248.803 304.148 240.59 302.458 234.557C301.613 231.551 301.004 229.094 300.67 227.365C300.316 225.656 300.139 224.693 300.218 224.673C300.296 224.653 300.591 225.577 301.082 227.247C301.554 228.917 302.281 231.354 303.204 234.321C305.071 240.275 307.96 248.371 311.929 257.017C315.918 265.643 320.202 273.11 323.523 278.396C325.173 281.029 326.549 283.151 327.512 284.606C328.474 286.079 328.985 286.905 328.926 286.944Z" fill="white"/>
</g>
<g opacity="0.27">
<path opacity="0.27" d="M332.208 245.207C332.11 245.306 330.794 244.068 328.868 241.886C326.942 239.725 324.388 236.62 321.814 233.005C319.239 229.389 317.117 225.99 315.683 223.455C314.248 220.92 313.502 219.289 313.62 219.23C313.895 219.073 317.55 225.223 322.678 232.376C327.807 239.548 332.444 245.011 332.208 245.207Z" fill="white"/>
</g>
<path d="M384.34 140.61C384.064 124.183 381.294 92.094 352.841 90.0504C352.841 90.0504 351.878 99.4431 343.291 100.19C334.35 100.976 332.778 90.5417 332.778 90.5417C331.442 90.9936 330.007 92.0351 328.848 93.0962L328.828 93.0569C328.828 93.0569 328.71 93.1944 328.494 93.4302C328.023 93.8822 327.61 94.3341 327.276 94.7468C322.226 100.268 306.427 117.796 304.56 122.846C302.006 129.822 313.619 144.52 313.619 144.52L332.562 129.802C337.003 149.963 342.308 171.441 342.308 171.441C342.308 171.441 371.253 173.858 381.628 182.072C392.003 190.285 408.902 203.569 408.902 203.569C417.371 189.126 384.615 157.037 384.34 140.61Z" fill="white" stroke="#212121" stroke-miterlimit="10"/>
<path d="M362.842 94.6878C362.331 94.9432 361.702 94.7271 361.427 94.1965C361.152 93.666 361.349 93.0175 361.86 92.762C362.371 92.5066 362.999 92.7227 363.274 93.2533C363.55 93.7838 363.353 94.4323 362.842 94.6878Z" fill="#141414"/>
<path d="M364.767 97.9299C364.276 98.205 363.588 97.9496 363.235 97.3208C362.881 96.692 362.999 95.9649 363.49 95.6898C363.981 95.4148 364.669 95.6702 365.023 96.299C365.377 96.9081 365.259 97.6352 364.767 97.9299Z" fill="#141414"/>
<path d="M383.828 166.509C383.357 166.843 382.571 166.528 382.04 165.821C381.529 165.094 381.47 164.249 381.942 163.915C382.413 163.581 383.199 163.895 383.73 164.603C384.241 165.31 384.3 166.175 383.828 166.509Z" fill="#141414"/>
<path d="M376.518 111.469C376.066 111.823 375.418 111.744 375.064 111.312C374.71 110.86 374.789 110.211 375.241 109.858C375.693 109.504 376.341 109.582 376.695 110.015C377.049 110.467 376.97 111.115 376.518 111.469Z" fill="#141414"/>
<path d="M359.089 175.96C358.578 176.216 357.949 176 357.674 175.469C357.399 174.939 357.615 174.29 358.126 174.035C358.637 173.779 359.266 173.995 359.541 174.526C359.796 175.076 359.6 175.705 359.089 175.96Z" fill="#141414"/>
<path d="M361.643 176.294C361.191 176.648 360.602 176.628 360.327 176.275C360.051 175.921 360.209 175.351 360.661 175.017C361.113 174.663 361.702 174.683 361.977 175.037C362.252 175.39 362.095 175.96 361.643 176.294Z" fill="#141414"/>
<path d="M361.093 142.653C360.582 142.909 359.953 142.693 359.678 142.162C359.403 141.632 359.619 140.983 360.13 140.728C360.641 140.472 361.27 140.688 361.545 141.219C361.82 141.75 361.604 142.398 361.093 142.653Z" fill="#141414"/>
<path d="M362.704 140.099C362.173 140.315 361.603 140.119 361.426 139.686C361.25 139.234 361.544 138.704 362.075 138.507C362.605 138.291 363.175 138.488 363.352 138.92C363.509 139.352 363.234 139.883 362.704 140.099Z" fill="#141414"/>
<path d="M363.647 142.988C363.195 143.341 362.606 143.322 362.33 142.968C362.055 142.614 362.213 142.044 362.664 141.71C363.116 141.357 363.706 141.376 363.981 141.73C364.256 142.084 364.099 142.653 363.647 142.988Z" fill="#141414"/>
<path d="M361.054 95.6703C363.884 94.0197 367.676 95.1201 369.995 97.4191C372.313 99.7182 373.473 102.921 374.318 106.085C376.794 115.32 377.305 124.949 378.542 134.44C382.63 165.939 393.791 193.842 405.876 223.219C407.212 226.481 409.413 231.943 408.823 235.421C408.253 238.899 404.874 242.181 401.474 241.277C398.9 240.609 397.76 228.151 396.267 228.19C394.656 228.21 386.953 229.644 387.876 227.168C388.544 225.361 394.911 223.985 394.911 223.985C393.732 219.23 390.136 211.782 388.112 206.693C381.372 189.735 373.984 175.39 367.303 158.393C360.582 141.396 357.989 97.4584 361.054 95.6703Z" fill="white" stroke="#212121" stroke-width="0.5" stroke-miterlimit="10"/>
<path d="M356.299 146.957L384.339 144.108C384.339 144.108 381.097 92.5655 359.58 92.2904L356.299 146.957Z" fill="white" stroke="#212121" stroke-miterlimit="10"/>
<path d="M28.791 392.091L61.9603 284.959H119.83L131.443 392.091" stroke="#212121" stroke-width="0.887" stroke-miterlimit="10"/>
<path d="M127.375 281.069H42.3301V293.684H127.375V281.069Z" fill="white" stroke="#212121" stroke-miterlimit="10"/>
<path d="M200.199 133.673C189.234 145.817 176.52 156.389 162.588 164.956C160.27 166.371 157.794 167.786 155.062 167.825C152.528 167.845 150.17 166.666 147.929 165.487C140.836 161.734 137.594 156.31 129.006 150.022L117.924 166.194C130.873 175.214 144.275 185.707 160.054 185.589C162.058 185.569 164.121 185.471 165.949 184.665C167.167 184.135 168.228 183.309 169.269 182.484C181.433 172.777 191.906 161.144 201.771 149.138C203.971 146.466 206.231 143.518 206.408 140.079C206.604 136.621 203.559 132.829 200.199 133.673Z" fill="white" stroke="#212121" stroke-width="0.5" stroke-miterlimit="10"/>
<path d="M131.305 151.83C130.008 150.101 127.709 149.492 125.606 148.961C116.783 146.741 107.41 146.78 98.6267 149.079C95.0897 150.003 91.5134 151.378 88.9392 153.992C85.3629 157.607 84.3018 162.952 83.7123 167.982C81.6097 186.237 83.614 205.376 76.7365 222.413C73.3764 230.725 67.953 238.29 66.2041 247.093L107.017 257.351C109.297 238.546 116.862 221.706 122.01 203.47C126.078 189.067 126.117 179.34 129.634 164.799C130.499 161.164 131.894 152.636 131.305 151.83Z" fill="white" stroke="#212121" stroke-width="0.5" stroke-miterlimit="10"/>
<path d="M131.304 151.83C130.715 151.024 130.361 150.73 129.005 150.022C127.374 154.011 118.807 169.437 113.207 169.437C107.724 169.437 102.38 154.267 101.947 148.332C100.788 148.332 99.3731 148.745 98.6068 149.099C102.792 171.166 93.989 179.655 91.7686 193.134C102.91 192.84 113.03 193.685 124.171 193.979C127.984 182.838 132.503 153.756 131.304 151.83Z" fill="#212121"/>
<path d="M235.019 387.021C234.292 386.786 233.506 386.805 232.739 386.786C228.22 386.707 223.739 385.626 219.672 383.661L215.152 381.893C212.657 382.168 210.201 382.64 207.784 383.288C207.312 383.426 206.742 383.681 206.742 384.172C206.742 384.742 207.489 384.978 208.059 385.017C213.993 385.548 219.829 387.041 225.292 389.38C228.082 390.578 236.846 389.242 236.65 388.515C236.453 387.788 235.746 387.257 235.019 387.021Z" fill="#010101"/>
<path d="M236.394 386.904C235.765 386.078 234.704 385.744 233.721 385.41C227.983 383.426 222.973 379.574 219.22 374.799C215.977 370.673 213.659 365.917 211.379 361.201C201.456 340.746 191.493 320.152 185.48 298.243C182.474 287.258 180.293 275.606 173.396 266.528C167.363 258.569 158.324 253.46 149.246 249.314C137.829 244.087 125.744 239.961 113.227 239.076C100.71 238.192 87.6625 240.786 77.4052 248.017C74.0254 250.395 70.901 253.401 69.3683 257.233C67.8356 261.084 68.2679 265.899 71.2351 268.787C72.9839 270.497 75.3616 271.342 77.6803 272.089C102.813 280.204 129.596 281.304 155.986 282.346C156.045 290.815 159.935 298.714 163.767 306.26C176.441 331.157 189.587 355.975 206.526 378.199C206.447 380.753 206.604 383.072 208.726 384.153C210.279 384.939 212.146 384.447 213.875 384.487C220.634 384.585 223.877 389.065 230.636 388.849C233.368 388.751 238.044 389.085 236.394 386.904Z" fill="white" stroke="#212121" stroke-width="0.5" stroke-miterlimit="10"/>
<path d="M219.023 374.328C219.102 374.308 219.2 374.504 219.338 374.917C219.456 375.349 219.397 376.037 219.004 376.744C218.159 378.14 216.233 379.24 214.032 379.771C211.812 380.321 209.69 380.183 208.255 379.731C206.801 379.279 206.133 378.533 206.231 378.454C206.329 378.316 207.096 378.768 208.452 378.985C209.788 379.201 211.733 379.22 213.777 378.709C215.82 378.238 217.55 377.314 218.355 376.312C219.161 375.31 218.807 374.367 219.023 374.328Z" fill="#010101"/>
<path d="M230.656 384.133C230.734 384.467 229.182 384.821 227.905 385.921C226.647 387.041 226.058 388.515 225.743 388.397C225.508 388.357 225.586 386.589 227.197 385.096C228.887 383.72 230.656 383.897 230.656 384.133Z" fill="#010101"/>
<path d="M213.247 379.201C213.109 379.201 213.286 379.338 213.306 379.358C213.384 379.397 213.443 379.692 213.522 379.928C213.757 380.93 213.895 381.519 214.013 381.971C214.386 383.563 214.602 384.939 214.288 385.017C214.013 385.096 213.345 383.897 212.932 382.207C212.736 381.362 212.677 380.576 212.736 379.987C212.755 379.672 212.795 379.515 212.873 379.26C212.952 379.122 213.03 379.063 213.168 379.063C213.364 379.103 213.266 379.201 213.247 379.201Z" fill="#010101"/>
<path d="M164.749 330.056C165.889 329.683 197.132 322.51 197.132 322.51C197.132 322.51 185.146 272.501 174.181 263.325C163.236 254.148 147.241 239.548 111.989 234.753L91.749 263.325L150.385 290.776L164.749 330.056Z" fill="#212121"/>
<g opacity="0.27">
<path opacity="0.27" d="M194.068 318.246C194.087 318.404 192.358 318.738 189.548 319.209C186.365 319.759 182.69 320.369 178.623 321.076C174.555 321.803 170.881 322.471 167.697 323.041C164.907 323.532 163.158 323.807 163.119 323.65C163.08 323.513 164.769 322.962 167.54 322.275C170.311 321.587 174.143 320.742 178.426 319.995C182.71 319.249 186.601 318.738 189.45 318.443C192.299 318.168 194.068 318.089 194.068 318.246Z" fill="white"/>
</g>
<path d="M78.4464 212.451C71.5296 222.904 64.6325 233.378 57.7156 243.832C55.1022 247.781 52.4494 251.829 51.3883 256.447C50.3272 261.065 51.1722 266.41 54.7092 269.554C57.0868 271.656 60.3094 272.501 63.4338 273.071C76.226 275.35 90.6295 273.366 99.9239 264.287C105.308 259.021 108.472 251.908 111.065 244.834C114.72 234.832 116.921 224.476 118.808 213.983L78.4464 212.451Z" fill="#212121"/>
<path d="M116.843 398.772C116.548 398.065 116.017 397.475 115.546 396.886C112.677 393.388 110.614 389.262 109.494 384.899L107.922 380.301C106.114 378.572 104.149 377 102.105 375.585C101.692 375.31 101.142 375.035 100.769 375.35C100.317 375.723 100.631 376.43 100.965 376.902C104.385 381.775 107.037 387.179 108.786 392.877C109.67 395.766 116.351 401.602 116.784 400.993C117.196 400.344 117.137 399.48 116.843 398.772Z" fill="#010101"/>
<path d="M157.381 266.547C155.868 264.268 153.569 262.617 151.329 261.065C139.519 252.851 127.12 244.775 113.05 241.749C106.526 240.354 99.8258 240.059 93.1644 240.079C78.4465 240.118 61.7047 242.751 53.8643 255.425C51.7814 258.785 50.6417 262.715 51.1526 266.626C52.2137 274.8 58.993 277.492 65.3596 279.162C86.4834 284.723 108.727 283.505 130.558 282.228C130.558 282.228 110.476 334.556 108.727 356.702C108.59 358.372 107.096 365.348 106.016 369.022C105.642 369.946 105.387 370.673 105.308 371.007C103.323 372.618 101.673 374.269 102.262 376.587C102.695 378.277 104.286 379.358 105.406 380.694C109.769 385.862 108.511 391.246 113.109 396.198C114.956 398.202 117.766 401.936 118.336 399.283C118.552 398.261 118.1 397.24 117.707 396.277C115.448 390.637 115.055 384.329 116.214 378.376C116.332 377.727 116.489 377.079 116.646 376.43C116.686 376.293 116.725 376.155 116.744 376.018C116.921 375.369 117.098 374.74 117.275 374.111L117.255 374.092C120.164 364.051 127.1 350.492 132.013 340.687C140.914 322.962 149.01 304.845 156.3 286.413C158.854 279.968 161.193 272.305 157.381 266.547Z" fill="white" stroke="#212121" stroke-width="0.5" stroke-miterlimit="10"/>
<path d="M116.194 378.336C116.253 378.375 116.175 378.592 115.939 378.965C115.683 379.319 115.113 379.731 114.327 379.889C112.716 380.144 110.633 379.397 108.806 378.041C106.959 376.705 105.681 374.996 105.112 373.62C104.522 372.225 104.66 371.223 104.777 371.243C104.954 371.223 105.092 372.107 105.799 373.266C106.507 374.426 107.745 375.919 109.454 377.157C111.144 378.415 112.952 379.142 114.249 379.122C115.546 379.083 116.037 378.218 116.194 378.336Z" fill="#010101"/>
<path d="M117.334 393.742C117.137 393.978 115.683 392.995 113.639 392.72C111.596 392.386 109.925 392.877 109.808 392.582C109.65 392.347 111.419 391.266 113.816 391.639C116.194 391.993 117.55 393.565 117.334 393.742Z" fill="#010101"/>
<path d="M108.766 377.078C108.668 376.98 108.688 377.196 108.688 377.216C108.708 377.295 108.511 377.53 108.393 377.747C107.784 378.592 107.43 379.063 107.155 379.437C106.173 380.753 105.269 381.795 105.013 381.618C104.778 381.46 105.269 380.164 106.291 378.768C106.801 378.081 107.391 377.53 107.863 377.196C108.118 377.02 108.256 376.941 108.511 376.843C108.668 376.803 108.747 376.843 108.845 376.941C108.904 377.098 108.766 377.098 108.766 377.078Z" fill="#010101"/>
<path d="M107.725 322.884L145.492 332.041C145.492 332.041 166.302 280.734 161.723 266.979C157.145 253.224 114.151 233.928 78.6431 234.773L55.7115 246.877C55.7115 246.877 27.6316 280.577 84.8525 285.097L119.83 287.357L107.725 322.884Z" fill="#212121"/>
<g opacity="0.27">
<path opacity="0.27" d="M93.8525 277.728C93.8525 277.571 96.5053 277.433 100.809 277.178C105.092 276.942 111.027 276.569 117.55 275.979C124.074 275.39 129.969 274.702 134.253 274.171C138.517 273.641 141.17 273.307 141.189 273.464C141.209 273.601 138.615 274.211 134.371 274.938C130.126 275.665 124.212 276.49 117.668 277.079C111.125 277.669 105.151 277.905 100.848 277.964C96.5249 278.003 93.8525 277.865 93.8525 277.728Z" fill="white"/>
</g>
<g opacity="0.27">
<path opacity="0.27" d="M98.8038 236.227C98.8234 236.149 99.8256 236.266 101.633 236.502C103.441 236.718 106.055 237.21 109.238 237.878C115.605 239.273 124.368 241.67 133.545 245.581C138.143 247.506 142.407 249.628 146.141 251.849C149.894 254.01 153.058 256.329 155.533 258.491C156.143 259.041 156.712 259.571 157.263 260.082C157.754 260.632 158.225 261.143 158.658 261.654C159.581 262.597 160.092 263.619 160.623 264.366C161.134 265.132 161.291 265.859 161.507 266.292C161.684 266.744 161.743 266.979 161.704 266.999C161.605 267.038 161.212 266.095 160.269 264.582C159.699 263.894 159.149 262.932 158.206 262.047C157.754 261.576 157.282 261.084 156.771 260.574C156.221 260.102 155.632 259.591 155.023 259.08C152.527 257.037 149.363 254.816 145.63 252.733C141.916 250.591 137.691 248.508 133.113 246.602C123.995 242.712 115.349 240.216 109.061 238.644C102.753 237.052 98.7841 236.424 98.8038 236.227Z" fill="white"/>
</g>
<g opacity="0.27">
<path opacity="0.27" d="M89.5293 220.625C89.5293 220.33 95.7584 220.075 103.442 220.075C111.125 220.075 117.354 220.31 117.354 220.625C117.354 220.92 111.125 221.175 103.442 221.175C95.7584 221.175 89.5293 220.939 89.5293 220.625Z" fill="white"/>
</g>
<g opacity="0.27">
<path opacity="0.27" d="M146.534 324.141C146.455 324.436 138.536 322.785 128.809 320.447C119.083 318.109 111.262 315.987 111.34 315.692C111.419 315.397 119.338 317.048 129.065 319.386C138.792 321.724 146.612 323.866 146.534 324.141Z" fill="white"/>
</g>
<path d="M125.489 101.939C123.504 100.308 121.009 99.4038 118.533 98.6964C116.076 98.0086 113.522 97.4977 110.987 97.6549C108.433 97.8318 105.878 98.7553 104.09 100.583C103.52 101.192 103.029 101.88 102.4 102.43C99.3739 105.122 94.1863 103.805 91.1209 106.478C88.7825 108.521 88.6253 112.039 88.9004 115.124C89.1755 118.209 89.6668 121.53 88.1144 124.222C86.3656 127.287 82.5731 128.486 80.0579 130.942C79.4291 131.551 78.8396 132.357 78.9182 133.222C79.0558 134.833 81.0797 135.442 82.691 135.619C95.5225 137.073 108.433 137.8 121.343 137.8L128.711 108.639C128.928 106.065 127.493 103.57 125.489 101.939Z" fill="#212121"/>
<path d="M133.938 115.183C133.054 107.971 127.356 102.096 120.105 101.487C110.221 100.681 107.175 111.037 106.625 115.202C105.583 123.18 105.289 137.957 105.387 153.166C105.426 160.476 120.4 162.225 124.506 152.636C125.214 150.965 125.469 149.138 125.43 147.33L125.292 137.446C134.587 134.833 134.921 123.279 133.938 115.183Z" fill="white" stroke="#212121" stroke-width="0.5" stroke-miterlimit="10"/>
<path d="M125.291 137.466C125.291 137.466 120.968 139.018 114.896 135.029C114.896 135.029 118.316 141.985 125.37 144.442L125.291 137.466Z" fill="#141313"/>
<path d="M100.887 121.156C101.614 124.399 104.443 126.521 107.214 125.912C109.965 125.283 111.616 122.159 110.889 118.916C110.162 115.674 107.332 113.552 104.561 114.161C101.791 114.79 100.16 117.914 100.887 121.156Z" fill="white" stroke="#212121" stroke-width="0.5" stroke-miterlimit="10"/>
<path d="M104.345 119.329C104.306 119.191 104.542 118.975 105.033 118.838C105.504 118.7 106.251 118.739 106.939 119.054C107.646 119.368 108.137 119.918 108.354 120.351C108.57 120.803 108.55 121.137 108.432 121.176C108.157 121.294 107.568 120.469 106.507 119.997C105.445 119.506 104.443 119.604 104.345 119.329Z" fill="#131313"/>
<path d="M115.919 117.285C116.037 117.207 116.45 117.619 117.098 118.248C117.432 118.543 117.825 118.916 118.277 119.211C118.513 119.368 118.749 119.466 118.985 119.545C119.221 119.584 119.417 119.584 119.614 119.506C119.79 119.407 119.948 119.25 120.066 119.014C120.164 118.779 120.242 118.523 120.282 118.248C120.36 117.698 120.36 117.167 120.36 116.715C120.341 115.811 120.301 115.242 120.439 115.202C120.576 115.163 120.891 115.693 121.107 116.617C121.205 117.089 121.303 117.658 121.264 118.346C121.245 118.68 121.166 119.054 121.028 119.447C120.852 119.84 120.537 120.213 120.105 120.449C119.633 120.665 119.122 120.665 118.71 120.527C118.317 120.39 117.983 120.193 117.727 119.977C117.197 119.565 116.823 119.093 116.548 118.7C115.978 117.934 115.801 117.364 115.919 117.285Z" fill="#212121"/>
<path d="M128.023 114.141C128.161 114.063 128.515 114.475 129.084 115.104C129.359 115.418 129.713 115.792 130.106 116.145C130.48 116.499 131.03 116.794 131.187 116.676C131.403 116.617 131.58 116.047 131.6 115.536C131.639 115.006 131.6 114.514 131.58 114.082C131.521 113.237 131.501 112.687 131.639 112.648C131.776 112.608 132.071 113.1 132.327 113.964C132.445 114.397 132.562 114.927 132.582 115.556C132.582 115.87 132.582 116.204 132.484 116.597C132.386 116.971 132.15 117.442 131.619 117.678C131.482 117.717 131.344 117.757 131.226 117.776C131.089 117.776 130.971 117.757 130.853 117.757C130.637 117.698 130.401 117.619 130.263 117.521C129.91 117.324 129.694 117.089 129.458 116.872C129.025 116.421 128.75 115.949 128.515 115.576C128.043 114.77 127.905 114.22 128.023 114.141Z" fill="#212121"/>
<path d="M125.646 121.903C125.548 121.687 126.747 121.038 128.26 119.918L128.122 120.586C127.769 120.056 127.395 119.466 127.042 118.837C125.568 116.244 124.86 113.905 125.136 113.807C125.411 113.689 126.531 115.792 127.965 118.307C128.299 118.877 128.614 119.447 128.967 120.056L129.203 120.488L128.83 120.724C127.12 121.785 125.725 122.099 125.646 121.903Z" fill="#212121"/>
<path d="M107.411 125.577C107.411 128.643 109.887 131.119 112.952 131.119C116.018 131.119 118.494 128.643 118.494 125.577C118.494 122.512 116.018 120.036 112.952 120.036C109.907 120.036 107.411 122.532 107.411 125.577Z" fill="#CACACA"/>
<path d="M134.253 118.7C134.449 122.256 134.253 126.069 133.172 129.37C131.03 128.603 129.478 126.579 129.478 124.163C129.458 121.372 131.541 119.093 134.253 118.7Z" fill="#CACACA"/>
<path d="M125.901 125.814C126.137 126.01 125.174 127.032 123.661 126.757C122.148 126.482 121.598 125.185 121.893 125.086C122.148 124.929 122.836 125.519 123.858 125.676C124.86 125.892 125.705 125.578 125.901 125.814Z" fill="#010101"/>
<path d="M106.683 114.22C106.683 114.22 114.838 119.368 120.556 104.926C120.556 104.926 125.488 110.604 132.955 111.371C132.955 111.371 130.912 101.074 118.513 98.7161C106.133 96.3385 106.683 114.22 106.683 114.22Z" fill="#212121"/>
<path d="M209.139 100.701C210.003 100.111 211.045 99.8165 212.067 99.6789C215.034 99.3056 218.178 100.406 220.222 102.587C222.285 104.768 223.208 107.971 222.599 110.899C222.069 113.434 220.104 115.871 217.529 116.028L206.506 107.225C206.309 104.768 207.095 102.076 209.139 100.701Z" fill="white" stroke="#212121" stroke-miterlimit="10"/>
<path d="M221.204 113.945C221.44 113.63 219.966 111.901 218.198 109.642C217.274 108.521 216.351 107.539 215.584 106.949C214.838 106.419 214.838 106.144 214.7 105.967C214.621 105.908 214.386 106.006 214.346 106.399C214.307 106.792 214.523 107.264 214.818 107.677C215.368 108.443 216.135 109.465 217.058 110.604C218.846 112.903 220.949 114.299 221.204 113.945Z" fill="#212121"/>
<path d="M220.733 103.177C220.418 102.961 219.062 103.864 217.097 104.768C215.152 105.712 213.58 106.674 213.757 107.067C213.914 107.421 215.702 107.107 217.765 106.105C218.787 105.594 219.671 104.965 220.182 104.375C220.733 103.805 220.89 103.314 220.733 103.177Z" fill="#212121"/>
<path d="M209.827 100.249C209.571 100.563 210.73 102.076 212.126 104.022C213.54 105.947 214.798 107.48 215.152 107.264C215.505 107.067 214.818 105.142 213.324 103.118C211.87 101.094 210.082 99.9147 209.827 100.249Z" fill="#212121"/>
<path d="M190.924 109.622C190.924 109.602 190.943 109.563 190.943 109.524C190.943 109.504 190.924 109.484 190.924 109.465H190.963C191.199 108.915 193.184 107.971 194.539 107.559C209.886 103.079 214.524 105.476 214.858 106.183H214.877C214.877 106.203 214.877 106.203 214.877 106.223V106.242C218.945 120.606 222.757 133.693 223.504 145.798C223.602 147.468 219.475 148.451 218.375 148.804C214.818 149.964 211.124 150.651 207.391 150.828C206.939 150.848 205.327 150.809 205.131 150.199C200.808 136.837 196.269 124.674 191.042 109.779C191.022 109.74 190.943 109.681 190.924 109.622Z" fill="white" stroke="#CACACA" stroke-miterlimit="10"/>
<path d="M210.672 144.913C210.868 144.854 209.866 141.298 208.078 135.599C206.29 129.901 203.735 122.08 200.827 113.454C199.353 109.131 197.997 105.063 196.642 101.31C195.934 99.4432 195.109 97.6747 194.048 96.1813C192.987 94.6879 191.709 93.5285 190.491 92.6246C187.996 90.8365 185.716 89.9129 184.183 89.2645C182.631 88.6553 181.727 88.3802 181.688 88.4785C181.649 88.5767 182.454 89.0287 183.928 89.795C185.382 90.581 187.563 91.6618 189.843 93.4499C194.893 96.8101 196.268 105.456 199.412 113.925C202.32 122.552 205.052 130.313 207.076 135.933C209.119 141.553 210.475 144.972 210.672 144.913Z" fill="#212121"/>
<g opacity="0.56">
<path opacity="0.56" d="M194.539 107.578C211.261 102.685 215.29 106.006 214.877 106.36C208.039 112.117 191.788 112.51 190.943 109.642C190.786 109.131 193.065 108.011 194.539 107.578Z" fill="#CACACA"/>
</g>
<g opacity="0.56">
<path opacity="0.56" d="M215.093 117.541C217.215 126.049 218.787 135.894 220.084 144.579C220.32 146.132 207.331 148.49 206.977 147.389C204.482 139.451 200.788 129.527 198.331 121.569C198.253 121.294 210.632 118.189 215.093 117.541Z" fill="#CACACA"/>
</g>
<path d="M97.1331 152.479C94.3035 150.828 90.511 151.928 88.1923 154.227C85.8736 156.527 84.7143 159.729 83.8693 162.893C81.3934 172.129 80.8825 181.757 79.6446 191.248C75.5574 222.747 64.3961 250.65 52.3114 280.027C50.9752 283.289 48.7744 288.752 49.3639 292.23C49.9337 295.708 53.3135 298.989 56.713 298.085C59.2871 297.417 60.4268 284.959 61.9399 284.998C63.5512 285.018 71.254 286.453 70.3305 283.977C69.6623 282.169 63.2957 280.793 63.2957 280.793C64.4747 276.038 68.0707 268.591 70.0946 263.501C76.8346 246.543 84.223 232.199 90.904 215.202C97.6047 198.185 100.199 154.247 97.1331 152.479Z" fill="white" stroke="#212121" stroke-width="0.5" stroke-miterlimit="10"/>
<path d="M126.569 151.339C126.569 154.66 120.144 162.127 112.972 161.027C107.961 160.26 103.775 154.66 103.775 151.339C103.775 147.33 109.317 145.346 114.406 145.346C119.476 145.326 126.569 148.018 126.569 151.339Z" fill="white"/>
<path d="M99.4527 159.592C99.9047 169.417 96.0336 182.347 95.1101 173.937C94.9529 172.522 88.3701 162.009 88.3701 157.155C88.3701 152.302 95.7389 149.963 96.8589 150.789C98.0183 151.634 99.2366 154.738 99.4527 159.592Z" fill="white"/>
</svg>
