<svg width="400" height="400" viewBox="0 0 400 400" fill="none" xmlns="http://www.w3.org/2000/svg">
<path d="M347.759 377.113C346.674 375.661 345.406 374.55 344.1 373.829C326.516 364.13 309.888 376.178 292.35 376.822C276.645 377.4 261.065 373.594 245.47 371.277C238.165 370.194 230.82 370.54 223.504 371.431C210.646 372.993 197.047 375.044 183.877 375.705C170.666 376.353 157.799 373.635 144.663 372.865C136.297 372.376 128.044 373.152 119.651 373.383C119.477 373.393 119.304 373.391 119.13 373.402C111.911 373.584 104.824 370.706 97.6685 369.246C90.5131 367.786 82.9128 367.883 76.4775 373.545C74.3697 375.406 71.9384 378.469 73.5424 382.349C74.8406 385.493 78.425 387.772 80.4626 389.055C85.5667 392.27 91.1819 392.758 96.5855 392.075C107.365 390.707 117.123 390.867 128.07 391.77C139.044 392.674 151.003 396.778 162.029 396.524C166.316 396.433 170.583 395.408 174.869 395.423C183.649 395.432 192.303 397.095 201.063 396.3C208.905 395.579 216.656 393.463 224.474 392.269C246.316 388.957 268.161 392.962 289.948 394.933C300.97 395.932 312.038 396.47 323.073 395.235C331.626 394.284 340.139 396.17 348.396 391.777C349.122 391.393 349.877 390.939 350.372 389.963C351.036 388.657 351.068 386.718 350.847 385.038C350.439 381.83 349.282 379.148 347.759 377.113Z" fill="#EEEEEE"/>
<path fill-rule="evenodd" clip-rule="evenodd" d="M216.267 379.779C219.764 379.892 220.791 380.623 222.259 382.511C222.259 382.511 222.341 382.619 222.392 382.689C223.088 383.957 223.436 385.385 223.401 386.831C223.329 388.344 222.82 389.804 221.935 391.033C221.337 391.836 220.541 392.47 219.625 392.873C218.71 393.276 217.705 393.435 216.709 393.333C214.315 393.341 212.012 392.416 210.288 390.755C209.231 389.648 208.602 388.201 208.514 386.673C208.425 385.145 208.882 383.635 209.804 382.413C210.425 381.504 211.254 380.755 212.223 380.229C212.431 380.13 212.653 380.062 212.881 380.028C214.002 379.861 215.134 379.778 216.267 379.779ZM217.004 380.864C215.608 380.901 214.22 381.079 212.86 381.397C208.785 383.843 208.62 389.853 214.615 391.568C218.459 392.531 220.287 391.396 221.495 389.515C222.086 388.529 222.43 387.415 222.497 386.268C222.525 385.138 222.306 384.015 221.856 382.977L221.845 382.963L221.837 382.944C221.828 382.931 221.818 382.919 221.808 382.907L221.796 382.884C221.788 382.877 221.78 382.868 221.775 382.859C221.716 382.8 221.555 382.621 221.476 382.537C220.914 381.926 220.216 381.456 219.438 381.166C218.66 380.875 217.825 380.772 217 380.864H217.004ZM222.259 382.511L222.244 382.492L222.259 382.511Z" fill="#212121"/>
<path fill-rule="evenodd" clip-rule="evenodd" d="M279.661 376.695C283.158 376.808 284.186 377.539 285.661 379.427C285.661 379.427 285.745 379.535 285.794 379.606C286.491 380.873 286.839 382.301 286.805 383.747C286.733 385.261 286.224 386.721 285.338 387.951C284.741 388.753 283.945 389.387 283.03 389.79C282.114 390.193 281.109 390.351 280.114 390.25C277.72 390.257 275.417 389.332 273.693 387.671C272.636 386.564 272.007 385.118 271.918 383.59C271.829 382.062 272.286 380.553 273.208 379.331C273.829 378.421 274.658 377.672 275.626 377.147C275.837 377.047 276.062 376.979 276.293 376.946C277.408 376.779 278.534 376.695 279.661 376.695ZM280.4 377.78C279.003 377.817 277.614 377.995 276.254 378.313C272.18 380.758 272.014 386.77 278.01 388.483C281.854 389.446 283.681 388.311 284.89 386.43C285.481 385.444 285.825 384.331 285.893 383.184C285.921 382.054 285.702 380.931 285.252 379.894L285.24 379.879V379.86C285.23 379.847 285.22 379.834 285.209 379.823L285.198 379.8C285.19 379.792 285.183 379.783 285.176 379.774C285.118 379.716 284.957 379.536 284.878 379.454C284.316 378.842 283.618 378.371 282.839 378.081C282.061 377.79 281.225 377.687 280.4 377.78ZM285.654 379.427L285.64 379.408L285.654 379.427Z" fill="#212121"/>
<path fill-rule="evenodd" clip-rule="evenodd" d="M246.092 336.147C246.039 338.709 245.861 344.98 245.611 347.597C245.537 348.155 245.504 348.549 244.916 348.696C241.139 348.818 237.357 348.714 233.592 348.385C232.749 348.211 232.733 347.968 232.733 343.999C232.761 342.373 232.877 334.125 233.06 333.853L233.096 333.816C233.147 333.772 233.211 333.745 233.279 333.741C235.264 333.338 237.283 333.122 239.308 333.097C241.271 332.771 243.271 332.747 245.241 333.024C246.239 333.225 246.133 333.323 246.092 336.147ZM234.177 347.425V347.417V347.429V347.413V347.425ZM237.153 334.105C235.966 334.043 234.775 334.109 233.601 334.301C233.64 335.717 233.948 345.065 234.12 346.968C234.129 347.112 234.029 347.068 234.787 347.121C237.107 347.235 241.112 347.32 244.156 347.268C244.404 344.353 244.724 335.02 244.763 334.253C241.943 333.741 240.141 334.22 237.153 334.105ZM233.163 334.313L233.187 334.264L233.163 334.313Z" fill="#212121"/>
<path fill-rule="evenodd" clip-rule="evenodd" d="M302.915 374.829C284.691 377.188 230.257 380.933 209.159 380.368C197.826 380.065 189.187 380.017 176.33 371.449C172.618 368.974 160.919 359.892 164.378 352.101C168.061 343.802 178.03 350.576 183.347 351.958C189.295 353.506 196.53 358.057 203.599 358.289C222.494 358.907 278.513 357.706 296.707 355.664C302.913 354.966 307.605 349.911 312.773 346.028C320.106 340.525 328.169 337.732 329.898 344.645C332.618 355.527 313.827 373.413 302.915 374.829Z" fill="#212121"/>
<path fill-rule="evenodd" clip-rule="evenodd" d="M328.06 340.896C330.472 342.52 330.932 345.889 330.487 348.815C329.463 355.511 323.006 363.176 317.319 367.659C313.544 370.709 307.808 374.608 302.952 375.125C302.934 374.98 302.879 374.543 302.952 375.125C287.93 377.197 256.058 379.375 239.935 380.231C202.343 382.068 192.103 381.557 179.915 374.497C174.048 371.185 166.506 365.305 163.994 359.369C161.628 354.224 163.954 349.324 167.515 347.831C171.152 346.364 175.892 348.307 179.579 349.803C185.008 351.981 183.23 350.897 187.383 352.517C190.354 353.655 192.992 354.895 196.384 356.053C201.075 357.636 203.007 357.557 207.572 357.637C233.651 358.06 289.706 356.365 297.59 354.875C304.98 353.437 310.256 345.785 318.222 341.933C321.182 340.457 325.295 339.067 328.06 340.896ZM321.452 341.749C311.743 345.083 306.074 355.193 296.786 356.308C275.174 358.769 210.64 359.707 202.375 358.952C195.634 358.285 189.508 354.476 182.898 352.603C177.763 351.119 169.776 345.967 165.99 350.801C165.447 351.52 165.031 352.325 164.759 353.184C163.487 357.905 167.167 362.435 170.663 365.923C173.253 368.415 176.122 370.6 179.212 372.436C186.954 377.003 192.786 379.023 203.552 379.511C224.736 380.776 283.18 376.909 302.886 374.531C304.927 374.212 306.899 373.551 308.719 372.575C313.545 369.951 317.925 366.579 321.695 362.584C325.995 357.877 331.522 349.704 329.1 343.784C327.784 340.632 324.702 340.651 321.452 341.749Z" fill="#212121"/>
<path fill-rule="evenodd" clip-rule="evenodd" d="M303.187 369.4C284.963 371.759 230.528 375.504 209.431 374.937C198.097 374.636 189.459 374.587 176.601 366.02C172.889 363.545 161.309 357.665 164.768 349.875C168.455 341.577 178.3 345.147 183.619 346.529C189.567 348.077 196.8 352.628 203.871 352.859C222.765 353.476 278.784 352.277 296.977 350.233C303.183 349.537 307.875 344.48 313.044 340.599C320.377 335.095 327.855 335.953 329.584 342.865C331.429 350.259 323.8 356.587 318.772 360.776C315.333 363.641 309.075 368.636 303.187 369.4Z" fill="white"/>
<path fill-rule="evenodd" clip-rule="evenodd" d="M217.466 375.63C198.711 375.846 189.757 375.428 176.666 366.913C173.577 365.108 170.635 363.063 167.866 360.797C163.987 357.205 161.993 353.321 164.546 348.691C167.837 342.815 174.093 343.273 180.567 344.939C183.625 345.641 186.617 346.607 189.509 347.824C193.111 349.477 196.861 350.785 200.709 351.733C207.991 353.141 292.042 351.501 299.534 349.031C305.067 347.176 309.47 342.268 313.689 339.456C323.166 333.219 330.689 337.525 330.335 345.785C329.783 352.236 323.691 357.337 318.35 361.632C314.359 364.898 308.385 369.148 303.238 369.69C285.419 372.149 234.25 375.63 217.466 375.63ZM318.571 338.204C311.794 340.593 307.491 347.561 300.195 350.136C291.839 353.036 225.669 353.779 215.159 353.761C198.367 353.715 200.561 353.75 187.871 348.768C185.175 347.701 182.4 346.846 179.571 346.21C176.238 345.393 172.309 344.704 169.193 346.141C167.75 346.831 166.564 347.962 165.808 349.372C165.052 350.781 164.765 352.395 164.989 353.979C165.922 358.554 172.037 362.294 175.749 364.625C178.601 366.556 181.583 368.287 184.674 369.805C188.811 371.762 193.237 373.039 197.781 373.588C211.458 375.297 241.846 373.622 255.618 372.854C302.285 370.054 303.15 368.77 303.15 369.105C303.955 368.994 304.749 368.815 305.525 368.572C310.915 367.154 318.754 360.526 322.825 356.712C326.633 353.014 330.167 348.685 329.225 343.481C328.382 338.907 324.533 336.227 318.57 338.204H318.571Z" fill="#212121"/>
<path fill-rule="evenodd" clip-rule="evenodd" d="M233.169 344.916C232.16 348.885 231.371 352.907 230.804 356.964C230.72 357.947 230.89 358.935 231.296 359.834C232.935 361.934 270.08 363.834 272.965 363.741C273.737 363.714 275.139 363.632 275.483 362.797C276.917 359.298 273.808 358.074 271.005 356.625C264.775 353.402 245.307 344.728 245.139 344.808C242.873 345.865 240.361 346.284 237.875 346.02C235.367 345.733 233.665 344.749 233.169 344.916Z" fill="black"/>
<path fill-rule="evenodd" clip-rule="evenodd" d="M238.869 345.703C241.01 345.743 243.129 345.27 245.049 344.323C245.661 344.244 270.649 355.095 274.33 357.601C275.08 357.986 275.694 358.591 276.089 359.335C276.485 360.079 276.642 360.926 276.541 361.763C276.196 364.184 274.856 364.527 272.181 364.48C267.248 364.395 235.733 362.764 231.381 360.548C231.201 360.467 231.041 360.349 230.91 360.201C230.779 360.054 230.681 359.88 230.623 359.692C230.259 358.435 230.194 357.111 230.433 355.825C230.912 352.625 232.08 347.967 232.879 344.843C233.165 344.009 235.241 345.6 238.869 345.703ZM231.299 356.919C231.244 357.786 231.375 358.655 231.684 359.468C232.393 360.204 241.451 361.267 256.758 362.237C268.386 362.924 273.997 363.291 274.634 362.675L274.656 362.665L274.669 362.652H274.68L274.693 362.64H274.701L274.754 362.588V362.58L274.765 362.569L274.778 362.557L274.786 362.549C274.916 362.226 275.012 361.889 275.07 361.545C275.107 361.307 275.107 361.064 275.07 360.825V360.804C274.951 360.245 274.643 359.745 274.198 359.387C273.633 358.915 273.016 358.508 272.36 358.175C266.204 354.953 247.51 346.328 245.16 345.363C238.789 348.021 234.448 345.337 233.405 345.229C232.479 349.082 231.775 352.985 231.299 356.919ZM231.711 359.501V359.513L231.702 359.5L231.711 359.501ZM231.711 359.501L231.702 359.493L231.711 359.501ZM231.711 359.501L231.701 359.493L231.711 359.501Z" fill="#212121"/>
<path d="M250.489 354.961C250.358 354.961 250.229 354.926 250.116 354.859C250.002 354.793 249.909 354.698 249.844 354.584C249.779 354.47 249.745 354.341 249.746 354.209C249.747 354.078 249.783 353.949 249.849 353.836C251.417 351.191 251.811 350.179 252.84 348.403C252.94 348.234 253.103 348.111 253.293 348.062C253.483 348.012 253.685 348.04 253.855 348.138C254.025 348.237 254.149 348.398 254.2 348.588C254.252 348.778 254.226 348.98 254.129 349.151C253.16 350.827 252.604 352.111 251.132 354.596C251.066 354.707 250.972 354.8 250.859 354.864C250.746 354.928 250.619 354.961 250.489 354.961Z" fill="white"/>
<path d="M257.094 357.37C256.971 357.369 256.85 357.339 256.741 357.28C256.633 357.222 256.541 357.138 256.473 357.035C256.405 356.933 256.363 356.815 256.352 356.693C256.34 356.57 256.359 356.447 256.407 356.334C256.931 355.096 258.274 352.194 258.611 351.18C258.672 350.992 258.806 350.836 258.983 350.747C259.159 350.658 259.364 350.642 259.552 350.704C259.74 350.765 259.895 350.899 259.985 351.075C260.074 351.252 260.09 351.456 260.028 351.644C259.663 352.756 258.396 355.46 257.78 356.915C257.723 357.05 257.628 357.165 257.505 357.246C257.383 357.326 257.24 357.37 257.094 357.37Z" fill="white"/>
<path d="M240.247 113.575C240.5 113.715 241.035 113.477 241.099 113.154L241.1 113.154C241.108 113.208 241.1 113.237 241.104 113.212C241.107 113.196 241.114 113.165 241.127 113.117C241.155 113.02 241.202 112.883 241.271 112.704C241.409 112.347 241.62 111.857 241.898 111.249C242.454 110.035 243.263 108.376 244.247 106.422C246.214 102.516 248.874 97.4485 251.588 92.4424C254.301 87.4357 257.065 82.496 259.241 78.8444C260.329 77.0171 261.265 75.5206 261.972 74.5012C262.327 73.9892 262.614 73.6119 262.827 73.3756C262.884 73.3123 262.931 73.2645 262.968 73.2293L277.896 78.5583C277.88 78.6407 277.861 78.7346 277.841 78.8393C277.752 79.2913 277.624 79.945 277.462 80.751C277.139 82.3632 276.687 84.5848 276.167 87.0222C275.126 91.9045 273.821 97.6284 272.754 101.065C268.258 115.53 264.467 126.985 257.178 141.252C255.944 143.667 253.882 146.081 251.382 147.939C248.882 149.797 245.974 151.075 243.057 151.268L243.051 151.268C235.005 151.899 226.942 150.302 219.744 146.654L219.469 146.515L219.222 146.697C219.099 146.787 219.056 146.904 219.046 146.93L219.046 146.931C219.031 146.974 219.024 147.01 219.021 147.028C219.014 147.065 219.013 147.099 219.012 147.117C219.012 147.137 219.011 147.158 219.012 147.179C219.012 147.201 219.013 147.223 219.014 147.244C219.018 147.33 219.027 147.449 219.039 147.593C219.064 147.884 219.107 148.301 219.164 148.825C219.279 149.875 219.454 151.364 219.669 153.145C220.099 156.706 220.692 161.441 221.291 166.169C221.89 170.898 222.495 175.623 222.95 179.165C223.178 180.936 223.368 182.411 223.501 183.444L223.652 184.608L218.881 185.611L197.947 159.485L197.73 159.214L197.401 159.322C191.193 161.353 184.618 162.01 178.131 161.25L177.594 161.187L177.573 161.727C177.16 172.359 175.775 182.931 173.434 193.309C173.374 193.31 173.308 193.311 173.236 193.312C172.848 193.318 172.274 193.324 171.529 193.324C170.038 193.325 167.864 193.304 165.132 193.219C159.668 193.048 151.975 192.619 143.062 191.585C125.28 189.522 102.681 185.053 83.2501 175.448C83.2526 175.425 83.2561 175.4 83.2609 175.372C83.3005 175.136 83.4102 174.779 83.5994 174.298C83.9744 173.346 84.6195 172.012 85.47 170.408C87.168 167.204 89.6555 162.974 92.3499 158.658C95.0439 154.344 97.9394 149.953 100.452 146.429C101.708 144.667 102.866 143.126 103.852 141.922C104.849 140.705 105.641 139.868 106.171 139.48L106.171 139.48C106.345 139.352 106.395 139.164 106.391 139.025C106.387 138.908 106.349 138.814 106.325 138.764C106.275 138.658 106.199 138.555 106.13 138.47C105.984 138.29 105.765 138.063 105.511 137.813C105.114 137.423 104.591 136.939 104.036 136.424C103.873 136.273 103.708 136.12 103.542 135.965C102.803 135.278 102.049 134.566 101.454 133.944C101.157 133.633 100.906 133.351 100.72 133.112C100.523 132.859 100.433 132.697 100.407 132.618L100.407 132.617C99.48 129.735 99.2237 127.2 99.6941 124.564C100.166 121.918 101.377 119.134 103.444 115.767L103.444 115.766C103.911 115.003 110.058 106.499 117.078 97.3466C120.583 92.777 124.297 88.0564 127.617 84.0731C130.946 80.0794 133.853 76.8577 135.751 75.2612C146.327 66.3681 156.139 62.1717 169.093 64.0122L169.093 64.0122C193.834 67.5243 211.605 79.9069 223.195 91.4107C228.99 97.1625 233.237 102.692 236.033 106.775C237.431 108.816 238.466 110.496 239.15 111.661C239.492 112.243 239.746 112.696 239.914 113.002C239.998 113.155 240.061 113.272 240.103 113.349L240.151 113.439C240.156 113.448 240.162 113.459 240.168 113.469L240.168 113.469C240.17 113.472 240.177 113.484 240.186 113.498C240.193 113.509 240.222 113.548 240.247 113.575ZM262.775 73.1602L262.782 73.1627C262.779 73.1619 262.777 73.1611 262.775 73.1602Z" fill="#212121" stroke="black"/>
<path fill-rule="evenodd" clip-rule="evenodd" d="M263.052 72.2775C263.227 72.3321 278.684 77.7441 278.857 77.9681C278.893 78.0185 278.919 78.0758 278.931 78.1364C278.944 78.1969 278.944 78.2595 278.932 78.3201C276.957 90.0068 274.016 101.51 270.141 112.711C266.888 122.779 262.847 132.576 258.055 142.009C255.897 145.896 252.59 149.02 248.588 150.955C246.619 151.907 244.468 152.425 242.281 152.476C234.713 152.934 227.152 151.466 220.304 148.209C220.643 151.676 223.713 175.536 224.161 179.009C225.004 185.509 225.007 185.009 224.828 185.369C224.568 185.745 224.705 185.636 220.467 186.528C218.571 186.928 218.705 186.937 218.388 186.825C218.104 186.671 219.543 188.393 197.301 160.653C191.318 162.546 185.011 163.196 178.768 162.561C178.471 167.228 178.269 170.229 177.787 174.868C176.853 183.867 174.843 193.708 174.388 194.297C174.104 194.572 173.924 194.543 173.512 194.551C168.565 194.629 161.139 194.437 152.423 193.751C129.811 191.9 105.931 187.32 85.3334 177.803C82.6454 176.532 82.2587 176.449 82.0947 175.936C81.0494 172.749 101.295 141.871 104.948 138.941C103.551 137.487 99.8094 134.408 99.2867 133.013C99.2334 132.88 98.9134 131.833 98.7094 130.899C96.7787 122.063 101.993 115.643 107.341 108.365C112.997 100.743 122.941 87.6108 128.595 81.1868C131.241 77.8574 134.292 74.8709 137.677 72.2961C151.981 61.1548 163.457 60.8855 179.645 65.0881C195.115 69.1916 209.319 77.0854 220.972 88.0561C228.671 95.1627 235.261 103.383 240.523 112.443C240.547 112.395 240.637 112.161 240.691 112.028C240.691 111.147 259.423 74.8401 262.523 72.4135C262.596 72.3533 262.681 72.3099 262.772 72.2864C262.864 72.2629 262.959 72.2599 263.052 72.2775ZM219.001 146.649C219.588 146.065 219.935 146.588 222.545 147.735C228.702 150.343 235.371 151.518 242.048 151.172C243.908 151.156 245.746 150.772 247.456 150.043C251.435 148.296 254.745 145.313 256.896 141.537C257.336 140.761 259.963 135.476 261.416 132.195C264.266 125.819 266.794 119.303 268.989 112.673C273.62 98.9108 274.323 96.2628 277.937 78.5401L262.956 73.1468C260.012 75.9895 242.676 108.155 240.904 113.176V113.185V113.195V113.208C240.906 113.237 240.903 113.265 240.897 113.293L240.885 113.34C240.861 113.399 240.82 113.449 240.767 113.484L240.721 113.505C240.663 113.36 240.499 112.972 240.721 113.505L240.673 113.52C240.64 113.526 240.606 113.526 240.572 113.52L240.524 113.511C239.76 113.212 230.109 91.5668 202.972 75.7255C187.521 66.7641 170.349 63.1721 161.269 63.6881C154.307 64.1777 147.618 66.5955 141.952 70.6708C139.588 72.279 137.326 74.0312 135.177 75.9175C126.891 83.7575 105.184 113.251 103.231 116.483C99.8974 122.193 98.6534 126.319 100.6 132.549C100.6 133.075 105.148 137.117 106.164 138.185C106.481 138.552 106.716 138.872 106.54 139.335C105.148 140.666 103.876 142.117 102.739 143.671C97.0734 151.137 84.8081 170.5 83.5041 175.315C96.9107 181.772 113.603 187.269 137.085 190.573C149.066 192.26 161.152 193.093 173.251 193.065C176.691 179.545 177.185 162.099 177.391 161.465C177.68 160.871 178.145 161.007 178.771 161.065C183.993 161.605 189.268 161.227 194.36 159.949C197.481 159.161 197.58 158.749 198.139 159.328C198.005 159.417 218.975 185.132 218.975 185.355L220.388 185.059L223.411 184.424C218.437 145.52 218.72 147.031 219.001 146.649Z" fill="#212121"/>
<path fill-rule="evenodd" clip-rule="evenodd" d="M239.366 113.38C239.672 112.709 240.028 112.062 240.432 111.444C240.474 111.401 240.527 111.371 240.586 111.357L240.947 111.576L240.728 111.94L240.791 111.915L240.832 111.888L240.859 111.867L240.874 111.849L240.884 111.836L240.896 111.82L240.888 111.832L240.9 111.817L240.892 111.841V111.833C240.862 111.911 240.803 112.208 240.687 112.748C239.96 116.168 238.903 119.509 237.531 122.724L237.187 122.965L236.948 122.619C237.226 119.425 238.043 116.301 239.366 113.38Z" fill="white"/>
<path fill-rule="evenodd" clip-rule="evenodd" d="M217.798 107.213C218.307 118.43 219.544 139.56 221.308 150.601C221.568 152.164 221.676 152.444 221.628 152.309V152.321C221.541 152.13 221.414 152.16 221.267 152.146L221.64 152.346L221.439 152.72L221.394 152.729C221.332 152.738 221.27 152.728 221.215 152.7C220.691 151.347 220.309 149.943 220.075 148.512C217.395 135.892 216.855 120.317 217.198 107.301C217.198 107.168 217.158 107.265 217.496 106.918L217.798 107.213Z" fill="white"/>
<path fill-rule="evenodd" clip-rule="evenodd" d="M151.067 165.722C156.163 167.121 156.035 167.089 156.232 167.425C156.344 167.681 156.377 167.965 156.325 168.24C155.925 171.966 146.325 193.645 144.803 197.08C144.128 198.586 139.001 210.053 137.869 211.229C135.215 213.66 108.776 207.66 105.279 206.849C99.3427 205.446 70.0694 198.457 69.3734 192.409C68.8 187.476 92.852 152.612 94.1427 151.169C94.1926 151.115 94.2595 151.081 94.332 151.07C94.3608 151.066 94.39 151.066 94.4187 151.07C96.8307 151.421 142.481 163.38 151.067 165.722ZM70.6094 192.225V192.237V192.264C72.736 200.13 126.564 210.177 134.673 210.333C135.402 210.4 136.137 210.335 136.843 210.142C139.776 205.446 153.585 174.093 154.896 168.336C154.949 168.038 99.0414 152.804 94.48 151.693C92.0254 154.886 70.6094 187.372 70.6094 192.225Z" fill="#212121"/>
<path fill-rule="evenodd" clip-rule="evenodd" d="M147.6 165.467C152.452 166.8 155.6 167.68 155.628 167.751C156.436 169.691 138.694 209.789 137.298 210.735C136.464 211.297 132.92 211.135 127.858 210.439C130.296 203.205 133.115 196.105 136.304 189.169C137.45 186.568 142.958 174.589 147.6 165.467Z" fill="white"/>
<path fill-rule="evenodd" clip-rule="evenodd" d="M147.625 165.177L147.677 165.187C147.64 165.32 147.635 165.343 147.677 165.187C148.435 165.379 151.776 166.244 153.256 166.639C156.777 167.572 155.656 167.385 155.977 167.515C156.093 167.775 156.119 168.067 156.051 168.344C155.176 173.885 141.828 204.424 138.851 209.677C137.973 211.411 137.66 211.633 136.209 211.777C134.218 211.854 132.224 211.76 130.249 211.496C127.489 211.181 127.583 211.185 127.343 210.976C127.22 210.845 127.144 210.677 127.126 210.499C127.108 210.321 127.149 210.141 127.243 209.988C129.305 204.189 130.541 200.58 133.227 194.455C137.824 183.969 147.021 165.557 147.437 165.236C147.492 165.196 147.558 165.175 147.625 165.177ZM132.039 201.057C130.984 203.88 131.128 203.407 128.86 209.829C130.293 210.02 135.423 210.629 136.784 210.167C137.795 209.843 155.213 170.815 155.213 168.056C153.94 167.629 149.067 166.216 147.747 165.833C142.841 176.048 135.803 191.42 132.039 201.057Z" fill="#212121"/>
<path fill-rule="evenodd" clip-rule="evenodd" d="M168.95 63.5427C168.95 63.5427 179.911 71.7 175.431 88.728C160.718 144.648 145.948 171.956 145.948 171.956L153.443 173.539C153.443 173.539 160.543 157.728 162.671 152.205C164.538 147.347 176.382 115.611 182.512 87.5627C183.395 83.4595 183.29 79.2055 182.207 75.1506C181.125 71.0957 179.095 67.3558 176.284 64.2387C176.284 64.2387 171.131 62.4627 168.95 63.5427Z" fill="white"/>
<path fill-rule="evenodd" clip-rule="evenodd" d="M179.486 67.8586C183.047 73.4371 184.377 80.1517 183.212 86.6666C181.904 94.9706 173.018 127.635 163.028 153.313C158.2 165.128 153.92 173.951 154.058 173.951C153.607 174.515 153.934 174.4 145.791 172.677C145.626 172.643 145.478 172.554 145.371 172.424C145.264 172.295 145.205 172.132 145.203 171.964C145.302 170.868 155.907 153.496 170.743 103.539C173.247 94.8866 175.276 88.0292 175.822 84.2932C176.556 79.4176 175.781 74.4342 173.6 70.0119C172.418 67.634 170.773 65.5155 168.763 63.7799L168.726 63.7466C168.692 63.7101 168.667 63.6655 168.655 63.617C168.642 63.5685 168.642 63.5177 168.655 63.4692L168.67 63.4226C168.699 63.3635 168.746 63.3147 168.803 63.2826C169.127 63.1266 169.472 63.0205 169.827 62.9679C172.087 62.8571 174.347 63.1933 176.476 63.9572C177.609 65.1526 178.617 66.4597 179.486 67.8586ZM169.547 63.6412C176.758 70.1226 178.168 79.4479 175.908 88.8532C175.868 88.9866 163.194 140.207 147.055 171.432C152.804 172.645 151.816 172.467 151.956 172.467L153.011 172.689C159.011 159.129 160.53 155.889 163.982 146.581C171.155 127.244 177.172 107.498 182 87.4466C182.897 83.4321 182.829 79.2621 181.802 75.279C180.775 71.2959 178.818 67.6132 176.091 64.5332C174.296 63.9532 171.368 63.1999 169.547 63.6412Z" fill="#212121"/>
<path fill-rule="evenodd" clip-rule="evenodd" d="M100.089 135.271C100.551 134.665 101.177 133.736 101.643 134.267C101.7 134.343 101.727 134.438 101.717 134.533L101.451 134.863C101.059 134.548 101.792 135.329 95.6293 144.547C94.2373 146.617 92.8453 148.304 92.5626 148.777L92.1559 148.892L92.0439 148.492C92.7026 147.233 93.5999 144.229 100.089 135.271ZM101.117 134.587V134.572V134.592V134.579V134.597L101.125 134.611V134.604L101.133 134.619L101.141 134.633L101.152 134.649L101.164 134.665L101.179 134.681L101.195 134.697L101.213 134.713H101.205L101.228 134.728L101.251 134.743L101.273 134.755L101.296 134.765L101.323 134.773H101.348L101.177 134.632V134.619V134.611V134.621V134.605L101.117 134.587Z" fill="#212121"/>
<path fill-rule="evenodd" clip-rule="evenodd" d="M135.539 190.698C107.242 190.774 79.1484 176.423 77.7804 174.396C76.5137 172.518 90.839 149.044 92.2297 148.463C95.1404 147.246 149.679 161.396 150.298 162.111C151.084 163.011 139.803 190.686 135.539 190.698Z" fill="white"/>
<path fill-rule="evenodd" clip-rule="evenodd" d="M92.889 147.647C99.9743 147.705 148.764 160.469 150.592 161.592C151.216 162.013 150.845 162.98 150.49 164.184C147.806 171.876 144.364 179.283 140.216 186.295C139.294 187.692 137.212 190.993 135.542 190.993C119.942 191.167 103.189 187.036 88.7263 180.993C84.9902 179.492 81.3943 177.662 77.981 175.527C77.4823 175.152 77.1396 174.895 77.0156 174.327C77.065 173.193 77.356 172.084 77.869 171.072C81.4816 163.511 85.6928 156.25 90.4623 149.36C91.397 148.12 91.641 147.637 92.889 147.647ZM92.5449 149.147C90.7956 150.759 78.8316 170.193 78.4116 173.963C78.4116 175.963 109.041 190.221 135.537 190.397C139.228 190.301 149.045 166.512 149.725 162.503C144.814 160.8 92.5449 147.655 92.5449 149.147Z" fill="#212121"/>
<path fill-rule="evenodd" clip-rule="evenodd" d="M107.352 180.637C105.45 182.934 103.862 185.474 102.631 188.189C102.602 188.649 108.382 190.436 109.048 190.116C110.728 187.684 112.269 185.159 113.666 182.553C113.45 182.099 108.747 180.252 107.352 180.637Z" fill="white"/>
<path fill-rule="evenodd" clip-rule="evenodd" d="M114.307 182.6C113.024 185.291 111.533 187.876 109.845 190.333C109.756 190.493 109.628 190.627 109.473 190.724C109.318 190.821 109.141 190.877 108.959 190.888C106.767 190.64 104.631 190.03 102.639 189.083C101.493 188.447 101.944 187.777 102.672 186.457C103.885 184.432 105.265 182.51 106.797 180.713C106.95 180.5 107.177 180.351 107.435 180.297V180.307C108.775 179.992 112.427 181.093 113.644 181.749C114.031 181.961 114.28 182.159 114.307 182.6ZM103.432 187.921C105.12 188.614 106.882 189.112 108.683 189.408C109.569 188.167 111.911 184.275 112.849 182.723C111.689 182.101 108.687 180.752 107.472 180.915C105.944 183.141 104.593 185.484 103.432 187.921ZM113.171 182.936L113.152 182.921L113.163 182.935L113.152 182.923L113.173 182.945V182.937L113.192 182.952L113.171 182.936ZM107.461 180.919H107.445H107.439L107.457 180.912L107.461 180.919ZM107.435 180.311V180.301C107.256 180.357 107.299 180.336 107.435 180.309V180.311Z" fill="#212121"/>
<path fill-rule="evenodd" clip-rule="evenodd" d="M164.482 96.2519C162.378 101.633 159.865 106.845 156.964 111.843C150.564 122.812 147.066 124.993 146.418 125.724V125.717L146.395 125.743L146.406 125.729L146.395 125.744L146.403 125.731V125.72V125.707V125.691L146.411 125.669L146.419 125.644V125.612C146.423 125.554 146.411 125.497 146.386 125.445L146.36 125.405L146.315 125.827L145.894 125.784C145.539 125.337 146.222 125.353 149.338 121.065C151.674 117.767 154.627 112.992 156.531 109.54C156.664 109.407 163.864 96.0959 163.936 95.9613L164.336 95.8159L164.482 96.2519Z" fill="white"/>
<path fill-rule="evenodd" clip-rule="evenodd" d="M202.469 165.941L202.398 166.356C201.862 166.798 201.299 167.207 200.713 167.581C195.522 170.853 186.877 173.04 177.361 171.723L177.081 171.404L177.402 171.125C184.694 171.069 193.725 169.901 200.289 166.818C202.466 165.82 201.674 165.815 202.469 165.941Z" fill="#212121"/>
<path fill-rule="evenodd" clip-rule="evenodd" d="M181.466 71.5186C182.674 72.5146 188.305 77.3252 189.289 77.7639C190.622 78.3586 195.092 79.0559 195.49 76.3692C200.024 82.1026 202.069 89.2679 203.738 96.6359C207.205 111.952 204.316 127.528 201.386 142.769C200.273 148.579 199.509 154.56 197.969 160.236L197.958 160.289L197.558 159.8C191.343 161.834 184.762 162.506 178.264 161.771C177.66 149.009 184.044 134.652 186.784 107.16C187.554 99.4146 189.15 91.0879 188.025 83.4266C187.629 80.7052 185.906 78.7306 181.466 71.5186Z" fill="white"/>
<path fill-rule="evenodd" clip-rule="evenodd" d="M181.613 71.2628C182.585 71.9295 187.641 76.3842 189.284 77.3308C190.314 77.9375 193.454 78.2228 194.445 77.3562C194.627 77.225 194.776 77.0539 194.881 76.8562C195.132 76.4388 194.928 76.1082 195.377 75.9468C195.768 75.8762 195.892 76.1668 196.152 76.5068C200.89 82.5362 203.232 91.1615 204.776 98.6802C207.586 112.347 204.946 128.105 202.376 141.48C200.83 149.72 200.085 155.355 198.724 160.299C198.617 160.68 198.562 160.845 198.172 161.003C198.03 161.045 197.879 161.045 197.737 161.001C197.596 160.957 197.471 160.872 197.378 160.756C197.06 160.356 190.537 163.775 178.192 162.511C178.036 162.494 177.889 162.428 177.773 162.322C177.656 162.217 177.576 162.078 177.544 161.924C177.457 160.202 177.482 158.475 177.618 156.756C178.317 146.547 182.905 133.64 186.004 108.976C187.098 99.1695 188.502 91.7588 187.756 84.5628C187.703 83.3078 187.385 82.0782 186.822 80.9548C185.269 77.9028 181.181 71.8988 181.181 71.4882C181.185 71.4211 181.213 71.3576 181.259 71.3088C181.306 71.2601 181.368 71.2292 181.434 71.2215C181.497 71.2171 181.559 71.2315 181.613 71.2628ZM182.91 73.2468C184.707 75.851 186.354 78.5554 187.844 81.3468C189.366 84.6988 188.833 93.2362 188.444 97.1922C187.191 112.447 184.869 127.596 181.493 142.525C180.198 148.428 178.818 155.028 178.981 161.099C185.233 161.747 191.552 161.054 197.514 159.065C198.666 154.327 198.968 152.201 200.072 145.929C202.222 133.725 205.38 120.539 204.521 106.767C203.905 96.9242 200.893 86.5722 198.033 81.1508C197.324 79.8079 196.522 78.5159 195.633 77.2842C194.892 78.6242 193.042 78.8095 191.51 78.6735C189.121 78.4202 188.678 77.9748 185.558 75.3735C182.346 72.7015 182.652 72.8482 182.91 73.2468Z" fill="#212121"/>
<path fill-rule="evenodd" clip-rule="evenodd" d="M180.267 70.043C182.026 71.9376 187.64 80.735 188.034 83.4283C189.159 91.0856 187.563 99.4123 186.792 107.162C185.992 115.22 184.659 123.203 183.11 131.126C181.768 123.459 179.13 111.392 177.978 105.68C178.392 104.19 178.798 102.693 179.196 101.191C181.492 99.5176 184.814 97.0496 184.731 96.791C184.679 96.6203 182.707 95.3243 181.012 94.0643C181.546 91.883 182.047 89.715 182.518 87.5603C183.834 81.6374 183.038 75.4406 180.267 70.043Z" fill="white"/>
<path fill-rule="evenodd" clip-rule="evenodd" d="M180.6 69.9651C182.614 72.2678 187.89 80.2505 188.508 83.2478C189.574 90.8918 188.656 96.6451 187.588 106.138C186.755 114.655 185.471 123.122 183.741 131.502C183.652 131.651 183.514 131.764 183.351 131.822C183.187 131.879 183.009 131.877 182.846 131.817C182.238 131.529 182.553 131.817 181.084 124.426C176.802 102.766 176.94 106.769 177.75 103.809C177.964 102.783 178.254 101.775 178.618 100.792C178.773 100.602 178.593 100.764 180.392 99.4585C180.705 99.2265 183.434 97.2145 183.794 96.8518C183.445 96.5851 183.652 96.7691 180.806 94.6731C180.524 94.4571 180.362 94.3251 180.422 93.9238C182.414 85.8611 184.176 80.8171 180.769 71.9065C179.969 69.9771 179.854 70.1025 180.038 69.8545C180.249 69.6518 180.4 69.7518 180.6 69.9651ZM183.118 127.098C185.118 116.29 185.597 111.508 186.294 105.254C186.872 100.064 188.258 91.8065 187.748 85.6411C187.582 82.9811 187.398 82.4011 185.624 78.9825C184.29 76.5091 182.678 73.9158 181.721 72.5185C181.721 72.3851 182.366 74.3211 182.408 74.4558C183.47 77.8334 183.828 81.3931 183.458 84.9145C183.184 87.3931 181.736 93.6691 181.688 93.8038C182.805 94.6038 184.754 95.9211 185.012 96.1571C185.106 96.214 185.186 96.2907 185.247 96.3818C185.308 96.4729 185.349 96.5763 185.366 96.6847C185.383 96.7931 185.376 96.9039 185.346 97.0095C185.316 97.115 185.263 97.2127 185.192 97.2958C183.474 98.8258 181.676 100.264 179.806 101.605L179.716 101.93C179.46 102.928 178.946 104.812 178.702 105.701C178.844 105.701 182.57 124.252 183.118 127.098Z" fill="#212121"/>
<path fill-rule="evenodd" clip-rule="evenodd" d="M124.083 315.648L124.124 315.677C125.806 316.724 127.373 317.944 128.8 319.317C130.453 320.462 131.931 321.842 133.187 323.412C133.474 323.824 133.666 324.079 133.392 324.511C132.459 325.697 124.859 332.931 123.371 334.207C122.979 334.517 122.678 334.808 122.156 334.543C119.339 332.02 116.684 329.322 114.207 326.464C113.635 325.721 113.967 325.413 116.503 322.78C118.094 321.132 122.136 317.18 123.643 315.755C123.78 315.627 123.88 315.545 124.083 315.648ZM115.467 325.867C116.331 326.92 120.888 331.425 122.534 332.968C124.659 331.112 131.755 324.268 132.011 324.027C130.935 322.582 129.672 321.287 128.255 320.175C126.927 318.774 125.49 317.481 123.958 316.308C123.264 317.067 116.134 324.964 115.467 325.867ZM115.263 326.148V326.14V326.149V326.135V326.148Z" fill="#212121"/>
<path fill-rule="evenodd" clip-rule="evenodd" d="M203.106 135.592C202.709 138.408 203.155 141.279 204.388 143.843C206.974 149.879 213.272 157.011 214.764 159.016C218.842 164.3 221.769 172.845 223.398 179.455C223.834 181.154 224.157 182.88 224.364 184.623C224.345 184.756 224.364 184.907 224.177 185.023L223.768 184.904L223.886 184.497L223.853 184.519C223.806 184.555 223.772 184.605 223.757 184.663V184.677V184.664V184.675V184.6C222.669 179.877 221.189 175.253 219.333 170.776C215.857 162.717 215.002 161.675 211.932 157.843C207.42 152.128 200.946 143.893 202.384 136.175C202.544 135.315 202.482 135.508 202.882 135.241L203.106 135.592Z" fill="#212121"/>
<path fill-rule="evenodd" clip-rule="evenodd" d="M116.283 323.637C112.8 325.794 109.438 328.14 106.213 330.667C105.47 331.314 104.906 332.14 104.573 333.067C104.294 335.716 129.691 362.888 131.835 364.821C132.409 365.34 133.475 366.253 134.302 365.888C137.769 364.368 136.378 361.328 135.369 358.339C133.126 351.693 125.146 331.929 124.969 331.871C122.604 331.058 120.506 329.615 118.902 327.697C117.297 325.752 116.757 323.867 116.283 323.637Z" fill="black"/>
<path fill-rule="evenodd" clip-rule="evenodd" d="M130.437 343.489C131.514 346.14 136.72 358.981 137.174 361.856C137.4 362.755 137.3 363.705 136.893 364.537C136.485 365.37 135.797 366.032 134.949 366.406C133.42 367.241 132.104 366.158 130.861 364.916C126.808 360.862 106.678 339.183 104.328 334.081C103.906 333.191 103.928 332.827 104.594 331.783C105.698 330.338 107.072 329.123 108.641 328.205C111.192 326.452 113.514 324.996 116.128 323.384C116.846 323.013 117.26 325.181 119.262 327.539C120.799 329.284 122.764 330.598 124.964 331.351C125.358 331.492 125.098 330.456 130.437 343.489ZM106.6 330.975C105.961 331.564 105.452 332.279 105.105 333.076V333.093V333.101V333.112C106.193 336.701 129.238 361.184 131.461 363.41C132.088 364.153 132.855 364.763 133.72 365.206L133.78 365.218H133.802H133.821H133.832H133.85H133.858H133.933H133.948H133.966H133.978C134.442 365.018 134.864 364.73 135.22 364.372C135.274 364.317 135.325 364.238 135.365 364.193L135.376 364.17L135.39 364.156C135.636 363.554 135.752 362.906 135.731 362.256C135.71 361.606 135.552 360.968 135.268 360.382C133.032 353.656 125.594 334.54 124.601 332.272C118.172 329.76 116.909 324.805 116.234 324.015C112.874 326.121 109.655 328.446 106.6 330.975ZM105.101 333.117V333.129V333.113V333.117Z" fill="#212121"/>
<path fill-rule="evenodd" clip-rule="evenodd" d="M202.638 166.133C214.176 180.533 207.946 172.791 211.488 177.375C240.171 214.433 251.852 228.227 263.664 252.975C269.798 265.837 264.342 287.495 260.455 303.815C257.243 317.325 251.407 334.167 251.306 334.241C250.88 334.553 230.772 334.036 229.075 331.728C226.275 327.909 228.267 277.408 228.267 277.408L201.344 248.681C201.344 248.681 203.856 275.367 195.999 286.257C171.715 319.932 133.646 329.741 133.646 329.741C133.646 329.741 120.464 317.341 119.003 315.671C118.131 314.676 150.115 271.196 157.948 262.845C152.615 250.773 143.015 236.643 136.195 211.027C136.579 211.015 136.956 210.917 137.298 210.74C137.935 210.309 141.956 201.776 146.071 192.419C155.292 193.427 164.565 193.889 173.84 193.801C175.584 186.472 176.765 179.02 177.372 171.511C188.326 171.983 197.114 169.497 202.638 166.133Z" fill="white"/>
<path fill-rule="evenodd" clip-rule="evenodd" d="M248.827 226C254.267 233.965 259.115 242.317 263.333 250.991C265.394 254.832 266.592 259.077 266.844 263.428C267.18 268.299 267.007 273.192 266.329 278.027C263.423 296.563 258.85 314.8 252.664 332.514C251.893 334.706 252.011 334.899 251.064 334.979C248.408 335.164 230.012 334.731 228.439 332.032C225.688 327.944 227.336 282.895 227.525 277.948C227.536 277.571 229.063 279.316 213.431 262.648C201.288 249.699 202.231 250.648 202.246 250.782C202.791 260.092 202.551 274.538 198.668 283.031C197.468 285.964 194.235 289.955 192.027 292.587C176.87 310.156 157.117 323.153 134.984 330.12C133.736 330.49 133.55 330.594 133.155 330.27C130.088 327.387 126.031 323.538 122.551 320.192C118.17 315.955 118.316 316.067 118.27 315.659C118.27 312.803 149.664 271.039 157.178 262.714C153.288 254 148.511 246.558 142.554 231.959C139.832 225.144 137.531 218.169 135.663 211.074C135.663 210.3 136.375 210.586 136.982 210.302C137.695 210.015 145.61 192.22 145.707 192.087C146.131 191.676 146.023 192.154 157.618 192.899C164.168 193.312 169.751 193.432 173.512 193.38C174.815 188 175.788 182.546 176.427 177.047C177.128 171.096 176.888 171.387 177.216 171.18C177.735 170.966 187.728 172.215 198.283 167.97C202.334 166.292 202.443 165.599 202.841 165.906L202.875 165.94C202.598 166.162 202.608 166.158 202.875 165.94C209.4 174.02 239.976 212.827 248.827 226ZM186.791 171.515C183.776 171.878 180.738 172.004 177.704 171.892C177.118 179.186 175.991 186.427 174.331 193.554C174.248 193.907 174.252 194.076 173.982 194.2C169.889 194.379 165.789 194.328 161.702 194.046C149.371 193.512 146.328 192.732 146.328 193.056C143.724 199.056 141.61 203.59 139.62 207.711C137.978 211.004 137.808 211.266 136.876 211.471C138.628 217.969 140.766 224.356 143.276 230.6C149.676 246.366 158.61 261.32 158.61 262.899C158.488 263.606 158.494 262.431 146.226 278.483C141.09 285.192 124.17 307.816 119.799 315.46C120.531 316.362 133.716 328.794 133.852 328.927C144.306 326.139 160.99 318.107 173.435 308.354C182.768 301.179 191.336 291.923 195.491 285.698C200.614 278.654 201.167 263.626 200.943 254.93C200.776 248.546 200.436 248.804 200.727 248.28C200.815 248.142 200.947 248.037 201.102 247.983C201.256 247.928 201.425 247.927 201.58 247.979C201.884 248.112 200.89 247.112 214.612 261.75C229.946 278.115 228.904 276.895 229.002 277.315C229.002 277.448 227.068 328.218 229.657 331.315H229.665V331.324H229.674C230.068 331.594 230.509 331.79 230.973 331.902C235.24 333.18 247.572 333.751 250.804 333.59C251.396 331.99 252.983 327.196 253.54 325.456C256.885 315.268 259.709 304.916 262 294.44C264.563 282.992 268.34 264.904 263.524 254.04C262.365 251.424 260.076 246.955 258.773 244.468C253.642 234.92 247.818 225.76 241.349 217.062C233.835 206.736 209.903 175.747 202.562 166.522C197.707 169.26 192.337 170.96 186.791 171.516V171.515Z" fill="#212121"/>
<path fill-rule="evenodd" clip-rule="evenodd" d="M199.528 210.877C202.062 226.463 201.806 250.429 201.806 249.436H201.728L201.802 249.548L201.787 249.597C201.772 249.629 201.753 249.658 201.731 249.685L201.694 249.721L201.65 249.749C201.619 249.765 201.586 249.776 201.552 249.783H201.5C201.208 249.749 201.212 249.541 201.187 249.26C199.639 231.361 198.948 211.081 198.94 210.931L199.207 210.605L199.528 210.877Z" fill="#212121"/>
<path fill-rule="evenodd" clip-rule="evenodd" d="M184.87 133.765C184.908 133.799 184.737 134.107 184.721 134.155C184.588 134.655 180.245 157.897 180.588 159.149C181.534 162.707 192.04 164.349 193.576 161.725C194.334 160.436 202.444 136.944 202.166 136.699C201.889 136.453 185.068 133.344 185.22 133.387" fill="white"/>
<path fill-rule="evenodd" clip-rule="evenodd" d="M184.58 133.741V133.752V133.741V133.753V133.776C184.581 133.815 184.589 133.853 184.603 133.889C184.684 134.039 184.654 134.015 184.667 133.549L184.976 133.557L184.968 133.547L184.946 133.503C184.933 133.472 184.926 133.44 184.923 133.407V133.356C184.93 133.324 184.939 133.292 184.95 133.26L184.976 133.217C184.997 133.191 185.021 133.167 185.047 133.147C185.283 132.999 196.202 134.915 196.738 135.013C202.77 136.08 202.547 136.044 202.779 136.513C202.826 136.646 202.84 136.788 202.82 136.928C202.8 137.067 202.746 137.2 202.663 137.313V137.323C202.663 138.901 195.472 158.885 194.71 160.987C194.194 162.281 193.966 162.853 192.462 163.376C189.142 164.491 181.456 163.109 180 159.612C179.838 159.144 179.807 158.901 180.059 157.043C180.811 151.36 184.282 134.56 184.442 134.056C184.463 134.016 184.575 133.789 184.587 133.753L184.58 133.741ZM185.247 133.68L185.255 133.599L185.151 133.652C185.22 133.836 185.134 133.997 185.018 134.236C185.018 134.369 181.258 156.444 181.258 158.988V158.995C181.924 161.444 189.051 162.959 191.976 161.963C192.35 161.866 192.683 161.65 192.923 161.348C193.247 161.153 201.414 137.615 201.368 137.215C201.368 137.151 201.368 137.167 201.376 137.121C196.716 136.011 185.015 133.679 185.247 133.68ZM202.6 137.401V137.413V137.397V137.401ZM202.6 137.401V137.392V137.401ZM201.888 137.259H201.904H201.888ZM185.01 134.267V134.256V134.267Z" fill="#212121"/>
<path d="M122.282 343.105C122.1 343.108 121.923 343.043 121.785 342.924C121.647 342.805 121.557 342.64 121.533 342.46C121.509 342.279 121.551 342.096 121.653 341.945C121.755 341.793 121.908 341.685 122.084 341.639C125.066 340.82 126.012 340.377 128.012 339.807C128.201 339.758 128.401 339.784 128.57 339.881C128.739 339.978 128.863 340.137 128.917 340.324C128.97 340.511 128.948 340.712 128.855 340.883C128.762 341.054 128.606 341.182 128.42 341.24C126.955 341.661 122.758 343.105 122.282 343.105Z" fill="white"/>
<path fill-rule="evenodd" clip-rule="evenodd" d="M186.748 129.292C185.308 130.77 184.252 132.578 183.672 134.559C183.596 134.873 199.78 138.559 202.944 138.805C203.579 138.855 203.325 134.155 202.873 133.412C202.435 132.697 186.748 129.292 186.748 129.292Z" fill="white"/>
<path fill-rule="evenodd" clip-rule="evenodd" d="M203.248 132.773C203.532 133.035 203.715 133.39 203.762 133.773C203.984 134.909 204.085 136.066 204.062 137.223C204.046 138.173 204.002 139.144 203.286 139.489C202.152 139.924 185.694 136.052 183.553 135.105C183.405 135.053 183.283 134.946 183.21 134.807C183.174 134.732 183.154 134.651 183.152 134.568C183.151 134.485 183.167 134.403 183.2 134.327C183.864 132.363 184.985 130.585 186.47 129.139C187.2 128.813 201.95 131.813 203.248 132.773ZM184.28 134.24C184.28 134.373 198.244 137.365 202.524 138.009C202.608 137.143 202.608 136.27 202.524 135.403C202.489 134.892 202.412 134.386 202.293 133.888C201.036 133.313 187.525 129.773 186.85 129.621C185.681 130.967 184.806 132.542 184.28 134.245V134.24Z" fill="#212121"/>
<path d="M125.067 347.992C126.292 347.471 129.296 346.311 130.232 345.816C130.407 345.724 130.611 345.705 130.8 345.763C130.989 345.822 131.147 345.953 131.24 346.127C131.332 346.302 131.351 346.507 131.292 346.696C131.234 346.885 131.103 347.043 130.928 347.135C129.88 347.688 127.091 348.751 125.651 349.364C125.469 349.442 125.264 349.444 125.08 349.37C124.897 349.296 124.75 349.152 124.673 348.97C124.595 348.788 124.593 348.583 124.667 348.4C124.741 348.216 124.885 348.07 125.067 347.992Z" fill="white"/>
<path fill-rule="evenodd" clip-rule="evenodd" d="M175.904 144.667C176.939 144.96 177.993 145.183 179.058 145.334C179.191 145.26 180.984 139.847 182.091 140.507C182.091 140.507 183.071 140.496 182.993 142.18C182.993 142.386 182.027 146.416 182.359 146.491C189.12 148.008 189.777 146.522 190.346 148.284C191.27 151.138 182.538 150.762 182.613 150.784C183.946 151.184 189.459 150.402 190.801 151.287C191.591 151.807 191.067 152.871 190.435 153.702C189.441 155.003 182.073 154.555 182.073 154.555C182.073 154.555 188.401 154.84 189.686 155.9C190.242 156.359 189.005 157.68 188.147 157.767C183.037 157.965 177.946 157.045 173.229 155.071" fill="white"/>
<path fill-rule="evenodd" clip-rule="evenodd" d="M182.109 153.828C183.443 153.901 188.72 154.036 189.82 153.268C189.835 153.259 189.82 153.261 189.843 153.251C190.152 152.901 190.362 152.475 190.451 152.017V151.997V151.981V151.971V151.964C189.479 151.285 184.956 151.817 182.984 151.62C182.399 151.549 182.173 151.487 181.963 151.115C181.888 150.948 181.878 150.759 181.934 150.585C181.991 150.411 182.11 150.265 182.268 150.173C183.285 150.04 184.31 149.993 185.335 150.032C186.363 149.967 189.051 149.737 189.661 148.915V148.905V148.895L189.669 148.885V148.868L189.677 148.859L189.692 148.825V148.817L189.7 148.801V148.792V148.784V148.776V148.767V148.748V148.739V148.683V148.671C189.677 148.481 189.611 148.298 189.507 148.137L189.499 148.129C188.955 147.863 187.316 148.236 183.152 147.339C181.859 147.057 181.541 147.111 181.743 145.623C181.841 144.88 182.423 142.308 182.463 142.168C182.487 141.905 182.461 141.639 182.388 141.385L182.38 141.359V141.345L182.372 141.321V141.309V141.299L182.364 141.287V141.267L182.356 141.257L182.348 141.239V141.231V141.223V141.215V141.207C182.331 141.181 182.3 141.149 182.277 141.123L182.265 141.115C182.161 141.052 182.18 141.065 182.145 141.053H182.153H182.131H182.139C182.084 141.052 182.03 141.041 181.979 141.021C182.133 141.021 181.681 140.444 179.943 144.455C179.151 146.256 179.769 145.959 176.045 145.029L175.977 145.015H175.985H175.963H175.971C175.985 145.016 175.998 145.016 176.012 145.015L176.049 145.007L176.108 144.983L175.708 144.864L175.827 144.464C176.855 144.599 177.875 144.791 178.883 145.039C179.375 143.8 180.356 140.787 181.503 140.136C181.66 140.048 181.838 140.006 182.017 140.015C182.246 140.023 182.471 140.082 182.674 140.187C182.878 140.292 183.056 140.441 183.195 140.623C183.383 140.888 183.506 141.194 183.552 141.516C183.711 142.26 183.499 142.615 183.076 145.215C183.064 145.305 182.979 145.92 182.979 146.035C184.614 146.375 186.274 146.579 187.943 146.645C189.299 146.688 190.393 146.54 190.924 147.727C191.105 148.025 191.2 148.367 191.197 148.716C191.194 149.065 191.095 149.406 190.91 149.701C190.742 149.956 190.525 150.176 190.272 150.347C190.84 150.417 191.359 150.704 191.721 151.147C191.85 151.334 191.939 151.546 191.983 151.768C192.028 151.991 192.026 152.221 191.979 152.443C191.802 153.141 191.463 153.787 190.991 154.331C190.781 154.538 190.532 154.701 190.257 154.808C189.439 155.153 189.313 154.957 189.701 155.152C189.922 155.254 190.122 155.397 190.291 155.572C191.179 156.56 189.557 158.301 188.279 158.429C183.144 158.546 178.046 157.533 173.345 155.463C173.151 155.379 173.229 155.481 173.021 155.015C173.48 154.817 173.372 154.832 173.561 154.904C177.449 156.34 181.54 157.15 185.681 157.304C186.534 157.324 187.386 157.286 188.233 157.191C188.327 157.161 188.417 157.119 188.5 157.067C188.777 156.901 189.012 156.672 189.187 156.4V156.391L189.195 156.38C187.143 155.768 185.018 155.431 182.877 155.379C182.211 155.34 181.439 155.433 181.411 154.579C181.42 154.41 181.489 154.25 181.603 154.126C181.718 154.002 181.873 153.922 182.04 153.9H182.173L182.109 153.828ZM189.176 156.203V156.192V156.209V156.203ZM182.903 146.277V146.289V146.273V146.277ZM182.903 146.277V146.285V146.273V146.277ZM178.941 144.98H178.952H178.941ZM181.896 140.944H181.904H181.896ZM181.896 140.944H181.908H181.896ZM181.896 140.944H181.912H181.9H181.915H181.9H181.912H181.896Z" fill="#212121"/>
<path fill-rule="evenodd" clip-rule="evenodd" d="M276.469 60.7013L276.546 60.6466C276.562 60.632 276.574 60.62 276.592 60.6067C276.6 60.6 276.614 60.5813 276.625 60.5707C276.679 60.2604 276.666 59.9423 276.588 59.6373V59.6186C276.572 59.5773 276.564 59.56 276.55 59.5293C276.55 59.52 276.489 59.4106 276.488 59.4066C275.61 58.6551 274.564 58.1264 273.438 57.8653C272.841 57.72 272.227 57.6563 271.613 57.676C270.738 57.678 269.876 57.8956 269.104 58.3095C268.333 58.7235 267.675 59.321 267.189 60.0493C266.493 61.1826 266.813 65.116 266.581 65.096C266.526 65.2693 266.601 65.0427 266.332 65.816C263.701 73.3107 263.957 73.0053 263.957 72.8707V72.8867V72.9V72.88V72.8613V72.8387C263.88 72.5507 263.886 72.892 263.868 73.1493L263.446 73.1187C263.4 73.0541 263.37 72.9792 263.359 72.9004C263.348 72.8217 263.357 72.7414 263.384 72.6667C263.481 71.7053 265.137 65.7333 265.369 64.916C265.578 64.184 265.076 61.1213 265.938 59.4093C266.738 58.0313 268.032 57.0085 269.557 56.548C270.755 56.167 272.028 56.0832 273.265 56.304C274.592 56.5734 275.858 57.0856 276.998 57.8146C277.423 58.1201 277.753 58.5388 277.951 59.0228C278.148 59.5068 278.206 60.0367 278.117 60.552C278.108 60.7671 278.055 60.9781 277.962 61.1724C277.87 61.3667 277.739 61.5402 277.577 61.6827C277.475 61.7764 277.364 61.8595 277.245 61.9307C275.612 62.5922 273.845 62.8554 272.09 62.6986C272.5 63.4504 272.807 64.2535 273.004 65.0866C273.408 66.6567 273.187 68.3222 272.389 69.7333L271.989 69.8573L271.865 69.4573C273.016 67.2373 272.069 64.4146 270.52 62.448C270.438 62.3595 270.383 62.2486 270.365 62.1294C270.346 62.0101 270.363 61.8879 270.413 61.7783C270.464 61.6688 270.546 61.5768 270.65 61.5142C270.753 61.4516 270.872 61.4211 270.993 61.4266C272.848 61.5303 274.705 61.2843 276.469 60.7013Z" fill="#212121"/>
<path fill-rule="evenodd" clip-rule="evenodd" d="M281.201 71.2708C281.076 72.2102 280.835 73.1305 280.485 74.0108C279.911 75.5265 278.904 76.8397 277.589 77.7868L277.171 77.8375C277.107 77.2802 277.078 77.5615 277.369 76.8775C277.993 75.4415 278.245 75.2268 279.166 73.4108C279.576 72.5721 280.072 71.7781 280.646 71.0415L281.038 70.8828L281.201 71.2708Z" fill="#212121"/>
<path fill-rule="evenodd" clip-rule="evenodd" d="M271.05 61.4879C272.241 61.5559 276.034 61.6305 276.841 60.7425V60.7345L276.856 60.7185V60.7105L276.864 60.7025V60.6879L276.872 60.6799V60.6652V60.6532V60.6639V60.6505L276.88 60.6385V60.6505L276.888 60.6239V60.6359V60.6092V60.6212L276.894 60.5945V60.6065C276.987 60.1595 276.943 59.6947 276.768 59.2732C276.676 59.1046 276.555 58.9534 276.41 58.8265C274.884 57.7158 273.022 57.1628 271.137 57.2599C270.214 57.3439 270.204 57.8612 276.041 39.0532C276.206 38.5265 276.198 38.1879 277.073 38.0745C280.056 37.7492 290.525 39.5185 294.273 42.3412C295.073 43.0079 295.2 43.1985 295.149 43.6959C294.616 46.1719 287.001 67.6492 285.634 70.9945C285.226 72.0025 285.308 72.4945 282.69 72.0612C279.463 71.4354 276.283 70.5822 273.176 69.5079C272.404 69.2412 271.76 69.1759 271.893 68.4105C272.59 66.7052 271.67 63.8159 270.51 62.3745C270.439 62.2863 270.396 62.1779 270.388 62.0643C270.38 61.9508 270.408 61.8376 270.467 61.7404C270.526 61.6432 270.614 61.5667 270.719 61.5215C270.823 61.4763 270.939 61.4645 271.05 61.4879ZM274.848 57.1492C275.567 57.4073 276.253 57.7488 276.893 58.1665C277.115 58.3365 277.306 58.5425 277.46 58.7759C277.679 59.1424 277.806 59.5568 277.829 59.9834C277.852 60.4099 277.771 60.8357 277.593 61.2239C276.881 62.4505 273.361 62.5652 272.002 62.5879C273.077 64.2394 273.531 66.2183 273.285 68.1732C275.469 68.8719 281.918 70.7412 284.174 70.7732C285.061 68.5492 286.974 63.1732 287.696 61.1212C289.829 55.0985 293.776 43.8092 293.629 43.6679C290.861 41.2679 280.414 39.0359 277.238 39.2679L277.19 39.4172H277.182C275.798 43.4772 272.704 52.5585 271.373 56.6305C272.556 56.5403 273.743 56.7175 274.848 57.1492Z" fill="#212121"/>
<path fill-rule="evenodd" clip-rule="evenodd" d="M288.283 42.2398C289.656 42.6888 290.917 43.4303 291.976 44.4131C292.453 44.9024 292.279 45.1691 291.843 46.5464C289.905 52.4878 285.405 65.0411 284.072 68.3891C283.828 68.9611 283.771 69.2904 283.113 69.3824C281.283 69.6064 275 67.6744 272.548 66.6704C272.422 66.6352 272.31 66.5615 272.228 66.4597C272.146 66.3579 272.097 66.233 272.089 66.1024C272.028 65.6618 271.927 65.2276 271.788 64.8051C271.04 62.7864 270.832 63.2051 271.047 62.5131C271.381 61.3891 271.383 61.5144 272.365 61.5251C273.728 61.5912 275.092 61.4285 276.401 61.0438C276.591 60.9756 276.759 60.8577 276.887 60.7024V60.7104C276.897 60.6958 276.897 60.6944 276.909 60.6758V60.6691V60.6598V60.6664L276.917 60.6464V60.6544L276.925 60.6344V60.6438V60.6224V60.6318V60.6104V60.6198L276.933 60.5984V60.6064C276.973 60.404 276.99 60.1979 276.985 59.9918C276.984 59.6829 276.895 59.3807 276.73 59.1196C276.565 58.8585 276.33 58.6488 276.052 58.5144C275.28 58.0663 274.458 57.7084 273.604 57.4478C273.071 57.2971 273.245 57.3691 273.133 57.2998C273.096 57.2669 273.068 57.2254 273.05 57.1789C273.033 57.1324 273.027 57.0823 273.033 57.0331L273.044 56.9851C273.087 56.8518 277.569 42.2211 277.977 41.2664C278.048 41.1568 278.143 41.064 278.253 40.9949C278.364 40.9258 278.489 40.8819 278.619 40.8664C279.785 40.734 280.963 40.7493 282.125 40.9118C282.277 40.9698 282.404 41.0759 282.489 41.2137C282.574 41.3515 282.611 41.5134 282.595 41.6744C282.525 42.4744 282.328 42.4371 282.555 42.4744C284.331 42.8011 286.439 43.4638 287.105 43.6531C287.241 42.9518 287.399 42.0584 288.283 42.2398ZM278.977 42.0331L278.944 42.1318H278.933C278.285 43.9411 274.857 53.5238 273.716 56.8478C274.175 56.9514 274.623 57.0941 275.057 57.2744C276.803 57.9824 277.936 58.5491 277.789 60.5184C277.788 60.6966 277.751 60.8726 277.678 61.0353C277.605 61.1981 277.5 61.344 277.368 61.4638C276.369 62.1088 275.21 62.4621 274.021 62.4838C271.888 62.6771 272.203 62.4451 272.107 62.7838C272.635 63.6645 273.017 64.6249 273.239 65.6278C276.301 66.7301 279.468 67.5165 282.691 67.9744C282.735 67.8411 289.224 50.1824 290.729 45.2304C290.729 45.2224 290.583 45.0971 290.576 45.0971C289.94 44.5977 289.24 44.1843 288.496 43.8678C288.478 44.3371 288.277 44.7809 287.937 45.1051C287.344 45.4531 287.375 45.0531 283.249 44.0131C281.337 43.5478 280.693 43.8571 281.163 42.1011C280.438 42.0146 279.706 41.9918 278.977 42.0331Z" fill="#212121"/>
<path fill-rule="evenodd" clip-rule="evenodd" d="M291.285 57.3988C291.315 57.2774 291.471 55.6108 290.576 55.1881C289.255 54.6992 287.85 54.4798 286.443 54.5428C284.745 54.4868 284.008 54.7601 283.501 56.6161C283.028 58.3494 286.383 58.9414 288.099 59.3721C290.04 59.8668 290.788 59.5108 291.285 57.3988Z" fill="white"/>
<path fill-rule="evenodd" clip-rule="evenodd" d="M291.568 57.5054C291.308 59.6081 290.343 60.1721 288.932 60.1228C287.926 60.0036 286.929 59.8187 285.947 59.5694C284.339 59.1361 282.528 58.3694 282.735 56.6961C282.874 55.9461 283.194 55.2415 283.668 54.6441C283.908 54.3927 284.194 54.1913 284.512 54.0514C284.83 53.9116 285.172 53.8361 285.519 53.8294C286.89 53.7893 288.261 53.9305 289.595 54.2494C291.248 54.7388 291.65 55.2161 291.66 56.8294C291.654 57.0574 291.623 57.284 291.568 57.5054ZM285.356 55.3054C285.205 55.3354 285.06 55.3928 284.928 55.4748C284.556 55.8791 284.305 56.3799 284.203 56.9201V56.9268V56.9441C284.205 56.9692 284.209 56.9941 284.214 57.0188L284.222 57.0401V57.0494C284.232 57.0775 284.246 57.1044 284.263 57.1294C284.711 57.5686 285.267 57.8814 285.875 58.0361C286.216 58.1694 288.874 58.9348 289.104 58.9774C289.344 59.0155 289.587 59.0186 289.827 58.9868C289.899 58.9716 289.968 58.9465 290.032 58.9121C290.515 58.5077 290.85 57.9542 290.983 57.3388C291.024 57.0028 290.86 55.9401 290.484 55.7014C288.812 55.2663 287.076 55.1322 285.356 55.3054Z" fill="#212121"/>
<path fill-rule="evenodd" clip-rule="evenodd" d="M288.644 66.5334C288.671 66.4228 288.815 64.9134 288.036 64.5335C286.889 64.0966 285.663 63.9036 284.436 63.9668C282.955 63.9241 282.314 64.1775 281.864 65.8588C281.447 67.4268 284.306 67.9374 285.864 68.3361C287.539 68.7721 288.2 68.4641 288.644 66.5334Z" fill="white"/>
<path fill-rule="evenodd" clip-rule="evenodd" d="M288.933 66.6412C288.614 68.5692 288.158 68.4412 288.133 68.6172C287.813 68.8427 287.446 68.9936 287.06 69.0586C286.674 69.1237 286.278 69.1013 285.901 68.9932C283.645 68.5785 280.662 67.9812 281.14 65.7292C281.466 64.4985 281.984 63.5958 283.177 63.3292C284.654 63.1682 286.148 63.3162 287.565 63.7638C288.382 64.0865 288.872 64.3585 289.002 65.3518C289.051 65.7825 289.027 66.2182 288.933 66.6412ZM284.164 64.6745C283.274 64.6745 283.15 64.8905 283.029 65.0305C282.811 65.3726 282.658 65.7524 282.578 66.1505V66.1772L282.59 66.2385V66.2465V66.2545L282.612 66.2985C282.975 66.6696 283.431 66.9367 283.932 67.0718C284.385 67.2385 286.428 67.8505 286.562 67.8865C286.878 67.9892 287.219 67.9826 287.53 67.8679C287.938 67.6559 288.258 66.7092 288.352 66.4798V66.4652C288.334 66.5985 288.362 66.2559 288.313 65.9678C288.282 65.658 288.173 65.361 287.997 65.1038C287.898 65.0065 287.872 65.0025 287.674 64.9372C286.522 64.681 285.338 64.5925 284.16 64.6745H284.164Z" fill="#212121"/>
<path fill-rule="evenodd" clip-rule="evenodd" d="M290.074 62.0425C290.104 61.9212 290.255 60.2545 289.238 59.8158C287.736 59.3059 286.156 59.0649 284.571 59.1038C282.668 59.0212 281.83 59.2732 281.284 61.1345C280.772 62.8878 284.658 63.5345 286.516 63.9692C288.639 64.4719 289.532 64.2065 290.074 62.0425Z" fill="white"/>
<path fill-rule="evenodd" clip-rule="evenodd" d="M289.108 64.4361C288.513 64.6961 287.858 64.7884 287.215 64.7028C285.375 64.5107 283.573 64.0493 281.867 63.3335C281.442 63.1653 281.082 62.8658 280.84 62.4787C280.597 62.0915 280.485 61.637 280.519 61.1815C280.672 60.421 281.027 59.7158 281.547 59.1401C282.395 58.1975 284.008 58.3615 285.185 58.4361C286.435 58.5161 288.835 58.7828 289.792 59.6028C290.079 59.9321 290.283 60.3254 290.386 60.7498C290.49 61.1741 290.49 61.617 290.387 62.0415C290.378 62.5132 290.257 62.9761 290.035 63.3923C289.813 63.8085 289.495 64.1662 289.108 64.4361ZM283.933 59.8001C283.651 59.7573 283.362 59.7891 283.096 59.8925C282.83 59.9959 282.595 60.1672 282.416 60.3895C282.226 60.6948 282.083 61.0264 281.989 61.3735V61.4255V61.4428V61.4548V61.4628C282.196 61.767 282.494 61.998 282.84 62.1228C284.434 62.7042 286.063 63.186 287.717 63.5655C288.037 63.6193 288.365 63.6066 288.68 63.5281C289.239 63.3388 289.593 62.4841 289.784 61.9281V61.9375C289.827 61.3752 289.659 60.8171 289.315 60.3708C288.588 59.8041 284.881 59.7908 283.933 59.8001Z" fill="#212121"/>
<path fill-rule="evenodd" clip-rule="evenodd" d="M183.283 45.4081C183.283 45.4081 178.763 37.4587 173.292 42.9774C172.839 43.5842 172.534 44.2888 172.402 45.0347C172.167 45.7659 172.097 46.54 172.196 47.3014C172.485 48.4764 173.082 49.553 173.926 50.4203C174.77 51.2875 175.83 51.9138 176.996 52.2347C177.638 52.3427 178.294 52.4921 178.916 52.6467C179.062 52.6827 179.631 52.5401 179.735 52.6467C179.839 52.7534 176.463 64.2161 175.83 64.8507C175.74 64.9414 184.496 75.6361 189.287 77.7654C190.831 78.4507 194.506 78.8814 195.198 77.1921C196.302 74.4814 192.596 69.3814 192.422 69.0334C192.747 66.9896 193.299 64.9887 194.07 63.0681C194.234 62.9001 194.948 62.9881 195.232 62.9347C196.398 62.7027 197.46 62.6947 198.66 62.5241C200.286 62.2921 201.843 61.3827 203.46 61.2214C205.91 60.9761 208.48 60.8814 210.452 59.3014C213.106 57.1801 212.647 54.1014 212.647 51.0734C212.715 50.2734 212.692 49.4684 212.58 48.6734C212.502 48.3641 212.01 48.0067 212.238 47.7814C212.498 47.5147 213.068 47.4694 213.4 47.3014C214.306 46.8494 215.979 45.0507 215.39 43.8734C214.888 42.5655 214.195 41.3393 213.334 40.2347C212.534 39.4347 211.306 38.3681 211.551 37.1494C212.192 33.9414 212.144 30.4827 212.786 27.2827C212.919 26.6067 213.624 24.5854 212.919 24.0614C211 22.6227 207.411 23.1041 205.238 23.3747C199.663 24.0721 194.375 24.9747 189.403 27.6267C187.952 28.2748 186.645 29.2075 185.56 30.3694C183.41 33.1307 182.903 45.7894 183.283 45.4081Z" fill="white"/>
<path fill-rule="evenodd" clip-rule="evenodd" d="M175.352 64.4283C176.773 60.7474 178.009 56.9973 179.053 53.1923C178.975 53.197 178.896 53.1925 178.819 53.1789C176.664 52.6856 175.433 52.6936 173.593 50.7923C172.685 49.8828 172.05 48.7373 171.76 47.4856C171.689 47.0573 171.674 46.6218 171.715 46.1896C171.783 45.5694 171.927 44.9599 172.144 44.3749C172.283 43.6831 172.627 43.0489 173.131 42.5549C176.569 39.3096 180.107 40.4829 182.864 44.2243C182.864 41.1803 183.316 34.8363 184.331 31.9816C184.691 30.598 185.562 29.4023 186.768 28.6349C189.482 26.832 192.463 25.4674 195.601 24.5909C198.812 23.6576 206.785 22.1709 210.157 22.4709C211.364 22.5228 212.527 22.9414 213.491 23.6709C214.284 24.5256 213.735 26.1936 213.505 27.2269C212.943 29.4856 212.809 35.0003 212.245 37.3603V37.3763V37.3923V37.4229C212.079 38.1189 213.943 39.7763 214.332 40.2883C214.927 41.1864 215.435 42.1397 215.848 43.1349C216.084 43.484 216.223 43.8902 216.248 44.311C216.274 44.7319 216.186 45.1518 215.993 45.5269C215.462 46.6718 214.534 47.5858 213.381 48.1003C212.997 48.2256 213.229 48.0603 213.319 48.5829C213.439 49.6898 213.467 50.8048 213.4 51.9163C213.613 53.8951 213.355 55.8963 212.647 57.7563C211.931 59.1634 210.737 60.2685 209.279 60.8723C206.535 62.0803 204.287 61.5709 201.896 62.3523C200.542 62.9224 199.107 63.2721 197.643 63.3883C196.832 63.4616 196.3 63.5016 195.583 63.6243C195.247 63.6922 194.904 63.7195 194.561 63.7056C194.004 65.3292 193.549 66.9863 193.2 68.6669C193.127 69.1269 193.323 68.7509 194.904 71.8269C195.62 73.1386 196.036 74.5926 196.123 76.0843C196.123 78.9603 193.488 79.4176 190.688 78.9109C188.814 78.4665 187.088 77.5398 185.683 76.2229C182.435 73.4208 179.436 70.3427 176.72 67.0229C175.347 65.3523 175.007 65.0229 175.277 64.5296C175.298 64.4933 175.323 64.4593 175.352 64.4283ZM182.94 45.4189C182.295 44.407 181.498 43.5008 180.577 42.7323C179.742 41.8947 178.611 41.4178 177.428 41.4038C176.246 41.3898 175.104 41.8399 174.249 42.6576C173.049 43.6696 173.229 43.9003 172.819 45.1723C172.123 47.3403 173.169 49.1656 174.928 50.6683C175.825 51.3951 176.925 51.8268 178.077 51.9043C179.264 52.1563 178.836 52.1256 179.359 52.0736C180.083 52.0083 180.067 52.2909 180.201 52.3576C180.365 52.6843 180.263 52.8696 180.052 53.7416C179.407 56.1229 177.588 62.5283 176.601 64.7843C176.499 65.0043 183.861 73.5016 188.292 76.4083C189.184 77.0405 190.219 77.441 191.304 77.5736C192.26 77.7069 193.779 77.7736 194.441 77.0776V77.0696L194.456 77.0536V77.0443V77.0363V77.0283L194.464 77.0189L194.475 76.9936L194.483 76.9843L194.493 76.9576L194.501 76.9483C194.734 76.1569 194.703 75.3115 194.415 74.5389C194.096 73.4917 193.652 72.487 193.092 71.5469C191.539 68.8963 191.525 69.4989 191.799 68.1269C192.155 66.2757 192.688 64.4629 193.391 62.7136C193.901 62.0469 194.591 62.2803 195.075 62.2069C195.075 62.0629 198.116 61.9656 199.495 61.5736C200.575 61.2616 201.508 60.8296 202.695 60.5829C204.625 60.1829 208.259 60.5336 210.472 58.2669C212.093 56.5923 211.939 54.2669 211.903 51.9336C211.968 50.9153 211.953 49.8936 211.859 48.8776C211.637 48.6236 211.489 48.3144 211.429 47.9829C211.365 47.0496 212.444 46.8869 213.055 46.6496C213.664 46.2875 214.169 45.774 214.521 45.1589C214.663 44.939 214.749 44.6877 214.771 44.4269V44.3976V44.3843V44.3563V44.3443V44.3309V44.3189V44.3083V44.2963V44.2856C214.724 44.1523 213.904 42.4189 213.828 42.2669C213.557 41.6838 213.194 41.1487 212.751 40.6829C211.912 39.8643 210.805 38.7723 210.805 37.5856C210.763 37.1389 211.04 36.6243 211.408 32.7856C211.524 31.5736 211.675 29.6896 211.916 28.2429C212.206 27.1128 212.418 25.9638 212.549 24.8043V24.7869V24.7696V24.7536V24.7389V24.7243V24.7109V24.6976V24.6843L212.537 24.6509V24.6416V24.6256V24.6176C210.925 23.5403 208.556 23.6843 206.459 23.8976C199.779 24.6309 192.443 25.7643 186.992 29.6856C186.253 30.1831 185.69 30.9006 185.381 31.7363C184.101 36.0868 183.478 40.6043 183.533 45.1389C183.572 45.2723 183.499 45.1549 183.585 45.2936L183.556 45.3096L183.581 45.2949C183.759 45.7123 183.029 45.9083 182.94 45.4189ZM175.359 64.4163L175.351 64.4243L175.359 64.4149V64.4163Z" fill="#212121"/>
<path fill-rule="evenodd" clip-rule="evenodd" d="M172.331 34.12C172.111 34.3387 171.499 35.7053 171.276 36.0413C170.709 36.7338 170.288 37.5345 170.039 38.3947C169.796 39.588 170.664 39.58 171.212 40.128C171.451 40.3653 170.97 41.664 170.903 41.9253C170.974 42.9188 171.342 43.868 171.958 44.6507C172.051 44.7453 173.139 43.16 173.322 42.9787C174.248 42.0476 175.437 41.4207 176.728 41.1813C180.062 40.3493 181.152 43.296 182.851 44.9973C183.219 45.7456 183.531 46.5201 183.784 47.3147C184.148 48.1037 184.562 48.8692 185.022 49.6067C185.346 50.2493 184.596 51.1787 184.835 51.8987C185.159 52.868 185.956 53.708 186.262 54.6253C186.438 55.1507 185.927 55.512 186.076 56.112C186.363 57.2613 187.507 58.112 187.995 59.0853C188.408 59.912 188.242 61.032 188.795 61.8733C190.046 63.455 191.667 64.7057 193.514 65.5158C195.361 66.3259 197.378 66.6707 199.39 66.52C202.215 66.048 205.082 65.4413 207.939 65.032C210.142 64.7187 212.882 64.616 214.383 62.616C214.916 61.908 215.14 60.972 215.62 60.2C216.144 59.5343 216.543 58.7789 216.798 57.9707C216.841 57.0511 216.736 56.1306 216.488 55.244C216.291 53.856 216.622 53.644 213.392 50.412C213.042 50.0627 213.28 49.188 212.896 48.8013C211.86 47.768 209.03 48.4013 207.69 48.5533C206.306 48.5243 204.932 48.7973 203.664 49.3533C203.094 49.6426 202.6 50.063 202.223 50.5801C201.846 51.0971 201.597 51.6961 201.496 52.328C201.324 53.1853 201.596 55.324 200.936 55.9827C200.727 56.1973 197.928 55.5827 197.098 56.416C196.098 56.6248 195.059 56.5167 194.124 56.1067C193.431 55.5867 193.07 54.6173 192.328 54.0627C191.88 53.7267 191.482 53.608 191.214 53.0707C190.983 52.6093 190.979 51.8933 190.655 51.46C190.315 51.0067 189.76 51 189.476 50.5267C189.086 49.8733 189.391 49.0027 189.291 48.2973C189.204 47.6947 188.65 47.2307 188.548 46.624C188.258 44.8907 188 43.0587 187.803 41.2907C187.714 40.4653 187.344 35.424 187.93 34.848C187.994 34.784 189.279 35.0667 189.476 35.0347C190.772 34.8187 192.026 34.4002 193.192 33.7947C194.28 33.1427 195.148 31.8267 196.167 31.3173C197.186 30.808 198.434 31.4093 199.514 31.1933C201.114 30.6537 202.635 29.9036 204.038 28.9627C204.895 28.5333 206.56 29.5147 207.32 29.7627C207.943 29.9693 209.702 28.8 209.987 29.0813C210.464 29.6205 211.088 30.0081 211.783 30.196C213.524 30.6307 216.554 29.2013 215.812 26.9747C215.638 26.452 214.672 26.1747 214.202 25.86C213.55 25.4253 212.578 25.816 211.91 25.984C210.639 26.3013 209.331 26.1973 208.131 26.5413C207.4 26.7493 206.636 26.7653 205.899 26.9133C204.155 27.2613 202.343 27.2733 200.574 27.4707C197.734 27.7853 194.938 28.4693 192.083 28.648C189.27 28.824 186.33 28.732 183.534 29.0813C182.202 29.3611 180.897 29.755 179.632 30.2587C178.954 30.433 178.291 30.6608 177.65 30.94C175.715 31.7026 173.918 32.7768 172.331 34.12Z" fill="#212121"/>
<path fill-rule="evenodd" clip-rule="evenodd" d="M213.6 48.5038C213.795 48.8584 213.899 49.2553 213.905 49.6598C213.946 50.2132 213.928 49.6772 216.078 52.2398C217.294 53.7972 216.888 53.5998 217.42 56.1945C217.978 58.9492 216.722 59.4812 215.953 61.1092C215.576 62.3566 214.798 63.4449 213.74 64.2052C211.576 65.5612 210.108 65.3345 205.12 66.1932C201.864 66.7718 199.688 67.2038 198.853 67.2598C196.851 67.2919 194.868 66.8679 193.055 66.0198C191.241 65.1718 189.644 63.922 188.385 62.3652C187.924 61.5057 187.639 60.5628 187.546 59.5918C187.218 58.6412 185.804 57.5105 185.556 56.4158C185.414 55.9387 185.462 55.4253 185.689 54.9825L185.696 54.9692L185.712 54.9185V54.9078V54.8985V54.8892V54.8812V54.8665C185.626 54.555 185.491 54.2593 185.312 53.9905C184.967 53.4621 184.66 52.9095 184.394 52.3372C183.944 51.3065 184.552 50.5012 184.552 49.9732V49.9572V49.9145V49.9078V49.8972V49.8878V49.8665L184.544 49.8505C184.081 49.0875 183.664 48.2977 183.296 47.4852C183.057 46.7539 182.78 46.0356 182.466 45.3332C180.733 43.3452 179.957 41.7332 178.152 41.5158C176.835 41.4892 175.541 41.861 174.44 42.5825C174.146 42.7912 173.869 43.023 173.612 43.2758C173.562 43.3252 172.617 44.5945 172.412 44.7958C171.798 45.4625 171.432 44.6958 171.021 43.8705C170.248 42.0425 170.488 42.1065 170.794 40.9972C171.036 40.1038 170.934 40.4105 170.19 39.8425C168.709 38.6945 170.66 36.5172 171.293 35.3492C171.413 35.1145 171.804 34.3358 171.953 34.1198H171.909C172.16 33.8532 172.149 33.8798 171.909 34.1198H171.953C172.753 32.9118 175.765 31.5025 176.765 31.0158C177.402 30.6565 178.077 30.369 178.777 30.1585C182.286 29.1065 181.74 28.7665 185.63 28.4958C188.964 28.2638 191.186 28.4132 194.545 27.9145C196.492 27.6198 197.953 27.3118 199.841 27.0505C202.317 26.7132 204.06 26.8012 207.604 26.0918C208.093 25.9514 208.591 25.8449 209.094 25.7732C209.938 25.6598 210.609 25.6465 211.438 25.4865C212.513 25.2558 213.59 24.7092 214.596 25.3905C215.075 25.6678 216.253 26.0572 216.437 26.8572C217.246 29.2385 214.363 31.2572 211.947 30.9238C211.104 30.7735 210.325 30.373 209.713 29.7745C208.713 30.1078 207.936 30.7185 206.97 30.3838C206.358 30.1452 204.938 29.4225 204.373 29.5932C203.768 29.8939 203.183 30.2333 202.621 30.6092C199.246 32.6518 198.538 31.7692 197.068 31.8358C196.268 31.8785 195.854 32.4225 194.761 33.4798C194.306 33.9496 193.775 34.3403 193.192 34.6358C192.122 35.1386 190.992 35.5042 189.83 35.7238C189.43 35.7998 189.486 35.8132 188.414 35.6398C188.299 36.9935 188.302 38.3546 188.422 39.7078C188.564 42.2972 189.294 46.4198 189.294 46.5545L189.301 46.5812L189.309 46.5945L189.317 46.6225V46.6372C189.465 47.2438 190.117 47.3545 190.044 48.9678C189.998 49.3196 190.002 49.6762 190.058 50.0265L190.066 50.0425V50.0572V50.0718V50.0865L190.074 50.0998V50.1132C190.082 50.1274 190.091 50.1412 190.1 50.1545L190.118 50.1745H190.126C190.368 50.4412 190.926 50.3918 191.441 51.3558C191.594 51.7718 191.72 52.1971 191.818 52.6292V52.6438L191.826 52.6585V52.6718C191.888 52.7772 191.826 52.7398 191.945 52.8732V52.8825L191.968 52.9078L191.978 52.9158L192.009 52.9478L192.02 52.9558V52.9625C192.268 53.1612 192.492 53.2638 192.788 53.4958C193.608 54.1385 193.91 55.0038 194.55 55.5158C195.271 55.7716 196.048 55.826 196.797 55.6732C197.96 55.2004 199.232 55.0645 200.468 55.2812C200.954 54.2305 199.624 50.0372 204.086 48.3265C205.244 48.0131 206.435 47.8394 207.634 47.8092C209.36 47.6185 212.553 46.9212 213.6 48.5038ZM182.84 44.2492C183.458 44.9358 183.308 44.5012 184.364 47.3505C185.05 48.7558 185.594 49.1385 185.653 49.9518C185.653 50.6185 185.348 51.1252 185.348 51.6025C185.499 52.0989 185.733 52.5661 186.041 52.9838C187.241 54.8412 186.869 54.9932 186.652 55.7732V55.7865V55.8105V55.8225V55.8332V55.8665V55.8758V55.8945V55.9038V55.9318V55.9425V55.9518C187.153 57.3558 188.093 57.7518 188.626 58.9692C188.8 59.8062 189.019 60.6332 189.282 61.4465C190.054 62.9132 193.282 65.3038 197.004 65.8545C199.49 66.1852 200.604 65.4132 207.857 64.3452C209.549 64.2658 211.21 63.8639 212.75 63.1612C214.332 62.2278 214.084 61.2172 215.393 59.2705C215.778 58.8413 216.033 58.3112 216.128 57.7422C216.222 57.1732 216.152 56.5891 215.927 56.0585C215.699 55.0012 215.77 54.8732 215.638 54.3038C215.615 54.1823 215.578 54.0638 215.528 53.9505C215.102 53.3151 214.623 52.7174 214.096 52.1638C212.74 50.7065 212.67 50.9145 212.496 50.0532C212.485 49.8079 212.451 49.5642 212.396 49.3252L212.388 49.3118C211.705 48.5958 208.577 49.2145 207.528 49.3198C206.627 49.3484 205.731 49.4622 204.852 49.6598C204.186 49.8837 203.581 50.2573 203.082 50.7518C201.662 52.1545 202.528 53.8945 201.926 55.7825C201.526 57.0012 200.726 56.7985 199.84 56.7372C196.633 56.7198 198.401 57.1465 196.46 57.2492C192.822 57.4198 193.109 55.5158 191.905 54.6678C191.558 54.4579 191.232 54.2136 190.933 53.9385C190.516 53.38 190.247 52.725 190.15 52.0345L190.136 52.0078V51.9958L190.128 51.9838V51.9732L190.121 51.9625L190.113 51.9452V51.9372L190.101 51.9172H190.093V51.9105H190.086V51.9038L190.057 51.8785C189.996 51.8314 189.931 51.7903 189.862 51.7558C189.414 51.5707 189.044 51.2331 188.82 50.8025C188.572 50.0428 188.503 49.2359 188.618 48.4452V48.4332V48.4238L188.61 48.4012V48.3892V48.3652L188.602 48.3518V48.3238C188.37 47.9406 188.163 47.5424 187.984 47.1318C187.781 46.5852 187.166 41.7985 187.104 40.9785C186.926 39.0782 186.915 37.166 187.07 35.2638C187.482 33.7598 188.004 34.1798 189.429 34.3465C190.46 34.1814 191.466 33.8857 192.422 33.4665C192.95 33.2284 193.427 32.8907 193.826 32.4718C194.176 32.3385 195.096 30.7132 196.801 30.4625C198.121 30.3158 198.64 30.8145 199.984 30.4038C201.416 29.9345 203.328 28.4718 204.136 28.2612C205.3 28.2175 206.453 28.51 207.456 29.1038C207.9 29.2958 209.13 28.4132 209.949 28.4132C210.472 28.4385 210.437 28.6638 211.272 29.2798C212.872 30.2652 215.357 29.1238 215.357 27.6238V27.6078V27.5732V27.5572V27.5398V27.5052V27.4878C215.312 27.2798 215.317 27.3145 215.312 27.2865L215.304 27.2678V27.2478L215.296 27.2318C215.04 27.0131 214.751 26.8379 214.438 26.7132C213.449 26.2305 214.121 26.1958 212.013 26.6638C210.868 26.9198 209.722 26.8705 208.68 27.0865C206.007 27.6073 203.301 27.9357 200.581 28.0692C197.589 28.4025 195.101 29.0092 192.196 29.1745C187.973 29.3972 184.505 29.0878 181.768 30.0038C176.9 31.6612 179.553 30.5372 176.229 32.0905C174.897 32.6194 173.674 33.3877 172.618 34.3572L172.606 34.3678C172.473 34.5198 171.916 35.7012 171.693 36.1012C171.394 36.6745 170.412 37.7012 170.412 38.8545V38.8692V38.8825V38.8958V38.9092V38.9225V38.9345V38.9465V38.9332L170.424 38.9652V38.9758C170.436 39.0092 170.441 39.0198 170.453 39.0492L170.46 39.0572L170.476 39.0878L170.482 39.0958C170.821 39.5345 171.777 39.6425 171.69 40.4972C171.613 41.012 171.489 41.5189 171.321 42.0118C171.417 42.7034 171.655 43.3678 172.018 43.9638C172.072 44.0545 172.045 44.0558 172.122 43.9638C172.823 42.7651 173.882 41.8158 175.149 41.2492C179.208 39.5772 180.413 41.2292 182.84 44.2492Z" fill="#212121"/>
<path fill-rule="evenodd" clip-rule="evenodd" d="M170.821 38.3332C170.373 38.5572 165.621 35.2838 164.143 28.7505C162.752 22.6105 168.309 16.9158 173.265 13.8172C177.011 11.4785 181.144 10.8625 185.348 9.89317C194.015 7.89317 194.523 6.85051 203.491 7.59851C206.472 7.84784 211.115 7.93451 213.381 10.1985C215.092 12.135 216.002 14.6493 215.927 17.2318C215.927 18.1398 215.621 19.0492 215.621 19.9332C215.621 20.0665 215.551 20.6372 215.673 20.6985C216.236 20.9798 226.272 20.1145 227.212 21.6425C228.979 24.5092 208.075 26.6452 204.307 27.2732C198.711 28.0396 193.253 29.6012 188.099 31.9105C187.326 32.0541 186.539 32.1055 185.755 32.0638C179.169 32.8878 175.66 35.9145 170.821 38.3332Z" fill="white"/>
<path fill-rule="evenodd" clip-rule="evenodd" d="M226.667 20.4628C227.445 20.7175 228.056 21.1788 228.056 21.9975C228.056 23.0495 226.843 23.6522 225.888 24.0588C222.091 25.5775 213.957 26.6708 209.821 27.2135C204.944 27.7106 200.111 28.5748 195.364 29.7988C192.856 30.4533 190.415 31.343 188.075 32.4562C187.043 32.7228 186.669 32.1615 182.764 33.0935C180.564 33.6829 178.442 34.5291 176.44 35.6148C176.307 35.6882 171.265 38.5975 170.805 38.6428V38.6722C170.968 38.5935 170.988 38.5908 170.805 38.6722V38.6428C170.143 38.4941 169.537 38.1597 169.057 37.6788C165.95 35.0087 163.961 31.2677 163.485 27.1988C163.177 20.9708 169.573 14.7988 174.875 12.2282C177.934 10.9178 181.135 9.9696 184.415 9.40284C190.227 8.06951 192.824 7.11217 195.481 6.81217C199.705 6.58068 203.941 6.7445 208.135 7.30151C212.789 8.00017 214.515 9.64284 215.8 12.6135C216.433 14.2251 216.725 15.9502 216.657 17.6802C216.599 18.4335 216.367 19.2495 216.367 20.0188C218.425 20.0388 224.409 19.7042 226.667 20.4628ZM170.7 38.0628L170.727 38.0495L170.7 38.0628ZM193.333 8.62684C180.32 11.9815 177.592 11.6562 172.667 14.9282C167.415 18.4508 162.953 23.8322 164.855 29.8162C165.921 33.8162 169.184 37.4455 170.684 38.0202C170.924 38.1122 176.099 34.9175 177.217 34.3588C180.156 32.7265 183.421 31.77 186.776 31.5588C187.824 31.5588 187.785 31.4948 188.211 31.2828C197.144 26.8708 208.252 26.2455 217.448 24.6335C219.159 24.3282 225.304 23.2308 226.533 22.0015C224.871 21.1708 218.933 21.5108 216.408 21.4975C215.645 21.4855 215.127 21.4975 214.899 20.8068C214.868 20.6911 214.853 20.5718 214.855 20.4522C214.855 18.1602 215.293 18.6255 215.121 16.1295C215.005 14.9084 214.679 13.7164 214.159 12.6055C212.357 8.57751 207.492 8.65084 202.792 8.26951C199.639 7.90615 196.45 8.02665 193.333 8.62684Z" fill="#212121"/>
<path fill-rule="evenodd" clip-rule="evenodd" d="M208.241 30.9521C210.806 30.9521 213.934 32.8308 214.629 35.3761C214.629 35.5415 216.057 39.6215 214.681 42.2321C212.493 46.3588 206.432 46.4268 204.198 43.8135C202.644 41.1691 202.154 38.0327 202.826 35.0401C203.165 33.8646 203.876 32.8307 204.852 32.0936C205.829 31.3565 207.018 30.956 208.241 30.9521ZM208.498 32.1615C207.469 32.1672 206.473 32.5271 205.677 33.1807C204.882 33.8344 204.336 34.7419 204.13 35.7508C203.776 37.7588 204.13 41.5081 205.488 43.0388C206.261 43.6523 207.199 44.0234 208.182 44.1055C209.259 44.257 210.357 44.0968 211.346 43.6438C212.335 43.1908 213.173 42.464 213.761 41.5495C214.478 39.6464 214.587 37.5674 214.07 35.6001C214.063 35.5788 214.057 35.5569 214.052 35.5348C214.013 35.4117 213.964 35.2918 213.906 35.1761C213.331 34.2595 212.534 33.5027 211.589 32.9758C210.644 32.4488 209.581 32.1688 208.498 32.1615Z" fill="#212121"/>
<path d="M209.055 39.3147C208.857 39.3147 208.668 39.2362 208.528 39.0964C208.388 38.9566 208.31 38.7671 208.31 38.5694C208.31 38.0721 208.104 37.2134 208.104 36.8641C208.104 36.7307 207.992 36.7774 208.847 36.7121L209.311 36.1294C209.63 36.3841 209.578 36.6534 209.64 37.1721C209.724 37.6338 209.778 38.1006 209.8 38.5694C209.8 38.6673 209.781 38.7642 209.744 38.8546C209.706 38.9451 209.651 39.0272 209.582 39.0964C209.513 39.1656 209.431 39.2205 209.34 39.258C209.25 39.2954 209.153 39.3147 209.055 39.3147Z" fill="#212121"/>
<path fill-rule="evenodd" clip-rule="evenodd" d="M208.548 33.0869L208.827 33.4056C208.368 33.8056 209.05 33.5389 205.607 34.2736C204.595 34.4962 203.722 34.8069 202.94 35.0536C202.723 35.1202 201.534 35.4322 201.207 35.5229C200.86 35.6229 201.042 35.6322 200.528 35.4882C200.662 35.0162 200.594 35.1256 200.868 34.8936C201.86 33.99 203.068 33.3564 204.375 33.0536C205.738 32.6429 207.193 32.6546 208.548 33.0869Z" fill="#212121"/>
<path d="M187.841 39.9214C192.914 38.7984 198.086 38.1882 203.28 38.1001C203.378 38.1023 203.475 38.1239 203.564 38.1634C203.654 38.203 203.735 38.2598 203.802 38.3306C203.87 38.4014 203.923 38.4849 203.958 38.5762C203.993 38.6675 204.01 38.7649 204.008 38.8628C204.008 38.9611 203.987 39.0583 203.948 39.1485C203.909 39.2388 203.852 39.3202 203.781 39.388C203.71 39.4559 203.626 39.5086 203.534 39.5432C203.442 39.5778 203.344 39.5936 203.246 39.5894C198.158 39.6836 193.092 40.2852 188.124 41.3854C187.93 41.4229 187.729 41.3818 187.565 41.271C187.401 41.1602 187.288 40.9889 187.251 40.7948C187.213 40.6006 187.255 40.3996 187.365 40.2358C187.476 40.072 187.647 39.9589 187.841 39.9214Z" fill="#212121"/>
<path fill-rule="evenodd" clip-rule="evenodd" d="M211.662 53.5252L211.637 53.9452C211.402 54.4205 211.046 54.8259 210.605 55.1212C210.177 55.3541 209.707 55.4984 209.222 55.5456C208.738 55.5928 208.248 55.5419 207.784 55.3959C207.514 55.2871 207.257 55.1504 207.016 54.9879C206.828 54.8545 206.916 54.9639 206.661 54.5225C207.11 54.2559 206.846 54.3425 207.728 54.2212C208.08 54.1719 207.828 54.1972 208.284 54.1492C208.873 54.1324 209.457 54.0295 210.017 53.8439C211.606 53.4665 210.954 53.4932 211.662 53.5252Z" fill="white"/>
<path fill-rule="evenodd" clip-rule="evenodd" d="M193.219 70.2881C195.743 71.3841 198.152 72.5654 200.468 73.8134C203.951 80.5658 207.005 87.5307 209.613 94.6668C209.613 94.6668 204.481 97.3708 204.608 97.4774C206.367 98.9881 209.572 101.851 209.572 101.851C209.572 101.851 207.552 121.689 203.717 131.089C204.899 121.693 203.379 107.007 201.265 97.6694C199.6 90.3014 194.296 72.0521 193.219 70.2881Z" fill="white"/>
<path fill-rule="evenodd" clip-rule="evenodd" d="M200.707 73.4895C202.161 75.9991 203.488 78.5801 204.683 81.2228C206.549 85.2824 208.286 89.4037 209.893 93.5868C210.6 95.4308 210.781 94.6428 205.733 97.5481C206.237 97.9961 206.049 97.8028 209.513 100.857C210.081 101.361 210.277 101.427 210.277 101.924C210.193 102.569 210.304 101.977 209.755 106.397C208.831 113.608 207.189 124.108 204.589 130.912C204.383 131.445 204.364 131.548 204.079 131.74C203.931 131.823 203.76 131.852 203.593 131.823C203.426 131.795 203.274 131.71 203.163 131.583C202.729 130.999 203.197 131.335 203.367 125.557C203.454 119.243 203.053 112.931 202.167 106.679C200.567 93.8681 193.344 70.6588 193.059 70.6308C193.009 70.5389 192.965 70.4446 192.925 70.3482C192.914 70.2952 192.918 70.2401 192.936 70.189C192.954 70.138 192.986 70.0929 193.028 70.0587C193.07 70.0245 193.12 70.0026 193.174 69.9953C193.228 69.9881 193.282 69.9957 193.332 70.0175C193.229 70.2468 193.267 70.1642 193.332 70.0175C195.669 71.0068 199.963 73.0202 200.707 73.4895ZM201.187 94.7495C203.669 104.576 204.904 114.676 204.861 124.811C204.861 125.264 204.768 125.461 205.183 123.856C206.814 116.691 208.033 109.438 208.835 102.133C203.815 97.6681 204.005 97.9575 203.929 97.5681C203.929 96.8775 203.897 96.9361 208.812 94.3535C206.373 87.4264 203.487 80.6647 200.173 74.1108L200.061 74.0508C198.379 73.1281 196.428 72.0935 193.837 70.9028C195.556 74.8735 199.617 88.8628 201.187 94.7495Z" fill="#212121"/>
<path fill-rule="evenodd" clip-rule="evenodd" d="M106.291 138.82C129.323 152.357 172.45 156.901 172.45 156.901C172.45 156.901 176.683 143.125 176.12 142.579C157.651 124.667 128.976 122.283 128.95 122.489" fill="#212121"/>
<path fill-rule="evenodd" clip-rule="evenodd" d="M113.566 142.097C130.316 149.275 154.862 154.172 171.92 156.097C171.92 155.964 175.431 144.58 175.431 142.937C169.54 137.423 162.718 132.999 155.28 129.871C143.846 124.873 131.356 122.72 129.014 122.779C129.069 122.767 129.119 122.74 129.159 122.7C129.255 122.567 129.307 122.567 128.842 122.767L128.678 122.383C128.944 121.755 136.162 122.959 140.268 123.867C152.859 126.667 165.524 132.011 175.068 140.604C176.914 142.279 176.975 142.169 176.872 143.291C176.511 145.993 173.955 154.551 173.152 157.123C173.103 157.288 172.997 157.431 172.854 157.526C172.71 157.621 172.537 157.663 172.366 157.644C153.596 155.601 122.787 149.311 106.352 139.213C106.086 139.049 106.158 139.163 106.028 138.672C107.002 138.416 105.402 138.493 113.566 142.097Z" fill="#212121"/>
<path fill-rule="evenodd" clip-rule="evenodd" d="M103.763 138.057C108.467 140.636 113.394 142.783 118.485 144.472C134.07 149.876 155.677 154.117 171.919 156.092C172.229 155.272 175.171 145.172 175.415 143.093C175.441 142.896 175.485 142.981 175.181 142.693C168.606 136.671 160.955 131.941 152.629 128.751C145.09 125.625 137.137 123.612 129.019 122.776H129.005C129.063 122.767 129.117 122.739 129.158 122.697C129.254 122.564 129.306 122.564 128.841 122.764L128.677 122.38C128.754 122.193 128.906 122.173 129.295 122.185C133.978 122.587 138.619 123.379 143.17 124.555C154.429 127.427 165.161 132.197 174.047 139.707C174.181 139.825 176.159 141.535 176.694 142.123C177.075 142.627 176.862 143.545 176.701 144.308C176.701 145.165 173.654 155.587 173.157 157.12C173.107 157.286 173 157.429 172.855 157.525C172.71 157.62 172.536 157.661 172.363 157.641C152.515 155.375 120.437 148.865 103.238 138.449L103.133 138.04C103.627 137.909 103.485 137.899 103.763 138.057Z" fill="white"/>
<path fill-rule="evenodd" clip-rule="evenodd" d="M211.666 19.7599C211.743 19.8168 211.809 19.8857 211.864 19.9639L211.752 20.5826L211.137 20.4732V20.4625V20.4772V20.4666L211.148 20.4799L211.137 20.4692L211.148 20.4826L211.14 20.4719L211.152 20.4839L211.14 20.4745L211.152 20.4852L211.14 20.4745L211.152 20.4852L211.14 20.4759L211.152 20.4852C210.752 20.1532 208.436 20.4572 208.282 20.4772C200.913 21.3985 183.562 26.7172 172.574 33.0106C172.342 33.1439 172.537 33.0946 171.554 33.2146L170.88 32.6946L170.778 31.8492C171.189 31.3159 171.294 31.1292 171.48 31.0746C184.392 23.7692 208.881 17.7159 211.666 19.7599Z" fill="#212121"/>
</svg>
