<svg width="500" height="500" viewBox="0 0 500 500" fill="none" xmlns="http://www.w3.org/2000/svg">
<path d="M415.951 430.294C360.223 413.105 300.625 423.439 242.502 423.911C207.576 424.191 172.75 420.859 137.91 418.294C118.711 416.879 99.2133 415.714 80.3965 419.96C77.3053 420.653 73.4058 422.923 74.4126 426.048C74.8805 427.523 76.3411 428.378 77.674 429.1C89.4008 435.365 101.113 441.63 112.84 447.896C102.503 449.385 92.1659 450.874 81.8287 452.348C78.0852 452.893 73.42 454.353 73.0229 458.259C72.8244 460.279 73.9446 462.166 75.1925 463.743C85.4588 476.642 103.907 477.32 120.001 476.922C159.35 475.979 198.813 474.976 238.106 472.456C293.634 477.91 349.745 477.114 405.103 470.053C409.059 469.551 414.192 467.561 413.724 463.434C413.143 458.318 404.621 458.2 403.345 453.232C402.139 448.515 408.435 445.729 413.129 445.876C417.822 446.023 423.891 446.141 425.621 441.601C427.635 436.279 421.211 431.916 415.951 430.294Z" fill="#EEEEEE"/>
<path d="M187.399 146.44C163.11 146.44 155.014 135.963 155.314 125.556C155.508 118.747 161.434 111.427 164.116 97.9151C165.262 92.1471 165.086 76.7833 169.496 68.5635C175.034 58.2446 187.399 62.0723 187.399 62.0723C187.399 62.0723 200.064 58.615 205.303 68.5635C209.66 76.8186 208.513 91.0534 208.849 96.9096C209.342 105.182 213.47 116.542 216.257 122.698C220.755 132.611 214.687 146.44 187.399 146.44Z" fill="#212121"/>
<path d="M187.505 233.366C195.831 233.119 205.78 232.114 217.298 229.856C217.298 229.856 208.849 195.566 207.579 187.945C206.309 180.325 211.918 136.845 211.918 136.845C211.918 136.845 198.459 131.906 187.382 131.906C176.304 131.906 162.846 136.845 162.846 136.845C162.846 136.845 168.455 180.325 167.185 187.945C165.915 195.566 157.466 229.856 157.466 229.856C169.002 232.132 178.933 233.119 187.258 233.366H187.505Z" fill="white" stroke="#212120" stroke-miterlimit="10"/>
<path d="M160.147 315.618C160.147 315.618 167.732 433.024 167.008 434.206C166.303 435.388 141.22 445.036 143.813 445.989C146.406 446.941 181.49 443.978 181.737 442.796C181.966 441.614 181.614 438.88 181.155 435.105C180.679 431.331 183.677 306.463 183.677 306.463L160.147 315.618Z" fill="white" stroke="#212121" stroke-width="0.5" stroke-miterlimit="10"/>
<path d="M141.025 444.243C150.779 440.168 163.956 435.035 163.956 435.035C163.956 435.035 161.998 428.632 166.09 427.997C170.182 427.344 171.364 436.252 171.364 436.252C171.364 436.252 179.214 437.434 182.248 433.959C182.653 434.612 184.946 446.977 182.301 446.977C157.341 446.906 130.441 448.652 141.025 444.243Z" fill="white" stroke="#212121" stroke-miterlimit="10"/>
<path d="M185.529 446.536C185.459 445.777 184.771 445.213 184.012 445.301C175.51 446.165 164.186 446.165 154.996 445.936C153.602 442.584 148.981 439.991 148.981 439.991C142.631 441.826 140.02 443.943 138.944 445.301C138.891 445.301 138.856 445.301 138.856 445.301C138.115 445.248 137.445 445.83 137.392 446.588C137.339 447.347 137.921 448 138.68 448.053C138.874 448.07 151.398 448.829 164.803 448.829C171.577 448.829 178.562 448.635 184.295 448.053C185.053 447.982 185.6 447.294 185.529 446.536Z" fill="#212121"/>
<path d="M153.179 438.951C154.714 439.78 156.354 440.838 156.831 442.602C156.989 443.167 157.871 442.937 157.713 442.355C157.166 440.344 155.384 439.092 153.638 438.157C153.126 437.875 152.65 438.669 153.179 438.951Z" fill="#212121"/>
<path d="M157.377 437.54C158.894 438.475 160.535 439.427 161.364 441.085C161.628 441.614 162.422 441.156 162.157 440.627C161.258 438.845 159.494 437.769 157.836 436.764C157.342 436.428 156.883 437.24 157.377 437.54Z" fill="#212121"/>
<path d="M161.646 435.97C162.634 436.323 163.586 436.746 164.398 437.434C165.244 438.157 165.632 439.321 166.197 440.238C166.514 440.75 167.308 440.274 166.991 439.78C166.356 438.757 165.915 437.645 165.05 436.781C164.186 435.934 163.004 435.476 161.893 435.07C161.328 434.876 161.099 435.758 161.646 435.97Z" fill="#212121"/>
<path d="M218.179 315.618C218.179 315.618 210.594 433.024 211.317 434.206C212.023 435.388 237.106 445.036 234.513 445.989C231.92 446.941 196.836 443.978 196.589 442.796C196.359 441.614 196.712 438.88 197.171 435.105C197.647 431.331 194.648 306.463 194.648 306.463L218.179 315.618Z" fill="white" stroke="#212120" stroke-width="0.5" stroke-miterlimit="10"/>
<path d="M237.793 444.243C228.039 440.168 214.862 435.035 214.862 435.035C214.862 435.035 216.82 428.632 212.728 427.997C208.636 427.344 207.454 436.252 207.454 436.252C207.454 436.252 199.605 437.434 196.571 433.959C196.165 434.612 193.872 446.977 196.518 446.977C221.477 446.906 248.359 448.652 237.793 444.243Z" fill="white" stroke="#212121" stroke-miterlimit="10"/>
<path d="M193.29 446.536C193.361 445.777 194.049 445.213 194.807 445.301C203.309 446.165 214.634 446.165 223.824 445.936C225.217 442.584 229.839 439.991 229.839 439.991C236.189 441.826 238.799 443.943 239.875 445.301C239.928 445.301 239.964 445.301 239.964 445.301C240.704 445.248 241.375 445.83 241.428 446.588C241.481 447.347 240.898 448 240.14 448.053C239.946 448.07 227.422 448.829 214.016 448.829C207.243 448.829 200.258 448.635 194.525 448.053C193.767 447.982 193.22 447.294 193.29 446.536Z" fill="#212121"/>
<path d="M225.64 438.951C224.106 439.78 222.465 440.838 221.989 442.602C221.83 443.167 220.948 442.937 221.107 442.355C221.654 440.344 223.435 439.092 225.182 438.157C225.693 437.875 226.152 438.669 225.64 438.951Z" fill="#212121"/>
<path d="M221.424 437.54C219.907 438.475 218.267 439.427 217.438 441.085C217.173 441.614 216.379 441.156 216.644 440.627C217.544 438.845 219.308 437.769 220.966 436.764C221.477 436.428 221.936 437.24 221.424 437.54Z" fill="#212121"/>
<path d="M217.174 435.97C216.186 436.323 215.234 436.746 214.422 437.434C213.576 438.157 213.188 439.321 212.623 440.238C212.306 440.75 211.512 440.274 211.829 439.78C212.464 438.757 212.905 437.645 213.77 436.781C214.634 435.934 215.816 435.476 216.927 435.07C217.492 434.876 217.721 435.758 217.174 435.97Z" fill="#212121"/>
<path d="M187.398 225.499H211.141C219.025 242.01 226.01 319.41 226.01 319.41C219.766 323.644 200.804 328.777 187.398 328.777C173.993 328.777 155.03 323.644 148.786 319.41C148.786 319.41 155.771 242.01 163.656 225.499H187.398Z" fill="#212121"/>
<path d="M208.742 136.58C208.742 136.58 195.195 133.229 194.472 132.488C193.749 131.747 194.701 107.07 194.701 107.07L180.519 107.881C180.519 107.881 179.514 131.747 179.144 132.241C178.755 132.735 165.879 136.58 165.879 136.58C165.879 136.58 186.464 154.061 187.328 154.308C188.157 154.554 208.742 136.58 208.742 136.58Z" fill="white" stroke="#212120" stroke-width="0.5" stroke-miterlimit="10"/>
<path d="M201.722 94.8104C201.722 94.8104 208.901 91.0356 211.194 96.9624C213.487 102.889 207.19 106.011 202.674 104.194C198.141 102.378 201.722 94.8104 201.722 94.8104Z" fill="white" stroke="#212120" stroke-width="0.5" stroke-miterlimit="10"/>
<path d="M203.716 97.0506C201.917 98.4088 201.141 100.314 201.935 102.483C201.987 102.642 202.129 102.678 202.252 102.642C202.869 103.03 203.875 102.889 204.457 102.519C205.162 102.078 205.656 101.319 205.656 100.473C205.656 99.2732 204.686 98.303 203.593 98.3383C203.91 98.0031 204.298 97.7033 204.81 97.4387C206.203 96.7508 207.65 96.8742 209.096 97.3152C209.308 97.3858 209.431 97.033 209.237 96.9624C207.526 96.2216 205.304 95.8335 203.716 97.0506ZM202.446 101.637C202.517 100.596 202.658 99.6612 203.152 98.8675C203.91 99.0615 204.774 99.4143 204.739 100.314C204.704 100.931 204.333 101.566 203.698 101.725C203.257 101.848 202.869 101.69 202.446 101.637Z" fill="#212121"/>
<path d="M171.506 94.8104C171.506 94.8104 164.327 91.0356 162.034 96.9624C159.741 102.889 166.038 106.011 170.554 104.194C175.087 102.378 171.506 94.8104 171.506 94.8104Z" fill="white" stroke="#212121" stroke-width="0.5" stroke-miterlimit="10"/>
<path d="M163.991 96.9273C163.797 97.0155 163.921 97.3507 164.133 97.2801C165.579 96.8391 167.025 96.698 168.419 97.4036C168.93 97.6682 169.336 97.9681 169.636 98.3032C168.56 98.2679 167.59 99.2557 167.572 100.438C167.572 101.284 168.066 102.043 168.772 102.484C169.336 102.836 170.359 102.995 170.977 102.607C171.1 102.642 171.241 102.607 171.294 102.448C172.088 100.279 171.294 98.3738 169.512 97.0155C167.925 95.8337 165.702 96.2218 163.991 96.9273ZM169.53 101.725C168.895 101.566 168.507 100.931 168.489 100.314C168.454 99.4145 169.318 99.0617 170.077 98.8677C170.553 99.6614 170.712 100.596 170.783 101.637C170.359 101.69 169.971 101.849 169.53 101.725Z" fill="#212121"/>
<path d="M169.743 80.0994C169.743 80.0994 169.355 96.592 171.013 101.99C172.671 107.387 180.397 113.402 186.623 113.72C192.832 113.402 200.576 107.37 202.234 101.99C203.892 96.592 203.504 80.0994 203.504 80.0994C203.504 80.0994 188.811 84.7561 169.743 80.0994Z" fill="white" stroke="#212121" stroke-width="0.5" stroke-miterlimit="10"/>
<path d="M196.801 85.2322C197.048 85.3204 197.313 85.3381 197.578 85.391C197.877 85.4615 198.16 85.585 198.46 85.5674C198.512 85.5674 198.548 85.4968 198.512 85.4615C197.877 84.4032 195.796 83.8916 194.72 84.4385C194.508 84.5443 194.508 84.8442 194.755 84.9147C195.443 85.0911 196.131 85.0029 196.801 85.2322Z" fill="#212121"/>
<path d="M176.427 85.2322C176.18 85.3204 175.916 85.3381 175.651 85.391C175.351 85.4615 175.069 85.585 174.769 85.5674C174.716 85.5674 174.681 85.4968 174.716 85.4615C175.351 84.4032 177.433 83.8916 178.509 84.4385C178.72 84.5443 178.72 84.8442 178.474 84.9147C177.786 85.0911 177.098 85.0029 176.427 85.2322Z" fill="#212121"/>
<g opacity="0.4">
<path opacity="0.4" d="M197.913 94.1753C198.142 94.0871 198.583 93.9107 198.707 93.8754C199.077 93.7872 199.5 93.7167 199.888 93.752C201.37 93.9107 203.116 94.7045 202.993 96.486C202.993 96.5919 202.975 96.68 202.958 96.7859C202.94 97.5796 202.499 98.4087 201.97 98.9202C201.37 99.467 200.576 99.8727 199.783 99.9962C198.636 100.19 197.56 99.9433 196.678 99.1848C195.867 98.4969 195.496 97.1739 195.867 96.1685C196.237 95.1454 196.96 94.5986 197.913 94.1753Z" fill="#E4E4E4"/>
<path opacity="0.4" d="M173.323 93.769C173.711 93.7338 174.135 93.8043 174.505 93.8925C174.629 93.9278 175.07 94.1042 175.299 94.1924C176.269 94.6157 176.992 95.1625 177.38 96.2033C177.751 97.2087 177.363 98.5316 176.569 99.2195C175.669 99.9957 174.611 100.225 173.464 100.031C172.671 99.9075 171.859 99.5018 171.277 98.955C170.73 98.4434 170.307 97.6144 170.289 96.8206C170.272 96.7148 170.254 96.6266 170.254 96.5208C170.113 94.7039 171.859 93.9102 173.323 93.769Z" fill="#E4E4E4"/>
</g>
<path d="M191.509 93.7872C191.438 91.8116 192.091 89.9066 194.208 89.3421C196.272 88.7953 198.935 89.9242 199.641 92.0762C199.729 92.3408 199.447 92.6054 199.2 92.429C198.653 92.0409 198.3 91.4765 197.789 91.0355C197.03 90.3299 196.042 89.9595 195.019 89.9948C192.85 90.0477 191.968 92.0056 191.544 93.8048C191.527 93.8048 191.509 93.8048 191.509 93.7872Z" fill="#212121"/>
<path d="M199.2 92.5877C199.27 93.9459 197.577 96.0097 194.86 95.992C192.426 95.9744 191.474 94.1046 191.474 94.1046C191.474 94.1046 191.932 90.0653 194.807 89.6948C197.7 89.3244 199.2 92.5877 199.2 92.5877Z" fill="white"/>
<path d="M192.779 92.5525C192.62 93.8931 193.573 95.1279 194.931 95.2866C196.272 95.4454 197.506 94.4929 197.665 93.1346C197.824 91.7941 196.871 90.5593 195.513 90.4006C194.155 90.2418 192.938 91.212 192.779 92.5525Z" fill="#212121"/>
<path d="M196.289 91.8644C196.236 92.3583 196.571 92.7993 197.03 92.8522C197.506 92.9051 197.929 92.5523 197.982 92.0761C198.035 91.5822 197.7 91.1412 197.241 91.0883C196.783 91.0353 196.342 91.3881 196.289 91.8644Z" fill="white"/>
<path d="M181.208 93.7872C181.278 91.8116 180.626 89.9066 178.509 89.3421C176.445 88.7953 173.782 89.9242 173.076 92.0762C172.988 92.3408 173.27 92.6054 173.517 92.429C174.064 92.0409 174.417 91.4765 174.928 91.0355C175.687 90.3299 176.674 89.9595 177.698 89.9948C179.867 90.0477 180.749 92.0056 181.172 93.8048C181.19 93.8048 181.208 93.8048 181.208 93.7872Z" fill="#212121"/>
<path d="M173.499 92.5877C173.429 93.9459 175.122 96.0097 177.838 95.992C180.273 95.9744 181.225 94.1046 181.225 94.1046C181.225 94.1046 180.767 90.0653 177.891 89.6948C175.016 89.3244 173.499 92.5877 173.499 92.5877Z" fill="white"/>
<path d="M179.938 92.5525C180.096 93.8931 179.144 95.1279 177.786 95.2866C176.445 95.4454 175.21 94.4929 175.051 93.1346C174.893 91.7941 175.845 90.5593 177.203 90.4006C178.544 90.2418 179.779 91.212 179.938 92.5525Z" fill="#212121"/>
<path d="M176.427 91.8644C176.48 92.3583 176.145 92.7993 175.687 92.8522C175.21 92.9051 174.787 92.5523 174.734 92.0761C174.681 91.5822 175.016 91.1412 175.475 91.0883C175.934 91.0353 176.357 91.3881 176.427 91.8644Z" fill="white"/>
<path d="M182.708 106.276C185.636 108.304 189.322 107.493 190.116 103.842C190.204 103.454 189.693 103.224 189.463 103.577C188.881 104.512 188.229 105.5 187.259 106.046C185.918 106.805 184.136 106.611 182.778 106.099C182.672 106.046 182.602 106.223 182.708 106.276Z" fill="#212121"/>
<path d="M177.521 130.706C177.521 130.706 184.065 191.844 183.324 201.775C182.583 211.705 180.202 296.656 180.202 296.656C180.202 296.656 159.494 300.466 144.694 293.516C144.694 293.516 154.237 219.061 164.027 193.749C164.027 193.749 160.446 137.991 161.54 136.51C162.633 135.028 177.521 130.706 177.521 130.706Z" fill="white" stroke="#212120" stroke-miterlimit="10"/>
<path d="M178.72 212.199C178.244 209.536 177.75 206.89 177.22 204.226C176.197 198.917 175.21 193.607 174.134 188.316L170.959 172.423L170.129 168.454L169.918 167.466C169.918 167.449 169.953 167.36 169.971 167.307C170.024 167.166 170.112 167.025 170.182 166.884C170.5 166.302 170.835 165.738 171.188 165.155C172.599 162.88 174.116 160.622 175.615 158.4L175.827 158.1L175.58 157.835L172.846 155.084C171.946 154.166 171.064 153.267 170.165 152.349L168.983 150.974C168.983 150.956 168.983 150.921 169.001 150.885C169.001 150.832 169.018 150.762 169.036 150.691C169.071 150.55 169.124 150.391 169.159 150.25C169.248 149.951 169.371 149.651 169.477 149.351C169.935 148.151 170.465 146.987 171.011 145.805C172.087 143.459 173.199 141.131 174.328 138.803L176.039 135.328C176.621 134.181 177.168 132.999 177.785 131.87C176.48 134.093 175.245 136.386 174.028 138.661C172.811 140.937 171.611 143.23 170.482 145.558C169.918 146.723 169.353 147.887 168.859 149.104C168.736 149.404 168.613 149.704 168.507 150.021C168.454 150.18 168.401 150.339 168.348 150.515C168.33 150.603 168.295 150.674 168.295 150.78C168.295 150.885 168.242 150.956 168.295 151.185C168.313 151.238 168.313 151.256 168.366 151.344L168.401 151.397L168.471 151.485L168.63 151.679L168.948 152.05L169.565 152.79C170.447 153.743 171.347 154.731 172.229 155.666L174.68 158.188C173.216 160.322 171.77 162.457 170.376 164.644C170.024 165.226 169.653 165.79 169.318 166.408C169.23 166.567 169.159 166.725 169.071 166.884C169.036 166.99 169.001 167.043 168.948 167.184L168.93 167.29C168.912 167.343 168.912 167.449 168.93 167.519L168.965 167.678L169.159 168.666L169.953 172.634L173.234 188.492C174.31 193.784 175.474 199.058 176.603 204.332C177.168 206.978 177.732 209.606 178.332 212.234L180.113 220.137L178.72 212.199ZM169.935 167.36C169.935 167.378 169.935 167.396 169.935 167.413C169.935 167.378 169.935 167.343 169.935 167.36Z" fill="#212121"/>
<path d="M160.482 219.378C160.482 219.378 164.486 224.653 165.756 225.111C167.043 225.57 171.488 227.228 171.488 227.228C171.488 227.228 163.727 241.251 160.482 243.809C160.482 243.809 158.171 231.761 157.994 230.844C157.818 229.927 154.52 226.699 154.52 226.699L160.482 219.378Z" fill="white" stroke="#212121" stroke-width="0.5" stroke-miterlimit="10"/>
<path d="M162.863 136.827C158.435 131.853 127.002 187.487 125.644 191.297C124.304 195.107 144.694 225.005 153.214 233.366L165.826 220.578C165.826 220.578 146.141 188.845 146.247 186.975C146.352 185.106 167.184 161.487 167.184 161.487C167.184 161.487 164.662 138.838 162.863 136.827Z" fill="white" stroke="#212121" stroke-miterlimit="10"/>
<path d="M174.063 221.16C170.27 231.091 163.162 240.581 156.724 249.171C156.247 249.806 155.665 249.365 156.124 248.606C158.876 244.161 161.874 239.593 164.943 235.395C168.277 230.844 171.117 226.011 173.745 221.019C173.834 220.86 174.133 220.983 174.063 221.16Z" fill="#212121"/>
<path d="M195.707 130.706C195.707 130.706 190.715 191.844 191.456 201.775C192.197 211.705 194.578 296.656 194.578 296.656C194.578 296.656 215.286 300.466 230.086 293.516C230.086 293.516 220.543 219.061 210.753 193.749C210.753 193.749 214.334 137.991 213.24 136.51C212.147 135.028 195.707 130.706 195.707 130.706Z" fill="#F9F9FA" stroke="#212121" stroke-miterlimit="10"/>
<path d="M194.631 220.172L196.412 212.27C197.012 209.642 197.577 206.996 198.141 204.368C199.27 199.093 200.434 193.819 201.51 188.528L204.791 172.67L205.585 168.701L205.779 167.713L205.814 167.555C205.832 167.484 205.814 167.361 205.814 167.325L205.796 167.219C205.761 167.078 205.726 167.008 205.673 166.92C205.602 166.743 205.514 166.584 205.426 166.443C205.091 165.826 204.738 165.261 204.368 164.679C202.974 162.492 201.528 160.358 200.064 158.223L202.516 155.701C203.415 154.766 204.315 153.778 205.179 152.826L205.796 152.085L206.114 151.715L206.273 151.521L206.343 151.432L206.379 151.379C206.431 151.291 206.414 151.274 206.449 151.221C206.502 150.991 206.467 150.938 206.449 150.815C206.431 150.709 206.414 150.639 206.396 150.55C206.361 150.374 206.29 150.215 206.237 150.056C206.132 149.739 206.008 149.439 205.885 149.139C205.373 147.94 204.826 146.758 204.262 145.594C203.133 143.265 201.933 140.972 200.716 138.697C199.499 136.421 198.282 134.146 196.959 131.906C197.577 133.052 198.123 134.216 198.706 135.363L200.417 138.838C201.545 141.166 202.657 143.495 203.733 145.841C204.262 147.005 204.791 148.187 205.267 149.386C205.391 149.686 205.497 149.986 205.585 150.286C205.62 150.427 205.673 150.586 205.708 150.727C205.726 150.797 205.744 150.868 205.744 150.921C205.744 150.956 205.744 150.991 205.761 151.009L204.579 152.385C203.697 153.302 202.815 154.202 201.898 155.119L199.164 157.871L198.917 158.135L199.129 158.435C200.646 160.658 202.145 162.915 203.556 165.191C203.909 165.755 204.262 166.337 204.562 166.92C204.632 167.061 204.703 167.202 204.773 167.343C204.791 167.396 204.826 167.484 204.826 167.502L204.615 168.489L203.786 172.458L200.611 188.351C199.535 193.643 198.547 198.952 197.524 204.262C197.012 206.908 196.518 209.571 196.024 212.235L194.631 220.172ZM204.844 167.413C204.844 167.396 204.844 167.378 204.844 167.361C204.862 167.343 204.844 167.378 204.844 167.413Z" fill="#212121"/>
<path d="M214.316 219.378C214.316 219.378 210.312 224.653 209.042 225.111C207.755 225.57 203.31 227.228 203.31 227.228C203.31 227.228 211.071 241.251 214.316 243.809C214.316 243.809 216.627 231.761 216.804 230.844C216.98 229.927 220.278 226.699 220.278 226.699L214.316 219.378Z" fill="white" stroke="#212121" stroke-width="0.5" stroke-miterlimit="10"/>
<path d="M211.935 136.827C216.362 131.853 247.795 187.487 249.154 191.297C250.494 195.107 230.103 225.005 221.584 233.366L208.972 220.578C208.972 220.578 228.657 188.845 228.551 186.975C228.445 185.106 207.613 161.487 207.613 161.487C207.613 161.487 210.136 138.838 211.935 136.827Z" fill="white" stroke="#212120" stroke-miterlimit="10"/>
<path d="M200.717 221.16C204.509 231.091 212.112 240.951 217.245 249.453C217.668 250.141 219.15 249.365 218.656 248.624C215.551 243.809 212.905 239.611 209.836 235.412C206.502 230.862 203.662 226.028 201.034 221.037C200.946 220.86 200.646 220.984 200.717 221.16Z" fill="#212121"/>
<path d="M283.056 314.259C283.056 314.259 290.641 431.666 289.918 432.848C289.212 434.029 264.129 443.678 266.722 444.631C269.315 445.583 304.399 442.62 304.646 441.438C304.876 440.256 304.523 437.522 304.064 433.747C303.588 429.972 306.587 305.105 306.587 305.105L283.056 314.259Z" fill="white" stroke="#212120" stroke-width="0.5" stroke-miterlimit="10"/>
<path d="M260.143 443.819C270.814 439.374 285.208 433.765 285.208 433.765C285.208 433.765 283.056 426.762 287.554 426.057C292.034 425.351 293.322 435.07 293.322 435.07C293.322 435.07 301.912 436.358 305.228 432.548C305.687 433.253 308.174 446.783 305.299 446.783C277.976 446.73 248.571 448.635 260.143 443.819Z" fill="white" stroke="#212121" stroke-miterlimit="10"/>
<path d="M308.809 446.324C308.721 445.495 307.98 444.878 307.151 444.983C297.855 445.918 285.455 445.918 275.401 445.689C273.866 442.02 268.821 439.18 268.821 439.18C261.872 441.191 259.014 443.502 257.85 444.983C257.797 444.983 257.762 444.983 257.744 444.983C256.933 444.931 256.192 445.566 256.139 446.395C256.086 447.224 256.721 447.947 257.55 448C257.762 448.017 271.467 448.846 286.125 448.846C293.534 448.846 301.172 448.635 307.434 448C308.28 447.894 308.898 447.153 308.809 446.324Z" fill="#212121"/>
<path d="M273.426 438.016C275.102 438.916 276.901 440.08 277.43 442.002C277.606 442.62 278.577 442.355 278.4 441.738C277.8 439.533 275.842 438.175 273.937 437.134C273.373 436.834 272.861 437.716 273.426 438.016Z" fill="#212121"/>
<path d="M278.029 436.481C279.687 437.504 281.486 438.545 282.386 440.344C282.668 440.926 283.55 440.415 283.25 439.833C282.262 437.875 280.34 436.711 278.523 435.599C277.976 435.282 277.482 436.146 278.029 436.481Z" fill="#212121"/>
<path d="M282.686 434.753C283.779 435.141 284.802 435.599 285.684 436.358C286.601 437.152 287.025 438.422 287.66 439.427C287.995 439.974 288.859 439.48 288.524 438.916C287.836 437.787 287.342 436.57 286.39 435.635C285.455 434.718 284.15 434.206 282.932 433.765C282.35 433.571 282.086 434.541 282.686 434.753Z" fill="#212121"/>
<path d="M347.139 314.259C347.139 314.259 339.554 431.666 340.277 432.848C340.983 434.029 366.066 443.678 363.473 444.631C360.88 445.583 325.796 442.62 325.549 441.438C325.319 440.256 325.672 437.522 326.131 433.747C326.607 429.972 323.608 305.105 323.608 305.105L347.139 314.259Z" fill="white" stroke="#212121" stroke-width="0.5" stroke-miterlimit="10"/>
<path d="M370.123 443.819C359.452 439.374 345.058 433.765 345.058 433.765C345.058 433.765 347.21 426.762 342.712 426.057C338.214 425.351 336.944 435.07 336.944 435.07C336.944 435.07 328.354 436.358 325.038 432.548C324.579 433.253 322.092 446.783 324.985 446.783C352.29 446.73 381.695 448.635 370.123 443.819Z" fill="white" stroke="#212120" stroke-miterlimit="10"/>
<path d="M321.457 446.324C321.545 445.495 322.286 444.878 323.115 444.983C332.411 445.918 344.811 445.918 354.848 445.689C356.382 442.02 361.427 439.18 361.427 439.18C368.377 441.191 371.234 443.502 372.399 444.983C372.452 444.983 372.487 444.983 372.504 444.983C373.316 444.931 374.057 445.566 374.11 446.395C374.163 447.224 373.527 447.947 372.698 448C372.487 448.017 358.781 448.846 344.141 448.846C336.732 448.846 329.094 448.635 322.832 448C321.986 447.894 321.368 447.153 321.457 446.324Z" fill="#212121"/>
<path d="M356.84 438.016C355.165 438.916 353.365 440.08 352.836 442.002C352.66 442.62 351.69 442.355 351.866 441.738C352.466 439.533 354.424 438.175 356.329 437.134C356.893 436.834 357.405 437.716 356.84 438.016Z" fill="#212121"/>
<path d="M352.237 436.481C350.579 437.504 348.779 438.545 347.88 440.344C347.598 440.926 346.716 440.415 347.015 439.833C348.003 437.875 349.926 436.711 351.743 435.599C352.29 435.282 352.783 436.146 352.237 436.481Z" fill="#212121"/>
<path d="M347.58 434.753C346.487 435.141 345.464 435.599 344.582 436.358C343.665 437.152 343.224 438.422 342.606 439.427C342.271 439.974 341.407 439.48 341.742 438.916C342.43 437.787 342.906 436.57 343.876 435.635C344.811 434.718 346.116 434.206 347.333 433.765C347.916 433.571 348.18 434.541 347.58 434.753Z" fill="#212121"/>
<path d="M314.895 255.451C313.237 254.904 310.468 417.114 310.468 417.114C292.229 424.61 283.938 417.114 283.938 417.114C283.938 417.114 274.537 259.684 283.938 224.141H314.877H345.817C355.218 259.702 345.817 417.114 345.817 417.114C345.817 417.114 337.526 424.61 319.287 417.114C319.322 417.131 316.553 254.904 314.895 255.451Z" fill="white" stroke="#212120" stroke-miterlimit="10"/>
<path d="M337.509 127.266C337.509 127.266 325.973 123.915 325.25 123.174C324.526 122.433 325.479 97.7561 325.479 97.7561L307.258 98.5675C307.258 98.5675 306.252 122.433 305.882 122.927C305.511 123.421 294.628 127.266 294.628 127.266C294.628 127.266 315.213 144.747 316.077 144.994C316.941 145.241 337.509 127.266 337.509 127.266Z" fill="white" stroke="#212120" stroke-width="0.5" stroke-miterlimit="10"/>
<path d="M334.51 95.1986C334.51 95.1986 341.566 86.9435 341.866 77.8593C342.166 68.7751 337.509 66.4467 337.509 66.4467C337.509 66.4467 339.978 54.9813 329.219 51.9473C318.476 48.9134 292.053 55.0342 294.805 66.9583C294.805 66.9583 287.59 70.6978 296.516 90.9652C298.174 94.7576 304.541 101.108 304.541 101.108L334.51 95.1986Z" fill="#212121"/>
<path d="M331.793 86.2377C331.793 86.2377 339.625 82.1278 342.112 88.5661C344.599 95.0044 337.755 98.4264 332.816 96.4508C327.895 94.4752 331.793 86.2377 331.793 86.2377Z" fill="white" stroke="#212121" stroke-width="0.5" stroke-miterlimit="10"/>
<path d="M333.964 88.6722C332.006 90.1539 331.159 92.2176 332.023 94.5813C332.094 94.7577 332.235 94.793 332.359 94.74C333.029 95.1634 334.14 95.0046 334.757 94.6166C335.516 94.1227 336.08 93.3113 336.063 92.3764C336.063 91.0711 335.004 90.0127 333.823 90.048C334.158 89.6776 334.599 89.3601 335.163 89.0779C336.68 88.3194 338.268 88.4605 339.838 88.9368C340.067 89.0073 340.19 88.6369 339.979 88.5487C338.127 87.7902 335.71 87.3492 333.964 88.6722ZM332.605 93.6817C332.676 92.5528 332.835 91.5297 333.364 90.6654C334.193 90.8771 335.128 91.2651 335.093 92.2353C335.057 92.9056 334.652 93.5935 333.964 93.7699C333.47 93.8934 333.064 93.7346 332.605 93.6817Z" fill="#212121"/>
<path d="M298.896 86.2377C298.896 86.2377 291.082 82.1278 288.577 88.5661C286.09 95.0044 292.952 98.4264 297.873 96.4508C302.795 94.4752 298.896 86.2377 298.896 86.2377Z" fill="white" stroke="#212121" stroke-width="0.5" stroke-miterlimit="10"/>
<path d="M290.73 88.5487C290.518 88.6369 290.642 89.0073 290.871 88.9368C292.441 88.4605 294.029 88.3194 295.546 89.0779C296.11 89.3601 296.533 89.6776 296.886 90.048C295.704 90.0127 294.646 91.0887 294.646 92.3764C294.646 93.3113 295.193 94.1227 295.951 94.6166C296.569 95.0046 297.68 95.1634 298.35 94.74C298.474 94.7753 298.632 94.74 298.685 94.5813C299.55 92.2176 298.685 90.1362 296.745 88.6722C294.999 87.3492 292.582 87.7902 290.73 88.5487ZM296.745 93.7699C296.057 93.5935 295.634 92.9056 295.616 92.2353C295.563 91.2651 296.516 90.8771 297.345 90.6654C297.874 91.5297 298.033 92.5528 298.103 93.6817C297.645 93.7346 297.239 93.8934 296.745 93.7699Z" fill="#212121"/>
<path d="M296.973 70.2214C296.973 70.2214 296.55 88.1958 298.367 94.052C300.166 99.9258 308.598 106.47 315.371 106.84C322.145 106.488 330.558 99.9258 332.375 94.052C334.174 88.1781 333.804 67.3286 333.804 67.3286C333.804 67.3286 317.735 75.3015 296.973 70.2214Z" fill="white" stroke="#212120" stroke-width="0.5" stroke-miterlimit="10"/>
<path d="M311.12 97.9855C313.501 99.5201 315.777 100.596 318.475 98.9204C319.904 98.0384 320.663 96.2039 321.174 94.687C321.227 94.5106 321.527 94.5988 321.492 94.7752C321.033 97.0859 320.151 98.9204 317.964 99.9787C315.6 101.108 312.425 100.332 310.944 98.1795C310.855 98.056 310.996 97.9149 311.12 97.9855Z" fill="#212121"/>
<path d="M326.36 75.9013C326.572 76.0777 326.854 76.2012 327.084 76.3599C327.366 76.5363 327.613 76.7833 327.93 76.8715C327.983 76.8891 328.036 76.8362 328.018 76.7833C327.754 75.4603 325.831 74.1727 324.526 74.3314C324.261 74.3667 324.155 74.6666 324.385 74.8253C325.02 75.2487 325.743 75.4074 326.36 75.9013Z" fill="#212121"/>
<path d="M306.586 75.9013C306.375 76.0777 306.092 76.2012 305.863 76.3599C305.581 76.5363 305.334 76.7833 305.016 76.8715C304.964 76.8891 304.911 76.8362 304.928 76.7833C305.193 75.4603 307.116 74.1727 308.421 74.3314C308.685 74.3667 308.791 74.6666 308.562 74.8253C307.927 75.2487 307.204 75.4074 306.586 75.9013Z" fill="#212121"/>
<g opacity="0.4">
<path opacity="0.4" d="M327.666 85.5498C327.913 85.444 328.407 85.2676 328.53 85.2323C328.936 85.1265 329.394 85.0559 329.818 85.0912C331.423 85.25 333.328 86.1319 333.187 88.0722C333.187 88.1781 333.151 88.2839 333.134 88.3897C333.116 89.2541 332.64 90.1713 332.058 90.7181C331.405 91.3178 330.541 91.7588 329.677 91.8999C328.424 92.1116 327.26 91.847 326.29 91.018C325.408 90.2595 325.002 88.8131 325.408 87.7194C325.831 86.5905 326.607 86.0084 327.666 85.5498Z" fill="#E4E4E4"/>
<path opacity="0.4" d="M300.889 85.0913C301.313 85.0383 301.771 85.1265 302.177 85.2324C302.318 85.2676 302.794 85.4617 303.041 85.5499C304.1 86.0085 304.876 86.5906 305.299 87.7371C305.705 88.8308 305.281 90.2772 304.417 91.0357C303.447 91.8647 302.283 92.1293 301.03 91.9176C300.166 91.7765 299.284 91.3355 298.649 90.7358C298.067 90.189 297.591 89.2717 297.573 88.4074C297.555 88.3016 297.538 88.1957 297.52 88.0899C297.379 86.132 299.284 85.2676 300.889 85.0913Z" fill="#E4E4E4"/>
</g>
<path d="M321.368 87.2434C321.845 87.0846 321.845 86.6084 322.039 86.1674C322.356 85.4266 322.568 84.721 322.991 84.0331C323.256 83.6274 323.609 83.2922 323.997 83.01C324.843 82.3926 325.531 82.9747 326.007 83.6626C326.466 84.3329 326.59 85.1267 327.154 85.7264C327.366 85.9381 327.683 85.7088 327.63 85.4442C327.313 83.9272 325.955 80.9286 323.891 82.0575C322.797 82.6572 322.092 83.6274 321.598 84.7563C321.333 85.3384 320.751 86.7319 321.351 87.2434C321.333 87.2434 321.351 87.261 321.368 87.2434Z" fill="#212121"/>
<path d="M309.162 87.2434C308.686 87.0846 308.686 86.6084 308.492 86.1674C308.174 85.4266 307.963 84.721 307.539 84.0331C307.275 83.6274 306.922 83.2922 306.534 83.01C305.687 82.3926 304.999 82.9747 304.523 83.6626C304.065 84.3329 303.941 85.1267 303.377 85.7264C303.165 85.9381 302.847 85.7088 302.9 85.4442C303.218 83.9272 304.576 80.9286 306.64 82.0575C307.734 82.6572 308.439 83.6274 308.933 84.7563C309.198 85.3384 309.78 86.7319 309.18 87.2434C309.18 87.2434 309.18 87.261 309.162 87.2434Z" fill="#212121"/>
<path d="M353.876 242.45C353.876 242.45 348.179 138.274 341.476 126.543L325.989 121.393C325.989 121.393 316.34 137.409 315.335 137.709C314.329 137.409 304.68 121.393 304.68 121.393L289.193 126.543C282.49 138.274 276.793 242.45 276.793 242.45C324.048 252.699 353.876 242.45 353.876 242.45Z" fill="white" stroke="#212121" stroke-miterlimit="10"/>
<path d="M287.482 165.985C287.482 165.985 289.229 186.622 290.499 186.94C291.769 187.257 336.872 188.051 339.095 186.94C339.095 186.94 347.667 181.701 351.16 181.701C354.652 181.701 358.939 190.274 358.939 190.274L337.507 194.719C337.507 194.719 297.184 209.483 276.052 206.943C272.083 206.467 268.908 173.764 268.908 173.764L287.482 165.985Z" fill="white" stroke="#212120" stroke-width="0.5" stroke-miterlimit="10"/>
<path d="M292.351 145.664C293.216 160.587 291.787 179.726 291.787 179.726C291.787 179.726 276.846 183.589 264.781 177.556C264.781 177.556 270.073 134.411 289.176 126.543C289.176 126.543 291.857 137.25 292.351 145.664Z" fill="white" stroke="#212121" stroke-miterlimit="10"/>
<path d="M302.899 177.256C308.138 177.097 313.941 184.188 313.941 184.188L337.384 187.204L350.208 188.863L358.957 190.274C358.957 190.274 354.67 181.701 351.178 181.701C350.719 181.701 350.19 181.789 349.608 181.948L349.008 175.033L369.134 175.827C369.134 175.827 374.85 198.476 368.182 207.243C368.182 207.243 359.451 210.277 347.544 205.038C343.134 203.097 336.643 200.187 330.028 197.276C318.775 192.32 307.203 187.399 304.998 187.363C297.731 187.24 291.893 187.081 290.728 186.975C290.658 186.975 290.605 186.958 290.534 186.958C290.499 186.94 297.661 177.415 302.899 177.256Z" fill="white" stroke="#212121" stroke-width="0.5" stroke-miterlimit="10"/>
<path d="M340.771 145.911C341.811 160.834 345.657 179.726 345.657 179.726C345.657 179.726 361.673 185.264 374.426 176.886C374.426 176.886 361.426 131.906 341.494 126.543C341.476 126.543 340.171 137.515 340.771 145.911Z" fill="white" stroke="#212121" stroke-miterlimit="10"/>
<path d="M186.781 100.668C186.715 100.808 186.273 100.758 185.609 100.561C185.278 100.462 184.893 100.316 184.479 100.136C184.248 100.032 184.021 99.9474 183.834 99.8527C183.694 99.7864 183.68 99.8105 183.415 99.6539C183.342 99.6111 183.236 99.5158 183.148 99.334C183.061 99.1522 183.102 98.9167 183.14 98.8253C183.244 98.5942 183.249 98.6133 183.292 98.541C184.413 96.7815 185.537 95.5116 185.827 95.6824C186.097 95.8583 185.416 97.4228 184.295 99.1824L184.233 99.2596C184.339 99.3549 183.924 99.0936 183.886 99.1035C183.727 99.0421 183.795 99.1473 183.928 98.9496C183.957 98.9014 184.014 98.805 184.071 98.7087L184.095 98.7229L184.186 98.7607L184.35 98.8412C184.543 98.9551 184.755 99.0641 184.972 99.1923C185.357 99.4201 185.719 99.6337 185.993 99.8287C186.538 100.199 186.843 100.509 186.781 100.668Z" fill="#131313"/>
<path d="M317.365 93.0281C317.299 93.1678 316.857 93.1179 316.193 92.9207C315.862 92.8221 315.477 92.6759 315.063 92.4962C314.832 92.3922 314.605 92.3073 314.417 92.2125C314.278 92.1463 314.264 92.1704 313.999 92.0137C313.926 91.971 313.82 91.8757 313.732 91.6939C313.645 91.5121 313.686 91.2766 313.724 91.1851C313.828 90.954 313.833 90.9732 313.876 90.9009C314.997 89.1414 316.121 87.8714 316.411 88.0423C316.681 88.2181 316 89.7827 314.879 91.5422L314.817 91.6195C314.923 91.7148 314.508 91.4535 314.47 91.4634C314.311 91.402 314.379 91.5072 314.512 91.3095C314.541 91.2613 314.598 91.1649 314.655 91.0685L314.679 91.0828L314.77 91.1205L314.934 91.2011C315.127 91.315 315.339 91.424 315.556 91.5521C315.941 91.78 316.302 91.9936 316.577 92.1885C317.122 92.5593 317.427 92.8693 317.365 93.0281Z" fill="#131313"/>
</svg>
