<svg width="64" height="64" viewBox="0 0 64 64" fill="none" xmlns="http://www.w3.org/2000/svg">
<path fill-rule="evenodd" clip-rule="evenodd" d="M48.2765 61.7729L61.7691 48.2966C62.9133 47.1539 62.9133 45.2822 61.7691 44.1395L59.5445 41.9211C58.4004 40.7782 56.53 40.7782 55.3859 41.9211L55.3258 41.9776L41.95 55.3372L41.8932 55.3974C40.7491 56.5401 40.7491 58.4082 41.8932 59.551L44.1179 61.7729C44.3446 61.9994 44.6031 62.1834 44.8794 62.3212H47.5149C47.7913 62.1834 48.0463 61.9994 48.2765 61.7729Z" fill="#F8F8F5"/>
<path fill-rule="evenodd" clip-rule="evenodd" d="M41.951 55.3368L55.3268 41.9773L49.4749 36.1325C40.7113 31.1687 33.6162 42.547 35.5679 48.9613L41.951 55.3368Z" fill="#F8F8F5"/>
<path fill-rule="evenodd" clip-rule="evenodd" d="M16.2588 62.3211H18.8943C19.1707 62.1833 19.4257 61.9993 19.6559 61.7728L21.8805 59.5509C23.0247 58.4081 23.0247 56.54 21.8805 55.3973L21.8203 55.3371L8.44455 41.9776L8.3878 41.9211C7.24367 40.7782 5.3698 40.7782 4.22567 41.9211L2.00467 44.1395C0.860422 45.2822 0.860422 47.1539 2.00467 48.2966L15.4937 61.7729C15.7239 61.9993 15.9824 62.1833 16.2588 62.3211Z" fill="#FF8838"/>
<path fill-rule="evenodd" clip-rule="evenodd" d="M37.7347 47.8546L45.9952 39.6075L49.4739 36.1331L50.5685 35.04C51.7762 33.8299 51.7762 31.8558 50.5685 30.6493C49.3606 29.4393 47.3804 29.4393 46.1725 30.6493L47.2741 29.5454C48.4855 28.339 48.4855 26.3613 47.2741 25.1548C46.0661 23.9448 44.086 23.9448 42.8781 25.1548L43.9797 24.0509C45.1912 22.8445 45.1912 20.8668 43.9797 19.6603C42.7719 18.4538 40.7917 18.4538 39.5837 19.6603L40.689 18.56C41.8969 17.35 41.8969 15.3758 40.689 14.1658C39.9557 13.4369 38.9427 13.1469 37.9897 13.3025C37.3662 13.4016 36.7676 13.6881 36.2894 14.1658L31.8864 18.567L32.028 18.7085L32.0527 18.7334C33.2607 19.9398 33.2607 21.9175 32.0527 23.124C30.8449 24.334 28.8647 24.334 27.6567 23.124C28.8647 24.334 28.8647 26.3081 27.6567 27.5181C26.4454 28.7246 24.4687 28.7246 23.2572 27.5181C24.4687 28.7246 24.4687 30.7024 23.2572 31.9089C22.0494 33.1153 20.0727 33.1153 18.8612 31.9089C20.0727 33.1153 20.0727 35.0931 18.8612 36.2995C17.6534 37.5095 15.6732 37.5095 14.4652 36.2995L14.2987 36.1331L8.44336 41.978L21.819 55.3375L27.4087 49.7545C28.9921 48.1165 32.7009 49.5494 35.5666 48.962C36.3816 48.7958 37.1254 48.4631 37.7347 47.8546Z" fill="#F8F8F5"/>
<path fill-rule="evenodd" clip-rule="evenodd" d="M27.6584 23.1238C28.8664 24.3338 30.8465 24.3338 32.0544 23.1238C33.2624 21.9173 33.2624 19.9396 32.0544 18.7332L32.0296 18.7083C30.1629 18.574 26.5922 15.3367 26.3797 13.0652C25.1681 11.8552 23.1916 11.8552 21.9802 13.0652C20.7722 14.2717 20.7722 16.2495 21.9802 17.4558L23.0853 18.5597L27.6584 23.1238Z" fill="#F8F8F5"/>
<path fill-rule="evenodd" clip-rule="evenodd" d="M23.2594 27.518C24.4709 28.7245 26.4475 28.7245 27.6589 27.518C28.8669 26.308 28.8669 24.3338 27.6589 23.1238L23.0859 18.5598C21.8744 17.3498 19.8977 17.3498 18.6899 18.5598C17.4784 19.7662 17.4784 21.7405 18.6899 22.9505L19.7915 24.0508L23.2594 27.518Z" fill="#F8F8F5"/>
<path fill-rule="evenodd" clip-rule="evenodd" d="M18.8627 31.9088C20.0742 33.1151 22.0509 33.1151 23.2587 31.9088C24.4702 30.7023 24.4702 28.7245 23.2587 27.518L19.7909 24.0508C18.583 22.8444 16.6029 22.8444 15.3949 24.0508C14.1835 25.2608 14.1835 27.235 15.3949 28.445L17.6017 30.6491L18.8627 31.9088Z" fill="#F8F8F5"/>
<path fill-rule="evenodd" clip-rule="evenodd" d="M14.4674 36.2994C15.6754 37.5094 17.6555 37.5094 18.8634 36.2994C20.0749 35.0931 20.0749 33.1152 18.8634 31.9088L17.6024 30.6492C16.3909 29.4392 14.4143 29.4392 13.2029 30.6492C11.9949 31.8557 11.9949 33.8298 13.2029 35.0399L14.301 36.1331L14.4674 36.2994Z" fill="#F8F8F5"/>
<path fill-rule="evenodd" clip-rule="evenodd" d="M31.887 18.5667L36.29 14.1655C36.7682 13.6879 37.3668 13.4014 37.9903 13.3022L29.4852 11.6925C27.8062 11.374 26.2157 11.3635 26.3787 13.0652C26.5912 15.3366 30.1618 18.5739 32.0286 18.7084L31.887 18.5667Z" fill="#F8F8F5"/>
<path d="M31.8878 8.1325C32.583 8.1325 33.1466 7.56887 33.1466 6.87362V1.25888C33.1466 0.563625 32.583 0 31.8878 0C31.1925 0 30.6289 0.563625 30.6289 1.25888V6.87362C30.629 7.56887 31.1927 8.1325 31.8878 8.1325Z" fill="#212121"/>
<path d="M62.6596 43.248L60.4357 41.0304C59.6446 40.2402 58.5902 39.805 57.4667 39.805C56.7483 39.805 56.0587 39.9837 55.4476 40.3186L51.2568 36.1329L51.461 35.929C53.1611 34.2255 53.1605 31.4574 51.4608 29.7596C50.8535 29.1511 50.0956 28.7454 49.2695 28.5746C49.3832 28.182 49.4431 27.7707 49.4431 27.3499C49.4431 26.1805 48.9888 25.084 48.1666 24.2651C47.5591 23.6566 46.8013 23.2509 45.9752 23.0801C46.089 22.6875 46.1488 22.2764 46.1488 21.8554C46.1488 20.6859 45.6946 19.5895 44.871 18.7694C44.249 18.1481 43.4843 17.7549 42.6814 17.5875C43.111 16.1066 42.744 14.4405 41.579 13.2735C40.6093 12.3079 39.2933 11.8929 38.0252 12.0274L29.7208 10.4555C28.4543 10.2152 26.8727 10.0564 25.8745 10.967C25.8115 11.0245 25.7472 11.0906 25.6838 11.1642C24.1358 10.6 22.3305 10.936 21.0907 12.1742C20.2683 12.9956 19.8153 14.0916 19.8153 15.2604C19.8153 15.6814 19.875 16.0925 19.9886 16.4852C19.1633 16.6559 18.4065 17.0611 17.8011 17.6676C16.9771 18.4882 16.5227 19.583 16.5218 20.7504C16.5215 21.1724 16.5813 21.5849 16.6956 21.9786C15.87 22.1489 15.1126 22.5534 14.5053 23.1599C13.6813 23.983 13.2276 25.0796 13.2276 26.2477C13.2276 27.1426 13.4947 27.9949 13.9897 28.7149C13.3647 28.9267 12.7922 29.2794 12.3128 29.7582C10.6116 31.4574 10.611 34.2256 12.314 35.9316L12.5173 36.1341L8.32608 40.3177C6.76845 39.5844 4.84933 39.8591 3.56395 41.1429L1.3387 43.3619C0.547203 44.1524 0.111453 45.2069 0.111328 46.331C0.111328 47.4552 0.547203 48.5099 1.3387 49.3005L4.11583 52.0742C4.6077 52.5656 5.40483 52.5651 5.89608 52.0732C6.38745 51.5814 6.38695 50.7842 5.89508 50.293L3.11795 47.5192C2.8027 47.2044 2.62908 46.7824 2.62908 46.3311C2.62908 45.88 2.8027 45.4581 3.1172 45.144L5.34258 42.9249C5.89858 42.3694 6.74958 42.2867 7.39583 42.6731C7.44133 42.7415 7.49395 42.8066 7.5542 42.8669C7.66195 42.975 7.78508 43.0579 7.91595 43.1185L20.6776 55.8614C20.7382 55.9935 20.8215 56.1179 20.9301 56.2266C21.0358 56.3326 21.1565 56.4144 21.2845 56.4746C21.5543 56.7797 21.7035 57.1695 21.7035 57.5852C21.7035 58.0365 21.5298 58.4584 21.2146 58.7732L18.9915 60.9937C18.3346 61.6477 17.2661 61.6476 16.6112 60.9957L13.834 58.2184C13.3423 57.7267 12.5453 57.7267 12.0537 58.2182C11.5621 58.7099 11.562 59.5069 12.0536 59.9985L14.8327 62.7779C15.6508 63.5924 16.7251 63.9996 17.7997 63.9996C18.8747 63.9996 19.9502 63.5919 20.7692 62.7765L22.9937 60.5546C23.7852 59.764 24.2211 58.7095 24.2211 57.5851C24.2211 56.7827 23.998 56.0165 23.583 55.3557L28.3 50.6445C28.305 50.6394 28.3101 50.6342 28.3151 50.6292C28.8552 50.0709 30.3593 50.1754 31.814 50.2764C32.8475 50.3481 33.9997 50.4281 35.1255 50.2984L40.291 55.4577C39.9563 56.0679 39.7777 56.7566 39.7777 57.4739C39.7777 58.597 40.2136 59.6509 41.0051 60.4415L43.2297 62.6634C44.0207 63.4535 45.0751 63.8887 46.1986 63.8887C47.322 63.8887 48.3763 63.4535 49.1674 62.6634L62.6601 49.1871C63.4516 48.3966 63.8875 47.3421 63.8875 46.2179C63.8877 45.0937 63.4518 44.0392 62.6596 43.248ZM29.2521 12.9292L34.713 13.9629L31.4443 17.2302C30.9387 16.9872 30.2457 16.534 29.4855 15.8067C28.4448 14.8112 27.7003 13.6619 27.6327 12.945C27.6326 12.9446 27.6326 12.9442 27.6326 12.9439C27.6326 12.9437 27.6326 12.9436 27.6326 12.9435C27.6277 12.892 27.6265 12.8509 27.6271 12.8195C27.7915 12.7795 28.229 12.7351 29.2521 12.9292ZM22.8698 13.9556C23.5076 13.3185 24.4983 13.245 25.219 13.733C25.6273 15.4452 27.088 16.9971 27.7451 17.6259C28.2321 18.0919 29.7947 19.489 31.372 19.873C31.5853 20.1789 31.7015 20.5435 31.7015 20.9282C31.7015 21.4239 31.5108 21.8872 31.1635 22.2342C30.8171 22.5812 30.353 22.7722 29.8565 22.7722C29.3598 22.7722 28.8957 22.5812 28.5477 22.2326L28.5476 22.2325L28.547 22.2319L22.8697 16.5649C22.5236 16.2192 22.333 15.7559 22.333 15.2604C22.3331 14.7647 22.5237 14.3014 22.8698 13.9556ZM19.5803 19.449C19.9267 19.1021 20.3903 18.911 20.8861 18.911C21.3825 18.911 21.8476 19.1025 22.1962 19.4507L26.7677 24.0131C27.4876 24.7341 27.4876 25.9074 26.7702 26.6259C26.422 26.9727 25.9562 27.1637 25.4588 27.1637C24.9615 27.1637 24.4957 26.9727 24.149 26.6274L24.1488 26.6272L20.6807 23.1599C20.6753 23.1545 20.6695 23.1495 20.664 23.144L19.579 22.0595C19.2308 21.7117 19.0392 21.2475 19.0396 20.7522C19.0401 20.2586 19.2311 19.7967 19.5803 19.449ZM16.2846 24.9412C16.6312 24.5951 17.0958 24.4045 17.5931 24.4045C18.0862 24.4045 18.5468 24.5924 18.892 24.9325L22.3707 28.4096C22.7176 28.7551 22.9087 29.218 22.9087 29.713C22.9087 30.2079 22.7176 30.6707 22.3693 31.0176C22.0228 31.3636 21.5587 31.5542 21.0623 31.5542C20.5652 31.5542 20.0996 31.3631 19.7526 31.0176L18.4915 29.758C18.4912 29.7576 18.4908 29.7574 18.4906 29.7571L16.2847 27.5539C15.937 27.2065 15.7455 26.7425 15.7455 26.2475C15.7455 25.7526 15.937 25.2885 16.2846 24.9412ZM14.0921 31.5396C14.4402 31.1919 14.9055 31.0004 15.4021 31.0004C15.8985 31.0004 16.3636 31.1917 16.7117 31.5392L17.9746 32.8006C18.3215 33.1461 18.5126 33.609 18.5126 34.104C18.5126 34.599 18.3215 35.0617 17.972 35.41C17.6256 35.7569 17.1615 35.948 16.665 35.948C16.1683 35.948 15.7042 35.757 15.3553 35.4075L15.1972 35.25C15.1951 35.2479 15.1935 35.2456 15.1915 35.2436C15.1891 35.2414 15.1866 35.2394 15.1842 35.2371L14.0933 34.1505C13.3735 33.429 13.3728 32.2579 14.0921 31.5396ZM39.7463 45.8467C39.255 45.3547 38.4578 45.3544 37.9661 45.8456L36.8461 46.9641C35.7818 48.0284 33.8535 47.8944 31.9885 47.765C29.9633 47.6242 27.8692 47.479 26.5141 48.8702L21.8772 53.5015L10.2818 41.9231L14.3853 37.827C15.0636 38.2427 15.8462 38.4656 16.6651 38.4656C17.8348 38.4656 18.932 38.0121 19.7513 37.1912C20.5762 36.3697 21.0306 35.2734 21.0306 34.1039C21.0306 34.093 21.0298 34.0822 21.0298 34.0714C21.0407 34.0715 21.0516 34.0721 21.0625 34.0721C22.2307 34.0721 23.3268 33.62 24.1473 32.8005C24.9722 31.979 25.4266 30.8825 25.4266 29.7131C25.4266 29.7022 25.4258 29.6915 25.4258 29.6806C25.4368 29.6806 25.4478 29.6814 25.459 29.6814C26.6268 29.6814 27.7236 29.2297 28.5496 28.4071C29.4071 27.5482 29.8312 26.4175 29.8231 25.2891C29.8343 25.2891 29.8456 25.2899 29.8568 25.2899C31.0267 25.2899 32.1236 24.8364 32.9442 24.0142C33.7666 23.1929 34.2196 22.0969 34.2196 20.9281C34.2196 20.1109 33.9973 19.3295 33.583 18.6525L37.1796 15.0574C37.4476 14.7905 37.7781 14.623 38.1245 14.5539C38.1619 14.5499 38.199 14.5439 38.2356 14.5366C38.7913 14.46 39.375 14.6314 39.8 15.0547C40.5198 15.7759 40.5198 16.9491 39.8026 17.6676L38.7072 18.7585C38.7036 18.7621 38.6997 18.7654 38.6961 18.7691L37.4346 20.0286C36.9426 20.5199 36.9421 21.317 37.4335 21.8089C37.925 22.3009 38.722 22.3012 39.2137 21.81L40.3134 20.7117C40.3137 20.7115 40.3139 20.7112 40.3142 20.711L40.4804 20.5454C41.2023 19.8301 42.3718 19.8316 43.093 20.5517C43.44 20.8972 43.6311 21.3601 43.6311 21.8551C43.6311 22.35 43.44 22.8129 43.0902 23.1611L41.9886 24.265C41.9884 24.2651 41.9883 24.2652 41.9882 24.2655L40.7267 25.5219C40.2341 26.0125 40.2325 26.8096 40.7231 27.3021C41.2137 27.7947 42.0107 27.7962 42.5033 27.3057L43.7706 26.0436C44.117 25.6966 44.5811 25.5056 45.0776 25.5056C45.5742 25.5056 46.0385 25.6966 46.3873 26.0461C46.7343 26.3917 46.9253 26.8546 46.9253 27.3495C46.9253 27.8444 46.7343 28.3072 46.3853 28.6547L44.1891 30.8519C43.6976 31.3436 43.6977 32.1406 44.1893 32.6321C44.4352 32.8779 44.7572 33.0006 45.0793 33.0006C45.4016 33.0006 45.7238 32.8776 45.9696 32.6317L47.046 31.555C47.0521 31.5491 47.0587 31.544 47.0648 31.5379C47.4112 31.1909 47.8753 30.9999 48.3718 30.9999C48.8683 30.9999 49.3326 31.1909 49.6802 31.5391C50.3993 32.2575 50.3987 33.4287 49.6803 34.1485L48.586 35.2416C48.5856 35.242 48.5851 35.2424 48.5847 35.2427C48.5843 35.2431 48.584 35.2436 48.5836 35.244L46.8466 36.9789C46.3547 37.4702 46.3542 38.2672 46.8455 38.7592C47.0913 39.0054 47.4138 39.1285 47.7362 39.1285C48.0582 39.1285 48.3801 39.0057 48.6258 38.7604L49.4755 37.9117L53.5476 41.9791L41.9532 53.5594L37.799 49.4101C38.0886 49.2239 38.3657 49.0049 38.6258 48.7447L39.7452 47.6267C40.2372 47.1357 40.2377 46.3386 39.7463 45.8467ZM60.8811 47.4057L47.3885 60.882C47.0728 61.1972 46.6503 61.3709 46.1988 61.3709C45.7473 61.3709 45.3248 61.1972 45.0091 60.8819L42.7845 58.66C42.4692 58.3452 42.2956 57.924 42.2956 57.4739C42.2956 57.0239 42.4692 56.6026 42.7845 56.2877L56.2771 42.8115C56.5928 42.4961 57.0153 42.3225 57.4668 42.3225C57.9183 42.3225 58.3408 42.4961 58.6572 42.8122L60.8811 45.0299C61.1963 45.3447 61.37 45.7665 61.37 46.2177C61.37 46.6691 61.1963 47.091 60.8811 47.4057Z" fill="#212121"/>
<path d="M15.1717 7.07096C15.4174 7.31621 15.7392 7.43871 16.0609 7.43871C16.3834 7.43871 16.7061 7.31546 16.9519 7.06909C17.4431 6.57696 17.4423 5.77996 16.9502 5.28884L12.3629 0.710712C11.8709 0.219462 11.0738 0.220212 10.5827 0.712462C10.0916 1.20459 10.0923 2.00159 10.5844 2.49271L15.1717 7.07096Z" fill="#212121"/>
<path d="M47.7159 7.43915C48.0378 7.43915 48.3598 7.3164 48.6055 7.07103L53.1893 2.49278C53.6811 2.00153 53.6816 1.2044 53.1903 0.712528C52.699 0.220527 51.902 0.220153 51.41 0.711528L46.8263 5.28978C46.3344 5.78103 46.3339 6.57815 46.8252 7.07003C47.0711 7.31603 47.3935 7.43915 47.7159 7.43915Z" fill="#212121"/>
<path d="M7.85333 54.1503C7.36595 54.646 7.3727 55.4432 7.86858 55.9305L7.8722 55.934C8.11683 56.1745 8.43445 56.2943 8.75195 56.2943C9.07783 56.2943 9.4037 56.1682 9.65058 55.917C10.138 55.4213 10.1293 54.6224 9.63358 54.135C9.13783 53.6476 8.34083 53.6545 7.85333 54.1503Z" fill="#212121"/>
<path d="M42.8246 44.0333C43.0161 44.0333 43.2103 43.9897 43.3927 43.8978C44.0134 43.5847 44.2628 42.8277 43.9498 42.2069C43.6367 41.5862 42.8796 41.3367 42.2589 41.6498L42.2519 41.6533C41.6312 41.9664 41.3853 42.7217 41.6983 43.3424C41.9193 43.7809 42.3638 44.0333 42.8246 44.0333Z" fill="#212121"/>
</svg>
