<svg width="64" height="64" viewBox="0 0 64 64" fill="none" xmlns="http://www.w3.org/2000/svg">
<g clip-path="url(#clip0)">
<path d="M47.4307 39.219L55.8657 30.8723C59.0161 27.7219 65.0752 31.6965 61.8018 35.5476L51.5879 47.5642C51.188 48.0344 50.7285 48.4514 50.2217 48.8039C48.5752 49.8562 46.6143 50.2068 44.6821 50.2068H29.5249C28.4287 50.2068 27.333 50.2702 26.2441 50.3967L21.8848 50.8865L12.8428 42.112C12.8428 42.112 17.9722 32.4255 28.0342 35.2097C29.916 35.7307 31.8633 35.9787 33.8159 35.9787H43.7774C48.4668 35.9787 48.5039 43.4299 43.7383 43.4299H35.0664" fill="#F8F8F5"/>
<path d="M15.9448 62.3039L24.5469 53.4787C24.5493 53.4763 24.5493 53.4724 24.5469 53.4699L9.95069 39.3054C9.94825 39.3029 9.94434 39.3034 9.9419 39.3054L1.25879 48.32L15.9448 62.3039Z" fill="#F8F8F5"/>
<path d="M11.5806 12.9775C8.854 13.2358 6.7207 15.5317 6.7207 18.3262V24.0469C6.7207 25.0347 7.52148 25.8359 8.50977 25.8359H20.7773C21.7656 25.8359 22.5664 25.0347 22.5664 24.0469V18.3262C22.5664 15.5298 20.4302 13.2319 17.7002 12.9771" fill="#F8F8F5"/>
<path d="M20.6465 7.79492C20.6465 11.1104 17.959 13.7979 14.6436 13.7979C11.3281 13.7979 8.64062 11.1104 8.64062 7.79492C8.64062 4.47949 11.3281 1.7915 14.6436 1.7915C17.959 1.7915 20.6465 4.47949 20.6465 7.79492Z" fill="#F8F8F5"/>
<path d="M27.4258 12.9775C24.6992 13.2358 22.5654 15.5317 22.5654 18.3262V24.0469C22.5654 25.0347 23.3667 25.8359 24.355 25.8359H36.6226C37.6108 25.8359 38.4116 25.0347 38.4116 24.0469V18.3262C38.4116 15.5298 36.2749 13.2319 33.5454 12.9771" fill="#FF8838"/>
<path d="M36.4927 7.79492C36.4927 11.1104 33.8052 13.7979 30.4897 13.7979C27.1743 13.7979 24.4863 11.1104 24.4863 7.79492C24.4863 4.47949 27.1743 1.7915 30.4897 1.7915C33.8052 1.7915 36.4927 4.47949 36.4927 7.79492Z" fill="#FF8838"/>
<path d="M43.2725 12.9775C40.5454 13.2358 38.4121 15.5317 38.4121 18.3262V24.0469C38.4121 25.0347 39.2134 25.8359 40.2012 25.8359H52.4688C53.457 25.8359 54.2583 25.0347 54.2583 24.0469V18.3262C54.2583 15.5298 52.1216 13.2319 49.3916 12.9771" fill="#F8F8F5"/>
<path d="M52.3394 7.79492C52.3394 11.1104 49.6514 13.7979 46.3359 13.7979C43.0205 13.7979 40.333 11.1104 40.333 7.79492C40.333 4.47949 43.0205 1.7915 46.3359 1.7915C49.6514 1.7915 52.3394 4.47949 52.3394 7.79492Z" fill="#F8F8F5"/>
<path d="M62.4876 29.9458C61.5296 29.062 60.2264 28.5161 58.9119 28.4478C57.4193 28.3706 56.0208 28.9029 54.9793 29.9449L47.8631 36.9864C47.7225 36.7427 47.5618 36.5127 47.3817 36.2993C46.5062 35.2598 45.2259 34.6875 43.7772 34.6875H33.8153C31.9368 34.6875 30.1043 34.4439 28.369 33.9639C23.8446 32.7124 19.5223 33.6265 15.8685 36.6089C14.3826 37.8218 13.2986 39.1411 12.6131 40.1031L10.827 38.3697C10.5921 38.1416 10.2737 38.0122 9.94611 38.0122C9.94318 38.0122 9.94074 38.0122 9.93781 38.0122C9.59845 38.0147 9.27033 38.1558 9.03497 38.3999L0.351864 47.4141C0.119442 47.6553 -0.00702293 47.9795 0.000301294 48.3145C0.00762552 48.6499 0.147762 48.9683 0.390438 49.1993L15.0765 63.1831C15.3201 63.4151 15.6326 63.5308 15.9446 63.5308C16.2723 63.5308 16.5999 63.4034 16.8465 63.1504L25.4486 54.3252C25.6834 54.084 25.8138 53.7544 25.8074 53.4175C25.8011 53.0855 25.6619 52.7652 25.4237 52.5337L24.6746 51.8072L26.389 51.6143C27.4261 51.4937 28.4808 51.4327 29.5247 51.4327H44.6815C47.1444 51.4327 49.2362 50.8941 50.8993 49.8316C50.9129 49.8228 50.9266 49.8135 50.9403 49.8042C51.536 49.3902 52.0765 48.8994 52.5462 48.3462L62.7601 36.3301C64.5081 34.274 64.3988 31.708 62.4876 29.9458ZM15.9119 60.502L3.04376 48.2491L9.97589 41.0523L22.7689 53.4668L15.9119 60.502ZM60.8416 34.6992L50.6278 46.7159C50.3035 47.0972 49.932 47.4361 49.5223 47.7232C48.2738 48.5137 46.6453 48.9151 44.6815 48.9151H29.5242C28.3841 48.9151 27.2313 48.982 26.1029 49.1133L22.3343 49.5362L14.4437 41.8789C14.992 41.0659 16.0003 39.752 17.4608 38.5596C20.4969 36.0811 23.9412 35.3511 27.6976 36.3907C29.6517 36.9312 31.7098 37.2056 33.8153 37.2056H43.7772C45.5662 37.2056 46.0438 38.7554 46.0438 39.6709C46.0438 40.3399 45.8289 40.9766 45.4544 41.418C45.0482 41.896 44.4705 42.1382 43.7376 42.1382H35.0657C34.3704 42.1382 33.807 42.7022 33.807 43.3975C33.807 44.0928 34.3704 44.6563 35.0657 44.6563H43.7376C45.2015 44.6563 46.4925 44.085 47.3734 43.0479C48.1063 42.1856 48.5243 41.0518 48.5594 39.8399L56.7552 31.73C57.9266 30.5586 59.7567 30.8526 60.7806 31.7969C61.3099 32.2852 62.0218 33.3111 60.8416 34.6992Z" fill="#212121"/>
<path d="M31.1391 43.0622C30.9805 42.3849 30.3032 41.9655 29.626 42.1237C28.9492 42.2824 28.5288 42.9596 28.688 43.6369L28.6997 43.6882C28.8359 44.2682 29.353 44.6598 29.9243 44.6598C30.0195 44.6598 30.1162 44.6491 30.2129 44.6266C30.8901 44.4679 31.31 43.7902 31.1514 43.1134L31.1391 43.0622Z" fill="#212121"/>
<path d="M8.51025 27.0625H20.7778C21.4458 27.0625 22.064 26.8457 22.5669 26.4795C23.0698 26.8457 23.688 27.0625 24.356 27.0625H36.624C37.292 27.0625 37.9102 26.8457 38.4131 26.4795C38.916 26.8457 39.5342 27.0625 40.2022 27.0625H52.4697C54.1504 27.0625 55.5176 25.6948 55.5176 24.0142V18.2935C55.5176 15.7241 54.0796 13.4922 51.9272 12.3911C52.9702 11.1333 53.5982 9.52002 53.5982 7.76221C53.5982 3.75781 50.3403 0.5 46.3359 0.5C42.3315 0.5 39.0737 3.75781 39.0737 7.76221C39.0737 9.52002 39.7017 11.1338 40.7446 12.3911C39.8145 12.8677 39.0181 13.5557 38.4131 14.3901C37.8081 13.5552 37.0117 12.8672 36.0811 12.3911C37.124 11.1338 37.752 9.52002 37.752 7.76221C37.752 3.75781 34.4941 0.5 30.4897 0.5C26.4854 0.5 23.2275 3.75781 23.2275 7.76221C23.2275 9.52002 23.856 11.1338 24.8989 12.3916C23.9683 12.8677 23.1719 13.5557 22.5669 14.3906C21.9619 13.5557 21.1655 12.8677 20.2349 12.3911C21.2778 11.1338 21.9058 9.52002 21.9058 7.7627C21.9058 3.75781 18.648 0.5 14.6436 0.5C10.6396 0.5 7.38184 3.75781 7.38184 7.7627C7.38184 9.52002 8.00977 11.1338 9.05273 12.3916C6.90039 13.4927 5.46191 15.7251 5.46191 18.2939V24.0142C5.46191 25.6948 6.82959 27.0625 8.51025 27.0625ZM46.3364 3.01807C48.9522 3.01807 51.0806 5.146 51.0806 7.76221C51.0806 10.3779 48.9522 12.5064 46.3364 12.5064C43.7202 12.5064 41.5923 10.3784 41.5923 7.76221C41.5918 5.146 43.7202 3.01807 46.3364 3.01807ZM43.0654 14.2432C44.0493 14.7417 45.1602 15.0244 46.3359 15.0244C47.5122 15.0244 48.6231 14.7417 49.6064 14.2432C51.563 14.584 53 16.27 53 18.2935V24.0142C53 24.3066 52.7622 24.5444 52.4697 24.5444H40.2022C39.9102 24.5444 39.6724 24.3066 39.6724 24.0142V18.2935C39.6719 16.2705 41.1094 14.584 43.0654 14.2432ZM30.4902 3.01807C33.106 3.01807 35.2344 5.146 35.2344 7.76221C35.2344 10.3779 33.106 12.5064 30.4902 12.5064C27.874 12.5064 25.7461 10.3784 25.7461 7.76221C25.7461 5.146 27.874 3.01807 30.4902 3.01807ZM27.2197 14.2432C28.2031 14.7417 29.314 15.0244 30.4902 15.0244C31.6665 15.0244 32.7769 14.7417 33.7607 14.2432C35.7168 14.584 37.1543 16.27 37.1543 18.2935V24.0142C37.1543 24.3066 36.9165 24.5444 36.624 24.5444H24.3564C24.064 24.5444 23.8262 24.3066 23.8262 24.0142V18.2935C23.8262 16.2705 25.2637 14.584 27.2197 14.2432ZM14.644 3.01807C17.2598 3.01807 19.3882 5.146 19.3882 7.76221C19.3882 10.3779 17.2598 12.5064 14.644 12.5064C12.0283 12.5064 9.8999 10.3779 9.8999 7.76221C9.8999 5.146 12.0283 3.01807 14.644 3.01807ZM7.97998 18.2935C7.97998 16.2705 9.41748 14.584 11.3735 14.2432C12.3574 14.7417 13.4678 15.0244 14.644 15.0244C15.8203 15.0244 16.9307 14.7417 17.9146 14.2432C19.8711 14.584 21.3081 16.27 21.3081 18.2935V24.0142C21.3081 24.3066 21.0703 24.5444 20.7778 24.5444H8.51025C8.21777 24.5444 7.97998 24.3066 7.97998 24.0142V18.2935Z" fill="#212121"/>
</g>
<defs>
<clipPath id="clip0">
<rect width="64" height="64" fill="white"/>
</clipPath>
</defs>
</svg>
