<svg width="64" height="64" viewBox="0 0 64 64" fill="none" xmlns="http://www.w3.org/2000/svg">
<path d="M59 12.875C61.0713 12.875 62.75 14.5538 62.75 16.625C62.75 18.6962 61.0713 20.375 59 20.375C58.5588 20.375 58.1425 20.285 57.75 20.145V27H50.895C51.035 27.3925 51.125 27.8088 51.125 28.25C51.125 30.3213 49.4462 32 47.375 32C45.3038 32 43.625 30.3213 43.625 28.25C43.625 27.8088 43.715 27.3925 43.855 27H37V20.145C37.3925 20.285 37.8088 20.375 38.25 20.375C40.3212 20.375 42 18.6962 42 16.625C42 14.5538 40.3212 12.875 38.25 12.875C37.8088 12.875 37.3925 12.965 37 13.105V6.25H57.75V13.105C58.1425 12.965 58.5588 12.875 59 12.875Z" fill="#F8F8F5"/>
<path d="M57.75 37V57.75H50.895C51.035 58.1425 51.125 58.5588 51.125 59C51.125 61.0713 49.4463 62.75 47.375 62.75C45.3038 62.75 43.625 61.0713 43.625 59C43.625 58.5588 43.715 58.1425 43.855 57.75H37V50.895C36.6075 51.035 36.1912 51.125 35.75 51.125C33.6788 51.125 32 49.4462 32 47.375C32 45.3038 33.6788 43.625 35.75 43.625C36.1912 43.625 36.6075 43.715 37 43.855V37H43.855C43.715 37.3925 43.625 37.8088 43.625 38.25C43.625 40.3212 45.3038 42 47.375 42C49.4463 42 51.125 40.3212 51.125 38.25C51.125 37.8088 51.035 37.3925 50.895 37H57.75Z" fill="#F8F8F5"/>
<path d="M28.25 12.875C30.3213 12.875 32 14.5538 32 16.625C32 18.6963 30.3213 20.375 28.25 20.375C27.8088 20.375 27.3925 20.285 27 20.145V27H20.145C20.285 26.6075 20.375 26.1912 20.375 25.75C20.375 23.6787 18.6962 22 16.625 22C14.5538 22 12.875 23.6787 12.875 25.75C12.875 26.1912 12.965 26.6075 13.105 27H6.25V6.25H13.105C12.965 5.8575 12.875 5.44125 12.875 5C12.875 2.92875 14.5538 1.25 16.625 1.25C18.6962 1.25 20.375 2.92875 20.375 5C20.375 5.44125 20.285 5.8575 20.145 6.25H27V13.105C27.3925 12.965 27.8088 12.875 28.25 12.875Z" fill="#FF8838"/>
<path d="M27 50.895V57.75H6.25V50.895C5.8575 51.035 5.44125 51.125 5 51.125C2.92875 51.125 1.25 49.4463 1.25 47.375C1.25 45.3038 2.92875 43.625 5 43.625C5.44125 43.625 5.8575 43.715 6.25 43.855V37H13.105C12.965 36.6075 12.875 36.1912 12.875 35.75C12.875 33.6788 14.5538 32 16.625 32C18.6963 32 20.375 33.6788 20.375 35.75C20.375 36.1912 20.285 36.6075 20.145 37H27V43.855C26.6075 43.715 26.1912 43.625 25.75 43.625C23.6787 43.625 22 45.3038 22 47.375C22 49.4463 23.6787 51.125 25.75 51.125C26.1912 51.125 26.6075 51.035 27 50.895Z" fill="#F8F8F5"/>
<path d="M5 42.375C2.243 42.375 0 44.618 0 47.375C0 50.132 2.243 52.375 5 52.375V57.75C5 58.4404 5.55963 59 6.25 59H27C27.6904 59 28.25 58.4404 28.25 57.75V50.895C28.25 50.4886 28.0524 50.1076 27.7204 49.8734C27.3883 49.6392 26.963 49.5811 26.5802 49.7176C26.2832 49.8235 26.0116 49.875 25.75 49.875C24.3715 49.875 23.25 48.7535 23.25 47.375C23.25 45.9965 24.3715 44.875 25.75 44.875C26.0116 44.875 26.2832 44.9265 26.5802 45.0324C26.9631 45.1691 27.3884 45.1108 27.7204 44.8766C28.0525 44.6424 28.25 44.2614 28.25 43.855V37C28.25 36.3096 27.6904 35.75 27 35.75H21.625C21.625 32.993 19.382 30.75 16.625 30.75C13.868 30.75 11.625 32.993 11.625 35.75H6.25C5.55963 35.75 5 36.3096 5 37V42.375ZM5.83025 45.0324C6.21312 45.1691 6.63838 45.1108 6.97038 44.8766C7.3025 44.6424 7.5 44.2614 7.5 43.855V38.25H13.105C13.5114 38.25 13.8924 38.0524 14.1266 37.7204C14.3608 37.3882 14.4189 36.963 14.2824 36.5802C14.1765 36.2832 14.125 36.0116 14.125 35.75C14.125 34.3715 15.2465 33.25 16.625 33.25C18.0035 33.25 19.125 34.3715 19.125 35.75C19.125 36.0116 19.0735 36.2832 18.9676 36.5802C18.8311 36.963 18.8892 37.3882 19.1234 37.7204C19.3576 38.0525 19.7386 38.25 20.145 38.25H25.75V42.375C22.993 42.375 20.75 44.618 20.75 47.375C20.75 50.132 22.993 52.375 25.75 52.375V56.5H7.5V50.895C7.5 50.4886 7.30237 50.1076 6.97038 49.8734C6.63825 49.6392 6.213 49.5811 5.83025 49.7176C5.53325 49.8235 5.26162 49.875 5 49.875C3.6215 49.875 2.5 48.7535 2.5 47.375C2.5 45.9965 3.6215 44.875 5 44.875C5.26162 44.875 5.53325 44.9265 5.83025 45.0324Z" fill="#212121"/>
<path d="M59 11.625V6.25C59 5.55963 58.4404 5 57.75 5H37C36.3096 5 35.75 5.55963 35.75 6.25V13.105C35.75 13.5114 35.9476 13.8924 36.2796 14.1266C36.6119 14.3608 37.037 14.419 37.4198 14.2824C37.7168 14.1765 37.9883 14.125 38.25 14.125C39.6285 14.125 40.75 15.2465 40.75 16.625C40.75 18.0035 39.6285 19.125 38.25 19.125C37.9884 19.125 37.7168 19.0735 37.4198 18.9676C37.037 18.8311 36.6117 18.8892 36.2796 19.1234C35.9475 19.3576 35.75 19.7386 35.75 20.145V27C35.75 27.6904 36.3096 28.25 37 28.25H42.375C42.375 31.007 44.618 33.25 47.375 33.25C50.132 33.25 52.375 31.007 52.375 28.25H57.75C58.4404 28.25 59 27.6904 59 27V21.625C61.757 21.625 64 19.382 64 16.625C64 13.868 61.757 11.625 59 11.625ZM59 19.125C58.7384 19.125 58.4668 19.0735 58.1698 18.9676C57.787 18.8311 57.3617 18.8892 57.0296 19.1234C56.6975 19.3576 56.5 19.7386 56.5 20.145V25.75H50.895C50.4886 25.75 50.1076 25.9476 49.8734 26.2796C49.6392 26.6117 49.5811 27.037 49.7176 27.4198C49.8235 27.7168 49.875 27.9883 49.875 28.25C49.875 29.6285 48.7535 30.75 47.375 30.75C45.9965 30.75 44.875 29.6285 44.875 28.25C44.875 27.9884 44.9265 27.7168 45.0324 27.4198C45.1689 27.037 45.1108 26.6117 44.8766 26.2796C44.6424 25.9475 44.2614 25.75 43.855 25.75H38.25V21.625C41.007 21.625 43.25 19.382 43.25 16.625C43.25 13.868 41.007 11.625 38.25 11.625V7.5H56.5V13.105C56.5 13.5114 56.6976 13.8924 57.0296 14.1266C57.3619 14.3608 57.7869 14.419 58.1698 14.2824C58.4668 14.1765 58.7383 14.125 59 14.125C60.3785 14.125 61.5 15.2465 61.5 16.625C61.5 18.0035 60.3785 19.125 59 19.125Z" fill="#212121"/>
<path d="M27 5H21.625C21.625 2.243 19.382 0 16.625 0C13.868 0 11.625 2.243 11.625 5H6.25C5.55963 5 5 5.55963 5 6.25V27C5 27.6904 5.55963 28.25 6.25 28.25H13.105C13.5114 28.25 13.8924 28.0524 14.1266 27.7204C14.3608 27.3883 14.4189 26.963 14.2824 26.5802C14.1765 26.2832 14.125 26.0116 14.125 25.75C14.125 24.3715 15.2465 23.25 16.625 23.25C18.0035 23.25 19.125 24.3715 19.125 25.75C19.125 26.0116 19.0735 26.2832 18.9676 26.5802C18.8311 26.963 18.8892 27.3883 19.1234 27.7204C19.3576 28.0525 19.7386 28.25 20.145 28.25H27C27.6904 28.25 28.25 27.6904 28.25 27V21.625C31.007 21.625 33.25 19.382 33.25 16.625C33.25 13.868 31.007 11.625 28.25 11.625V6.25C28.25 5.55963 27.6904 5 27 5ZM30.75 16.625C30.75 18.0035 29.6285 19.125 28.25 19.125C27.9884 19.125 27.7168 19.0735 27.4198 18.9676C27.0369 18.8311 26.6117 18.8892 26.2796 19.1234C25.9475 19.3576 25.75 19.7386 25.75 20.145V25.75H21.625C21.625 22.993 19.382 20.75 16.625 20.75C13.868 20.75 11.625 22.993 11.625 25.75H7.5V7.5H13.105C13.5114 7.5 13.8924 7.30237 14.1266 6.97038C14.3608 6.63825 14.4189 6.213 14.2824 5.83025C14.1765 5.53325 14.125 5.26162 14.125 5C14.125 3.6215 15.2465 2.5 16.625 2.5C18.0035 2.5 19.125 3.6215 19.125 5C19.125 5.26162 19.0735 5.53325 18.9676 5.83025C18.8311 6.213 18.8892 6.63825 19.1234 6.97038C19.3576 7.3025 19.7386 7.5 20.145 7.5H25.75V13.105C25.75 13.5114 25.9476 13.8924 26.2796 14.1266C26.6117 14.3608 27.0369 14.419 27.4198 14.2824C27.7168 14.1765 27.9883 14.125 28.25 14.125C29.6285 14.125 30.75 15.2465 30.75 16.625Z" fill="#212121"/>
<path d="M57.75 48.625C58.4404 48.625 59 48.0654 59 47.375C59 46.6846 58.4404 46.125 57.75 46.125C57.0596 46.125 56.5 46.6846 56.5 47.375C56.5 48.0654 57.0596 48.625 57.75 48.625Z" fill="#212121"/>
<path d="M44.8766 36.2796C44.6424 35.9475 44.2614 35.75 43.855 35.75H37C36.3096 35.75 35.75 36.3096 35.75 37V42.375C32.993 42.375 30.75 44.618 30.75 47.375C30.75 50.132 32.993 52.375 35.75 52.375V57.75C35.75 58.4404 36.3096 59 37 59H42.375C42.375 61.757 44.618 64 47.375 64C50.132 64 52.375 61.757 52.375 59H57.75C58.4404 59 59 58.4404 59 57.75V53C59 52.3096 58.4404 51.75 57.75 51.75C57.0596 51.75 56.5 52.3096 56.5 53V56.5H50.895C50.4886 56.5 50.1076 56.6976 49.8734 57.0296C49.6392 57.3617 49.5811 57.787 49.7176 58.1698C49.8235 58.4668 49.875 58.7383 49.875 59C49.875 60.3785 48.7535 61.5 47.375 61.5C45.9965 61.5 44.875 60.3785 44.875 59C44.875 58.7384 44.9265 58.4668 45.0324 58.1698C45.1689 57.787 45.1108 57.3617 44.8766 57.0296C44.6424 56.6975 44.2614 56.5 43.855 56.5H38.25V50.895C38.25 50.4886 38.0524 50.1076 37.7204 49.8734C37.3881 49.6392 36.9631 49.5811 36.5802 49.7176C36.2832 49.8235 36.0116 49.875 35.75 49.875C34.3715 49.875 33.25 48.7535 33.25 47.375C33.25 45.9965 34.3715 44.875 35.75 44.875C36.0116 44.875 36.2832 44.9265 36.5802 45.0324C36.9631 45.1691 37.3884 45.1108 37.7204 44.8766C38.0525 44.6424 38.25 44.2614 38.25 43.855V38.25H42.375C42.375 41.007 44.618 43.25 47.375 43.25C50.132 43.25 52.375 41.007 52.375 38.25H56.5V41.75C56.5 42.4404 57.0596 43 57.75 43C58.4404 43 59 42.4404 59 41.75V37C59 36.3096 58.4404 35.75 57.75 35.75H50.895C50.4886 35.75 50.1076 35.9476 49.8734 36.2796C49.6392 36.6117 49.5811 37.037 49.7176 37.4198C49.8235 37.7168 49.875 37.9883 49.875 38.25C49.875 39.6285 48.7535 40.75 47.375 40.75C45.9965 40.75 44.875 39.6285 44.875 38.25C44.875 37.9884 44.9265 37.7168 45.0324 37.4198C45.1689 37.037 45.1108 36.6119 44.8766 36.2796Z" fill="#212121"/>
</svg>
