<svg width="64" height="64" viewBox="0 0 64 64" fill="none" xmlns="http://www.w3.org/2000/svg">
<path d="M10.7109 36.1123H23.8555L36.6001 41.3877C38.8291 42.3101 39.8794 44.873 38.939 47.0947L38.8955 47.1968C37.9473 49.4365 35.417 50.5102 33.1685 49.6431C29.5518 48.248 24.8086 46.4248 24.8086 46.4248L37.021 51.1196C39.5967 52.1099 42.4097 52.31 45.0996 51.6938L57.6113 48.8291C59.9043 48.3042 62.1807 49.7651 62.6592 52.0679C63.1167 54.2681 61.7607 56.438 59.5825 56.9917L44.6538 60.7861C41.8389 61.5015 38.8706 61.3159 36.1665 60.2554L16.8994 52.6987H10.7109V36.1123Z" fill="#F8F8F5"/>
<path d="M10.7109 36.1123H23.8555L36.6001 41.3877C38.8291 42.3101 39.8794 44.873 38.939 47.0947L38.8955 47.1968C37.9473 49.4365 35.417 50.5102 33.1685 49.6431C29.5518 48.248 24.8086 46.4248 24.8086 46.4248L37.021 51.1196C39.5967 52.1099 42.4097 52.31 45.0996 51.6938L57.6113 48.8291C59.9043 48.3042 62.1807 49.7651 62.6592 52.0679C63.1167 54.2681 61.7607 56.438 59.5825 56.9917L44.6538 60.7861C41.8389 61.5015 38.8706 61.3159 36.1665 60.2554L16.8994 52.6987H10.7109V36.1123Z" fill="#F8F8F5"/>
<path d="M1.25 33.1646H10.7119V55.1367H1.25V33.1646Z" fill="#F8F8F5"/>
<path d="M27.1343 22.4839V37.4688L23.856 36.1118H15.9961V22.4839H27.1343Z" fill="#F8F8F5"/>
<path d="M38.2749 14.3276V42.6172C37.8394 42.0952 37.2744 41.667 36.6011 41.3877L27.1367 37.4702V14.29L38.2749 14.3276Z" fill="#FF8838"/>
<path d="M49.4121 28.9263V50.707L45.1001 51.6938C42.8398 52.2114 40.4927 52.1533 38.2734 51.5342V48.2466C38.5215 47.9346 38.7319 47.5835 38.8955 47.1973L38.938 47.0952C39.5952 45.5435 39.2817 43.8267 38.2734 42.6172V28.9263H49.4121Z" fill="#F8F8F5"/>
<path d="M55.4658 17.2305C55.4658 18.2734 54.6206 19.1187 53.5776 19.1187C52.5347 19.1187 51.6895 18.2734 51.6895 17.2305C51.6895 16.1875 52.5347 15.3423 53.5776 15.3423C54.6206 15.3423 55.4658 16.1875 55.4658 17.2305Z" fill="#F8F8F5"/>
<path d="M48.5244 8.17139C48.5244 9.21387 47.6792 10.0596 46.6362 10.0596C45.5933 10.0596 44.748 9.21387 44.748 8.17139C44.748 7.12842 45.5933 6.2832 46.6362 6.2832C47.6792 6.2832 48.5244 7.12842 48.5244 8.17139Z" fill="#F8F8F5"/>
<path d="M63.8843 51.8135C63.584 50.3682 62.7344 49.1333 61.4917 48.3359C60.249 47.5391 58.7729 47.2817 57.3335 47.6108L50.6626 49.1382V46.4111C52.0005 45.1509 53.3936 43.5054 54.3843 42.0015C56.1216 39.3643 57.3511 36.4683 58.0386 33.3955C58.856 29.7397 58.8735 25.8696 58.0889 22.2021C57.9443 21.5273 57.2798 21.0967 56.605 21.2417C55.9297 21.3857 55.5 22.0503 55.644 22.7256C56.354 26.0425 56.3384 29.5435 55.5986 32.8496C54.9775 35.626 53.8662 38.2427 52.2964 40.626C51.8311 41.3325 51.2666 42.0737 50.6626 42.7817V28.9263C50.6626 28.2358 50.103 27.6763 49.4126 27.6763H39.5244V14.3276C39.5244 13.6392 38.9673 13.0801 38.2788 13.0776L27.1406 13.04C27.1392 13.04 27.1382 13.04 27.1367 13.04C26.8057 13.04 26.4883 13.1709 26.2544 13.4048C26.019 13.6392 25.8867 13.9575 25.8867 14.29V21.2339H15.9971C15.3071 21.2339 14.7471 21.7935 14.7471 22.4839V34.8623H11.9619V33.1646C11.9619 32.4746 11.4023 31.915 10.7119 31.915H9.42969C9.21143 30.7134 9.08496 29.4927 9.05518 28.2739C8.98193 25.3105 9.45166 22.4111 10.4507 19.6553C10.6836 19.0127 10.9482 18.3721 11.2368 17.752C11.5283 17.126 11.2568 16.3823 10.6313 16.0908C10.0054 15.8003 9.26172 16.0708 8.9707 16.6968C8.65088 17.3833 8.35791 18.0923 8.10059 18.8032C6.99512 21.8525 6.47559 25.0601 6.55566 28.3354C6.58545 29.5327 6.69971 30.731 6.89355 31.915H1.25C0.55957 31.915 0 32.4746 0 33.165V55.1367C0 55.8271 0.55957 56.3867 1.25 56.3867H10.7119C11.4023 56.3867 11.9619 55.8271 11.9619 55.1367V53.9482H16.6641L35.7114 61.4189C37.4897 62.1167 39.3525 62.4678 41.2251 62.4678C42.4736 62.4678 43.7275 62.3115 44.9624 61.9976L59.8916 58.2031C62.7256 57.4829 64.479 54.6763 63.8843 51.8135ZM48.1631 30.1763V49.7104L44.8213 50.4756C44.4619 50.5576 44.0986 50.6226 43.7334 50.6733C42.3408 50.8652 40.9199 50.8247 39.542 50.5518C39.5361 50.5503 39.5303 50.5493 39.5244 50.5479V48.6523C40.4775 47.2305 40.7935 45.4277 40.2939 43.7822C40.1548 43.3232 39.957 42.8804 39.7056 42.4717C39.6484 42.3789 39.5889 42.2881 39.5269 42.1992C39.5264 42.1978 39.5254 42.1968 39.5244 42.1953V30.1758H48.1631V30.1763ZM28.3867 15.5444L37.0249 15.5732V40.21L32.1973 38.2119L28.3867 36.6343V15.5444ZM17.2471 23.7339H25.8853V35.5986L24.335 34.957C24.1831 34.894 24.0205 34.8618 23.8569 34.8618H17.2471V23.7339ZM9.46191 53.8867H2.5V34.4146H8.39746C8.3999 34.4146 8.40283 34.415 8.40576 34.415C8.4082 34.415 8.41016 34.4146 8.4126 34.4146H9.46191V53.8867ZM59.2759 55.7803L44.3467 59.5747C41.7695 60.2295 39.0991 60.062 36.624 59.0918L17.3569 51.5347C17.2114 51.4775 17.0566 51.4487 16.9004 51.4487H11.9619V37.3623H23.6079L31.6958 40.71L36.1216 42.542C37.6875 43.1914 38.437 45.0283 37.7949 46.5923C37.666 46.9062 37.5063 47.2046 37.2944 47.4707C36.5117 48.4585 35.2231 48.894 34.0181 48.6011C34.0083 48.5986 33.9985 48.5962 33.9888 48.5938C33.9165 48.5757 33.8447 48.5547 33.7734 48.5312L25.3628 45.2979C25.2944 45.2715 25.2583 45.2578 25.2583 45.2578C24.6143 45.0098 23.8911 45.3315 23.6431 45.9761C23.3955 46.6201 23.7168 47.3438 24.3613 47.5913C24.3613 47.5913 29.1035 49.4146 32.7197 50.8091C32.7925 50.8374 32.8647 50.8638 32.9375 50.8882L35.7144 51.9561C36.5537 52.2788 37.3892 52.6001 38.2627 52.8232C39.7461 53.2021 41.2856 53.3545 42.8149 53.271C43.6772 53.2241 44.5381 53.105 45.3799 52.9126L49.6919 51.9258C49.6963 51.9248 49.7007 51.9229 49.7051 51.9219L57.8916 50.0479C58.6704 49.8696 59.4697 50.0088 60.1416 50.4399C60.8145 50.8716 61.2739 51.54 61.4365 52.3223C61.7588 53.8716 60.8096 55.3906 59.2759 55.7803Z" fill="#212121"/>
<path d="M15.9847 10.5156C16.2835 10.5156 16.5833 10.4092 16.8221 10.1934C19.0525 8.17871 21.7161 6.57177 24.5262 5.5459C27.5706 4.43457 30.908 3.96045 34.178 4.17529C36.5184 4.3291 38.8113 4.82861 40.993 5.65967C41.6375 5.90527 42.3602 5.58203 42.6058 4.93652C42.8519 4.2915 42.5281 3.56933 41.8826 3.32373C39.4685 2.40381 36.9314 1.85107 34.3421 1.68066C30.7278 1.44336 27.0369 1.96777 23.6687 3.19775C20.5599 4.33252 17.6131 6.11035 15.1468 8.33789C14.6341 8.80078 14.594 9.59131 15.0569 10.1035C15.3035 10.377 15.6433 10.5156 15.9847 10.5156Z" fill="#212121"/>
<path d="M44.3618 19.4365C44.5986 19.6421 44.8906 19.7427 45.1811 19.7427C45.5302 19.7427 45.8779 19.5972 46.1255 19.313L56.4096 7.47463C56.8628 6.95363 56.8071 6.16408 56.2861 5.71145C55.7646 5.25881 54.9756 5.31398 54.5229 5.83498L44.2383 17.6734C43.7851 18.1944 43.8408 18.9839 44.3618 19.4365Z" fill="#212121"/>
<path d="M53.5776 14.0923C51.8472 14.0923 50.4395 15.5 50.4395 17.2305C50.4395 18.9609 51.8472 20.3687 53.5776 20.3687C55.3081 20.3687 56.7158 18.9604 56.7158 17.2305C56.7158 15.5 55.3081 14.0923 53.5776 14.0923ZM53.5776 17.8687C53.2256 17.8687 52.9395 17.5825 52.9395 17.2305C52.9395 16.8789 53.2256 16.5923 53.5776 16.5923C53.9292 16.5923 54.2158 16.8789 54.2158 17.2305C54.2158 17.5825 53.9292 17.8687 53.5776 17.8687Z" fill="#212121"/>
<path d="M46.6362 11.3096C48.3667 11.3096 49.7744 9.90186 49.7744 8.17139C49.7744 6.44092 48.3667 5.0332 46.6362 5.0332C44.9058 5.0332 43.498 6.44092 43.498 8.17139C43.498 9.90186 44.9058 11.3096 46.6362 11.3096ZM46.6362 7.53271C46.9883 7.53271 47.2744 7.81934 47.2744 8.17139C47.2744 8.52295 46.9883 8.80957 46.6362 8.80957C46.2842 8.80957 45.998 8.52295 45.998 8.17139C45.998 7.81934 46.2842 7.53271 46.6362 7.53271Z" fill="#212121"/>
<path d="M11.5426 13.4532C11.7428 13.9336 12.2355 14.251 12.7575 14.2237C13.2736 14.1968 13.7257 13.8477 13.8854 13.3575C14.0465 12.8628 13.8707 12.2993 13.4572 11.9834C13.0358 11.6621 12.444 11.6421 12.0026 11.9356C11.5128 12.2613 11.3165 12.9107 11.5426 13.4532Z" fill="#212121"/>
</svg>
