<svg width="64" height="64" viewBox="0 0 64 64" fill="none" xmlns="http://www.w3.org/2000/svg">
<g clip-path="url(#clip0)">
<path d="M7.24219 43.0027L27.0046 54.4129L22.1921 62.7482L2.42963 51.338L7.24219 43.0027Z" fill="#F8F8F5"/>
<path d="M8.89453 43.9577L13.308 39.5443C16.1265 36.7257 19.9492 35.1423 23.9351 35.1423C26.7256 35.1423 29.4018 36.2508 31.375 38.224H39.5725C41.478 38.224 43.0228 39.7688 43.0228 41.6743C43.0228 43.5798 41.478 45.1246 39.5725 45.1246H30.07H33.6326H42.2258C45.6952 45.1246 49.0225 43.7463 51.4758 41.2932L55.5305 37.2385C56.767 36.002 58.7216 35.8545 60.1296 36.8917C61.8727 38.1757 62.0638 40.7101 60.533 42.241L55.3026 47.4715C51.8509 50.9231 47.1694 52.8623 42.2879 52.8623H28.5319C27.6115 52.8623 26.729 53.2279 26.0781 53.8787L8.89453 43.9577Z" fill="#F8F8F5"/>
<path d="M38.9723 25.8725L32.6881 30.4592C31.636 31.227 30.2171 30.1961 30.6223 28.9583L33.0426 21.5643L26.7259 16.996C25.6716 16.2336 26.211 14.5675 27.512 14.5675H35.3075L37.6958 7.17913C38.0962 5.94062 39.8484 5.94062 40.2487 7.17913L42.637 14.5675H50.4324C51.7334 14.5675 52.2728 16.2336 51.2186 16.996L44.9019 21.5643L47.3221 28.9583C47.7274 30.1961 46.3084 31.227 45.2564 30.4592L38.9723 25.8725Z" fill="#FF8838"/>
<path d="M62.8051 39.3798C62.7001 37.9871 61.995 36.7135 60.8706 35.8852C58.9503 34.4708 56.3326 34.6683 54.6463 36.3546L50.5915 40.4093C48.7266 42.2743 46.3484 43.4393 43.7757 43.774C44.0928 43.1416 44.2724 42.4288 44.2724 41.6744C44.2724 39.0826 42.1639 36.974 39.5721 36.974H31.876C29.7015 34.9827 26.9018 33.8923 23.9347 33.8923C19.5864 33.8923 15.4983 35.5857 12.4237 38.6604L8.68849 42.3956L7.86748 41.9216C7.2696 41.5764 6.50509 41.7812 6.15996 42.3791L1.34741 50.7147C1.00215 51.3125 1.20703 52.0769 1.80491 52.4222L6.79922 55.3056C7.39698 55.6508 8.16161 55.446 8.50674 54.8481C8.852 54.2502 8.64712 53.4858 8.04924 53.1406L4.13757 50.8822L7.70011 44.7117L25.2981 54.8718L21.7355 61.0423L17.791 58.7649C17.1931 58.4199 16.4287 58.6245 16.0835 59.2224C15.7382 59.8203 15.9431 60.5847 16.541 60.9299L21.568 63.8323C21.7649 63.9459 21.9798 64.0001 22.1919 64.0001C22.6239 64.0001 23.044 63.7758 23.2755 63.3748L28.0881 55.0392C28.2502 54.7585 28.2958 54.4262 28.2176 54.1122H42.2876C47.5378 54.1122 52.4738 52.0678 56.1862 48.3553L61.4165 43.1248C62.4039 42.1376 62.91 40.7724 62.8051 39.3798ZM59.6486 41.3572L54.4183 46.5876C51.178 49.8279 46.8699 51.6123 42.2875 51.6123H24.6522L10.93 43.6897L14.1916 40.4282C16.7941 37.8256 20.2543 36.3924 23.9348 36.3924C26.4113 36.3924 28.7396 37.3567 30.4909 39.108C30.7253 39.3424 31.0433 39.4741 31.3748 39.4741H39.5722C40.7855 39.4741 41.7725 40.4612 41.7725 41.6745C41.7725 42.8877 40.7855 43.8748 39.5722 43.8748H30.0697C29.3794 43.8748 28.8197 44.4346 28.8197 45.1248C28.8197 45.8151 29.3794 46.3749 30.0697 46.3749H42.2255C46.0537 46.3749 49.6526 44.8841 52.3593 42.1773L56.4141 38.1226C57.2197 37.3169 58.4703 37.2225 59.388 37.8984C59.9251 38.294 60.2621 38.9026 60.3122 39.5679C60.3622 40.2332 60.1205 40.8853 59.6486 41.3572Z" fill="#212121"/>
<path d="M25.9942 18.0085L31.5716 22.0423L29.4351 28.5691C29.0785 29.6588 29.4474 30.7982 30.3748 31.4721C31.3023 32.1458 32.4998 32.1444 33.4259 31.4687L38.9731 27.4198L44.5203 31.4687C44.9842 31.8073 45.5161 31.9766 46.0481 31.9766C46.5782 31.9766 47.1084 31.8084 47.5715 31.4722C48.499 30.7983 48.8678 29.6589 48.5112 28.5693L46.3747 22.0424L51.9521 18.0087C52.88 17.3376 53.2516 16.2 52.899 15.1106C52.5464 14.0212 51.5785 13.3172 50.4334 13.3172H43.5475L41.439 6.79427C41.0866 5.70438 40.1187 5 38.9731 5C37.8275 5 36.8596 5.70438 36.5072 6.79427L34.3987 13.3172H27.5128C26.3677 13.3172 25.3999 14.0211 25.0473 15.1106C24.6947 16.2 25.0663 17.3375 25.9942 18.0085ZM27.4258 15.8805C27.4463 15.8173 27.4742 15.8173 27.5128 15.8173H35.3083C35.8506 15.8173 36.3309 15.4676 36.4977 14.9517L38.886 7.56341C38.8979 7.52665 38.9065 7.50003 38.973 7.50003C39.0396 7.50003 39.0482 7.52665 39.0601 7.56341L41.4484 14.9517C41.6151 15.4676 42.0955 15.8173 42.6378 15.8173H50.4332C50.4719 15.8173 50.4999 15.8173 50.5204 15.8806C50.5409 15.9439 50.5182 15.9603 50.4869 15.9829L44.1702 20.5512C43.7298 20.8697 43.5457 21.4363 43.7147 21.9529L46.1349 29.3469C46.1469 29.3837 46.1557 29.4102 46.1018 29.4493C46.0479 29.4884 46.0253 29.4719 45.9941 29.4492L39.7099 24.8625C39.2707 24.542 38.6751 24.542 38.236 24.8625L31.9519 29.4492C31.9205 29.472 31.8979 29.4883 31.8441 29.4493C31.7903 29.4102 31.799 29.3837 31.811 29.3469L34.2313 21.9529C34.4004 21.4363 34.2163 20.8697 33.7758 20.5512L27.4591 15.9829C27.428 15.9603 27.4053 15.9439 27.4258 15.8805Z" fill="#212121"/>
<path d="M48.7363 4.625H49.6113V5.5C49.6113 6.19025 50.171 6.75 50.8613 6.75C51.5517 6.75 52.1113 6.19025 52.1113 5.5V4.625H52.9863C53.6767 4.625 54.2363 4.06525 54.2363 3.375C54.2363 2.68475 53.6767 2.125 52.9863 2.125H52.1113V1.25C52.1113 0.55975 51.5517 0 50.8613 0C50.171 0 49.6113 0.55975 49.6113 1.25V2.125H48.7363C48.046 2.125 47.4863 2.68475 47.4863 3.375C47.4863 4.06525 48.046 4.625 48.7363 4.625Z" fill="#212121"/>
<path d="M16.916 25.792H17.791V26.667C17.791 27.3572 18.3506 27.917 19.041 27.917C19.7314 27.917 20.291 27.3572 20.291 26.667V25.792H21.166C21.8564 25.792 22.416 25.2322 22.416 24.542C22.416 23.8517 21.8564 23.292 21.166 23.292H20.291V22.417C20.291 21.7267 19.7314 21.167 19.041 21.167C18.3506 21.167 17.791 21.7267 17.791 22.417V23.292H16.916C16.2256 23.292 15.666 23.8517 15.666 24.542C15.666 25.2322 16.2256 25.792 16.916 25.792Z" fill="#212121"/>
<path d="M12.2969 55.7856C11.9669 55.7856 11.6456 55.9181 11.4131 56.1506C11.1794 56.3843 11.0469 56.7068 11.0469 57.0356C11.0469 57.3644 11.1794 57.6869 11.4131 57.9193C11.6456 58.1518 11.9669 58.2843 12.2969 58.2843C12.6256 58.2843 12.9481 58.1518 13.1806 57.9193C13.4131 57.6869 13.5469 57.3644 13.5469 57.0356C13.5469 56.7068 13.4131 56.3843 13.1806 56.1506C12.9481 55.9181 12.6256 55.7856 12.2969 55.7856Z" fill="#212121"/>
</g>
<defs>
<clipPath id="clip0">
<rect width="64" height="64" fill="white"/>
</clipPath>
</defs>
</svg>
