<svg width="64" height="64" viewBox="0 0 64 64" fill="none" xmlns="http://www.w3.org/2000/svg">
<path d="M53.9167 15.2615H54.6721C55.7908 15.2615 56.6976 16.1684 56.6976 17.287V22.7902V31.4545H9.87454C7.21041 31.4545 5.05078 29.2949 5.05078 26.6307V20.0854C5.05078 17.4212 7.21041 15.2616 9.87454 15.2616H16.4397L53.9167 15.2615Z" fill="#F8F8F5"/>
<path d="M50.7403 18.6838L25.3503 44.0738C24.231 45.1931 22.4163 45.1931 21.2969 44.0738L8.4576 31.2346C7.33835 30.1154 7.33835 28.3006 8.4576 27.1813L33.8477 1.79134C34.9669 0.672091 36.7817 0.672091 37.901 1.79134L50.7403 14.6306C51.8596 15.7499 51.8596 17.5645 50.7403 18.6838Z" fill="#F1F1EA"/>
<path d="M38.0722 9.08143C36.8582 10.2954 34.8901 10.2954 33.6761 9.08143C33.3037 8.70905 33.046 8.26543 32.9022 7.79468L14.4609 26.2358C14.9318 26.3797 15.3753 26.6375 15.7477 27.0098C16.9617 28.2238 16.9617 30.192 15.7477 31.406C15.3753 31.7784 14.9317 32.0361 14.4609 32.18L20.3514 38.0705C20.4953 37.5996 20.7531 37.1561 21.1255 36.7837C22.3395 35.5697 24.3076 35.5697 25.5216 36.7837C25.894 37.1561 26.1517 37.5997 26.2956 38.0705L44.7369 19.6295C44.266 19.4856 43.8225 19.2278 43.4501 18.8555C42.2361 17.6414 42.2361 15.6733 43.4501 14.4593C43.8225 14.0869 44.2661 13.8292 44.7369 13.6854L38.8464 7.79493C38.7024 8.26543 38.4447 8.70893 38.0722 9.08143Z" fill="#F8F8F5"/>
<path d="M29.5991 28.6158C32.7379 28.6158 35.2823 26.0714 35.2823 22.9326C35.2823 19.7939 32.7379 17.2495 29.5991 17.2495C26.4604 17.2495 23.916 19.7939 23.916 22.9326C23.916 26.0714 26.4604 28.6158 29.5991 28.6158Z" fill="#F1F1EA"/>
<path d="M56.6975 27.8132V60.1442C56.6975 61.7479 55.3971 63.0483 53.7934 63.0483H9.87379C7.21066 63.0483 5.05078 60.8884 5.05078 58.2239V20.0847C5.05078 22.7491 7.21066 24.9091 9.87379 24.9091H53.7934C55.3971 24.909 56.6975 26.2095 56.6975 27.8132Z" fill="#F8F8F5"/>
<path d="M11.0099 24.909V63.0482H9.87379C7.21066 63.0482 5.05078 60.8883 5.05078 58.2238V20.0847C5.05078 22.7491 7.21066 24.9091 9.87379 24.9091H11.0099V24.909Z" fill="#F1F1EA"/>
<path d="M48.3548 49.0108H56.8447C58.0068 49.0108 58.949 48.0687 58.949 46.9064V39.1967C58.949 38.0345 58.0069 37.0923 56.8447 37.0923H48.3548C45.0635 37.0923 42.3955 39.7603 42.3955 43.0515C42.3955 46.3428 45.0636 49.0108 48.3548 49.0108Z" fill="#FF8838"/>
<path d="M48.2216 45.4352C49.5382 45.4352 50.6054 44.368 50.6054 43.0515C50.6054 41.735 49.5382 40.6677 48.2216 40.6677C46.9051 40.6677 45.8379 41.735 45.8379 43.0515C45.8379 44.368 46.9051 45.4352 48.2216 45.4352Z" fill="#FF8838"/>
<path d="M4.09901 51.912C4.09901 52.4378 4.52501 52.8639 5.05088 52.8639C5.57676 52.8639 6.00276 52.4378 6.00276 51.912V24.3672C7.02789 25.295 8.38614 25.8608 9.87439 25.8608H49.5466H53.7935C54.87 25.8608 55.7459 26.7366 55.7459 27.8131V34.5537C55.7459 35.0795 56.1719 35.5056 56.6977 35.5056C57.2236 35.5056 57.6496 35.0795 57.6496 34.5537V27.8131C57.6496 25.687 55.9197 23.9571 53.7935 23.9571H49.5466H9.87427C7.74264 23.9571 6.00801 22.2255 6.00264 20.0948V20.0846C6.00264 20.0836 6.00251 20.0826 6.00251 20.0816C6.00451 17.9483 7.74052 16.2133 9.87427 16.2133H16.4395C16.9654 16.2133 17.3914 15.7872 17.3914 15.2614C17.3914 14.7357 16.9654 14.3096 16.4395 14.3096H9.87427C6.68951 14.3096 4.09863 16.9006 4.09863 20.0853C4.09863 20.0886 4.09888 20.0918 4.09888 20.0951V51.912H4.09901Z" fill="#212121"/>
<path d="M56.6982 50.5974C56.1723 50.5974 55.7463 51.0235 55.7463 51.5493V60.1439C55.7463 61.2204 54.8706 62.0962 53.794 62.0962H9.8745C7.73999 62.0962 6.00336 60.3589 6.00336 58.2237V55.0849C6.00336 54.5592 5.57736 54.133 5.05149 54.133C4.52561 54.133 4.09961 54.5592 4.09961 55.0849V58.2237C4.09961 61.4088 6.69024 63.9999 9.8745 63.9999H53.7941C55.9203 63.9999 57.6502 62.2702 57.6502 60.1439V51.5493C57.6501 51.0235 57.2241 50.5974 56.6982 50.5974Z" fill="#212121"/>
<path d="M53.9167 16.2133H54.6722C55.2642 16.2133 55.7459 16.6949 55.7459 17.2869V22.7902C55.7459 23.316 56.1719 23.7421 56.6977 23.7421C57.2236 23.7421 57.6496 23.316 57.6496 22.7902V17.2869C57.6496 15.6452 56.3141 14.3096 54.6722 14.3096H53.9167C53.3908 14.3096 52.9648 14.7357 52.9648 15.2614C52.9648 15.7871 53.3911 16.2133 53.9167 16.2133Z" fill="#212121"/>
<path d="M30.4002 6.58376L34.5201 2.46413C34.8814 2.10263 35.3622 1.90363 35.8738 1.90363C36.3853 1.90363 36.866 2.10263 37.2275 2.46413L50.0664 15.303C50.8129 16.0494 50.8129 17.264 50.0665 18.0105L47.116 20.9609C46.7441 21.3327 46.7441 21.9353 47.1158 22.307C47.3017 22.4929 47.5453 22.5859 47.789 22.5859C48.0325 22.5859 48.2762 22.493 48.462 22.307L51.4126 19.3567C52.9012 17.8679 52.9012 15.4458 51.4126 13.957L38.5737 1.11813C37.8527 0.397126 36.8938 0 35.8738 0C34.8537 0 33.8948 0.397126 33.1741 1.11813L29.0543 5.23776C28.6824 5.60951 28.6824 6.21214 29.0542 6.58389C29.4259 6.95564 30.0286 6.95551 30.4002 6.58376Z" fill="#212121"/>
<path d="M13.3306 22.3072C13.5164 22.493 13.7601 22.586 14.0037 22.586C14.2472 22.586 14.4909 22.4932 14.6768 22.3072L28.211 8.77313C28.5827 8.40138 28.5827 7.79863 28.211 7.42701C27.8392 7.05526 27.2366 7.05526 26.8647 7.42701L13.3306 20.9609C12.9588 21.3327 12.9588 21.9354 13.3306 22.3072Z" fill="#212121"/>
<path d="M42.059 22.3073C42.2449 22.4932 42.4887 22.5862 42.7322 22.5862C42.9757 22.5862 43.2194 22.4933 43.4053 22.3073L45.4102 20.3024C45.6464 20.0662 45.7414 19.7234 45.6607 19.3993C45.5799 19.0752 45.3353 18.817 45.0158 18.7193C44.6747 18.6148 44.3748 18.4344 44.1227 18.1813C43.7153 17.7744 43.4909 17.233 43.4909 16.6572C43.4909 16.0813 43.7153 15.5398 44.1242 15.1314C44.3747 14.88 44.6747 14.6995 45.0157 14.595C45.3352 14.4972 45.5798 14.2392 45.6606 13.915C45.7414 13.5909 45.6462 13.248 45.4101 13.0119L39.5198 7.12139C39.2837 6.88514 38.9409 6.79014 38.6167 6.87077C38.2925 6.95152 38.0344 7.19614 37.9367 7.51577C37.8325 7.85552 37.6518 8.15589 37.3988 8.40889C36.9918 8.81614 36.4504 9.04052 35.8744 9.04052C35.2983 9.04052 34.757 8.81615 34.3488 8.40739C34.0973 8.15677 33.9168 7.85702 33.8124 7.51602C33.7145 7.19652 33.4564 6.95177 33.1324 6.87089C32.8085 6.78989 32.4653 6.88514 32.2292 7.12139L18.3901 20.961C18.0184 21.3328 18.0184 21.9355 18.3903 22.3073C18.7619 22.679 19.3646 22.6789 19.7364 22.3073L32.6679 9.37465C32.7715 9.50802 32.8835 9.6349 33.0032 9.75415C33.7697 10.5215 34.7893 10.9441 35.8742 10.9441C35.8743 10.9441 35.8743 10.9441 35.8743 10.9441C36.9592 10.9441 37.9789 10.5215 38.7452 9.75452C38.8648 9.6349 38.9768 9.50765 39.0804 9.37415L43.1567 13.4504C43.0232 13.5542 42.8964 13.6662 42.7771 13.7859C42.0097 14.5524 41.587 15.572 41.587 16.657C41.587 17.742 42.0097 18.7617 42.7754 19.5264C42.8952 19.6468 43.0228 19.7593 43.1568 19.8634L42.0589 20.9613C41.6873 21.3328 41.6873 21.9355 42.059 22.3073Z" fill="#212121"/>
<path d="M29.599 16.2976C27.8269 16.2976 26.1607 16.9877 24.9074 18.2411C24.0312 19.1174 23.4195 20.2157 23.1385 21.4175C23.0188 21.9295 23.3367 22.4414 23.8487 22.5611C24.3605 22.6806 24.8725 22.3627 24.9922 21.8509C25.1924 20.995 25.6286 20.2122 26.2535 19.5872C27.1471 18.6935 28.335 18.2015 29.5987 18.2015C30.8625 18.2015 32.0505 18.6936 32.9441 19.5871C33.5692 20.2122 34.0051 20.995 34.2054 21.8507C34.308 22.2897 34.6992 22.5861 35.1314 22.5861C35.2031 22.5861 35.2762 22.578 35.3489 22.561C35.8609 22.4414 36.1787 21.9294 36.0591 21.4174C35.7782 20.2157 35.1666 19.1172 34.2904 18.241C33.0375 16.9877 31.3712 16.2976 29.599 16.2976Z" fill="#212121"/>
<path d="M56.8454 36.1404H48.3555C44.5447 36.1404 41.4443 39.2408 41.4443 43.0515C41.4443 46.8623 44.5447 49.9627 48.3555 49.9627H56.8454C58.5306 49.9627 59.9016 48.5915 59.9016 46.9064V39.1966C59.9016 37.5115 58.5306 36.1404 56.8454 36.1404ZM57.9979 46.9064C57.9979 47.5419 57.4809 48.0589 56.8454 48.0589H48.3555C45.5943 48.0589 43.3481 45.8126 43.3481 43.0515C43.3481 40.2904 45.5943 38.0441 48.3555 38.0441H56.8454C57.4809 38.0441 57.9979 38.5611 57.9979 39.1966V46.9064Z" fill="#212121"/>
<path d="M48.2222 39.7158C46.3831 39.7158 44.8867 41.2122 44.8867 43.0515C44.8867 44.8907 46.3831 46.3871 48.2222 46.3871C50.0614 46.3871 51.5577 44.8907 51.5577 43.0515C51.5577 41.2122 50.0615 39.7158 48.2222 39.7158ZM48.2222 44.4833C47.4327 44.4833 46.7905 43.841 46.7905 43.0515C46.7905 42.262 47.4329 41.6196 48.2222 41.6196C49.0116 41.6196 49.654 42.262 49.654 43.0515C49.654 43.841 49.0119 44.4833 48.2222 44.4833Z" fill="#212121"/>
</svg>
