<svg width="341" height="383" viewBox="0 0 341 383" fill="none" xmlns="http://www.w3.org/2000/svg">
<path d="M297.124 325.407C297.124 325.407 147.78 319.43 59.9862 319.43C10.7458 319.43 -3.97879 341.932 1.80023 351.373C21.3935 383.316 111.166 354.975 150.412 361.941C175.923 366.454 215.149 390.243 239.235 380.703C248.457 377.042 255.76 369.541 265.042 366.058C278.065 361.189 292.433 365.702 306.307 366.474C347.096 368.73 359.466 330.196 297.124 325.407Z" fill="#F6F6F6"/>
<path d="M93.4135 344.723C93.4135 344.723 98.4207 344.505 97.3915 346.643C96.3624 348.78 75.6213 355.351 65.1122 353.946C65.1122 353.946 63.331 352.897 65.5278 351.808C67.7246 350.74 93.4135 344.723 93.4135 344.723Z" fill="#212121"/>
<path d="M185.403 148.791C181.544 146 176.438 145.169 171.708 145.604C162.921 146.436 156.033 153.402 150.947 160.606C139.211 177.231 132.917 196.982 126.782 216.397C116.273 249.646 105.744 282.915 95.2349 316.164C94.0078 320.063 92.761 324.002 90.9006 327.643C86.408 336.45 74.1969 344.545 65.469 350.957C64.5388 351.63 65.0533 353.095 66.1814 353.075C74.3156 352.897 84.3695 350.977 92.2464 347.89C93.5526 347.375 94.7401 346.465 95.5515 345.317C96.739 343.595 96.64 341.359 96.9765 339.3C97.7483 334.55 100.895 330.592 103.844 326.792C116.609 310.385 125.99 288.734 135.668 270.348C138.815 264.391 139.052 257.919 139.191 251.111C139.25 247.746 140.121 244.441 141.803 241.532C152.134 223.522 170.54 210.42 181.564 192.094C186.551 183.781 201.157 160.151 185.403 148.791Z" fill="white" stroke="#212121" stroke-width="0.5" stroke-miterlimit="10"/>
<path d="M84.4493 350.72C84.8649 349.671 84.5285 348.464 84.0733 347.435C83.44 346.01 82.5692 344.684 81.4213 343.674C80.2734 342.665 78.8286 341.992 77.3245 341.893L71.7236 346.603C73.9007 346.643 75.9194 347.514 77.4829 349.117C78.2151 349.889 78.8484 350.858 78.8484 351.947L84.4493 350.72Z" fill="#010101"/>
<path d="M84.4487 350.72C84.4487 350.72 84.33 350.759 84.0925 350.839C83.7363 350.938 83.38 351.017 82.9842 351.116C81.7571 351.412 80.3916 351.729 78.8676 352.085L78.7093 352.125V351.947C78.7093 350.68 77.7395 349.433 76.4927 348.464C75.2459 347.474 73.5438 346.821 71.723 346.781H71.248L71.6043 346.465C72.1584 346.01 72.7324 345.515 73.3261 345.02C74.6917 343.872 75.9979 342.784 77.225 341.754L77.2843 341.715H77.3437C79.2437 341.834 80.8072 342.803 81.8957 343.892C82.9842 345 83.6571 346.207 84.1123 347.217C84.5675 348.246 84.7456 349.156 84.6862 349.77C84.6467 350.423 84.4487 350.72 84.4487 350.72C84.4289 350.7 84.5675 350.403 84.5675 349.809C84.5873 349.216 84.3894 348.345 83.9144 347.336C83.4394 346.346 82.7665 345.178 81.678 344.129C80.6093 343.1 79.0853 342.19 77.3041 342.091L77.4229 342.051C76.1958 343.08 74.8896 344.189 73.5438 345.337C72.9501 345.831 72.3761 346.326 71.822 346.781L71.7032 346.465C73.6032 346.504 75.3844 347.197 76.6708 348.246C77.9572 349.255 78.9666 350.601 78.9468 351.986L78.7885 351.848C80.3124 351.531 81.6582 351.254 82.8852 350.997C83.2811 350.918 83.6571 350.858 84.0133 350.779C84.2904 350.72 84.4289 350.7 84.4487 350.72Z" fill="#212121"/>
<path d="M185.403 140.874L152.411 145.921C140.299 155.084 134.916 170.442 130.166 184.89C125.891 197.932 121.596 210.975 117.974 224.215C115.738 232.389 113.759 240.641 111.028 248.677C107.643 258.572 103.151 268.032 98.6582 277.473C94.8979 285.389 91.1375 293.286 87.3574 301.202C100.697 303.399 114.036 305.616 127.375 307.813C131.709 296.947 141.645 288.912 145.266 277.789C148.057 269.18 146.711 259.859 146.375 250.794C146.295 248.815 146.315 246.698 147.364 245.015C148.195 243.689 149.581 242.818 150.907 241.967C170.441 229.163 184.057 207.65 187.224 184.514C189.222 170.046 187.303 155.361 185.403 140.874Z" fill="#212121"/>
<path d="M253.05 326.733C253.05 326.733 256.909 323.527 257.384 325.862C257.859 328.198 245.292 345.95 236.049 351.155C236.049 351.155 234.011 351.393 235.099 349.196C236.207 347.019 253.05 326.733 253.05 326.733Z" fill="#212121"/>
<path d="M255.781 323.764C255.405 321.053 253.584 318.797 252.021 316.541C243.412 304.131 236.88 274.227 232.21 259.859C227.598 245.629 226.431 242.462 216.733 234.091C212.082 230.073 209.964 223.68 208.243 217.783C207.273 214.478 206.897 211.034 206.501 207.61C205.036 194.568 211.31 183.841 207.214 167.573C205.254 159.795 200.405 151.601 191.618 149.642C182.494 147.603 172.678 152.333 169.056 160.942C165.434 169.552 166.939 179.467 169.65 188.393C179.387 220.494 201.771 249.29 218.554 278.324C222.769 285.607 226.549 293.128 229.914 300.826C234.129 310.544 240.067 318.579 240.324 329.049C240.502 336.332 231.952 346.168 234.149 349.532C236.821 353.629 256.276 327.267 255.781 323.764Z" fill="white" stroke="#212121" stroke-width="0.5" stroke-miterlimit="10"/>
<path d="M248.616 337.796C248.299 336.708 247.31 335.956 246.34 335.402C244.974 334.65 243.49 334.115 241.966 334.016C240.442 333.917 238.878 334.234 237.632 335.065L236.009 342.21C237.77 340.923 239.908 340.409 242.104 340.745C243.153 340.904 244.262 341.299 244.895 342.17L248.616 337.796Z" fill="#212121"/>
<path d="M248.616 337.796C248.636 337.796 248.557 337.915 248.399 338.113C248.161 338.39 247.944 338.687 247.686 339.004C246.875 339.973 245.984 341.062 244.995 342.269L244.896 342.408L244.797 342.269C244.045 341.26 242.501 340.844 240.938 340.824C239.334 340.785 237.593 341.299 236.108 342.368L235.732 342.645L235.831 342.17C235.99 341.477 236.148 340.725 236.326 339.973C236.722 338.251 237.098 336.589 237.454 335.026L237.474 334.966L237.533 334.927C239.117 333.878 240.957 333.7 242.481 333.917C244.025 334.135 245.292 334.689 246.261 335.243C247.251 335.778 247.944 336.411 248.26 336.945C248.597 337.44 248.616 337.796 248.616 337.796C248.577 337.796 248.518 337.48 248.161 336.985C247.805 336.49 247.132 335.916 246.143 335.421C245.173 334.907 243.906 334.392 242.422 334.194C240.957 334.016 239.196 334.214 237.712 335.204L237.791 335.105C237.434 336.668 237.058 338.331 236.663 340.072C236.484 340.824 236.326 341.557 236.168 342.269L235.891 342.091C237.434 340.963 239.275 340.448 240.918 340.508C242.541 340.547 244.163 340.983 244.995 342.131H244.797C245.826 340.963 246.736 339.934 247.548 338.984C247.825 338.687 248.062 338.41 248.32 338.133C248.498 337.895 248.597 337.796 248.616 337.796Z" fill="#212121"/>
<path d="M250.239 291.663C249.784 273.02 242.56 254.594 230.23 240.622C225.203 234.922 219.227 229.737 216.297 222.731C212.893 214.577 214.18 205.374 214.457 196.547C215.209 173.055 208.242 149.385 194.903 130.049L160.11 147.346C160.526 172.778 163.237 199.12 176.082 221.068C179.07 226.174 182.573 230.983 185.898 235.892C192.489 245.609 198.386 255.782 203.987 266.093C211.231 279.452 217.999 293.049 224.253 306.902C231.853 304.231 239.295 301.104 246.538 297.541C247.765 296.947 249.032 296.275 249.705 295.087C250.259 294.058 250.259 292.831 250.239 291.663Z" fill="#212121"/>
<g opacity="0.27">
<path opacity="0.27" d="M177.19 223.126C177.131 223.146 176.695 222.335 176.003 220.831C175.29 219.327 174.36 217.13 173.271 214.379C171.094 208.877 168.423 201.119 166.226 192.351C164.029 183.584 162.723 175.489 162.05 169.591C161.713 166.642 161.496 164.268 161.417 162.605C161.318 160.943 161.298 160.032 161.377 160.032C161.456 160.032 161.614 160.923 161.832 162.565C162.089 164.406 162.406 166.722 162.802 169.492C163.653 175.331 165.078 183.346 167.275 192.074C169.472 200.802 172.005 208.54 174.004 214.102C174.973 216.714 175.785 218.911 176.418 220.653C176.953 222.236 177.249 223.107 177.19 223.126Z" fill="white"/>
</g>
<g opacity="0.27">
<path opacity="0.27" d="M207.688 190.689C207.629 190.788 205.788 189.719 203.195 187.483C200.603 185.246 197.357 181.743 194.606 177.29C191.855 172.817 190.193 168.345 189.381 165.02C188.55 161.695 188.411 159.577 188.53 159.557C188.708 159.537 189.084 161.596 190.094 164.802C191.083 168.008 192.825 172.342 195.516 176.716C198.208 181.07 201.295 184.573 203.71 186.909C206.124 189.264 207.787 190.55 207.688 190.689Z" fill="white"/>
</g>
<path d="M192.546 24.4231C192.546 24.4231 192.012 35.2092 186.272 40.6914L184.57 23.5522L192.546 24.4231Z" fill="#212121"/>
<path d="M156.586 20.5438C157.556 12.6075 163.829 6.13581 171.805 5.4827C182.69 4.5921 186.035 15.9918 186.629 20.5833C187.777 29.3508 188.113 45.6192 187.994 62.3625C187.935 70.3977 171.469 72.3174 166.976 61.7687C166.204 59.948 165.927 57.9293 165.947 55.9304L166.086 45.065C155.873 42.1557 155.497 29.4498 156.586 20.5438Z" fill="white" stroke="#212121" stroke-width="0.5" stroke-miterlimit="10"/>
<path d="M166.106 45.0651C166.106 45.0651 170.856 46.7672 177.525 42.3735C177.525 42.3735 173.765 50.0327 166.007 52.7243L166.106 45.0651Z" fill="#212121"/>
<path d="M192.942 27.1146C192.13 30.677 189.023 33.0322 185.995 32.3395C182.967 31.6468 181.146 28.2031 181.958 24.6407C182.769 21.0783 185.876 18.7232 188.905 19.4158C191.952 20.1085 193.753 23.5522 192.942 27.1146Z" fill="white" stroke="#212121" stroke-width="0.5" stroke-miterlimit="10"/>
<path d="M189.143 25.0958C189.024 25.4125 187.935 25.2937 186.787 25.8479C185.62 26.3625 184.967 27.2531 184.67 27.1343C184.531 27.0749 184.511 26.7187 184.749 26.2239C184.986 25.7291 185.541 25.1354 186.293 24.7792C187.064 24.4229 187.856 24.4031 188.39 24.5417C188.925 24.7 189.182 24.9573 189.143 25.0958Z" fill="#131313"/>
<path d="M176.397 22.8397C176.258 22.7407 175.803 23.2157 175.091 23.8886C174.734 24.2251 174.299 24.6209 173.784 24.9376C173.527 25.1157 173.27 25.2146 172.993 25.3136C172.736 25.373 172.518 25.3532 172.3 25.274C172.102 25.1553 171.944 24.9772 171.805 24.7397C171.706 24.4824 171.607 24.2053 171.568 23.8886C171.469 23.2949 171.489 22.7012 171.489 22.2064C171.508 21.2168 171.568 20.5835 171.41 20.5241C171.251 20.4846 170.915 21.0585 170.677 22.0876C170.558 22.6022 170.46 23.2355 170.499 23.9876C170.519 24.3636 170.598 24.7594 170.776 25.1949C170.974 25.6105 171.311 26.0459 171.805 26.3032C172.32 26.5406 172.874 26.5407 173.329 26.4021C173.765 26.2438 174.141 26.0459 174.418 25.8084C175.012 25.3532 175.407 24.8386 175.724 24.4032C176.337 23.5522 176.535 22.9189 176.397 22.8397Z" fill="#010101"/>
<path d="M163.077 19.3959C162.939 19.3168 162.523 19.7522 161.909 20.4647C161.593 20.8011 161.237 21.2365 160.801 21.6126C160.405 21.9886 159.772 22.325 159.614 22.2063C159.376 22.1469 159.178 21.5136 159.178 20.9397C159.139 20.3657 159.178 19.8116 159.198 19.3366C159.258 18.4064 159.297 17.7929 159.139 17.7533C158.98 17.7137 158.664 18.2481 158.387 19.198C158.248 19.673 158.129 20.247 158.09 20.9397C158.09 21.2959 158.09 21.6521 158.209 22.0875C158.327 22.4834 158.585 23.0177 159.159 23.275C159.297 23.3146 159.455 23.3542 159.594 23.3938C159.732 23.3938 159.871 23.374 160.01 23.374C160.247 23.3146 160.504 23.2354 160.663 23.1167C161.039 22.899 161.296 22.6417 161.553 22.3844C162.028 21.8698 162.345 21.3751 162.582 20.9397C163.057 20.0688 163.216 19.4751 163.077 19.3959Z" fill="#010101"/>
<path d="M185.759 31.9831C185.759 35.3476 183.028 38.0788 179.663 38.0788C176.299 38.0788 173.567 35.3476 173.567 31.9831C173.567 28.6186 176.299 25.8875 179.663 25.8875C183.028 25.8875 185.759 28.6186 185.759 31.9831Z" fill="#E4E4E4"/>
<path d="M156.25 24.4229C156.032 28.3217 156.25 32.5372 157.437 36.159C159.792 35.3278 161.494 33.0914 161.494 30.4394C161.514 27.3519 159.218 24.8385 156.25 24.4229Z" fill="#E4E4E4"/>
<path d="M165.097 27.8666C164.998 27.9853 164.582 27.827 163.989 27.4707C163.692 27.2926 163.355 27.0551 162.999 26.7781C162.801 26.6197 162.603 26.4812 162.445 26.3427C162.326 26.2437 162.306 26.2635 162.089 26.0458C162.029 25.9864 161.95 25.8677 161.91 25.6698C161.871 25.4718 161.97 25.2541 162.029 25.175C162.188 24.9771 162.188 24.9969 162.247 24.9375C163.771 23.5125 165.176 22.5625 165.413 22.8C165.631 23.0375 164.582 24.3833 163.058 25.8083L162.979 25.8677C163.058 25.9864 162.722 25.6302 162.682 25.6302C162.544 25.5312 162.583 25.65 162.761 25.4916C162.801 25.452 162.88 25.3729 162.959 25.2937L162.979 25.3135L163.058 25.3729L163.197 25.4916C163.355 25.65 163.533 25.8083 163.711 25.9864C164.028 26.3031 164.325 26.5999 164.543 26.8572C164.978 27.352 165.196 27.728 165.097 27.8666Z" fill="#131313"/>
<path d="M169.411 30.9739C169.688 31.0927 169.015 32.5374 167.273 32.9134C165.532 33.3093 164.304 32.2999 164.502 32.0822C164.661 31.8249 165.749 32.201 167.036 31.8843C168.342 31.627 169.153 30.8156 169.411 30.9739Z" fill="#010101"/>
<path d="M179.346 3.52351C161.89 1.40585 158.07 15.3388 158.07 15.3388C169.787 17.8325 179.346 8.76816 179.346 8.76816C179.346 8.76816 176.773 21.9491 183.383 21.6522C183.383 21.6522 189.142 15.9524 192.626 22.7605C192.626 22.7407 194.822 4.45369 179.346 3.52351Z" fill="#212121"/>
<path d="M245.31 17.8524C240.996 8.41205 231.535 1.52473 221.224 0.317469C217.563 -0.117937 213.862 0.119553 210.22 0.653915C202.165 1.8018 194.328 4.33507 187.124 8.09539C186.669 8.33289 186.234 8.57037 185.778 8.80787C186.075 9.57972 186.392 10.3516 186.728 11.1036C187.461 10.9849 188.213 10.9057 188.945 10.8859C195.436 10.688 201.651 13.538 207.034 17.1597C212.417 20.8013 217.187 25.2543 222.531 28.9157C227.874 32.577 234.049 35.5061 240.54 35.427C241.332 35.427 242.144 35.3676 242.876 35.0707C243.806 34.6947 244.558 33.9426 245.152 33.1312C248.299 28.8365 247.527 22.7211 245.31 17.8524Z" fill="#212121"/>
<path d="M215.901 81.6787C214.436 76.2362 209.053 63.5698 202.245 59.1366C200.345 57.4148 192.547 54.1888 188.015 52.5461C188.015 52.5461 185.205 55.6929 177.506 56.0096C168.283 56.3658 166.106 52.7441 165.987 52.7441C160.347 53.2388 154.132 55.6138 149.877 59.3345C143.386 64.9948 133.253 85.2807 122.566 102.123C105.486 129.019 117.044 140.736 126.207 138.361C135.074 136.065 141.743 129.949 146.493 120.351C143.425 130.741 142.693 139.212 141.446 143.744C136.677 161.101 216.95 165.336 214.911 146.653C214.911 146.574 214.911 146.495 214.891 146.416C216.514 145.96 217.999 144.852 219.285 142.992C219.404 142.873 219.503 142.715 219.582 142.556C219.997 141.903 220.275 141.151 220.472 140.3C227.162 121.122 217.444 87.4379 215.901 81.6787Z" fill="white" stroke="#212121" stroke-miterlimit="10"/>
<g opacity="0.27">
<path opacity="0.27" d="M145.207 122.033C145.069 121.993 145.464 120.212 146.197 117.342C147.008 114.116 147.978 110.336 149.027 106.18C150.056 102.004 150.986 98.2242 151.778 94.9982C152.49 92.1285 152.965 90.3671 153.104 90.4067C153.242 90.4265 153.025 92.2472 152.51 95.1565C151.995 98.0658 151.144 102.064 150.056 106.437C148.967 110.811 147.82 114.73 146.909 117.56C146.019 120.351 145.346 122.072 145.207 122.033Z" fill="#010101"/>
</g>
<g opacity="0.27">
<path opacity="0.27" d="M190.687 54.2877C190.786 54.3669 189.876 55.6137 187.758 56.8605C185.68 58.1074 182.355 59.1563 178.635 59.1167C174.934 59.1167 171.688 58.3449 169.372 57.7314C166.978 57.1574 165.849 55.8908 166.008 55.8116C166.107 55.7127 167.235 56.6428 169.55 57.0189C171.866 57.4345 175.072 58.0678 178.635 58.0678C182.177 58.0876 185.324 57.2366 187.402 56.2075C189.48 55.1981 190.569 54.169 190.687 54.2877Z" fill="#010101"/>
</g>
<path d="M133.728 49.4586C136.479 48.2118 153.875 41.4234 156.745 40.6912C156.745 40.6912 163.137 41.5818 162.939 41.9776C162.326 43.1849 134.579 49.9138 134.579 49.9138L133.728 49.4586Z" fill="white"/>
<path d="M133.729 49.4587C133.788 49.4587 133.907 49.4983 134.085 49.5378C134.263 49.5774 134.501 49.5774 134.718 49.6368L134.52 49.617C136.005 48.9639 139.666 47.8358 144.693 46.3713C147.206 45.639 150.056 44.8275 153.144 43.9369C154.687 43.4817 156.271 43.0068 157.913 42.5318C158.725 42.2745 159.556 42.0172 160.368 41.7401C160.763 41.6016 161.179 41.463 161.555 41.3047C161.654 41.2651 161.733 41.2256 161.812 41.186C161.891 41.1464 161.99 41.1068 162.03 41.087L162.089 41.0474C162.089 41.0474 162.109 41.0276 162.089 41.0474C162.07 41.0672 162.03 41.087 162.01 41.1068C161.951 41.1464 161.911 41.2058 161.872 41.2651C161.852 41.2849 161.832 41.3245 161.832 41.3641C161.832 41.3839 161.832 41.3245 161.733 41.5818C161.674 41.7797 161.654 42.0172 161.713 42.2151C161.733 42.3141 161.773 42.413 161.812 42.4724L161.852 42.5714C161.891 42.6307 161.931 42.6901 161.971 42.7495C162.01 42.8088 162.07 42.8484 162.129 42.888L162.169 42.9078C162.287 42.987 162.267 42.9672 162.267 42.9672C162.169 42.9276 161.911 42.8682 161.694 42.8088L160.981 42.6505C160.486 42.5516 159.991 42.4724 159.497 42.3734C158.507 42.1953 157.518 42.037 156.568 41.8985L157.043 41.8787C155.499 42.3141 153.836 42.9078 152.332 43.4422C150.789 43.9765 149.324 44.5109 147.919 44.9859C145.128 45.9556 142.635 46.8265 140.557 47.5389C138.479 48.2514 136.796 48.7858 135.629 49.1222C135.332 49.2014 135.074 49.2806 134.857 49.3399C134.738 49.3597 134.639 49.3993 134.54 49.4191C134.461 49.4389 134.402 49.4389 134.342 49.4191C134.065 49.3993 133.808 49.4587 133.729 49.4587C133.669 49.4587 133.689 49.3795 134.006 49.1024C134.085 49.0431 134.184 48.9639 134.303 48.9045C134.382 48.8452 134.481 48.7858 134.58 48.7264C134.778 48.6077 135.015 48.4691 135.292 48.3306C136.361 47.7368 137.964 46.965 139.963 46.0546C141.982 45.1442 144.396 44.0953 147.147 42.9672C148.532 42.413 149.977 41.8193 151.521 41.2256C153.084 40.6318 154.608 40.0381 156.429 39.4839L156.647 39.4246L156.924 39.4642C157.913 39.6027 158.923 39.7412 159.932 39.9193C160.447 39.9985 160.961 40.0975 161.476 40.1964L162.287 40.3745C162.564 40.4537 162.822 40.4933 163.217 40.6516C163.316 40.711 163.415 40.7308 163.633 40.8693L163.712 40.9287C163.772 40.9881 163.831 41.0276 163.89 41.1068C163.95 41.1662 163.989 41.2453 164.049 41.3047L164.108 41.4037C164.128 41.463 164.187 41.5818 164.207 41.6808C164.266 41.8985 164.247 42.1557 164.187 42.3537C164.088 42.6307 164.088 42.5714 164.068 42.6109C164.029 42.6703 164.009 42.7099 163.97 42.7693C163.89 42.8682 163.811 42.9672 163.712 43.0463C163.673 43.0859 163.613 43.1255 163.574 43.1651L163.514 43.2047L163.277 43.3432C163.119 43.4422 163 43.4818 162.881 43.5411C162.762 43.6005 162.644 43.6599 162.525 43.6995C162.07 43.8776 161.634 44.0359 161.199 44.1744C160.328 44.4713 159.497 44.7088 158.646 44.9661C156.983 45.4411 155.36 45.8765 153.797 46.2921C150.67 47.1035 147.761 47.7764 145.208 48.3504C140.082 49.4785 136.301 50.1514 134.679 50.2701L134.52 50.2899L134.461 50.2503C134.105 50.0128 133.907 49.7951 133.808 49.6962C133.689 49.4785 133.689 49.4587 133.729 49.4587Z" fill="#CACACA"/>
<path d="M135.649 49.4586C142.912 57.85 129.711 42.5514 126.98 38.6526C126.98 38.6526 122.329 39.9192 121.142 40.4536L129.672 49.8148C129.672 49.8148 132.917 52.2095 135.649 51.3189V49.4586Z" fill="white"/>
<path d="M135.648 49.4587C135.688 49.5379 135.707 49.7952 135.806 50.1316C135.885 50.4878 136.064 50.8639 136.143 51.3191L136.182 51.5961L135.806 51.7743C135.094 52.1107 134.025 52.2492 132.857 52.0711C131.67 51.8534 130.443 51.418 129.117 50.5868L129.077 50.567L128.978 50.468C126.544 48.0337 123.516 44.8671 120.231 41.3047L119.023 39.9985L120.646 39.3256C121.636 38.91 122.507 38.6725 123.457 38.3757C124.545 38.0392 125.634 37.7423 126.663 37.4653L127.494 37.2476L128.009 37.96C129.612 40.2162 131.353 42.3537 132.838 44.2932C134.342 46.2327 135.668 47.9546 136.776 49.4389C137.33 50.1712 137.805 50.8441 138.221 51.4378L138.26 51.4972L138.28 51.5368L138.3 51.5566L138.32 51.5763C138.3 51.5566 138.439 51.7743 138.439 51.893C138.676 51.6555 138.241 52.9222 137.429 52.467C137.291 52.3482 137.39 52.4274 137.35 52.3878L137.33 52.368L137.31 52.3482L137.291 52.3284L137.271 52.2888L137.231 52.2295L137.073 52.0118C136.974 51.8732 136.875 51.7347 136.796 51.6159C136.618 51.3587 136.459 51.1212 136.321 50.9035C136.044 50.468 135.846 50.1316 135.727 49.8743C135.707 49.8149 135.668 49.7358 135.668 49.716C135.668 49.6962 135.688 49.6566 135.688 49.617C135.707 49.5577 135.648 49.4983 135.648 49.4587C135.648 49.4191 135.648 49.3993 135.727 49.4191C135.767 49.4191 135.846 49.4587 135.925 49.4983C135.984 49.5379 136.044 49.5774 136.103 49.5972C136.341 49.7556 136.638 49.9931 137.033 50.3295C137.231 50.5076 137.429 50.6858 137.667 50.9035C137.785 51.0024 137.904 51.1212 138.023 51.2399L138.201 51.418L138.241 51.4576L138.26 51.4774L138.122 51.5961C138.023 51.6753 137.924 51.8138 137.825 51.8732C137.726 51.893 137.825 51.9524 137.766 51.9326C137.726 51.9524 137.726 51.9722 137.667 52.0118L137.291 52.2888C137.271 52.3086 137.271 52.2888 137.271 52.2888L137.251 52.269L137.212 52.2295C136.717 51.7149 136.123 51.1212 135.49 50.468C134.223 49.142 132.739 47.5192 131.136 45.6588C129.513 43.7786 127.751 41.7797 125.97 39.3652L127.316 39.86C126.307 40.1569 125.258 40.4537 124.169 40.7704C123.279 41.0475 122.309 41.3245 121.636 41.6016L122.051 39.6225C125.277 43.2245 128.147 46.5296 130.344 49.1816L130.205 49.0629C131.155 49.7951 132.244 50.3493 133.154 50.6462C134.065 50.9232 134.876 50.9826 135.47 50.8639L135.133 51.3191C135.213 50.5472 135.391 49.9931 135.47 49.7358C135.589 49.4587 135.608 49.3795 135.648 49.4587Z" fill="#CACACA"/>
<path d="M167.373 70.7145C167.294 70.3781 167.234 70.2198 167.195 70.2198C167.274 70.2 167.234 69.4875 167.116 68.1615C166.977 66.8355 166.759 64.896 166.463 62.4221C165.849 57.4941 164.899 50.4484 163.712 42.0174L163.613 41.2455L162.861 41.4434C155.142 43.4424 146.058 45.8173 136.4 48.4099L135.925 48.5287L135.806 48.5683L135.747 48.588C135.707 48.6078 135.628 48.6276 135.569 48.6474C135.45 48.7068 135.351 48.7662 135.272 48.8651C135.054 48.9245 134.896 49.0432 134.935 49.0037L134.817 49.063C134.737 49.1224 134.638 49.1422 134.539 49.1818C134.361 49.2609 134.124 49.3005 133.906 49.3401C133.451 49.4193 132.936 49.4391 132.442 49.4193C131.432 49.3995 130.344 49.2214 129.315 48.9839L128.266 48.7266C127.909 48.3703 127.494 47.9349 126.94 47.3808C125.495 45.9162 123.318 43.858 120.864 41.1664L119.637 39.8206L119.874 41.6414C120.765 48.5683 122.625 57.9888 125.99 68.0032C126.326 69.0323 126.702 70.0614 127.058 71.0708C127.157 71.3281 127.256 71.6052 127.415 71.9218C127.573 72.2187 127.83 72.5551 128.127 72.7728C128.741 73.228 129.334 73.3468 129.77 73.5051C131.373 74.0593 132.837 74.8113 134.183 75.6623C134.223 75.7613 134.282 75.8603 134.322 75.9592C135.212 77.5227 136.815 78.2748 138.161 78.3539C139.527 78.4331 140.694 77.9383 141.367 77.2258C141.546 77.0279 141.684 76.83 141.783 76.6123H141.842C150.075 75.5634 156.923 74.6332 161.713 73.9405C162.92 73.7624 163.969 73.6239 164.919 73.4457C165.869 73.2478 166.72 72.8718 167.116 72.2187C167.531 71.6249 167.413 71.0312 167.373 70.7145Z" fill="white" stroke="#212121" stroke-miterlimit="10"/>
<path d="M179.92 75.4445C179.92 75.4445 177.031 68.9728 170.242 64.7573C166.027 62.1448 157.932 60.0074 156.091 61.3532C154.765 62.3229 164.463 64.6781 167.293 66.9541C167.293 66.9541 148.353 63.8073 151.856 66.4593C151.856 66.4593 162.187 70.1009 166.225 70.7738C166.225 70.7738 151.421 71.2092 150.392 72.0998C149.145 73.9206 164.206 74.158 165.453 74.3362C165.096 74.4549 154.825 75.8205 154.449 76.5528C153.42 78.5319 162.642 77.5423 165.374 77.9975C166.581 78.1954 170.658 84.7067 171.885 87.2598C173.211 90.0306 178.733 100.975 179.623 103.924C184.571 120.232 191.973 115.779 193.358 115.561L195.614 101.034C189.341 96.245 183.957 83.5391 179.92 75.4445Z" fill="white" stroke="#212121" stroke-width="0.5" stroke-miterlimit="10"/>
<path d="M204.818 101.411C200.286 94.8597 195.259 88.665 190.291 83.7568L175.686 105.626C175.686 105.626 181.366 115.739 188.827 125.932C193.854 117.56 198.802 109.07 204.818 101.411Z" fill="white" stroke="#010101" stroke-miterlimit="10"/>
<g opacity="0.27">
<path opacity="0.27" d="M214.397 146.317C214.397 146.356 213.565 146.435 212.239 145.861C210.894 145.307 209.231 143.961 207.529 142.121C204.085 138.46 199.316 133.413 194.427 127.475C189.539 121.538 185.62 115.719 183.186 111.326C181.939 109.149 180.95 107.368 180.297 106.121C179.624 104.874 179.287 104.181 179.347 104.142C179.406 104.102 179.861 104.735 180.633 105.903C181.405 107.071 182.493 108.793 183.819 110.93C186.412 115.225 190.37 120.905 195.239 126.803C200.088 132.7 204.778 137.826 208.064 141.626C209.686 143.526 211.19 144.872 212.398 145.505C213.625 146.138 214.416 146.237 214.397 146.317Z" fill="#010101"/>
</g>
<g opacity="0.27">
<path opacity="0.27" d="M209.093 110.04C208.895 110.238 204.739 106.2 200.147 100.738C195.556 95.2952 192.29 90.5058 192.528 90.3474C192.765 90.1693 196.387 94.6421 200.959 100.065C205.531 105.488 209.33 109.842 209.093 110.04Z" fill="#010101"/>
</g>
<path d="M151.46 77.9777C150.926 76.0975 136.637 79.6995 136.637 79.6995C140.971 78.8287 152.965 75.8402 150.412 75.4048C147.502 74.8902 135.766 76.4142 134.678 76.6319C134.796 75.7809 143.287 75.5236 145.068 74.8902C145.563 74.7121 146.137 74.4153 146.137 73.9007C146.137 73.2476 145.286 73.0101 144.633 72.9903C141.901 72.8518 139.17 72.7132 136.439 72.5747C134.757 72.4955 132.896 72.4559 131.61 73.5444C130.541 74.435 130.145 75.8996 129.987 77.285C129.374 82.6088 130.878 88.7045 129.096 93.7512C126.286 101.747 123.496 108.595 123.436 112.533C123.337 120.093 134.321 112.078 137.805 103.924C138.359 101.391 140.556 86.6264 140.734 86.1712C140.932 85.6566 148.67 83.8952 148.67 82.5494C148.67 80.8474 138.675 82.8265 138.359 82.9452C139.962 82.1536 151.817 79.2443 151.46 77.9777Z" fill="white" stroke="#212121" stroke-width="0.5" stroke-miterlimit="10"/>
<path d="M124.208 99.5103C124.208 99.5103 135.192 104.042 139.804 104.854C139.804 104.854 134.341 121.201 123.436 118.807C118.172 117.659 124.208 99.5103 124.208 99.5103Z" fill="white" stroke="#010101" stroke-miterlimit="10"/>
<g opacity="0.27">
<path opacity="0.27" d="M142.594 105.745C142.495 106.022 138.834 105.171 134.401 103.864C129.968 102.538 126.425 101.232 126.504 100.955C126.583 100.678 130.245 101.509 134.698 102.835C139.151 104.161 142.693 105.467 142.594 105.745Z" fill="#010101"/>
</g>
</svg>
