<svg width="11" height="11" viewBox="0 0 11 11" fill="none" xmlns="http://www.w3.org/2000/svg">
<path d="M2.58468 1.49432C2.58468 2.16186 2.00608 2.703 1.29234 2.703C0.578601 2.703 0 2.16186 0 1.49432C0 0.826788 0.578601 0.285645 1.29234 0.285645C2.00608 0.285645 2.58468 0.826788 2.58468 1.49432Z" fill="white"/>
<path d="M0.17673 3.59143H2.38586V10.2856H0.17673V3.59143Z" fill="white"/>
<path d="M5.94256 3.59143H3.73343V10.2856H5.94256C5.94256 10.2856 5.94256 8.17821 5.94256 6.86054C5.94256 6.06966 6.21261 5.27531 7.29013 5.27531C8.50787 5.27531 8.50054 6.31031 8.49486 7.11214C8.48744 8.16024 8.50515 9.22983 8.50515 10.2856H10.7143V6.75259C10.6956 4.49663 10.1077 3.45713 8.17379 3.45713C7.02528 3.45713 6.31336 3.97854 5.94256 4.45028V3.59143Z" fill="white"/>
</svg>
